<svg width="20" height="20" viewBox="0 0 20 20" fill="none" xmlns="http://www.w3.org/2000/svg">
<path d="M10 2.49967C8.4529 2.49967 6.96917 3.11426 5.87521 4.20822C4.78125 5.30218 4.16667 6.78591 4.16667 8.33301C4.16667 10.718 5.65167 13.0188 7.28167 14.8013C8.11557 15.7089 9.02494 16.5441 10 17.298C10.975 16.5447 11.8844 15.7101 12.7183 14.803C14.3483 13.0188 15.8333 10.7188 15.8333 8.33301C15.8333 6.78591 15.2188 5.30218 14.1248 4.20822C13.0308 3.11426 11.5471 2.49967 10 2.49967ZM10 19.3447L9.5275 19.0197L9.525 19.018L9.52 19.0138L9.50333 19.0022L9.44083 18.958C9.09578 18.7072 8.7584 18.4459 8.42917 18.1747C7.58531 17.4815 6.79088 16.7302 6.05167 15.9263C4.34833 14.063 2.5 11.3638 2.5 8.33301C2.5 6.34388 3.29018 4.43623 4.6967 3.02971C6.10322 1.62318 8.01088 0.833008 10 0.833008C11.9891 0.833008 13.8968 1.62318 15.3033 3.02971C16.7098 4.43623 17.5 6.34388 17.5 8.33301C17.5 11.3638 15.6517 14.0638 13.9483 15.9263C12.9832 16.9761 11.9244 17.9356 10.785 18.793C10.6901 18.8639 10.5942 18.9337 10.4975 19.0022L10.48 19.0138L10.475 19.018L10.4733 19.0188L10 19.3438V19.3447ZM10 6.66634C9.55797 6.66634 9.13405 6.84194 8.82149 7.1545C8.50893 7.46706 8.33333 7.89098 8.33333 8.33301C8.33333 8.77503 8.50893 9.19896 8.82149 9.51152C9.13405 9.82408 9.55797 9.99967 10 9.99967C10.442 9.99967 10.866 9.82408 11.1785 9.51152C11.4911 9.19896 11.6667 8.77503 11.6667 8.33301C11.6667 7.89098 11.4911 7.46706 11.1785 7.1545C10.866 6.84194 10.442 6.66634 10 6.66634ZM6.66667 8.33301C6.66667 7.44895 7.01786 6.60111 7.64298 5.97599C8.2681 5.35086 9.11594 4.99967 10 4.99967C10.8841 4.99967 11.7319 5.35086 12.357 5.97599C12.9821 6.60111 13.3333 7.44895 13.3333 8.33301C13.3333 9.21706 12.9821 10.0649 12.357 10.69C11.7319 11.3152 10.8841 11.6663 10 11.6663C9.11594 11.6663 8.2681 11.3152 7.64298 10.69C7.01786 10.0649 6.66667 9.21706 6.66667 8.33301Z" fill="#A81010"/>
</svg>
