<svg width="320" height="126" viewBox="0 0 320 126" fill="none" xmlns="http://www.w3.org/2000/svg">
<path d="M104.601 38.273C115.07 10.3079 146.977 3.7326 161.31 5.18912C169.619 5.18912 189.354 10.3079 204.31 20.7949C219.267 31.2819 221.759 53.4625 221.136 63.242C223.837 69.9004 221.759 88.8351 191.846 111.307C161.933 133.779 129.944 115.677 117.688 103.816C108.963 93.6208 94.1314 66.2382 104.601 38.273Z" fill="white"/>
<path d="M214.684 6.54085C216.675 1.04343 222.739 -0.249146 225.464 0.0371777C227.043 0.0371777 230.794 1.04343 233.637 3.10498C236.48 5.16653 236.954 9.52682 236.836 11.4493C237.349 12.7582 236.954 16.4804 231.268 20.898C225.582 25.3155 219.502 21.7569 217.172 19.4254C215.514 17.4212 212.694 12.0383 214.684 6.54085Z" fill="white"/>
<path d="M201.208 6.99069C201.814 5.31757 203.66 4.92417 204.489 5.01131C204.97 5.01131 206.111 5.31757 206.977 5.94499C207.842 6.57242 207.986 7.89947 207.95 8.48456C208.106 8.88293 207.986 10.0158 206.256 11.3603C204.525 12.7047 202.674 11.6217 201.965 10.9121C201.461 10.3021 200.603 8.66382 201.208 6.99069Z" fill="white"/>
<path fill-rule="evenodd" clip-rule="evenodd" d="M147.749 117.275C147.018 117.275 146.287 117.258 145.553 117.218C134.538 116.646 124.405 111.818 117.024 103.624C109.641 95.43 105.89 84.8505 106.464 73.8371C107.036 62.822 111.865 52.6905 120.059 45.3074C124.784 41.0496 130.259 38.0096 136.334 36.278L137.797 41.4069C132.512 42.9145 127.745 45.5598 123.629 49.2683C116.493 55.7003 112.288 64.5216 111.789 74.1145C111.29 83.7056 114.556 92.918 120.985 100.054C127.414 107.188 136.238 111.394 145.83 111.892C155.421 112.399 164.634 109.126 171.77 102.698C176.227 98.6798 179.631 93.5847 181.61 87.9616L186.641 89.734C184.365 96.1945 180.458 102.047 175.338 106.66C167.692 113.551 157.965 117.275 147.749 117.275ZM147.634 105.34C147.116 105.34 146.599 105.327 146.08 105.301C138.282 104.894 131.109 101.477 125.883 95.6759C120.657 89.875 118.002 82.387 118.408 74.5896C118.813 66.7923 122.231 59.6208 128.032 54.3941C130.564 52.1114 133.435 50.307 136.565 49.0341L138.578 53.9727C136.022 55.0145 133.674 56.4883 131.602 58.3567C126.86 62.6287 124.065 68.4919 123.733 74.867C123.402 81.2421 125.573 87.363 129.845 92.1061C134.117 96.8474 139.982 99.6421 146.357 99.9745C152.727 100.305 158.853 98.1363 163.594 93.8625C166.517 91.2314 168.759 87.8981 170.082 84.2252L175.098 86.0314C173.481 90.5274 170.738 94.6056 167.164 97.8252C161.751 102.702 154.867 105.34 147.634 105.34ZM132.484 75.9884C132.484 76.1786 132.488 76.3706 132.495 76.5626L137.825 76.3581L137.818 75.9884C137.818 74.2302 138.283 72.5057 139.163 70.9982L134.559 68.3066C133.201 70.6302 132.484 73.2862 132.484 75.9884ZM136.397 86.1679C137.906 87.8426 139.716 89.1315 141.778 90.0026L143.851 85.0888C142.516 84.5235 141.339 83.6879 140.36 82.5982C140.072 82.2799 139.807 81.944 139.567 81.5991L135.182 84.6337C135.549 85.1653 135.958 85.6808 136.397 86.1679ZM149.343 85.7288L150.225 90.9893C153.08 90.5128 155.729 89.2311 157.887 87.2862L154.315 83.3253C152.914 84.5893 151.194 85.4195 149.343 85.7288ZM179.558 28.2439C179.125 28.2439 178.694 28.2568 178.267 28.2821L177.594 15.0703C182.375 15.0634 186.58 15.7714 189.149 16.3301L186.365 24.6803L191.425 26.3674L195.117 15.29C195.343 14.6109 195.288 13.8679 194.963 13.2314C194.635 12.5932 194.068 12.115 193.384 11.9016C192.221 11.5372 164.689 3.17805 149.898 21.3807C133.045 42.1238 146.5 72.1434 147.082 73.4092L151.931 71.1887C151.803 70.9078 139.288 42.8972 154.038 24.7425C154.467 24.2147 154.911 23.7139 155.368 23.2389L160.525 29.9141L164.745 26.6519L159.477 19.8325C163.439 17.2333 167.927 15.9359 172.27 15.3939L172.978 29.2708C164.298 32.0593 157.999 40.2104 157.999 49.803C157.999 51.5826 158.436 54.4408 158.824 56.9736L158.831 57.019C158.945 57.7604 159.05 58.4466 159.13 59.0137C160.155 66.4039 157.615 71.3941 157.595 71.4297C157.163 72.2386 157.178 73.2163 157.634 74.0128C158.091 74.811 158.927 75.3177 159.846 75.3515C162.781 75.4652 171.21 76.1017 174.898 77.659C175.967 78.1106 176.977 78.5603 177.947 78.9941L177.949 78.9948C182.279 80.927 186.135 82.6475 191.106 82.6475C192.33 82.6475 193.618 82.5443 194.998 82.3132C196.354 82.0874 197.314 80.8697 197.22 79.4972L196.314 66.475L190.993 66.8448L191.72 77.2999C187.781 77.4446 184.68 76.1521 180.785 74.421L182.868 66.3702L177.704 65.035L175.82 72.3135C172.274 71.1295 167.122 70.5367 163.681 70.2528C164.419 67.5898 165.068 63.6218 164.479 58.7956C166.501 58.1655 169.929 57.1706 174.24 56.2017L173.07 50.9982C169.091 51.8937 165.86 52.7996 163.694 53.4561C163.494 52.0218 163.332 50.6356 163.332 49.803C163.332 40.8572 170.61 33.5772 179.558 33.5772C184.312 33.5772 188.904 35.7657 192.157 39.5772C194.106 41.8625 195.653 43.7883 195.81 43.984L195.823 44.0003L199.99 40.6706C199.99 40.6706 198.333 38.5995 196.214 36.1159C191.946 31.1133 185.876 28.2439 179.558 28.2439ZM183.56 54.5557C183.56 53.0854 184.756 51.889 186.227 51.889C187.697 51.889 188.893 53.0854 188.893 54.5557C188.893 56.0259 187.697 57.2223 186.227 57.2223C184.756 57.2223 183.56 56.0259 183.56 54.5557ZM178.227 54.5557C178.227 58.9663 181.816 62.5557 186.227 62.5557C187.411 62.5557 188.535 62.297 189.547 61.8333L211.798 63.9337C211.882 63.9408 211.965 63.9443 212.049 63.9443C212.856 63.9443 213.628 63.5763 214.136 62.9381C214.698 62.2323 214.863 61.2901 214.579 60.435L209.459 45.0785C209.046 43.8412 207.796 43.0875 206.511 43.2866L185.973 46.5596C181.679 46.6941 178.227 50.2299 178.227 54.5557ZM194.227 54.5557C194.227 55.3655 194.106 56.1476 193.881 56.8849L208.225 58.2394L205.116 48.9097L193.286 50.7952C193.886 51.9169 194.227 53.1973 194.227 54.5557Z" fill="black"/>
</svg>
