<svg width="1440" height="744" viewBox="0 0 1440 744" fill="none" xmlns="http://www.w3.org/2000/svg">
<g clip-path="url(#clip0_521_37)">
<path d="M1058.18 773.628L818.667 910.948L790.46 755.788L786.663 734.865C779.503 695.495 746.891 665.782 707.033 662.31L672.317 659.293L634.238 520.866V462.765L886.059 453.541L932.014 451.87L951.889 585.695L1058.18 773.628Z" fill="white" stroke="black" stroke-width="12" stroke-miterlimit="10"/>
<path d="M862.911 538.899V636.132H771.348V538.899C771.348 538.899 771.348 497.51 817.129 497.51C862.911 497.51 862.911 538.899 862.911 538.899Z" fill="black" stroke="black" stroke-width="12" stroke-miterlimit="10"/>
<path d="M937.762 695.104H871.715V784.957H937.762V695.104Z" fill="black" stroke="black" stroke-width="12" stroke-miterlimit="10"/>
<path d="M1544.99 549.277C1548.41 570.457 1524.49 807.244 1524.49 807.244L1058.18 773.627L951.889 585.694L932.014 451.869L886.059 453.54V366.768C886.059 366.768 1293.91 360.648 1502.22 502.287C1502.22 502.287 1541.58 528.097 1544.99 549.277Z" fill="white" stroke="black" stroke-width="12" stroke-miterlimit="10"/>
<path d="M1106.85 745.718V643.971C1106.85 643.971 1106.85 589.407 1158.36 589.407C1209.87 589.407 1209.87 643.971 1209.87 643.971V745.718" fill="black"/>
<path d="M1106.85 745.718V643.971C1106.85 643.971 1106.85 589.407 1158.36 589.407C1209.87 589.407 1209.87 643.971 1209.87 643.971V745.718" stroke="black" stroke-width="12" stroke-miterlimit="10"/>
<path d="M1315.26 763.097V661.63C1315.26 661.63 1315.26 607.217 1358.3 607.217C1401.35 607.217 1401.35 661.63 1401.35 661.63V763.097" fill="black"/>
<path d="M1315.26 763.097V661.63C1315.26 661.63 1315.26 607.217 1358.3 607.217C1401.35 607.217 1401.35 661.63 1401.35 661.63V763.097" stroke="black" stroke-width="12" stroke-miterlimit="10"/>
<path d="M1022.32 436.161L1096.28 442.021V507.501H1022.32V436.161Z" fill="black" stroke="black" stroke-width="12" stroke-miterlimit="10"/>
<path d="M1273.26 468.956L1201.95 454.632V514.751L1273.26 523.346V468.956Z" fill="black" stroke="black" stroke-width="12" stroke-miterlimit="10"/>
<path d="M1410.07 510.617L1358.85 500.392V543.309L1410.07 549.445V510.617Z" fill="black" stroke="black" stroke-width="12" stroke-miterlimit="10"/>
<path d="M451.358 193.765C356.193 207.026 70.2183 306.898 -79.0781 460.598V320.524C5.37789 173.364 308.827 36.1305 371.36 22.9346C434.217 124.552 451.358 193.765 451.358 193.765Z" fill="white" stroke="black" stroke-width="12" stroke-miterlimit="10"/>
<path d="M634.238 433.161V477.892C551.397 472.879 80.006 564.058 -90.8398 641.931L-87.2518 484.583L-70.9055 446.976C82.4329 311.996 356.185 207.029 451.35 193.768H451.372L477.799 189.08C485.784 187.669 493.899 190.686 499.02 196.98C502.643 201.43 504.422 207.138 503.967 212.889L500.256 258.836C498.173 284.664 501.168 310.621 509.109 335.255L526.923 390.643L588.891 386.107C603.883 385 618.269 392.314 626.21 405.076C631.461 413.497 634.238 423.22 634.238 433.161Z" fill="white" stroke="black" stroke-width="12" stroke-miterlimit="10"/>
<path d="M790.462 755.787C790.462 755.787 29.0191 772.344 -107.957 787.624L-89.4312 642.644C262.015 477.892 551.399 472.878 634.24 477.892V520.865L672.319 659.292L707.035 662.309C746.894 665.781 779.505 695.494 786.665 734.864L790.462 755.787Z" fill="white" stroke="black" stroke-width="12" stroke-miterlimit="10"/>
<path d="M490.059 595.372V694.558L588.023 689.74V592.963C588.023 592.963 588.023 535.492 538.444 539.724C491.317 543.739 490.059 595.372 490.059 595.372Z" fill="black" stroke="black" stroke-width="12" stroke-miterlimit="10"/>
<path d="M335.469 709.143L420.74 700.678L420.111 599.669C420.111 599.669 423.756 560.363 388.063 560.363C335.469 560.363 337.27 611.172 337.27 611.172L335.469 709.143Z" fill="black" stroke="black" stroke-width="12" stroke-miterlimit="10"/>
<path d="M269.095 721.096L268.484 623.421C268.484 623.421 272.024 585.413 237.357 585.413C186.273 585.413 188.023 634.545 188.023 634.545L186.273 729.302L269.095 721.096Z" fill="black" stroke="black" stroke-width="12" stroke-miterlimit="10"/>
<path d="M131.791 743.583L131.236 654.047C131.236 654.047 134.45 619.206 102.976 619.206C56.5977 619.206 58.1857 664.243 58.1857 664.243L56.5977 751.105L131.791 743.583Z" fill="black" stroke="black" stroke-width="12" stroke-miterlimit="10"/>
<path d="M-66.5508 788.144L8.64232 780.641L8.08744 691.105C8.08744 691.105 11.3018 656.265 -20.1721 656.265C-66.5508 656.265 -64.9627 701.302 -64.9627 701.302L-66.5508 788.163V788.144Z" fill="black" stroke="black" stroke-width="12" stroke-miterlimit="10"/>
<path d="M368.598 420.328V334.598C368.598 334.598 368.598 287.609 407.328 287.609C449.225 287.609 444.777 321.272 444.777 321.272L441.61 407.002L368.598 420.328Z" fill="black" stroke="black" stroke-width="12" stroke-miterlimit="10"/>
<path d="M322.888 427.948L255.582 446.375L258.75 364.443C258.75 364.443 260.659 320.623 293.032 320.623C325.405 320.623 323.517 351.746 323.517 351.746L322.888 427.948Z" fill="black" stroke="black" stroke-width="12" stroke-miterlimit="10"/>
<path d="M202.87 457.792L141.293 478.736L145.919 402.683C145.919 402.683 150.035 370.006 180.831 361.402C211.626 352.799 207.497 396.324 207.497 396.324L202.87 457.77V457.792Z" fill="black" stroke="black" stroke-width="12" stroke-miterlimit="10"/>
<path d="M51.1562 511.138L94.9634 491.453L96.8728 434.936C96.8728 434.936 94.3562 410.404 76.564 415.88C58.7718 421.356 54.3458 441.273 54.3458 441.273L51.1562 511.138Z" fill="black" stroke="black" stroke-width="12" stroke-miterlimit="10"/>
<path d="M-25.2398 480.794L-27.7501 545.56L15.7274 525.458L17.3089 474.457C17.3089 474.457 14.7923 449.925 -2.99988 455.401C-20.7921 460.876 -25.2181 480.794 -25.2181 480.794H-25.2398Z" fill="black" stroke="black" stroke-width="12" stroke-miterlimit="10"/>
<path d="M742.821 239.754L667.324 199.132L742.821 302.534L818.318 199.132L742.821 239.754Z" fill="white" stroke="black" stroke-width="12" stroke-miterlimit="16"/>
<g style="mix-blend-mode:darken">
<path d="M742.82 239.754V302.534L818.317 199.132L742.82 239.754Z" fill="#DCDCDC"/>
</g>
<path d="M743.128 208.35L832.604 160.403L743.128 25.2471L653.652 160.403L743.128 208.35Z" fill="white" stroke="black" stroke-width="12" stroke-miterlimit="16"/>
<g style="mix-blend-mode:darken">
<path d="M743.129 208.35L832.605 160.403L743.129 25.2471V208.35Z" fill="#DCDCDC"/>
</g>
</g>
<defs>
<clipPath id="clip0_521_37">
<rect width="1440" height="744" fill="white"/>
</clipPath>
</defs>
</svg>
