<svg width="213" height="71" viewBox="0 0 213 71" fill="none" xmlns="http://www.w3.org/2000/svg">
<path d="M64.858 47.9591H51.8438V25.341H64.858V29.2705H56.6352V34.2365H64.2862V38.1662H56.6352V43.9987H64.858V47.9591ZM77.5137 47.9591H72.7223V29.3324H66.5861V25.341H83.6499V29.3324H77.5137V47.9591ZM104.853 47.9591H100.077V38.1972H91.1278V47.9591H86.3363V25.341H91.1278V34.2056H100.077V25.341H104.853V47.9591ZM119.966 47.9591L112.377 27.94H112.254C112.295 28.3629 112.331 28.8786 112.362 29.487C112.393 30.0957 112.419 30.7609 112.439 31.4827C112.46 32.1945 112.47 32.9217 112.47 33.6642V47.9591H110.028V25.341H113.923L121.079 44.1533H121.187L128.452 25.341H132.316V47.9591H129.719V33.4786C129.719 32.8081 129.73 32.1377 129.75 31.4674C129.771 30.7865 129.797 30.1471 129.828 29.549C129.858 28.9405 129.889 28.4145 129.92 27.971H129.797L122.115 47.9591H119.966ZM151.309 31.0033V47.9591H149.207L148.836 45.5766H148.697C148.346 46.1645 147.893 46.6596 147.337 47.0619C146.78 47.464 146.152 47.7632 145.451 47.9591C144.76 48.1654 144.024 48.2685 143.241 48.2685C141.901 48.2685 140.778 48.052 139.871 47.6189C138.964 47.1856 138.279 46.5152 137.815 45.6076C137.362 44.7 137.135 43.5346 137.135 42.1112V31.0033H139.732V41.9256C139.732 43.3386 140.051 44.3957 140.69 45.097C141.329 45.788 142.303 46.1336 143.611 46.1336C144.869 46.1336 145.868 45.8963 146.61 45.422C147.362 44.9475 147.903 44.2513 148.233 43.3334C148.563 42.4051 148.728 41.2707 148.728 39.9298V31.0033H151.309ZM163.965 30.6938C165.974 30.6938 167.494 31.1889 168.524 32.1789C169.555 33.1587 170.07 34.7369 170.07 36.913V47.9591H167.535V37.0833C167.535 35.6702 167.21 34.613 166.561 33.9117C165.922 33.2104 164.938 32.8597 163.609 32.8597C161.734 32.8597 160.415 33.3909 159.652 34.4533C158.89 35.5155 158.508 37.0574 158.508 39.0789V47.9591H155.943V31.0033H158.014L158.4 33.4477H158.539C158.9 32.8495 159.358 32.3491 159.915 31.947C160.471 31.5344 161.095 31.225 161.785 31.0187C162.475 30.8021 163.202 30.6938 163.965 30.6938ZM177.13 31.0033V47.9591H174.564V31.0033H177.13ZM175.878 24.6602C176.301 24.6602 176.662 24.7995 176.96 25.0779C177.269 25.3462 177.424 25.769 177.424 26.3465C177.424 26.9139 177.269 27.3367 176.96 27.6152C176.662 27.8937 176.301 28.0329 175.878 28.0329C175.435 28.0329 175.064 27.8937 174.765 27.6152C174.477 27.3367 174.333 26.9139 174.333 26.3465C174.333 25.769 174.477 25.3462 174.765 25.0779C175.064 24.7995 175.435 24.6602 175.878 24.6602ZM188.565 48.2685C187.04 48.2685 185.695 47.9539 184.531 47.3248C183.366 46.6957 182.46 45.7366 181.811 44.4473C181.161 43.1581 180.837 41.5336 180.837 39.574C180.837 37.5215 181.177 35.8455 181.857 34.546C182.547 33.2362 183.495 32.2667 184.701 31.6376C185.906 31.0084 187.277 30.6938 188.812 30.6938C189.657 30.6938 190.471 30.7814 191.254 30.9567C192.048 31.1218 192.697 31.3332 193.202 31.5912L192.429 33.7415C191.914 33.5352 191.316 33.3496 190.636 33.1846C189.966 33.0195 189.338 32.937 188.751 32.937C187.576 32.937 186.597 33.1897 185.814 33.6952C185.041 34.2005 184.459 34.9432 184.067 35.923C183.686 36.9028 183.495 38.1094 183.495 39.543C183.495 40.9149 183.681 42.0854 184.052 43.0549C184.433 44.0245 184.995 44.767 185.736 45.2828C186.489 45.788 187.426 46.0407 188.55 46.0407C189.446 46.0407 190.255 45.948 190.976 45.7622C191.697 45.5664 192.352 45.3394 192.939 45.0816V47.3712C192.372 47.6601 191.739 47.8818 191.038 48.0366C190.348 48.1912 189.523 48.2685 188.565 48.2685ZM198.733 23.8867V31.0806C198.733 31.4932 198.723 31.9109 198.701 32.3337C198.681 32.7463 198.644 33.128 198.593 33.4786H198.762C199.113 32.8802 199.556 32.3801 200.092 31.978C200.638 31.5654 201.257 31.2559 201.946 31.0496C202.638 30.8331 203.369 30.7248 204.141 30.7248C205.503 30.7248 206.636 30.9414 207.542 31.3745C208.458 31.8078 209.144 32.4781 209.597 33.3857C210.062 34.2933 210.293 35.4692 210.293 36.913V47.9591H207.759V37.0833C207.759 35.6702 207.434 34.613 206.786 33.9117C206.145 33.2104 205.162 32.8597 203.832 32.8597C202.575 32.8597 201.572 33.1021 200.819 33.5869C200.076 34.0612 199.54 34.7625 199.211 35.6909C198.892 36.6192 198.733 37.7536 198.733 39.0943V47.9591H196.166V23.8867H198.733Z" fill="black" fill-opacity="0.72"/>
<mask id="mask0_1412_390" style="mask-type:luminance" maskUnits="userSpaceOnUse" x="0" y="0" width="43" height="71">
<path d="M42.6737 0H0V70.9884H42.6737V0Z" fill="white"/>
</mask>
<g mask="url(#mask0_1412_390)">
<path d="M21.3958 0.0585938C21.6025 0.338893 21.757 0.650954 21.9329 0.949691C22.4996 1.91186 23.06 2.87781 23.622 3.84308C24.232 4.89143 24.8416 5.94008 25.4505 6.98901C25.9939 7.92187 26.5381 8.85473 27.0836 9.78757C27.6938 10.8356 28.3034 11.8842 28.9123 12.9333C29.4441 13.8475 29.9761 14.7615 30.5083 15.6754C31.0744 16.6468 31.6409 17.6178 32.2074 18.5886C32.9187 19.8086 33.6306 21.0286 34.3429 22.249C35.0578 23.4761 35.7714 24.7038 36.4839 25.9319C37.1316 27.0438 37.7805 28.155 38.4305 29.2656C39.1418 30.4862 39.8517 31.7078 40.5605 32.9303C41.2263 34.0746 41.8931 35.2183 42.5606 36.3616C42.6637 36.5393 42.6647 36.5496 42.494 36.6574C41.5689 37.2434 40.6428 37.8284 39.7158 38.4121C38.9276 38.9097 38.1393 39.4069 37.3507 39.9041C35.9105 40.8104 34.4702 41.7164 33.0296 42.622C31.5457 43.5557 30.0618 44.4897 28.5779 45.4244C26.8564 46.5081 25.1344 47.5918 23.4125 48.6754C22.7989 49.0617 22.1859 49.4491 21.5735 49.8372C21.5113 49.8767 21.4539 49.9246 21.381 49.9453L21.3434 49.907C21.342 49.8033 21.3398 49.7 21.3398 49.5962C21.3398 33.168 21.3398 16.7398 21.3398 0.311574C21.3398 0.23006 21.3418 0.148769 21.343 0.0672559L21.3958 0.0585938ZM36.5066 36.6726C36.5424 36.6647 36.5838 36.6659 36.6128 36.6478C37.1623 36.3032 37.7105 35.9571 38.2575 35.6092C38.3944 35.5216 38.395 35.4919 38.3075 35.3406C38.061 34.913 37.8206 34.4817 37.5653 34.0592C37.4362 33.8464 37.3448 33.61 37.1714 33.4246C37.092 33.1907 36.9418 32.9952 36.8201 32.7846C36.2091 31.7281 35.5955 30.6729 34.9795 29.6194C34.4398 28.6924 33.8998 27.7659 33.3593 26.8395C32.7488 25.7911 32.139 24.7425 31.5298 23.6934C30.8854 22.5878 30.2405 21.4826 29.5946 20.3779C28.8207 19.0484 28.0479 17.718 27.2759 16.3868C26.4987 15.0506 25.7198 13.7153 24.9392 12.3809C24.8125 12.1652 24.7069 11.9367 24.5457 11.741C24.5419 11.7188 24.5382 11.6868 24.5142 11.6926C24.4901 11.6984 24.4988 11.7297 24.5069 11.7515C24.5049 11.8403 24.5008 11.9291 24.5008 12.018C24.5008 16.7068 24.5008 21.3958 24.5008 26.085C24.5008 26.1737 24.5051 26.2627 24.5071 26.3514C24.5037 26.4403 24.4972 26.5291 24.497 26.618C24.497 27.513 24.497 28.4082 24.497 29.3034C24.497 29.5257 24.5025 29.7478 24.5055 29.9698C24.5041 30.0215 24.5017 30.0734 24.5017 30.1252C24.5017 34.7515 24.5017 39.3777 24.5017 44.0042C24.5017 44.0485 24.5017 44.0929 24.5035 44.1375C24.5078 44.2233 24.5563 44.2393 24.6227 44.2004C24.7311 44.1369 24.8357 44.0673 24.9423 44.0006C26.5387 42.9954 28.1354 41.9899 29.7318 40.9845C30.6261 40.4181 31.5209 39.8524 32.4158 39.2876C33.7242 38.4632 35.0325 37.6392 36.3413 36.8154C36.4039 36.7758 36.4713 36.7428 36.5066 36.6726Z" fill="black" fill-opacity="0.72"/>
<path d="M21.3424 0.0646227C21.3414 0.146136 21.3394 0.227428 21.3394 0.30894C21.3394 16.7372 21.3394 33.1657 21.3394 49.5947C21.3394 49.6984 21.3416 49.8018 21.3428 49.9055C21.3384 49.9193 21.3361 49.9335 21.3353 49.9479C21.1771 49.8994 21.0516 49.7925 20.9152 49.7059C18.0339 47.8941 15.1536 46.08 12.2743 44.2642C9.82618 42.7215 7.37806 41.1794 4.92996 39.6377C3.34584 38.64 1.76201 37.6417 0.178492 36.6431C0.147598 36.6236 0.119149 36.5987 0.0895881 36.578C0.0871432 36.5447 0.0844761 36.5114 0.0820312 36.4778C0.312958 36.0733 0.540996 35.6675 0.775257 35.2649C1.70904 33.6597 2.64365 32.0551 3.57905 30.4507C4.76756 28.412 5.95598 26.3734 7.14431 24.3343C8.47787 22.0457 9.81024 19.7569 11.1414 17.4679C12.4305 15.256 13.7196 13.0445 15.0087 10.8335C16.2596 8.68618 17.5098 6.53787 18.7594 4.38862C19.5848 2.96935 20.4116 1.55082 21.2395 0.133032C21.2653 0.0886103 21.2841 0.0390803 21.3351 0.0146484L21.3424 0.0646227ZM18.1775 29.9644C18.1793 29.6027 18.1831 29.2414 18.1828 28.8799C18.1819 28.0387 18.18 27.1976 18.177 26.3564C18.1793 26.297 18.1837 26.2381 18.1837 26.1787C18.1837 21.4191 18.1837 16.6596 18.1837 11.9001V11.7224C18.0879 11.7701 18.0741 11.8397 18.0419 11.8947C17.3751 13.0386 16.7084 14.183 16.0416 15.3279C15.293 16.6127 14.5441 17.8976 13.795 19.1825C12.9128 20.6977 12.0306 22.2134 11.1485 23.7296C10.2995 25.1871 9.45011 26.6445 8.60034 28.102C7.77724 29.5147 6.95488 30.928 6.13326 32.3417C5.92589 32.6999 5.70009 33.0476 5.5196 33.4209C5.49166 33.4552 5.46561 33.4907 5.44159 33.5278C5.07998 34.1445 4.72058 34.7626 4.35764 35.3781C4.30118 35.4744 4.31163 35.5337 4.41009 35.5941C4.78036 35.8225 5.14355 36.0605 5.51471 36.2883C5.73431 36.4228 5.93701 36.5867 6.18037 36.6802C6.22039 36.7469 6.2915 36.7756 6.35396 36.8135C7.21721 37.3592 8.08108 37.904 8.94551 38.4475C11.8255 40.2623 14.7059 42.0766 17.5865 43.8902C17.767 44.0036 17.9359 44.1381 18.1375 44.2166C18.1431 44.2324 18.1597 44.2411 18.167 44.2299C18.1727 44.2121 18.1749 44.1934 18.1733 44.1748C18.1764 44.0938 18.1819 44.0127 18.1819 43.9305C18.1819 39.3685 18.1819 34.8066 18.1819 30.2446C18.1819 30.1638 18.1751 30.0827 18.1713 30.0017C18.1768 29.99 18.179 29.977 18.1775 29.9644Z" fill="black" fill-opacity="0.72"/>
<path d="M42.5506 40.4453C42.3922 40.7386 42.1811 40.9966 41.9932 41.2699C40.9824 42.7388 39.9674 44.2052 38.9481 45.6689C38.2784 46.6361 37.6086 47.6035 36.9395 48.5711C36.4136 49.3302 35.8877 50.0889 35.3614 50.8474C33.3953 53.6882 31.4293 56.5292 29.4632 59.3702C27.8674 61.6755 26.2706 63.9802 24.6734 66.285C23.7717 67.5866 22.8693 68.8877 21.9659 70.1882C21.7773 70.4584 21.6202 70.7519 21.3844 70.9877C21.3844 70.8767 21.3828 70.7657 21.3828 70.6546V54.9646C21.3828 54.5132 21.3834 54.0619 21.3846 53.6107C22.1881 53.1082 22.9914 52.6055 23.7946 52.1029C26.3525 50.4975 28.9103 48.8918 31.4679 47.2858L35.0042 45.0647L41.8682 40.7559C42.0929 40.6147 42.3096 40.4605 42.5488 40.3438C42.5502 40.3787 42.5504 40.4114 42.5506 40.4453ZM31.3187 51.133C31.3049 51.0805 31.2829 51.1146 31.263 51.1279C30.768 51.4375 30.273 51.7471 29.7783 52.0568C28.0869 53.1178 26.3953 54.1785 24.7033 55.2384C24.59 55.3092 24.5418 55.3827 24.542 55.5186C24.5463 57.2512 24.5447 58.9818 24.5465 60.7133C24.5465 60.7578 24.5148 60.817 24.5804 60.8466C24.6312 60.8205 24.6529 60.772 24.6822 60.73C25.7137 59.2418 26.7454 57.7535 27.7771 56.2657C28.6747 54.9703 29.5718 53.6746 30.4685 52.3788C30.7534 51.9655 31.0346 51.5483 31.3187 51.133Z" fill="black" fill-opacity="0.72"/>
<path d="M21.3818 53.6108C21.3818 54.062 21.3812 54.5133 21.38 54.9645V70.6547C21.38 70.7658 21.38 70.877 21.3816 70.988C21.3046 70.9723 21.2884 70.8991 21.2526 70.8466C20.3541 69.5515 19.4568 68.2555 18.5606 66.9588C16.9933 64.6957 15.4257 62.4325 13.8579 60.1698C12.1814 57.7481 10.5055 55.326 8.8299 52.9037C7.73937 51.3277 6.64814 49.7519 5.55625 48.1767C3.78588 45.6219 2.01523 43.0677 0.244259 40.5138C0.206697 40.4598 0.172469 40.4028 0.128906 40.3361C0.22559 40.3062 0.27693 40.3673 0.334052 40.4028C1.30666 41.0114 2.2789 41.6207 3.25076 42.2307C5.48342 43.6315 7.71492 45.0332 9.94521 46.4352C12.3775 47.9627 14.8099 49.4902 17.2424 51.0175C18.5964 51.8677 19.9501 52.7185 21.3036 53.5698C21.3286 53.5844 21.3558 53.5968 21.3818 53.6108ZM11.5135 51.1475C11.5001 51.1195 11.4819 51.1031 11.449 51.1191L11.4728 51.1469C11.4868 51.2232 11.5395 51.277 11.5819 51.3372C12.226 52.2685 12.8706 53.1996 13.5156 54.1303C14.9389 56.1873 16.3629 58.2437 17.7874 60.2996C17.913 60.4802 18.0186 60.6771 18.1799 60.8325L18.199 60.8622L18.2124 60.8321C18.2159 60.7877 18.223 60.7433 18.223 60.6988C18.223 58.9691 18.2217 57.2391 18.2268 55.509C18.2268 55.368 18.1668 55.3026 18.057 55.2337C16.1456 54.037 14.2355 52.8389 12.3267 51.6395C12.0584 51.4705 11.8017 51.2822 11.5128 51.1475H11.5135Z" fill="black" fill-opacity="0.72"/>
<path d="M36.5066 36.6726C35.9247 36.3498 35.3429 36.0269 34.7612 35.7041C34.2129 35.3976 33.6653 35.0893 33.1183 34.7795C32.4675 34.4127 31.8169 34.046 31.1664 33.6796C30.6313 33.3788 30.0959 33.0787 29.5602 32.7793C28.7738 32.3373 27.9878 31.8949 27.202 31.452C26.6863 31.1619 26.1703 30.8725 25.654 30.5836C25.3254 30.399 24.9967 30.214 24.6683 30.0282C24.617 29.9996 24.5686 29.9618 24.5053 29.9661C24.5023 29.744 24.497 29.5219 24.4968 29.2999C24.4958 28.4047 24.4958 27.5095 24.4968 26.6143C24.4968 26.5254 24.5035 26.4366 24.5071 26.3477C24.9666 26.6017 25.4273 26.8533 25.885 27.1093C26.5238 27.4667 27.1618 27.8258 27.7986 28.1868C28.4625 28.5609 29.1259 28.935 29.7893 29.3091C30.3113 29.6028 30.8338 29.8935 31.357 30.1872C32.0212 30.5603 32.6846 30.9343 33.3477 31.3092C33.9859 31.6681 34.6245 32.0263 35.2635 32.3834C35.8694 32.724 36.4749 33.0654 37.0802 33.4074C37.1093 33.4238 37.1324 33.4668 37.1708 33.422C37.3442 33.6076 37.4358 33.8441 37.5647 34.0569C37.8201 34.4789 38.0607 34.9107 38.3072 35.3382C38.3944 35.4895 38.394 35.5193 38.2571 35.6068C37.7107 35.9557 37.1624 36.3019 36.6124 36.6454C36.5836 36.6659 36.5425 36.6649 36.5066 36.6726Z" fill="black" fill-opacity="0.72"/>
<path d="M18.1261 29.9997C17.7883 30.135 17.488 30.3403 17.172 30.5155C16.2405 31.032 15.3141 31.5572 14.3857 32.0794C13.2642 32.7102 12.1427 33.3411 11.0212 33.9724C10.0219 34.5341 9.02232 35.0952 8.02244 35.6559C7.46769 35.9669 6.91322 36.2787 6.35905 36.5913C6.30104 36.6236 6.24037 36.6509 6.18124 36.68C5.93675 36.5868 5.73518 36.4229 5.51558 36.2886C5.14485 36.0616 4.78212 35.8221 4.41095 35.5941C4.31249 35.5334 4.30205 35.4744 4.3585 35.3784C4.72145 34.7627 5.08085 34.1448 5.44246 33.528C5.46648 33.491 5.49252 33.4553 5.52046 33.4211C5.67938 33.3989 5.8043 33.3006 5.93787 33.2261C7.09272 32.5802 8.24633 31.9321 9.39866 31.2821C10.7451 30.5241 12.0913 29.766 13.4371 29.0079C14.4488 28.4391 15.461 27.8711 16.4736 27.3041C17.0085 27.0037 17.5434 26.7032 18.0781 26.4026C18.1101 26.3846 18.1448 26.3716 18.1781 26.3564C18.1801 27.1976 18.182 28.0388 18.1839 28.8799C18.1839 29.2414 18.1803 29.6029 18.1786 29.9644L18.1261 29.9997Z" fill="black" fill-opacity="0.72"/>
</g>
</svg>
