<svg width="199" height="67" viewBox="0 0 199 67" fill="none" xmlns="http://www.w3.org/2000/svg">
<g id="Frame">
<g id="Group">
<path id="Vector" d="M33.8492 1.92356C36.7571 1.92356 39.143 4.29001 39.143 7.17411C39.143 10.0582 36.7571 12.3507 33.8492 12.3507C30.9414 12.3507 28.5555 9.98427 28.5555 7.10016C28.5555 4.21606 30.9414 1.84961 33.8492 1.92356ZM37.0553 22.4081C35.4896 20.0417 32.2089 20.0417 30.5686 22.4081C26.9152 27.8066 21.5469 36.5328 21.5469 41.2657C21.5469 48.3651 26.9897 54.1333 33.7001 54.1333C40.4105 54.1333 45.9279 48.439 45.9279 41.3397C45.9279 36.5328 40.6342 27.8066 37.0553 22.4081Z" fill="#7C7C7C"/>
<path id="Vector_2" d="M48.314 5.99075C46.9719 5.32519 45.4061 5.84285 44.7351 7.10002C44.0641 8.3572 44.586 9.98413 45.8535 10.5757C54.7261 15.0868 60.2435 24.0349 60.2435 33.8704C60.2435 38.2336 59.1251 42.3749 57.112 45.9985C57.4103 44.5934 57.5594 43.1883 57.5594 41.7093C57.5594 36.015 55.4717 30.4687 51.6692 26.1795C50.6999 25.0702 49.0596 24.9963 47.9412 25.9576C46.8228 26.919 46.7482 28.5459 47.7175 29.6552C50.6999 32.983 52.3402 37.2722 52.3402 41.7093C52.2656 51.4709 44.4369 59.3837 34.6695 59.8274C34.3713 59.8274 33.9985 59.8274 33.7003 59.8274C33.402 59.8274 33.0292 59.8274 32.731 59.8274C22.9637 59.3097 15.1349 51.323 15.2094 41.5614C15.2094 37.3462 16.6261 33.4267 19.3102 30.1729C20.2049 29.0636 20.0558 27.4367 18.9374 26.4753C17.819 25.5879 16.1042 25.7358 15.2094 26.8451C11.7051 31.0603 9.84114 36.2369 9.84114 41.5614C9.84114 43.0404 9.99026 44.5194 10.2139 45.9245C8.27539 42.3009 7.15699 38.1596 7.15699 33.7965C7.23155 23.9609 12.749 15.0868 21.6961 10.6497C23.0382 9.98413 23.5601 8.43115 22.8891 7.17397C22.2181 5.9168 20.6523 5.39914 19.3102 5.99075C8.64818 11.2413 1.93781 21.8903 1.93781 33.7225C1.86325 50.5095 15.4331 64.3384 32.4327 65.004C32.8055 65.004 33.2529 65.004 33.6257 65.0779C51.2218 65.1519 65.5373 51.1751 65.6118 33.9444C65.6118 22.1122 59.0506 11.4632 48.314 5.99075Z" fill="#B1B1B1"/>
<path id="Vector_3" d="M84.9216 33.2042L93.7196 24.2561H98.2678L88.0531 34.3875L98.3423 46.6634H93.7942L85.6672 36.6799L84.9962 37.3455V46.5894H81.5664V24.2561H84.9962V33.2042H84.9216ZM115.267 27.436H106.246V32.8345H115.044V36.0144H106.246V43.4835H115.267V46.6634H102.816V24.2561H115.267V27.436ZM128.912 37.1237L135.92 46.6634H131.745L125.258 37.4934H124.662V46.6634H121.232V24.2561H125.258C128.241 24.2561 130.403 24.8477 131.745 25.957C133.236 27.2142 133.907 28.8411 133.907 30.8378C133.907 32.3908 133.46 33.7958 132.565 34.9051C131.671 36.0144 130.403 36.7539 128.912 37.1237ZM124.662 34.5354H125.78C128.986 34.5354 130.627 33.2782 130.627 30.8378C130.627 28.5453 129.061 27.3621 125.929 27.3621H124.737V34.5354H124.662ZM140.841 46.6634V22.7031L157.319 39.7859V24.2561H160.749V47.9945L144.271 30.9117V46.5894L140.841 46.6634ZM180.06 27.436H171.038V32.8345H179.836V36.0144H171.038V43.4835H180.06V46.6634H167.608V24.2561H180.06V27.436ZM189.454 24.2561V43.4835H196.09V46.6634H186.025V24.2561H189.454Z" fill="black"/>
</g>
</g>
</svg>
