<svg width="186" height="49" viewBox="0 0 186 49" fill="none" xmlns="http://www.w3.org/2000/svg">
<g id="svg10" clip-path="url(#clip0_1971_470)">
<path id="path2" d="M0 29.2247V42.4081L11.4539 49L22.9077 42.4076V29.2225L11.4539 22.6323L0 29.2247ZM37.6656 22.6323L26.2117 29.2242V42.4076L37.6656 49L49.1194 42.4076V29.222L37.6656 22.6323ZM36.0056 13.1957L30.2827 9.88877L30.2769 3.29772L24.5597 0L13.1138 6.59237V19.7758L24.5597 26.3677L36.0056 19.7758V13.1957Z" fill="#282828"/>
<path id="path4" d="M36.006 13.1957L41.729 9.88657V3.29596L36.0148 0L30.2773 3.29772L36.0148 6.58622L36.006 13.1957Z" fill="#282828"/>
<g id="g8">
<path id="path6" d="M106.412 13.2164L103.612 32.6837C103.608 32.7157 103.561 32.7153 103.557 32.6832L101.097 13.2173C101.096 13.2105 101.093 13.2044 101.087 13.1999C101.082 13.1955 101.076 13.193 101.069 13.1931H94.0905C94.0837 13.1931 94.0772 13.1956 94.0721 13.2C94.067 13.2045 94.0637 13.2106 94.0627 13.2173L91.6023 32.685C91.5984 32.7171 91.5517 32.7175 91.5473 32.6854L88.7472 13.2168C88.7463 13.2102 88.7429 13.2041 88.7378 13.1997C88.7327 13.1954 88.7262 13.193 88.7195 13.1931H84.4653C84.4612 13.1931 84.4573 13.194 84.4536 13.1957C84.45 13.1973 84.4468 13.1998 84.4442 13.2028C84.4416 13.2059 84.4397 13.2095 84.4386 13.2133C84.4375 13.2172 84.4373 13.2212 84.4379 13.2252L87.9891 35.7515C87.9913 35.7652 88.0027 35.7748 88.0164 35.7748H94.9839C94.998 35.7748 95.0098 35.7643 95.0116 35.7507L97.5526 16.3194C97.557 16.2873 97.6037 16.2873 97.6077 16.3194L100.148 35.7507C100.15 35.7643 100.162 35.7748 100.176 35.7748H107.143C107.157 35.7748 107.169 35.7647 107.171 35.7515L110.722 13.2252C110.723 13.2212 110.722 13.2172 110.721 13.2133C110.72 13.2095 110.718 13.2059 110.716 13.2028C110.713 13.1998 110.71 13.1973 110.706 13.1957C110.703 13.194 110.699 13.1931 110.695 13.1931H106.44C106.433 13.1931 106.427 13.1955 106.422 13.1999C106.417 13.2042 106.413 13.2102 106.412 13.2168V13.2164ZM184.563 14.272C183.593 13.1474 182.212 12.577 180.457 12.577C178.213 12.577 176.534 13.5829 175.462 15.5679H175.445C175.145 14.7391 174.652 14.0439 173.976 13.4981C173.217 12.8872 172.253 12.5774 171.111 12.5774C170.039 12.5774 169.092 12.8428 168.297 13.3667C167.627 13.8083 167.088 14.4574 166.69 15.3012V13.2212C166.69 13.2139 166.687 13.2068 166.682 13.2016C166.677 13.1964 166.67 13.1935 166.662 13.1935H162.509C162.502 13.1935 162.495 13.1964 162.49 13.2016C162.484 13.2068 162.481 13.2139 162.481 13.2212V35.7471C162.481 35.7625 162.494 35.7748 162.509 35.7748H166.662C166.678 35.7748 166.69 35.7625 166.69 35.7471V20.3497C166.69 19.2093 166.954 18.2807 167.473 17.5895C167.974 16.9237 168.674 16.6002 169.612 16.6002C170.381 16.6002 170.977 16.8643 171.433 17.408C171.906 17.9727 172.137 18.6762 172.137 19.5582V35.7471C172.137 35.7625 172.149 35.7748 172.164 35.7748H176.318C176.333 35.7748 176.345 35.7625 176.345 35.7471V20.6134C176.345 19.2181 176.619 18.1836 177.16 17.5398C177.69 16.9074 178.365 16.5998 179.223 16.5998C180.127 16.5998 180.76 16.8705 181.157 17.4273C181.578 18.0184 181.791 18.794 181.791 19.7336V35.7463C181.791 35.7616 181.803 35.774 181.819 35.774H186V18.5906C186 16.8336 185.516 15.3807 184.562 14.272H184.563ZM135.882 33.3182L133.251 36.2495C133.246 36.255 133.239 36.2584 133.231 36.2589C133.224 36.2594 133.217 36.257 133.211 36.2521L128.576 32.2451C128.572 32.2412 128.566 32.2388 128.56 32.2383C128.554 32.2377 128.548 32.239 128.543 32.242L123 35.4716C122.066 36.0042 121.087 36.2705 120.019 36.2705C118.462 36.2705 117.039 35.694 115.793 34.5843C114.592 33.4303 113.969 32.01 113.969 30.2794C113.969 28.1937 115.081 26.1519 116.994 25.0867L128.19 18.66C128.199 18.6552 128.204 18.6455 128.204 18.6354V17.215C128.204 17.2076 128.201 17.2004 128.196 17.1952C128.191 17.1899 128.184 17.1869 128.176 17.1869H115.109C115.102 17.1869 115.095 17.184 115.089 17.1787C115.084 17.1734 115.081 17.1662 115.081 17.1588V13.2216C115.081 13.2058 115.094 13.1935 115.109 13.1935H132.18C132.196 13.1935 132.208 13.2063 132.208 13.2216V30.0891C132.208 30.0974 132.212 30.1049 132.218 30.1106L135.879 33.2787C135.891 33.2892 135.892 33.3073 135.882 33.3191L135.882 33.3182ZM120.998 32.0095L128.19 27.8461C128.199 27.8408 128.204 27.8316 128.204 27.8215V23.3152C128.204 23.2932 128.181 23.2801 128.162 23.2906L118.996 28.5474C118.328 28.9469 117.972 29.5239 117.972 30.2785C117.972 31.3877 118.951 32.2758 119.974 32.2758C120.375 32.2758 120.686 32.1871 120.998 32.0091V32.0095ZM155.886 14.7712C154.434 13.3232 152.675 12.577 150.607 12.577C148.154 12.577 146.18 13.5345 144.687 15.4497C144.685 15.4528 144.682 15.4553 144.678 15.4572C144.675 15.459 144.672 15.4602 144.668 15.4605C144.664 15.4608 144.66 15.4603 144.657 15.4591C144.653 15.4578 144.65 15.4558 144.647 15.4532L142.006 13.0344C142.004 13.0319 142 13.03 141.997 13.0287C141.994 13.0274 141.99 13.0268 141.986 13.027C141.982 13.0272 141.979 13.0281 141.975 13.0296C141.972 13.0312 141.969 13.0334 141.967 13.0362L139.364 15.9349C139.36 15.9404 139.357 15.9477 139.357 15.9551C139.358 15.9625 139.361 15.9695 139.367 15.9744L143.12 19.3706C143.126 19.3759 143.129 19.3833 143.129 19.3913V31.7863C143.129 31.8017 143.116 31.8144 143.101 31.8144H139.371C139.364 31.8144 139.357 31.8174 139.352 31.8226C139.346 31.8279 139.343 31.8351 139.343 31.8425V35.7357C139.343 35.7511 139.356 35.7638 139.371 35.7638H152.812C152.828 35.7638 152.84 35.7511 152.84 35.7357V31.8425C152.84 31.8351 152.837 31.8279 152.832 31.8226C152.827 31.8174 152.82 31.8144 152.812 31.8144H147.117C147.109 31.8144 147.102 31.8114 147.097 31.8062C147.091 31.8009 147.088 31.7937 147.088 31.7863V20.2262C147.088 18.3818 148.43 16.7154 150.27 16.5422C152.356 16.3458 154.127 17.9951 154.127 20.0368V21.3253C154.127 21.3407 154.139 21.3535 154.155 21.3535H158.058C158.073 21.3535 158.086 21.3407 158.086 21.3253V20.0368C158.086 17.9744 157.338 16.2188 155.887 14.7708L155.886 14.7712ZM80.3524 26.3897C80.0784 25.752 79.6626 25.1939 79.1634 24.7878C78.6974 24.3233 78.1013 23.9595 77.2991 23.6492C76.4797 23.2647 75.7189 23.0405 75.1475 22.8885C74.4052 22.6912 73.6052 22.4837 72.7074 22.3132C70.9528 21.9634 69.6523 21.5275 68.8435 21.0181C68.0536 20.5202 67.6532 19.8641 67.6532 19.0665C67.6532 18.141 67.9898 17.4932 68.7193 17.0217C69.7453 16.3585 71.0114 16.1792 72.1999 16.4231C73.3497 16.6591 74.3863 17.3267 75.2577 18.0896C75.4348 18.2447 77.2458 19.905 77.2123 19.9428L79.8154 17.0006C79.8154 17.0006 78.5626 15.7349 77.9687 15.219C76.5528 13.9894 74.8691 12.9509 72.9726 12.6525C71.0885 12.3559 68.9448 12.6398 67.2466 13.5161C66.7775 13.7583 66.3351 14.0486 65.9263 14.3823C64.4144 15.6163 63.6483 17.2366 63.6483 19.1992C63.6483 21.1618 64.2955 22.7096 65.6237 23.669C66.8699 24.6015 68.6625 25.3244 70.9528 25.8175C72.9766 26.2469 74.4467 26.6863 75.3317 27.1271C76.174 27.487 76.5832 28.0632 76.5832 28.888C76.5832 29.9511 76.1537 30.7557 75.3026 31.2813C73.3859 32.4652 70.7228 32.4125 68.7849 31.3024C67.9492 30.8234 67.2572 30.1286 66.525 29.5121C65.9633 29.0339 65.432 28.5206 64.8911 28.0192C64.8849 28.0135 64.8787 28.0078 64.8699 27.9964L62.336 31.041C62.3285 31.0502 63.5747 32.1919 63.6836 32.2908C65.3964 33.8482 67.2426 35.1376 69.5479 35.614C70.3721 35.7816 71.2113 35.8648 72.0524 35.8623C74.5321 35.8623 76.622 35.2114 78.2617 33.9291C79.9815 32.6199 80.8538 30.805 80.8538 28.5356C80.8538 27.7854 80.6789 27.0401 80.3529 26.3901L80.3524 26.3897Z" fill="#282828"/>
</g>
</g>
<defs>
<clipPath id="clip0_1971_470">
<rect width="186" height="49" fill="white"/>
</clipPath>
</defs>
</svg>
