<svg width="220" height="132" viewBox="0 0 220 132" fill="none" xmlns="http://www.w3.org/2000/svg">
<g opacity="0.64">
<path fill-rule="evenodd" clip-rule="evenodd" d="M80.6523 74.838C83.8559 74.8352 87.0596 74.8324 90.2632 74.8296C90.256 74.838 90.2462 71.25 90.2462 71.25H82.5712C81.9315 72.446 81.2919 73.6419 80.6523 74.838Z" fill="#222222"/>
<path fill-rule="evenodd" clip-rule="evenodd" d="M79.4002 69.7494V67.5414H82.4212L84.3568 63.8668H79.4002V61.6361C79.4002 60.8453 80.0271 60.2052 80.8051 60.2052H86.3059L88.2401 56.625H80.8051C78.0842 56.625 75.875 58.8651 75.875 61.6361V69.7494C75.875 71.7512 77.0403 73.4659 78.7082 74.2657L80.4145 71.114C79.8289 70.9391 79.4002 70.3952 79.4002 69.7494Z" fill="#222222"/>
<path fill-rule="evenodd" clip-rule="evenodd" d="M90.3214 56.8574L88.5087 60.2054H88.8958C89.6768 60.2054 90.3096 60.8453 90.3096 61.6363V63.8669H86.5113L84.5586 67.5415H93.8348V66.7021V64.417V61.6363C93.8348 59.3721 92.3502 57.4766 90.3214 56.8574Z" fill="#222222"/>
<path fill-rule="evenodd" clip-rule="evenodd" d="M211.974 55.4782C211.974 54.5771 211.215 53.8091 210.329 53.8091H209.105V50.2979H210.329C213.153 50.2979 215.431 52.6115 215.431 55.4782V62.452C215.94 62.7512 216.782 63.3108 217.412 63.6978V67.8062L215.431 68.8738V75.8927C215.431 78.8019 213.153 81.1153 210.329 81.1153H209.105V77.5588H210.329C211.215 77.5588 211.974 76.7909 211.974 75.8927V68.5712L215.517 65.7028L211.974 62.7512V55.4782Z" fill="#7B7B7B"/>
<path fill-rule="evenodd" clip-rule="evenodd" d="M7.09658 75.9356C7.09658 76.8367 7.85499 77.6077 8.7408 77.6077H9.96454V81.1188H8.7408C5.92059 81.1188 3.6391 78.8086 3.6391 75.9356V68.9619C3.13258 68.6654 2.29117 68.1002 1.66016 67.719V63.6138L3.6391 62.5433V55.5246C3.6391 52.6152 5.92059 50.3018 8.7408 50.3018H9.96454V53.858H8.7408C7.85499 53.858 7.09658 54.6261 7.09658 55.5246V62.8428L3.55641 65.7127L7.09658 68.6654V75.9356Z" fill="#7B7B7B"/>
<path fill-rule="evenodd" clip-rule="evenodd" d="M46.9355 69.7544C46.9355 69.8299 46.8762 69.8875 46.8052 69.8875H38.806C38.7321 69.8875 38.6726 69.8299 38.6726 69.7544V61.6303C38.6726 61.5607 38.7321 61.4971 38.806 61.4971H46.8052C46.8762 61.4971 46.9355 61.5607 46.9355 61.6303V69.7544ZM46.8052 56.6133H38.806C36.0686 56.6133 33.8555 58.8601 33.8555 61.6303V69.7544C33.8555 72.5278 36.0686 74.7777 38.806 74.7777H46.8052C49.5336 74.7777 51.7498 72.5278 51.7498 69.7544V61.6303C51.7498 58.8601 49.5336 56.6133 46.8052 56.6133Z" fill="#222222"/>
<path fill-rule="evenodd" clip-rule="evenodd" d="M26.0271 69.7692C26.0271 69.8416 25.9737 69.8994 25.9026 69.8994H17.9006C17.8295 69.8994 17.7732 69.8416 17.7732 69.7692V61.642C17.7732 61.5722 17.8295 61.5149 17.9006 61.5149H25.9026C25.9737 61.5149 26.0271 61.5722 26.0271 61.642V62.9656H30.847V61.642C30.847 58.8718 28.634 56.625 25.9026 56.625H17.9006C15.1719 56.625 12.9531 58.8718 12.9531 61.642V69.7692C12.9531 72.5422 15.1719 74.7895 17.9006 74.7895H25.9026C28.634 74.7895 30.847 72.5422 30.847 69.7692V68.4909H26.0271V69.7692Z" fill="#222222"/>
<path fill-rule="evenodd" clip-rule="evenodd" d="M67.9595 69.7692C67.9595 69.8416 67.9063 69.8994 67.8324 69.8994H59.8272C59.7592 69.8994 59.7116 69.8478 59.7027 69.7812V61.6328C59.7116 61.5663 59.7592 61.5149 59.8272 61.5149H67.8324C67.9063 61.5149 67.9595 61.5722 67.9595 61.642V62.2677H67.9564V69.3155H67.9595V69.7692ZM72.7797 62.2677V61.642C72.7797 58.8718 70.5638 56.625 67.8324 56.625H59.8272C59.7827 56.625 59.7473 56.6306 59.7027 56.6306V56.625H54.8885V61.5511C54.8854 61.5811 54.8828 61.6119 54.8828 61.642V69.7692C54.8828 69.8025 54.8854 69.8327 54.8885 69.8628V74.7895H59.7027V74.7832C59.7473 74.7832 59.7827 74.7895 59.8272 74.7895H67.8324C70.5638 74.7895 72.7797 72.5422 72.7797 69.7692V69.3155V62.2677Z" fill="#222222"/>
<path fill-rule="evenodd" clip-rule="evenodd" d="M200.664 56.6309H198.463H194.942H192.741C190.006 56.6309 187.793 58.875 187.793 61.648V74.8232H191.324V61.648C191.324 60.8558 191.959 60.2174 192.741 60.2174H194.942H198.463H200.664C201.444 60.2174 202.078 60.8558 202.078 61.648V74.8131H205.612V61.648C205.612 58.875 203.396 56.6309 200.664 56.6309Z" fill="#222222"/>
<path fill-rule="evenodd" clip-rule="evenodd" d="M139.305 69.7102V69.7796C139.305 70.569 138.673 71.2192 137.894 71.2192H129.886C129.11 71.2192 128.476 70.569 128.476 69.7796V61.6526C128.476 60.8663 129.11 60.222 129.886 60.222H137.894C138.673 60.222 139.305 60.8663 139.305 61.6526V66.7331V69.7102ZM137.894 56.6211H129.886C127.155 56.6211 124.941 58.8998 124.941 61.67V69.7971C124.941 72.5671 127.155 74.8173 129.886 74.8173H137.894C140.623 74.8173 142.838 72.5671 142.838 69.7971V69.7274V66.7504V61.67C142.838 58.8998 140.623 56.6211 137.894 56.6211Z" fill="#222222"/>
<path fill-rule="evenodd" clip-rule="evenodd" d="M181.133 69.7102V69.7796C181.133 70.569 180.502 71.2192 179.72 71.2192H171.718C170.942 71.2192 170.308 70.569 170.308 69.7623V61.6353C170.308 60.8663 170.942 60.222 171.718 60.222H179.72C180.502 60.222 181.133 60.8663 181.133 61.6526V66.7331V69.7102ZM179.72 56.6211H171.718C168.99 56.6211 166.773 58.8998 166.773 61.67V69.7971C166.773 72.5671 168.99 74.8173 171.718 74.8173H179.72C182.455 74.8173 184.67 72.5671 184.67 69.7971V69.7274V66.7504V61.67C184.67 58.8998 182.455 56.6211 179.72 56.6211Z" fill="#222222"/>
<path fill-rule="evenodd" clip-rule="evenodd" d="M150.956 71.2504C150.177 71.2504 149.531 70.5099 149.531 69.7177V63.884H155.558V60.1998H149.531V56.6115C149.531 56.6049 149.537 56.6165 149.537 56.6074H146V56.6115V69.7697C146 72.5428 148.213 74.8418 150.942 74.8418H157.069V71.2504H150.956Z" fill="#222222"/>
<path fill-rule="evenodd" clip-rule="evenodd" d="M160.098 74.8278H163.715V56.6211H160.098V74.8278Z" fill="#222222"/>
<path fill-rule="evenodd" clip-rule="evenodd" d="M116.962 56.6211H116.606H112.894H112.54C111.349 56.6211 110.257 57.0656 109.413 57.795C108.563 57.0656 107.475 56.6211 106.281 56.6211H105.925H102.201H101.845C99.1501 56.6211 96.9688 58.9068 96.9688 61.6811V74.8039H100.455V61.6811C100.455 60.8882 101.074 60.2264 101.845 60.2264H102.201H105.925H106.281C107.034 60.2264 107.642 60.861 107.671 61.6297C107.671 61.6478 107.668 61.6627 107.668 61.6811V71.2622H107.674H111.147H111.159V61.6811C111.159 61.6627 111.15 61.6478 111.15 61.6297C111.18 60.861 111.784 60.2264 112.54 60.2264H112.894H116.606H116.962C117.727 60.2264 118.352 60.8882 118.352 61.6811V74.8039H121.833V61.6811C121.833 58.9068 119.652 56.6211 116.962 56.6211Z" fill="#222222"/>
</g>
</svg>
