<svg width="220" height="132" viewBox="0 0 220 132" fill="none" xmlns="http://www.w3.org/2000/svg">
<g opacity="0.64">
<path d="M109.699 34.3623C111.216 34.3466 112.695 33.8827 113.949 33.029C115.202 32.1753 116.175 30.97 116.744 29.5648C117.314 28.1597 117.455 26.6175 117.149 25.1326C116.843 23.6477 116.104 22.2865 115.026 21.2203C113.947 20.1542 112.577 19.4308 111.088 19.1413C109.599 18.8519 108.057 19.0092 106.657 19.5936C105.258 20.1779 104.062 21.1631 103.221 22.4252C102.381 23.6872 101.933 25.1696 101.934 26.6856C101.946 28.7323 102.771 30.6905 104.227 32.1299C105.683 33.5693 107.651 34.3722 109.699 34.3623Z" fill="black" fill-opacity="0.52"/>
<path d="M127.571 77.1321C127.571 87.6274 119.571 96.1301 109.699 96.1301C99.8275 96.1301 91.8281 87.6274 91.8281 77.1321C91.8281 70.1834 99.6687 57.2288 104.96 49.2721C105.465 48.473 106.164 47.8147 106.993 47.3585C107.821 46.9023 108.751 46.6631 109.697 46.6631C110.643 46.6631 111.573 46.9023 112.402 47.3585C113.23 47.8147 113.93 48.473 114.435 49.2721C119.73 57.2288 127.571 70.1834 127.571 77.1321Z" fill="black" fill-opacity="0.52"/>
<path d="M130.922 25.0057C130.005 24.5406 128.941 24.4562 127.962 24.7708C126.982 25.0854 126.167 25.7735 125.692 26.6857C125.46 27.1356 125.319 27.6273 125.279 28.1321C125.238 28.6368 125.298 29.1446 125.456 29.6258C125.614 30.107 125.866 30.5521 126.197 30.935C126.529 31.318 126.934 31.6312 127.387 31.8564C133.763 35.036 139.126 39.9277 142.875 45.9829C146.623 52.0381 148.61 59.0173 148.612 66.1377C148.615 72.3912 147.072 78.5487 144.119 84.0624C145.103 78.8827 144.879 73.5461 143.465 68.4668C142.051 63.3875 139.485 58.7022 135.966 54.7744C135.274 54.0121 134.31 53.5528 133.282 53.496C132.254 53.4392 131.245 53.7895 130.474 54.471C130.092 54.8026 129.779 55.2069 129.554 55.6603C129.329 56.1138 129.197 56.6074 129.165 57.1124C129.133 57.6175 129.201 58.1238 129.367 58.6021C129.532 59.0804 129.791 59.521 130.129 59.8984C134.511 64.8004 136.934 71.1426 136.937 77.7157C136.937 92.1077 125.473 103.9 111.099 104.619C110.632 104.619 110.165 104.656 109.698 104.656C109.231 104.656 108.764 104.656 108.297 104.619C93.9235 103.9 82.4591 92.1077 82.4591 77.7157C82.431 71.5759 84.5428 65.6178 88.4318 60.8644C88.7509 60.4711 88.9887 60.0184 89.1313 59.5326C89.2739 59.0467 89.3184 58.5374 89.2624 58.0342C89.2064 57.5309 89.0508 57.0439 88.8048 56.6012C88.5588 56.1586 88.2272 55.7692 87.8294 55.4557C87.0232 54.8157 85.997 54.5191 84.9734 54.63C83.9498 54.741 83.0112 55.2506 82.361 56.0484C79.2072 59.9217 76.9393 64.4375 75.7163 69.2792C74.4934 74.1209 74.345 79.1713 75.2816 84.0764C72.3231 78.5597 70.7781 72.3966 70.7846 66.1377C70.7856 59.0172 72.772 52.0377 76.521 45.9824C80.2699 39.9271 85.6331 35.0355 92.0089 31.8564C92.4632 31.6317 92.8681 31.3187 93.2 30.9358C93.5319 30.553 93.7841 30.1078 93.9419 29.6264C94.0998 29.145 94.16 28.6371 94.1192 28.1321C94.0783 27.6272 93.9372 27.1355 93.704 26.6857C93.2305 25.7726 92.415 25.0837 91.4352 24.769C90.4555 24.4543 89.391 24.5394 88.4738 25.0057C80.8222 28.8187 74.3853 34.6872 69.8856 41.9528C65.3859 49.2183 63.0015 57.5932 63 66.1377C63 91.6084 83.9488 112.338 109.698 112.338C135.447 112.338 156.396 91.6224 156.396 66.1377C156.394 57.5934 154.01 49.2186 149.51 41.9532C145.01 34.6878 138.574 28.8191 130.922 25.0057Z" fill="black" fill-opacity="0.52"/>
</g>
</svg>
