<svg width="220" height="132" viewBox="0 0 220 132" fill="none" xmlns="http://www.w3.org/2000/svg">
<g id="logo-ethistanbul" opacity="0.64">
<g id="Group">
<g id="Group 337674">
<g id="Group 337673">
<path id="Vector" d="M60.5172 65.7861L44.5351 93.4643L35.4241 109.247L26.4225 93.6463L10.3398 65.7861L35.4241 22.3438L60.5172 65.7861Z" fill="#DFDFDF"/>
<path id="Vector_2" fill-rule="evenodd" clip-rule="evenodd" d="M35.4243 21.1602L61.2015 65.7869L45.0486 93.7613L35.4243 110.433L25.9099 93.9433L9.65625 65.7869L35.4243 21.1602ZM35.4243 23.529L11.0242 65.7869L26.9359 93.351L35.4243 108.062L44.0221 93.169L59.8334 65.7869L35.4243 23.529Z" fill="black"/>
<path id="Vector_3" d="M56.731 72.2398C49.868 84.336 43.0058 96.423 36.1517 108.519L36.1153 108.574L36.0788 108.519L26.6133 94.4571C22.9453 88.1405 19.2773 81.8239 15.6094 75.5073C15.6276 75.5255 15.6367 75.5437 15.6549 75.562C18.6493 73.5232 22.3629 72.4309 26.1855 72.4583L45.7816 72.5948C46.5458 72.5766 47.3472 72.5311 48.1842 72.4492C50.769 72.1943 52.9902 71.6482 54.81 71.0566C55.4568 71.4571 56.0939 71.8485 56.7399 72.249L56.731 72.2398Z" fill="#A4A4A4"/>
<path id="Vector_4" d="M28.8119 43.5802C30.6964 43.5802 32.2248 42.0521 32.2248 40.167C32.2248 38.282 30.6964 36.7539 28.8119 36.7539C26.9265 36.7539 25.3984 38.282 25.3984 40.167C25.3984 42.0521 26.9265 43.5802 28.8119 43.5802Z" fill="white"/>
<path id="Vector_5" d="M32.2332 40.1661C34.1185 40.1661 35.6469 38.638 35.6469 36.753C35.6469 34.868 34.1185 33.3398 32.2332 33.3398C30.3487 33.3398 28.8203 34.868 28.8203 36.753C28.8203 38.638 30.3487 40.1661 32.2332 40.1661Z" fill="white"/>
<path id="Vector_6" d="M35.0543 42.9865C36.9388 42.9865 38.4672 41.4584 38.4672 39.5734C38.4672 37.6883 36.9388 36.1602 35.0543 36.1602C33.169 36.1602 31.6406 37.6883 31.6406 39.5734C31.6406 41.4584 33.169 42.9865 35.0543 42.9865Z" fill="white"/>
<path id="Vector_7" d="M51.6168 66.3712C53.5014 66.3712 55.0297 64.8431 55.0297 62.958C55.0297 61.073 53.5014 59.5449 51.6168 59.5449C49.7315 59.5449 48.2031 61.073 48.2031 62.958C48.2031 64.8431 49.7315 66.3712 51.6168 66.3712Z" fill="white"/>
<path id="Vector_8" d="M25.9805 93.6098V79.666H44.985V93.4369L35.428 109.983L25.9805 93.6098Z" fill="#535151"/>
<path id="Vector_9" d="M44.5405 80.1133V93.3198L35.4303 109.102L26.4193 93.5018V80.1224H44.5316M45.4237 79.2305H25.5273V93.7476L25.6456 93.957L34.6564 109.558L35.4303 110.895L36.2034 109.558L45.3144 93.7749L45.4326 93.5656V79.2305H45.4237Z" fill="black"/>
<path id="Vector_10" d="M44.9771 71.3477H25.9727V79.1751H44.9771V71.3477Z" fill="#535151"/>
<path id="Vector_11" d="M44.5316 71.7923V78.7278H26.4193V71.7923H44.5316ZM45.4237 70.9004H25.5273V79.6198H45.4237V70.9004Z" fill="black"/>
<path id="Vector_12" d="M44.3918 64.7754H26.5703V69.8268H44.3918V64.7754Z" fill="#535151"/>
<path id="Vector_13" d="M43.9462 65.2201V69.3796H27.0169V65.2201H43.9462ZM44.8383 64.3281H26.125V70.2715H44.8383V64.3281Z" fill="black"/>
<path id="Vector_14" d="M35.489 29.627C35.7343 29.627 35.9342 29.8272 35.9342 30.073V53.8193C35.9342 54.065 35.7343 54.2652 35.489 54.2652C35.2429 54.2652 35.043 54.065 35.043 53.8193V30.073C35.043 29.8272 35.2429 29.627 35.489 29.627Z" fill="black"/>
<path id="Vector_15" d="M28.6406 69.0102V68.0272C28.6406 67.7451 28.8681 67.5176 29.1506 67.5176H29.6242C29.9059 67.5176 30.1334 67.7451 30.1334 68.0272V69.0102H28.6503H28.6406Z" fill="#535151"/>
<path id="Vector_16" d="M29.628 67.9623C29.628 67.9623 29.6911 67.9896 29.6911 68.026V68.563H29.0905V68.026C29.0905 68.026 29.118 67.9623 29.1544 67.9623H29.628ZM29.628 67.0703H29.1544C28.6266 67.0703 28.1992 67.4981 28.1992 68.026V69.1C28.1992 69.2911 28.3538 69.455 28.5538 69.455H30.2287C30.4197 69.455 30.5832 69.3003 30.5832 69.1V68.026C30.5832 67.4981 30.1558 67.0703 29.628 67.0703Z" fill="black"/>
<path id="Vector_17" d="M31.6875 69.0064V67.5683C31.6875 67.2861 31.915 67.0586 32.1975 67.0586H32.6702C32.9528 67.0586 33.1802 67.2861 33.1802 67.5683V69.0064H31.6964H31.6875Z" fill="#535151"/>
<path id="Vector_18" d="M32.664 67.5091C32.664 67.5091 32.7271 67.5365 32.7271 67.5728V68.5649H32.1265V67.5728C32.1265 67.5728 32.154 67.5091 32.1904 67.5091H32.664ZM32.664 66.6172H32.1904C31.6626 66.6172 31.2344 67.0449 31.2344 67.5728V69.1019C31.2344 69.2931 31.3898 69.4569 31.5897 69.4569H33.2646C33.4557 69.4569 33.6192 69.3022 33.6192 69.1019V67.5728C33.6192 67.0449 33.1918 66.6172 32.664 66.6172Z" fill="black"/>
<path id="Vector_19" d="M34.7266 69.0098V67.2167C34.7266 66.9346 34.954 66.707 35.2357 66.707H35.7093C35.9918 66.707 36.2193 66.9346 36.2193 67.2167V69.0098H34.7355H34.7266Z" fill="#535151"/>
<path id="Vector_20" d="M35.7139 67.1537C35.7139 67.1537 35.7779 67.181 35.7779 67.2174V68.5644H35.1772V67.2174C35.1772 67.2174 35.2048 67.1537 35.2412 67.1537H35.7139ZM35.7139 66.2617H35.2412C34.7126 66.2617 34.2852 66.6895 34.2852 67.2174V69.1015C34.2852 69.2926 34.4398 69.4564 34.6405 69.4564H36.3146C36.5056 69.4564 36.67 69.3017 36.67 69.1015V67.2174C36.67 66.6895 36.2417 66.2617 35.7139 66.2617Z" fill="black"/>
<path id="Vector_21" d="M37.7734 69.0103V67.5722C37.7734 67.2901 38.0009 67.0625 38.2826 67.0625H38.7562C39.0379 67.0625 39.2662 67.2901 39.2662 67.5722V69.0103H37.7823H37.7734Z" fill="#535151"/>
<path id="Vector_22" d="M38.7569 67.5091C38.7569 67.5091 38.8209 67.5365 38.8209 67.5728V68.5649H38.2202V67.5728C38.2202 67.5728 38.2469 67.5091 38.2833 67.5091H38.7569ZM38.7569 66.6172H38.2833C37.7555 66.6172 37.3281 67.0449 37.3281 67.5728V69.1019C37.3281 69.2931 37.4827 69.4569 37.6827 69.4569H39.3576C39.5486 69.4569 39.7129 69.3022 39.7129 69.1019V67.5728C39.7129 67.0449 39.2847 66.6172 38.7569 66.6172Z" fill="black"/>
<path id="Vector_23" d="M40.8203 69.0102V68.0272C40.8203 67.7451 41.0478 67.5176 41.3303 67.5176H41.8039C42.0856 67.5176 42.313 67.7451 42.313 68.0272V69.0102H40.83H40.8203Z" fill="#535151"/>
<path id="Vector_24" d="M41.7921 67.9623C41.7921 67.9623 41.856 67.9896 41.856 68.026V68.563H41.2554V68.026C41.2554 68.026 41.2821 67.9623 41.3185 67.9623H41.7921ZM41.7921 67.0703H41.3185C40.7907 67.0703 40.3633 67.4981 40.3633 68.026V69.1C40.3633 69.2911 40.5179 69.455 40.7178 69.455H42.3927C42.5838 69.455 42.7481 69.3003 42.7481 69.1V68.026C42.7481 67.4981 42.3199 67.0703 41.7921 67.0703Z" fill="black"/>
<path id="Vector_25" d="M41.3303 82.8989C41.0478 82.8989 40.8203 82.6714 40.8203 82.3892V81.4062H42.3041V82.3892C42.3041 82.6714 42.0767 82.8989 41.7942 82.8989H41.3214H41.3303Z" fill="#535151"/>
<path id="Vector_26" d="M41.856 81.8509V82.3879C41.856 82.3879 41.8285 82.4516 41.7921 82.4516H41.3185C41.3185 82.4516 41.2554 82.4244 41.2554 82.3879V81.8509H41.856ZM42.3927 80.959H40.7178C40.5268 80.959 40.3633 81.1137 40.3633 81.314V82.3879C40.3633 82.9158 40.7907 83.3436 41.3185 83.3436H41.7921C42.3199 83.3436 42.7481 82.9158 42.7481 82.3879V81.314C42.7481 81.1228 42.5927 80.959 42.3927 80.959Z" fill="black"/>
<path id="Vector_27" d="M38.2826 83.3528C38.0009 83.3528 37.7734 83.1252 37.7734 82.843V81.4141H39.2565V82.843C39.2565 83.1252 39.029 83.3528 38.7473 83.3528H38.2737H38.2826Z" fill="#535151"/>
<path id="Vector_28" d="M38.8209 81.8509V82.843C38.8209 82.843 38.7933 82.9067 38.7569 82.9067H38.2833C38.2833 82.9067 38.2202 82.8795 38.2202 82.843V81.8509H38.8209ZM39.3576 80.959H37.6827C37.4916 80.959 37.3281 81.1137 37.3281 81.314V82.843C37.3281 83.3709 37.7555 83.7987 38.2833 83.7987H38.7569C39.2847 83.7987 39.7129 83.3709 39.7129 82.843V81.314C39.7129 81.1228 39.5575 80.959 39.3576 80.959Z" fill="black"/>
<path id="Vector_29" d="M35.2357 83.7089C34.954 83.7089 34.7266 83.4814 34.7266 83.1992V81.4062H36.2096V83.1992C36.2096 83.4814 35.9821 83.7089 35.7004 83.7089H35.2268H35.2357Z" fill="#535151"/>
<path id="Vector_30" d="M35.7779 81.8509V83.198C35.7779 83.198 35.7504 83.2617 35.7139 83.2617H35.2412C35.2412 83.2617 35.1772 83.2344 35.1772 83.198V81.8509H35.7779ZM36.3146 80.959H34.6405C34.4487 80.959 34.2852 81.1137 34.2852 81.314V83.198C34.2852 83.7259 34.7126 84.1536 35.2412 84.1536H35.7139C36.2417 84.1536 36.67 83.7259 36.67 83.198V81.314C36.67 81.1228 36.5154 80.959 36.3146 80.959Z" fill="black"/>
<path id="Vector_31" d="M32.1975 83.3528C31.915 83.3528 31.6875 83.1252 31.6875 82.843V81.4141H33.1713V82.843C33.1713 83.1252 32.9439 83.3528 32.6613 83.3528H32.1878H32.1975Z" fill="#535151"/>
<path id="Vector_32" d="M32.7271 81.8509V82.843C32.7271 82.843 32.7004 82.9067 32.664 82.9067H32.1904C32.1904 82.9067 32.1265 82.8795 32.1265 82.843V81.8509H32.7271ZM33.2646 80.959H31.5897C31.3987 80.959 31.2344 81.1137 31.2344 81.314V82.843C31.2344 83.3709 31.6626 83.7987 32.1904 83.7987H32.664C33.1918 83.7987 33.6192 83.3709 33.6192 82.843V81.314C33.6192 81.1228 33.4646 80.959 33.2646 80.959Z" fill="black"/>
<path id="Vector_33" d="M29.1506 82.8989C28.8681 82.8989 28.6406 82.6714 28.6406 82.3892V81.4062H30.1245V82.3892C30.1245 82.6714 29.897 82.8989 29.6145 82.8989H29.1417H29.1506Z" fill="#535151"/>
<path id="Vector_34" d="M29.6911 81.8509V82.3879C29.6911 82.3879 29.6644 82.4516 29.628 82.4516H29.1544C29.1544 82.4516 29.0905 82.4244 29.0905 82.3879V81.8509H29.6911ZM30.2287 80.959H28.5538C28.3627 80.959 28.1992 81.1137 28.1992 81.314V82.3879C28.1992 82.9158 28.6266 83.3436 29.1544 83.3436H29.628C30.1558 83.3436 30.5832 82.9158 30.5832 82.3879V81.314C30.5832 81.1228 30.4286 80.959 30.2287 80.959Z" fill="black"/>
<path id="Vector_35" d="M29.7206 77.7113H27.9826C27.7826 77.7113 27.6094 77.5475 27.6094 77.3381V75.7362C27.6094 75.1901 28.0554 74.7441 28.6018 74.7441H29.0932C29.6388 74.7441 30.0848 75.1901 30.0848 75.7362V77.3381C30.0848 77.5383 29.9213 77.7113 29.7117 77.7113H29.7206Z" fill="black"/>
<path id="Vector_36" d="M33.0292 77.7098H31.2912C31.0904 77.7098 30.918 77.546 30.918 77.3367V75.1796C30.918 74.6335 31.364 74.1875 31.9096 74.1875H32.4018C32.9474 74.1875 33.3934 74.6335 33.3934 75.1796V77.3367C33.3934 77.5369 33.2299 77.7098 33.0203 77.7098H33.0292Z" fill="black"/>
<path id="Vector_37" d="M36.305 77.7651H34.6479C34.4204 77.7651 34.2383 77.5831 34.2383 77.3556V73.9424C34.2383 73.3325 34.7297 72.832 35.3489 72.832H35.6128C36.2224 72.832 36.7235 73.3235 36.7235 73.9424V77.3556C36.7235 77.5831 36.5413 77.7651 36.3139 77.7651H36.305Z" fill="black"/>
<path id="Vector_38" d="M39.9558 77.7098H38.2169C38.017 77.7098 37.8438 77.546 37.8438 77.3367V75.1796C37.8438 74.6335 38.2898 74.1875 38.8362 74.1875H39.3276C39.874 74.1875 40.32 74.6335 40.32 75.1796V77.3367C40.32 77.5369 40.1557 77.7098 39.9469 77.7098H39.9558Z" fill="black"/>
<path id="Vector_39" d="M43.5729 77.7113H41.8341C41.6342 77.7113 41.4609 77.5475 41.4609 77.3381V75.7362C41.4609 75.1901 41.907 74.7441 42.4534 74.7441H42.9448C43.4912 74.7441 43.9372 75.1901 43.9372 75.7362V77.3381C43.9372 77.5383 43.7729 77.7113 43.564 77.7113H43.5729Z" fill="black"/>
<path id="Vector_40" d="M35.4787 47.5918L25.9492 64.6848H45.0082L35.4787 47.5918Z" fill="black"/>
<path id="Vector_41" d="M24.6641 78.1113H46.2805C46.7355 78.1113 47.1086 78.4845 47.1086 78.9396V79.0397C47.1086 79.4948 46.7355 79.868 46.2805 79.868H24.6641C24.209 79.868 23.8359 79.4948 23.8359 79.0397V78.9396C23.8359 78.4845 24.209 78.1113 24.6641 78.1113Z" fill="#535151"/>
<path id="Vector_42" d="M46.285 78.5579C46.4946 78.5579 46.6768 78.7308 46.6768 78.9493V79.0495C46.6768 79.2588 46.5035 79.4408 46.285 79.4408H24.6687C24.4594 79.4408 24.2774 79.2679 24.2774 79.0495V78.9493C24.2774 78.74 24.4503 78.5579 24.6687 78.5579H46.285ZM46.285 77.666H24.6687C23.9679 77.666 23.3945 78.2394 23.3945 78.9402V79.0403C23.3945 79.7412 23.9679 80.3146 24.6687 80.3146H46.285C46.986 80.3146 47.5591 79.7412 47.5591 79.0403V78.9402C47.5591 78.2394 46.986 77.666 46.285 77.666Z" fill="black"/>
<path id="Vector_43" d="M25.8374 68.9082H45.1149C45.5609 68.9082 45.9252 69.2722 45.9252 69.7182V69.8638C45.9252 70.3099 45.5609 70.6739 45.1149 70.6739H25.8374C25.3914 70.6739 25.0273 70.3099 25.0273 69.8638V69.7182C25.0273 69.2722 25.3914 68.9082 25.8374 68.9082Z" fill="#535151"/>
<path id="Vector_44" d="M45.1193 69.3529C45.3193 69.3529 45.4836 69.5168 45.4836 69.717V69.8626C45.4836 70.0629 45.3193 70.2267 45.1193 70.2267H25.842C25.6418 70.2267 25.4779 70.0629 25.4779 69.8626V69.717C25.4779 69.5168 25.6418 69.3529 25.842 69.3529H45.1193ZM45.1193 68.4609H25.842C25.1502 68.4609 24.5859 69.0252 24.5859 69.717V69.8626C24.5859 70.5543 25.1502 71.1186 25.842 71.1186H45.1193C45.8115 71.1186 46.3757 70.5543 46.3757 69.8626V69.717C46.3757 69.0252 45.8115 68.4609 45.1193 68.4609Z" fill="black"/>
<path id="Vector_45" d="M45.1238 63.1133H25.8374C25.39 63.1133 25.0273 63.4759 25.0273 63.9234V64.069C25.0273 64.5163 25.39 64.879 25.8374 64.879H45.1238C45.5714 64.879 45.9341 64.5163 45.9341 64.069V63.9234C45.9341 63.4759 45.5714 63.1133 45.1238 63.1133Z" fill="#535151"/>
<path id="Vector_46" d="M45.1193 63.5561C45.3193 63.5561 45.4836 63.7199 45.4836 63.9201V64.0657C45.4836 64.266 45.3193 64.4298 45.1193 64.4298H25.842C25.6418 64.4298 25.4779 64.266 25.4779 64.0657V63.9201C25.4779 63.7199 25.6418 63.5561 25.842 63.5561H45.1193ZM45.1193 62.6641H25.842C25.1502 62.6641 24.5859 63.2284 24.5859 63.9201V64.0657C24.5859 64.7575 25.1502 65.3218 25.842 65.3218H45.1193C45.8115 65.3218 46.3757 64.7575 46.3757 64.0657V63.9201C46.3757 63.2284 45.8115 62.6641 45.1193 62.6641Z" fill="black"/>
<path id="Vector_47" d="M41.1328 52.4902H44.0179C44.1361 52.4902 44.2454 52.4447 44.3368 52.3628L46.9394 49.7598" fill="#535151"/>
<path id="Vector_48" d="M44.2157 52.9371H41.5937C41.3484 52.9371 41.1484 52.7369 41.1484 52.4911C41.1484 52.2453 41.3484 52.0451 41.5937 52.0451H43.8514C43.9696 52.0451 44.0789 51.9996 44.1695 51.9176L46.3269 49.7605C46.5001 49.5876 46.7818 49.5876 46.955 49.7605C47.1283 49.9335 47.1283 50.2156 46.955 50.3886L44.5338 52.8096C44.452 52.8916 44.3339 52.9371 44.2157 52.9371Z" fill="black"/>
<path id="Vector_49" d="M39.0703 48.332H41.9554C42.0744 48.332 42.1837 48.2865 42.2743 48.2046L44.8777 45.6016" fill="#535151"/>
<path id="Vector_50" d="M42.1375 48.7749H39.5164C39.2711 48.7749 39.0703 48.5747 39.0703 48.329C39.0703 48.0832 39.2711 47.883 39.5164 47.883H41.7741C41.8923 47.883 42.0015 47.8375 42.0922 47.7556L44.2495 45.5985C44.422 45.4255 44.7045 45.4255 44.8777 45.5985C45.0501 45.7714 45.0501 46.0535 44.8777 46.2265L42.4565 48.6475C42.3747 48.7294 42.2557 48.7749 42.1375 48.7749Z" fill="black"/>
<path id="Vector_51" d="M22.4414 53.3809H25.3267C25.4449 53.3809 25.5541 53.3354 25.6452 53.2534L28.2486 50.6504" fill="#535151"/>
<path id="Vector_52" d="M25.5086 53.8277H22.8874C22.6416 53.8277 22.4414 53.6275 22.4414 53.3817C22.4414 53.1359 22.6416 52.9357 22.8874 52.9357H25.1446C25.2629 52.9357 25.3722 52.8902 25.4631 52.8083L27.6204 50.6512C27.7928 50.4782 28.0753 50.4782 28.2486 50.6512C28.421 50.8241 28.421 51.1063 28.2486 51.2792L25.8273 53.7002C25.7453 53.7822 25.627 53.8277 25.5086 53.8277Z" fill="black"/>
<path id="Vector_53" fill-rule="evenodd" clip-rule="evenodd" d="M35.4243 21.1602L61.2015 65.7869L45.0486 93.7613L35.4243 110.433L25.9099 93.9433L9.65625 65.7869L35.4243 21.1602ZM35.4243 23.529L11.0242 65.7869L26.9359 93.351L35.4243 108.062L44.0221 93.169L59.8334 65.7869L35.4243 23.529Z" fill="black"/>
<path id="Vector_54" d="M38.0663 45.5176L35.4087 50.123L32.7422 45.5176L35.4087 40.9121L38.0663 45.5176Z" fill="#535151"/>
<path id="Vector_55" fill-rule="evenodd" clip-rule="evenodd" d="M35.4044 40.084L38.5396 45.5172L35.4044 50.9505L32.2578 45.5172L35.4044 40.084ZM33.2155 45.5172L35.4027 49.2949L37.5828 45.5172L35.4027 41.7396L33.2155 45.5172Z" fill="black"/>
</g>
<g id="Group 337672">
<path id="Vector_56" d="M74.1797 60.7711C74.1797 60.5118 74.3035 60.3887 74.5511 60.3887H83.9722C84.231 60.3887 84.3662 60.5118 84.3662 60.7711V62.6391C84.3662 62.8984 84.231 63.0225 83.9722 63.0225H76.9937V65.9487H82.3176C82.4527 65.9487 82.5539 65.9828 82.6328 66.0388C82.7116 66.0949 82.7453 66.196 82.7453 66.3312V68.1551C82.7453 68.4134 82.599 68.5376 82.3176 68.5376H76.9937V72.0714H84.1523C84.4225 72.0714 84.5575 72.1955 84.5575 72.4548V74.3119C84.5575 74.5701 84.4225 74.6943 84.1523 74.6943H74.5511C74.3035 74.6943 74.1797 74.5701 74.1797 74.3119V60.7711Z" fill="black"/>
<path id="Vector_57" d="M85.9141 60.7594C85.9141 60.5011 86.0378 60.377 86.2967 60.377H96.607C96.8546 60.377 96.9784 60.5011 96.9784 60.7594V62.5713C96.9784 62.8306 96.8546 62.9658 96.607 62.9658H92.8138V74.3112C92.8138 74.5704 92.69 74.6946 92.4311 74.6946H90.36C90.1011 74.6946 89.9774 74.5704 89.9774 74.3112V62.9658H86.2967C86.0378 62.9658 85.9141 62.8306 85.9141 62.5713V60.7594Z" fill="black"/>
<path id="Vector_58" d="M108.472 68.5253H102.056V74.3106C102.056 74.5699 101.921 74.705 101.64 74.705H99.6136C99.3659 74.705 99.2422 74.5699 99.2422 74.3106V60.7929C99.2422 60.6797 99.2759 60.5786 99.3322 60.5116C99.3884 60.4435 99.4898 60.3984 99.6136 60.3984H101.696C101.775 60.3984 101.853 60.4215 101.932 60.4775C102.011 60.5226 102.056 60.6357 102.056 60.7819V65.8244H108.472V60.8039C108.472 60.6918 108.506 60.5906 108.562 60.5226C108.618 60.4555 108.72 60.4105 108.843 60.4105H110.926C111.004 60.4105 111.083 60.4325 111.162 60.4885C111.241 60.5456 111.286 60.6467 111.286 60.7929V74.3226C111.286 74.5809 111.151 74.716 110.869 74.716H108.843C108.596 74.716 108.472 74.5809 108.472 74.3226V68.5363V68.5253Z" fill="black"/>
<path id="Vector_59" d="M115.574 60.7931C115.574 60.5238 115.698 60.3887 115.957 60.3887H117.994C118.253 60.3887 118.377 60.5238 118.377 60.7931V74.3119C118.377 74.5701 118.253 74.7053 117.994 74.7053H115.957C115.698 74.7053 115.574 74.5701 115.574 74.3119V60.7931Z" fill="#535151"/>
<path id="Vector_60" d="M120.958 72.1499C120.913 72.0267 120.958 71.9026 121.093 71.7674L122.388 70.5071C122.467 70.428 122.557 70.3939 122.647 70.3939C122.714 70.3939 122.782 70.417 122.838 70.451C122.906 70.496 122.973 70.5411 123.041 70.5972C123.243 70.7884 123.457 70.9906 123.693 71.1818C123.93 71.374 124.189 71.5542 124.459 71.7114C124.729 71.8685 125.033 71.9927 125.348 72.0938C125.663 72.1949 126.012 72.2399 126.372 72.2399C126.733 72.2399 127.093 72.1839 127.397 72.0828C127.7 71.9817 127.948 71.8355 128.162 71.6663C128.365 71.4861 128.533 71.2839 128.635 71.0587C128.736 70.8334 128.804 70.5972 128.804 70.3609C128.804 70.0566 128.714 69.7863 128.522 69.573C128.331 69.3588 128.106 69.1786 127.836 69.0324C127.565 68.8863 127.262 68.7732 126.958 68.6721C126.642 68.582 126.361 68.5039 126.102 68.4358C125.314 68.1995 124.628 67.9403 124.031 67.671C123.435 67.3887 122.939 67.0853 122.534 66.7359C122.129 66.3876 121.825 65.9931 121.622 65.5657C121.42 65.1262 121.307 64.6427 121.307 64.0911C121.307 63.4944 121.431 62.9538 121.679 62.4703C121.926 61.9868 122.286 61.5583 122.748 61.2099C123.209 60.8605 123.75 60.5902 124.391 60.388C125.033 60.1858 125.742 60.0957 126.519 60.0957C126.935 60.0957 127.352 60.1518 127.768 60.2529C128.184 60.354 128.578 60.5122 128.961 60.6924C129.344 60.8836 129.704 61.0968 130.053 61.3451C130.402 61.5923 130.706 61.8626 130.987 62.1549C131.212 62.3912 131.212 62.6395 130.987 62.8978L129.918 63.9789C129.828 64.057 129.749 64.1021 129.659 64.1021C129.58 64.1021 129.501 64.08 129.423 64.035C129.344 63.9899 129.265 63.9339 129.186 63.8658C129.029 63.7427 128.86 63.5955 128.657 63.4494C128.455 63.2922 128.241 63.157 128.004 63.0219C127.768 62.8868 127.52 62.7746 127.261 62.6845C127.003 62.5944 126.721 62.5494 126.44 62.5494C126.192 62.5494 125.933 62.5714 125.674 62.6054C125.416 62.6395 125.168 62.7296 124.954 62.8417C124.74 62.9538 124.56 63.123 124.425 63.3262C124.29 63.5284 124.211 63.7987 124.211 64.1361C124.211 64.4064 124.279 64.6316 124.414 64.8118C124.549 64.992 124.74 65.1492 124.999 65.2844C125.247 65.4195 125.551 65.5426 125.888 65.6448C126.237 65.7459 126.609 65.858 127.014 65.9711C127.667 66.1623 128.275 66.3756 128.849 66.6238C129.423 66.8711 129.929 67.1524 130.368 67.5018C130.807 67.8502 131.145 68.2556 131.404 68.7401C131.662 69.2237 131.786 69.7983 131.786 70.473C131.786 71.1488 131.64 71.7334 131.347 72.285C131.055 72.8366 130.661 73.2871 130.166 73.6815C129.67 74.075 129.096 74.3673 128.455 74.5705C127.813 74.7727 127.138 74.8858 126.44 74.8858C125.933 74.8858 125.438 74.8288 124.954 74.7166C124.47 74.6035 123.997 74.4463 123.536 74.2321C123.074 74.0189 122.658 73.7706 122.253 73.4893C121.847 73.208 121.487 72.8706 121.172 72.5212C121.071 72.4091 120.992 72.297 120.947 72.1729L120.958 72.1499Z" fill="#535151"/>
<path id="Vector_61" d="M133.281 60.7594C133.281 60.5011 133.405 60.377 133.664 60.377H143.974C144.222 60.377 144.345 60.5011 144.345 60.7594V62.5713C144.345 62.8306 144.222 62.9658 143.974 62.9658H140.181V74.3112C140.181 74.5704 140.058 74.6946 139.798 74.6946H137.727C137.469 74.6946 137.345 74.5704 137.345 74.3112V62.9658H133.664C133.405 62.9658 133.281 62.8306 133.281 62.5713V60.7594Z" fill="#535151"/>
<path id="Vector_62" d="M148.255 60.7484C148.357 60.5011 148.514 60.377 148.739 60.377H150.349C150.574 60.377 150.742 60.5011 150.844 60.7484L156.28 74.2781C156.336 74.4123 156.336 74.5144 156.28 74.5814C156.224 74.6495 156.134 74.6826 156.01 74.6826H153.906C153.68 74.6826 153.523 74.5704 153.433 74.3342L152.498 72.0267H146.59L145.667 74.3232C145.622 74.4573 145.554 74.5474 145.474 74.6045C145.396 74.6605 145.295 74.6826 145.182 74.6826H143.078C142.954 74.6826 142.864 74.6495 142.808 74.5814C142.751 74.5144 142.763 74.4123 142.808 74.2781L148.255 60.7484ZM149.538 64.08L147.479 69.5389H151.564L149.538 64.08Z" fill="#535151"/>
<path id="Vector_63" d="M160.872 64.5525V74.3001C160.872 74.5594 160.737 74.6946 160.456 74.6946H158.532C158.283 74.6946 158.16 74.5594 158.16 74.3001V60.7594C158.16 60.6693 158.193 60.5792 158.25 60.5011C158.306 60.422 158.407 60.377 158.532 60.377H160.782C161.007 60.377 161.198 60.5011 161.357 60.7373L167.818 70.0455V60.7594C167.818 60.6583 167.851 60.5571 167.907 60.4891C167.964 60.422 168.065 60.377 168.2 60.377H170.113C170.203 60.377 170.304 60.411 170.394 60.4781C170.485 60.5461 170.53 60.6352 170.53 60.7594V74.3001C170.53 74.5594 170.394 74.6946 170.113 74.6946H168.076C167.975 74.6946 167.874 74.6715 167.773 74.6155C167.683 74.5594 167.592 74.4693 167.502 74.3452L160.85 64.5525H160.872Z" fill="#535151"/>
<path id="Vector_64" d="M173.645 60.7594C173.645 60.5011 173.769 60.377 174.017 60.377H180.23C180.781 60.377 181.288 60.4781 181.76 60.6923C182.233 60.8945 182.649 61.1868 182.999 61.5362C183.347 61.8856 183.628 62.3131 183.832 62.7966C184.034 63.2811 184.135 63.8097 184.135 64.3723C184.135 64.9349 184.045 65.4195 183.866 65.881C183.685 66.3425 183.415 66.7249 183.044 67.0402C183.314 67.2204 183.561 67.4347 183.776 67.6929C183.989 67.9522 184.169 68.2225 184.327 68.5258C184.484 68.8302 184.596 69.1455 184.676 69.4939C184.755 69.8433 184.8 70.1806 184.8 70.541C184.8 71.0926 184.699 71.6212 184.495 72.1278C184.293 72.6343 184.012 73.0738 183.662 73.4562C183.302 73.8386 182.898 74.143 182.413 74.3682C181.941 74.5925 181.423 74.7056 180.882 74.7056H174.028C173.78 74.7056 173.657 74.5814 173.657 74.3232V60.7704L173.645 60.7594ZM176.459 62.7065V66.1963H179.487C180.05 66.1963 180.5 66.0381 180.837 65.7348C181.175 65.4305 181.344 64.992 181.344 64.4514C181.344 64.1921 181.299 63.9559 181.209 63.7426C181.119 63.5284 180.995 63.3482 180.837 63.191C180.68 63.0329 180.477 62.9207 180.252 62.8416C180.027 62.7626 179.768 62.7185 179.498 62.7185H176.448L176.459 62.7065ZM176.459 68.4137V72.353H180.117C180.41 72.353 180.668 72.297 180.905 72.1838C181.13 72.0717 181.322 71.9255 181.479 71.7454C181.636 71.5652 181.749 71.3629 181.827 71.1377C181.907 70.9124 181.941 70.6872 181.941 70.4509C181.941 70.1576 181.885 69.8993 181.783 69.6521C181.681 69.4038 181.546 69.1906 181.366 69.0104C181.198 68.8302 180.995 68.684 180.77 68.5819C180.545 68.4808 180.309 68.4247 180.073 68.4247H176.459V68.4137Z" fill="#535151"/>
<path id="Vector_65" d="M189.686 69.0101C189.686 69.5617 189.776 70.0462 189.944 70.4627C190.113 70.8791 190.35 71.2385 190.642 71.5198C190.935 71.8131 191.273 72.0264 191.667 72.1735C192.06 72.3197 192.466 72.3978 192.893 72.3978C193.321 72.3978 193.749 72.3197 194.143 72.1615C194.525 72.0043 194.875 71.7791 195.167 71.4748C195.46 71.1824 195.684 70.8221 195.854 70.4056C196.023 69.9891 196.101 69.5276 196.101 69.0101V60.7821C196.101 60.67 196.135 60.5689 196.203 60.5008C196.27 60.4337 196.371 60.3887 196.495 60.3887H198.498C198.634 60.3887 198.735 60.4337 198.803 60.5118C198.87 60.5909 198.904 60.681 198.904 60.7931V69.0211C198.904 70.0572 198.747 70.9352 198.42 71.678C198.094 72.4208 197.655 73.0285 197.114 73.513C196.562 73.9965 195.922 74.3459 195.201 74.5821C194.469 74.8074 193.704 74.9305 192.893 74.9305C192.083 74.9305 191.318 74.8184 190.586 74.5821C189.854 74.3459 189.212 73.9855 188.673 73.501C188.121 73.0174 187.682 72.3978 187.367 71.6439C187.04 70.9011 186.883 70.0122 186.883 68.9881V60.7821C186.883 60.681 186.917 60.5799 186.973 60.5008C187.029 60.4217 187.119 60.3887 187.232 60.3887H189.336C189.483 60.3887 189.584 60.4217 189.629 60.5008C189.674 60.5799 189.708 60.67 189.708 60.7821V69.0211L189.686 69.0101Z" fill="#535151"/>
<path id="Vector_66" d="M201.707 60.7821C201.707 60.658 201.74 60.5569 201.808 60.4898C201.875 60.4217 201.965 60.3887 202.078 60.3887H204.15C204.397 60.3887 204.521 60.5238 204.521 60.7931V72.0494H210.599C210.869 72.0494 211.004 72.1735 211.004 72.4208V74.3229C211.004 74.5822 210.869 74.7053 210.599 74.7053H202.089C201.842 74.7053 201.718 74.5822 201.718 74.3229V60.7931L201.707 60.7821Z" fill="#535151"/>
</g>
</g>
</g>
</g>
</svg>
