<svg width="95" height="94" viewBox="0 0 95 94" fill="none" xmlns="http://www.w3.org/2000/svg">
<path d="M47.5003 15.6914C49.0172 15.6757 50.4957 15.2118 51.7493 14.3581C53.003 13.5044 53.9758 12.2991 54.5453 10.8939C55.1147 9.48875 55.2554 7.94661 54.9495 6.46172C54.6437 4.97683 53.9049 3.61559 52.8264 2.54944C51.7479 1.4833 50.3778 0.759929 48.8886 0.470444C47.3995 0.180958 45.8579 0.338301 44.4581 0.922656C43.0583 1.50701 41.8628 2.49224 41.0222 3.75427C40.1816 5.01629 39.7335 6.49867 39.7344 8.0147C39.7467 10.0614 40.5716 12.0196 42.0277 13.459C43.4838 14.8984 45.4521 15.7013 47.5003 15.6914Z" fill="black" fill-opacity="0.52"/>
<path d="M65.3716 58.4612C65.3716 68.9565 57.3723 77.4592 47.5003 77.4592C37.6283 77.4592 29.6289 68.9565 29.6289 58.4612C29.6289 51.5125 37.4695 38.5579 42.7604 30.6012C43.2656 29.8021 43.9649 29.1438 44.7933 28.6876C45.6217 28.2314 46.5521 27.9922 47.4979 27.9922C48.4438 27.9922 49.3742 28.2314 50.2026 28.6876C51.0309 29.1438 51.7303 29.8021 52.2355 30.6012C57.531 38.5579 65.3716 51.5125 65.3716 58.4612Z" fill="black" fill-opacity="0.52"/>
<path d="M68.7232 6.33481C67.8058 5.86972 66.7417 5.78529 65.7623 6.09988C64.783 6.41447 63.9674 7.10264 63.493 8.01481C63.2605 8.46474 63.1199 8.9564 63.0793 9.46116C63.0388 9.96592 63.0992 10.4737 63.2569 10.9549C63.4147 11.4361 63.6667 11.8812 63.9983 12.2641C64.3298 12.6471 64.7343 12.9603 65.1881 13.1855C71.5635 16.3651 76.9264 21.2568 80.6753 27.312C84.4242 33.3672 86.4109 40.3464 86.4124 47.4668C86.4159 53.7204 84.8727 59.8778 81.9201 65.3915C82.9038 60.2118 82.68 54.8752 81.266 49.7959C79.852 44.7166 77.2858 40.0313 73.7666 36.1035C73.0752 35.3412 72.111 34.8819 71.083 34.8251C70.0551 34.7683 69.0462 35.1186 68.2749 35.8001C67.8923 36.1317 67.5796 36.536 67.3548 36.9894C67.13 37.4429 66.9977 37.9365 66.9655 38.4415C66.9334 38.9466 67.002 39.4529 67.1675 39.9312C67.3329 40.4095 67.5919 40.8501 67.9293 41.2275C72.3113 46.1295 74.7348 52.4717 74.7379 59.0448C74.7379 73.4368 63.2735 85.2295 48.8998 85.9482C48.4329 85.9482 47.9659 85.9855 47.4989 85.9855C47.0319 85.9855 46.5649 85.9855 46.0979 85.9482C31.7243 85.2295 20.2599 73.4368 20.2599 59.0448C20.2318 52.905 22.3436 46.9469 26.2326 42.1935C26.5517 41.8002 26.7895 41.3475 26.9321 40.8617C27.0747 40.3758 27.1192 39.8665 27.0632 39.3633C27.0071 38.86 26.8516 38.373 26.6056 37.9303C26.3596 37.4877 26.028 37.0983 25.6302 36.7848C24.8239 36.1448 23.7978 35.8482 22.7742 35.9591C21.7506 36.0701 20.812 36.5797 20.1618 37.3775C17.008 41.2508 14.7401 45.7666 13.5171 50.6083C12.2942 55.45 12.1458 60.5004 13.0824 65.4055C10.1239 59.8888 8.57888 53.7257 8.58536 47.4668C8.58638 40.3463 10.5728 33.3668 14.3217 27.3115C18.0707 21.2562 23.4339 16.3646 29.8096 13.1855C30.2639 12.9608 30.6689 12.6478 31.0008 12.2649C31.3327 11.8821 31.5849 11.4369 31.7427 10.9555C31.9005 10.4741 31.9608 9.96616 31.9199 9.46124C31.8791 8.95633 31.738 8.46461 31.5048 8.01481C31.0313 7.10175 30.2158 6.41277 29.236 6.09807C28.2563 5.78337 27.1918 5.86846 26.2746 6.33481C18.6229 10.1478 12.1861 16.0163 7.68638 23.2819C3.1867 30.5474 0.802297 38.9224 0.800781 47.4668C0.800781 72.9375 21.7496 93.6668 47.4989 93.6668C73.2482 93.6668 94.197 72.9515 94.197 47.4668C94.195 38.9225 91.8103 30.5477 87.3107 23.2823C82.8111 16.0169 76.3745 10.1482 68.7232 6.33481Z" fill="black" fill-opacity="0.52"/>
</svg>
