<svg width="220" height="74" viewBox="0 0 220 74" fill="none" xmlns="http://www.w3.org/2000/svg">
<g id="Frame">
<path id="Vector" d="M66.8718 50.003H53.4531V26.4921H66.8718V30.5767H58.3934V35.7388H66.282V39.8234H58.3934V45.8862H66.8718V50.003ZM79.9202 50.003H74.9803V30.6411H68.6534V26.4921H86.2471V30.6411H79.9202V50.003ZM108.109 50.003H103.184V39.8556H93.957V50.003H89.0166V26.4921H93.957V35.7066H103.184V26.4921H108.109V50.003ZM123.691 50.003L115.866 29.1937H115.739C115.781 29.6333 115.818 30.1693 115.85 30.8019C115.882 31.4344 115.909 32.1259 115.93 32.8763C115.951 33.6161 115.962 34.3719 115.962 35.1438V50.003H113.444V26.4921H117.46L124.838 46.0469H124.95L132.44 26.4921H136.424V50.003H133.747V34.9508C133.747 34.2539 133.758 33.5571 133.779 32.8602C133.8 32.1527 133.826 31.488 133.858 30.8662C133.89 30.2336 133.922 29.6869 133.954 29.2259H133.826L125.906 50.003H123.691ZM156.006 32.3778V50.003H153.839L153.457 47.5265H153.313C152.952 48.1375 152.485 48.6519 151.911 49.07C151.337 49.4881 150.689 49.7991 149.967 50.003C149.255 50.2172 148.495 50.3244 147.688 50.3244C146.307 50.3244 145.149 50.0992 144.214 49.6488C143.279 49.1989 142.572 48.5021 142.094 47.5582C141.627 46.6148 141.393 45.4036 141.393 43.9241V32.3778H144.07V43.7311C144.07 45.1999 144.399 46.2989 145.059 47.028C145.717 47.7462 146.721 48.1053 148.07 48.1053C149.366 48.1053 150.397 47.8588 151.162 47.3653C151.938 46.8723 152.495 46.1486 152.835 45.1945C153.175 44.2296 153.345 43.0504 153.345 41.6567V32.3778H156.006ZM169.055 32.0562C171.127 32.0562 172.694 32.5708 173.757 33.6C174.819 34.6184 175.35 36.2587 175.35 38.5208V50.003H172.737V38.6977C172.737 37.229 172.402 36.1301 171.733 35.4011C171.074 34.6721 170.059 34.3076 168.689 34.3076C166.755 34.3076 165.395 34.8597 164.609 35.9639C163.823 37.0682 163.43 38.6709 163.43 40.7722V50.003H160.784V32.3778H162.92L163.318 34.9186H163.462C163.833 34.2968 164.306 33.7769 164.88 33.3588C165.454 32.9299 166.096 32.6083 166.808 32.3939C167.52 32.1688 168.269 32.0562 169.055 32.0562ZM182.63 32.3778V50.003H179.985V32.3778H182.63ZM181.339 25.7845C181.775 25.7845 182.146 25.9293 182.455 26.2187C182.773 26.4975 182.933 26.937 182.933 27.5374C182.933 28.127 182.773 28.5666 182.455 28.856C182.146 29.1455 181.775 29.2902 181.339 29.2902C180.882 29.2902 180.5 29.1455 180.192 28.856C179.894 28.5666 179.745 28.127 179.745 27.5374C179.745 26.937 179.894 26.4975 180.192 26.2187C180.5 25.9293 180.882 25.7845 181.339 25.7845ZM194.42 50.3244C192.847 50.3244 191.461 49.9975 190.26 49.3433C189.059 48.6896 188.125 47.6926 187.455 46.3524C186.786 45.0123 186.451 43.3238 186.451 41.2868C186.451 39.1534 186.802 37.4112 187.503 36.0604C188.215 34.6988 189.192 33.6911 190.435 33.0372C191.678 32.3832 193.091 32.0562 194.675 32.0562C195.546 32.0562 196.385 32.1473 197.192 32.3296C198.011 32.5011 198.68 32.7209 199.2 32.9889L198.403 35.2242C197.873 35.0098 197.256 34.8168 196.555 34.6453C195.864 34.4737 195.216 34.388 194.611 34.388C193.4 34.388 192.39 34.6506 191.583 35.1759C190.786 35.7013 190.186 36.4732 189.782 37.4916C189.389 38.5101 189.192 39.7644 189.192 41.2546C189.192 42.6805 189.383 43.8973 189.766 44.9051C190.159 45.913 190.738 46.6848 191.503 47.2209C192.279 47.7462 193.245 48.0086 194.403 48.0086C195.328 48.0086 196.162 47.9123 196.906 47.7194C197.649 47.5156 198.324 47.2799 198.929 47.0116V49.3919C198.345 49.692 197.692 49.9226 196.969 50.0833C196.257 50.244 195.408 50.3244 194.42 50.3244ZM204.902 24.9805V32.4582C204.902 32.8871 204.892 33.3213 204.871 33.7608C204.849 34.1896 204.812 34.5863 204.759 34.9508H204.934C205.295 34.329 205.753 33.809 206.305 33.3909C206.868 32.9621 207.505 32.6405 208.217 32.426C208.929 32.2009 209.683 32.0884 210.48 32.0884C211.882 32.0884 213.051 32.3135 213.986 32.7638C214.932 33.214 215.638 33.9109 216.106 34.8543C216.584 35.7978 216.823 37.0199 216.823 38.5208V50.003H214.209V38.6977C214.209 37.229 213.875 36.1301 213.205 35.4011C212.546 34.6721 211.532 34.3076 210.161 34.3076C208.865 34.3076 207.829 34.5595 207.054 35.0634C206.289 35.5565 205.736 36.2855 205.397 37.2504C205.067 38.2153 204.902 39.3946 204.902 40.7883V50.003H202.257V24.9805H204.902Z" fill="#13080E"/>
<g id="Clip path group">
<mask id="mask0_1971_1085" style="mask-type:luminance" maskUnits="userSpaceOnUse" x="0" y="0" width="44" height="74">
<g id="clip0_1026_142">
<path id="Vector_2" d="M43.9987 0H0V73.7893H43.9987V0Z" fill="white"/>
</g>
</mask>
<g mask="url(#mask0_1971_1085)">
<g id="Group">
<path id="Vector_3" d="M22.0578 0.0605469C22.2709 0.351907 22.4301 0.676283 22.6114 0.986806C23.1958 1.98694 23.7735 2.991 24.353 3.99437C24.982 5.08407 25.6104 6.17409 26.2384 7.26443C26.7986 8.23411 27.3598 9.20378 27.922 10.1734C28.5512 11.2628 29.1797 12.3528 29.8075 13.4433C30.356 14.3935 30.9045 15.3436 31.4531 16.2936C32.0369 17.3033 32.6208 18.3127 33.205 19.3217C33.9384 20.5898 34.6723 21.8581 35.4068 23.1265C36.1438 24.4022 36.8796 25.6782 37.6143 26.9548C38.2821 28.1106 38.9511 29.2656 39.6213 30.42C40.3546 31.6888 41.0866 32.9586 41.8173 34.2294C42.5039 35.4188 43.1914 36.6077 43.8798 37.7961C43.9859 37.9808 43.987 37.9914 43.811 38.1036C42.8573 38.7127 41.9024 39.3206 40.9465 39.9275C40.1339 40.4447 39.3211 40.9616 38.508 41.4783C37.0231 42.4204 35.538 43.3621 34.0527 44.3034C32.5227 45.274 30.9927 46.245 29.4629 47.2166C27.6878 48.3429 25.9124 49.4693 24.1369 50.5956C23.5043 50.9974 22.8723 51.4001 22.2409 51.8032C22.1767 51.8445 22.1176 51.8945 22.0424 51.9158L22.0037 51.8759C22.0023 51.7683 22 51.6607 22 51.5526C22 34.4765 22 17.4 22 0.32351C22 0.23878 22.0021 0.154281 22.0032 0.0695508L22.0578 0.0605469ZM37.6377 38.1193C37.6746 38.1112 37.7172 38.1124 37.7472 38.0935C38.3137 37.7355 38.8789 37.3756 39.443 37.0139C39.5842 36.923 39.5846 36.892 39.4945 36.7348C39.2404 36.2904 38.9925 35.842 38.7292 35.4029C38.5962 35.1817 38.5018 34.9358 38.3231 34.743C38.2413 34.4999 38.0864 34.2968 37.9608 34.0779C37.3309 32.9797 36.6983 31.883 36.0631 30.7878C35.5067 29.8242 34.9499 28.861 34.3925 27.8981C33.7633 26.8084 33.1345 25.7184 32.5063 24.6281C31.8421 23.4788 31.177 22.33 30.511 21.1816C29.7131 19.7996 28.9162 18.4168 28.1204 17.0331C27.3191 15.6442 26.516 14.2562 25.711 12.8691C25.5804 12.6449 25.4715 12.4073 25.3054 12.204C25.3015 12.1809 25.2976 12.1476 25.2729 12.1536C25.2481 12.1596 25.2571 12.1922 25.2653 12.2148C25.2632 12.3071 25.2592 12.3995 25.2592 12.4918C25.2592 17.3657 25.2592 22.2397 25.2592 27.1139C25.2592 27.2063 25.2635 27.2986 25.2655 27.3909C25.2621 27.4833 25.2555 27.5756 25.2552 27.668C25.2552 28.5984 25.2552 29.5289 25.2552 30.4594C25.2552 30.6903 25.2609 30.9212 25.264 31.152C25.2626 31.2058 25.26 31.2596 25.26 31.3137C25.26 36.1224 25.26 40.9313 25.26 45.7402C25.26 45.7865 25.26 45.8324 25.2619 45.8787C25.2665 45.9681 25.3164 45.9845 25.3847 45.9441C25.4966 45.8782 25.6045 45.8056 25.7142 45.7366C27.3604 44.6915 29.0064 43.6466 30.6524 42.6015C31.5747 42.0126 32.4972 41.4247 33.42 40.8376C34.7688 39.9806 36.1179 39.124 37.4672 38.2678C37.5318 38.2267 37.6012 38.1923 37.6377 38.1193Z" fill="#8D8D8D"/>
<path id="Vector_4" d="M22.0026 0.0675713C22.0014 0.152301 21.9994 0.2368 21.9994 0.32153C21.9994 17.3981 21.9994 34.4749 21.9994 51.5522C21.9994 51.6598 22.0017 51.7674 22.0028 51.875C21.9985 51.8895 21.9959 51.9045 21.9952 51.9195C21.8321 51.8687 21.7026 51.7579 21.5621 51.6675C18.5913 49.7844 15.6215 47.899 12.6528 46.0113C10.1287 44.4077 7.60462 42.8047 5.08046 41.2023C3.44717 40.165 1.81418 39.1274 0.181487 38.0894C0.149633 38.0691 0.120301 38.0432 0.0898226 38.0218C0.0873018 37.9871 0.0845516 37.9525 0.0820312 37.9176C0.320128 37.4972 0.555244 37.0752 0.796781 36.6568C1.75956 34.9884 2.72318 33.3204 3.68763 31.6527C4.91301 29.5336 6.13835 27.4143 7.36361 25.2949C8.73854 22.916 10.1123 20.5369 11.4848 18.1575C12.8139 15.8584 14.1431 13.5596 15.4722 11.2614C16.7619 9.02933 18.0509 6.79626 19.3393 4.56218C20.1904 3.08692 21.0428 1.61241 21.8965 0.13868C21.9231 0.0925052 21.9423 0.0410209 21.995 0.015625L22.0026 0.0675713ZM18.7393 31.1471C18.7412 30.7712 18.7451 30.3956 18.7448 30.0197C18.7439 29.1455 18.7419 28.2712 18.7389 27.3968C18.7412 27.3352 18.7457 27.2737 18.7457 27.2121C18.7457 22.2647 18.7457 17.3173 18.7457 12.37V12.1854C18.647 12.235 18.6328 12.3073 18.5995 12.3645C17.912 13.5535 17.2246 14.743 16.5371 15.9331C15.7653 17.2686 14.9932 18.6042 14.2208 19.9399C13.3111 21.5149 12.4016 23.0903 11.4921 24.6663C10.6168 26.1814 9.741 27.6964 8.86482 29.2112C8.01618 30.6797 7.16826 32.1488 6.32115 33.6184C6.10736 33.9905 5.87449 34.352 5.68841 34.7402C5.65962 34.7757 5.63276 34.8127 5.60801 34.8512C5.23514 35.4923 4.8646 36.1346 4.49038 36.7746C4.43218 36.8746 4.44295 36.9362 4.54446 36.999C4.92624 37.2363 5.30069 37.4838 5.68337 37.7207C5.90981 37.8604 6.11878 38.0308 6.36974 38.1279C6.41099 38.1972 6.48432 38.2272 6.54871 38.2665C7.43874 38.8338 8.32945 39.4 9.22069 39.965C12.1902 41.8516 15.1599 43.7374 18.13 45.6227C18.3161 45.7403 18.4903 45.8801 18.6981 45.9618C18.7038 45.9782 18.721 45.9872 18.7286 45.9754C18.7345 45.9573 18.7366 45.9378 18.735 45.9182C18.7382 45.8338 18.7439 45.7498 18.7439 45.6645C18.7439 40.9224 18.7439 36.1804 18.7439 31.4384C18.7439 31.3544 18.7368 31.2701 18.7329 31.1859C18.7386 31.1738 18.7408 31.1604 18.7393 31.1471Z" fill="#13080E"/>
<path id="Vector_5" d="M43.868 42.0411C43.7046 42.3458 43.4871 42.6141 43.2932 42.8981C42.251 44.4251 41.2045 45.9493 40.1537 47.4706C39.463 48.4761 38.7726 49.4817 38.0826 50.4873C37.5405 51.2763 36.9982 52.0654 36.4555 52.8535C34.4284 55.8067 32.4013 58.7594 30.3743 61.7126C28.7288 64.1088 27.0826 66.5049 25.4357 68.9002C24.5061 70.2535 23.5755 71.6059 22.644 72.9574C22.4497 73.2385 22.2877 73.5435 22.0446 73.7887C22.0446 73.6734 22.043 73.5581 22.043 73.4423V57.1332C22.043 56.6638 22.0436 56.1948 22.0448 55.7259C22.8733 55.2033 23.7016 54.6808 24.5296 54.1587C27.1671 52.4899 29.8042 50.821 32.4411 49.1517L36.0872 46.8427L43.1644 42.3638C43.3961 42.2172 43.6195 42.0568 43.8661 41.9355C43.8675 41.9718 43.8677 42.0057 43.868 42.0411ZM32.2873 53.1504C32.2731 53.0959 32.2504 53.1313 32.2298 53.145C31.7196 53.4668 31.2093 53.7887 30.699 54.1106C28.9553 55.2138 27.2111 56.3161 25.4666 57.4179C25.3498 57.4914 25.3 57.5677 25.3002 57.7093C25.3046 59.5099 25.303 61.309 25.3048 63.1086C25.3048 63.1549 25.2721 63.2167 25.3399 63.2475C25.3921 63.2203 25.4146 63.1699 25.4448 63.1263C26.5085 61.5791 27.5721 60.0324 28.6359 58.4857C29.5613 57.1391 30.4862 55.7926 31.4108 54.4452C31.7046 54.0157 31.9945 53.5821 32.2873 53.1504Z" fill="#13080E"/>
<path id="Vector_6" d="M22.0456 55.7264C22.0456 56.1958 22.045 56.6648 22.0438 57.1338V73.4433C22.0438 73.5586 22.0438 73.6739 22.0453 73.7897C21.9661 73.7733 21.9493 73.6971 21.9124 73.6426C20.986 72.2965 20.0608 70.9491 19.1368 69.6012C17.5208 67.2486 15.9045 64.8965 14.2881 62.5444C12.5595 60.027 10.8315 57.5097 9.10397 54.9919C7.97954 53.3534 6.85448 51.7154 5.72866 50.0779C3.90334 47.4225 2.07769 44.7675 0.251747 42.113C0.213018 42.0566 0.177728 41.9976 0.132812 41.9283C0.232497 41.8971 0.285433 41.9606 0.344327 41.9976C1.34713 42.6301 2.34956 43.2634 3.3516 43.8974C5.65357 45.3537 7.95435 46.8106 10.2539 48.2679C12.7617 49.8559 15.2696 51.4435 17.7777 53.0311C19.1737 53.915 20.5695 54.7994 21.9649 55.6842C21.9908 55.6992 22.0187 55.7119 22.0456 55.7264ZM11.8708 53.1664C11.8571 53.1373 11.8383 53.1201 11.8044 53.1369L11.8289 53.1655C11.8434 53.2449 11.8977 53.3008 11.9414 53.3634C12.6055 54.3313 13.2701 55.2992 13.9351 56.2667C15.4027 58.4049 16.8708 60.5423 18.3396 62.6792C18.469 62.8672 18.5779 63.0719 18.7443 63.2336L18.764 63.2644L18.7777 63.2331C18.7814 63.1868 18.7887 63.1405 18.7887 63.0942C18.7887 61.2964 18.7873 59.4981 18.7927 57.6999C18.7927 57.5533 18.7307 57.4852 18.6176 57.4134C16.6468 56.1695 14.6774 54.9242 12.7094 53.6776C12.4328 53.5019 12.1681 53.3062 11.8702 53.1664H11.8708Z" fill="#8D8D8D"/>
<path id="Vector_7" d="M37.6372 38.119C37.0373 37.7835 36.4375 37.4479 35.8377 37.1122C35.2724 36.7936 34.7077 36.4732 34.1437 36.151C33.4727 35.7698 32.8019 35.3887 32.1312 35.0078C31.5796 34.6952 31.0275 34.3833 30.4751 34.0721C29.6643 33.6126 28.8539 33.1527 28.0437 32.6924C27.5121 32.3908 26.9801 32.0899 26.4478 31.7897C26.109 31.5979 25.7701 31.4055 25.4313 31.2125C25.3786 31.1827 25.3286 31.1432 25.2633 31.1478C25.2603 30.917 25.2548 30.6861 25.2546 30.4552C25.2537 29.5248 25.2537 28.5943 25.2546 27.6637C25.2546 27.5714 25.2615 27.4791 25.2652 27.3867C25.739 27.6506 26.2139 27.9122 26.6859 28.1784C27.3445 28.5497 28.0022 28.9231 28.659 29.2983C29.3433 29.6871 30.0274 30.076 30.7113 30.4649C31.2497 30.7701 31.7884 31.0723 32.3279 31.3775C33.0126 31.7654 33.6967 32.1542 34.3802 32.5439C35.0382 32.917 35.6967 33.2892 36.3556 33.6606C36.9803 34.0147 37.6046 34.3694 38.2287 34.725C38.2587 34.742 38.2826 34.7866 38.3222 34.7402C38.501 34.933 38.5954 35.1789 38.7283 35.4C38.9916 35.8387 39.2396 36.2875 39.4937 36.7319C39.5837 36.8891 39.5833 36.9201 39.4422 37.0111C38.8787 37.3738 38.3134 37.7337 37.7464 38.0906C37.7168 38.1121 37.6741 38.111 37.6372 38.119Z" fill="#13080E"/>
<path id="Vector_8" d="M18.6875 31.1835C18.3391 31.3241 18.0296 31.5374 17.7037 31.7195C16.7433 32.2563 15.7881 32.8023 14.8309 33.3451C13.6746 34.0008 12.5183 34.6567 11.3619 35.3128C10.3316 35.8966 9.30101 36.48 8.27007 37.0628C7.69811 37.3861 7.12643 37.7101 6.55506 38.0351C6.49522 38.0688 6.43269 38.0969 6.37173 38.1274C6.11965 38.0304 5.91179 37.86 5.68541 37.7204C5.30313 37.4844 4.92917 37.2355 4.54645 36.9987C4.44494 36.9354 4.43417 36.8743 4.49238 36.7743C4.86659 36.1343 5.23717 35.492 5.61 34.8509C5.63475 34.8124 5.66161 34.7753 5.69045 34.7398C5.8543 34.7167 5.98306 34.6147 6.12077 34.5371C7.31152 33.8658 8.50091 33.1921 9.68905 32.5163C11.0773 31.7286 12.4652 30.9406 13.8529 30.1524C14.896 29.5612 15.9396 28.9709 16.9837 28.3814C17.5352 28.0692 18.0866 27.7569 18.638 27.4443C18.671 27.4258 18.7067 27.4122 18.7411 27.3965C18.7431 28.2707 18.7451 29.145 18.7471 30.0194C18.7471 30.3953 18.7434 30.7709 18.7416 31.1467L18.6875 31.1835Z" fill="#8D8D8D"/>
</g>
</g>
</g>
</g>
</svg>
