<svg width="220" height="132" viewBox="0 0 220 132" fill="none" xmlns="http://www.w3.org/2000/svg">
<g opacity="0.64">
<g clip-path="url(#clip0_887_220)">
<path d="M17 70.2247V83.4081L28.4539 90L39.9077 83.4076V70.2225L28.4539 63.6323L17 70.2247ZM54.6656 63.6323L43.2117 70.2242V83.4076L54.6656 90L66.1194 83.4076V70.222L54.6656 63.6323ZM53.0056 54.1957L47.2827 50.8888L47.2769 44.2977L41.5597 41L30.1138 47.5924V60.7758L41.5597 67.3677L53.0056 60.7758V54.1957Z" fill="#282828"/>
<path d="M53.006 54.1957L58.729 50.8866V44.296L53.0148 41L47.2773 44.2977L53.0148 47.5862L53.006 54.1957Z" fill="#282828"/>
<path d="M123.412 54.2164L120.612 73.6837C120.608 73.7157 120.561 73.7153 120.557 73.6832L118.097 54.2173C118.096 54.2105 118.093 54.2044 118.087 54.1999C118.082 54.1955 118.076 54.193 118.069 54.1931H111.09C111.084 54.1931 111.077 54.1956 111.072 54.2C111.067 54.2045 111.064 54.2106 111.063 54.2173L108.602 73.685C108.598 73.7171 108.552 73.7175 108.547 73.6854L105.747 54.2168C105.746 54.2102 105.743 54.2041 105.738 54.1997C105.733 54.1954 105.726 54.193 105.719 54.1931H101.465C101.461 54.1931 101.457 54.194 101.454 54.1957C101.45 54.1973 101.447 54.1998 101.444 54.2028C101.442 54.2059 101.44 54.2095 101.439 54.2133C101.438 54.2172 101.437 54.2212 101.438 54.2252L104.989 76.7515C104.991 76.7652 105.003 76.7748 105.016 76.7748H111.984C111.998 76.7748 112.01 76.7643 112.012 76.7507L114.553 57.3194C114.557 57.2873 114.604 57.2873 114.608 57.3194L117.148 76.7507C117.15 76.7643 117.162 76.7748 117.176 76.7748H124.143C124.157 76.7748 124.169 76.7647 124.171 76.7515L127.722 54.2252C127.723 54.2212 127.722 54.2172 127.721 54.2133C127.72 54.2095 127.718 54.2059 127.716 54.2028C127.713 54.1998 127.71 54.1973 127.706 54.1957C127.703 54.194 127.699 54.1931 127.695 54.1931H123.44C123.433 54.1931 123.427 54.1955 123.422 54.1999C123.417 54.2042 123.413 54.2102 123.412 54.2168V54.2164ZM201.563 55.272C200.593 54.1474 199.212 53.577 197.457 53.577C195.213 53.577 193.534 54.5829 192.462 56.5679H192.445C192.145 55.7391 191.652 55.0439 190.976 54.4981C190.217 53.8872 189.253 53.5774 188.111 53.5774C187.039 53.5774 186.092 53.8428 185.297 54.3667C184.627 54.8083 184.088 55.4574 183.69 56.3012V54.2212C183.69 54.2139 183.687 54.2068 183.682 54.2016C183.677 54.1964 183.67 54.1935 183.663 54.1935H179.509C179.502 54.1935 179.495 54.1964 179.49 54.2016C179.484 54.2068 179.481 54.2139 179.481 54.2212V76.7471C179.481 76.7625 179.494 76.7748 179.509 76.7748H183.663C183.678 76.7748 183.69 76.7625 183.69 76.7471V61.3497C183.69 60.2093 183.954 59.2807 184.473 58.5895C184.974 57.9237 185.674 57.6002 186.612 57.6002C187.381 57.6002 187.977 57.8643 188.433 58.408C188.906 58.9727 189.137 59.6762 189.137 60.5582V76.7471C189.137 76.7625 189.149 76.7748 189.164 76.7748H193.318C193.333 76.7748 193.345 76.7625 193.345 76.7471V61.6134C193.345 60.2181 193.619 59.1836 194.16 58.5398C194.69 57.9074 195.365 57.5998 196.223 57.5998C197.127 57.5998 197.76 57.8705 198.157 58.4273C198.578 59.0184 198.791 59.794 198.791 60.7336V76.7463C198.791 76.7616 198.803 76.774 198.819 76.774H203V59.5906C203 57.8336 202.516 56.3807 201.562 55.272H201.563ZM152.882 74.3182L150.251 77.2494C150.246 77.255 150.239 77.2584 150.231 77.2589C150.224 77.2594 150.217 77.257 150.211 77.2521L145.576 73.2451C145.572 73.2412 145.566 73.2388 145.56 73.2383C145.554 73.2377 145.548 73.239 145.543 73.242L140 76.4716C139.066 77.0042 138.087 77.2705 137.019 77.2705C135.462 77.2705 134.039 76.694 132.793 75.5843C131.592 74.4303 130.969 73.01 130.969 71.2794C130.969 69.1937 132.081 67.1519 133.994 66.0867L145.19 59.66C145.199 59.6552 145.204 59.6455 145.204 59.6354V58.215C145.204 58.2076 145.201 58.2004 145.196 58.1952C145.191 58.1899 145.184 58.1869 145.176 58.1869H132.109C132.102 58.1869 132.095 58.184 132.089 58.1787C132.084 58.1734 132.081 58.1662 132.081 58.1588V54.2216C132.081 54.2058 132.094 54.1935 132.109 54.1935H149.18C149.196 54.1935 149.208 54.2063 149.208 54.2216V71.0891C149.208 71.0974 149.212 71.1049 149.218 71.1106L152.879 74.2787C152.891 74.2892 152.892 74.3073 152.882 74.3191L152.882 74.3182ZM137.998 73.0095L145.19 68.8461C145.199 68.8408 145.204 68.8316 145.204 68.8215V64.3152C145.204 64.2932 145.181 64.2801 145.162 64.2906L135.996 69.5474C135.328 69.9469 134.972 70.5239 134.972 71.2785C134.972 72.3877 135.951 73.2758 136.974 73.2758C137.375 73.2758 137.686 73.1871 137.998 73.0091V73.0095ZM172.886 55.7712C171.434 54.3232 169.675 53.577 167.607 53.577C165.154 53.577 163.18 54.5345 161.687 56.4497C161.685 56.4528 161.682 56.4553 161.678 56.4572C161.675 56.459 161.672 56.4602 161.668 56.4605C161.664 56.4608 161.66 56.4603 161.657 56.4591C161.653 56.4578 161.65 56.4558 161.647 56.4532L159.006 54.0344C159.004 54.0319 159 54.03 158.997 54.0287C158.994 54.0274 158.99 54.0268 158.986 54.027C158.982 54.0272 158.979 54.0281 158.975 54.0296C158.972 54.0312 158.969 54.0334 158.967 54.0362L156.364 56.9349C156.36 56.9404 156.357 56.9477 156.357 56.9551C156.358 56.9625 156.361 56.9695 156.367 56.9744L160.12 60.3706C160.126 60.3759 160.129 60.3833 160.129 60.3913V72.7863C160.129 72.8017 160.116 72.8144 160.101 72.8144H156.371C156.364 72.8144 156.357 72.8174 156.352 72.8226C156.346 72.8279 156.343 72.8351 156.343 72.8425V76.7357C156.343 76.7511 156.356 76.7638 156.371 76.7638H169.812C169.828 76.7638 169.84 76.7511 169.84 76.7357V72.8425C169.84 72.8351 169.837 72.8279 169.832 72.8226C169.827 72.8174 169.82 72.8144 169.812 72.8144H164.117C164.109 72.8144 164.102 72.8114 164.097 72.8062C164.091 72.8009 164.088 72.7937 164.088 72.7863V61.2262C164.088 59.3818 165.43 57.7154 167.27 57.5422C169.356 57.3458 171.127 58.9951 171.127 61.0368V62.3253C171.127 62.3407 171.139 62.3535 171.155 62.3535H175.058C175.073 62.3535 175.086 62.3407 175.086 62.3253V61.0368C175.086 58.9744 174.338 57.2188 172.887 55.7708L172.886 55.7712ZM97.3524 67.3897C97.0784 66.752 96.6626 66.1939 96.1634 65.7878C95.6974 65.3233 95.1013 64.9595 94.2991 64.6492C93.4797 64.2647 92.7189 64.0405 92.1475 63.8885C91.4052 63.6912 90.6052 63.4837 89.7074 63.3132C87.9528 62.9634 86.6523 62.5275 85.8435 62.0181C85.0536 61.5202 84.6532 60.8641 84.6532 60.0665C84.6532 59.141 84.9898 58.4932 85.7193 58.0217C86.7453 57.3585 88.0114 57.1792 89.1999 57.4231C90.3497 57.6591 91.3863 58.3267 92.2577 59.0896C92.4348 59.2447 94.2458 60.905 94.2123 60.9428L96.8154 58.0006C96.8154 58.0006 95.5626 56.7349 94.9687 56.219C93.5528 54.9894 91.8691 53.9509 89.9726 53.6525C88.0885 53.3559 85.9448 53.6398 84.2466 54.5161C83.7775 54.7583 83.3351 55.0486 82.9263 55.3823C81.4144 56.6163 80.6483 58.2366 80.6483 60.1992C80.6483 62.1618 81.2955 63.7096 82.6237 64.669C83.8699 65.6015 85.6625 66.3244 87.9528 66.8175C89.9766 67.2469 91.4467 67.6863 92.3317 68.1271C93.174 68.487 93.5832 69.0632 93.5832 69.888C93.5832 70.9511 93.1537 71.7557 92.3026 72.2813C90.3859 73.4652 87.7228 73.4125 85.7849 72.3024C84.9492 71.8234 84.2572 71.1286 83.525 70.5121C82.9633 70.0339 82.432 69.5206 81.8911 69.0192C81.8849 69.0135 81.8787 69.0078 81.8699 68.9964L79.336 72.041C79.3285 72.0502 80.5747 73.1919 80.6836 73.2908C82.3964 74.8482 84.2426 76.1376 86.5479 76.614C87.3721 76.7816 88.2113 76.8648 89.0524 76.8623C91.5321 76.8623 93.622 76.2114 95.2617 74.9291C96.9815 73.6199 97.8538 71.805 97.8538 69.5356C97.8538 68.7854 97.6789 68.0401 97.3529 67.3901L97.3524 67.3897Z" fill="#282828"/>
</g>
</g>
<defs>
<clipPath id="clip0_887_220">
<rect width="186" height="49" fill="white" transform="translate(17 41)"/>
</clipPath>
</defs>
</svg>
