<svg width="220" height="132" viewBox="0 0 220 132" fill="none" xmlns="http://www.w3.org/2000/svg">
<g opacity="0.64">
<path d="M29.2146 76.7507C28.3594 80.4534 27.5611 81.7636 21.6313 81.7636H10.2848C9.08743 81.6497 8.17515 81.08 8.17515 79.3711V66.6109H19.5216C23.0567 66.6109 23.855 68.4338 23.969 70.1997C24.026 70.7694 24.9383 70.7124 24.9383 70.1427V61.8259C24.9383 61.1992 24.026 61.1992 23.969 61.7689C23.855 63.4778 23.0567 65.3577 19.5216 65.3577H8.17515V51.0025C8.17515 49.0088 9.3155 48.61 10.7409 48.61H19.6927C25.6225 48.61 27.048 49.9202 27.9032 53.6229C28.0173 54.1356 28.9295 54.0217 28.9295 53.5659L28.5874 47.5846C28.5874 47.4137 28.4164 47.2998 28.1883 47.2998H0.477777C-0.149416 47.2998 -0.149416 48.1543 0.420759 48.2682C2.30234 48.61 3.95585 48.0973 3.95585 51.1165V79.2571C3.95585 82.2193 2.30234 81.7636 0.420759 82.1054C-0.149416 82.1623 -0.149416 83.0168 0.477777 83.0168H29.4997C29.6708 83.0168 29.8988 82.9599 29.8988 82.732L30.1839 76.8076C30.1839 76.295 29.3287 76.238 29.2146 76.7507Z" fill="black"/>
<path d="M64.9254 47.8125C64.9254 47.5846 64.7544 47.5277 64.5263 47.5277H33.2237C32.9956 47.5277 32.8245 47.5846 32.8245 47.8125L32.5395 54.4204C32.4824 54.9331 33.3947 54.9901 33.5088 54.4774C34.364 49.7493 34.25 48.8379 40.807 48.8379H44.2281C45.5965 48.8379 46.7368 49.2366 46.7368 51.2304V79.542C46.7368 82.5611 45.0833 82.1054 43.1447 82.3902C42.6316 82.5041 42.6316 83.3586 43.2588 83.3586H54.4912C55.1184 83.3586 55.1184 82.5041 54.5482 82.3902C52.6667 82.1054 50.9561 82.5611 50.9561 79.542V51.2304C50.9561 49.2366 52.0965 48.8379 53.5219 48.8379H56.943C63.5 48.8379 63.386 49.7493 64.2412 54.4774C64.3553 54.9901 65.2675 54.9331 65.2105 54.4204L64.9254 47.8125Z" fill="black"/>
<path d="M105.022 82.1054C103.084 81.7636 101.43 82.2193 101.43 79.2571V51.1165C101.43 48.0973 103.084 48.61 105.022 48.2682C105.592 48.1543 105.535 47.2998 104.965 47.2998H93.7327C93.1055 47.2998 93.1055 48.1543 93.6756 48.2682C95.5572 48.61 97.2107 48.0973 97.2107 51.1165V63.8196H75.7721V51.1165C75.7721 48.0973 77.4256 48.61 79.3642 48.2682C79.9344 48.1543 79.8774 47.2998 79.3072 47.2998H68.0748C67.4476 47.2998 67.4476 48.1543 68.0177 48.2682C69.8993 48.61 71.5528 48.0973 71.5528 51.1165V79.2571C71.5528 82.2193 69.8993 81.7636 68.0177 82.1054C67.4476 82.1623 67.4476 83.0168 68.0748 83.0168H79.3072C79.8774 83.0168 79.9344 82.1623 79.3642 82.1054C77.4256 81.7636 75.7721 82.2193 75.7721 79.2571V65.1298H97.2107V79.2571C97.2107 82.2193 95.5572 81.7636 93.6756 82.1054C93.1055 82.1623 93.1055 83.0168 93.7327 83.0168H104.965C105.535 83.0168 105.592 82.1623 105.022 82.1054Z" fill="black"/>
<path d="M123.557 47.2998H108.277C107.649 47.2998 107.649 48.1543 108.22 48.2682C110.101 48.61 111.755 48.0973 111.755 51.1165C111.755 58.6358 111.755 71.7378 111.755 79.2571C111.755 82.2193 110.101 81.7636 108.22 82.1054C107.649 82.1623 107.649 83.0168 108.277 83.0168H123.557C151.439 83.0168 151.496 47.2998 123.557 47.2998ZM122.588 81.8206H118.597C117.171 81.8206 115.974 81.3648 115.974 79.3711V51.0025C115.974 49.0088 117.114 48.61 118.54 48.61H122.588C145.965 48.61 146.307 81.8206 122.588 81.8206Z" fill="black"/>
<path d="M169.318 82.3902C168.235 82.3902 167.55 81.9915 167.55 79.6559C167.55 74.586 167.55 68.9465 167.55 63.9336C167.55 59.2055 162.704 56.699 157.743 56.699C154.892 56.699 151.985 57.5535 149.932 59.2624C149.704 59.4333 149.476 59.6042 149.305 59.8891C149.248 59.8891 149.248 59.8891 149.191 59.946C148.963 60.2308 148.735 60.5157 148.506 60.8575C148.164 61.2562 147.936 61.8259 147.765 62.3385C147.708 62.4525 147.651 62.5664 147.594 62.6803C147.594 62.7373 147.594 62.7373 147.594 62.7943C147.423 63.307 147.309 63.7627 147.309 64.2184C147.366 66.2691 148.449 67.1236 149.533 67.1236C150.787 67.1236 152.042 65.8704 151.243 63.9905C150.559 62.4525 150.388 60.2308 152.669 59.0915C153.923 58.5219 155.349 58.2371 156.831 58.2371C160.309 58.2371 163.673 59.946 163.673 63.9336C163.673 65.4716 163.673 66.9527 163.673 68.4338C163.673 68.8326 161.678 68.7186 158.998 68.8895C153.524 69.1743 145.713 70.5415 145.656 77.3773C145.656 80.6813 148.449 83.8143 153.524 83.8143C159.226 83.8143 162.362 80.9091 163.673 77.4912C163.673 78.4027 163.673 79.3711 163.673 80.3395C163.673 82.8459 165.498 83.5865 167.379 83.5865C168.064 83.5865 168.748 83.4725 169.375 83.3016C170.002 83.1307 169.888 82.3902 169.318 82.3902ZM154.721 81.9915C151.871 81.9915 150.103 79.9407 150.103 77.4343C150.103 70.3136 158.77 69.8579 163.673 69.8579C163.673 70.4276 163.673 70.9972 163.673 71.6238C163.502 79.8837 158.199 81.9915 154.721 81.9915Z" fill="black"/>
<path d="M219.6 82.3332C217.661 81.9915 216.008 82.5041 216.008 79.485V64.3323C216.008 59.3764 211.788 56.8129 207.227 56.8129C203.464 56.8129 199.53 58.5789 197.648 62.1677C196.622 58.5789 192.973 56.756 189.152 56.756C185.674 56.756 181.968 58.294 180.03 61.4841V57.1547C180.03 56.756 179.63 56.699 179.345 56.8699C177.464 57.7814 175.183 58.4649 173.073 59.0346C172.161 59.2624 172.446 60.06 173.016 60.06C175.753 60.06 176.095 60.003 176.095 63.0791V79.485C176.095 82.5041 174.442 81.9915 172.503 82.3332C171.99 82.4472 171.99 83.3016 172.56 83.3016H183.565C184.135 83.3016 184.135 82.4472 183.622 82.3332C181.683 81.9915 180.03 82.5041 180.03 79.485V65.9273C180.03 61.3701 184.192 58.9207 188.012 58.9207C191.205 58.9207 194.113 60.6296 194.113 64.3323V79.485C194.113 82.5041 192.459 81.9915 190.521 82.3332C189.951 82.4472 190.008 83.3016 190.578 83.3016H201.525C202.152 83.3016 202.152 82.4472 201.582 82.3332C199.701 81.9915 197.99 82.5041 197.99 79.485V65.8704C198.047 61.3701 202.209 58.9207 205.973 58.9207C209.166 58.9207 212.073 60.6296 212.073 64.3323V79.485C212.073 82.5041 210.42 81.9915 208.538 82.3332C207.968 82.4472 207.968 83.3016 208.595 83.3016H219.543C220.113 83.3016 220.17 82.4472 219.6 82.3332Z" fill="black"/>
</g>
</svg>
