<svg width="217" height="45" viewBox="0 0 217 45" fill="none" xmlns="http://www.w3.org/2000/svg">
<g id="Frame">
<g id="Group-54">
<path id="Fill-40" fill-rule="evenodd" clip-rule="evenodd" d="M79.6523 31.838C82.8559 31.8352 86.0596 31.8324 89.2632 31.8296C89.256 31.838 89.2462 28.25 89.2462 28.25H81.5712C80.9315 29.446 80.2919 30.6419 79.6523 31.838Z" fill="#222222"/>
<path id="Fill-41" fill-rule="evenodd" clip-rule="evenodd" d="M78.4002 26.7475V24.5394H81.4212L83.3568 20.8649H78.4002V18.6341C78.4002 17.8433 79.0271 17.2032 79.8051 17.2032H85.3059L87.2401 13.623H79.8051C77.0842 13.623 74.875 15.8631 74.875 18.6341V26.7475C74.875 28.7493 76.0403 30.4639 77.7082 31.2638L79.4145 28.112C78.8289 27.9371 78.4002 27.3933 78.4002 26.7475Z" fill="#222222"/>
<path id="Fill-42" fill-rule="evenodd" clip-rule="evenodd" d="M89.3214 13.8555L87.5087 17.2035H87.8958C88.6768 17.2035 89.3096 17.8434 89.3096 18.6344V20.8649H85.5113L83.5586 24.5395H92.8348V23.7001V21.415V18.6344C92.8348 16.3701 91.3502 14.4747 89.3214 13.8555Z" fill="#222222"/>
<path id="Fill-43" fill-rule="evenodd" clip-rule="evenodd" d="M210.974 12.4772C210.974 11.5762 210.215 10.8081 209.329 10.8081H208.105V7.29688H209.329C212.153 7.29688 214.431 9.61047 214.431 12.4772V19.4511C214.94 19.7502 215.782 20.3098 216.412 20.6968V24.8052L214.431 25.8728V32.8918C214.431 35.8009 212.153 38.1143 209.329 38.1143H208.105V34.5578H209.329C210.215 34.5578 210.974 33.7899 210.974 32.8918V25.5702L214.517 22.7019L210.974 19.7502V12.4772Z" fill="#7B7B7B"/>
<path id="Fill-44" fill-rule="evenodd" clip-rule="evenodd" d="M6.09658 32.9346C6.09658 33.8357 6.85499 34.6067 7.7408 34.6067H8.96454V38.1178H7.7408C4.92059 38.1178 2.6391 35.8076 2.6391 32.9346V25.9609C2.13258 25.6644 1.29117 25.0993 0.660156 24.718V20.6129L2.6391 19.5423V12.5237C2.6391 9.61422 4.92059 7.30078 7.7408 7.30078H8.96454V10.857H7.7408C6.85499 10.857 6.09658 11.6251 6.09658 12.5237V19.8418L2.55641 22.7117L6.09658 25.6644V32.9346Z" fill="#7B7B7B"/>
<path id="Fill-45" fill-rule="evenodd" clip-rule="evenodd" d="M45.9355 26.7544C45.9355 26.8299 45.8762 26.8875 45.8052 26.8875H37.806C37.7321 26.8875 37.6726 26.8299 37.6726 26.7544V18.6303C37.6726 18.5607 37.7321 18.4971 37.806 18.4971H45.8052C45.8762 18.4971 45.9355 18.5607 45.9355 18.6303V26.7544ZM45.8052 13.6133H37.806C35.0686 13.6133 32.8555 15.8601 32.8555 18.6303V26.7544C32.8555 29.5278 35.0686 31.7777 37.806 31.7777H45.8052C48.5336 31.7777 50.7498 29.5278 50.7498 26.7544V18.6303C50.7498 15.8601 48.5336 13.6133 45.8052 13.6133Z" fill="#222222"/>
<path id="Fill-46" fill-rule="evenodd" clip-rule="evenodd" d="M25.0271 26.7692C25.0271 26.8416 24.9737 26.8994 24.9026 26.8994H16.9006C16.8295 26.8994 16.7732 26.8416 16.7732 26.7692V18.642C16.7732 18.5722 16.8295 18.5149 16.9006 18.5149H24.9026C24.9737 18.5149 25.0271 18.5722 25.0271 18.642V19.9656H29.847V18.642C29.847 15.8718 27.634 13.625 24.9026 13.625H16.9006C14.1719 13.625 11.9531 15.8718 11.9531 18.642V26.7692C11.9531 29.5422 14.1719 31.7895 16.9006 31.7895H24.9026C27.634 31.7895 29.847 29.5422 29.847 26.7692V25.4909H25.0271V26.7692Z" fill="#222222"/>
<path id="Fill-47" fill-rule="evenodd" clip-rule="evenodd" d="M66.9595 26.7692C66.9595 26.8416 66.9063 26.8994 66.8324 26.8994H58.8272C58.7592 26.8994 58.7116 26.8478 58.7027 26.7812V18.6328C58.7116 18.5663 58.7592 18.5149 58.8272 18.5149H66.8324C66.9063 18.5149 66.9595 18.5722 66.9595 18.642V19.2677H66.9564V26.3155H66.9595V26.7692ZM71.7797 19.2677V18.642C71.7797 15.8718 69.5638 13.625 66.8324 13.625H58.8272C58.7827 13.625 58.7473 13.6306 58.7027 13.6306V13.625H53.8885V18.5511C53.8854 18.5811 53.8828 18.6119 53.8828 18.642V26.7692C53.8828 26.8025 53.8854 26.8327 53.8885 26.8628V31.7895H58.7027V31.7832C58.7473 31.7832 58.7827 31.7895 58.8272 31.7895H66.8324C69.5638 31.7895 71.7797 29.5422 71.7797 26.7692V26.3155V19.2677Z" fill="#222222"/>
<path id="Fill-48" fill-rule="evenodd" clip-rule="evenodd" d="M199.664 13.6289H197.463H193.942H191.741C189.006 13.6289 186.793 15.873 186.793 18.6461V31.8212H190.324V18.6461C190.324 17.8538 190.959 17.2155 191.741 17.2155H193.942H197.463H199.664C200.444 17.2155 201.078 17.8538 201.078 18.6461V31.8111H204.612V18.6461C204.612 15.873 202.396 13.6289 199.664 13.6289Z" fill="#222222"/>
<path id="Fill-49" fill-rule="evenodd" clip-rule="evenodd" d="M138.305 26.7102V26.7796C138.305 27.569 137.673 28.2192 136.894 28.2192H128.886C128.11 28.2192 127.476 27.569 127.476 26.7796V18.6526C127.476 17.8663 128.11 17.222 128.886 17.222H136.894C137.673 17.222 138.305 17.8663 138.305 18.6526V23.7331V26.7102ZM136.894 13.6211H128.886C126.155 13.6211 123.941 15.8998 123.941 18.67V26.7971C123.941 29.5671 126.155 31.8173 128.886 31.8173H136.894C139.623 31.8173 141.838 29.5671 141.838 26.7971V26.7274V23.7504V18.67C141.838 15.8998 139.623 13.6211 136.894 13.6211Z" fill="#222222"/>
<path id="Fill-50" fill-rule="evenodd" clip-rule="evenodd" d="M180.133 26.7102V26.7796C180.133 27.569 179.502 28.2192 178.72 28.2192H170.718C169.942 28.2192 169.308 27.569 169.308 26.7623V18.6353C169.308 17.8663 169.942 17.222 170.718 17.222H178.72C179.502 17.222 180.133 17.8663 180.133 18.6526V23.7331V26.7102ZM178.72 13.6211H170.718C167.99 13.6211 165.773 15.8998 165.773 18.67V26.7971C165.773 29.5671 167.99 31.8173 170.718 31.8173H178.72C181.455 31.8173 183.67 29.5671 183.67 26.7971V26.7274V23.7504V18.67C183.67 15.8998 181.455 13.6211 178.72 13.6211Z" fill="#222222"/>
<path id="Fill-51" fill-rule="evenodd" clip-rule="evenodd" d="M149.956 28.2485C149.177 28.2485 148.531 27.5079 148.531 26.7157V20.882H154.558V17.1978H148.531V13.6095C148.531 13.603 148.537 13.6145 148.537 13.6055H145V13.6095V26.7677C145 29.5409 147.213 31.8399 149.942 31.8399H156.069V28.2485H149.956Z" fill="#222222"/>
<path id="Fill-52" fill-rule="evenodd" clip-rule="evenodd" d="M159.098 31.8278H162.715V13.6211H159.098V31.8278Z" fill="#222222"/>
<path id="Fill-53" fill-rule="evenodd" clip-rule="evenodd" d="M115.962 13.6211H115.606H111.894H111.54C110.349 13.6211 109.257 14.0656 108.413 14.795C107.563 14.0656 106.475 13.6211 105.281 13.6211H104.925H101.201H100.845C98.1501 13.6211 95.9688 15.9068 95.9688 18.6811V31.8039H99.4554V18.6811C99.4554 17.8882 100.074 17.2264 100.845 17.2264H101.201H104.925H105.281C106.034 17.2264 106.642 17.861 106.671 18.6297C106.671 18.6478 106.668 18.6627 106.668 18.6811V28.2622H106.674H110.147H110.159V18.6811C110.159 18.6627 110.15 18.6478 110.15 18.6297C110.18 17.861 110.784 17.2264 111.54 17.2264H111.894H115.606H115.962C116.727 17.2264 117.352 17.8882 117.352 18.6811V31.8039H120.833V18.6811C120.833 15.9068 118.652 13.6211 115.962 13.6211Z" fill="#222222"/>
</g>
</g>
</svg>
