<svg width="1440" height="802" viewBox="0 0 1440 802" fill="none" xmlns="http://www.w3.org/2000/svg">
<path d="M1023.1 756.663L803.305 882.636L777.421 740.297L773.937 721.103C767.367 684.986 737.441 657.728 700.866 654.543L669.009 651.775L634.066 524.786V471.486L865.147 463.024L907.317 461.491L925.555 584.259L1023.1 756.663Z" fill="white" stroke="black" stroke-width="12" stroke-miterlimit="10"/>
<path d="M843.905 541.331V630.53H759.883V541.331C759.883 541.331 759.883 503.362 801.894 503.362C843.905 503.362 843.905 541.331 843.905 541.331Z" fill="black" stroke="black" stroke-width="8" stroke-miterlimit="10"/>
<path d="M912.592 684.628H851.984V767.057H912.592V684.628Z" fill="black" stroke="black" stroke-width="8" stroke-miterlimit="10"/>
<path d="M1459.5 517L1475.5 543L1451 787.5L1023.1 756.661L925.557 584.257L907.319 461.489L865.148 463.022V383.42C865.148 383.42 1239.4 377.806 1430.56 507.741L1459.5 517Z" fill="white" stroke="black" stroke-width="12" stroke-miterlimit="10"/>
<path d="M1067.76 731.057V637.717C1067.76 637.717 1067.76 587.662 1115.03 587.662C1162.29 587.662 1162.29 637.717 1162.29 637.717V731.057" fill="black"/>
<path d="M1067.76 731.057V637.717C1067.76 637.717 1067.76 587.662 1115.03 587.662C1162.29 587.662 1162.29 637.717 1162.29 637.717V731.057" stroke="black" stroke-width="8" stroke-miterlimit="10"/>
<path d="M1259 747V653.917C1259 653.917 1259 604 1298.5 604C1338 604 1338 653.917 1338 653.917V747" fill="black"/>
<path d="M1259 747V653.917C1259 653.917 1259 604 1298.5 604C1338 604 1338 653.917 1338 653.917V747" stroke="black" stroke-width="8" stroke-miterlimit="10"/>
<path d="M1414 763V669.917C1414 669.917 1414 620 1453.5 620C1493 620 1493 669.917 1493 669.917V763" fill="black"/>
<path d="M1414 763V669.917C1414 669.917 1414 620 1453.5 620C1493 620 1493 669.917 1493 669.917V763" stroke="black" stroke-width="8" stroke-miterlimit="10"/>
<path d="M990.184 447.076L1058.06 452.452V512.522H990.184V447.076Z" fill="black" stroke="black" stroke-width="8" stroke-miterlimit="10"/>
<path d="M1220.47 477.16L1155.02 464.02V519.171L1220.47 527.056V477.16Z" fill="black" stroke="black" stroke-width="8" stroke-miterlimit="10"/>
<path d="M1346 515.381L1299 506V545.371L1346 551V515.381Z" fill="black" stroke="black" stroke-width="8" stroke-miterlimit="10"/>
<path d="M466.248 224.715C378.921 236.88 116.5 328.5 -20.5 469.5V341C57 206 335.457 80.1055 392.839 68C450.519 161.221 466.248 224.715 466.248 224.715Z" fill="white" stroke="black" stroke-width="12" stroke-miterlimit="10"/>
<path d="M634.066 444.327V485.362C558.048 480.763 104.775 580.061 -52 651.5L-209.5 609.5L-140.5 518.5L-28 491.5L-13 457C127.709 333.173 378.914 236.88 466.241 224.715H466.261L490.512 220.414C497.839 219.12 505.286 221.888 509.984 227.662C513.31 231.743 514.942 236.98 514.524 242.256L511.119 284.406C509.208 308.1 511.956 331.913 519.243 354.511L535.589 405.322L592.453 401.161C606.211 400.146 619.412 406.855 626.699 418.563C631.518 426.288 634.066 435.208 634.066 444.327Z" fill="white" stroke="black" stroke-width="12" stroke-miterlimit="10"/>
<path d="M777.423 740.294C777.423 740.294 78.6944 755.483 -47 769.5L-30 636.5C292.5 485.361 558.05 480.762 634.068 485.361V524.784L669.011 651.772L700.867 654.54C737.443 657.725 767.368 684.983 773.939 721.1L777.423 740.294Z" fill="white" stroke="black" stroke-width="12" stroke-miterlimit="10"/>
<path d="M803.306 882.635L733.102 922.874L727.168 926.279L721.215 922.874L417.402 748.738C543.097 734.721 777.422 740.295 777.422 740.295L803.306 882.635Z" fill="white" stroke="black" stroke-width="12" stroke-miterlimit="10"/>
<path d="M501.766 593.138V684.129L591.661 679.709V590.928C591.661 590.928 591.661 538.206 546.166 542.088C502.92 545.772 501.766 593.138 501.766 593.138Z" fill="black" stroke="black" stroke-width="8" stroke-miterlimit="10"/>
<path d="M614.216 861.53V842.277C614.216 842.277 607.805 788.678 660.826 788.678C713.847 788.678 706.839 842.277 706.839 842.277L707.377 914.93" fill="black"/>
<path d="M614.216 861.53V842.277C614.216 842.277 607.805 788.678 660.826 788.678C713.847 788.678 706.839 842.277 706.839 842.277L707.377 914.93" stroke="black" stroke-width="8" stroke-miterlimit="10"/>
<path d="M359.906 697.506L438.154 689.741L437.577 597.078C437.577 597.078 440.922 561.021 408.169 561.021C359.906 561.021 361.559 607.631 361.559 607.631L359.906 697.526V697.506Z" fill="black" stroke="black" stroke-width="8" stroke-miterlimit="10"/>
<path d="M223 715.981L299 708.472L298.439 618.868C298.439 618.868 301.688 584 269.876 584C223 584 224.605 629.072 224.605 629.072L223 716V715.981Z" fill="black" stroke="black" stroke-width="8" stroke-miterlimit="10"/>
<path d="M104 735.982L173 729.099L172.491 646.962C172.491 646.962 175.44 615 146.559 615C104 615 105.457 656.316 105.457 656.316L104 736V735.982Z" fill="black" stroke="black" stroke-width="8" stroke-miterlimit="10"/>
<path d="M-9 769.982L60 763.099L59.4908 680.962C59.4908 680.962 62.4405 649 33.5588 649C-8.99999 649 -7.54274 690.316 -7.54274 690.316L-9 770V769.982Z" fill="black" stroke="black" stroke-width="8" stroke-miterlimit="10"/>
<path d="M457.303 420.314L390.305 432.559V353.913C390.305 353.913 390.305 310.807 425.845 310.807C464.292 310.807 460.21 341.688 460.21 341.688L457.303 420.334V420.314Z" fill="black" stroke="black" stroke-width="8" stroke-miterlimit="10"/>
<path d="M348.356 439.55L286.594 456.454L289.501 381.292C289.501 381.292 291.253 341.093 320.959 341.093C350.665 341.093 348.933 369.644 348.933 369.644L348.356 439.55Z" fill="black" stroke="black" stroke-width="8" stroke-miterlimit="10"/>
<path d="M238.224 466.926L181.719 486.139L185.964 416.37C185.964 416.37 189.741 386.393 218 378.501C246.259 370.608 242.47 410.537 242.47 410.537L238.224 466.906V466.926Z" fill="black" stroke="black" stroke-width="8" stroke-miterlimit="10"/>
<path d="M101.919 451.771L99.0117 515.863L139.211 497.804L140.963 445.958C140.963 445.958 138.654 423.453 122.327 428.476C106 433.5 101.939 451.771 101.939 451.771H101.919Z" fill="black" stroke="black" stroke-width="8" stroke-miterlimit="10"/>
<path d="M28.905 488.026L26.6014 547.441L66.498 529L67.9493 482.213C67.9493 482.213 65.64 459.708 49.3132 464.731C32.9864 469.755 28.9249 488.026 28.9249 488.026H28.905Z" fill="black" stroke="black" stroke-width="8" stroke-miterlimit="10"/>
<path d="M733.698 234.294L641.332 184.61L733.698 311.08L826.063 184.61L733.698 234.294Z" fill="white" stroke="black" stroke-width="9"/>
<path d="M733.696 213.78L833.393 160.157L733.696 9L634 160.157L733.696 213.78Z" fill="white" stroke="black" stroke-width="9"/>
</svg>
