<svg width="499" height="412" viewBox="0 0 499 412" fill="none" xmlns="http://www.w3.org/2000/svg">
<g clip-path="url(#clip0_345_428)">
<path fill-rule="evenodd" clip-rule="evenodd" d="M260.925 113.625H439.461L439.381 113.705C446.059 113.705 451.449 108.302 451.449 101.609C451.449 56.9333 426.749 40.9661 403.818 40.8855H397.382C391.991 17.4993 371.152 0 346.13 0C321.108 0 300.108 17.6606 294.798 41.1274C279.189 41.45 265.27 48.1433 256.5 59.5138C247.328 71.3682 244.753 87.3353 249.259 104.593C250.626 109.915 255.454 113.625 260.925 113.625ZM426.427 89.432H271.224C270.982 83.4645 272.511 78.3034 275.568 74.2713C279.913 68.6263 287.557 65.2394 296.085 65.2394L334.142 64.8362L333.9 40.6436L320.222 40.8049C324.728 31.0472 334.705 24.1926 346.13 24.1926C361.819 24.1926 374.612 37.0147 374.612 52.7399C374.612 59.3525 379.842 64.7555 386.439 64.8362L403.657 65.1587C418.783 65.1587 424.496 77.497 426.427 89.432ZM318.533 412H12.0686C8.60888 412 5.39056 410.548 3.05728 407.968C0.804462 405.387 -0.321949 402 0.0803403 398.613L28.9647 130.801C32.2635 81.5289 87.0554 39.3531 171.938 21.2087C178.375 19.8377 184.651 23.8698 186.179 30.2406L223.19 186.283H224.103C231.708 186.068 239.504 185.96 247.489 185.96V186.283C253.247 186.322 258.195 190.503 259.316 196.202L272.269 266.925H291.74C297.372 266.925 302.28 270.876 303.487 276.36L330.36 397.323C331.165 400.871 330.36 404.661 328.027 407.484C325.774 410.387 322.234 412 318.613 412H318.533ZM124.87 197.387C132.548 195.669 140.595 194.143 149.008 192.809V153.945H173.145V189.619C181.321 188.739 189.788 188.017 198.546 187.453L182.205 118.579C133.715 125.384 60.2415 157.41 46.3232 193.46L41.9771 233.722C56.6896 221.404 76.3414 211.401 100.733 203.792V178.138H124.87V197.387ZM36.8172 281.523C50.646 238.734 119.763 213.119 227.922 210.395H237.19L247.484 266.597C241.678 266.539 235.656 266.522 229.466 266.559V226.524H205.328V266.981C194.807 267.291 184.011 267.781 173.145 268.504V242.652H149.008V270.509C140.888 271.328 132.814 272.298 124.87 273.441V258.78H100.733V277.567C75.1596 282.709 52.0787 290.076 34.7684 300.503L36.8172 281.523ZM262.051 291.037L261.97 291.037V291.037L261.929 291.036C261.827 291.035 261.726 291.033 261.625 291.029C114.898 287.682 46.6592 311.596 30.9745 335.648L25.3441 387.807H25.505H52.459V355.551H76.5964V387.807H100.733V339.422H124.87V387.807H149.008V331.358H173.145V387.807H205.328V323.294H229.466V387.807H303.487L281.924 291.037H262.051ZM51.108 149.135C83.8474 121.078 136.254 100.989 176.601 94.9574L165.341 47.4979C98.9631 64.1102 55.2745 97.0121 52.8607 132.898L51.108 149.135ZM418.064 297.074C445.532 304.265 461.073 315.847 466.833 327.158L472.771 363.615H425.675L418.064 297.074ZM325.21 266.603C332.558 266.146 339.583 265.867 346.3 265.751L337.033 184.731C318.724 183.576 297.616 183.123 273.315 183.541L272.913 159.349C403.255 157.171 467.38 178.541 475.023 226.927L498.919 373.856C499.483 377.324 498.517 380.953 496.184 383.614C493.85 386.356 490.552 387.888 487.012 387.888L486.931 387.808H342.107V363.615H401.38L393.224 292.308C374.826 289.883 352.777 289.107 326.739 290.715L325.21 266.603ZM460.556 288.612C442.685 277.795 414.58 268.08 370.632 266.068L361.573 186.867C429.06 194.561 448.435 213.687 451.127 230.717L460.556 288.612Z" fill="#FFF8E7"/>
</g>
<defs>
<clipPath id="clip0_345_428">
<rect width="499" height="412" fill="white"/>
</clipPath>
</defs>
</svg>
