<svg width="1199" height="1229" viewBox="0 0 1199 1229" fill="none" xmlns="http://www.w3.org/2000/svg">
<path d="M408.709 539.514C408.769 538.231 408.84 531.104 403.836 525.811C400.513 522.302 395.87 520.528 390.046 520.528C374.715 520.528 369.961 536.687 369.581 545.247L367.84 589.674L408.369 578.638L408.699 539.504L408.709 539.514Z" fill="white"/>
<path d="M300.69 579.039C300.76 577.986 300.851 573.856 297.848 570.338C295.427 567.501 291.824 565.927 287.131 565.656C283.358 565.446 280.005 566.559 277.453 568.904C272.6 573.345 272.2 580.612 272.17 581.655L270.348 621.4L299.7 608.289L300.69 579.029V579.039Z" fill="white"/>
<path d="M351.217 592.581V589.754L353.019 558.189C353.309 556.374 354.25 548.295 349.376 542.491C347.294 540.015 343.332 537.068 336.196 537.068C320.635 537.068 315.812 552.435 315.421 560.544L313.32 605.392L348.415 593.523L351.217 592.571V592.581Z" fill="white"/>
<path d="M733.437 617.28H776.959V578.347L733.437 574.909V617.28Z" fill="white"/>
<path d="M466.482 525.23C466.622 523.806 466.982 516.94 462.168 511.477C458.316 507.096 452.371 504.881 444.506 504.871C426.643 504.871 421.919 522.132 421.919 531.254V576.813L464.85 569.015L466.482 525.23Z" fill="white"/>
<path d="M665.757 628.076C665.757 619.867 660.333 604.349 639.808 604.349C619.283 604.349 613.859 619.867 613.859 628.076V678.267H665.767V628.076H665.757Z" fill="white"/>
<path d="M861.29 591.539L819.039 583.108V620.267L861.29 625.32V591.539Z" fill="white"/>
<path d="M701.433 697.964H661.684V748.766H701.433V697.964Z" fill="white"/>
<path d="M601 0L218 615.666L601 834L984 615.666L601 0ZM921.094 568.072L909.636 564.684L660.584 383.44L665.237 376.914L915.4 558.971L921.094 568.072ZM601 418.794L550.843 348.957L601 376.393L651.157 348.957L601 418.794ZM605.003 445.438V567.12H596.997V445.438C598.318 445.619 599.649 445.719 601.01 445.719C602.371 445.719 603.692 445.619 605.003 445.438ZM536.773 376.904L541.426 383.43L481.633 426.944L478.01 419.666L536.773 376.904ZM460.767 384.973L457.155 377.716L522.242 356.535L526.756 362.86L526.946 363.432L460.767 384.973ZM551.134 397.042L556.037 403.919L509.883 467.551L507.111 457.738L551.134 397.042ZM568.706 421.691L574.491 429.811L540.846 533.519L532.39 533.64L568.706 421.691ZM546.86 335.464L601 251.994L655.14 335.464L601 365.086L546.86 335.464ZM633.294 421.701L665.637 521.42H657.221L627.509 429.821L633.294 421.701ZM645.963 403.939L650.866 397.062L743.074 524.187L732.376 523.084L645.963 403.939ZM823.212 411.667L674.884 363.391L679.768 356.545L816.588 401.072L823.212 411.657V411.667ZM777.829 339.143H686.372C686.502 336.457 686.262 333.76 685.652 331.124H772.806L777.829 339.143ZM748.017 291.499L677.106 314.574L672.612 307.608L743.634 284.492L748.017 291.499ZM722.909 251.373L664.006 294.236L659.663 287.489L718.656 244.556L722.919 251.373H722.909ZM696.88 209.773L650.656 273.506L646.003 266.279L692.297 202.445L696.88 209.773ZM657.751 147.243L663.296 156.104L633.734 247.233L628.13 238.542L657.741 147.243H657.751ZM597.017 63.0913L601.02 56.5757L605.023 62.971V221.621C603.702 221.441 602.371 221.341 601.02 221.341C599.669 221.341 598.338 221.441 597.017 221.621V63.0813V63.0913ZM544.629 148.316L573.89 238.532L568.296 247.223L539.115 157.277L544.629 148.316ZM510.614 203.658L556.027 266.269L551.374 273.496L506.071 211.036L510.614 203.648V203.658ZM484.825 245.609L542.367 287.479L538.024 294.226L480.622 252.455L484.835 245.609H484.825ZM460.507 285.174L529.408 307.598L524.914 314.564L456.184 292.191L460.507 285.164V285.174ZM432.267 331.114H516.368C515.758 333.75 515.517 336.447 515.648 339.133H427.343L432.277 331.114H432.267ZM342.371 439.163C358.463 426.413 395.84 398.526 424.441 390.637C444.255 423.195 453.772 448.265 457.495 459.522C416.555 466.549 351.948 488.241 286.45 529.059L342.361 439.163H342.371ZM235.293 611.286L270.899 554.059C345.723 502.244 422.54 476.793 465.931 470.689L479.171 468.373C480.752 468.093 482.373 468.694 483.394 469.937C484.115 470.819 484.465 471.942 484.375 473.085L482.603 494.857C481.533 507.978 483.044 520.969 487.097 533.449L497.084 564.313L531.479 561.817C536.333 561.456 540.956 563.792 543.548 567.912C545.439 570.919 546.43 574.387 546.43 577.946V592.731C497.935 591.799 363.536 605.562 285.349 639.844L235.273 611.286H235.293ZM441.453 728.848L412.963 712.599L455.053 708.449L454.733 656.996C454.833 655.352 455.193 646.029 449.429 639.754C446.007 636.015 441.263 634.121 435.329 634.121C426.623 634.121 419.677 636.727 414.694 641.869C407.008 649.788 406.958 660.895 406.988 662.328L406.128 708.719L382.13 695.047L382.81 664.403C383.011 662.679 383.581 654.52 378.677 648.966C376.736 646.771 373.133 644.155 366.999 644.155H366.899C349.156 644.606 344.462 661.276 344.462 670.027V673.555L298.919 647.583C341.69 630.472 395.96 620.137 435.479 614.343C481.923 607.537 524.524 604.68 546.45 605.101V620.348L565.964 690.887L586.81 692.691C602.971 694.084 616.291 706.153 619.193 722.021L619.644 724.517C592.234 724.056 497.284 722.934 441.473 728.848V728.868L441.453 728.848ZM600.99 819.776L594.826 816.258L594.575 783.719C594.805 781.514 595.726 768.944 587.94 760.123C583.007 754.539 575.812 751.713 566.535 751.713C557.258 751.713 550.043 754.539 545.059 760.123C537.153 768.984 537.994 781.634 538.194 783.719V783.98L460.277 739.563C518.029 735.323 600.76 736.496 621.875 736.887L633.624 801.151H633.634L600.98 819.776H600.99ZM631.362 719.786C627.459 698.455 609.576 682.246 587.85 680.372L575.611 679.309L558.829 618.664V597.924L689.194 593.182L698.021 652.264L746.196 736.967L645.032 794.636L631.352 719.786H631.362ZM802.397 647.884C779.711 647.884 773.716 667.481 773.716 677.856V721.32L756.984 730.853L709.97 648.204L699.842 580.462L678.827 581.224V552.675C712.201 552.916 873.739 557.126 960.903 614.584L831.058 688.601V677.846H831.068C831.068 667.491 825.074 647.884 802.387 647.884H802.397Z" fill="white"/>
<path d="M525.385 630.061C520.531 625.63 514.227 623.716 506.641 624.367C485.966 626.121 480.042 644.997 479.801 654.74V706.153L534.752 703.457V653.678C534.752 653.066 534.651 638.511 525.385 630.061Z" fill="white"/>
<path d="M600.16 820L234 611.615L600.16 24L966.32 611.615L600.16 820Z" fill="#FFFEF5"/>
<path d="M416.331 538.932C416.388 537.707 416.455 530.905 411.671 525.854C408.495 522.505 404.056 520.812 398.488 520.812C383.831 520.812 379.286 536.234 378.923 544.405L377.258 586.807L416.005 576.273L416.321 538.922L416.331 538.932Z" fill="#13080E"/>
<path d="M313.055 576.655C313.122 575.65 313.208 571.708 310.338 568.35C308.023 565.643 304.578 564.141 300.091 563.882C296.484 563.682 293.279 564.743 290.84 566.982C286.2 571.221 285.817 578.157 285.788 579.152L284.047 617.086L312.108 604.572L313.055 576.645V576.655Z" fill="#13080E"/>
<path d="M361.356 589.581V586.883L363.079 556.756C363.356 555.024 364.255 547.313 359.596 541.774C357.606 539.41 353.817 536.598 346.996 536.598C332.119 536.598 327.507 551.264 327.134 559.004L325.125 601.808L358.678 590.481L361.356 589.572V589.581Z" fill="#13080E"/>
<path d="M726.773 613.155H768.382V575.995L726.773 572.714V613.155Z" fill="#13080E"/>
<path d="M471.549 525.298C471.683 523.94 472.027 517.386 467.425 512.172C463.742 507.991 458.059 505.877 450.539 505.867C433.461 505.867 428.945 522.342 428.945 531.048V574.532L469.989 567.088L471.549 525.298Z" fill="#13080E"/>
<path d="M662.069 623.459C662.069 615.624 656.884 600.813 637.261 600.813C617.639 600.813 612.453 615.624 612.453 623.459V671.363H662.079V623.459H662.069Z" fill="#13080E"/>
<path d="M849.01 588.586L808.617 580.54V616.006L849.01 620.828V588.586Z" fill="#13080E"/>
<path d="M696.173 690.162H658.172V738.649H696.173V690.162Z" fill="#13080E"/>
<path d="M600.16 24L234 611.615L600.16 820L966.32 611.615C823.326 382.137 743.154 253.478 600.16 24ZM756.853 457.877L747.516 451.85L657.124 389.969L661.573 383.74L753.026 446.397L756.853 457.877ZM600.16 423.713L552.209 357.057L600.16 383.243L648.111 357.057L600.16 423.713ZM603.987 449.142V565.28H596.333V449.142C597.596 449.315 598.868 449.41 600.17 449.41C601.471 449.41 602.734 449.315 603.987 449.142ZM538.757 383.731L543.206 389.959L486.041 431.491L482.578 424.545L538.757 383.731ZM466.093 391.432L462.64 384.506L524.865 364.29L529.18 370.327L529.362 370.872L466.093 391.432ZM552.486 402.952L557.174 409.515L513.05 470.248L510.4 460.882L552.486 402.952ZM569.286 426.478L574.816 434.227L542.651 533.21L534.567 533.325L569.286 426.478ZM548.401 344.18L600.16 264.513L651.919 344.18L600.16 372.451L548.401 344.18ZM631.034 426.487L661.955 521.663H653.909L625.504 434.237L631.034 426.487ZM643.146 409.534L647.834 402.971L735.987 524.303L725.76 523.251L643.146 409.534ZM812.602 416.91L670.795 370.834L675.464 364.3L806.269 406.798L812.602 416.901V416.91ZM769.214 347.691H681.779C681.903 345.127 681.673 342.553 681.09 340.037H764.412L769.214 347.691ZM740.713 302.217L672.919 324.241L668.624 317.592L736.523 295.53L740.713 302.217ZM716.709 263.919L660.396 304.829L656.244 298.39L712.643 257.414L716.719 263.919H716.709ZM691.824 224.215L647.633 285.044L643.184 278.146L687.443 217.221L691.824 224.215ZM654.416 164.534L659.716 172.992L631.455 259.968L626.097 251.673L654.407 164.534H654.416ZM596.352 84.2166L600.179 77.9979L604.006 84.1018V235.524C602.743 235.351 601.471 235.256 600.179 235.256C598.888 235.256 597.615 235.351 596.352 235.524V84.2071V84.2166ZM546.267 165.558L574.242 251.664L568.894 259.958L540.996 174.111L546.267 165.558ZM513.748 218.379L557.165 278.136L552.716 285.034L509.405 225.421L513.748 218.369V218.379ZM489.093 258.418L544.105 298.381L539.953 304.82L485.075 264.953L489.103 258.418H489.093ZM465.845 296.18L531.715 317.582L527.42 324.232L461.712 302.877L465.845 296.171V296.18ZM438.846 340.027H519.249C518.666 342.544 518.436 345.117 518.56 347.681H434.139L438.855 340.027H438.846ZM352.903 443.153C368.287 430.984 404.021 404.367 431.364 396.838C450.307 427.913 459.406 451.84 462.965 462.585C423.825 469.291 362.058 489.995 299.44 528.953L352.893 443.153H352.903ZM250.532 607.434L284.573 552.814C356.108 503.36 429.546 479.069 471.03 473.242L483.688 471.032C485.199 470.765 486.749 471.339 487.725 472.525C488.414 473.367 488.749 474.438 488.663 475.529L486.969 496.309C485.945 508.833 487.39 521.232 491.265 533.143L500.813 562.601L533.696 560.219C538.336 559.874 542.756 562.104 545.234 566.036C547.042 568.906 547.989 572.216 547.989 575.613V589.724C501.626 588.835 373.137 601.971 298.388 634.691L250.513 607.434H250.532ZM447.628 719.639L420.39 704.13L460.63 700.169L460.324 651.06C460.42 649.491 460.764 640.594 455.254 634.605C451.982 631.036 447.447 629.228 441.773 629.228C433.45 629.228 426.81 631.715 422.045 636.623C414.698 644.182 414.65 654.782 414.679 656.15L413.856 700.428L390.913 687.378L391.564 658.131C391.755 656.485 392.301 648.697 387.613 643.397C385.757 641.302 382.312 638.805 376.448 638.805H376.352C359.389 639.235 354.902 655.146 354.902 663.498V666.866L311.361 642.077C352.252 625.745 404.135 615.881 441.917 610.352C486.319 603.855 527.047 601.129 548.009 601.531V616.082L566.665 683.408L586.594 685.13C602.045 686.459 614.779 697.979 617.553 713.124L617.984 715.506C591.779 715.066 501.004 713.994 447.648 719.639V719.658L447.628 719.639ZM600.15 806.424L594.257 803.066L594.018 772.01C594.238 769.906 595.118 757.908 587.675 749.489C582.958 744.16 576.079 741.462 567.21 741.462C558.341 741.462 551.443 744.16 546.679 749.489C539.121 757.946 539.924 770.02 540.116 772.01V772.259L465.625 729.866C520.837 725.819 599.93 726.939 620.117 727.312L631.349 788.648H631.359L600.141 806.424H600.15ZM629.187 710.99C625.456 690.631 608.359 675.161 587.589 673.371L575.888 672.357L559.843 614.475V594.68L684.477 590.155L692.915 646.545L738.972 727.388L642.256 782.429L629.178 710.99H629.187ZM792.702 642.364C771.013 642.364 765.282 661.068 765.282 670.97V712.454L749.286 721.552L704.338 642.67L694.656 578.014L674.565 578.741V551.493C706.472 551.723 860.907 555.741 944.239 610.581L820.103 681.226V670.96H820.112C820.112 661.077 814.382 642.364 792.692 642.364H792.702Z" fill="#13080E"/>
<path d="M527.868 625.354C523.228 621.125 517.201 619.297 509.949 619.919C490.183 621.594 484.519 639.609 484.289 648.908V697.979L536.823 695.405V647.894C536.823 647.31 536.727 633.419 527.868 625.354Z" fill="#13080E"/>
<path d="M20.52 1090V901H51.57V1090H20.52ZM41.85 1090V1061.65H147.69V1090H41.85ZM41.85 1007.11V979.84H138.51V1007.11H41.85ZM41.85 929.35V901H146.34V929.35H41.85ZM221.898 1090V906.4H252.948V1090H221.898ZM160.338 929.35V901H314.508V929.35H160.338ZM330.746 1090V901H361.796V1090H330.746ZM450.896 1090V901H481.946V1090H450.896ZM352.076 1006.3V977.95H457.646V1006.3H352.076Z" fill="white"/>
<path d="M576.85 1009.81V984.16H624.64C634.18 984.16 641.56 981.73 646.78 976.87C652.18 971.83 654.88 964.9 654.88 956.08C654.88 948.16 652.27 941.5 647.05 936.1C641.83 930.7 634.45 928 624.91 928H576.85V901H626.26C638.14 901 648.58 903.43 657.58 908.29C666.58 912.97 673.51 919.45 678.37 927.73C683.41 935.83 685.93 945.1 685.93 955.54C685.93 966.52 683.41 976.06 678.37 984.16C673.51 992.26 666.58 998.56 657.58 1003.06C648.58 1007.56 638.14 1009.81 626.26 1009.81H576.85ZM555.52 1090V901H586.57V1090H555.52ZM659.2 1090L593.05 1007.92L621.94 997.39L698.35 1090H659.2ZM758.811 1092.7C746.211 1092.7 734.781 1089.73 724.521 1083.79C714.261 1077.67 706.071 1069.48 699.951 1059.22C694.011 1048.96 691.041 1037.53 691.041 1024.93C691.041 1012.33 694.011 1000.99 699.951 990.91C706.071 980.83 714.261 972.82 724.521 966.88C734.781 960.76 746.211 957.7 758.811 957.7C771.591 957.7 783.111 960.67 793.371 966.61C803.631 972.55 811.731 980.65 817.671 990.91C823.791 1000.99 826.851 1012.33 826.851 1024.93C826.851 1037.53 823.791 1048.96 817.671 1059.22C811.731 1069.48 803.631 1077.67 793.371 1083.79C783.111 1089.73 771.591 1092.7 758.811 1092.7ZM758.811 1064.08C766.191 1064.08 772.671 1062.46 778.251 1059.22C784.011 1055.8 788.421 1051.12 791.481 1045.18C794.721 1039.24 796.341 1032.49 796.341 1024.93C796.341 1017.37 794.721 1010.71 791.481 1004.95C788.241 999.19 783.831 994.69 778.251 991.45C772.671 988.03 766.191 986.32 758.811 986.32C751.611 986.32 745.131 988.03 739.371 991.45C733.791 994.69 729.381 999.19 726.141 1004.95C723.081 1010.71 721.551 1017.37 721.551 1024.93C721.551 1032.49 723.081 1039.24 726.141 1045.18C729.381 1051.12 733.791 1055.8 739.371 1059.22C745.131 1062.46 751.611 1064.08 758.811 1064.08ZM842.91 1090V1014.67C842.91 1003.51 845.34 993.7 850.2 985.24C855.06 976.6 861.81 969.85 870.45 964.99C879.09 960.13 889.08 957.7 900.42 957.7C911.58 957.7 921.12 960.22 929.04 965.26C937.14 970.12 943.35 976.78 947.67 985.24H938.49C942.81 976.78 948.93 970.12 956.85 965.26C964.95 960.22 974.58 957.7 985.74 957.7C997.26 957.7 1007.25 960.13 1015.71 964.99C1024.35 969.85 1031.1 976.6 1035.96 985.24C1040.82 993.7 1043.25 1003.51 1043.25 1014.67V1090H1013.55V1018.72C1013.55 1008.28 1011.12 1000.27 1006.26 994.69C1001.58 989.11 994.74 986.32 985.74 986.32C976.56 986.32 969.63 989.11 964.95 994.69C960.27 1000.09 957.93 1008.1 957.93 1018.72V1090H928.23V1018.72C928.23 1008.1 925.89 1000.09 921.21 994.69C916.53 989.11 909.6 986.32 900.42 986.32C891.42 986.32 884.49 989.11 879.63 994.69C874.95 1000.09 872.61 1008.1 872.61 1018.72V1090H842.91ZM1127.72 1092.7C1114.76 1092.7 1103.06 1089.82 1092.62 1084.06C1082.36 1078.12 1074.17 1070.02 1068.05 1059.76C1062.11 1049.5 1059.14 1037.98 1059.14 1025.2C1059.14 1012.42 1062.11 1000.99 1068.05 990.91C1073.99 980.65 1082 972.55 1092.08 966.61C1102.34 960.67 1113.68 957.7 1126.1 957.7C1138.16 957.7 1148.78 960.49 1157.96 966.07C1167.32 971.65 1174.61 979.3 1179.83 989.02C1185.23 998.74 1187.93 1009.81 1187.93 1022.23C1187.93 1024.39 1187.75 1026.64 1187.39 1028.98C1187.21 1031.14 1186.85 1033.57 1186.31 1036.27H1079.93V1011.97H1170.92L1159.85 1021.69C1159.49 1013.77 1157.96 1007.11 1155.26 1001.71C1152.56 996.31 1148.69 992.17 1143.65 989.29C1138.79 986.41 1132.76 984.97 1125.56 984.97C1118 984.97 1111.43 986.59 1105.85 989.83C1100.27 993.07 1095.95 997.66 1092.89 1003.6C1089.83 1009.36 1088.3 1016.29 1088.3 1024.39C1088.3 1032.49 1089.92 1039.6 1093.16 1045.72C1096.4 1051.84 1100.99 1056.61 1106.93 1060.03C1112.87 1063.27 1119.71 1064.89 1127.45 1064.89C1134.11 1064.89 1140.23 1063.72 1145.81 1061.38C1151.57 1059.04 1156.43 1055.62 1160.39 1051.12L1179.29 1070.29C1172.99 1077.67 1165.34 1083.25 1156.34 1087.03C1147.34 1090.81 1137.8 1092.7 1127.72 1092.7Z" fill="white"/>
<path d="M17.232 1209V1156.26H24.376V1209H17.232ZM51.28 1209V1156.26H58.424V1209H51.28ZM22.096 1184.98V1178.45H53.028V1184.98H22.096ZM85.0282 1209.76C81.7348 1209.76 78.7455 1208.95 76.0602 1207.33C73.3748 1205.66 71.2468 1203.4 69.6762 1200.56C68.1562 1197.73 67.3962 1194.53 67.3962 1190.99C67.3962 1187.44 68.1562 1184.25 69.6762 1181.41C71.2468 1178.57 73.3495 1176.32 75.9842 1174.65C78.6695 1172.98 81.6842 1172.14 85.0282 1172.14C87.7642 1172.14 90.1962 1172.72 92.3242 1173.89C94.5028 1175 96.2508 1176.57 97.5682 1178.6C98.8855 1180.58 99.6202 1182.88 99.7722 1185.52V1196.38C99.6202 1198.97 98.8855 1201.27 97.5682 1203.3C96.3015 1205.33 94.5788 1206.92 92.4002 1208.09C90.2722 1209.2 87.8148 1209.76 85.0282 1209.76ZM86.1682 1203.3C89.5628 1203.3 92.2988 1202.16 94.3762 1199.88C96.4535 1197.55 97.4922 1194.59 97.4922 1190.99C97.4922 1188.51 97.0108 1186.35 96.0482 1184.53C95.1362 1182.65 93.8188 1181.21 92.0962 1180.2C90.3735 1179.13 88.3722 1178.6 86.0922 1178.6C83.8122 1178.6 81.7855 1179.13 80.0122 1180.2C78.2895 1181.26 76.9215 1182.73 75.9082 1184.6C74.9455 1186.43 74.4642 1188.53 74.4642 1190.91C74.4642 1193.34 74.9455 1195.5 75.9082 1197.37C76.9215 1199.2 78.3148 1200.64 80.0882 1201.7C81.8615 1202.77 83.8882 1203.3 86.1682 1203.3ZM97.0362 1209V1199.27L98.3282 1190.46L97.0362 1181.72V1172.9H103.952V1209H97.0362ZM130.403 1209.76C126.856 1209.76 123.639 1208.92 120.751 1207.25C117.913 1205.58 115.659 1203.33 113.987 1200.49C112.365 1197.6 111.555 1194.41 111.555 1190.91C111.555 1187.37 112.365 1184.17 113.987 1181.34C115.659 1178.5 117.913 1176.27 120.751 1174.65C123.639 1172.98 126.856 1172.14 130.403 1172.14C133.189 1172.14 135.773 1172.67 138.155 1173.74C140.536 1174.75 142.588 1176.24 144.311 1178.22L139.751 1182.78C138.636 1181.46 137.268 1180.47 135.647 1179.82C134.076 1179.11 132.328 1178.75 130.403 1178.75C128.123 1178.75 126.096 1179.28 124.323 1180.35C122.549 1181.36 121.156 1182.78 120.143 1184.6C119.129 1186.43 118.623 1188.53 118.623 1190.91C118.623 1193.29 119.129 1195.4 120.143 1197.22C121.156 1199.04 122.549 1200.49 124.323 1201.55C126.096 1202.62 128.123 1203.15 130.403 1203.15C132.328 1203.15 134.076 1202.82 135.647 1202.16C137.268 1201.45 138.661 1200.44 139.827 1199.12L144.311 1203.68C142.639 1205.61 140.587 1207.1 138.155 1208.16C135.773 1209.23 133.189 1209.76 130.403 1209.76ZM174.198 1209L157.326 1190.53L174.046 1172.9H182.33L163.71 1192.36L164.014 1188.4L183.014 1209H174.198ZM151.094 1209V1154.74H157.934V1209H151.094ZM187.686 1209V1172.9H194.526V1209H187.686ZM191.106 1165.68C189.839 1165.68 188.8 1165.27 187.99 1164.46C187.179 1163.6 186.774 1162.54 186.774 1161.27C186.774 1160.06 187.179 1159.04 187.99 1158.23C188.8 1157.37 189.839 1156.94 191.106 1156.94C192.372 1156.94 193.411 1157.37 194.222 1158.23C195.032 1159.04 195.438 1160.06 195.438 1161.27C195.438 1162.54 195.032 1163.6 194.222 1164.46C193.411 1165.27 192.372 1165.68 191.106 1165.68ZM230.142 1209V1187.95C230.142 1185.21 229.281 1182.96 227.558 1181.18C225.835 1179.41 223.606 1178.52 220.87 1178.52C219.046 1178.52 217.425 1178.93 216.006 1179.74C214.587 1180.55 213.473 1181.67 212.662 1183.08C211.851 1184.5 211.446 1186.12 211.446 1187.95L208.634 1186.35C208.634 1183.62 209.242 1181.18 210.458 1179.06C211.674 1176.93 213.371 1175.26 215.55 1174.04C217.729 1172.77 220.186 1172.14 222.922 1172.14C225.658 1172.14 228.065 1172.82 230.142 1174.19C232.27 1175.56 233.942 1177.36 235.158 1179.59C236.374 1181.77 236.982 1184.1 236.982 1186.58V1209H230.142ZM204.606 1209V1172.9H211.446V1209H204.606ZM261.215 1224.88C257.516 1224.88 254.223 1224.2 251.335 1222.83C248.497 1221.46 246.217 1219.54 244.495 1217.06L248.903 1212.57C250.372 1214.45 252.12 1215.87 254.147 1216.83C256.173 1217.84 258.58 1218.35 261.367 1218.35C265.065 1218.35 267.979 1217.36 270.107 1215.38C272.285 1213.46 273.375 1210.85 273.375 1207.56V1198.59L274.591 1190.46L273.375 1182.4V1172.9H280.215V1207.56C280.215 1211 279.404 1214.02 277.783 1216.6C276.212 1219.18 273.983 1221.21 271.095 1222.68C268.257 1224.15 264.964 1224.88 261.215 1224.88ZM261.215 1208.39C257.921 1208.39 254.957 1207.61 252.323 1206.04C249.739 1204.47 247.687 1202.31 246.167 1199.58C244.647 1196.79 243.887 1193.67 243.887 1190.23C243.887 1186.78 244.647 1183.72 246.167 1181.03C247.687 1178.3 249.739 1176.14 252.323 1174.57C254.957 1172.95 257.921 1172.14 261.215 1172.14C264.052 1172.14 266.56 1172.7 268.739 1173.81C270.917 1174.93 272.64 1176.5 273.907 1178.52C275.224 1180.5 275.933 1182.83 276.035 1185.52V1195.09C275.883 1197.73 275.148 1200.06 273.831 1202.08C272.564 1204.06 270.841 1205.61 268.663 1206.72C266.484 1207.83 264.001 1208.39 261.215 1208.39ZM262.583 1201.93C264.812 1201.93 266.763 1201.45 268.435 1200.49C270.157 1199.53 271.475 1198.18 272.387 1196.46C273.299 1194.69 273.755 1192.63 273.755 1190.3C273.755 1187.97 273.273 1185.95 272.311 1184.22C271.399 1182.45 270.107 1181.08 268.435 1180.12C266.763 1179.11 264.787 1178.6 262.507 1178.6C260.227 1178.6 258.225 1179.11 256.503 1180.12C254.78 1181.08 253.412 1182.45 252.399 1184.22C251.436 1185.95 250.955 1187.95 250.955 1190.23C250.955 1192.51 251.436 1194.53 252.399 1196.31C253.412 1198.08 254.78 1199.47 256.503 1200.49C258.276 1201.45 260.303 1201.93 262.583 1201.93ZM331.599 1209V1187.95C331.599 1185.21 330.738 1182.96 329.015 1181.18C327.292 1179.41 325.063 1178.52 322.327 1178.52C320.503 1178.52 318.882 1178.93 317.463 1179.74C316.044 1180.55 314.93 1181.67 314.119 1183.08C313.308 1184.5 312.903 1186.12 312.903 1187.95L310.091 1186.35C310.091 1183.62 310.699 1181.18 311.915 1179.06C313.131 1176.93 314.828 1175.26 317.007 1174.04C319.186 1172.77 321.643 1172.14 324.379 1172.14C327.115 1172.14 329.522 1172.75 331.599 1173.96C333.727 1175.18 335.399 1176.88 336.615 1179.06C337.831 1181.23 338.439 1183.74 338.439 1186.58V1209H331.599ZM306.063 1209V1154.74H312.903V1209H306.063ZM347.776 1209V1172.9H354.616V1209H347.776ZM351.196 1165.68C349.929 1165.68 348.89 1165.27 348.08 1164.46C347.269 1163.6 346.864 1162.54 346.864 1161.27C346.864 1160.06 347.269 1159.04 348.08 1158.23C348.89 1157.37 349.929 1156.94 351.196 1156.94C352.462 1156.94 353.501 1157.37 354.312 1158.23C355.122 1159.04 355.528 1160.06 355.528 1161.27C355.528 1162.54 355.122 1163.6 354.312 1164.46C353.501 1165.27 352.462 1165.68 351.196 1165.68ZM376.172 1209.76C374.145 1209.76 372.22 1209.51 370.396 1209C368.622 1208.44 366.976 1207.68 365.456 1206.72C363.936 1205.71 362.618 1204.52 361.504 1203.15L365.912 1198.74C367.229 1200.36 368.749 1201.58 370.472 1202.39C372.194 1203.15 374.12 1203.53 376.248 1203.53C378.376 1203.53 380.022 1203.17 381.188 1202.46C382.353 1201.7 382.936 1200.67 382.936 1199.35C382.936 1198.03 382.454 1197.02 381.492 1196.31C380.58 1195.55 379.389 1194.94 377.92 1194.48C376.45 1193.98 374.88 1193.5 373.208 1193.04C371.586 1192.53 370.041 1191.9 368.572 1191.14C367.102 1190.38 365.886 1189.34 364.924 1188.02C364.012 1186.71 363.556 1184.96 363.556 1182.78C363.556 1180.6 364.088 1178.73 365.152 1177.16C366.216 1175.53 367.685 1174.29 369.56 1173.43C371.485 1172.57 373.79 1172.14 376.476 1172.14C379.313 1172.14 381.821 1172.65 384 1173.66C386.229 1174.62 388.053 1176.09 389.472 1178.07L385.064 1182.48C384.05 1181.16 382.784 1180.15 381.264 1179.44C379.794 1178.73 378.122 1178.37 376.248 1178.37C374.272 1178.37 372.752 1178.73 371.688 1179.44C370.674 1180.09 370.168 1181.03 370.168 1182.25C370.168 1183.46 370.624 1184.4 371.536 1185.06C372.448 1185.72 373.638 1186.28 375.108 1186.73C376.628 1187.19 378.198 1187.67 379.82 1188.18C381.441 1188.63 382.986 1189.27 384.456 1190.08C385.925 1190.89 387.116 1191.98 388.028 1193.34C388.99 1194.71 389.472 1196.51 389.472 1198.74C389.472 1202.13 388.256 1204.82 385.824 1206.8C383.442 1208.77 380.225 1209.76 376.172 1209.76ZM402.677 1209V1157.78H409.517V1209H402.677ZM393.785 1179.13V1172.9H418.409V1179.13H393.785ZM440.488 1209.76C436.942 1209.76 433.75 1208.92 430.912 1207.25C428.075 1205.58 425.82 1203.33 424.148 1200.49C422.476 1197.6 421.64 1194.38 421.64 1190.84C421.64 1187.34 422.476 1184.2 424.148 1181.41C425.82 1178.57 428.075 1176.32 430.912 1174.65C433.75 1172.98 436.942 1172.14 440.488 1172.14C443.984 1172.14 447.151 1172.98 449.988 1174.65C452.876 1176.27 455.156 1178.5 456.828 1181.34C458.5 1184.17 459.336 1187.34 459.336 1190.84C459.336 1194.38 458.5 1197.6 456.828 1200.49C455.156 1203.33 452.876 1205.58 449.988 1207.25C447.151 1208.92 443.984 1209.76 440.488 1209.76ZM440.488 1203.15C442.768 1203.15 444.795 1202.62 446.568 1201.55C448.342 1200.49 449.735 1199.04 450.748 1197.22C451.762 1195.35 452.268 1193.22 452.268 1190.84C452.268 1188.51 451.736 1186.43 450.672 1184.6C449.659 1182.78 448.266 1181.36 446.492 1180.35C444.77 1179.28 442.768 1178.75 440.488 1178.75C438.208 1178.75 436.182 1179.28 434.408 1180.35C432.635 1181.36 431.242 1182.78 430.228 1184.6C429.215 1186.43 428.708 1188.51 428.708 1190.84C428.708 1193.22 429.215 1195.35 430.228 1197.22C431.242 1199.04 432.635 1200.49 434.408 1201.55C436.182 1202.62 438.208 1203.15 440.488 1203.15ZM467.043 1209V1172.9H473.883V1209H467.043ZM473.883 1188.4L471.299 1187.26C471.299 1182.65 472.363 1178.98 474.491 1176.24C476.619 1173.51 479.685 1172.14 483.687 1172.14C485.511 1172.14 487.158 1172.47 488.627 1173.13C490.097 1173.74 491.465 1174.77 492.731 1176.24L488.247 1180.88C487.487 1180.07 486.651 1179.49 485.739 1179.13C484.827 1178.78 483.763 1178.6 482.547 1178.6C480.014 1178.6 477.937 1179.41 476.315 1181.03C474.694 1182.65 473.883 1185.11 473.883 1188.4ZM508.735 1209.3L493.079 1172.9H500.679L512.307 1201.4H509.875L522.111 1172.9H529.711L512.839 1209.3H508.735ZM498.399 1224.12L509.039 1202.31L512.839 1209.3L505.999 1224.12H498.399ZM531.103 1217.36L535.815 1208.32L538.247 1207.71C537.994 1208.27 537.664 1208.72 537.259 1209.08C536.904 1209.43 536.448 1209.61 535.891 1209.61C534.827 1209.61 533.839 1209.18 532.927 1208.32C532.066 1207.4 531.635 1206.29 531.635 1204.97C531.635 1203.5 532.116 1202.29 533.079 1201.32C534.042 1200.31 535.258 1199.8 536.727 1199.8C538.044 1199.8 539.21 1200.31 540.223 1201.32C541.236 1202.29 541.743 1203.5 541.743 1204.97C541.743 1205.53 541.616 1206.21 541.363 1207.02C541.16 1207.78 540.73 1208.77 540.071 1209.99L535.055 1219.49L531.103 1217.36ZM578.937 1209.76C576.911 1209.76 574.985 1209.51 573.161 1209C571.388 1208.44 569.741 1207.68 568.221 1206.72C566.701 1205.71 565.384 1204.52 564.269 1203.15L568.677 1198.74C569.995 1200.36 571.515 1201.58 573.237 1202.39C574.96 1203.15 576.885 1203.53 579.013 1203.53C581.141 1203.53 582.788 1203.17 583.953 1202.46C585.119 1201.7 585.701 1200.67 585.701 1199.35C585.701 1198.03 585.22 1197.02 584.257 1196.31C583.345 1195.55 582.155 1194.94 580.685 1194.48C579.216 1193.98 577.645 1193.5 575.973 1193.04C574.352 1192.53 572.807 1191.9 571.337 1191.14C569.868 1190.38 568.652 1189.34 567.689 1188.02C566.777 1186.71 566.321 1184.96 566.321 1182.78C566.321 1180.6 566.853 1178.73 567.917 1177.16C568.981 1175.53 570.451 1174.29 572.325 1173.43C574.251 1172.57 576.556 1172.14 579.241 1172.14C582.079 1172.14 584.587 1172.65 586.765 1173.66C588.995 1174.62 590.819 1176.09 592.237 1178.07L587.829 1182.48C586.816 1181.16 585.549 1180.15 584.029 1179.44C582.56 1178.73 580.888 1178.37 579.013 1178.37C577.037 1178.37 575.517 1178.73 574.453 1179.44C573.44 1180.09 572.933 1181.03 572.933 1182.25C572.933 1183.46 573.389 1184.4 574.301 1185.06C575.213 1185.72 576.404 1186.28 577.873 1186.73C579.393 1187.19 580.964 1187.67 582.585 1188.18C584.207 1188.63 585.752 1189.27 587.221 1190.08C588.691 1190.89 589.881 1191.98 590.793 1193.34C591.756 1194.71 592.237 1196.51 592.237 1198.74C592.237 1202.13 591.021 1204.82 588.589 1206.8C586.208 1208.77 582.991 1209.76 578.937 1209.76ZM625.431 1209V1187.95C625.431 1185.21 624.57 1182.96 622.847 1181.18C621.124 1179.41 618.895 1178.52 616.159 1178.52C614.335 1178.52 612.714 1178.93 611.295 1179.74C609.876 1180.55 608.762 1181.67 607.951 1183.08C607.14 1184.5 606.735 1186.12 606.735 1187.95L603.923 1186.35C603.923 1183.62 604.531 1181.18 605.747 1179.06C606.963 1176.93 608.66 1175.26 610.839 1174.04C613.018 1172.77 615.475 1172.14 618.211 1172.14C620.947 1172.14 623.354 1172.75 625.431 1173.96C627.559 1175.18 629.231 1176.88 630.447 1179.06C631.663 1181.23 632.271 1183.74 632.271 1186.58V1209H625.431ZM599.895 1209V1154.74H606.735V1209H599.895ZM656.884 1209.76C653.59 1209.76 650.601 1208.95 647.916 1207.33C645.23 1205.66 643.102 1203.4 641.532 1200.56C640.012 1197.73 639.252 1194.53 639.252 1190.99C639.252 1187.44 640.012 1184.25 641.532 1181.41C643.102 1178.57 645.205 1176.32 647.84 1174.65C650.525 1172.98 653.54 1172.14 656.884 1172.14C659.62 1172.14 662.052 1172.72 664.18 1173.89C666.358 1175 668.106 1176.57 669.424 1178.6C670.741 1180.58 671.476 1182.88 671.628 1185.52V1196.38C671.476 1198.97 670.741 1201.27 669.424 1203.3C668.157 1205.33 666.434 1206.92 664.256 1208.09C662.128 1209.2 659.67 1209.76 656.884 1209.76ZM658.024 1203.3C661.418 1203.3 664.154 1202.16 666.232 1199.88C668.309 1197.55 669.348 1194.59 669.348 1190.99C669.348 1188.51 668.866 1186.35 667.904 1184.53C666.992 1182.65 665.674 1181.21 663.952 1180.2C662.229 1179.13 660.228 1178.6 657.948 1178.6C655.668 1178.6 653.641 1179.13 651.868 1180.2C650.145 1181.26 648.777 1182.73 647.764 1184.6C646.801 1186.43 646.32 1188.53 646.32 1190.91C646.32 1193.34 646.801 1195.5 647.764 1197.37C648.777 1199.2 650.17 1200.64 651.944 1201.7C653.717 1202.77 655.744 1203.3 658.024 1203.3ZM668.892 1209V1199.27L670.184 1190.46L668.892 1181.72V1172.9H675.808V1209H668.892ZM704.766 1209.76C702.03 1209.76 699.547 1209.2 697.318 1208.09C695.139 1206.92 693.391 1205.33 692.074 1203.3C690.757 1201.27 690.022 1198.97 689.87 1196.38V1185.52C690.022 1182.88 690.757 1180.58 692.074 1178.6C693.442 1176.57 695.215 1175 697.394 1173.89C699.623 1172.72 702.081 1172.14 704.766 1172.14C708.059 1172.14 711.023 1172.98 713.658 1174.65C716.343 1176.32 718.446 1178.57 719.966 1181.41C721.486 1184.25 722.246 1187.44 722.246 1190.99C722.246 1194.53 721.486 1197.73 719.966 1200.56C718.446 1203.4 716.343 1205.66 713.658 1207.33C711.023 1208.95 708.059 1209.76 704.766 1209.76ZM703.626 1203.3C705.906 1203.3 707.907 1202.77 709.63 1201.7C711.353 1200.64 712.721 1199.2 713.734 1197.37C714.747 1195.5 715.254 1193.34 715.254 1190.91C715.254 1188.53 714.747 1186.4 713.734 1184.53C712.721 1182.65 711.353 1181.21 709.63 1180.2C707.907 1179.13 705.931 1178.6 703.702 1178.6C701.422 1178.6 699.421 1179.13 697.698 1180.2C695.975 1181.21 694.633 1182.65 693.67 1184.53C692.707 1186.4 692.226 1188.56 692.226 1190.99C692.226 1193.37 692.682 1195.5 693.594 1197.37C694.557 1199.2 695.899 1200.64 697.622 1201.7C699.395 1202.77 701.397 1203.3 703.626 1203.3ZM685.766 1224.12V1172.9H692.606V1182.4L691.314 1191.14L692.606 1199.96V1224.12H685.766ZM730.076 1209V1172.9H736.916V1209H730.076ZM733.496 1165.68C732.23 1165.68 731.191 1165.27 730.38 1164.46C729.57 1163.6 729.164 1162.54 729.164 1161.27C729.164 1160.06 729.57 1159.04 730.38 1158.23C731.191 1157.37 732.23 1156.94 733.496 1156.94C734.763 1156.94 735.802 1157.37 736.612 1158.23C737.423 1159.04 737.828 1160.06 737.828 1161.27C737.828 1162.54 737.423 1163.6 736.612 1164.46C735.802 1165.27 734.763 1165.68 733.496 1165.68ZM772.532 1209V1187.95C772.532 1185.21 771.671 1182.96 769.948 1181.18C768.226 1179.41 765.996 1178.52 763.26 1178.52C761.436 1178.52 759.815 1178.93 758.396 1179.74C756.978 1180.55 755.863 1181.67 755.052 1183.08C754.242 1184.5 753.836 1186.12 753.836 1187.95L751.024 1186.35C751.024 1183.62 751.632 1181.18 752.848 1179.06C754.064 1176.93 755.762 1175.26 757.94 1174.04C760.119 1172.77 762.576 1172.14 765.312 1172.14C768.048 1172.14 770.455 1172.82 772.532 1174.19C774.66 1175.56 776.332 1177.36 777.548 1179.59C778.764 1181.77 779.372 1184.1 779.372 1186.58V1209H772.532ZM746.996 1209V1172.9H753.836V1209H746.996ZM803.605 1224.88C799.907 1224.88 796.613 1224.2 793.725 1222.83C790.888 1221.46 788.608 1219.54 786.885 1217.06L791.293 1212.57C792.763 1214.45 794.511 1215.87 796.537 1216.83C798.564 1217.84 800.971 1218.35 803.757 1218.35C807.456 1218.35 810.369 1217.36 812.497 1215.38C814.676 1213.46 815.765 1210.85 815.765 1207.56V1198.59L816.981 1190.46L815.765 1182.4V1172.9H822.605V1207.56C822.605 1211 821.795 1214.02 820.173 1216.6C818.603 1219.18 816.373 1221.21 813.485 1222.68C810.648 1224.15 807.355 1224.88 803.605 1224.88ZM803.605 1208.39C800.312 1208.39 797.348 1207.61 794.713 1206.04C792.129 1204.47 790.077 1202.31 788.557 1199.58C787.037 1196.79 786.277 1193.67 786.277 1190.23C786.277 1186.78 787.037 1183.72 788.557 1181.03C790.077 1178.3 792.129 1176.14 794.713 1174.57C797.348 1172.95 800.312 1172.14 803.605 1172.14C806.443 1172.14 808.951 1172.7 811.129 1173.81C813.308 1174.93 815.031 1176.5 816.297 1178.52C817.615 1180.5 818.324 1182.83 818.425 1185.52V1195.09C818.273 1197.73 817.539 1200.06 816.221 1202.08C814.955 1204.06 813.232 1205.61 811.053 1206.72C808.875 1207.83 806.392 1208.39 803.605 1208.39ZM804.973 1201.93C807.203 1201.93 809.153 1201.45 810.825 1200.49C812.548 1199.53 813.865 1198.18 814.777 1196.46C815.689 1194.69 816.145 1192.63 816.145 1190.3C816.145 1187.97 815.664 1185.95 814.701 1184.22C813.789 1182.45 812.497 1181.08 810.825 1180.12C809.153 1179.11 807.177 1178.6 804.897 1178.6C802.617 1178.6 800.616 1179.11 798.893 1180.12C797.171 1181.08 795.803 1182.45 794.789 1184.22C793.827 1185.95 793.345 1187.95 793.345 1190.23C793.345 1192.51 793.827 1194.53 794.789 1196.31C795.803 1198.08 797.171 1199.47 798.893 1200.49C800.667 1201.45 802.693 1201.93 804.973 1201.93ZM854.002 1209V1157.78H860.842V1209H854.002ZM845.11 1179.13V1172.9H869.734V1179.13H845.11ZM901.97 1209V1187.95C901.97 1185.21 901.109 1182.96 899.386 1181.18C897.663 1179.41 895.434 1178.52 892.698 1178.52C890.874 1178.52 889.253 1178.93 887.834 1179.74C886.415 1180.55 885.301 1181.67 884.49 1183.08C883.679 1184.5 883.274 1186.12 883.274 1187.95L880.462 1186.35C880.462 1183.62 881.07 1181.18 882.286 1179.06C883.502 1176.93 885.199 1175.26 887.378 1174.04C889.557 1172.77 892.014 1172.14 894.75 1172.14C897.486 1172.14 899.893 1172.75 901.97 1173.96C904.098 1175.18 905.77 1176.88 906.986 1179.06C908.202 1181.23 908.81 1183.74 908.81 1186.58V1209H901.97ZM876.434 1209V1154.74H883.274V1209H876.434ZM934.791 1209.76C931.193 1209.76 927.951 1208.95 925.063 1207.33C922.175 1205.66 919.895 1203.4 918.223 1200.56C916.551 1197.73 915.715 1194.51 915.715 1190.91C915.715 1187.37 916.525 1184.17 918.147 1181.34C919.819 1178.5 922.048 1176.27 924.835 1174.65C927.672 1172.98 930.839 1172.14 934.335 1172.14C937.679 1172.14 940.617 1172.9 943.151 1174.42C945.735 1175.94 947.736 1178.04 949.155 1180.73C950.624 1183.41 951.359 1186.45 951.359 1189.85C951.359 1190.35 951.333 1190.91 951.283 1191.52C951.232 1192.08 951.131 1192.74 950.979 1193.5H920.503V1187.8H947.331L944.823 1190C944.823 1187.57 944.392 1185.52 943.531 1183.84C942.669 1182.12 941.453 1180.8 939.883 1179.89C938.312 1178.93 936.412 1178.45 934.183 1178.45C931.852 1178.45 929.8 1178.95 928.027 1179.97C926.253 1180.98 924.885 1182.4 923.923 1184.22C922.96 1186.05 922.479 1188.2 922.479 1190.68C922.479 1193.22 922.985 1195.45 923.999 1197.37C925.012 1199.25 926.456 1200.72 928.331 1201.78C930.205 1202.79 932.359 1203.3 934.791 1203.3C936.817 1203.3 938.667 1202.95 940.339 1202.24C942.061 1201.53 943.531 1200.46 944.747 1199.04L949.155 1203.53C947.432 1205.55 945.304 1207.1 942.771 1208.16C940.288 1209.23 937.628 1209.76 934.791 1209.76ZM979.793 1209V1167.5C979.793 1164.82 980.376 1162.49 981.541 1160.51C982.707 1158.49 984.303 1156.89 986.329 1155.72C988.407 1154.56 990.813 1153.98 993.549 1153.98C995.627 1153.98 997.425 1154.33 998.945 1155.04C1000.47 1155.75 1001.86 1156.79 1003.13 1158.16L998.641 1162.56C997.983 1161.85 997.248 1161.32 996.437 1160.97C995.627 1160.56 994.639 1160.36 993.473 1160.36C991.295 1160.36 989.597 1160.99 988.381 1162.26C987.216 1163.53 986.633 1165.27 986.633 1167.5V1209H979.793ZM970.901 1179.13V1172.9H998.109V1179.13H970.901ZM1019.5 1209.76C1016.56 1209.76 1013.9 1209.1 1011.52 1207.78C1009.19 1206.42 1007.36 1204.54 1006.04 1202.16C1004.73 1199.78 1004.07 1197.02 1004.07 1193.88V1172.9H1010.91V1193.57C1010.91 1195.55 1011.24 1197.27 1011.9 1198.74C1012.61 1200.16 1013.62 1201.25 1014.94 1202.01C1016.25 1202.77 1017.8 1203.15 1019.57 1203.15C1022.26 1203.15 1024.36 1202.31 1025.88 1200.64C1027.4 1198.92 1028.16 1196.56 1028.16 1193.57V1172.9H1035V1193.88C1035 1197.02 1034.34 1199.78 1033.02 1202.16C1031.71 1204.54 1029.88 1206.42 1027.55 1207.78C1025.27 1209.1 1022.59 1209.76 1019.5 1209.76ZM1049.72 1209V1157.78H1056.56V1209H1049.72ZM1040.82 1179.13V1172.9H1065.45V1179.13H1040.82ZM1086.66 1209.76C1083.73 1209.76 1081.07 1209.1 1078.68 1207.78C1076.35 1206.42 1074.53 1204.54 1073.21 1202.16C1071.9 1199.78 1071.24 1197.02 1071.24 1193.88V1172.9H1078.08V1193.57C1078.08 1195.55 1078.41 1197.27 1079.06 1198.74C1079.77 1200.16 1080.79 1201.25 1082.1 1202.01C1083.42 1202.77 1084.97 1203.15 1086.74 1203.15C1089.43 1203.15 1091.53 1202.31 1093.05 1200.64C1094.57 1198.92 1095.33 1196.56 1095.33 1193.57V1172.9H1102.17V1193.88C1102.17 1197.02 1101.51 1199.78 1100.19 1202.16C1098.88 1204.54 1097.05 1206.42 1094.72 1207.78C1092.44 1209.1 1089.76 1209.76 1086.66 1209.76ZM1111.34 1209V1172.9H1118.18V1209H1111.34ZM1118.18 1188.4L1115.59 1187.26C1115.59 1182.65 1116.66 1178.98 1118.78 1176.24C1120.91 1173.51 1123.98 1172.14 1127.98 1172.14C1129.8 1172.14 1131.45 1172.47 1132.92 1173.13C1134.39 1173.74 1135.76 1174.77 1137.02 1176.24L1132.54 1180.88C1131.78 1180.07 1130.94 1179.49 1130.03 1179.13C1129.12 1178.78 1128.06 1178.6 1126.84 1178.6C1124.31 1178.6 1122.23 1179.41 1120.61 1181.03C1118.99 1182.65 1118.18 1185.11 1118.18 1188.4ZM1157.37 1209.76C1153.78 1209.76 1150.53 1208.95 1147.64 1207.33C1144.76 1205.66 1142.48 1203.4 1140.8 1200.56C1139.13 1197.73 1138.3 1194.51 1138.3 1190.91C1138.3 1187.37 1139.11 1184.17 1140.73 1181.34C1142.4 1178.5 1144.63 1176.27 1147.42 1174.65C1150.25 1172.98 1153.42 1172.14 1156.92 1172.14C1160.26 1172.14 1163.2 1172.9 1165.73 1174.42C1168.32 1175.94 1170.32 1178.04 1171.74 1180.73C1173.21 1183.41 1173.94 1186.45 1173.94 1189.85C1173.94 1190.35 1173.92 1190.91 1173.86 1191.52C1173.81 1192.08 1173.71 1192.74 1173.56 1193.5H1143.08V1187.8H1169.91L1167.4 1190C1167.4 1187.57 1166.97 1185.52 1166.11 1183.84C1165.25 1182.12 1164.04 1180.8 1162.46 1179.89C1160.89 1178.93 1158.99 1178.45 1156.76 1178.45C1154.43 1178.45 1152.38 1178.95 1150.61 1179.97C1148.84 1180.98 1147.47 1182.4 1146.5 1184.22C1145.54 1186.05 1145.06 1188.2 1145.06 1190.68C1145.06 1193.22 1145.57 1195.45 1146.58 1197.37C1147.59 1199.25 1149.04 1200.72 1150.91 1201.78C1152.79 1202.79 1154.94 1203.3 1157.37 1203.3C1159.4 1203.3 1161.25 1202.95 1162.92 1202.24C1164.64 1201.53 1166.11 1200.46 1167.33 1199.04L1171.74 1203.53C1170.01 1205.55 1167.89 1207.1 1165.35 1208.16C1162.87 1209.23 1160.21 1209.76 1157.37 1209.76ZM1187.4 1209.76C1185.98 1209.76 1184.79 1209.28 1183.83 1208.32C1182.92 1207.3 1182.46 1206.11 1182.46 1204.74C1182.46 1203.33 1182.92 1202.16 1183.83 1201.25C1184.79 1200.29 1185.98 1199.8 1187.4 1199.8C1188.82 1199.8 1189.99 1200.29 1190.9 1201.25C1191.86 1202.16 1192.34 1203.33 1192.34 1204.74C1192.34 1206.11 1191.86 1207.3 1190.9 1208.32C1189.99 1209.28 1188.82 1209.76 1187.4 1209.76Z" fill="white"/>
</svg>
