<svg width="80" height="80" viewBox="0 0 80 80" fill="none" xmlns="http://www.w3.org/2000/svg">
<path d="M28.1601 78.222H21.0319C20.4471 78.222 19.8926 77.9513 19.5347 77.4879C19.178 77.0245 19.0545 76.4213 19.2044 75.8546L20.9008 69.3688L17.5466 69.4071H17.5252C16.9719 69.4071 16.4489 69.1666 16.0885 68.7473C15.7255 68.3229 15.568 67.7575 15.66 67.2059L19.3627 45.1224L23.0907 45.7457L19.7622 65.6029L36.3011 65.4128L36.5681 58.6863L34.8045 48.0327L38.535 47.4169L39.8846 55.5688L43.7658 53.8654L39.9773 41.0563L43.6045 39.9872L47.8643 54.3905C48.1327 55.3022 47.6828 56.2718 46.8119 56.6546L40.3189 59.5043L40.0076 67.357C39.9685 68.3619 39.1481 69.159 38.1411 69.1716L37.6392 69.1774C37.622 71.0811 37.6098 73.0748 37.6122 74.4443H42.022V78.222H35.7533C34.8572 78.222 34.0847 77.5937 33.9032 76.7185C33.8563 76.4927 33.7924 76.1847 33.8574 69.2206L24.8208 69.3239L23.4806 74.4443H28.1601V78.222Z" fill="#FABB00"/>
<path fill-rule="evenodd" clip-rule="evenodd" d="M28.7755 16.5198C27.2026 16.5198 25.6878 15.9897 24.4464 14.9911C23.0021 13.8313 22.0959 12.1804 21.8968 10.3406C21.6977 8.50213 22.227 6.69511 23.3864 5.25326C24.5472 3.81142 26.1982 2.90728 28.0395 2.70706C31.8355 2.29654 35.2672 5.04927 35.6806 8.84466C36.0915 12.6413 33.3365 16.0665 29.5379 16.4795C29.2834 16.5059 29.0275 16.5198 28.7755 16.5198ZM28.7906 6.44452C28.6772 6.44452 28.5638 6.4508 28.4478 6.46339C27.611 6.55405 26.8598 6.96459 26.333 7.62067C25.8062 8.27548 25.5655 9.0965 25.6562 9.9339C25.747 10.77 26.1591 11.5193 26.8157 12.0457C27.4686 12.5733 28.289 12.8138 29.1296 12.7219C30.8562 12.5355 32.109 10.9791 31.9199 9.25265C31.746 7.64207 30.3773 6.44452 28.7906 6.44452Z" fill="#FABB00"/>
<path fill-rule="evenodd" clip-rule="evenodd" d="M21.149 42.3106C21.2839 42.3232 22.1358 42.3937 23.4251 42.3937C27.5904 42.3937 36.3091 41.652 40.0459 35.7839C41.7835 33.0534 42.0194 29.4411 41.7451 26.271L46.0228 31.2352C46.3883 31.6583 46.9151 31.89 47.4558 31.89C47.6549 31.89 47.8565 31.8598 48.0519 31.7943L53.5145 29.9774C52.8983 32.889 50.9508 38.4917 50.1809 40.6027C50.0019 41.0863 50.0309 41.6215 50.259 42.0836C50.4859 42.5458 50.8917 42.8958 51.3832 43.0507L64.765 47.2944C64.954 47.3549 65.1469 47.3838 65.3372 47.3838C65.9913 47.3838 66.6163 47.0438 66.9629 46.4583C67.157 46.1321 71.7432 38.3386 73.0237 30.0716C74.1554 22.7629 73.6841 12.4559 73.6639 12.0215C73.616 11.014 72.7842 10.222 71.7747 10.222H54.6398C54.0613 10.222 53.5144 10.4864 53.1552 10.941C52.7972 11.3956 52.6662 11.9874 52.801 12.5503L52.8022 12.5554C52.8516 12.7691 54.2765 18.9291 53.9557 25.848L48.0607 27.81L39.9104 18.3518L39.8696 18.3868C39.5194 18.0066 39.0199 17.7778 38.4793 17.7778H34.1842C33.3361 17.7778 32.5925 18.3419 32.3631 19.1592C30.6485 25.2892 26.8637 27.8804 23.9949 28.9754C23.7591 27.5254 23.4874 25.0034 23.4368 20.9334C23.4267 20.1728 22.9642 19.494 22.2597 19.2069C21.5577 18.9198 20.7486 19.0822 20.2117 19.6199L7.15762 32.6356C6.81608 32.9743 6.6182 33.4327 6.60434 33.9125L6.22372 45.8641C6.20608 46.3892 6.40772 46.8966 6.78329 47.2669L11.0872 51.5231L13.7464 48.8371L10.0273 45.1601L10.36 34.7801L19.8135 25.3546C19.9367 27.3117 20.1144 28.7456 20.2904 29.7774C19.7776 29.798 19.2947 30.026 18.951 30.4107C18.5969 30.8098 18.4268 31.34 18.4847 31.8688L19.4375 40.6333C19.5346 41.5273 20.2517 42.2313 21.149 42.3106ZM36.8535 33.7552C34.0027 38.2369 26.3477 38.6512 23.0205 38.6084L22.4433 33.2918C25.8499 32.6143 32.5736 30.1928 35.5731 21.5556H37.0753C37.9248 24.7024 38.8952 30.5529 36.8535 33.7552ZM64.4285 43.2258L54.3915 40.0424C55.3594 37.272 57.076 32.1368 57.4112 29.6497C58.2531 23.3938 57.4956 17.2373 56.9386 13.9997H69.9461C69.9817 15.3792 70.0131 17.4318 69.9769 19.7337L62.0173 19.3264L61.8245 23.1004L69.8546 23.5102C69.7788 24.9965 69.6658 26.4926 69.5014 27.9033L62.1571 26.6403L61.5144 30.3627L68.8752 31.6294C67.7556 36.5189 65.5638 41.0692 64.4285 43.2258Z" fill="#FABB00"/>
</svg>
