<svg width="320" height="126" viewBox="0 0 320 126" fill="none" xmlns="http://www.w3.org/2000/svg">
<path d="M96.839 35.5481C108.001 5.67083 142.017 -1.35406 157.298 0.202053C166.156 0.202053 187.195 5.67084 203.14 16.8749C219.086 28.0789 221.743 51.7762 221.079 62.2243C223.958 69.338 221.743 89.5674 189.853 113.576C157.962 137.584 123.857 118.244 110.791 105.573C101.49 94.6803 85.6773 65.4254 96.839 35.5481Z" fill="white"/>
<path d="M105.327 117.128C106.279 114.499 109.18 113.881 110.483 114.018C111.238 114.018 113.032 114.499 114.392 115.485C115.752 116.471 115.978 118.556 115.921 119.476C116.167 120.102 115.978 121.882 113.259 123.995C110.539 126.107 107.631 124.405 106.517 123.29C105.724 122.332 104.376 119.757 105.327 117.128Z" fill="white"/>
<path d="M81.6845 103.541C83.6745 98.0434 89.7394 96.7509 92.4639 97.0372C94.0433 97.0372 97.7945 98.0434 100.637 100.105C103.48 102.167 103.954 106.527 103.836 108.449C104.349 109.758 103.954 113.48 98.2683 117.898C92.5824 122.316 86.5017 118.757 84.1721 116.425C82.5137 114.421 79.6944 109.038 81.6845 103.541Z" fill="white"/>
<path fill-rule="evenodd" clip-rule="evenodd" d="M169.073 119.515L165.325 115.721L170.273 110.83L160.735 95.9644C160.235 95.1858 160.175 94.2027 160.575 93.3689L169.691 74.4124L166.937 64.6469L154.895 70.3578L158.442 75.5215L154.047 78.542L147.312 68.7381C143.57 73.5942 137.698 76.7285 131.109 76.7285C119.836 76.7285 110.664 67.557 110.664 56.2841C110.664 45.0112 119.836 35.8396 131.109 35.8396C142.381 35.8396 151.553 45.0112 151.553 56.2841C151.553 58.8421 151.081 61.292 150.219 63.551L151.837 65.906L166.011 59.1834L165.771 44.7733L171.105 44.6862L171.37 60.7164L175.099 73.9378C175.275 74.5618 175.217 75.2302 174.934 75.8151L166.027 94.3378L175.928 109.769C176.609 110.83 176.454 112.22 175.558 113.106L169.073 119.515ZM179.246 47.7242C179.732 48.0993 180.308 48.2842 180.884 48.2842C181.57 48.2842 182.253 48.0211 182.77 47.5038L198.77 31.5038C199.061 31.2104 199.284 30.8531 199.413 30.462L200.565 27.0063L204.861 28.5684L206.685 23.555L202.253 21.9433L202.969 19.7953L197.909 18.1064L197.238 20.1198L167.574 9.33277L165.75 14.3461L195.551 25.1827L194.553 28.1757L180.661 42.0673L166.521 31.0664C166.053 30.7037 165.476 30.5064 164.884 30.5064H153.328V35.8397H163.968L179.246 47.7242ZM139.107 22.5064C139.107 20.0566 141.101 18.062 143.551 18.062C146.001 18.062 147.996 20.0566 147.996 22.5064C147.996 24.9562 146.001 26.9508 143.551 26.9508C141.101 26.9508 139.107 24.9562 139.107 22.5064ZM133.773 22.5064C133.773 27.8966 138.159 32.2842 143.551 32.2842C148.943 32.2842 153.329 27.8966 153.329 22.5064C153.329 17.1162 148.943 12.7286 143.551 12.7286C138.159 12.7286 133.773 17.1162 133.773 22.5064ZM115.997 56.2841C115.997 47.9516 122.776 41.173 131.109 41.173C139.441 41.173 146.22 47.9516 146.22 56.2841C146.22 64.6165 139.441 71.3952 131.109 71.3952C122.776 71.3952 115.997 64.6165 115.997 56.2841ZM131.104 66.5068C125.222 66.5068 120.438 61.7228 120.438 55.8402C120.438 49.9575 125.222 45.1735 131.104 45.1735V50.5068C128.164 50.5068 125.771 52.8997 125.771 55.8402C125.771 58.7806 128.164 61.1735 131.104 61.1735C134.045 61.1735 136.438 58.7806 136.438 55.8402H141.771C141.771 61.7228 136.987 66.5068 131.104 66.5068ZM133.773 115.84H143.996C144.762 115.84 145.493 115.509 145.997 114.933C146.506 114.357 146.739 113.591 146.641 112.832L144.125 93.3936L152.108 78.9047L147.436 76.3305L139.032 91.5839C138.76 92.0816 138.652 92.6523 138.725 93.2123L140.961 110.507H133.773V115.84ZM180.611 101.826C179.811 101.826 179.025 101.467 178.504 100.797L171.062 91.2235L175.272 87.9524L181.256 95.6484L201.896 83.1311C196.369 79.1133 185.814 70.0075 178.652 54.9195L183.47 52.6315C192.595 71.8546 208.033 80.8271 208.188 80.9142C209.007 81.3818 209.521 82.2511 209.534 83.1968C209.546 84.1408 209.061 85.0226 208.252 85.5115L181.992 101.439C181.56 101.702 181.084 101.826 180.611 101.826Z" fill="black"/>
</svg>
