<svg width="24" height="24" viewBox="0 0 24 24" fill="none" xmlns="http://www.w3.org/2000/svg">
<path d="M16.7798 17.8009L6.19912 7.22023C5.92799 6.9491 5.9346 6.49281 6.21371 6.21371C6.49281 5.9346 6.9491 5.92799 7.22023 6.19912L17.8009 16.7798C18.072 17.0509 18.0654 17.5072 17.7863 17.7863C17.5072 18.0654 17.0509 18.072 16.7798 17.8009Z" fill="#292D32"/>
<path d="M17.8009 7.22023L7.22023 17.8009C6.9491 18.072 6.49281 18.0654 6.21371 17.7863C5.9346 17.5072 5.92799 17.0509 6.19912 16.7798L16.7798 6.19912C17.0509 5.92799 17.5072 5.9346 17.7863 6.21371C18.0654 6.49281 18.072 6.9491 17.8009 7.22023Z" fill="#292D32"/>
</svg>
