<svg width="194" height="55" viewBox="0 0 194 55" fill="none" xmlns="http://www.w3.org/2000/svg">
<g id="Frame" clip-path="url(#clip0_1971_1934)">
<path id="Vector" d="M0.53125 42.9205V0.00683594H8.34747V36.4038H27.3507V42.9205H0.53125Z" fill="black"/>
<path id="Vector_2" d="M41.0985 43.5693C39.0479 43.5693 37.201 43.2061 35.5576 42.4797C33.9284 41.7393 32.6362 40.6497 31.6811 39.2109C30.7401 37.772 30.2695 35.9979 30.2695 33.8886C30.2695 32.0725 30.6066 30.5708 31.2808 29.3834C31.955 28.1961 32.875 27.2462 34.0407 26.5337C35.2065 25.8213 36.5197 25.2835 37.9804 24.9203C39.4552 24.5431 40.9791 24.2707 42.5522 24.1031C44.4482 23.9075 45.9862 23.7329 47.166 23.5792C48.3458 23.4116 49.2026 23.1601 49.7363 22.8249C50.2842 22.4756 50.558 21.9378 50.558 21.2114V21.0857C50.558 19.5072 50.0874 18.2848 49.1465 17.4188C48.2054 16.5527 46.85 16.1196 45.0803 16.1196C43.2123 16.1196 41.7306 16.5247 40.635 17.3349C39.5535 18.1452 38.8231 19.102 38.4439 20.2056H31.2808C31.5218 18.2933 32.8118 15.6097 34.1039 14.2966C35.3961 12.9695 36.9762 11.9777 38.8442 11.3212C40.7122 10.6506 42.7769 10.3154 45.0382 10.3154C46.5973 10.3154 48.1492 10.497 49.6942 10.8602C51.2392 11.2234 52.6508 11.824 53.9289 12.6622C55.207 13.4864 56.2323 14.6109 57.0048 16.0358C57.7914 17.4607 58.1846 19.2417 58.1846 21.379V42.9197H50.8529V38.4984H50.6001C50.1367 39.3925 49.4835 40.2306 48.6408 41.0129C47.8121 41.7812 46.7658 42.4028 45.5017 42.8778C44.2516 43.3388 42.7839 43.5693 41.0985 43.5693ZM43.0789 37.9955C44.6098 37.9955 45.9371 37.6952 47.0607 37.0945C48.1844 36.4799 49.0481 35.6696 49.6521 34.6638C50.2701 33.6581 50.579 32.5615 50.579 31.3741V27.5814C50.3403 27.777 49.933 27.9586 49.3571 28.1262C48.7953 28.2938 48.1633 28.4405 47.461 28.5662C46.7587 28.692 46.0635 28.8037 45.3753 28.9015C44.6871 28.9993 44.0902 29.0831 43.5845 29.153C42.4468 29.3066 41.4286 29.5581 40.5297 29.9073C39.6308 30.2565 38.9215 30.7455 38.4018 31.3741C37.8821 31.9887 37.6223 32.785 37.6223 33.7628C37.6223 35.1598 38.1349 36.2145 39.1602 36.9269C40.1856 37.6393 41.4918 37.9955 43.0789 37.9955Z" fill="black"/>
<path id="Vector_3" d="M67.4161 54.9921C66.3767 54.9921 65.4146 54.9083 64.5298 54.7406C63.6589 54.587 63.4152 54.4054 62.8955 54.1958L64.6652 48.2868C65.7748 48.6081 66.3135 48.7618 67.1843 48.7478C68.0551 48.7338 68.8206 48.4614 69.4807 47.9306C70.1549 47.4137 70.7237 46.5476 71.1872 45.3323L71.8403 43.5931L60.1055 10.7373H68.1956L75.6537 35.0439H75.9907L83.4698 10.7373H91.581L78.6242 46.82C77.9627 48.5961 77.2197 49.9841 76.2224 51.1994C75.2253 52.4287 74.0033 53.3646 72.5566 54.0072C71.1241 54.6638 69.4105 54.9921 67.4161 54.9921Z" fill="black"/>
<path id="Vector_4" d="M108.061 43.5483C104.816 43.5483 102.014 42.8778 99.6543 41.5367C97.3087 40.1817 95.5039 38.2679 94.2399 35.7954C92.9758 33.3088 92.3438 30.3823 92.3438 27.0157C92.3438 23.7049 92.9758 20.7993 94.2399 18.2988C95.518 15.7843 97.3018 13.8286 99.5911 12.4317C101.88 11.0208 104.571 10.3154 107.66 10.3154C109.654 10.3154 111.537 10.6367 113.306 11.2792C115.09 11.9079 116.663 12.8857 118.025 14.2128C119.402 15.5399 120.484 17.2302 121.27 19.2837C122.056 21.3232 122.45 23.7538 122.45 26.5756V28.9015H95.9253V23.7888H115.139C115.125 22.3359 114.809 21.0438 114.191 19.9123C113.574 18.7668 112.71 17.8658 111.599 17.2092C110.504 16.5527 109.226 16.2244 107.765 16.2244C106.206 16.2244 104.837 16.6015 103.657 17.3559C102.478 18.0963 101.558 19.0741 100.897 20.2894C100.251 21.4908 99.9212 22.8109 99.9071 24.2497V28.7129C99.9071 30.5848 100.251 32.1913 100.939 33.5323C101.628 34.8594 102.589 35.8792 103.826 36.5916C105.062 37.2901 106.509 37.6393 108.165 37.6393C109.276 37.6393 110.279 37.4856 111.178 37.1783C112.078 36.857 112.857 36.3891 113.517 35.7744C114.177 35.1598 114.676 34.3984 115.013 33.4904H122.45C122.001 35.3623 120.827 37.793 119.563 39.1899C118.314 40.5729 116.712 41.6485 114.76 42.4168C112.808 43.1712 110.575 43.5483 108.061 43.5483Z" fill="black"/>
<path id="Vector_5" d="M126.895 42.9196V10.7343H134.29V16.0986H134.627C135.216 14.2406 136.228 12.8088 137.661 11.803C139.107 10.7832 140.757 10.2734 142.612 10.2734C143.033 10.2734 143.503 10.2943 144.023 10.3362C144.557 10.3642 144.999 10.413 145.351 10.4829V17.4606C145.027 17.3488 144.515 17.251 143.812 17.1672C143.124 17.0694 142.457 17.0205 141.811 17.0205C140.421 17.0205 139.171 17.3209 138.061 17.9215C136.965 18.5083 136.101 19.3255 135.47 20.3732C134.838 21.4209 134.521 22.6292 134.521 23.9982V42.9196H126.895Z" fill="black"/>
<path id="Vector_6" d="M150.316 8.57962V0.00683594H164.329V8.57962H179.419V0.00683594H193.431V8.57962H186.964V17.1524H179.419V25.7252H185.886V34.298H193.431V42.8708H179.419V34.298H164.329V42.8708H150.316V34.298H157.862V25.7252H164.329V17.1524H157.862H156.784V8.57962H150.316Z" fill="black"/>
</g>
<defs>
<clipPath id="clip0_1971_1934">
<rect width="193" height="55" fill="white" transform="translate(0.5)"/>
</clipPath>
</defs>
</svg>
