<svg width="204" height="49" viewBox="0 0 204 49" fill="none" xmlns="http://www.w3.org/2000/svg">
<g id="Livello_1" clip-path="url(#clip0_1971_1981)">
<path id="Vector" d="M0.5 47.9258V40.1395H6.62328V8.72575H0.5V0.939453H19.6685C25.9249 0.939453 30.6705 2.55041 33.9118 5.77233C37.1931 8.94726 38.837 13.6929 38.837 20.0025V28.8627C38.837 35.1723 37.1931 39.9381 33.9118 43.16C30.6705 46.3349 25.9249 47.9258 19.6685 47.9258H0.5ZM15.4089 39.871H19.8016C23.3491 39.871 25.9449 38.9312 27.5889 37.0518C29.2328 35.1723 30.0515 32.5344 30.0515 29.1312V19.734C30.0515 16.2905 29.2328 13.6459 27.5889 11.8134C25.9449 9.93397 23.3491 8.99425 19.8016 8.99425H15.4089V39.871Z" fill="black"/>
<path id="Vector_2" d="M44.8281 47.9258V0.939453H61.1347L69.1881 41.8847H70.3862L78.4396 0.939453H94.7462V47.9258H86.2268V7.45041H85.0288L77.0419 47.9258H62.5324L54.5455 7.45041H53.3475V47.9258H44.8281Z" fill="black"/>
<path id="Vector_3" d="M102.191 47.9258V0.939453H131.477V8.99425H110.977V20.3381H129.879V28.3929H110.977V47.9258H102.191Z" fill="black"/>
<path id="Vector_4" d="M137.061 48.8657C135.244 48.8657 133.714 48.2818 132.469 47.1205C131.271 45.9123 130.672 44.3685 130.672 42.489C130.672 40.6096 131.271 39.0859 132.469 37.9246C133.714 36.7164 135.244 36.1123 137.061 36.1123C138.878 36.1123 140.323 36.7164 141.521 37.9246C142.719 39.0859 143.318 40.6096 143.318 42.489C143.318 44.3685 142.719 45.9123 141.521 47.1205C140.323 48.2818 138.838 48.8657 137.061 48.8657Z" fill="black"/>
<path id="Vector_5" d="M149.969 47.9258V0.939453H158.754V47.9258H149.969Z" fill="black"/>
<path id="Vector_6" d="M184.286 48.8658C178.429 48.8658 173.77 47.2548 170.309 44.0329C166.848 40.764 165.117 36.1123 165.117 30.0712V18.7945C165.117 12.7534 166.848 8.12192 170.309 4.9C173.77 1.6311 178.429 0 184.286 0C190.143 0 194.802 1.6311 198.263 4.9C201.724 8.12192 203.454 12.7534 203.454 18.7945V30.0712C203.454 36.1123 201.724 40.764 198.263 44.0329C194.802 47.2548 190.143 48.8658 184.286 48.8658ZM184.286 40.9452C187.567 40.9452 190.123 39.9853 191.94 38.0589C193.757 36.1325 194.669 33.5616 194.669 30.3397V18.526C194.669 15.3041 193.757 12.7333 191.94 10.8068C190.123 8.88041 187.567 7.92055 184.286 7.92055C181.004 7.92055 178.495 8.88041 176.632 10.8068C174.815 12.7333 173.903 15.3041 173.903 18.526V30.3397C173.903 33.5616 174.815 36.1325 176.632 38.0589C178.495 39.9853 181.044 40.9452 184.286 40.9452Z" fill="black"/>
</g>
<defs>
<clipPath id="clip0_1971_1981">
<rect width="203" height="49" fill="white" transform="translate(0.5)"/>
</clipPath>
</defs>
</svg>
