<?xml version="1.0" encoding="utf-8"?>
<!-- Generator: Adobe Illustrator 27.0.0, SVG Export Plug-In . SVG Version: 6.00 Build 0)  -->
<svg version="1.1" id="Livello_1" xmlns="http://www.w3.org/2000/svg" xmlns:xlink="http://www.w3.org/1999/xlink" x="0px" y="0px"
	 viewBox="0 0 1199 1229" style="enable-background:new 0 0 1199 1229;" xml:space="preserve">
<style type="text/css">
	.st0{fill:#FFFFFF;}
	.st1{fill:#FFFEF5;}
	.st2{fill:#13080E;}
</style>
<path class="st0" d="M408.7,539.5c0.1-1.3,0.1-8.4-4.9-13.7c-3.3-3.5-8-5.3-13.8-5.3c-15.3,0-20.1,16.2-20.5,24.7l-1.7,44.4l40.5-11
	L408.7,539.5L408.7,539.5z"/>
<path class="st0" d="M300.7,579c0.1-1.1,0.2-5.2-2.8-8.7c-2.4-2.8-6-4.4-10.7-4.7c-3.8-0.2-7.1,0.9-9.7,3.2
	c-4.9,4.4-5.3,11.7-5.3,12.8l-1.8,39.7l29.4-13.1L300.7,579L300.7,579z"/>
<path class="st0" d="M351.2,592.6v-2.8l1.8-31.6c0.3-1.8,1.2-9.9-3.6-15.7c-2.1-2.5-6-5.4-13.2-5.4c-15.6,0-20.4,15.4-20.8,23.5
	l-2.1,44.8l35.1-11.9L351.2,592.6L351.2,592.6z"/>
<path class="st0" d="M733.4,617.3H777v-38.9l-43.5-3.4V617.3z"/>
<path class="st0" d="M466.5,525.2c0.1-1.4,0.5-8.3-4.3-13.8c-3.9-4.4-9.8-6.6-17.7-6.6c-17.9,0-22.6,17.3-22.6,26.4v45.6l42.9-7.8
	L466.5,525.2z"/>
<path class="st0" d="M665.8,628.1c0-8.2-5.4-23.7-25.9-23.7c-20.5,0-25.9,15.5-25.9,23.7v50.2h51.9L665.8,628.1L665.8,628.1z"/>
<path class="st0" d="M861.3,591.5l-42.3-8.4v37.2l42.3,5.1V591.5z"/>
<path class="st0" d="M701.4,698h-39.7v50.8h39.7V698z"/>
<path class="st0" d="M601,0L218,615.7L601,834l383-218.3L601,0z M921.1,568.1l-11.5-3.4L660.6,383.4l4.7-6.5L915.4,559L921.1,568.1z
	 M601,418.8L550.8,349l50.2,27.4l50.2-27.4L601,418.8z M605,445.4v121.7h-8V445.4c1.3,0.2,2.7,0.3,4,0.3
	C602.4,445.7,603.7,445.6,605,445.4z M536.8,376.9l4.7,6.5l-59.8,43.5l-3.6-7.3L536.8,376.9z M460.8,385l-3.6-7.3l65.1-21.2l4.5,6.3
	l0.2,0.6L460.8,385z M551.1,397l4.9,6.9l-46.2,63.6l-2.8-9.8L551.1,397z M568.7,421.7l5.8,8.1l-33.6,103.7l-8.5,0.1L568.7,421.7z
	 M546.9,335.5L601,252l54.1,83.5L601,365.1L546.9,335.5z M633.3,421.7l32.3,99.7h-8.4l-29.7-91.6L633.3,421.7z M646,403.9l4.9-6.9
	l92.2,127.1l-10.7-1.1L646,403.9z M823.2,411.7l-148.3-48.3l4.9-6.8l136.8,44.5L823.2,411.7L823.2,411.7z M777.8,339.1h-91.5
	c0.1-2.7-0.1-5.4-0.7-8h87.2L777.8,339.1z M748,291.5l-70.9,23.1l-4.5-7l71-23.1L748,291.5z M722.9,251.4L664,294.2l-4.3-6.7
	l59-42.9L722.9,251.4L722.9,251.4z M696.9,209.8l-46.2,63.7l-4.7-7.2l46.3-63.8L696.9,209.8z M657.8,147.2l5.5,8.9l-29.6,91.1
	l-5.6-8.7L657.8,147.2L657.8,147.2z M597,63.1l4-6.5l4,6.4v158.6c-1.3-0.2-2.7-0.3-4-0.3c-1.4,0-2.7,0.1-4,0.3V63.1L597,63.1z
	 M544.6,148.3l29.3,90.2l-5.6,8.7l-29.2-89.9L544.6,148.3z M510.6,203.7l45.4,62.6l-4.7,7.2L506.1,211L510.6,203.7L510.6,203.7z
	 M484.8,245.6l57.5,41.9l-4.3,6.7l-57.4-41.8L484.8,245.6L484.8,245.6z M460.5,285.2l68.9,22.4l-4.5,7l-68.7-22.4L460.5,285.2
	L460.5,285.2z M432.3,331.1h84.1c-0.6,2.6-0.9,5.3-0.7,8h-88.3L432.3,331.1L432.3,331.1z M342.4,439.2
	c16.1-12.8,53.5-40.6,82.1-48.5c19.8,32.6,29.3,57.6,33.1,68.9c-40.9,7-105.5,28.7-171,69.5L342.4,439.2L342.4,439.2z M235.3,611.3
	l35.6-57.2c74.8-51.8,151.6-77.3,195-83.4l13.2-2.3c1.6-0.3,3.2,0.3,4.2,1.6c0.7,0.9,1.1,2,1,3.1l-1.8,21.8
	c-1.1,13.1,0.4,26.1,4.5,38.6l10,30.9l34.4-2.5c4.9-0.4,9.5,2,12.1,6.1c1.9,3,2.9,6.5,2.9,10v14.8c-48.5-0.9-182.9,12.8-261.1,47.1
	L235.3,611.3L235.3,611.3z M441.5,728.8L413,712.6l42.1-4.2l-0.3-51.5c0.1-1.6,0.5-11-5.3-17.2c-3.4-3.7-8.2-5.6-14.1-5.6
	c-8.7,0-15.7,2.6-20.6,7.7c-7.7,7.9-7.7,19-7.7,20.5l-0.9,46.4l-24-13.7l0.7-30.6c0.2-1.7,0.8-9.9-4.1-15.4
	c-1.9-2.2-5.5-4.8-11.7-4.8h-0.1c-17.7,0.5-22.4,17.1-22.4,25.9v3.5l-45.5-26c42.8-17.1,97-27.4,136.6-33.2c46.4-6.8,89-9.7,111-9.2
	v15.2l19.5,70.5l20.8,1.8c16.2,1.4,29.5,13.5,32.4,29.3l0.5,2.5C592.2,724.1,497.3,722.9,441.5,728.8L441.5,728.8L441.5,728.8z
	 M601,819.8l-6.2-3.5l-0.3-32.5c0.2-2.2,1.2-14.8-6.6-23.6c-4.9-5.6-12.1-8.4-21.4-8.4c-9.3,0-16.5,2.8-21.5,8.4
	c-7.9,8.9-7.1,21.5-6.9,23.6v0.3l-77.9-44.4c57.8-4.2,140.5-3.1,161.6-2.7l11.7,64.3h0L601,819.8L601,819.8z M631.4,719.8
	c-3.9-21.3-21.8-37.5-43.5-39.4l-12.2-1.1l-16.8-60.6v-20.7l130.4-4.7l8.8,59.1l48.2,84.7L645,794.6L631.4,719.8L631.4,719.8z
	 M802.4,647.9c-22.7,0-28.7,19.6-28.7,30v43.5l-16.7,9.5l-47-82.6l-10.1-67.7l-21,0.8v-28.5c33.4,0.2,194.9,4.5,282.1,61.9
	l-129.8,74v-10.8h0C831.1,667.5,825.1,647.9,802.4,647.9L802.4,647.9z"/>
<path class="st0" d="M525.4,630.1c-4.9-4.4-11.2-6.3-18.7-5.7c-20.7,1.8-26.6,20.6-26.8,30.4v51.4l55-2.7v-49.8
	C534.8,653.1,534.7,638.5,525.4,630.1z"/>
<path class="st1" d="M600.2,820L234,611.6L600.2,24l366.2,587.6L600.2,820z"/>
<path class="st2" d="M416.3,538.9c0.1-1.2,0.1-8-4.7-13.1c-3.2-3.3-7.6-5-13.2-5c-14.7,0-19.2,15.4-19.6,23.6l-1.7,42.4l38.7-10.5
	L416.3,538.9L416.3,538.9z"/>
<path class="st2" d="M313.1,576.7c0.1-1,0.2-4.9-2.7-8.3c-2.3-2.7-5.8-4.2-10.2-4.5c-3.6-0.2-6.8,0.9-9.3,3.1
	c-4.6,4.2-5,11.2-5.1,12.2l-1.7,37.9l28.1-12.5L313.1,576.7L313.1,576.7z"/>
<path class="st2" d="M361.4,589.6v-2.7l1.7-30.1c0.3-1.7,1.2-9.4-3.5-15c-2-2.4-5.8-5.2-12.6-5.2c-14.9,0-19.5,14.7-19.9,22.4
	l-2,42.8l33.6-11.3L361.4,589.6L361.4,589.6z"/>
<path class="st2" d="M726.8,613.2h41.6V576l-41.6-3.3V613.2z"/>
<path class="st2" d="M471.5,525.3c0.1-1.4,0.5-7.9-4.1-13.1c-3.7-4.2-9.4-6.3-16.9-6.3c-17.1,0-21.6,16.5-21.6,25.2v43.5l41-7.4
	L471.5,525.3z"/>
<path class="st2" d="M662.1,623.5c0-7.8-5.2-22.6-24.8-22.6c-19.6,0-24.8,14.8-24.8,22.6v47.9h49.6L662.1,623.5L662.1,623.5z"/>
<path class="st2" d="M849,588.6l-40.4-8V616l40.4,4.8V588.6z"/>
<path class="st2" d="M696.2,690.2h-38v48.5h38V690.2z"/>
<path class="st2" d="M600.2,24L234,611.6L600.2,820l366.2-208.4C823.3,382.1,743.2,253.5,600.2,24z M756.9,457.9l-9.3-6L657.1,390
	l4.4-6.2l91.5,62.7L756.9,457.9z M600.2,423.7l-48-66.7l48,26.2l48-26.2L600.2,423.7z M604,449.1v116.1h-7.7V449.1
	c1.3,0.2,2.5,0.3,3.8,0.3C601.5,449.4,602.7,449.3,604,449.1z M538.8,383.7l4.4,6.2L486,431.5l-3.5-6.9L538.8,383.7z M466.1,391.4
	l-3.5-6.9l62.2-20.2l4.3,6l0.2,0.5L466.1,391.4z M552.5,403l4.7,6.6L513,470.2l-2.6-9.4L552.5,403z M569.3,426.5l5.5,7.7l-32.2,99
	l-8.1,0.1L569.3,426.5z M548.4,344.2l51.8-79.7l51.8,79.7l-51.8,28.3L548.4,344.2z M631,426.5l30.9,95.2h-8l-28.4-87.4L631,426.5z
	 M643.1,409.5l4.7-6.6L736,524.3l-10.2-1.1L643.1,409.5z M812.6,416.9l-141.8-46.1l4.7-6.5l130.8,42.5L812.6,416.9L812.6,416.9z
	 M769.2,347.7h-87.4c0.1-2.6-0.1-5.1-0.7-7.7h83.3L769.2,347.7z M740.7,302.2l-67.8,22l-4.3-6.6l67.9-22.1L740.7,302.2z
	 M716.7,263.9l-56.3,40.9l-4.2-6.4l56.4-41L716.7,263.9L716.7,263.9z M691.8,224.2L647.6,285l-4.4-6.9l44.3-60.9L691.8,224.2z
	 M654.4,164.5l5.3,8.5l-28.3,87l-5.4-8.3L654.4,164.5L654.4,164.5z M596.4,84.2l3.8-6.2l3.8,6.1v151.4c-1.3-0.2-2.5-0.3-3.8-0.3
	c-1.3,0-2.6,0.1-3.8,0.3V84.2L596.4,84.2z M546.3,165.6l28,86.1l-5.3,8.3L541,174.1L546.3,165.6z M513.7,218.4l43.4,59.8l-4.4,6.9
	l-43.3-59.6L513.7,218.4L513.7,218.4z M489.1,258.4l55,40l-4.2,6.4L485.1,265L489.1,258.4L489.1,258.4z M465.8,296.2l65.9,21.4
	l-4.3,6.6l-65.7-21.4L465.8,296.2L465.8,296.2z M438.8,340h80.4c-0.6,2.5-0.8,5.1-0.7,7.7h-84.4L438.8,340L438.8,340z M352.9,443.2
	c15.4-12.2,51.1-38.8,78.5-46.3c18.9,31.1,28,55,31.6,65.7c-39.1,6.7-100.9,27.4-163.5,66.4L352.9,443.2L352.9,443.2z M250.5,607.4
	l34-54.6c71.5-49.5,145-73.7,186.5-79.6l12.7-2.2c1.5-0.3,3.1,0.3,4,1.5c0.7,0.8,1,1.9,0.9,3l-1.7,20.8c-1,12.5,0.4,24.9,4.3,36.8
	l9.5,29.5l32.9-2.4c4.6-0.3,9.1,1.9,11.5,5.8c1.8,2.9,2.8,6.2,2.8,9.6v14.1c-46.4-0.9-174.9,12.2-249.6,45L250.5,607.4L250.5,607.4z
	 M447.6,719.6l-27.2-15.5l40.2-4l-0.3-49.1c0.1-1.6,0.4-10.5-5.1-16.5c-3.3-3.6-7.8-5.4-13.5-5.4c-8.3,0-15,2.5-19.7,7.4
	c-7.3,7.6-7.4,18.2-7.4,19.5l-0.8,44.3l-22.9-13l0.7-29.2c0.2-1.6,0.7-9.4-4-14.7c-1.9-2.1-5.3-4.6-11.2-4.6h-0.1
	c-17,0.4-21.4,16.3-21.4,24.7v3.4l-43.5-24.8c40.9-16.3,92.8-26.2,130.6-31.7c44.4-6.5,85.1-9.2,106.1-8.8v14.6l18.7,67.3l19.9,1.7
	c15.5,1.3,28.2,12.8,31,28l0.4,2.4C591.8,715.1,501,714,447.6,719.6L447.6,719.6L447.6,719.6z M600.2,806.4l-5.9-3.4L594,772
	c0.2-2.1,1.1-14.1-6.3-22.5c-4.7-5.3-11.6-8-20.5-8c-8.9,0-15.8,2.7-20.5,8c-7.6,8.5-6.8,20.5-6.6,22.5v0.2l-74.5-42.4
	c55.2-4,134.3-2.9,154.5-2.6l11.2,61.3h0L600.2,806.4L600.2,806.4z M629.2,711c-3.7-20.4-20.8-35.8-41.6-37.6l-11.7-1l-16-57.9
	v-19.8l124.6-4.5l8.4,56.4l46.1,80.8l-96.7,55L629.2,711L629.2,711z M792.7,642.4c-21.7,0-27.4,18.7-27.4,28.6v41.5l-16,9.1
	l-44.9-78.9l-9.7-64.7l-20.1,0.7v-27.2c31.9,0.2,186.3,4.2,269.7,59.1l-124.1,70.6V671h0C820.1,661.1,814.4,642.4,792.7,642.4
	L792.7,642.4z"/>
<path class="st2" d="M527.9,625.4c-4.6-4.2-10.7-6.1-17.9-5.4c-19.8,1.7-25.4,19.7-25.7,29V698l52.5-2.6v-47.5
	C536.8,647.3,536.7,633.4,527.9,625.4z"/>
<path class="st2" d="M20.5,1090V901h31v189H20.5z M41.8,1090v-28.3h105.8v28.3H41.8z M41.8,1007.1v-27.3h96.7v27.3H41.8z
	 M41.8,929.3V901h104.5v28.3H41.8z M221.9,1090V906.4h31.1V1090H221.9z M160.3,929.3V901h154.2v28.3H160.3z M330.7,1090V901h31v189
	H330.7z M450.9,1090V901h31.1v189H450.9z M352.1,1006.3V978h105.6v28.3H352.1z"/>
<path class="st2" d="M576.8,1009.8v-25.7h47.8c9.5,0,16.9-2.4,22.1-7.3c5.4-5,8.1-12,8.1-20.8c0-7.9-2.6-14.6-7.8-20
	c-5.2-5.4-12.6-8.1-22.1-8.1h-48.1v-27h49.4c11.9,0,22.3,2.4,31.3,7.3c9,4.7,15.9,11.2,20.8,19.4c5,8.1,7.6,17.4,7.6,27.8
	c0,11-2.5,20.5-7.6,28.6c-4.9,8.1-11.8,14.4-20.8,18.9s-19.4,6.8-31.3,6.8H576.8z M555.5,1090V901h31v189H555.5z M659.2,1090
	l-66.2-82.1l28.9-10.5l76.4,92.6H659.2z M758.8,1092.7c-12.6,0-24-3-34.3-8.9c-10.3-6.1-18.5-14.3-24.6-24.6
	c-5.9-10.3-8.9-21.7-8.9-34.3c0-12.6,3-23.9,8.9-34c6.1-10.1,14.3-18.1,24.6-24c10.3-6.1,21.7-9.2,34.3-9.2c12.8,0,24.3,3,34.6,8.9
	c10.3,5.9,18.4,14,24.3,24.3c6.1,10.1,9.2,21.4,9.2,34c0,12.6-3.1,24-9.2,34.3c-5.9,10.3-14,18.5-24.3,24.6
	C783.1,1089.7,771.6,1092.7,758.8,1092.7z M758.8,1064.1c7.4,0,13.9-1.6,19.4-4.9c5.8-3.4,10.2-8.1,13.2-14
	c3.2-5.9,4.9-12.7,4.9-20.2c0-7.6-1.6-14.2-4.9-20s-7.7-10.3-13.2-13.5c-5.6-3.4-12.1-5.1-19.4-5.1c-7.2,0-13.7,1.7-19.4,5.1
	c-5.6,3.2-10,7.7-13.2,13.5c-3.1,5.8-4.6,12.4-4.6,20c0,7.6,1.5,14.3,4.6,20.2c3.2,5.9,7.7,10.6,13.2,14
	C745.1,1062.5,751.6,1064.1,758.8,1064.1z M842.9,1090v-75.3c0-11.2,2.4-21,7.3-29.4c4.9-8.6,11.6-15.4,20.2-20.2s18.6-7.3,30-7.3
	c11.2,0,20.7,2.5,28.6,7.6c8.1,4.9,14.3,11.5,18.6,20h-9.2c4.3-8.5,10.4-15.1,18.4-20c8.1-5,17.7-7.6,28.9-7.6
	c11.5,0,21.5,2.4,30,7.3c8.6,4.9,15.4,11.6,20.2,20.2c4.9,8.5,7.3,18.3,7.3,29.4v75.3h-29.7v-71.3c0-10.4-2.4-18.4-7.3-24
	c-4.7-5.6-11.5-8.4-20.5-8.4c-9.2,0-16.1,2.8-20.8,8.4c-4.7,5.4-7,13.4-7,24v71.3h-29.7v-71.3c0-10.6-2.3-18.6-7-24
	c-4.7-5.6-11.6-8.4-20.8-8.4c-9,0-15.9,2.8-20.8,8.4c-4.7,5.4-7,13.4-7,24v71.3H842.9z M1127.7,1092.7c-13,0-24.7-2.9-35.1-8.6
	c-10.3-5.9-18.4-14-24.6-24.3c-5.9-10.3-8.9-21.8-8.9-34.6c0-12.8,3-24.2,8.9-34.3c5.9-10.3,13.9-18.4,24-24.3
	c10.3-5.9,21.6-8.9,34-8.9c12.1,0,22.7,2.8,31.9,8.4c9.4,5.6,16.7,13.2,21.9,23c5.4,9.7,8.1,20.8,8.1,33.2c0,2.2-0.2,4.4-0.5,6.8
	c-0.2,2.2-0.5,4.6-1.1,7.3h-106.4V1012h91l-11.1,9.7c-0.4-7.9-1.9-14.6-4.6-20c-2.7-5.4-6.6-9.5-11.6-12.4
	c-4.9-2.9-10.9-4.3-18.1-4.3c-7.6,0-14.1,1.6-19.7,4.9c-5.6,3.2-9.9,7.8-13,13.8c-3.1,5.8-4.6,12.7-4.6,20.8
	c0,8.1,1.6,15.2,4.9,21.3s7.8,10.9,13.8,14.3c5.9,3.2,12.8,4.9,20.5,4.9c6.7,0,12.8-1.2,18.4-3.5c5.8-2.3,10.6-5.8,14.6-10.3
	l18.9,19.2c-6.3,7.4-14,13-23,16.7S1137.8,1092.7,1127.7,1092.7z"/>
<path class="st2" d="M17.2,1209v-52.7h7.1v52.7H17.2z M51.3,1209v-52.7h7.1v52.7H51.3z M22.1,1185v-6.5H53v6.5H22.1z M85,1209.8
	c-3.3,0-6.3-0.8-9-2.4c-2.7-1.7-4.8-3.9-6.4-6.8c-1.5-2.8-2.3-6-2.3-9.6c0-3.6,0.8-6.7,2.3-9.6c1.6-2.8,3.7-5.1,6.3-6.8
	c2.7-1.7,5.7-2.5,9-2.5c2.7,0,5.2,0.6,7.3,1.8c2.2,1.1,3.9,2.7,5.2,4.7c1.3,2,2.1,4.3,2.2,6.9v10.9c-0.2,2.6-0.9,4.9-2.2,6.9
	c-1.3,2-3,3.6-5.2,4.8C90.3,1209.2,87.8,1209.8,85,1209.8z M86.2,1203.3c3.4,0,6.1-1.1,8.2-3.4c2.1-2.3,3.1-5.3,3.1-8.9
	c0-2.5-0.5-4.6-1.4-6.5c-0.9-1.9-2.2-3.3-4-4.3c-1.7-1.1-3.7-1.6-6-1.6s-4.3,0.5-6.1,1.6c-1.7,1.1-3.1,2.5-4.1,4.4
	c-1,1.8-1.4,3.9-1.4,6.3c0,2.4,0.5,4.6,1.4,6.5c1,1.8,2.4,3.3,4.2,4.3C81.9,1202.8,83.9,1203.3,86.2,1203.3z M97,1209v-9.7l1.3-8.8
	l-1.3-8.7v-8.8h6.9v36.1H97z M130.4,1209.8c-3.5,0-6.8-0.8-9.7-2.5c-2.8-1.7-5.1-3.9-6.8-6.8c-1.6-2.9-2.4-6.1-2.4-9.6
	c0-3.5,0.8-6.7,2.4-9.6c1.7-2.8,3.9-5.1,6.8-6.7c2.9-1.7,6.1-2.5,9.7-2.5c2.8,0,5.4,0.5,7.8,1.6c2.4,1,4.4,2.5,6.2,4.5l-4.6,4.6
	c-1.1-1.3-2.5-2.3-4.1-3c-1.6-0.7-3.3-1.1-5.2-1.1c-2.3,0-4.3,0.5-6.1,1.6c-1.8,1-3.2,2.4-4.2,4.2c-1,1.8-1.5,3.9-1.5,6.3
	s0.5,4.5,1.5,6.3c1,1.8,2.4,3.3,4.2,4.3c1.8,1.1,3.8,1.6,6.1,1.6c1.9,0,3.7-0.3,5.2-1c1.6-0.7,3-1.7,4.2-3l4.5,4.6
	c-1.7,1.9-3.7,3.4-6.2,4.5C135.8,1209.2,133.2,1209.8,130.4,1209.8z M174.2,1209l-16.9-18.5l16.7-17.6h8.3l-18.6,19.5l0.3-4l19,20.6
	H174.2z M151.1,1209v-54.3h6.8v54.3H151.1z M187.7,1209v-36.1h6.8v36.1H187.7z M191.1,1165.7c-1.3,0-2.3-0.4-3.1-1.2
	c-0.8-0.9-1.2-1.9-1.2-3.2c0-1.2,0.4-2.2,1.2-3c0.8-0.9,1.8-1.3,3.1-1.3c1.3,0,2.3,0.4,3.1,1.3c0.8,0.8,1.2,1.8,1.2,3
	c0,1.3-0.4,2.3-1.2,3.2C193.4,1165.3,192.4,1165.7,191.1,1165.7z M230.1,1209v-21.1c0-2.7-0.9-5-2.6-6.8c-1.7-1.8-4-2.7-6.7-2.7
	c-1.8,0-3.4,0.4-4.9,1.2c-1.4,0.8-2.5,1.9-3.3,3.3c-0.8,1.4-1.2,3-1.2,4.9l-2.8-1.6c0-2.7,0.6-5.2,1.8-7.3c1.2-2.1,2.9-3.8,5.1-5
	c2.2-1.3,4.6-1.9,7.4-1.9c2.7,0,5.1,0.7,7.2,2c2.1,1.4,3.8,3.2,5,5.4c1.2,2.2,1.8,4.5,1.8,7v22.4H230.1z M204.6,1209v-36.1h6.8v36.1
	H204.6z M261.2,1224.9c-3.7,0-7-0.7-9.9-2.1c-2.8-1.4-5.1-3.3-6.8-5.8l4.4-4.5c1.5,1.9,3.2,3.3,5.2,4.3c2,1,4.4,1.5,7.2,1.5
	c3.7,0,6.6-1,8.7-3c2.2-1.9,3.3-4.5,3.3-7.8v-9l1.2-8.1l-1.2-8.1v-9.5h6.8v34.7c0,3.4-0.8,6.5-2.4,9c-1.6,2.6-3.8,4.6-6.7,6.1
	C268.3,1224.2,265,1224.9,261.2,1224.9z M261.2,1208.4c-3.3,0-6.3-0.8-8.9-2.3c-2.6-1.6-4.6-3.7-6.2-6.5c-1.5-2.8-2.3-5.9-2.3-9.3
	c0-3.4,0.8-6.5,2.3-9.2c1.5-2.7,3.6-4.9,6.2-6.5c2.6-1.6,5.6-2.4,8.9-2.4c2.8,0,5.3,0.6,7.5,1.7c2.2,1.1,3.9,2.7,5.2,4.7
	c1.3,2,2,4.3,2.1,7v9.6c-0.2,2.6-0.9,5-2.2,7c-1.3,2-3,3.5-5.2,4.6C266.5,1207.8,264,1208.4,261.2,1208.4z M262.6,1201.9
	c2.2,0,4.2-0.5,5.9-1.4c1.7-1,3-2.3,4-4c0.9-1.8,1.4-3.8,1.4-6.2c0-2.3-0.5-4.4-1.4-6.1c-0.9-1.8-2.2-3.1-3.9-4.1
	c-1.7-1-3.6-1.5-5.9-1.5s-4.3,0.5-6,1.5c-1.7,1-3.1,2.3-4.1,4.1c-1,1.7-1.4,3.7-1.4,6s0.5,4.3,1.4,6.1c1,1.8,2.4,3.2,4.1,4.2
	C258.3,1201.4,260.3,1201.9,262.6,1201.9z M331.6,1209v-21.1c0-2.7-0.9-5-2.6-6.8c-1.7-1.8-4-2.7-6.7-2.7c-1.8,0-3.4,0.4-4.9,1.2
	c-1.4,0.8-2.5,1.9-3.3,3.3c-0.8,1.4-1.2,3-1.2,4.9l-2.8-1.6c0-2.7,0.6-5.2,1.8-7.3c1.2-2.1,2.9-3.8,5.1-5c2.2-1.3,4.6-1.9,7.4-1.9
	s5.1,0.6,7.2,1.8c2.1,1.2,3.8,2.9,5,5.1c1.2,2.2,1.8,4.7,1.8,7.5v22.4H331.6z M306.1,1209v-54.3h6.8v54.3H306.1z M347.8,1209v-36.1
	h6.8v36.1H347.8z M351.2,1165.7c-1.3,0-2.3-0.4-3.1-1.2c-0.8-0.9-1.2-1.9-1.2-3.2c0-1.2,0.4-2.2,1.2-3c0.8-0.9,1.8-1.3,3.1-1.3
	c1.3,0,2.3,0.4,3.1,1.3c0.8,0.8,1.2,1.8,1.2,3c0,1.3-0.4,2.3-1.2,3.2C353.5,1165.3,352.5,1165.7,351.2,1165.7z M376.2,1209.8
	c-2,0-4-0.2-5.8-0.8c-1.8-0.6-3.4-1.3-4.9-2.3c-1.5-1-2.8-2.2-4-3.6l4.4-4.4c1.3,1.6,2.8,2.8,4.6,3.7c1.7,0.8,3.6,1.1,5.8,1.1
	c2.1,0,3.8-0.4,4.9-1.1c1.2-0.8,1.7-1.8,1.7-3.1c0-1.3-0.5-2.3-1.4-3c-0.9-0.8-2.1-1.4-3.6-1.8c-1.5-0.5-3-1-4.7-1.4
	c-1.6-0.5-3.2-1.1-4.6-1.9c-1.5-0.8-2.7-1.8-3.6-3.1c-0.9-1.3-1.4-3.1-1.4-5.2c0-2.2,0.5-4.1,1.6-5.6c1.1-1.6,2.5-2.9,4.4-3.7
	c1.9-0.9,4.2-1.3,6.9-1.3c2.8,0,5.3,0.5,7.5,1.5c2.2,1,4.1,2.4,5.5,4.4l-4.4,4.4c-1-1.3-2.3-2.3-3.8-3c-1.5-0.7-3.1-1.1-5-1.1
	c-2,0-3.5,0.4-4.6,1.1c-1,0.7-1.5,1.6-1.5,2.8c0,1.2,0.5,2.2,1.4,2.8c0.9,0.7,2.1,1.2,3.6,1.7c1.5,0.5,3.1,0.9,4.7,1.5
	c1.6,0.4,3.2,1.1,4.6,1.9c1.5,0.8,2.7,1.9,3.6,3.3c1,1.4,1.4,3.2,1.4,5.4c0,3.4-1.2,6.1-3.6,8.1
	C383.4,1208.8,380.2,1209.8,376.2,1209.8z M402.7,1209v-51.2h6.8v51.2H402.7z M393.8,1179.1v-6.2h24.6v6.2H393.8z M440.5,1209.8
	c-3.5,0-6.7-0.8-9.6-2.5c-2.8-1.7-5.1-3.9-6.8-6.8c-1.7-2.9-2.5-6.1-2.5-9.7c0-3.5,0.8-6.6,2.5-9.4c1.7-2.8,3.9-5.1,6.8-6.8
	c2.8-1.7,6-2.5,9.6-2.5c3.5,0,6.7,0.8,9.5,2.5c2.9,1.6,5.2,3.8,6.8,6.7c1.7,2.8,2.5,6,2.5,9.5c0,3.5-0.8,6.8-2.5,9.7
	c-1.7,2.8-4,5.1-6.8,6.8C447.2,1208.9,444,1209.8,440.5,1209.8z M440.5,1203.2c2.3,0,4.3-0.5,6.1-1.6c1.8-1.1,3.2-2.5,4.2-4.3
	c1-1.9,1.5-4,1.5-6.4c0-2.3-0.5-4.4-1.6-6.2c-1-1.8-2.4-3.2-4.2-4.2c-1.7-1.1-3.7-1.6-6-1.6s-4.3,0.5-6.1,1.6
	c-1.8,1-3.2,2.4-4.2,4.2c-1,1.8-1.5,3.9-1.5,6.2c0,2.4,0.5,4.5,1.5,6.4c1,1.8,2.4,3.3,4.2,4.3
	C436.2,1202.6,438.2,1203.2,440.5,1203.2z M467,1209v-36.1h6.8v36.1H467z M473.9,1188.4l-2.6-1.1c0-4.6,1.1-8.3,3.2-11
	c2.1-2.7,5.2-4.1,9.2-4.1c1.8,0,3.5,0.3,4.9,1c1.5,0.6,2.8,1.6,4.1,3.1l-4.5,4.6c-0.8-0.8-1.6-1.4-2.5-1.8c-0.9-0.3-2-0.5-3.2-0.5
	c-2.5,0-4.6,0.8-6.2,2.4C474.7,1182.7,473.9,1185.1,473.9,1188.4z M508.7,1209.3l-15.7-36.4h7.6l11.6,28.5h-2.4l12.2-28.5h7.6
	l-16.9,36.4H508.7z M498.4,1224.1l10.6-21.8l3.8,7l-6.8,14.8H498.4z M531.1,1217.4l4.7-9l2.4-0.6c-0.3,0.6-0.6,1-1,1.4
	c-0.4,0.4-0.8,0.5-1.4,0.5c-1.1,0-2.1-0.4-3-1.3c-0.9-0.9-1.3-2-1.3-3.3c0-1.5,0.5-2.7,1.4-3.7c1-1,2.2-1.5,3.6-1.5
	c1.3,0,2.5,0.5,3.5,1.5c1,1,1.5,2.2,1.5,3.7c0,0.6-0.1,1.2-0.4,2.1c-0.2,0.8-0.6,1.8-1.3,3l-5,9.5L531.1,1217.4z M578.9,1209.8
	c-2,0-4-0.2-5.8-0.8c-1.8-0.6-3.4-1.3-4.9-2.3c-1.5-1-2.8-2.2-4-3.6l4.4-4.4c1.3,1.6,2.8,2.8,4.6,3.7c1.7,0.8,3.6,1.1,5.8,1.1
	s3.8-0.4,4.9-1.1c1.2-0.8,1.7-1.8,1.7-3.1c0-1.3-0.5-2.3-1.4-3c-0.9-0.8-2.1-1.4-3.6-1.8c-1.5-0.5-3-1-4.7-1.4
	c-1.6-0.5-3.2-1.1-4.6-1.9c-1.5-0.8-2.7-1.8-3.6-3.1c-0.9-1.3-1.4-3.1-1.4-5.2c0-2.2,0.5-4.1,1.6-5.6c1.1-1.6,2.5-2.9,4.4-3.7
	c1.9-0.9,4.2-1.3,6.9-1.3c2.8,0,5.3,0.5,7.5,1.5c2.2,1,4.1,2.4,5.5,4.4l-4.4,4.4c-1-1.3-2.3-2.3-3.8-3c-1.5-0.7-3.1-1.1-5-1.1
	c-2,0-3.5,0.4-4.6,1.1c-1,0.7-1.5,1.6-1.5,2.8c0,1.2,0.5,2.2,1.4,2.8c0.9,0.7,2.1,1.2,3.6,1.7c1.5,0.5,3.1,0.9,4.7,1.5
	c1.6,0.4,3.2,1.1,4.6,1.9c1.5,0.8,2.7,1.9,3.6,3.3c1,1.4,1.4,3.2,1.4,5.4c0,3.4-1.2,6.1-3.6,8.1
	C586.2,1208.8,583,1209.8,578.9,1209.8z M625.4,1209v-21.1c0-2.7-0.9-5-2.6-6.8c-1.7-1.8-4-2.7-6.7-2.7c-1.8,0-3.4,0.4-4.9,1.2
	c-1.4,0.8-2.5,1.9-3.3,3.3c-0.8,1.4-1.2,3-1.2,4.9l-2.8-1.6c0-2.7,0.6-5.2,1.8-7.3c1.2-2.1,2.9-3.8,5.1-5c2.2-1.3,4.6-1.9,7.4-1.9
	s5.1,0.6,7.2,1.8c2.1,1.2,3.8,2.9,5,5.1c1.2,2.2,1.8,4.7,1.8,7.5v22.4H625.4z M599.9,1209v-54.3h6.8v54.3H599.9z M656.9,1209.8
	c-3.3,0-6.3-0.8-9-2.4c-2.7-1.7-4.8-3.9-6.4-6.8c-1.5-2.8-2.3-6-2.3-9.6c0-3.6,0.8-6.7,2.3-9.6c1.6-2.8,3.7-5.1,6.3-6.8
	c2.7-1.7,5.7-2.5,9-2.5c2.7,0,5.2,0.6,7.3,1.8c2.2,1.1,3.9,2.7,5.2,4.7c1.3,2,2.1,4.3,2.2,6.9v10.9c-0.2,2.6-0.9,4.9-2.2,6.9
	c-1.3,2-3,3.6-5.2,4.8C662.1,1209.2,659.7,1209.8,656.9,1209.8z M658,1203.3c3.4,0,6.1-1.1,8.2-3.4c2.1-2.3,3.1-5.3,3.1-8.9
	c0-2.5-0.5-4.6-1.4-6.5c-0.9-1.9-2.2-3.3-4-4.3c-1.7-1.1-3.7-1.6-6-1.6c-2.3,0-4.3,0.5-6.1,1.6c-1.7,1.1-3.1,2.5-4.1,4.4
	c-1,1.8-1.4,3.9-1.4,6.3c0,2.4,0.5,4.6,1.4,6.5c1,1.8,2.4,3.3,4.2,4.3C653.7,1202.8,655.7,1203.3,658,1203.3z M668.9,1209v-9.7
	l1.3-8.8l-1.3-8.7v-8.8h6.9v36.1H668.9z M704.8,1209.8c-2.7,0-5.2-0.6-7.4-1.7c-2.2-1.2-3.9-2.8-5.2-4.8c-1.3-2-2.1-4.3-2.2-6.9
	v-10.9c0.2-2.6,0.9-4.9,2.2-6.9c1.4-2,3.1-3.6,5.3-4.7c2.2-1.2,4.7-1.8,7.4-1.8c3.3,0,6.3,0.8,8.9,2.5c2.7,1.7,4.8,3.9,6.3,6.8
	c1.5,2.8,2.3,6,2.3,9.6c0,3.5-0.8,6.7-2.3,9.6c-1.5,2.8-3.6,5.1-6.3,6.8C711,1208.9,708.1,1209.8,704.8,1209.8z M703.6,1203.3
	c2.3,0,4.3-0.5,6-1.6c1.7-1.1,3.1-2.5,4.1-4.3c1-1.9,1.5-4,1.5-6.5c0-2.4-0.5-4.5-1.5-6.4c-1-1.9-2.4-3.3-4.1-4.3
	c-1.7-1.1-3.7-1.6-5.9-1.6c-2.3,0-4.3,0.5-6,1.6c-1.7,1-3.1,2.5-4,4.3c-1,1.9-1.4,4-1.4,6.5c0,2.4,0.5,4.5,1.4,6.4
	c1,1.8,2.3,3.3,4,4.3C699.4,1202.8,701.4,1203.3,703.6,1203.3z M685.8,1224.1v-51.2h6.8v9.5l-1.3,8.7l1.3,8.8v24.2H685.8z
	 M730.1,1209v-36.1h6.8v36.1H730.1z M733.5,1165.7c-1.3,0-2.3-0.4-3.1-1.2c-0.8-0.9-1.2-1.9-1.2-3.2c0-1.2,0.4-2.2,1.2-3
	c0.8-0.9,1.8-1.3,3.1-1.3c1.3,0,2.3,0.4,3.1,1.3c0.8,0.8,1.2,1.8,1.2,3c0,1.3-0.4,2.3-1.2,3.2
	C735.8,1165.3,734.8,1165.7,733.5,1165.7z M772.5,1209v-21.1c0-2.7-0.9-5-2.6-6.8c-1.7-1.8-4-2.7-6.7-2.7c-1.8,0-3.4,0.4-4.9,1.2
	c-1.4,0.8-2.5,1.9-3.3,3.3c-0.8,1.4-1.2,3-1.2,4.9l-2.8-1.6c0-2.7,0.6-5.2,1.8-7.3c1.2-2.1,2.9-3.8,5.1-5c2.2-1.3,4.6-1.9,7.4-1.9
	c2.7,0,5.1,0.7,7.2,2c2.1,1.4,3.8,3.2,5,5.4c1.2,2.2,1.8,4.5,1.8,7v22.4H772.5z M747,1209v-36.1h6.8v36.1H747z M803.6,1224.9
	c-3.7,0-7-0.7-9.9-2.1c-2.8-1.4-5.1-3.3-6.8-5.8l4.4-4.5c1.5,1.9,3.2,3.3,5.2,4.3c2,1,4.4,1.5,7.2,1.5c3.7,0,6.6-1,8.7-3
	c2.2-1.9,3.3-4.5,3.3-7.8v-9l1.2-8.1l-1.2-8.1v-9.5h6.8v34.7c0,3.4-0.8,6.5-2.4,9c-1.6,2.6-3.8,4.6-6.7,6.1
	C810.6,1224.2,807.4,1224.9,803.6,1224.9z M803.6,1208.4c-3.3,0-6.3-0.8-8.9-2.3c-2.6-1.6-4.6-3.7-6.2-6.5c-1.5-2.8-2.3-5.9-2.3-9.3
	c0-3.4,0.8-6.5,2.3-9.2c1.5-2.7,3.6-4.9,6.2-6.5c2.6-1.6,5.6-2.4,8.9-2.4c2.8,0,5.3,0.6,7.5,1.7c2.2,1.1,3.9,2.7,5.2,4.7
	c1.3,2,2,4.3,2.1,7v9.6c-0.2,2.6-0.9,5-2.2,7c-1.3,2-3,3.5-5.2,4.6C808.9,1207.8,806.4,1208.4,803.6,1208.4z M805,1201.9
	c2.2,0,4.2-0.5,5.9-1.4c1.7-1,3-2.3,4-4c0.9-1.8,1.4-3.8,1.4-6.2c0-2.3-0.5-4.4-1.4-6.1c-0.9-1.8-2.2-3.1-3.9-4.1
	c-1.7-1-3.6-1.5-5.9-1.5c-2.3,0-4.3,0.5-6,1.5c-1.7,1-3.1,2.3-4.1,4.1c-1,1.7-1.4,3.7-1.4,6s0.5,4.3,1.4,6.1c1,1.8,2.4,3.2,4.1,4.2
	C800.7,1201.4,802.7,1201.9,805,1201.9z M854,1209v-51.2h6.8v51.2H854z M845.1,1179.1v-6.2h24.6v6.2H845.1z M902,1209v-21.1
	c0-2.7-0.9-5-2.6-6.8c-1.7-1.8-4-2.7-6.7-2.7c-1.8,0-3.4,0.4-4.9,1.2c-1.4,0.8-2.5,1.9-3.3,3.3c-0.8,1.4-1.2,3-1.2,4.9l-2.8-1.6
	c0-2.7,0.6-5.2,1.8-7.3c1.2-2.1,2.9-3.8,5.1-5c2.2-1.3,4.6-1.9,7.4-1.9s5.1,0.6,7.2,1.8c2.1,1.2,3.8,2.9,5,5.1
	c1.2,2.2,1.8,4.7,1.8,7.5v22.4H902z M876.4,1209v-54.3h6.8v54.3H876.4z M934.8,1209.8c-3.6,0-6.8-0.8-9.7-2.4
	c-2.9-1.7-5.2-3.9-6.8-6.8c-1.7-2.8-2.5-6.1-2.5-9.7c0-3.5,0.8-6.7,2.4-9.6c1.7-2.8,3.9-5.1,6.7-6.7c2.8-1.7,6-2.5,9.5-2.5
	c3.3,0,6.3,0.8,8.8,2.3c2.6,1.5,4.6,3.6,6,6.3c1.5,2.7,2.2,5.7,2.2,9.1c0,0.5,0,1.1-0.1,1.7c-0.1,0.6-0.2,1.2-0.3,2h-30.5v-5.7h26.8
	l-2.5,2.2c0-2.4-0.4-4.5-1.3-6.2c-0.9-1.7-2.1-3-3.6-3.9c-1.6-1-3.5-1.4-5.7-1.4c-2.3,0-4.4,0.5-6.2,1.5c-1.8,1-3.1,2.4-4.1,4.2
	c-1,1.8-1.4,4-1.4,6.5c0,2.5,0.5,4.8,1.5,6.7c1,1.9,2.5,3.3,4.3,4.4c1.9,1,4,1.5,6.5,1.5c2,0,3.9-0.4,5.5-1.1
	c1.7-0.7,3.2-1.8,4.4-3.2l4.4,4.5c-1.7,2-3.9,3.6-6.4,4.6C940.3,1209.2,937.6,1209.8,934.8,1209.8z M979.8,1209v-41.5
	c0-2.7,0.6-5,1.7-7c1.2-2,2.8-3.6,4.8-4.8c2.1-1.2,4.5-1.7,7.2-1.7c2.1,0,3.9,0.3,5.4,1.1c1.5,0.7,2.9,1.8,4.2,3.1l-4.5,4.4
	c-0.7-0.7-1.4-1.2-2.2-1.6c-0.8-0.4-1.8-0.6-3-0.6c-2.2,0-3.9,0.6-5.1,1.9c-1.2,1.3-1.7,3-1.7,5.2v41.5H979.8z M970.9,1179.1v-6.2
	h27.2v6.2H970.9z M1019.5,1209.8c-2.9,0-5.6-0.7-8-2c-2.3-1.4-4.2-3.2-5.5-5.6c-1.3-2.4-2-5.1-2-8.3v-21h6.8v20.7c0,2,0.3,3.7,1,5.2
	c0.7,1.4,1.7,2.5,3,3.3c1.3,0.8,2.9,1.1,4.6,1.1c2.7,0,4.8-0.8,6.3-2.5c1.5-1.7,2.3-4.1,2.3-7.1v-20.7h6.8v21c0,3.1-0.7,5.9-2,8.3
	c-1.3,2.4-3.1,4.3-5.5,5.6C1025.3,1209.1,1022.6,1209.8,1019.5,1209.8z M1049.7,1209v-51.2h6.8v51.2H1049.7z M1040.8,1179.1v-6.2
	h24.6v6.2H1040.8z M1086.7,1209.8c-2.9,0-5.6-0.7-8-2c-2.3-1.4-4.2-3.2-5.5-5.6c-1.3-2.4-2-5.1-2-8.3v-21h6.8v20.7
	c0,2,0.3,3.7,1,5.2c0.7,1.4,1.7,2.5,3,3.3c1.3,0.8,2.9,1.1,4.6,1.1c2.7,0,4.8-0.8,6.3-2.5c1.5-1.7,2.3-4.1,2.3-7.1v-20.7h6.8v21
	c0,3.1-0.7,5.9-2,8.3c-1.3,2.4-3.1,4.3-5.5,5.6C1092.4,1209.1,1089.8,1209.8,1086.7,1209.8z M1111.3,1209v-36.1h6.8v36.1H1111.3z
	 M1118.2,1188.4l-2.6-1.1c0-4.6,1.1-8.3,3.2-11c2.1-2.7,5.2-4.1,9.2-4.1c1.8,0,3.5,0.3,4.9,1c1.5,0.6,2.8,1.6,4.1,3.1l-4.5,4.6
	c-0.8-0.8-1.6-1.4-2.5-1.8c-0.9-0.3-2-0.5-3.2-0.5c-2.5,0-4.6,0.8-6.2,2.4S1118.2,1185.1,1118.2,1188.4z M1157.4,1209.8
	c-3.6,0-6.8-0.8-9.7-2.4c-2.9-1.7-5.2-3.9-6.8-6.8c-1.7-2.8-2.5-6.1-2.5-9.7c0-3.5,0.8-6.7,2.4-9.6c1.7-2.8,3.9-5.1,6.7-6.7
	c2.8-1.7,6-2.5,9.5-2.5c3.3,0,6.3,0.8,8.8,2.3c2.6,1.5,4.6,3.6,6,6.3c1.5,2.7,2.2,5.7,2.2,9.1c0,0.5,0,1.1-0.1,1.7
	c0,0.6-0.2,1.2-0.3,2h-30.5v-5.7h26.8l-2.5,2.2c0-2.4-0.4-4.5-1.3-6.2c-0.9-1.7-2.1-3-3.7-3.9c-1.6-1-3.5-1.4-5.7-1.4
	c-2.3,0-4.4,0.5-6.2,1.5c-1.8,1-3.1,2.4-4.1,4.2c-1,1.8-1.4,4-1.4,6.5c0,2.5,0.5,4.8,1.5,6.7c1,1.9,2.5,3.3,4.3,4.4
	c1.9,1,4,1.5,6.5,1.5c2,0,3.9-0.4,5.6-1.1c1.7-0.7,3.2-1.8,4.4-3.2l4.4,4.5c-1.7,2-3.8,3.6-6.4,4.6
	C1162.9,1209.2,1160.2,1209.8,1157.4,1209.8z M1187.4,1209.8c-1.4,0-2.6-0.5-3.6-1.4c-0.9-1-1.4-2.2-1.4-3.6c0-1.4,0.5-2.6,1.4-3.5
	c1-1,2.2-1.4,3.6-1.4c1.4,0,2.6,0.5,3.5,1.4c1,0.9,1.4,2.1,1.4,3.5c0,1.4-0.5,2.6-1.4,3.6C1190,1209.3,1188.8,1209.8,1187.4,1209.8z
	"/>
</svg>
