<svg width="324" height="335" viewBox="0 0 324 335" fill="none" xmlns="http://www.w3.org/2000/svg">
<g style="mix-blend-mode:soft-light">
<path d="M43.1011 95.2689C73.0145 15.1978 164.177 -3.62887 205.13 0.541502C228.871 0.541502 285.256 15.1979 327.989 45.2247C370.722 75.2516 377.845 138.76 376.064 166.761C383.78 185.826 377.845 240.041 292.378 304.384C206.911 368.726 115.51 316.895 80.4928 282.936C55.565 253.743 13.1876 175.34 43.1011 95.2689Z" fill="white"/>
<path d="M65.8539 313.904C68.4046 306.858 76.1782 305.201 79.6703 305.568C81.6947 305.568 86.5027 306.858 90.1467 309.5C93.7906 312.143 94.3979 317.731 94.2461 320.195C94.904 321.873 94.3979 326.644 87.11 332.306C79.8222 337.968 72.0283 333.407 69.0423 330.419C66.9167 327.85 63.3031 320.95 65.8539 313.904Z" fill="white"/>
<path d="M2.49064 277.488C7.82404 262.755 24.0779 259.291 31.3796 260.059C35.6124 260.059 45.6655 262.755 53.2846 268.28C60.9038 273.805 62.1736 285.491 61.8562 290.643C63.2318 294.151 62.1736 304.126 46.9353 315.966C31.6971 327.805 15.4008 318.268 9.15739 312.019C4.71289 306.648 -2.84275 292.222 2.49064 277.488Z" fill="white"/>
</g>
</svg>
