<svg width="1331" height="345" viewBox="0 0 1331 345" fill="none" xmlns="http://www.w3.org/2000/svg">
<path d="M484.08 139.72V229H456.72V216.84C453.947 220.787 450.16 223.987 445.36 226.44C440.667 228.787 435.44 229.96 429.68 229.96C422.853 229.96 416.827 228.467 411.6 225.48C406.373 222.387 402.32 217.96 399.44 212.2C396.56 206.44 395.12 199.667 395.12 191.88V139.72H422.32V188.2C422.32 194.173 423.867 198.813 426.96 202.12C430.053 205.427 434.213 207.08 439.44 207.08C444.773 207.08 448.987 205.427 452.08 202.12C455.173 198.813 456.72 194.173 456.72 188.2V139.72H484.08ZM531.093 154.6C534.293 149.693 538.293 145.853 543.093 143.08C547.893 140.2 553.226 138.76 559.093 138.76V167.72H551.573C544.746 167.72 539.626 169.213 536.213 172.2C532.799 175.08 531.093 180.2 531.093 187.56V229H503.733V139.72H531.093V154.6ZM599.53 152.36C602.09 148.2 605.77 144.84 610.57 142.28C615.37 139.72 620.863 138.44 627.05 138.44C634.41 138.44 641.077 140.307 647.05 144.04C653.023 147.773 657.717 153.107 661.13 160.04C664.65 166.973 666.41 175.027 666.41 184.2C666.41 193.373 664.65 201.48 661.13 208.52C657.717 215.453 653.023 220.84 647.05 224.68C641.077 228.413 634.41 230.28 627.05 230.28C620.757 230.28 615.263 229.053 610.57 226.6C605.877 224.04 602.197 220.68 599.53 216.52V229H572.17V110.6H599.53V152.36ZM638.57 184.2C638.57 177.373 636.65 172.04 632.81 168.2C629.077 164.253 624.437 162.28 618.89 162.28C613.45 162.28 608.81 164.253 604.97 168.2C601.237 172.147 599.37 177.533 599.37 184.36C599.37 191.187 601.237 196.573 604.97 200.52C608.81 204.467 613.45 206.44 618.89 206.44C624.33 206.44 628.97 204.467 632.81 200.52C636.65 196.467 638.57 191.027 638.57 184.2ZM764.924 182.92C764.924 185.48 764.764 188.147 764.444 190.92H702.524C702.95 196.467 704.71 200.733 707.804 203.72C711.004 206.6 714.897 208.04 719.484 208.04C726.31 208.04 731.057 205.16 733.724 199.4H762.844C761.35 205.267 758.63 210.547 754.684 215.24C750.844 219.933 745.99 223.613 740.124 226.28C734.257 228.947 727.697 230.28 720.444 230.28C711.697 230.28 703.91 228.413 697.084 224.68C690.257 220.947 684.924 215.613 681.084 208.68C677.244 201.747 675.324 193.64 675.324 184.36C675.324 175.08 677.19 166.973 680.924 160.04C684.764 153.107 690.097 147.773 696.924 144.04C703.75 140.307 711.59 138.44 720.444 138.44C729.084 138.44 736.764 140.253 743.484 143.88C750.204 147.507 755.43 152.68 759.164 159.4C763.004 166.12 764.924 173.96 764.924 182.92ZM736.924 175.72C736.924 171.027 735.324 167.293 732.124 164.52C728.924 161.747 724.924 160.36 720.124 160.36C715.537 160.36 711.644 161.693 708.444 164.36C705.35 167.027 703.43 170.813 702.684 175.72H736.924ZM792.158 230.28C787.358 230.28 783.411 228.893 780.318 226.12C777.331 223.24 775.838 219.72 775.838 215.56C775.838 211.293 777.331 207.72 780.318 204.84C783.411 201.96 787.358 200.52 792.158 200.52C796.851 200.52 800.691 201.96 803.678 204.84C806.771 207.72 808.318 211.293 808.318 215.56C808.318 219.72 806.771 223.24 803.678 226.12C800.691 228.893 796.851 230.28 792.158 230.28ZM908.674 182.92C908.674 185.48 908.514 188.147 908.194 190.92H846.274C846.7 196.467 848.46 200.733 851.554 203.72C854.754 206.6 858.647 208.04 863.234 208.04C870.06 208.04 874.807 205.16 877.474 199.4H906.594C905.1 205.267 902.38 210.547 898.434 215.24C894.594 219.933 889.74 223.613 883.874 226.28C878.007 228.947 871.447 230.28 864.194 230.28C855.447 230.28 847.66 228.413 840.834 224.68C834.007 220.947 828.674 215.613 824.834 208.68C820.994 201.747 819.074 193.64 819.074 184.36C819.074 175.08 820.94 166.973 824.674 160.04C828.514 153.107 833.847 147.773 840.674 144.04C847.5 140.307 855.34 138.44 864.194 138.44C872.834 138.44 880.514 140.253 887.234 143.88C893.954 147.507 899.18 152.68 902.914 159.4C906.754 166.12 908.674 173.96 908.674 182.92ZM880.674 175.72C880.674 171.027 879.074 167.293 875.874 164.52C872.674 161.747 868.674 160.36 863.874 160.36C859.287 160.36 855.394 161.693 852.194 164.36C849.1 167.027 847.18 170.813 846.434 175.72H880.674ZM972.868 205.8V229H958.948C949.028 229 941.294 226.6 935.748 221.8C930.201 216.893 927.428 208.947 927.428 197.96V162.44H916.548V139.72H927.428V117.96H954.788V139.72H972.708V162.44H954.788V198.28C954.788 200.947 955.428 202.867 956.708 204.04C957.988 205.213 960.121 205.8 963.108 205.8H972.868ZM1042.99 138.76C1053.23 138.76 1061.44 142.173 1067.63 149C1073.81 155.72 1076.91 165 1076.91 176.84V229H1049.71V180.52C1049.71 174.547 1048.16 169.907 1045.07 166.6C1041.97 163.293 1037.81 161.64 1032.59 161.64C1027.36 161.64 1023.2 163.293 1020.11 166.6C1017.01 169.907 1015.47 174.547 1015.47 180.52V229H988.108V110.6H1015.47V151.72C1018.24 147.773 1022.03 144.627 1026.83 142.28C1031.63 139.933 1037.01 138.76 1042.99 138.76Z" fill="url(#paint0_linear_844_3)"/>
<path d="M268.993 72.1955L311.946 39.3522L271.438 0L268.993 72.1955Z" fill="url(#paint1_linear_844_3)"/>
<path d="M374.904 231.96L366.223 237.795L326.713 220.663L309.701 174.465L249.538 148.093H273.483L222 129.876L271.388 108.217L237.565 111.659L318.032 56.4834L374.904 114.651V206.673H357.244L353.352 211.573L371.112 229.379H374.904V231.96ZM356.795 143.866L336.59 122.32L306.808 117.644L323.919 132.719L338.586 131.484L356.795 143.866Z" fill="url(#paint2_linear_844_3)"/>
<path d="M159.136 306.946C159.136 303.818 159.856 301.012 161.298 298.528C162.77 296.044 164.748 294.112 167.232 292.732C169.746 291.321 172.491 290.616 175.466 290.616C178.87 290.616 181.89 291.459 184.528 293.146C187.196 294.802 189.128 297.163 190.324 300.23H184.022C183.194 298.543 182.044 297.286 180.572 296.458C179.1 295.63 177.398 295.216 175.466 295.216C173.35 295.216 171.464 295.691 169.808 296.642C168.152 297.593 166.848 298.957 165.898 300.736C164.978 302.515 164.518 304.585 164.518 306.946C164.518 309.307 164.978 311.377 165.898 313.156C166.848 314.935 168.152 316.315 169.808 317.296C171.464 318.247 173.35 318.722 175.466 318.722C177.398 318.722 179.1 318.308 180.572 317.48C182.044 316.652 183.194 315.395 184.022 313.708H190.324C189.128 316.775 187.196 319.136 184.528 320.792C181.89 322.448 178.87 323.276 175.466 323.276C172.46 323.276 169.716 322.586 167.232 321.206C164.748 319.795 162.77 317.848 161.298 315.364C159.856 312.88 159.136 310.074 159.136 306.946ZM207.456 323.414C205.064 323.414 202.902 322.877 200.97 321.804C199.038 320.7 197.52 319.167 196.416 317.204C195.312 315.211 194.76 312.911 194.76 310.304C194.76 307.728 195.327 305.443 196.462 303.45C197.596 301.457 199.145 299.923 201.108 298.85C203.07 297.777 205.263 297.24 207.686 297.24C210.108 297.24 212.301 297.777 214.264 298.85C216.226 299.923 217.775 301.457 218.91 303.45C220.044 305.443 220.612 307.728 220.612 310.304C220.612 312.88 220.029 315.165 218.864 317.158C217.698 319.151 216.104 320.7 214.08 321.804C212.086 322.877 209.878 323.414 207.456 323.414ZM207.456 318.86C208.805 318.86 210.062 318.538 211.228 317.894C212.424 317.25 213.39 316.284 214.126 314.996C214.862 313.708 215.23 312.144 215.23 310.304C215.23 308.464 214.877 306.915 214.172 305.658C213.466 304.37 212.531 303.404 211.366 302.76C210.2 302.116 208.943 301.794 207.594 301.794C206.244 301.794 204.987 302.116 203.822 302.76C202.687 303.404 201.782 304.37 201.108 305.658C200.433 306.915 200.096 308.464 200.096 310.304C200.096 313.033 200.786 315.149 202.166 316.652C203.576 318.124 205.34 318.86 207.456 318.86ZM238.584 297.24C240.577 297.24 242.356 297.654 243.92 298.482C245.514 299.31 246.756 300.537 247.646 302.162C248.535 303.787 248.98 305.75 248.98 308.05V323H243.782V308.832C243.782 306.563 243.214 304.83 242.08 303.634C240.945 302.407 239.396 301.794 237.434 301.794C235.471 301.794 233.907 302.407 232.742 303.634C231.607 304.83 231.04 306.563 231.04 308.832V323H225.796V297.654H231.04V300.552C231.898 299.509 232.987 298.697 234.306 298.114C235.655 297.531 237.081 297.24 238.584 297.24ZM253.921 310.212C253.921 307.667 254.442 305.413 255.485 303.45C256.558 301.487 257.999 299.969 259.809 298.896C261.649 297.792 263.688 297.24 265.927 297.24C267.889 297.24 269.622 297.639 271.125 298.436C272.658 299.233 273.839 300.199 274.667 301.334V297.654H279.957V335.052H274.667V319.32C273.839 320.455 272.643 321.421 271.079 322.218C269.515 323.015 267.736 323.414 265.743 323.414C263.565 323.414 261.572 322.862 259.763 321.758C257.984 320.623 256.558 319.059 255.485 317.066C254.442 315.042 253.921 312.757 253.921 310.212ZM274.667 310.304C274.667 308.556 274.299 307.038 273.563 305.75C272.857 304.462 271.922 303.481 270.757 302.806C269.591 302.131 268.334 301.794 266.985 301.794C265.635 301.794 264.378 302.131 263.213 302.806C262.047 303.45 261.097 304.416 260.361 305.704C259.655 306.961 259.303 308.464 259.303 310.212C259.303 311.96 259.655 313.493 260.361 314.812C261.097 316.131 262.047 317.143 263.213 317.848C264.409 318.523 265.666 318.86 266.985 318.86C268.334 318.86 269.591 318.523 270.757 317.848C271.922 317.173 272.857 316.192 273.563 314.904C274.299 313.585 274.667 312.052 274.667 310.304ZM309.799 297.654V323H304.555V320.01C303.727 321.053 302.638 321.881 301.289 322.494C299.97 323.077 298.559 323.368 297.057 323.368C295.063 323.368 293.269 322.954 291.675 322.126C290.111 321.298 288.869 320.071 287.949 318.446C287.059 316.821 286.615 314.858 286.615 312.558V297.654H291.813V311.776C291.813 314.045 292.38 315.793 293.515 317.02C294.649 318.216 296.198 318.814 298.161 318.814C300.123 318.814 301.672 318.216 302.807 317.02C303.972 315.793 304.555 314.045 304.555 311.776V297.654H309.799ZM339.948 309.706C339.948 310.657 339.886 311.515 339.764 312.282H320.398C320.551 314.306 321.302 315.931 322.652 317.158C324.001 318.385 325.657 318.998 327.62 318.998C330.441 318.998 332.434 317.817 333.6 315.456H339.258C338.491 317.787 337.096 319.703 335.072 321.206C333.078 322.678 330.594 323.414 327.62 323.414C325.197 323.414 323.02 322.877 321.088 321.804C319.186 320.7 317.684 319.167 316.58 317.204C315.506 315.211 314.97 312.911 314.97 310.304C314.97 307.697 315.491 305.413 316.534 303.45C317.607 301.457 319.094 299.923 320.996 298.85C322.928 297.777 325.136 297.24 327.62 297.24C330.012 297.24 332.143 297.761 334.014 298.804C335.884 299.847 337.341 301.319 338.384 303.22C339.426 305.091 339.948 307.253 339.948 309.706ZM334.474 308.05C334.443 306.118 333.753 304.569 332.404 303.404C331.054 302.239 329.383 301.656 327.39 301.656C325.58 301.656 324.032 302.239 322.744 303.404C321.456 304.539 320.689 306.087 320.444 308.05H334.474ZM350.352 301.334C351.119 300.046 352.131 299.049 353.388 298.344C354.676 297.608 356.194 297.24 357.942 297.24V302.668H356.608C354.554 302.668 352.99 303.189 351.916 304.232C350.874 305.275 350.352 307.084 350.352 309.66V323H345.108V297.654H350.352V301.334ZM365.431 294.296C364.48 294.296 363.683 293.974 363.039 293.33C362.395 292.686 362.073 291.889 362.073 290.938C362.073 289.987 362.395 289.19 363.039 288.546C363.683 287.902 364.48 287.58 365.431 287.58C366.351 287.58 367.133 287.902 367.777 288.546C368.421 289.19 368.743 289.987 368.743 290.938C368.743 291.889 368.421 292.686 367.777 293.33C367.133 293.974 366.351 294.296 365.431 294.296ZM368.007 297.654V323H362.763V297.654H368.007ZM387.679 297.24C389.673 297.24 391.451 297.654 393.015 298.482C394.61 299.31 395.852 300.537 396.741 302.162C397.631 303.787 398.075 305.75 398.075 308.05V323H392.877V308.832C392.877 306.563 392.31 304.83 391.175 303.634C390.041 302.407 388.492 301.794 386.529 301.794C384.567 301.794 383.003 302.407 381.837 303.634C380.703 304.83 380.135 306.563 380.135 308.832V323H374.891V297.654H380.135V300.552C380.994 299.509 382.083 298.697 383.401 298.114C384.751 297.531 386.177 297.24 387.679 297.24ZM414.976 297.24C416.939 297.24 418.672 297.639 420.174 298.436C421.708 299.203 422.904 300.169 423.762 301.334V297.654H429.052V323.414C429.052 325.745 428.562 327.815 427.58 329.624C426.599 331.464 425.173 332.905 423.302 333.948C421.462 334.991 419.254 335.512 416.678 335.512C413.244 335.512 410.392 334.699 408.122 333.074C405.853 331.479 404.565 329.302 404.258 326.542H409.456C409.855 327.861 410.698 328.919 411.986 329.716C413.305 330.544 414.869 330.958 416.678 330.958C418.794 330.958 420.496 330.314 421.784 329.026C423.103 327.738 423.762 325.867 423.762 323.414V319.182C422.873 320.378 421.662 321.39 420.128 322.218C418.626 323.015 416.908 323.414 414.976 323.414C412.768 323.414 410.744 322.862 408.904 321.758C407.095 320.623 405.654 319.059 404.58 317.066C403.538 315.042 403.016 312.757 403.016 310.212C403.016 307.667 403.538 305.413 404.58 303.45C405.654 301.487 407.095 299.969 408.904 298.896C410.744 297.792 412.768 297.24 414.976 297.24ZM423.762 310.304C423.762 308.556 423.394 307.038 422.658 305.75C421.953 304.462 421.018 303.481 419.852 302.806C418.687 302.131 417.43 301.794 416.08 301.794C414.731 301.794 413.474 302.131 412.308 302.806C411.143 303.45 410.192 304.416 409.456 305.704C408.751 306.961 408.398 308.464 408.398 310.212C408.398 311.96 408.751 313.493 409.456 314.812C410.192 316.131 411.143 317.143 412.308 317.848C413.504 318.523 414.762 318.86 416.08 318.86C417.43 318.86 418.687 318.523 419.852 317.848C421.018 317.173 421.953 316.192 422.658 314.904C423.394 313.585 423.762 312.052 423.762 310.304ZM454.007 301.932V315.962C454.007 316.913 454.222 317.603 454.651 318.032C455.111 318.431 455.878 318.63 456.951 318.63H460.171V323H456.031C453.67 323 451.861 322.448 450.603 321.344C449.346 320.24 448.717 318.446 448.717 315.962V301.932H445.727V297.654H448.717V291.352H454.007V297.654H460.171V301.932H454.007ZM478.115 297.24C480.047 297.24 481.764 297.654 483.267 298.482C484.8 299.31 485.996 300.537 486.855 302.162C487.744 303.787 488.189 305.75 488.189 308.05V323H482.991V308.832C482.991 306.563 482.423 304.83 481.289 303.634C480.154 302.407 478.605 301.794 476.643 301.794C474.68 301.794 473.116 302.407 471.951 303.634C470.816 304.83 470.249 306.563 470.249 308.832V323H465.005V288.96H470.249V300.598C471.138 299.525 472.257 298.697 473.607 298.114C474.987 297.531 476.489 297.24 478.115 297.24ZM518.108 309.706C518.108 310.657 518.046 311.515 517.924 312.282H498.558C498.711 314.306 499.462 315.931 500.812 317.158C502.161 318.385 503.817 318.998 505.78 318.998C508.601 318.998 510.594 317.817 511.76 315.456H517.418C516.651 317.787 515.256 319.703 513.232 321.206C511.238 322.678 508.754 323.414 505.78 323.414C503.357 323.414 501.18 322.877 499.248 321.804C497.346 320.7 495.844 319.167 494.74 317.204C493.666 315.211 493.13 312.911 493.13 310.304C493.13 307.697 493.651 305.413 494.694 303.45C495.767 301.457 497.254 299.923 499.156 298.85C501.088 297.777 503.296 297.24 505.78 297.24C508.172 297.24 510.303 297.761 512.174 298.804C514.044 299.847 515.501 301.319 516.544 303.22C517.586 305.091 518.108 307.253 518.108 309.706ZM512.634 308.05C512.603 306.118 511.913 304.569 510.564 303.404C509.214 302.239 507.543 301.656 505.55 301.656C503.74 301.656 502.192 302.239 500.904 303.404C499.616 304.539 498.849 306.087 498.604 308.05H512.634ZM533.47 310.212C533.47 307.667 533.991 305.413 535.034 303.45C536.107 301.487 537.548 299.969 539.358 298.896C541.198 297.792 543.237 297.24 545.476 297.24C547.132 297.24 548.757 297.608 550.352 298.344C551.977 299.049 553.265 300 554.216 301.196V288.96H559.506V323H554.216V319.182C553.357 320.409 552.161 321.421 550.628 322.218C549.125 323.015 547.392 323.414 545.43 323.414C543.222 323.414 541.198 322.862 539.358 321.758C537.548 320.623 536.107 319.059 535.034 317.066C533.991 315.042 533.47 312.757 533.47 310.212ZM554.216 310.304C554.216 308.556 553.848 307.038 553.112 305.75C552.406 304.462 551.471 303.481 550.306 302.806C549.14 302.131 547.883 301.794 546.534 301.794C545.184 301.794 543.927 302.131 542.762 302.806C541.596 303.45 540.646 304.416 539.91 305.704C539.204 306.961 538.852 308.464 538.852 310.212C538.852 311.96 539.204 313.493 539.91 314.812C540.646 316.131 541.596 317.143 542.762 317.848C543.958 318.523 545.215 318.86 546.534 318.86C547.883 318.86 549.14 318.523 550.306 317.848C551.471 317.173 552.406 316.192 553.112 314.904C553.848 313.585 554.216 312.052 554.216 310.304ZM608.023 291.03L598.547 323H592.613L585.897 298.804L578.767 323L572.879 323.046L563.817 291.03H569.383L576.007 317.066L583.183 291.03H589.071L595.741 316.928L602.411 291.03H608.023ZM635.578 309.706C635.578 310.657 635.517 311.515 635.394 312.282H616.028C616.182 314.306 616.933 315.931 618.282 317.158C619.632 318.385 621.288 318.998 623.25 318.998C626.072 318.998 628.065 317.817 629.23 315.456H634.888C634.122 317.787 632.726 319.703 630.702 321.206C628.709 322.678 626.225 323.414 623.25 323.414C620.828 323.414 618.65 322.877 616.718 321.804C614.817 320.7 613.314 319.167 612.21 317.204C611.137 315.211 610.6 312.911 610.6 310.304C610.6 307.697 611.122 305.413 612.164 303.45C613.238 301.457 614.725 299.923 616.626 298.85C618.558 297.777 620.766 297.24 623.25 297.24C625.642 297.24 627.774 297.761 629.644 298.804C631.515 299.847 632.972 301.319 634.014 303.22C635.057 305.091 635.578 307.253 635.578 309.706ZM630.104 308.05C630.074 306.118 629.384 304.569 628.034 303.404C626.685 302.239 625.014 301.656 623.02 301.656C621.211 301.656 619.662 302.239 618.374 303.404C617.086 304.539 616.32 306.087 616.074 308.05H630.104ZM645.983 301.426C646.872 300.199 648.084 299.203 649.617 298.436C651.181 297.639 652.914 297.24 654.815 297.24C657.054 297.24 659.078 297.777 660.887 298.85C662.696 299.923 664.122 301.457 665.165 303.45C666.208 305.413 666.729 307.667 666.729 310.212C666.729 312.757 666.208 315.042 665.165 317.066C664.122 319.059 662.681 320.623 660.841 321.758C659.032 322.862 657.023 323.414 654.815 323.414C652.852 323.414 651.104 323.031 649.571 322.264C648.068 321.497 646.872 320.516 645.983 319.32V323H640.739V288.96H645.983V301.426ZM661.393 310.212C661.393 308.464 661.025 306.961 660.289 305.704C659.584 304.416 658.633 303.45 657.437 302.806C656.272 302.131 655.014 301.794 653.665 301.794C652.346 301.794 651.089 302.131 649.893 302.806C648.728 303.481 647.777 304.462 647.041 305.75C646.336 307.038 645.983 308.556 645.983 310.304C645.983 312.052 646.336 313.585 647.041 314.904C647.777 316.192 648.728 317.173 649.893 317.848C651.089 318.523 652.346 318.86 653.665 318.86C655.014 318.86 656.272 318.523 657.437 317.848C658.633 317.143 659.584 316.131 660.289 314.812C661.025 313.493 661.393 311.96 661.393 310.212ZM677.665 316.698L672.099 329.394H668.695L671.961 316.698H677.665ZM705.19 323.414C702.798 323.414 700.636 322.877 698.704 321.804C696.772 320.7 695.254 319.167 694.15 317.204C693.046 315.211 692.494 312.911 692.494 310.304C692.494 307.728 693.061 305.443 694.196 303.45C695.331 301.457 696.879 299.923 698.842 298.85C700.805 297.777 702.997 297.24 705.42 297.24C707.843 297.24 710.035 297.777 711.998 298.85C713.961 299.923 715.509 301.457 716.644 303.45C717.779 305.443 718.346 307.728 718.346 310.304C718.346 312.88 717.763 315.165 716.598 317.158C715.433 319.151 713.838 320.7 711.814 321.804C709.821 322.877 707.613 323.414 705.19 323.414ZM705.19 318.86C706.539 318.86 707.797 318.538 708.962 317.894C710.158 317.25 711.124 316.284 711.86 314.996C712.596 313.708 712.964 312.144 712.964 310.304C712.964 308.464 712.611 306.915 711.906 305.658C711.201 304.37 710.265 303.404 709.1 302.76C707.935 302.116 706.677 301.794 705.328 301.794C703.979 301.794 702.721 302.116 701.556 302.76C700.421 303.404 699.517 304.37 698.842 305.658C698.167 306.915 697.83 308.464 697.83 310.304C697.83 313.033 698.52 315.149 699.9 316.652C701.311 318.124 703.074 318.86 705.19 318.86ZM736.318 297.24C738.311 297.24 740.09 297.654 741.654 298.482C743.249 299.31 744.491 300.537 745.38 302.162C746.269 303.787 746.714 305.75 746.714 308.05V323H741.516V308.832C741.516 306.563 740.949 304.83 739.814 303.634C738.679 302.407 737.131 301.794 735.168 301.794C733.205 301.794 731.641 302.407 730.476 303.634C729.341 304.83 728.774 306.563 728.774 308.832V323H723.53V297.654H728.774V300.552C729.633 299.509 730.721 298.697 732.04 298.114C733.389 297.531 734.815 297.24 736.318 297.24ZM776.633 309.706C776.633 310.657 776.572 311.515 776.449 312.282H757.083C757.236 314.306 757.988 315.931 759.337 317.158C760.686 318.385 762.342 318.998 764.305 318.998C767.126 318.998 769.12 317.817 770.285 315.456H775.943C775.176 317.787 773.781 319.703 771.757 321.206C769.764 322.678 767.28 323.414 764.305 323.414C761.882 323.414 759.705 322.877 757.773 321.804C755.872 320.7 754.369 319.167 753.265 317.204C752.192 315.211 751.655 312.911 751.655 310.304C751.655 307.697 752.176 305.413 753.219 303.45C754.292 301.457 755.78 299.923 757.681 298.85C759.613 297.777 761.821 297.24 764.305 297.24C766.697 297.24 768.828 297.761 770.699 298.804C772.57 299.847 774.026 301.319 775.069 303.22C776.112 305.091 776.633 307.253 776.633 309.706ZM771.159 308.05C771.128 306.118 770.438 304.569 769.089 303.404C767.74 302.239 766.068 301.656 764.075 301.656C762.266 301.656 760.717 302.239 759.429 303.404C758.141 304.539 757.374 306.087 757.129 308.05H771.159ZM798.987 301.426C799.876 300.199 801.088 299.203 802.621 298.436C804.185 297.639 805.918 297.24 807.819 297.24C810.058 297.24 812.082 297.777 813.891 298.85C815.7 299.923 817.126 301.457 818.169 303.45C819.212 305.413 819.733 307.667 819.733 310.212C819.733 312.757 819.212 315.042 818.169 317.066C817.126 319.059 815.685 320.623 813.845 321.758C812.036 322.862 810.027 323.414 807.819 323.414C805.856 323.414 804.108 323.031 802.575 322.264C801.072 321.497 799.876 320.516 798.987 319.32V323H793.743V288.96H798.987V301.426ZM814.397 310.212C814.397 308.464 814.029 306.961 813.293 305.704C812.588 304.416 811.637 303.45 810.441 302.806C809.276 302.131 808.018 301.794 806.669 301.794C805.35 301.794 804.093 302.131 802.897 302.806C801.732 303.481 800.781 304.462 800.045 305.75C799.34 307.038 798.987 308.556 798.987 310.304C798.987 312.052 799.34 313.585 800.045 314.904C800.781 316.192 801.732 317.173 802.897 317.848C804.093 318.523 805.35 318.86 806.669 318.86C808.018 318.86 809.276 318.523 810.441 317.848C811.637 317.143 812.588 316.131 813.293 314.812C814.029 313.493 814.397 311.96 814.397 310.212ZM847.873 297.654V323H842.629V320.01C841.801 321.053 840.712 321.881 839.363 322.494C838.044 323.077 836.633 323.368 835.131 323.368C833.137 323.368 831.343 322.954 829.749 322.126C828.185 321.298 826.943 320.071 826.023 318.446C825.133 316.821 824.689 314.858 824.689 312.558V297.654H829.887V311.776C829.887 314.045 830.454 315.793 831.589 317.02C832.723 318.216 834.272 318.814 836.235 318.814C838.197 318.814 839.746 318.216 840.881 317.02C842.046 315.793 842.629 314.045 842.629 311.776V297.654H847.873ZM857.46 294.296C856.509 294.296 855.712 293.974 855.068 293.33C854.424 292.686 854.102 291.889 854.102 290.938C854.102 289.987 854.424 289.19 855.068 288.546C855.712 287.902 856.509 287.58 857.46 287.58C858.38 287.58 859.162 287.902 859.806 288.546C860.45 289.19 860.772 289.987 860.772 290.938C860.772 291.889 860.45 292.686 859.806 293.33C859.162 293.974 858.38 294.296 857.46 294.296ZM860.036 297.654V323H854.792V297.654H860.036ZM872.165 288.96V323H866.921V288.96H872.165ZM877.302 310.212C877.302 307.667 877.823 305.413 878.866 303.45C879.939 301.487 881.38 299.969 883.19 298.896C885.03 297.792 887.069 297.24 889.308 297.24C890.964 297.24 892.589 297.608 894.184 298.344C895.809 299.049 897.097 300 898.048 301.196V288.96H903.338V323H898.048V319.182C897.189 320.409 895.993 321.421 894.46 322.218C892.957 323.015 891.224 323.414 889.262 323.414C887.054 323.414 885.03 322.862 883.19 321.758C881.38 320.623 879.939 319.059 878.866 317.066C877.823 315.042 877.302 312.757 877.302 310.212ZM898.048 310.304C898.048 308.556 897.68 307.038 896.944 305.75C896.238 304.462 895.303 303.481 894.138 302.806C892.972 302.131 891.715 301.794 890.366 301.794C889.016 301.794 887.759 302.131 886.594 302.806C885.428 303.45 884.478 304.416 883.742 305.704C883.036 306.961 882.684 308.464 882.684 310.212C882.684 311.96 883.036 313.493 883.742 314.812C884.478 316.131 885.428 317.143 886.594 317.848C887.79 318.523 889.047 318.86 890.366 318.86C891.715 318.86 892.972 318.523 894.138 317.848C895.303 317.173 896.238 316.192 896.944 314.904C897.68 313.585 898.048 312.052 898.048 310.304ZM933.455 309.706C933.455 310.657 933.394 311.515 933.271 312.282H913.905C914.059 314.306 914.81 315.931 916.159 317.158C917.509 318.385 919.165 318.998 921.127 318.998C923.949 318.998 925.942 317.817 927.107 315.456H932.765C931.999 317.787 930.603 319.703 928.579 321.206C926.586 322.678 924.102 323.414 921.127 323.414C918.705 323.414 916.527 322.877 914.595 321.804C912.694 320.7 911.191 319.167 910.087 317.204C909.014 315.211 908.477 312.911 908.477 310.304C908.477 307.697 908.999 305.413 910.041 303.45C911.115 301.457 912.602 299.923 914.503 298.85C916.435 297.777 918.643 297.24 921.127 297.24C923.519 297.24 925.651 297.761 927.521 298.804C929.392 299.847 930.849 301.319 931.891 303.22C932.934 305.091 933.455 307.253 933.455 309.706ZM927.981 308.05C927.951 306.118 927.261 304.569 925.911 303.404C924.562 302.239 922.891 301.656 920.897 301.656C919.088 301.656 917.539 302.239 916.251 303.404C914.963 304.539 914.197 306.087 913.951 308.05H927.981ZM943.86 301.334C944.627 300.046 945.639 299.049 946.896 298.344C948.184 297.608 949.702 297.24 951.45 297.24V302.668H950.116C948.061 302.668 946.497 303.189 945.424 304.232C944.381 305.275 943.86 307.084 943.86 309.66V323H938.616V297.654H943.86V301.334ZM966.472 310.212C966.472 307.667 966.993 305.413 968.036 303.45C969.109 301.487 970.55 299.969 972.36 298.896C974.2 297.792 976.224 297.24 978.432 297.24C980.425 297.24 982.158 297.639 983.63 298.436C985.132 299.203 986.328 300.169 987.218 301.334V297.654H992.508V323H987.218V319.228C986.328 320.424 985.117 321.421 983.584 322.218C982.05 323.015 980.302 323.414 978.34 323.414C976.162 323.414 974.169 322.862 972.36 321.758C970.55 320.623 969.109 319.059 968.036 317.066C966.993 315.042 966.472 312.757 966.472 310.212ZM987.218 310.304C987.218 308.556 986.85 307.038 986.114 305.75C985.408 304.462 984.473 303.481 983.308 302.806C982.142 302.131 980.885 301.794 979.536 301.794C978.186 301.794 976.929 302.131 975.764 302.806C974.598 303.45 973.648 304.416 972.912 305.704C972.206 306.961 971.854 308.464 971.854 310.212C971.854 311.96 972.206 313.493 972.912 314.812C973.648 316.131 974.598 317.143 975.764 317.848C976.96 318.523 978.217 318.86 979.536 318.86C980.885 318.86 982.142 318.523 983.308 317.848C984.473 317.173 985.408 316.192 986.114 314.904C986.85 313.585 987.218 312.052 987.218 310.304ZM1005.51 301.932V315.962C1005.51 316.913 1005.73 317.603 1006.16 318.032C1006.62 318.431 1007.38 318.63 1008.46 318.63H1011.68V323H1007.54C1005.18 323 1003.37 322.448 1002.11 321.344C1000.85 320.24 1000.22 318.446 1000.22 315.962V301.932H997.233V297.654H1000.22V291.352H1005.51V297.654H1011.68V301.932H1005.51ZM1026.71 310.212C1026.71 307.667 1027.23 305.413 1028.28 303.45C1029.35 301.487 1030.79 299.969 1032.6 298.896C1034.44 297.792 1036.46 297.24 1038.67 297.24C1040.67 297.24 1042.4 297.639 1043.87 298.436C1045.37 299.203 1046.57 300.169 1047.46 301.334V297.654H1052.75V323H1047.46V319.228C1046.57 320.424 1045.36 321.421 1043.82 322.218C1042.29 323.015 1040.54 323.414 1038.58 323.414C1036.4 323.414 1034.41 322.862 1032.6 321.758C1030.79 320.623 1029.35 319.059 1028.28 317.066C1027.23 315.042 1026.71 312.757 1026.71 310.212ZM1047.46 310.304C1047.46 308.556 1047.09 307.038 1046.35 305.75C1045.65 304.462 1044.71 303.481 1043.55 302.806C1042.38 302.131 1041.13 301.794 1039.78 301.794C1038.43 301.794 1037.17 302.131 1036 302.806C1034.84 303.45 1033.89 304.416 1033.15 305.704C1032.45 306.961 1032.09 308.464 1032.09 310.212C1032.09 311.96 1032.45 313.493 1033.15 314.812C1033.89 316.131 1034.84 317.143 1036 317.848C1037.2 318.523 1038.46 318.86 1039.78 318.86C1041.13 318.86 1042.38 318.523 1043.55 317.848C1044.71 317.173 1045.65 316.192 1046.35 314.904C1047.09 313.585 1047.46 312.052 1047.46 310.304ZM1077.7 301.932V315.962C1077.7 316.913 1077.92 317.603 1078.35 318.032C1078.81 318.431 1079.57 318.63 1080.65 318.63H1083.87V323H1079.73C1077.37 323 1075.56 322.448 1074.3 321.344C1073.04 320.24 1072.41 318.446 1072.41 315.962V301.932H1069.42V297.654H1072.41V291.352H1077.7V297.654H1083.87V301.932H1077.7ZM1091.37 294.296C1090.42 294.296 1089.62 293.974 1088.98 293.33C1088.33 292.686 1088.01 291.889 1088.01 290.938C1088.01 289.987 1088.33 289.19 1088.98 288.546C1089.62 287.902 1090.42 287.58 1091.37 287.58C1092.29 287.58 1093.07 287.902 1093.71 288.546C1094.36 289.19 1094.68 289.987 1094.68 290.938C1094.68 291.889 1094.36 292.686 1093.71 293.33C1093.07 293.974 1092.29 294.296 1091.37 294.296ZM1093.94 297.654V323H1088.7V297.654H1093.94ZM1131.51 297.24C1133.5 297.24 1135.28 297.654 1136.85 298.482C1138.44 299.31 1139.68 300.537 1140.57 302.162C1141.49 303.787 1141.95 305.75 1141.95 308.05V323H1136.75V308.832C1136.75 306.563 1136.19 304.83 1135.05 303.634C1133.92 302.407 1132.37 301.794 1130.41 301.794C1128.44 301.794 1126.88 302.407 1125.71 303.634C1124.58 304.83 1124.01 306.563 1124.01 308.832V323H1118.81V308.832C1118.81 306.563 1118.25 304.83 1117.11 303.634C1115.98 302.407 1114.43 301.794 1112.47 301.794C1110.5 301.794 1108.94 302.407 1107.77 303.634C1106.64 304.83 1106.07 306.563 1106.07 308.832V323H1100.83V297.654H1106.07V300.552C1106.93 299.509 1108.02 298.697 1109.34 298.114C1110.66 297.531 1112.07 297.24 1113.57 297.24C1115.59 297.24 1117.4 297.669 1119 298.528C1120.59 299.387 1121.82 300.629 1122.68 302.254C1123.45 300.721 1124.64 299.509 1126.27 298.62C1127.89 297.7 1129.64 297.24 1131.51 297.24ZM1171.86 309.706C1171.86 310.657 1171.79 311.515 1171.67 312.282H1152.31C1152.46 314.306 1153.21 315.931 1154.56 317.158C1155.91 318.385 1157.57 318.998 1159.53 318.998C1162.35 318.998 1164.34 317.817 1165.51 315.456H1171.17C1170.4 317.787 1169 319.703 1166.98 321.206C1164.99 322.678 1162.5 323.414 1159.53 323.414C1157.11 323.414 1154.93 322.877 1153 321.804C1151.09 320.7 1149.59 319.167 1148.49 317.204C1147.41 315.211 1146.88 312.911 1146.88 310.304C1146.88 307.697 1147.4 305.413 1148.44 303.45C1149.52 301.457 1151 299.923 1152.9 298.85C1154.84 297.777 1157.04 297.24 1159.53 297.24C1161.92 297.24 1164.05 297.761 1165.92 298.804C1167.79 299.847 1169.25 301.319 1170.29 303.22C1171.33 305.091 1171.86 307.253 1171.86 309.706ZM1166.38 308.05C1166.35 306.118 1165.66 304.569 1164.31 303.404C1162.96 302.239 1161.29 301.656 1159.3 301.656C1157.49 301.656 1155.94 302.239 1154.65 303.404C1153.36 304.539 1152.6 306.087 1152.35 308.05H1166.38Z" fill="url(#paint3_linear_844_3)"/>
<defs>
<linearGradient id="paint0_linear_844_3" x1="386" y1="162.5" x2="1108" y2="162.5" gradientUnits="userSpaceOnUse">
<stop stop-color="#CC2B5E"/>
<stop offset="1" stop-color="#753A88"/>
</linearGradient>
<linearGradient id="paint1_linear_844_3" x1="268.993" y1="36.0978" x2="311.946" y2="36.0978" gradientUnits="userSpaceOnUse">
<stop stop-color="#CA2C60"/>
</linearGradient>
<linearGradient id="paint2_linear_844_3" x1="222" y1="147.139" x2="374.904" y2="147.139" gradientUnits="userSpaceOnUse">
<stop stop-color="#CA2C60"/>
</linearGradient>
<linearGradient id="paint3_linear_844_3" x1="0" y1="308.5" x2="1331" y2="308.5" gradientUnits="userSpaceOnUse">
<stop stop-color="#CC2B5E"/>
<stop offset="1" stop-color="#753A88"/>
</linearGradient>
</defs>
</svg>
