<svg width="2048" height="614" viewBox="0 0 2048 614" fill="none" xmlns="http://www.w3.org/2000/svg">
<path d="M565.638 302.666V499.868H504.957V470.974C492.676 491.923 472.449 502.036 444.998 502.036C422.603 502.036 403.821 494.812 390.095 479.643C376.37 464.473 369.146 444.247 369.146 418.243V302.666H429.105V409.574C429.105 422.577 432.717 431.967 439.219 439.191C445.72 446.414 455.111 449.304 466.67 449.304C478.228 449.304 487.619 445.692 494.121 439.191C500.622 432.69 504.234 422.577 504.234 409.574V302.666H565.638Z" fill="url(#paint0_linear_736_9)"/>
<path d="M659.55 302.666V339.506C673.998 313.501 692.78 300.499 715.897 300.499V361.899H700.727C687.001 361.899 676.165 365.511 669.664 372.012C662.44 378.513 659.55 390.071 659.55 406.685V499.869H598.869V302.666H659.55Z" fill="url(#paint1_linear_736_9)"/>
<path d="M809.809 328.671C823.535 309.89 842.317 300.499 867.601 300.499C892.885 300.499 913.834 309.89 931.172 328.671C948.51 347.452 957.178 372.012 957.178 401.629C957.178 431.245 948.51 455.083 931.172 473.864C913.834 492.645 892.885 502.036 867.601 502.036C843.039 502.036 823.535 491.923 809.087 470.974V499.868H748.405V238.377H809.087V328.671H809.809ZM882.771 437.746C891.44 429.078 895.774 417.52 895.774 401.629C895.774 385.737 891.44 374.179 882.771 365.511C874.102 356.843 863.989 352.509 852.431 352.509C840.872 352.509 830.759 356.843 822.09 364.789C813.421 373.457 809.087 385.014 809.087 400.906C809.087 416.798 813.421 428.356 822.09 437.024C830.759 445.692 840.872 450.026 852.431 450.026C863.989 450.026 874.102 445.692 882.771 437.746Z" fill="url(#paint2_linear_736_9)"/>
<path d="M1079.99 502.758C1051.09 502.758 1027.97 493.367 1009.19 475.309C991.131 456.527 981.74 431.967 981.74 401.629C981.74 371.29 991.131 346.73 1009.19 328.671C1027.25 310.612 1051.09 301.221 1079.99 301.221C1108.88 301.221 1132.72 309.89 1152.23 327.949C1171.01 346.007 1181.12 370.567 1181.12 402.351C1181.12 408.852 1180.4 415.353 1179.68 421.132H1043.87C1045.31 429.8 1048.92 437.024 1055.42 442.803C1061.93 448.581 1069.15 451.471 1077.1 451.471C1085.04 451.471 1090.82 450.749 1094.43 449.304C1098.05 447.859 1100.94 446.414 1103.1 444.97C1104.55 443.525 1107.44 440.636 1110.33 437.024H1176.07C1170.29 456.527 1159.45 473.141 1142.11 484.699C1123.33 496.257 1103.1 502.758 1079.99 502.758ZM1105.99 360.454C1098.77 354.676 1090.82 351.786 1080.71 351.786C1070.59 351.786 1062.65 354.676 1056.15 360.454C1049.65 366.233 1045.31 373.457 1043.87 382.847H1117.55C1116.83 374.179 1112.49 366.233 1105.99 360.454Z" fill="url(#paint3_linear_736_9)"/>
<path d="M1271.42 466.64C1271.42 476.031 1268.53 483.977 1262.03 490.478C1255.53 496.979 1247.58 499.869 1238.19 499.869C1228.8 499.869 1220.85 496.979 1214.35 490.478C1207.85 483.977 1204.96 476.031 1204.96 466.64C1204.96 457.25 1207.85 449.304 1214.35 442.803C1220.85 436.301 1228.8 433.412 1238.19 433.412C1247.58 433.412 1255.53 436.301 1262.03 442.803C1268.53 450.026 1271.42 457.25 1271.42 466.64Z" fill="url(#paint4_linear_736_9)"/>
<path d="M1394.23 502.758C1365.33 502.758 1342.22 493.367 1323.43 475.309C1305.37 456.527 1295.98 431.967 1295.98 401.629C1295.98 371.29 1305.37 346.73 1323.43 328.671C1341.49 310.612 1365.33 301.221 1394.23 301.221C1423.13 301.221 1446.96 309.89 1466.47 327.949C1485.25 346.007 1495.37 370.567 1495.37 402.351C1495.37 408.852 1494.64 415.353 1493.92 421.132H1358.11C1359.55 429.8 1363.17 437.024 1369.67 442.803C1376.17 448.581 1383.39 451.471 1391.34 451.471C1399.29 451.471 1405.07 450.749 1408.68 449.304C1412.29 447.859 1415.18 446.414 1417.35 444.97C1418.79 443.525 1421.68 440.636 1424.57 437.024H1490.31C1484.53 456.527 1472.97 473.141 1456.36 484.699C1438.3 496.257 1418.07 502.758 1394.23 502.758ZM1420.24 360.454C1413.01 354.676 1405.07 351.786 1394.95 351.786C1385.56 351.786 1376.89 354.676 1370.39 360.454C1363.89 366.233 1359.55 373.457 1358.11 382.847H1431.79C1431.07 374.179 1427.46 366.233 1420.24 360.454Z" fill="url(#paint5_linear_736_9)"/>
<path d="M1618.17 448.581H1639.84V499.869H1608.78C1586.39 499.869 1569.77 494.812 1557.49 485.421C1545.21 476.031 1539.43 458.694 1539.43 434.857V352.509H1521.37V301.944H1539.43V253.546H1600.11V301.944H1639.84V352.509H1600.11V434.857C1599.39 444.247 1605.89 448.581 1618.17 448.581Z" fill="url(#paint6_linear_736_9)"/>
<path d="M1734.48 238.377V331.56C1746.76 310.612 1766.99 300.499 1794.44 300.499C1816.83 300.499 1835.62 307.723 1849.34 322.892C1863.07 338.061 1870.29 358.287 1870.29 384.292V499.868H1810.33V392.96C1810.33 379.958 1806.72 370.567 1800.22 363.344C1793.72 356.12 1784.32 353.231 1772.77 353.231C1761.21 353.231 1751.82 356.843 1745.32 363.344C1738.81 370.567 1735.2 379.958 1735.2 392.96V499.868H1674.52V238.377H1734.48Z" fill="url(#paint7_linear_736_9)"/>
<path d="M182.767 238.377L243.449 188.534L185.657 117.021L182.767 238.377Z" fill="url(#paint8_linear_736_9)"/>
<path d="M335.193 491.2L322.912 499.868L269.455 473.141L246.338 398.017L163.985 355.398H196.493L126.42 325.059L193.603 289.664L147.369 295.443L257.174 205.871L335.193 302.666V450.749H311.354L306.297 458.694L330.859 487.589H335.916V491.2H335.193ZM310.632 348.174L283.18 312.779L242.726 304.833L265.843 329.393L286.07 327.226L310.632 348.174Z" fill="url(#paint9_linear_736_9)"/>
<defs>
<linearGradient id="paint0_linear_736_9" x1="126.42" y1="309.89" x2="1870.29" y2="309.89" gradientUnits="userSpaceOnUse">
<stop stop-color="#CC2B5E"/>
<stop offset="1" stop-color="#753A88"/>
</linearGradient>
<linearGradient id="paint1_linear_736_9" x1="126.42" y1="309.89" x2="1870.29" y2="309.89" gradientUnits="userSpaceOnUse">
<stop stop-color="#CC2B5E"/>
<stop offset="1" stop-color="#753A88"/>
</linearGradient>
<linearGradient id="paint2_linear_736_9" x1="126.42" y1="309.89" x2="1870.29" y2="309.89" gradientUnits="userSpaceOnUse">
<stop stop-color="#CC2B5E"/>
<stop offset="1" stop-color="#753A88"/>
</linearGradient>
<linearGradient id="paint3_linear_736_9" x1="126.42" y1="309.89" x2="1870.29" y2="309.89" gradientUnits="userSpaceOnUse">
<stop stop-color="#CC2B5E"/>
<stop offset="1" stop-color="#753A88"/>
</linearGradient>
<linearGradient id="paint4_linear_736_9" x1="126.42" y1="309.89" x2="1870.29" y2="309.89" gradientUnits="userSpaceOnUse">
<stop stop-color="#CC2B5E"/>
<stop offset="1" stop-color="#753A88"/>
</linearGradient>
<linearGradient id="paint5_linear_736_9" x1="126.42" y1="309.89" x2="1870.29" y2="309.89" gradientUnits="userSpaceOnUse">
<stop stop-color="#CC2B5E"/>
<stop offset="1" stop-color="#753A88"/>
</linearGradient>
<linearGradient id="paint6_linear_736_9" x1="126.42" y1="309.89" x2="1870.29" y2="309.89" gradientUnits="userSpaceOnUse">
<stop stop-color="#CC2B5E"/>
<stop offset="1" stop-color="#753A88"/>
</linearGradient>
<linearGradient id="paint7_linear_736_9" x1="126.42" y1="309.89" x2="1870.29" y2="309.89" gradientUnits="userSpaceOnUse">
<stop stop-color="#CC2B5E"/>
<stop offset="1" stop-color="#753A88"/>
</linearGradient>
<linearGradient id="paint8_linear_736_9" x1="126.42" y1="309.89" x2="1870.29" y2="309.89" gradientUnits="userSpaceOnUse">
<stop stop-color="#CC2B5E"/>
<stop offset="1" stop-color="#753A88"/>
</linearGradient>
<linearGradient id="paint9_linear_736_9" x1="126.42" y1="309.89" x2="1870.29" y2="309.89" gradientUnits="userSpaceOnUse">
<stop stop-color="#CC2B5E"/>
<stop offset="1" stop-color="#753A88"/>
</linearGradient>
</defs>
</svg>
