<svg width="474" height="631" viewBox="0 0 474 631" fill="none" xmlns="http://www.w3.org/2000/svg">
<path d="M218.549 535.641C123.828 578.725 28.9423 516.24 -2.81643 477.304C-23.3072 456.814 -59.3624 395.534 -70.4081 332.812C-81.4538 270.089 -32.951 209.291 -7.31886 186.733C2.42681 163.668 54.2023 122.138 183.339 140.539C312.475 158.939 346.764 282.431 347.766 341.877C344.161 388.514 313.271 492.558 218.549 535.641Z" fill="white" fill-opacity="0.05"/>
<path d="M368.168 242.29C356.784 247.365 345.236 239.687 341.346 234.94C338.842 232.437 334.403 224.985 332.983 217.392C331.563 209.8 337.339 202.522 340.405 199.831C341.55 197.058 347.748 192.112 363.374 194.512C378.999 196.911 383.31 211.876 383.513 219.059C383.141 224.688 379.551 237.215 368.168 242.29Z" fill="white" fill-opacity="0.05"/>
<path d="M365.074 276.371C360.4 278.474 355.687 275.355 354.104 273.419C353.084 272.399 351.282 269.356 350.717 266.25C350.152 263.143 352.534 260.149 353.795 259.041C354.271 257.903 356.82 255.863 363.215 256.812C369.61 257.761 371.343 263.881 371.41 266.822C371.245 269.129 369.748 274.267 365.074 276.371Z" fill="white" fill-opacity="0.05"/>
</svg>
