<svg width="220" height="132" viewBox="0 0 220 132" fill="none" xmlns="http://www.w3.org/2000/svg">
<g opacity="0.64">
<g clip-path="url(#clip0_789_406)">
<path d="M121.758 65.478V65.5024C121.758 71.2666 126.429 75.9401 132.191 75.9401H136.599V73.2327H132.262C127.933 73.2327 124.433 69.6756 124.527 65.3229C124.617 61.0914 128.173 57.752 132.404 57.752H136.599V55.0701H132.162C126.416 55.0701 121.758 59.7297 121.758 65.478ZM200.326 55.0701H190.603V75.939H193.285V64.7834C193.285 60.9002 196.431 57.752 200.312 57.752C204.194 57.752 207.341 60.9002 207.341 64.7834V75.9401H209.999V64.7472C210 59.4026 205.669 55.0701 200.326 55.0701ZM151.795 62.0653C151.795 62.6421 151.592 63.1285 151.184 63.5258C150.777 63.9241 150.295 64.1216 149.739 64.1216H143.542C142.966 64.1216 142.479 63.923 142.081 63.5258C141.683 63.1285 141.485 62.6421 141.485 62.0653V55.0701H138.803V75.939H141.485V68.8035C141.485 68.2268 141.683 67.7403 142.081 67.3431C142.478 66.9459 142.965 66.7472 143.542 66.7472H149.739C150.295 66.7472 150.778 66.9459 151.184 67.3431C151.592 67.7414 151.795 68.2279 151.795 68.8035V75.939H154.447V55.0701H151.795V62.0653ZM177.198 55.0701V75.9401H188.4V55.0701H177.198ZM182.798 64.9799C180.8 64.9799 179.179 63.358 179.179 61.3558C179.179 59.3548 180.799 57.7318 182.798 57.7318C184.798 57.7318 186.418 59.3537 186.418 61.3558C186.418 63.358 184.798 64.9799 182.798 64.9799ZM167.381 56.18C167.026 55.3941 166.526 55 165.878 55C165.229 55 164.728 55.3941 164.374 56.18L155.443 75.939H176.225L167.381 56.18ZM165.878 72.5125C163.879 72.5125 162.258 70.8906 162.258 68.8885C162.258 66.8875 163.878 65.2645 165.878 65.2645C167.876 65.2645 169.497 66.8864 169.497 68.8885C169.497 70.8896 167.876 72.5125 165.878 72.5125ZM43.933 76.1695C47.0929 76.1695 50.1945 75.1052 52.0625 73.6671V64.4913H43.5023V68.4605H47.4663V70.8768C46.2889 71.5099 45.1974 71.768 43.933 71.768C40.457 71.768 38.4182 69.0648 38.4182 65.7563C38.4182 61.9591 40.8314 59.7446 43.7325 59.7446C45.9155 59.7446 47.5236 60.6941 48.6162 61.7584L52.0052 58.8832C49.9081 56.4668 46.6909 55.2305 43.7325 55.2305C37.2122 55.2305 33.3914 59.8327 33.3914 65.7573C33.3914 72.401 38.0448 76.1695 43.933 76.1695ZM55.0294 75.939H59.5099V68.863C59.5099 66.6771 60.5442 65.6129 62.095 65.6129C63.5598 65.6129 64.3352 66.2746 64.3352 68.6039V75.9379H68.8158V67.512C68.8158 63.0542 66.6901 61.6161 63.789 61.6161C62.1512 61.6161 60.6577 62.2491 59.5662 63.5141H59.5089V61.8742H55.0283V75.939H55.0294ZM78.6711 61.615C74.1322 61.615 71.0593 64.6347 71.0593 68.9204C71.0593 73.1774 74.1322 76.1971 78.6711 76.1971C83.0944 76.1971 86.2554 73.2348 86.2554 68.9204C86.2543 64.5784 83.0944 61.615 78.6711 61.615ZM78.6711 72.2289C76.8901 72.2289 75.5982 70.7908 75.5982 68.9214C75.5982 66.9947 76.8626 65.6139 78.6711 65.6139C80.4235 65.6139 81.7165 66.9661 81.7165 68.9214C81.7165 70.8482 80.3662 72.2289 78.6711 72.2289ZM93.2881 76.1982C97.1364 76.1982 99.0044 74.3001 99.0044 71.6819C99.0044 68.9204 97.3093 68.1153 94.2077 67.051C92.8001 66.5624 92.2825 66.2459 92.2825 65.8147C92.2825 65.2688 92.8861 65.0383 93.4037 65.0383C94.3509 65.0383 95.557 65.5269 96.5339 66.5051L98.6597 63.3696C97.0219 62.162 95.47 61.615 93.3454 61.615C90.4156 61.615 88.0883 63.2549 88.0883 66.1015C88.0883 68.8057 90.1568 69.956 92.5127 70.675C94.264 71.222 94.6946 71.5088 94.6946 71.9698C94.6946 72.487 94.2353 72.8036 93.3454 72.8036C92.0523 72.8036 90.8463 72.2863 89.6688 71.222L87.5718 74.127C89.1226 75.5078 91.0764 76.1982 93.2881 76.1982ZM103.698 60.1195C105.25 60.1195 106.399 58.9979 106.399 57.5311C106.399 56.1216 105.25 55 103.698 55C102.147 55 101.027 56.1503 101.027 57.5311C101.027 58.9979 102.147 60.1195 103.698 60.1195ZM101.458 75.939H105.938V61.8742H101.458V75.939ZM113.822 76.1982C117.671 76.1982 119.538 74.3001 119.538 71.6819C119.538 68.9204 117.844 68.1153 114.742 67.051C113.335 66.5624 112.817 66.2459 112.817 65.8147C112.817 65.2688 113.42 65.0383 113.937 65.0383C114.886 65.0383 116.092 65.5269 117.068 66.5051L119.193 63.3696C117.556 62.162 116.005 61.615 113.879 61.615C110.949 61.615 108.623 63.2549 108.623 66.1015C108.623 68.8057 110.692 69.956 113.046 70.675C114.799 71.222 115.229 71.5088 115.229 71.9698C115.229 72.487 114.77 72.8036 113.879 72.8036C112.586 72.8036 111.38 72.2863 110.203 71.222L108.106 74.127C109.657 75.5078 111.61 76.1982 113.822 76.1982ZM13.4856 64.3128C13.4856 63.6724 13.6967 63.0882 14.0605 62.6251L17.9184 66.487C17.4485 66.8524 16.8651 67.0627 16.2329 67.0627C14.7086 67.0638 13.4771 65.8306 13.4856 64.3128ZM24.9617 67.0553C26.4775 67.0638 27.709 65.8306 27.709 64.3054C27.709 63.6724 27.4979 63.0882 27.1341 62.6177L23.2762 66.4796C23.7376 66.8439 24.321 67.0553 24.9617 67.0553ZM27.9445 61.8232C28.512 62.5051 28.8525 63.3643 28.8525 64.3213C28.8525 66.4711 27.1097 68.2151 24.9617 68.2151C24.0134 68.2151 23.1468 67.8742 22.4658 67.307L20.5936 69.1806L18.7214 67.307C18.0404 67.8752 17.1812 68.2151 16.2255 68.2151C14.0775 68.2151 12.3347 66.4711 12.3347 64.3213C12.3347 63.3718 12.6752 62.504 13.2427 61.8232L12.3676 60.9469L11.5328 60.111C10.559 61.717 10 63.5916 10 65.6033C10 71.461 14.7415 76.1982 20.5851 76.1982C26.4287 76.1982 31.1702 71.4525 31.1702 65.6033C31.1861 63.5831 30.6271 61.7095 29.6544 60.111L27.9445 61.8232ZM28.2521 58.2852C26.3311 56.2661 23.6082 55 20.5925 55C17.5779 55 14.8624 56.2661 12.934 58.2852C12.6752 58.5613 12.4238 58.8534 12.1883 59.153L20.5851 67.5577L28.9819 59.1455C28.7708 58.8534 28.5194 58.5529 28.2521 58.2852ZM20.5925 65.5948L14.0849 59.0807C15.8192 57.3367 18.1125 56.3787 20.5925 56.3787C23.0725 56.3787 25.3743 57.3356 27.1002 59.0797L20.5925 65.5948Z" fill="black"/>
</g>
</g>
<defs>
<clipPath id="clip0_789_406">
<rect width="200" height="21.1982" fill="white" transform="translate(10 55)"/>
</clipPath>
</defs>
</svg>
