<svg width="220" height="132" viewBox="0 0 220 132" fill="none" xmlns="http://www.w3.org/2000/svg">
<g opacity="0.64">
<g clip-path="url(#clip0_1744_1409)">
<path d="M21.49 51.8154C31.1555 51.8154 38.98 59.2383 38.98 68.4076C38.98 77.5769 31.1555 84.9998 21.49 84.9998C11.8245 84.9998 4 77.5769 4 68.4076C4 59.2383 11.8245 51.8154 21.49 51.8154Z" fill="#13080E"/>
<path d="M17.3871 61.9189L9.22656 63.8873L9.81568 66.0651L17.9761 64.0966L17.3871 61.9189Z" fill="white"/>
<path d="M25.5145 61.9453L24.9258 64.123L33.0863 66.0898L33.6749 63.9121L25.5145 61.9453Z" fill="white"/>
<path d="M21.6729 77.0595C19.6588 77.0595 17.5532 76.7136 15.5391 76.1085L16.2714 73.9473C19.9334 75.0711 23.4122 75.0711 27.0742 73.9473L27.8065 76.1085C25.7924 76.8001 23.6869 77.0595 21.6729 77.0595Z" fill="white"/>
<path d="M47.0625 63.3662H53.1456V81.3557H47.0625V63.3662Z" fill="#13080E"/>
<path d="M50.2373 60.2073C52.0663 60.2073 53.5488 58.8027 53.5488 57.07C53.5488 55.3373 52.0663 53.9326 50.2373 53.9326C48.4084 53.9326 46.9258 55.3373 46.9258 57.07C46.9258 58.8027 48.4084 60.2073 50.2373 60.2073Z" fill="#13080E"/>
<path d="M62.6795 63.3663L63.1573 66.5772L63.0705 66.2891C63.7367 65.1638 64.6782 64.25 65.8948 63.5502C67.1114 62.8504 68.6032 62.499 70.3702 62.499C72.1661 62.499 73.664 63.0012 74.8655 64.003C76.0679 65.0046 76.6823 66.3028 76.7142 67.8945V81.3558H70.6309V70.0351C70.6019 69.2393 70.376 68.6025 69.9589 68.1195C69.5388 67.6393 68.835 67.4006 67.853 67.4006C66.926 67.4006 66.1149 67.6887 65.4197 68.2651C64.7245 68.8414 64.1886 69.6235 63.812 70.6115C63.4354 71.5995 63.2472 72.7384 63.2472 74.0282V81.3558H57.1641V63.3663H62.6795Z" fill="#13080E"/>
<path d="M81.9549 55.4619H88.038V63.2834H92.644V67.7704H88.038V81.3552H81.9549V67.7704H79V63.2834H81.9549V55.4619Z" fill="#13080E"/>
<path d="M104.964 81.8497C102.646 81.8497 100.685 81.438 99.0776 80.6147C97.4696 79.7914 96.2444 78.6525 95.4045 77.198C94.5648 75.7435 94.1445 74.0694 94.1445 72.1758C94.1445 70.3645 94.6371 68.7315 95.6216 67.277C96.6068 65.8225 97.9246 64.6616 99.5757 63.7971C101.227 62.9326 103.066 62.499 105.094 62.499C107.817 62.499 110.053 63.2483 111.805 64.744C113.559 66.2396 114.697 68.4022 115.218 71.2262L100.445 75.6721L99.0977 72.5435L109.787 69.1267L108.527 69.6619C108.295 68.9484 107.881 68.3226 107.29 67.7902C106.696 67.255 105.803 66.9862 104.616 66.9862C103.718 66.9862 102.927 67.1865 102.247 67.5844C101.566 67.9824 101.044 68.5449 100.683 69.2722C100.32 69.9994 100.138 70.8558 100.138 71.8465C100.138 72.9716 100.355 73.9129 100.79 74.6649C101.224 75.4196 101.818 75.9905 102.571 76.3746C103.324 76.7588 104.164 76.951 105.091 76.951C105.758 76.951 106.4 76.8412 107.023 76.6217C107.646 76.4021 108.263 76.114 108.871 75.7572L111.565 80.0384C110.551 80.5873 109.46 81.0264 108.283 81.3558C107.113 81.685 106.007 81.8497 104.964 81.8497Z" fill="#13080E"/>
<path d="M123.451 63.3664L124.016 68.3063L123.887 67.5653C124.437 66.4949 125.19 65.5839 126.146 64.8264C127.102 64.0717 128.049 63.4871 128.993 63.0754C129.935 62.6639 130.65 62.458 131.143 62.458L130.839 68.2212C129.419 68.0565 128.202 68.276 127.189 68.8799C126.175 69.4835 125.393 70.2795 124.842 71.2674C124.292 72.2554 124.016 73.2709 124.016 74.3137V81.3531H117.977V63.3636H123.451V63.3664Z" fill="#13080E"/>
<path d="M137.333 81.3564V68.3891H134.117V63.2846H137.333V57.0273C137.333 54.6672 138.051 52.7406 139.482 51.2422C140.916 49.7465 142.993 49 145.716 49C146.527 49 147.434 49.118 148.432 49.3485C149.432 49.5818 150.308 49.9605 151.063 50.4792L148.499 54.637C148.21 54.2802 147.871 54.0414 147.48 53.9179C147.088 53.7944 146.721 53.7341 146.371 53.7341C145.502 53.7341 144.792 54.0085 144.241 54.5574C143.691 55.1063 143.416 55.9845 143.416 57.192V63.2846H149.151V68.3891H143.416V81.3564H137.333Z" fill="#13080E"/>
<path d="M160.261 81.851C158.494 81.851 156.896 81.5135 155.462 80.8438C154.027 80.1714 152.889 79.1341 152.049 77.7345C151.209 76.3348 150.789 74.551 150.789 72.3829C150.789 70.352 151.224 68.5956 152.093 67.1137C152.962 65.6317 154.106 64.4873 155.525 63.6778C156.944 62.8681 158.451 62.4619 160.045 62.4619C161.928 62.4619 163.352 62.7584 164.323 63.3483C165.293 63.9384 166.095 64.5916 166.736 65.3024L166.475 66.0022L167.04 63.3676H172.689V81.357H166.605V77.4463L167.082 78.6813C167.025 78.6813 166.851 78.8404 166.562 79.1561C166.272 79.4717 165.843 79.8422 165.281 80.2675C164.716 80.6929 164.021 81.0634 163.195 81.379C162.371 81.6946 161.391 81.851 160.261 81.851ZM162 77.1582C162.724 77.1582 163.375 77.0538 163.954 76.8508C164.534 76.6449 165.041 76.343 165.475 75.9451C165.91 75.5472 166.287 75.0477 166.605 74.4412V70.0365C166.373 69.4327 166.026 68.9195 165.562 68.4941C165.099 68.0687 164.549 67.7394 163.912 67.5061C163.274 67.2728 162.565 67.1576 161.782 67.1576C160.913 67.1576 160.111 67.3716 159.372 67.7971C158.633 68.2224 158.046 68.8042 157.61 69.548C157.177 70.2889 156.959 71.1397 156.959 72.1003C156.959 73.0608 157.191 73.9252 157.655 74.6937C158.118 75.462 158.733 76.0659 159.502 76.5049C160.27 76.9385 161.102 77.1582 162 77.1582Z" fill="#13080E"/>
<path d="M193.39 79.7502C192.55 80.3815 191.498 80.8891 190.238 81.2733C188.978 81.6575 187.741 81.8496 186.522 81.8496C184.35 81.8496 182.461 81.4709 180.851 80.7189C179.243 79.9642 177.997 78.8802 177.113 77.4669C176.23 76.0535 175.789 74.3464 175.789 72.3404C175.789 70.337 176.267 68.63 177.223 67.2166C178.179 65.8033 179.431 64.7247 180.983 63.9865C182.533 63.2455 184.161 62.875 185.873 62.875C187.582 62.875 189.066 63.0945 190.328 63.5337C191.588 63.9727 192.665 64.549 193.564 65.2627L190.609 68.9674C190.203 68.6657 189.644 68.3583 188.937 68.0399C188.228 67.7243 187.394 67.5652 186.441 67.5652C185.6 67.5652 184.833 67.7709 184.138 68.1826C183.442 68.5943 182.892 69.1569 182.486 69.8704C182.081 70.5839 181.879 71.4073 181.879 72.3404C181.879 73.2186 182.096 74.0282 182.531 74.7691C182.964 75.5101 183.564 76.0946 184.332 76.52C185.099 76.9454 186.006 77.1596 187.048 77.1596C187.715 77.1596 188.332 77.0717 188.897 76.8906C189.462 76.7122 189.946 76.457 190.355 76.1303L193.39 79.7502Z" fill="#13080E"/>
<path d="M205.748 81.8497C203.431 81.8497 201.47 81.438 199.862 80.6147C198.254 79.7914 197.028 78.6525 196.189 77.198C195.348 75.7435 194.93 74.0694 194.93 72.1758C194.93 70.3645 195.422 68.7315 196.406 67.277C197.391 65.8225 198.71 64.6616 200.36 63.7971C202.012 62.9326 203.851 62.499 205.878 62.499C208.602 62.499 210.838 63.2483 212.59 64.744C214.343 66.2396 215.481 68.4022 216.002 71.2262L201.229 75.6721L199.882 72.5435L210.571 69.1267L209.312 69.6619C209.08 68.9484 208.665 68.3226 208.075 67.7902C207.48 67.255 206.589 66.9862 205.4 66.9862C204.503 66.9862 203.712 67.1865 203.031 67.5844C202.351 67.9824 201.829 68.5449 201.467 69.2722C201.105 69.9994 200.923 70.8558 200.923 71.8465C200.923 72.9716 201.139 73.9129 201.574 74.6649C202.008 75.4196 202.602 75.9905 203.356 76.3746C204.108 76.7588 204.949 76.951 205.875 76.951C206.542 76.951 207.185 76.8412 207.808 76.6217C208.431 76.4021 209.048 76.114 209.656 75.7572L212.35 80.0384C211.336 80.5873 210.244 81.0264 209.068 81.3558C207.9 81.685 206.791 81.8497 205.748 81.8497Z" fill="#13080E"/>
</g>
</g>
<defs>
<clipPath id="clip0_1744_1409">
<rect width="212" height="36" fill="white" transform="translate(4 49)"/>
</clipPath>
</defs>
</svg>
