<svg width="220" height="132" viewBox="0 0 220 132" fill="none" xmlns="http://www.w3.org/2000/svg">
<g opacity="0.64">
<path d="M69.1296 40.548C62.3629 33.744 53.3741 30 43.8119 30C24.0637 30 8 46.1496 8 66C8 85.8504 24.0637 102 43.8119 102C53.3741 102 62.3701 98.256 69.1296 91.452C75.8963 84.648 79.6166 75.612 79.6166 66C79.6166 56.388 75.8963 47.3448 69.1296 40.548ZM43.8119 99.5088C25.4328 99.5088 10.4802 84.4752 10.4802 66C10.4802 47.5248 25.4328 32.4912 43.8119 32.4912C62.1909 32.4912 77.1436 47.5248 77.1436 66C77.1436 84.4752 62.1909 99.5088 43.8119 99.5088Z" fill="#0A0B0D"/>
<path d="M55.5694 66.8491C53.2756 64.7899 50.2722 63.4147 47.362 62.0827L47.3404 62.0755C42.2081 59.7211 37.771 57.6835 38.0864 52.8667C38.2226 51.0307 39.5487 49.9219 40.6383 49.3243C41.864 48.6475 43.4912 48.2443 44.9965 48.2443C45.1757 48.2443 45.3549 48.2515 45.5269 48.2587C49.9066 48.5539 53.3617 50.4187 56.7378 54.2923L56.9386 54.5299L57.1751 54.3283L58.494 53.1763L58.7306 52.9675L58.5227 52.7299C54.7594 48.3955 50.6736 46.2139 45.6774 45.8755C45.4624 45.8539 45.233 45.8467 44.9821 45.8467C44.8316 45.8467 44.6667 45.8467 44.4947 45.8539H44.2797C41.0038 45.8539 37.4126 46.9339 34.6816 48.7483C31.4201 50.9155 29.5922 53.8963 29.542 57.1435C29.413 65.0419 35.8428 67.6987 41.5128 70.0531L41.5271 70.0603L41.5845 70.0819C46.6021 72.1699 50.9317 73.9699 50.8385 78.7939C50.7955 81.9763 46.2652 83.7331 43.1543 83.7331H43.0252H42.717V83.7403C38.0793 83.6035 33.9361 81.5947 30.4022 77.7859L30.1872 77.5555L29.9578 77.7643L28.6747 78.9595L28.4453 79.1755L28.6604 79.4059C32.6745 83.7475 37.6277 86.0803 42.9894 86.1451H43.2331C46.6953 86.1451 50.4586 85.2091 53.2972 83.6323C56.8525 81.6811 58.9241 78.8371 59.1392 75.6259C59.3829 72.0979 58.2145 69.2251 55.5694 66.8491ZM38.9251 59.9803C40.968 61.7371 43.7349 62.9971 46.4086 64.2139L46.4588 64.2355C49.2902 65.5459 51.9711 66.7843 53.9136 68.5051C56.064 70.4059 56.9744 72.6091 56.7809 75.4387C56.6016 78.2395 54.5301 80.1115 52.6449 81.2419C53.0104 80.4931 53.2111 79.6795 53.2326 78.8155C53.2756 75.9067 52.1646 73.5811 49.8278 71.6947C47.7849 70.0459 45.0753 68.9299 42.4518 67.8427C36.9969 65.5891 31.843 63.4579 31.9362 57.1651C31.9649 54.7459 33.4128 52.4563 36.0148 50.7211C36.1009 50.6635 36.1869 50.6059 36.2801 50.5483C35.9718 51.2251 35.7998 51.9307 35.7568 52.6723C35.5489 55.5883 36.5883 57.9787 38.9251 59.9803Z" fill="#0A0B0D"/>
<path d="M102.05 62.0627C100.745 62.0627 99.4618 61.8467 98.2074 61.4363C96.9602 61.0259 95.8849 60.4139 94.9961 59.6435L96.4799 57.1307C97.4261 57.8147 98.3579 58.3187 99.2683 58.6715C100.164 59.0099 101.075 59.1899 101.964 59.1899C102.752 59.1899 103.376 59.0459 103.842 58.7435C104.307 58.4411 104.523 58.0235 104.523 57.4475C104.523 56.8931 104.257 56.4755 103.72 56.2235C103.182 55.9715 102.308 55.6691 101.11 55.3235C100.093 55.0355 99.2325 54.7691 98.5228 54.5171C97.806 54.2651 97.2397 53.9627 96.7881 53.6387C96.358 53.3147 96.0355 52.9403 95.8419 52.5083C95.6484 52.0763 95.5409 51.5723 95.5409 50.9675C95.5409 50.1755 95.6986 49.4627 96.0068 48.8147C96.3079 48.1883 96.7379 47.6267 97.2899 47.1803C97.8418 46.7339 98.487 46.3883 99.2396 46.1579C99.9923 45.9275 100.795 45.7979 101.67 45.7979C102.831 45.7979 103.935 45.9563 104.953 46.3019C105.97 46.6403 106.917 47.1803 107.755 47.9507L106.15 50.3771C105.361 49.7867 104.594 49.3331 103.849 49.0667C103.096 48.7787 102.365 48.6563 101.634 48.6563C100.953 48.6563 100.401 48.8003 99.9349 49.0667C99.469 49.3547 99.254 49.8011 99.254 50.4131C99.254 50.7011 99.3113 50.9171 99.4117 51.0971C99.5192 51.2771 99.6984 51.4355 99.9278 51.5795C100.157 51.7235 100.48 51.8459 100.86 51.9755C101.254 52.0979 101.734 52.2419 102.308 52.3715C103.376 52.6595 104.293 52.9259 105.06 53.2139C105.827 53.5019 106.451 53.8043 106.938 54.1643C107.418 54.5243 107.777 54.9347 108.006 55.4027C108.236 55.8707 108.343 56.4251 108.343 57.0875C108.343 58.6139 107.77 59.8307 106.644 60.7163C105.526 61.6307 103.992 62.0627 102.05 62.0627Z" fill="#0A0B0D"/>
<path d="M127.582 54.9921H115.138C115.353 56.1585 115.927 57.0945 116.851 57.7929C117.783 58.4769 118.923 58.8153 120.278 58.8153C122.027 58.8153 123.453 58.2393 124.579 57.0729L126.564 59.3697C125.847 60.2337 124.959 60.8745 123.869 61.3065C122.779 61.7385 121.547 61.9689 120.192 61.9689C118.443 61.9689 116.909 61.6305 115.583 60.9249C114.264 60.2265 113.224 59.2545 112.508 58.0161C111.776 56.7777 111.418 55.3593 111.418 53.7969C111.418 52.2345 111.776 50.8521 112.472 49.5993C113.167 48.3609 114.149 47.3889 115.403 46.6905C116.651 45.9921 118.063 45.6465 119.618 45.6465C121.174 45.6465 122.55 45.9849 123.761 46.6689C124.973 47.3529 125.919 48.3177 126.622 49.5561C127.302 50.7945 127.639 52.2489 127.639 53.8617C127.632 54.1497 127.618 54.5025 127.582 54.9921ZM116.601 49.6929C115.776 50.3913 115.282 51.3417 115.102 52.5081H124.106C123.948 51.3561 123.46 50.4273 122.643 49.7073C121.819 48.9873 120.823 48.6273 119.604 48.6273C118.421 48.6201 117.418 48.9729 116.601 49.6929Z" fill="#0A0B0D"/>
<path d="M135.22 60.9317C133.915 60.2333 132.898 59.2613 132.166 58.0229C131.435 56.7845 131.062 55.3661 131.062 53.8037C131.062 52.2269 131.435 50.8229 132.166 49.5845C132.898 48.3461 133.915 47.3741 135.22 46.6973C136.525 45.9989 138.008 45.6533 139.664 45.6533C141.234 45.6533 142.596 45.9773 143.772 46.6037C144.947 47.2517 145.843 48.1661 146.431 49.3469L143.571 51.0173C143.105 50.2829 142.553 49.7213 141.858 49.3685C141.177 48.9941 140.431 48.8141 139.607 48.8141C138.216 48.8141 137.069 49.2605 136.159 50.1821C135.249 51.0821 134.783 52.2989 134.783 53.8109C134.783 55.3157 135.227 56.5397 136.138 57.4397C137.034 58.3541 138.188 58.8077 139.6 58.8077C140.403 58.8077 141.155 58.6277 141.851 58.2533C142.531 57.8789 143.098 57.3389 143.564 56.6045L146.424 58.2749C145.814 59.4773 144.904 60.3917 143.729 61.0397C142.553 61.6877 141.191 62.0117 139.643 62.0117C137.987 61.9757 136.525 61.6301 135.22 60.9317Z" fill="#0A0B0D"/>
<path d="M159.976 45.6387V49.1955C159.653 49.1451 159.367 49.1091 159.116 49.1091C157.668 49.1091 156.542 49.5411 155.725 50.3835C154.901 51.2259 154.514 52.4499 154.514 54.0483V61.7883H150.801V45.8187H154.335V48.1515C155.403 46.4811 157.281 45.6387 159.976 45.6387Z" fill="#0A0B0D"/>
<path d="M178.762 54.9921H166.318C166.533 56.1585 167.106 57.0945 168.031 57.7929C168.963 58.4769 170.103 58.8153 171.457 58.8153C173.206 58.8153 174.633 58.2393 175.758 57.0729L177.744 59.3697C177.027 60.2337 176.138 60.8745 175.049 61.3065C173.959 61.7385 172.726 61.9689 171.371 61.9689C169.622 61.9689 168.088 61.6305 166.762 60.9249C165.443 60.2265 164.404 59.2545 163.687 58.0161C162.956 56.7777 162.598 55.3593 162.598 53.7969C162.598 52.2345 162.956 50.8521 163.651 49.5993C164.347 48.3609 165.329 47.3889 166.583 46.6905C167.83 45.9921 169.242 45.6465 170.798 45.6465C172.353 45.6465 173.73 45.9849 174.941 46.6689C176.153 47.3529 177.099 48.3177 177.801 49.5561C178.482 50.7945 178.819 52.2489 178.819 53.8617C178.833 54.1497 178.812 54.5025 178.762 54.9921ZM167.795 49.6929C166.97 50.3913 166.476 51.3417 166.296 52.5081H175.3C175.142 51.3561 174.654 50.4273 173.837 49.7073C173.013 48.9873 172.017 48.6273 170.798 48.6273C169.615 48.6201 168.619 48.9729 167.795 49.6929Z" fill="#0A0B0D"/>
<path d="M193.101 60.8954C192.671 61.2554 192.134 61.5219 191.51 61.7019C190.886 61.8819 190.227 61.9683 189.524 61.9683C187.775 61.9683 186.435 61.5002 185.489 60.5858C184.543 59.6714 184.062 58.3395 184.062 56.5827V48.9003H181.453V45.9411H184.062V42.2979H187.775V45.9411H192.026V48.9219H187.775V56.5178C187.775 57.2882 187.969 57.8859 188.349 58.2963C188.722 58.7067 189.281 58.9083 189.99 58.9083C190.829 58.9083 191.51 58.6922 192.062 58.2458L193.101 60.8954Z" fill="#0A0B0D"/>
<path d="M108.102 72.0757C109.263 73.2277 109.837 74.8909 109.837 77.0869V86.2093H107.729V77.3029C107.729 75.6685 107.321 74.4301 106.518 73.5661C105.694 72.7021 104.554 72.2701 103.034 72.2701C101.357 72.2701 100.017 72.7741 99.0346 73.7749C98.0525 74.7829 97.5723 76.1653 97.5723 77.9365V86.1733H95.4648V70.4773H97.4863V73.3645C98.0597 72.4141 98.8625 71.6581 99.8804 71.1397C100.898 70.6213 102.074 70.3477 103.436 70.3477C105.386 70.3549 106.941 70.9309 108.102 72.0757Z" fill="#0A0B0D"/>
<path d="M129.009 78.9875H115.934C116.056 80.6219 116.687 81.9323 117.812 82.9403C118.938 83.9483 120.364 84.4451 122.099 84.4451C123.066 84.4451 123.955 84.2651 124.78 83.9267C125.582 83.5883 126.299 83.0627 126.887 82.3859L128.084 83.7683C127.389 84.6107 126.529 85.2371 125.475 85.6907C124.443 86.1227 123.296 86.3531 122.049 86.3531C120.443 86.3531 119.031 86.0147 117.784 85.3307C116.551 84.6467 115.59 83.6963 114.888 82.4795C114.192 81.2555 113.855 79.8947 113.855 78.3539C113.855 76.8275 114.192 75.4451 114.859 74.2283C115.518 73.0043 116.429 72.0755 117.59 71.3915C118.751 70.7075 120.056 70.3691 121.504 70.3691C122.952 70.3691 124.256 70.7075 125.396 71.3915C126.536 72.0755 127.446 73.0043 128.091 74.2067C128.751 75.4091 129.073 76.7915 129.073 78.3323L129.009 78.9875ZM117.669 73.6379C116.651 74.6099 116.063 75.8627 115.934 77.4251H127.023C126.88 75.8627 126.306 74.6099 125.289 73.6379C124.271 72.6659 123.002 72.1835 121.468 72.1835C119.956 72.1835 118.687 72.6659 117.669 73.6379Z" fill="#0A0B0D"/>
<path d="M140.889 85.2376C140.495 85.5976 139.993 85.864 139.427 86.0656C138.839 86.26 138.23 86.3536 137.606 86.3536C136.144 86.3536 135.019 85.9576 134.216 85.1512C133.427 84.3592 133.019 83.2288 133.019 81.7744V72.2776H130.23V70.4848H133.019V67.0576H135.126V70.4848H139.879V72.2776H135.126V81.6664C135.126 82.6024 135.356 83.3152 135.822 83.8048C136.288 84.2872 136.961 84.5392 137.822 84.5392C138.252 84.5392 138.682 84.4672 139.09 84.3232C139.499 84.1792 139.843 83.9848 140.144 83.7328L140.889 85.2376Z" fill="#0A0B0D"/>
<path d="M162.848 70.6074H165.364L158.777 86.2098H156.619L153.494 78.5994L150.405 86.2098H148.247L141.652 70.6074H144.154L149.509 83.6034L152.118 77.1234L149.437 70.6434H151.595L153.508 75.633L155.422 70.6434H157.58L154.921 77.1234L157.53 83.6034L162.848 70.6074Z" fill="#0A0B0D"/>
<path d="M173.833 86.4118C172.707 86.4118 171.675 86.1958 170.743 85.7638C169.811 85.3318 169.009 84.7558 168.313 84.0214C167.632 83.287 167.102 82.423 166.722 81.451C166.349 80.479 166.148 79.4566 166.148 78.3838C166.148 77.2894 166.342 76.2454 166.722 75.2806C167.116 74.3086 167.654 73.4518 168.328 72.7102C169.009 71.9758 169.811 71.3782 170.758 70.9534C171.689 70.5214 172.707 70.291 173.811 70.291C174.915 70.291 175.954 70.507 176.879 70.9534C177.825 71.3854 178.628 71.9758 179.309 72.7102C179.99 73.4446 180.52 74.3086 180.915 75.2806C181.309 76.2526 181.488 77.2894 181.488 78.3838C181.488 79.4638 181.295 80.4862 180.915 81.451C180.542 82.423 180.004 83.2798 179.323 84.0214C178.642 84.7558 177.825 85.3534 176.893 85.7638C175.997 86.1958 174.958 86.4118 173.833 86.4118ZM168.206 78.4054C168.206 79.2838 168.349 80.0902 168.65 80.8462C168.951 81.6022 169.345 82.243 169.847 82.819C170.349 83.395 170.951 83.827 171.632 84.151C172.313 84.475 173.044 84.6334 173.811 84.6334C174.578 84.6334 175.309 84.475 175.99 84.151C176.671 83.827 177.273 83.3806 177.797 82.8046C178.313 82.2286 178.728 81.5806 179.008 80.8102C179.309 80.0542 179.452 79.2334 179.452 78.3694C179.452 77.5054 179.309 76.699 179.008 75.9286C178.707 75.1582 178.313 74.4958 177.797 73.9198C177.281 73.3438 176.693 72.8974 175.99 72.5734C175.309 72.2494 174.578 72.091 173.811 72.091C173.044 72.091 172.313 72.2494 171.654 72.5734C170.973 72.8974 170.385 73.3654 169.869 73.9342C169.353 74.5102 168.937 75.1942 168.657 75.943C168.371 76.7206 168.206 77.527 168.206 78.4054Z" fill="#0A0B0D"/>
<path d="M192.645 72.4358C191.268 72.4718 190.093 72.8462 189.075 73.5662C188.057 74.2862 187.34 75.2726 186.932 76.5254V86.2022H184.91V70.643H186.824V74.3798C187.397 73.1774 188.164 72.2414 189.147 71.579C190.114 70.895 191.161 70.5566 192.272 70.5566C192.43 70.5566 192.559 70.5782 192.666 70.5926V72.443H192.645V72.4358Z" fill="#0A0B0D"/>
<path d="M207.795 86.2026L202.082 78.2322L198.764 81.3354V86.2026H196.742V64.4082H198.764V79.2186L207.459 70.6794H209.745L203.423 77.037L209.996 86.2098H207.795V86.2026Z" fill="#0A0B0D"/>
</g>
</svg>
