<svg width="141" height="84" viewBox="0 0 141 84" fill="none" xmlns="http://www.w3.org/2000/svg">
<g opacity="0.64">
<path d="M30.6317 44.3254L39.4619 35.5424C40.1254 34.888 40.4973 33.9865 40.4973 33.0558L40.5119 25.9596C40.5119 25.5961 40.3733 25.2471 40.1181 24.9854L23.1797 41.8461C21.8016 43.2057 21.7943 45.4233 23.1578 46.7902C23.1651 46.7974 23.1724 46.8047 23.1797 46.812L35.1234 58.685C36.5015 60.0519 38.7327 60.0446 40.0962 58.6705C41.4671 57.2963 41.4598 55.0715 40.0816 53.7119L30.6317 44.3254Z" fill="#737373"/>
<path d="M39.1366 24.6143H12.5222C10.3712 24.6143 8.78165 26.2356 8.78165 28.4459V56.1327C8.75248 58.074 10.3202 59.6736 12.267 59.7026C12.2962 59.7026 12.3327 59.7026 12.3545 59.7026C14.2941 59.739 15.8983 58.1903 15.9347 56.2563C15.9347 56.2127 15.9347 56.1691 15.9347 56.14V31.4415H33.6387L40.121 25.0069C39.8585 24.7451 39.5085 24.5997 39.1366 24.6143Z" fill="#B3B3B3"/>
<path d="M54.0008 33.7462V38.5376H51.8789V25.8721H57.5882C60.6143 25.8721 62.1309 27.2971 62.1309 29.4783C62.1309 31.3324 60.7893 32.6338 58.8278 32.9973C59.4184 33.0846 59.8705 33.2227 60.257 33.4845C60.9715 33.9498 61.3507 34.8005 61.7736 36.2619L62.4153 38.5376H60.1549L59.5643 36.2982C59.0247 34.197 58.4997 33.7462 56.2757 33.7462H54.0008ZM54.0008 27.7116V32.2048H56.9757C58.9226 32.2048 60.0236 31.3396 60.0236 29.9C60.0236 28.5113 59.1559 27.7116 57.0632 27.7116H54.0008Z" fill="#231F20"/>
<path d="M68.6502 38.7114C65.2888 38.7114 63.5898 36.5738 63.5898 33.731C63.5898 30.9754 65.4711 28.627 68.5846 28.627C71.7492 28.627 73.2512 30.8809 73.2512 33.5201V34.2472H65.6388C65.7919 35.9267 66.8054 36.9519 68.6138 36.9519C69.919 36.9519 70.67 36.4139 71.2387 35.4105L72.996 36.3848C72.1866 37.7226 70.8304 38.7114 68.6502 38.7114ZM65.6607 32.9312H71.1804C71.0929 31.4407 70.3127 30.3646 68.57 30.3646C66.9148 30.3646 65.9013 31.3317 65.6607 32.9312Z" fill="#231F20"/>
<path d="M79.4179 28.7002C81.0221 28.7002 82.1012 29.4127 82.7064 30.8014V28.8165H84.7918V42.2819H82.6846V36.5016C82.021 37.8904 80.8252 38.6538 79.2356 38.6538C76.9242 38.6538 75.043 37.0033 75.043 33.7242C75.0503 30.3797 77.194 28.7002 79.4179 28.7002ZM82.8669 33.6588C82.8669 31.7684 81.9992 30.3797 80.0158 30.3797C78.2075 30.3797 77.194 31.6957 77.194 33.6952C77.194 35.7091 78.1492 36.9233 80.0158 36.9233C81.9773 36.9233 82.8669 35.5346 82.8669 33.6588Z" fill="#231F20"/>
<path d="M96.3866 38.5373H94.2794V36.2325C93.6158 37.8975 92.42 38.7336 90.9179 38.7336C88.5482 38.7336 87.418 37.1559 87.418 34.7784V28.8164H89.5252V34.1967C89.5252 35.8762 90.1013 36.9523 91.7856 36.9523C93.3023 36.9523 94.2575 35.6654 94.2575 33.5714V28.8164H96.3794L96.3866 38.5373Z" fill="#231F20"/>
<path d="M103.701 38.7114C100.34 38.7114 98.6406 36.5738 98.6406 33.731C98.6406 30.9754 100.522 28.627 103.635 28.627C106.8 28.627 108.302 30.8809 108.302 33.5201V34.2472H100.697C100.85 35.9267 101.864 36.9519 103.672 36.9519C104.977 36.9519 105.728 36.4139 106.297 35.4105L108.054 36.3848C107.23 37.7226 105.874 38.7114 103.701 38.7114ZM100.704 32.9312H106.224C106.136 31.4407 105.356 30.3646 103.613 30.3646C101.958 30.3646 100.952 31.3317 100.704 32.9312Z" fill="#231F20"/>
<path d="M111.27 35.3598C112.072 36.4214 113.063 36.9739 114.507 36.9739C115.885 36.9739 116.454 36.3123 116.454 35.6216C116.454 34.6182 114.959 34.531 113.165 34.2329C111.393 33.9566 110.103 33.3677 110.103 31.63C110.103 29.9286 111.532 28.5908 113.967 28.5908C115.951 28.5908 117.343 29.2016 118.51 30.583L116.891 31.9572C116.14 30.8811 115.207 30.3576 113.843 30.3576C112.487 30.3576 111.948 30.9683 111.948 31.6445C111.948 32.5315 113.078 32.706 114.733 32.946C116.629 33.2223 118.335 33.673 118.335 35.6216C118.335 37.4102 116.891 38.748 114.456 38.748C112.247 38.748 110.701 37.9991 109.738 36.8067L111.27 35.3598Z" fill="#231F20"/>
<path d="M126.597 38.3264C126.094 38.5663 125.554 38.7045 124.825 38.7045C122.718 38.7045 121.865 37.5921 121.865 35.4399V30.5468H119.641V28.8163H121.886V26.337L123.855 25.1592V28.8163H126.604V30.554H123.855V35.2073C123.855 36.4578 124.358 36.9086 125.313 36.9086C125.838 36.9086 126.152 36.8214 126.604 36.6323L126.597 38.3264Z" fill="#231F20"/>
<path d="M53.9312 60.0943H51.875V47.4287H54.3979L59.9176 56.6625L60.4572 57.8258L60.3843 56.5752V47.4287H62.4405V60.0943H60.0708L54.3614 50.4969L53.8073 49.4572L53.9312 50.6569V60.0943Z" fill="#231F20"/>
<path d="M69.8182 60.269C66.4568 60.269 64.7578 58.1314 64.7578 55.2886C64.7578 52.533 66.639 50.1846 69.7526 50.1846C72.9171 50.1846 74.4192 52.4385 74.4192 55.0777V55.8048H66.8068C66.9599 57.4843 67.9734 58.5095 69.7817 58.5095C71.0869 58.5095 71.838 57.9715 72.4067 56.9681L74.164 57.9424C73.3546 59.2802 71.9911 60.269 69.8182 60.269ZM66.8286 54.4888H72.3484C72.2609 52.9983 71.4807 51.9223 69.738 51.9223C68.0755 51.9223 67.0692 52.8965 66.8286 54.4888Z" fill="#231F20"/>
<path d="M82.5226 59.8909C82.0195 60.1308 81.4799 60.2762 80.7507 60.2762C78.6435 60.2762 77.7903 59.1638 77.7903 57.0117V52.1185H75.5664V50.3808H77.8122V47.9015L79.781 46.7236V50.3881H82.5299V52.1258H79.781V56.779C79.781 58.0296 80.2841 58.4803 81.2393 58.4803C81.7643 58.4803 82.0778 58.3931 82.5299 58.2041L82.5226 59.8909Z" fill="#231F20"/>
<path d="M89.1565 60.0945H86.5461L84.0742 50.3809H86.2471L87.9169 57.5279L88.1283 58.793L88.4054 57.5279L90.5273 50.3809H92.2335L94.3043 57.5134L94.545 58.8294L94.771 57.5279L96.6012 50.3809H98.7449L96.0325 60.0945H93.5096L91.6137 53.3255L91.3731 52.2858L91.1471 53.3473L89.1565 60.0945Z" fill="#231F20"/>
<path d="M99.9922 55.2382C99.9922 52.3736 101.852 50.1924 104.987 50.1924C108.173 50.1924 109.967 52.4099 109.967 55.2382C109.967 58.052 108.108 60.2696 104.987 60.2696C101.771 60.2696 99.9922 58.1392 99.9922 55.2382ZM107.809 55.2382C107.809 53.2752 106.941 51.9446 104.987 51.9446C103.069 51.9446 102.151 53.3333 102.151 55.2382C102.151 57.165 102.989 58.481 104.987 58.481C106.956 58.481 107.809 57.1504 107.809 55.2382Z" fill="#231F20"/>
<path d="M118.739 50.6212L118.148 52.548C117.682 52.2499 117.157 52.1117 116.493 52.1117C115.275 52.1117 114.349 53.1151 114.349 55.1654V60.095H112.242V50.3813H114.349V52.7225C114.787 51.0211 115.618 50.2432 117.047 50.2432C117.762 50.2432 118.302 50.3813 118.739 50.6212Z" fill="#231F20"/>
<path d="M122.567 55.863L127.124 50.3809H129.574L125.885 54.6997L129.8 60.0946H127.292L124.157 55.5649L122.553 57.4044V60.0946H120.445V46.2803H122.553V55.863H122.567Z" fill="#231F20"/>
</g>
</svg>
