<svg width="220" height="132" viewBox="0 0 220 132" fill="none" xmlns="http://www.w3.org/2000/svg">
<g opacity="0.64">
<g clip-path="url(#clip0_789_380)">
<path fill-rule="evenodd" clip-rule="evenodd" d="M62.43 66.2694C62.43 80.7775 50.4484 92.5388 35.6684 92.5388C21.646 92.5388 10.1425 81.9524 9 68.4775H44.3727V64.0612H9C10.1425 50.5863 21.646 40 35.6684 40C50.4484 40 62.43 51.7612 62.43 66.2694ZM161.645 87.7793C170.918 87.7793 177 82.865 177 75.4637C177 68.5953 172.423 65.3388 165.499 64.2138L159.357 63.2072C154.66 62.4375 151.529 60.4243 151.529 55.9835C151.529 51.4836 155.022 48.0494 161.645 48.0494C168.088 48.0494 171.4 51.2467 171.761 55.8059H176.398C176.037 49.7665 171.34 44.3783 161.705 44.3783C152.191 44.3783 146.953 49.648 146.953 56.1612C146.953 63.0888 151.71 66.2861 158.213 67.3519L164.415 68.2993C169.593 69.1874 172.484 71.2598 172.484 75.6414C172.484 80.7927 168.209 84.1084 161.705 84.1084C154.962 84.1084 150.746 80.9111 150.385 75.4637H145.809C146.17 82.569 151.71 87.7793 161.645 87.7793ZM93.2835 86.9505H76.4233V45.2665H92.6814C99.8471 45.2665 104.845 49.4112 104.845 56.0428C104.845 60.8388 102.075 64.0361 97.6192 65.1019V65.2796C102.918 66.2861 106.169 69.8388 106.169 75.4045C106.169 82.569 100.81 86.9505 93.2835 86.9505ZM92.0793 63.5625C97.1978 63.5625 100.329 60.8388 100.329 56.5756V55.9835C100.329 51.7204 97.1978 49.0559 92.0793 49.0559H80.9397V63.5625H92.0793ZM92.6212 83.1611C98.2214 83.1611 101.653 80.1413 101.653 75.5229V74.9308C101.653 70.1348 98.1611 67.2335 92.561 67.2335H80.9397V83.1611H92.6212ZM142.639 86.9505H137.821L134.208 75.6414H117.348L113.736 86.9505H109.159L123.069 45.2665H128.548L142.639 86.9505ZM126.019 49.8257H125.658L118.552 71.9111H133.064L126.019 49.8257ZM183.783 86.9505V45.2665H211V49.1151H188.299V63.444H209.194V67.2335H188.299V83.1018H211V86.9505H183.783Z" fill="#0A0B0D"/>
</g>
</g>
<defs>
<clipPath id="clip0_789_380">
<rect width="202" height="53" fill="white" transform="translate(9 40)"/>
</clipPath>
</defs>
</svg>
