<svg width="400" height="240" viewBox="0 0 400 240" fill="none" xmlns="http://www.w3.org/2000/svg">
<g clip-path="url(#clip0_2144_392)">
<mask id="mask0_2144_392" style="mask-type:luminance" maskUnits="userSpaceOnUse" x="83" y="3" width="234" height="234">
<path d="M317 3H83V237H317V3Z" fill="white"/>
</mask>
<g mask="url(#mask0_2144_392)">
<mask id="mask1_2144_392" style="mask-type:luminance" maskUnits="userSpaceOnUse" x="83" y="3" width="234" height="234">
<path d="M317 3H83V237H317V3Z" fill="white"/>
</mask>
<g mask="url(#mask1_2144_392)">
<path d="M264.521 197.465H131.582V117.12H264.396L264.521 197.465ZM197.905 123.566C186.558 123.577 175.39 126.334 165.392 131.591C155.393 136.847 146.874 144.442 140.59 153.7C139.759 154.64 139.301 155.843 139.301 157.087C139.301 158.331 139.759 159.534 140.59 160.474C146.914 169.689 155.45 177.243 165.448 182.472C175.445 187.702 186.6 190.447 197.933 190.467C209.266 190.487 220.431 187.782 230.448 182.589C240.466 177.395 249.029 169.872 255.387 160.679C256.295 159.686 256.796 158.399 256.796 157.066C256.796 155.734 256.295 154.447 255.387 153.453C249.047 144.233 240.485 136.687 230.458 131.481C220.432 126.275 209.251 123.57 197.905 123.607V123.566Z" fill="#565553"/>
<path d="M198.284 109.606C187.01 109.584 175.91 106.883 165.934 101.734C155.96 96.5861 147.408 89.1437 141.012 80.0464C139.945 78.9349 139.352 77.4666 139.352 75.9409C139.352 74.4152 139.945 72.9468 141.012 71.8353C147.404 62.7538 155.961 55.3386 165.942 50.2333C175.922 45.1281 187.024 42.4872 198.281 42.5398C209.54 42.5924 220.615 45.337 230.545 50.5351C240.475 55.7334 248.961 63.2282 255.265 72.3689C256.168 73.3558 256.668 74.6352 256.668 75.9614C256.668 77.2875 256.168 78.5664 255.265 79.5533C248.968 88.7173 240.491 96.2421 230.564 101.478C220.637 106.714 209.558 109.504 198.284 109.606ZM223.088 76.351C223.204 71.4563 221.829 66.6388 219.139 62.5128C216.449 58.387 212.565 55.1405 207.983 53.1876C203.401 51.2348 198.329 50.6642 193.415 51.5488C188.5 52.4334 183.967 54.7329 180.392 58.1539C176.817 61.575 174.364 65.9619 173.346 70.7554C172.327 75.5489 172.79 80.5308 174.674 85.0657C176.558 89.6 179.779 93.4815 183.924 96.2146C188.07 98.9478 192.953 100.408 197.949 100.41C204.516 100.411 210.823 97.8948 215.521 93.399C220.218 88.9027 222.935 82.7842 223.088 76.351Z" fill="#565553"/>
<path d="M198.023 181.329C193.15 181.248 188.412 179.758 184.401 177.046C180.391 174.334 177.288 170.521 175.482 166.086C173.677 161.651 173.249 156.792 174.253 152.119C175.257 147.447 177.648 143.17 181.125 139.824C184.602 136.479 189.011 134.217 193.797 133.319C198.583 132.422 203.533 132.931 208.025 134.782C212.516 136.633 216.35 139.744 219.043 143.723C221.736 147.702 223.169 152.373 223.161 157.148C223.15 160.359 222.489 163.535 221.216 166.493C219.943 169.452 218.084 172.134 215.746 174.383C213.408 176.633 210.637 178.405 207.595 179.597C204.553 180.789 201.299 181.378 198.023 181.329Z" fill="#565553"/>
</g>
</g>
</g>
<defs>
<clipPath id="clip0_2144_392">
<rect width="156" height="156" fill="white" transform="translate(122 42)"/>
</clipPath>
</defs>
</svg>
