<svg width="220" height="132" viewBox="0 0 220 132" fill="none" xmlns="http://www.w3.org/2000/svg">
<g opacity="0.64">
<path d="M106.826 64.5891C106.826 66.5767 106.483 68.4032 105.799 70.0685C105.115 71.7338 104.148 73.1771 102.898 74.3983C101.648 75.6195 100.165 76.5721 98.4462 77.2598C96.7272 77.9438 94.847 78.2876 92.8056 78.2876C90.7356 78.2876 88.8483 77.9438 87.1436 77.2598C85.4389 76.5757 83.9598 75.6231 82.7099 74.3983C81.4601 73.1771 80.4931 71.7338 79.8091 70.0685C79.1251 68.4032 78.7812 66.5767 78.7812 64.5891C78.7812 62.6301 79.1251 60.8072 79.8091 59.1312C80.4931 57.4516 81.4601 56.0011 82.7099 54.7799C83.9598 53.5587 85.4353 52.6061 87.1436 51.9185C88.8483 51.2344 90.7356 50.8906 92.8056 50.8906C94.847 50.8906 96.7272 51.2344 98.4462 51.9185C100.165 52.6025 101.648 53.5587 102.898 54.7799C104.148 56.0011 105.115 57.4516 105.799 59.1312C106.483 60.8108 106.826 62.6301 106.826 64.5891ZM92.8056 73.5352C94.12 73.5352 95.3161 73.3132 96.3905 72.8691C97.4649 72.425 98.3853 71.8018 99.1517 70.996C99.9181 70.1903 100.516 69.2448 100.946 68.1561C101.376 67.0674 101.591 65.8784 101.591 64.5891C101.591 63.2998 101.376 62.1108 100.946 61.0221C100.516 59.9334 99.9181 58.9951 99.1517 58.2001C98.3853 57.4086 97.4649 56.789 96.3905 56.3449C95.3161 55.9009 94.12 55.6788 92.8056 55.6788C91.4877 55.6788 90.2951 55.9009 89.2207 56.3449C88.1464 56.789 87.226 57.405 86.4596 58.2001C85.6932 58.9915 85.0951 59.9334 84.6653 61.0221C84.2356 62.1108 84.0207 63.2998 84.0207 64.5891C84.0207 65.8784 84.2356 67.0674 84.6653 68.1561C85.0951 69.2448 85.6932 70.1903 86.4596 70.996C87.226 71.8018 88.1464 72.425 89.2207 72.8691C90.2916 73.3132 91.4877 73.5352 92.8056 73.5352Z" fill="black"/>
<path d="M109.766 67.977C109.766 66.3654 110.027 64.9078 110.55 63.6042C111.073 62.3006 111.8 61.1868 112.727 60.2593C113.655 59.3317 114.769 58.6154 116.072 58.1033C117.376 57.5948 118.819 57.3369 120.406 57.3369C121.964 57.3369 123.4 57.5983 124.718 58.1212C126.032 58.6441 127.167 59.3711 128.123 60.2986C129.076 61.2262 129.817 62.3328 130.34 63.6221C130.863 64.9114 131.125 66.3081 131.125 67.8122C131.125 69.585 130.834 71.1249 130.258 72.4249C129.681 73.7285 128.929 74.8172 128.002 75.6875C127.074 76.5613 126.021 77.2131 124.839 77.6429C123.657 78.0727 122.476 78.2875 121.294 78.2875C119.79 78.2875 118.468 77.9903 117.326 77.4029C116.183 76.812 115.292 76.0062 114.647 74.9856H114.565V86.2667H109.769V67.977H109.766ZM120.406 61.81C118.633 61.81 117.215 62.3686 116.155 63.4824C115.095 64.5962 114.565 66.0395 114.565 67.8122C114.565 69.585 115.095 71.0282 116.155 72.1456C117.215 73.2594 118.633 73.8181 120.406 73.8181C122.178 73.8181 123.6 73.2594 124.678 72.1456C125.753 71.0318 126.29 69.5885 126.29 67.8122C126.29 66.0395 125.753 64.5962 124.678 63.4824C123.6 62.3686 122.178 61.81 120.406 61.81Z" fill="black"/>
<path d="M138.09 69.5065V69.5853C138.413 70.9283 139.064 71.9883 140.046 72.7691C141.027 73.5498 142.27 73.9366 143.774 73.9366C145.923 73.9366 147.495 73.3063 148.487 72.0421H153.605C152.852 73.9509 151.617 75.4658 149.898 76.5939C148.179 77.722 146.138 78.2879 143.774 78.2879C142.187 78.2879 140.744 78.0264 139.444 77.5036C138.14 76.9807 137.012 76.2537 136.06 75.3297C135.107 74.4021 134.366 73.2955 133.843 72.0063C133.32 70.717 133.059 69.3203 133.059 67.8161C133.059 66.312 133.32 64.9153 133.843 63.626C134.366 62.3367 135.104 61.2301 136.06 60.3026C137.012 59.375 138.14 58.6516 139.444 58.1251C140.748 57.6023 142.191 57.3408 143.774 57.3408C145.332 57.3408 146.768 57.6023 148.086 58.1251C149.4 58.648 150.525 59.375 151.449 60.3026C152.376 61.2301 153.1 62.3367 153.622 63.626C154.145 64.9153 154.407 66.312 154.407 67.8161V69.5101H138.09V69.5065ZM143.774 61.6885C142.348 61.6885 141.16 62.0395 140.207 62.7343C139.254 63.4326 138.588 64.3852 138.212 65.5957V65.6781H149.332V65.5957C148.956 64.3852 148.286 63.4326 147.316 62.7343C146.352 62.0395 145.171 61.6885 143.774 61.6885Z" fill="black"/>
<path d="M172.022 77.7682V67.4111C172.022 65.5059 171.563 64.0948 170.65 63.1816C169.737 62.2684 168.515 61.81 166.983 61.81C165.45 61.81 164.229 62.2684 163.315 63.1816C162.402 64.0948 161.944 65.5059 161.944 67.4111V77.7646H157.148V67.4111C157.148 65.7458 157.381 64.2882 157.854 63.0383C158.323 61.7885 158.989 60.7427 159.849 59.894C160.708 59.0488 161.743 58.4113 162.95 57.9815C164.161 57.5518 165.504 57.3369 166.979 57.3369C168.455 57.3369 169.801 57.5446 171.008 57.9601C172.215 58.3755 173.25 59.0094 174.109 59.8546C174.969 60.6998 175.635 61.7562 176.104 63.0169C176.573 64.2811 176.81 65.7422 176.81 67.4075V77.7611H172.022V77.7682Z" fill="black"/>
<path d="M188.901 77.2627C187.197 76.5787 185.718 75.626 184.468 74.4012C183.218 73.18 182.251 71.7367 181.567 70.0714C180.883 68.4061 180.539 66.5797 180.539 64.592C180.539 62.6331 180.883 60.8102 181.567 59.1341C182.251 57.4545 183.218 56.0041 184.468 54.7829C185.718 53.5616 187.193 52.609 188.901 51.9214C190.606 51.2374 192.493 50.8936 194.563 50.8936C196.605 50.8936 198.485 51.2374 200.204 51.9214C201.923 52.6054 203.406 53.5616 204.656 54.7829C205.905 56.0041 206.872 57.4545 207.556 59.1341C208.24 60.8138 208.584 62.6331 208.584 64.592C208.584 66.5797 208.24 68.4061 207.556 70.0714C206.872 71.7367 205.905 73.18 204.656 74.4012C203.886 75.1533 203.749 75.3574 202.8 75.9054M194.563 73.5345C195.878 73.5345 197.074 73.3125 198.148 72.8684C199.223 72.4243 200.143 71.8012 200.91 70.9954C201.676 70.1896 202.274 69.2441 202.704 68.1554C203.133 67.0667 203.348 65.8777 203.348 64.5885C203.348 63.2992 203.133 62.1102 202.704 61.0215C202.274 59.9328 201.676 58.9945 200.91 58.1994C200.143 57.408 199.223 56.7884 198.148 56.3443C197.074 55.9002 195.878 55.6782 194.563 55.6782C193.246 55.6782 192.053 55.9002 190.979 56.3443C189.904 56.7884 188.984 57.4044 188.217 58.1994C187.451 58.9909 186.853 59.9328 186.423 61.0215C185.993 62.1102 185.779 63.2992 185.779 64.5885C185.779 65.8777 185.993 67.0667 186.423 68.1554C186.853 69.2441 187.451 70.1896 188.217 70.9954C188.984 71.8012 189.904 72.4243 190.979 72.8684C192.049 73.3125 193.246 73.5345 194.563 73.5345ZM202.8 75.9054L208.996 77.0192L208.147 81.7393L197.955 79.9057C196.315 79.612 189.779 77.8357 188.633 77.1517" fill="black"/>
<path d="M54.9998 44.1011C42.9881 34.9401 25.7621 37.2608 16.6011 49.2761C7.44014 61.2878 9.76083 78.5139 21.7761 87.6748C33.7878 96.8358 51.0138 94.5151 60.1748 82.4998C69.3322 70.4881 67.0115 53.2621 54.9998 44.1011ZM16.6727 57.2982C16.8482 60.9726 18.6138 64.5897 21.8191 67.0322C22.4243 67.4942 23.0689 67.8845 23.7243 68.2319C24.1075 68.4504 24.5015 68.6402 24.9026 68.7978C24.9563 68.8193 25.01 68.8407 25.0637 68.8622C25.9197 69.1774 26.8078 69.3529 27.6996 69.3923C27.918 69.8364 28.4516 70.6242 28.4337 70.6386C25.01 73.7973 20.1359 74.5816 16.1105 72.884C14.5383 67.8451 14.6815 62.3264 16.6727 57.2982ZM37.4873 53.7133C37.4944 53.7098 37.5016 53.7097 37.5087 53.7062C40.4741 52.7141 43.8656 53.1582 46.5408 55.196C48.3995 56.6142 49.6064 58.566 50.1113 60.6754C50.1257 60.7291 50.1364 60.7864 50.1472 60.8401C50.1615 60.901 50.1722 60.9619 50.1866 61.0228C50.2439 61.32 50.2904 61.6208 50.3191 61.9217C50.3155 61.9217 50.3119 61.9181 50.3083 61.9181C50.4516 63.39 50.2618 64.8906 49.721 66.3016C49.3987 67.1504 48.951 67.9705 48.3708 68.7333C46.24 71.5303 42.8879 72.8411 39.6325 72.5008C38.9842 72.4364 38.336 72.2967 37.7057 72.0926C37.7057 72.0997 37.7021 72.1069 37.7021 72.1105C36.6922 71.7703 35.7181 71.2581 34.8192 70.5741C33.9239 69.8901 33.1754 69.0879 32.5773 68.2069C32.5773 68.2069 32.5773 68.2069 32.5809 68.2069C32.212 67.6482 31.9076 67.0608 31.6641 66.4449C31.1269 65.0911 30.9012 63.6335 31.0051 62.1831C31.134 60.3602 31.7787 58.5517 32.9712 56.9902C33.555 56.2274 34.2283 55.572 34.9696 55.0348C35.7074 54.4976 36.5096 54.075 37.3476 53.7671C37.387 53.7491 37.4371 53.7277 37.4873 53.7133ZM18.424 78.0125C22.367 78.7681 26.6037 77.7116 29.7803 74.7821C30.1814 74.4133 30.5467 74.0193 30.8905 73.611C31.2021 73.8975 31.528 74.1733 31.8718 74.4347C32.2514 74.7248 32.6453 74.9934 33.0429 75.2405C32.742 75.681 32.4555 76.143 32.2048 76.6301C30.2351 80.4442 30.3211 84.7775 32.058 88.3696C29.3004 87.596 26.6395 86.3032 24.2257 84.4624C21.8334 82.6395 19.8923 80.4406 18.424 78.0125ZM37.5804 89.2184C34.9374 85.7911 34.393 80.9456 36.5131 76.8414C36.6027 76.8342 37.3977 77.0348 37.8382 77.1207C38.2393 78.3634 38.9162 79.5202 39.8581 80.5015C40.4024 81.1031 41.0077 81.6618 41.6702 82.1703C44.8755 84.6128 48.8292 85.3613 52.4213 84.5555C48.1058 87.7966 42.8413 89.3938 37.5804 89.2184ZM60.1676 74.3165C58.5596 77.8549 56.1423 79.2158 55.5191 79.5202C51.8877 80.9814 47.5471 80.5337 44.1521 77.9444C43.8262 77.6973 43.5218 77.4287 43.2245 77.1494C46.6339 76.5262 49.8284 74.6783 52.0954 71.7058C54.8995 68.0278 55.6624 63.4401 54.5736 59.2894C54.5629 59.2429 54.5486 59.1927 54.5378 59.1462C54.4877 58.9599 54.4304 58.7773 54.3731 58.5911C53.5207 55.8442 51.8411 53.323 49.3772 51.4464C45.8138 48.7282 41.3909 47.9438 37.344 48.9036C37.3297 48.9072 37.3189 48.9108 37.3046 48.9144C37.0969 48.9645 36.8892 49.0147 36.685 49.0755C36.4487 49.1436 36.2123 49.2152 35.9795 49.294C35.9545 49.3012 35.9294 49.3119 35.9043 49.3227C35.6286 49.4158 35.3564 49.5232 35.0878 49.6342C35.0842 49.6306 35.0806 49.6306 35.077 49.6271C34.5578 49.8419 34.0528 50.0926 33.5622 50.372C31.8897 51.3067 30.3784 52.5924 29.1428 54.2111C26.8759 57.1836 25.9411 60.7506 26.242 64.203C25.8982 63.9917 25.5579 63.7696 25.232 63.5225C21.837 60.9332 20.254 56.8649 20.7053 52.9756C20.8342 52.2916 21.5075 49.6056 24.4907 47.1202C32.6346 41.0964 44.1019 40.8708 52.5538 47.3135C60.9985 53.7563 63.817 64.8727 60.1676 74.3165Z" fill="black"/>
<path d="M37.698 66.6494C39.0159 67.7524 40.7779 67.9744 42.2678 67.3764L41.641 64.0887L44.9 64.4827C45.3942 62.8174 44.8929 60.9443 43.4783 59.7589C41.5766 58.1617 38.7366 58.4124 37.1429 60.314C35.5457 62.2157 35.7928 65.0521 37.698 66.6494Z" fill="black"/>
</g>
</svg>
