<svg width="220" height="101" viewBox="0 0 220 101" fill="none" xmlns="http://www.w3.org/2000/svg">
<g opacity="0.64">
<path d="M68.858 63.9591H55.8438V41.341H68.858V45.2705H60.6352V50.2365H68.2862V54.1662H60.6352V59.9987H68.858V63.9591ZM81.5137 63.9591H76.7223V45.3324H70.5861V41.341H87.6499V45.3324H81.5137V63.9591ZM108.853 63.9591H104.077V54.1972H95.1278V63.9591H90.3363V41.341H95.1278V50.2056H104.077V41.341H108.853V63.9591ZM123.966 63.9591L116.377 43.94H116.254C116.295 44.3629 116.331 44.8786 116.362 45.487C116.393 46.0957 116.419 46.7609 116.439 47.4827C116.46 48.1945 116.47 48.9217 116.47 49.6642V63.9591H114.028V41.341H117.923L125.079 60.1533H125.187L132.452 41.341H136.316V63.9591H133.719V49.4786C133.719 48.8081 133.73 48.1377 133.75 47.4673C133.771 46.7865 133.797 46.1471 133.828 45.549C133.858 44.9405 133.889 44.4145 133.92 43.971H133.797L126.115 63.9591H123.966ZM155.309 47.0033V63.9591H153.207L152.836 61.5766H152.697C152.346 62.1645 151.893 62.6596 151.337 63.0619C150.78 63.464 150.152 63.7632 149.451 63.9591C148.76 64.1654 148.024 64.2685 147.241 64.2685C145.901 64.2685 144.778 64.052 143.871 63.6189C142.964 63.1856 142.279 62.5152 141.815 61.6076C141.362 60.7 141.135 59.5346 141.135 58.1112V47.0033H143.732V57.9256C143.732 59.3385 144.051 60.3957 144.69 61.097C145.329 61.788 146.303 62.1336 147.611 62.1336C148.869 62.1336 149.868 61.8963 150.61 61.422C151.362 60.9475 151.903 60.2513 152.233 59.3334C152.563 58.4051 152.728 57.2707 152.728 55.9298V47.0033H155.309ZM167.965 46.6938C169.974 46.6938 171.494 47.1889 172.524 48.1789C173.555 49.1587 174.07 50.7369 174.07 52.913V63.9591H171.535V53.0833C171.535 51.6702 171.21 50.613 170.561 49.9117C169.922 49.2104 168.938 48.8597 167.609 48.8597C165.734 48.8597 164.415 49.3909 163.652 50.4533C162.89 51.5155 162.508 53.0574 162.508 55.0789V63.9591H159.943V47.0033H162.014L162.4 49.4477H162.539C162.9 48.8495 163.358 48.3491 163.915 47.947C164.471 47.5344 165.095 47.225 165.785 47.0187C166.475 46.8021 167.202 46.6938 167.965 46.6938ZM181.13 47.0033V63.9591H178.564V47.0033H181.13ZM179.878 40.6602C180.301 40.6602 180.662 40.7995 180.96 41.0779C181.269 41.3462 181.424 41.769 181.424 42.3465C181.424 42.9139 181.269 43.3367 180.96 43.6152C180.662 43.8937 180.301 44.0329 179.878 44.0329C179.435 44.0329 179.064 43.8937 178.765 43.6152C178.477 43.3367 178.333 42.9139 178.333 42.3465C178.333 41.769 178.477 41.3462 178.765 41.0779C179.064 40.7995 179.435 40.6602 179.878 40.6602ZM192.565 64.2685C191.04 64.2685 189.695 63.9539 188.531 63.3248C187.366 62.6957 186.46 61.7366 185.811 60.4473C185.161 59.1581 184.837 57.5336 184.837 55.574C184.837 53.5215 185.177 51.8455 185.857 50.546C186.547 49.2362 187.495 48.2667 188.701 47.6376C189.906 47.0084 191.277 46.6938 192.812 46.6938C193.657 46.6938 194.471 46.7814 195.254 46.9567C196.048 47.1218 196.697 47.3332 197.202 47.5912L196.429 49.7415C195.914 49.5352 195.316 49.3496 194.636 49.1846C193.966 49.0195 193.338 48.937 192.751 48.937C191.576 48.937 190.597 49.1897 189.814 49.6952C189.041 50.2005 188.459 50.9432 188.067 51.923C187.686 52.9028 187.495 54.1094 187.495 55.543C187.495 56.9149 187.681 58.0854 188.052 59.0549C188.433 60.0245 188.995 60.767 189.736 61.2828C190.489 61.7881 191.426 62.0407 192.55 62.0407C193.446 62.0407 194.255 61.948 194.976 61.7622C195.697 61.5664 196.352 61.3394 196.939 61.0816V63.3712C196.372 63.6601 195.739 63.8818 195.038 64.0366C194.348 64.1912 193.523 64.2685 192.565 64.2685ZM202.733 39.8867V47.0806C202.733 47.4932 202.723 47.9109 202.701 48.3337C202.681 48.7463 202.644 49.128 202.593 49.4786H202.762C203.113 48.8802 203.556 48.3801 204.092 47.978C204.638 47.5654 205.257 47.2559 205.946 47.0496C206.638 46.8331 207.369 46.7248 208.141 46.7248C209.503 46.7248 210.636 46.9414 211.542 47.3745C212.458 47.8078 213.144 48.4781 213.597 49.3857C214.062 50.2933 214.293 51.4692 214.293 52.913V63.9591H211.759V53.0833C211.759 51.6702 211.434 50.613 210.786 49.9117C210.145 49.2104 209.162 48.8597 207.832 48.8597C206.575 48.8597 205.572 49.1021 204.819 49.5869C204.076 50.0612 203.54 50.7625 203.211 51.6909C202.892 52.6192 202.733 53.7536 202.733 55.0943V63.9591H200.166V39.8867H202.733Z" fill="black" fill-opacity="0.72"/>
<mask id="mask0_1434_285" style="mask-type:luminance" maskUnits="userSpaceOnUse" x="4" y="16" width="43" height="71">
<path d="M46.6737 16H4V86.9884H46.6737V16Z" fill="white"/>
</mask>
<g mask="url(#mask0_1434_285)">
<path d="M25.3958 16.0586C25.6025 16.3389 25.757 16.651 25.9329 16.9497C26.4996 17.9119 27.06 18.8778 27.622 19.8431C28.232 20.8914 28.8416 21.9401 29.4505 22.989C29.9939 23.9219 30.5381 24.8547 31.0836 25.7876C31.6938 26.8356 32.3034 27.8842 32.9123 28.9333C33.4441 29.8475 33.9761 30.7615 34.5083 31.6754C35.0744 32.6468 35.6409 33.6178 36.2074 34.5886C36.9187 35.8086 37.6306 37.0286 38.3429 38.249C39.0578 39.4761 39.7714 40.7038 40.4839 41.9319C41.1316 43.0438 41.7805 44.155 42.4305 45.2656C43.1418 46.4862 43.8517 47.7078 44.5605 48.9303C45.2263 50.0746 45.8931 51.2183 46.5606 52.3616C46.6637 52.5393 46.6647 52.5496 46.494 52.6574C45.5689 53.2434 44.6428 53.8284 43.7158 54.4121C42.9276 54.9097 42.1393 55.4069 41.3507 55.9041C39.9105 56.8104 38.4702 57.7164 37.0296 58.622C35.5457 59.5557 34.0618 60.4897 32.5779 61.4244C30.8564 62.5081 29.1344 63.5918 27.4125 64.6754C26.7989 65.0617 26.1859 65.4491 25.5735 65.8372C25.5113 65.8767 25.4539 65.9246 25.381 65.9453L25.3434 65.907C25.342 65.8033 25.3398 65.6999 25.3398 65.5962C25.3398 49.168 25.3398 32.7398 25.3398 16.3116C25.3398 16.2301 25.3418 16.1488 25.343 16.0673L25.3958 16.0586ZM40.5066 52.6726C40.5424 52.6647 40.5838 52.6659 40.6128 52.6478C41.1623 52.3032 41.7105 51.9571 42.2575 51.6092C42.3944 51.5216 42.395 51.4919 42.3075 51.3406C42.061 50.913 41.8206 50.4817 41.5653 50.0592C41.4362 49.8464 41.3448 49.61 41.1714 49.4246C41.092 49.1907 40.9418 48.9952 40.8201 48.7846C40.2091 47.7281 39.5955 46.6729 38.9795 45.6194C38.4398 44.6924 37.8998 43.7659 37.3593 42.8395C36.7488 41.7911 36.139 40.7425 35.5298 39.6934C34.8854 38.5878 34.2405 37.4826 33.5946 36.3779C32.8207 35.0484 32.0479 33.718 31.2759 32.3868C30.4987 31.0506 29.7198 29.7153 28.9392 28.3809C28.8125 28.1652 28.7069 27.9367 28.5457 27.741C28.5419 27.7188 28.5382 27.6868 28.5142 27.6926C28.4901 27.6984 28.4988 27.7297 28.5069 27.7515C28.5049 27.8403 28.5008 27.9291 28.5008 28.018C28.5008 32.7068 28.5008 37.3958 28.5008 42.085C28.5008 42.1737 28.5051 42.2627 28.5071 42.3514C28.5037 42.4403 28.4972 42.5291 28.497 42.618C28.497 43.513 28.497 44.4082 28.497 45.3034C28.497 45.5257 28.5025 45.7478 28.5055 45.9698C28.5041 46.0215 28.5017 46.0734 28.5017 46.1252C28.5017 50.7515 28.5017 55.3777 28.5017 60.0042C28.5017 60.0485 28.5017 60.0929 28.5035 60.1375C28.5078 60.2233 28.5563 60.2393 28.6227 60.2004C28.7311 60.1369 28.8357 60.0673 28.9423 60.0006C30.5387 58.9954 32.1354 57.9899 33.7318 56.9845C34.6261 56.4181 35.5209 55.8524 36.4158 55.2876C37.7242 54.4632 39.0325 53.6392 40.3413 52.8154C40.4039 52.7758 40.4713 52.7428 40.5066 52.6726Z" fill="black" fill-opacity="0.72"/>
<path d="M25.3424 16.0646C25.3414 16.1461 25.3394 16.2274 25.3394 16.3089C25.3394 32.7372 25.3394 49.1657 25.3394 65.5947C25.3394 65.6984 25.3416 65.8018 25.3428 65.9055C25.3384 65.9193 25.3361 65.9335 25.3353 65.9479C25.1771 65.8994 25.0516 65.7925 24.9152 65.7059C22.0339 63.8941 19.1536 62.08 16.2743 60.2642C13.8262 58.7215 11.3781 57.1794 8.92996 55.6377C7.34584 54.64 5.76201 53.6417 4.17849 52.6431C4.1476 52.6236 4.11915 52.5987 4.08959 52.578C4.08714 52.5447 4.08448 52.5114 4.08203 52.4778C4.31296 52.0733 4.541 51.6675 4.77526 51.2649C5.70904 49.6597 6.64365 48.0551 7.57905 46.4507C8.76756 44.412 9.95598 42.3734 11.1443 40.3343C12.4779 38.0457 13.8102 35.7569 15.1414 33.4679C16.4305 31.256 17.7196 29.0445 19.0087 26.8335C20.2596 24.6862 21.5098 22.5379 22.7594 20.3886C23.5848 18.9694 24.4116 17.5508 25.2395 16.133C25.2653 16.0886 25.2841 16.0391 25.3351 16.0146L25.3424 16.0646ZM22.1775 45.9644C22.1793 45.6027 22.1831 45.2414 22.1828 44.8799C22.1819 44.0387 22.18 43.1976 22.177 42.3564C22.1793 42.297 22.1837 42.2381 22.1837 42.1787C22.1837 37.4191 22.1837 32.6596 22.1837 27.9001V27.7224C22.0879 27.7701 22.0741 27.8397 22.0419 27.8947C21.3751 29.0386 20.7084 30.183 20.0416 31.3279C19.293 32.6127 18.5441 33.8976 17.795 35.1825C16.9128 36.6977 16.0306 38.2134 15.1485 39.7296C14.2995 41.1871 13.4501 42.6445 12.6003 44.102C11.7772 45.5147 10.9549 46.928 10.1333 48.3417C9.92589 48.6999 9.70009 49.0476 9.5196 49.4209C9.49166 49.4552 9.46561 49.4907 9.44159 49.5278C9.07998 50.1445 8.72058 50.7626 8.35764 51.3781C8.30118 51.4744 8.31163 51.5337 8.41009 51.5941C8.78036 51.8225 9.14355 52.0605 9.51471 52.2883C9.73431 52.4228 9.93701 52.5867 10.1804 52.6802C10.2204 52.7469 10.2915 52.7756 10.354 52.8135C11.2172 53.3592 12.0811 53.904 12.9455 54.4475C15.8255 56.2623 18.7059 58.0766 21.5865 59.8902C21.767 60.0036 21.9359 60.1382 22.1375 60.2166C22.1431 60.2324 22.1597 60.2411 22.1671 60.2299C22.1727 60.2121 22.1749 60.1934 22.1733 60.1748C22.1764 60.0938 22.1819 60.0127 22.1819 59.9305C22.1819 55.3685 22.1819 50.8066 22.1819 46.2446C22.1819 46.1638 22.1751 46.0827 22.1713 46.0017C22.1768 45.99 22.179 45.977 22.1775 45.9644Z" fill="black" fill-opacity="0.72"/>
<path d="M46.5506 56.4453C46.3922 56.7386 46.1811 56.9966 45.9932 57.2699C44.9824 58.7388 43.9674 60.2052 42.9481 61.6689C42.2784 62.6361 41.6086 63.6035 40.9395 64.5711C40.4136 65.3302 39.8877 66.0889 39.3614 66.8474C37.3953 69.6882 35.4293 72.5292 33.4632 75.3702C31.8674 77.6755 30.2706 79.9802 28.6734 82.285C27.7717 83.5866 26.8693 84.8877 25.9659 86.1882C25.7773 86.4584 25.6202 86.7519 25.3844 86.9877C25.3844 86.8767 25.3828 86.7657 25.3828 86.6546V70.9646C25.3828 70.5132 25.3834 70.0619 25.3846 69.6107C26.1881 69.1082 26.9914 68.6055 27.7946 68.1029C30.3525 66.4975 32.9103 64.8918 35.4679 63.2858L39.0042 61.0647L45.8682 56.7559C46.0929 56.6147 46.3096 56.4605 46.5488 56.3438C46.5502 56.3787 46.5504 56.4114 46.5506 56.4453ZM35.3187 67.133C35.3049 67.0805 35.2829 67.1146 35.263 67.1279C34.768 67.4375 34.273 67.7471 33.7783 68.0568C32.0869 69.1178 30.3953 70.1785 28.7033 71.2384C28.59 71.3092 28.5418 71.3827 28.542 71.5186C28.5463 73.2512 28.5447 74.9818 28.5465 76.7133C28.5465 76.7578 28.5148 76.817 28.5804 76.8466C28.6312 76.8205 28.6529 76.772 28.6822 76.73C29.7137 75.2418 30.7454 73.7535 31.7771 72.2657C32.6747 70.9703 33.5718 69.6746 34.4685 68.3788C34.7534 67.9655 35.0346 67.5483 35.3187 67.133Z" fill="black" fill-opacity="0.72"/>
<path d="M25.3818 69.6108C25.3818 70.062 25.3812 70.5133 25.38 70.9645V86.6547C25.38 86.7658 25.38 86.877 25.3816 86.988C25.3046 86.9723 25.2884 86.8991 25.2526 86.8466C24.3541 85.5515 23.4568 84.2555 22.5606 82.9588C20.9933 80.6957 19.4257 78.4325 17.8579 76.1698C16.1814 73.7481 14.5055 71.326 12.8299 68.9037C11.7394 67.3277 10.6481 65.7519 9.55625 64.1767C7.78588 61.6219 6.01522 59.0677 4.24426 56.5138C4.2067 56.4598 4.17247 56.4028 4.12891 56.3361C4.22559 56.3062 4.27693 56.3673 4.33405 56.4028C5.30666 57.0114 6.2789 57.6207 7.25076 58.2307C9.48342 59.6315 11.7149 61.0332 13.9452 62.4352C16.3775 63.9627 18.8099 65.4902 21.2424 67.0175C22.5964 67.8677 23.9501 68.7185 25.3036 69.5698C25.3286 69.5844 25.3558 69.5968 25.3818 69.6108ZM15.5135 67.1475C15.5001 67.1195 15.4819 67.1031 15.449 67.1191L15.4728 67.1469C15.4868 67.2232 15.5395 67.277 15.5819 67.3372C16.226 68.2685 16.8706 69.1996 17.5156 70.1303C18.9389 72.1873 20.3629 74.2437 21.7874 76.2996C21.913 76.4802 22.0186 76.6771 22.1799 76.8325L22.199 76.8622L22.2124 76.8321C22.2159 76.7877 22.223 76.7433 22.223 76.6988C22.223 74.9691 22.2217 73.2391 22.2268 71.509C22.2268 71.368 22.1668 71.3026 22.057 71.2337C20.1456 70.037 18.2355 68.8389 16.3267 67.6395C16.0584 67.4705 15.8017 67.2822 15.5128 67.1475H15.5135Z" fill="black" fill-opacity="0.72"/>
<path d="M40.5066 52.6726C39.9247 52.3498 39.3429 52.0269 38.7612 51.7041C38.2129 51.3976 37.6653 51.0893 37.1183 50.7795C36.4675 50.4127 35.8169 50.046 35.1664 49.6796C34.6313 49.3788 34.0959 49.0787 33.5602 48.7793C32.7738 48.3373 31.9878 47.8949 31.202 47.452C30.6863 47.1619 30.1703 46.8725 29.654 46.5836C29.3254 46.399 28.9967 46.214 28.6683 46.0282C28.617 45.9996 28.5686 45.9618 28.5053 45.9661C28.5023 45.744 28.497 45.5219 28.4968 45.2999C28.4958 44.4047 28.4958 43.5095 28.4968 42.6143C28.4968 42.5254 28.5035 42.4366 28.5071 42.3477C28.9666 42.6017 29.4273 42.8533 29.885 43.1093C30.5238 43.4667 31.1618 43.8258 31.7986 44.1868C32.4625 44.5609 33.1259 44.935 33.7893 45.3091C34.3113 45.6028 34.8338 45.8935 35.357 46.1872C36.0212 46.5603 36.6846 46.9343 37.3477 47.3092C37.9859 47.6681 38.6245 48.0263 39.2635 48.3834C39.8694 48.724 40.4749 49.0654 41.0802 49.4074C41.1093 49.4238 41.1324 49.4668 41.1708 49.422C41.3442 49.6076 41.4358 49.8441 41.5647 50.0569C41.8201 50.4789 42.0607 50.9107 42.3072 51.3382C42.3944 51.4895 42.394 51.5193 42.2571 51.6068C41.7107 51.9557 41.1624 52.3019 40.6124 52.6454C40.5836 52.6659 40.5425 52.6649 40.5066 52.6726Z" fill="black" fill-opacity="0.72"/>
<path d="M22.1261 45.9997C21.7883 46.135 21.488 46.3403 21.172 46.5155C20.2405 47.032 19.3141 47.5572 18.3857 48.0794C17.2642 48.7102 16.1427 49.3411 15.0212 49.9724C14.0219 50.5341 13.0223 51.0952 12.0224 51.6559C11.4677 51.9669 10.9132 52.2787 10.359 52.5913C10.301 52.6236 10.2404 52.6509 10.1812 52.68C9.93675 52.5868 9.73518 52.4229 9.51558 52.2886C9.14485 52.0616 8.78212 51.8221 8.41095 51.5941C8.31249 51.5334 8.30205 51.4744 8.3585 51.3784C8.72145 50.7627 9.08085 50.1448 9.44246 49.528C9.46648 49.491 9.49252 49.4553 9.52046 49.4211C9.67938 49.3989 9.8043 49.3006 9.93787 49.2261C11.0927 48.5802 12.2463 47.9321 13.3987 47.2821C14.7451 46.5241 16.0913 45.766 17.4371 45.0079C18.4488 44.4391 19.461 43.8711 20.4736 43.3041C21.0085 43.0037 21.5434 42.7032 22.0781 42.4026C22.1101 42.3846 22.1448 42.3716 22.1781 42.3564C22.1801 43.1976 22.182 44.0388 22.1839 44.8799C22.1839 45.2414 22.1803 45.6029 22.1786 45.9644L22.1261 45.9997Z" fill="black" fill-opacity="0.72"/>
</g>
</g>
</svg>
