<svg width="220" height="132" viewBox="0 0 220 132" fill="none" xmlns="http://www.w3.org/2000/svg">
<g opacity="0.64">
<path d="M169.002 90.4736V93.9992H193V78.099H189.503V90.4736H169.002ZM169.002 38V41.5256H189.503V53.901H193V38H169.002ZM156.626 65.2742V57.0819H162.111C164.786 57.0819 165.746 57.9805 165.746 60.4351V61.8867C165.746 64.41 164.82 65.2742 162.111 65.2742H156.626ZM165.333 66.7258C167.836 66.069 169.584 63.7181 169.584 60.9187C169.584 59.1559 168.899 57.5655 167.596 56.2863C165.951 54.6958 163.756 53.901 160.911 53.901H153.197V78.0981H156.626V68.4543H161.769C164.408 68.4543 165.471 69.5603 165.471 72.3262V78.099H168.968V72.8792C168.968 69.0767 168.076 67.6252 165.333 67.2102V66.7258ZM136.467 67.5206H147.027V64.3405H136.467V57.0811H148.055V53.901H132.97V78.0981H148.569V74.9181H136.467V67.5206ZM124.982 68.7998V70.4588C124.982 73.9501 123.713 75.0913 120.525 75.0913H119.771C116.582 75.0913 115.04 74.0538 115.04 69.2491V62.7501C115.04 57.911 116.651 56.9079 119.839 56.9079H120.524C123.644 56.9079 124.638 58.0834 124.672 61.3328H128.444C128.101 56.5624 124.947 53.5555 120.216 53.5555C117.919 53.5555 115.999 54.2817 114.559 55.6638C112.399 57.7035 111.199 61.1605 111.199 65.9996C111.199 70.6663 112.228 74.1233 114.353 76.2659C115.793 77.6832 117.782 78.4437 119.736 78.4437C121.793 78.4437 123.679 77.6137 124.638 75.8166H125.118V78.0981H128.272V65.6198H118.981V68.7998H124.982ZM94.7444 57.0811H98.4816C102.013 57.0811 103.933 57.9796 103.933 62.8195V69.1796C103.933 74.0187 102.013 74.9181 98.4816 74.9181H94.7444V57.0811ZM98.7895 78.099C105.338 78.099 107.772 73.0867 107.772 66.0004C107.772 58.8104 105.166 53.9019 98.7206 53.9019H91.315V78.099H98.7895ZM74.757 67.5206H85.3166V64.3405H74.757V57.0811H86.3447V53.901H71.2596V78.0981H86.8591V74.9181H74.757V67.5206ZM54.5299 53.901H51.0333V78.0981H66.8038V74.9181H54.5299V53.901ZM27 78.099V94H50.9984V90.4736H30.4966V78.099H27ZM27 38V53.901H30.4966V41.5256H50.9984V38H27Z" fill="black"/>
</g>
</svg>
