<svg width="220" height="132" viewBox="0 0 220 132" fill="none" xmlns="http://www.w3.org/2000/svg">
<g opacity="0.64">
<path d="M141.028 55.128L121.285 89.3194L110.03 108.816L98.9102 89.5443L79.043 55.128L110.03 1.46289L141.028 55.128Z" fill="#DFDFDF"/>
<path fill-rule="evenodd" clip-rule="evenodd" d="M110.031 0L141.874 55.1282L121.92 89.6855L110.031 110.28L98.2776 89.9104L78.1992 55.1282L110.031 0ZM110.031 2.92632L79.8891 55.1283L99.5451 89.1787L110.031 107.352L120.652 88.9539L140.184 55.1283L110.031 2.92632Z" fill="#3B3B3B"/>
<path d="M136.353 63.1003C127.875 78.0429 119.398 92.9742 110.931 107.917L110.886 107.984L110.841 107.917L99.1481 90.5457C94.6169 82.7427 90.0858 74.9397 85.5547 67.1367C85.5772 67.1592 85.5884 67.1817 85.6109 67.2042C89.31 64.6857 93.8974 63.3364 98.6196 63.3702L122.827 63.5388C123.771 63.5163 124.761 63.4601 125.795 63.3589C128.988 63.0441 131.732 62.3695 133.98 61.6387C134.779 62.1334 135.566 62.6169 136.364 63.1116L136.353 63.1003Z" fill="#CDCDCD"/>
<path d="M101.869 27.6943C104.197 27.6943 106.085 25.8066 106.085 23.478C106.085 21.1494 104.197 19.2617 101.869 19.2617C99.54 19.2617 97.6523 21.1494 97.6523 23.478C97.6523 25.8066 99.54 27.6943 101.869 27.6943Z" fill="white"/>
<path d="M106.087 23.4775C108.416 23.4775 110.304 21.5898 110.304 19.2612C110.304 16.9326 108.416 15.0449 106.087 15.0449C103.759 15.0449 101.871 16.9326 101.871 19.2612C101.871 21.5898 103.759 23.4775 106.087 23.4775Z" fill="white"/>
<path d="M109.572 26.9639C111.9 26.9639 113.788 25.0762 113.788 22.7476C113.788 20.419 111.9 18.5312 109.572 18.5312C107.243 18.5312 105.355 20.419 105.355 22.7476C105.355 25.0762 107.243 26.9639 109.572 26.9639Z" fill="white"/>
<path d="M130.033 55.8486C132.361 55.8486 134.249 53.9609 134.249 51.6323C134.249 49.3037 132.361 47.416 130.033 47.416C127.704 47.416 125.816 49.3037 125.816 51.6323C125.816 53.9609 127.704 55.8486 130.033 55.8486Z" fill="white"/>
<path d="M98.3633 89.5004V72.2754H121.84V89.2868L110.034 109.727L98.3633 89.5004Z" fill="#797979"/>
<path d="M121.292 72.826V89.1402L110.038 108.636L98.9066 89.3651V72.8372H121.281M122.383 71.7354H97.8047V89.6687L97.9508 89.9273L109.082 109.199L110.038 110.851L110.993 109.199L122.248 89.7024L122.394 89.4438V71.7354H122.383Z" fill="#3B3B3B"/>
<path d="M121.832 61.999H98.3555V71.6684H121.832V61.999Z" fill="#797979"/>
<path d="M121.281 62.5491V71.1167H98.9065V62.5491H121.281ZM122.383 61.4473H97.8047V72.2185H122.383V61.4473Z" fill="#3B3B3B"/>
<path d="M121.105 53.8799H99.0898V60.12H121.105V53.8799Z" fill="#797979"/>
<path d="M120.554 54.43V59.5683H99.6409V54.43H120.554ZM121.656 53.3281H98.5391V60.6701H121.656V53.3281Z" fill="#3B3B3B"/>
<path d="M110.11 10.457C110.413 10.457 110.66 10.7044 110.66 11.008V40.3422C110.66 40.6458 110.413 40.8931 110.11 40.8931C109.806 40.8931 109.559 40.6458 109.559 40.3422V11.008C109.559 10.7044 109.806 10.457 110.11 10.457Z" fill="#3B3B3B"/>
<path d="M101.652 59.1115V57.8972C101.652 57.5487 101.933 57.2676 102.282 57.2676H102.867C103.215 57.2676 103.496 57.5487 103.496 57.8972V59.1115H101.664H101.652Z" fill="#797979"/>
<path d="M102.867 57.8177C102.867 57.8177 102.945 57.8514 102.945 57.8964V58.5597H102.203V57.8964C102.203 57.8964 102.237 57.8177 102.282 57.8177H102.867ZM102.867 56.7158H102.282C101.63 56.7158 101.102 57.2443 101.102 57.8964V59.2231C101.102 59.4592 101.293 59.6616 101.54 59.6616H103.609C103.845 59.6616 104.047 59.4705 104.047 59.2231V57.8964C104.047 57.2443 103.519 56.7158 102.867 56.7158Z" fill="#3B3B3B"/>
<path d="M105.414 59.1073V57.3308C105.414 56.9823 105.695 56.7012 106.044 56.7012H106.628C106.977 56.7012 107.258 56.9823 107.258 57.3308V59.1073H105.425H105.414Z" fill="#797979"/>
<path d="M106.621 57.2532C106.621 57.2532 106.699 57.287 106.699 57.3319V58.5575H105.957V57.3319C105.957 57.3319 105.991 57.2532 106.036 57.2532H106.621ZM106.621 56.1514H106.036C105.384 56.1514 104.855 56.6798 104.855 57.3319V59.2208C104.855 59.457 105.047 59.6593 105.294 59.6593H107.363C107.599 59.6593 107.801 59.4682 107.801 59.2208V57.3319C107.801 56.6798 107.273 56.1514 106.621 56.1514Z" fill="#3B3B3B"/>
<path d="M109.176 59.1112V56.8962C109.176 56.5477 109.457 56.2666 109.805 56.2666H110.39C110.739 56.2666 111.02 56.5477 111.02 56.8962V59.1112H109.187H109.176Z" fill="#797979"/>
<path d="M110.39 56.8167C110.39 56.8167 110.469 56.8504 110.469 56.8954V58.5594H109.727V56.8954C109.727 56.8954 109.761 56.8167 109.806 56.8167H110.39ZM110.39 55.7148H109.806C109.153 55.7148 108.625 56.2433 108.625 56.8954V59.2228C108.625 59.4589 108.816 59.6613 109.064 59.6613H111.132C111.368 59.6613 111.571 59.4702 111.571 59.2228V56.8954C111.571 56.2433 111.042 55.7148 110.39 55.7148Z" fill="#3B3B3B"/>
<path d="M112.934 59.1092V57.3328C112.934 56.9842 113.215 56.7031 113.563 56.7031H114.148C114.496 56.7031 114.778 56.9842 114.778 57.3328V59.1092H112.945H112.934Z" fill="#797979"/>
<path d="M114.148 57.2532C114.148 57.2532 114.227 57.287 114.227 57.3319V58.5575H113.485V57.3319C113.485 57.3319 113.518 57.2532 113.563 57.2532H114.148ZM114.148 56.1514H113.563C112.911 56.1514 112.383 56.6798 112.383 57.3319V59.2208C112.383 59.457 112.574 59.6593 112.821 59.6593H114.89C115.126 59.6593 115.329 59.4682 115.329 59.2208V57.3319C115.329 56.6798 114.8 56.1514 114.148 56.1514Z" fill="#3B3B3B"/>
<path d="M116.695 59.1115V57.8972C116.695 57.5487 116.976 57.2676 117.325 57.2676H117.91C118.258 57.2676 118.539 57.5487 118.539 57.8972V59.1115H116.707H116.695Z" fill="#797979"/>
<path d="M117.902 57.8177C117.902 57.8177 117.981 57.8514 117.981 57.8964V58.5597H117.239V57.8964C117.239 57.8964 117.272 57.8177 117.317 57.8177H117.902ZM117.902 56.7158H117.317C116.665 56.7158 116.137 57.2443 116.137 57.8964V59.2231C116.137 59.4592 116.328 59.6616 116.575 59.6616H118.644C118.88 59.6616 119.083 59.4705 119.083 59.2231V57.8964C119.083 57.2443 118.554 56.7158 117.902 56.7158Z" fill="#3B3B3B"/>
<path d="M117.325 76.2668C116.976 76.2668 116.695 75.9857 116.695 75.6371V74.4229H118.528V75.6371C118.528 75.9857 118.247 76.2668 117.898 76.2668H117.314H117.325Z" fill="#797979"/>
<path d="M117.981 74.9729V75.6363C117.981 75.6363 117.947 75.715 117.902 75.715H117.317C117.317 75.715 117.239 75.6813 117.239 75.6363V74.9729H117.981ZM118.644 73.8711H116.575C116.339 73.8711 116.137 74.0622 116.137 74.3096V75.6363C116.137 76.2884 116.665 76.8169 117.317 76.8169H117.902C118.554 76.8169 119.083 76.2884 119.083 75.6363V74.3096C119.083 74.0735 118.891 73.8711 118.644 73.8711Z" fill="#3B3B3B"/>
<path d="M113.563 76.8275C113.215 76.8275 112.934 76.5464 112.934 76.1978V74.4326H114.766V76.1978C114.766 76.5464 114.485 76.8275 114.137 76.8275H113.552H113.563Z" fill="#797979"/>
<path d="M114.227 74.9729V76.1985C114.227 76.1985 114.193 76.2772 114.148 76.2772H113.563C113.563 76.2772 113.485 76.2435 113.485 76.1985V74.9729H114.227ZM114.89 73.8711H112.821C112.585 73.8711 112.383 74.0622 112.383 74.3096V76.1985C112.383 76.8506 112.911 77.3791 113.563 77.3791H114.148C114.8 77.3791 115.329 76.8506 115.329 76.1985V74.3096C115.329 74.0735 115.137 73.8711 114.89 73.8711Z" fill="#3B3B3B"/>
<path d="M109.805 77.2674C109.457 77.2674 109.176 76.9864 109.176 76.6378V74.4229H111.008V76.6378C111.008 76.9864 110.727 77.2674 110.379 77.2674H109.794H109.805Z" fill="#797979"/>
<path d="M110.469 74.9729V76.637C110.469 76.637 110.435 76.7157 110.39 76.7157H109.806C109.806 76.7157 109.727 76.682 109.727 76.637V74.9729H110.469ZM111.132 73.8711H109.064C108.827 73.8711 108.625 74.0622 108.625 74.3096V76.637C108.625 77.2891 109.153 77.8175 109.806 77.8175H110.39C111.042 77.8175 111.571 77.2891 111.571 76.637V74.3096C111.571 74.0735 111.38 73.8711 111.132 73.8711Z" fill="#3B3B3B"/>
<path d="M106.044 76.8275C105.695 76.8275 105.414 76.5464 105.414 76.1978V74.4326H107.247V76.1978C107.247 76.5464 106.966 76.8275 106.617 76.8275H106.032H106.044Z" fill="#797979"/>
<path d="M106.699 74.9729V76.1985C106.699 76.1985 106.666 76.2772 106.621 76.2772H106.036C106.036 76.2772 105.957 76.2435 105.957 76.1985V74.9729H106.699ZM107.363 73.8711H105.294C105.058 73.8711 104.855 74.0622 104.855 74.3096V76.1985C104.855 76.8506 105.384 77.3791 106.036 77.3791H106.621C107.273 77.3791 107.801 76.8506 107.801 76.1985V74.3096C107.801 74.0735 107.61 73.8711 107.363 73.8711Z" fill="#3B3B3B"/>
<path d="M102.282 76.2668C101.933 76.2668 101.652 75.9857 101.652 75.6371V74.4229H103.485V75.6371C103.485 75.9857 103.204 76.2668 102.855 76.2668H102.271H102.282Z" fill="#797979"/>
<path d="M102.945 74.9729V75.6363C102.945 75.6363 102.912 75.715 102.867 75.715H102.282C102.282 75.715 102.203 75.6813 102.203 75.6363V74.9729H102.945ZM103.609 73.8711H101.54C101.304 73.8711 101.102 74.0622 101.102 74.3096V75.6363C101.102 76.2884 101.63 76.8169 102.282 76.8169H102.867C103.519 76.8169 104.047 76.2884 104.047 75.6363V74.3096C104.047 74.0735 103.856 73.8711 103.609 73.8711Z" fill="#3B3B3B"/>
<path d="M102.983 69.8578H100.836C100.589 69.8578 100.375 69.6554 100.375 69.3968V67.4179C100.375 66.7433 100.926 66.1924 101.601 66.1924H102.208C102.882 66.1924 103.433 66.7433 103.433 67.4179V69.3968C103.433 69.6441 103.231 69.8578 102.972 69.8578H102.983Z" fill="#3B3B3B"/>
<path d="M107.073 69.8561H104.926C104.678 69.8561 104.465 69.6537 104.465 69.3951V66.7304C104.465 66.0558 105.016 65.5049 105.69 65.5049H106.298C106.972 65.5049 107.523 66.0558 107.523 66.7304V69.3951C107.523 69.6425 107.321 69.8561 107.062 69.8561H107.073Z" fill="#3B3B3B"/>
<path d="M111.123 69.925H109.076C108.795 69.925 108.57 69.7002 108.57 69.4191V65.2028C108.57 64.4494 109.177 63.8311 109.942 63.8311H110.268C111.021 63.8311 111.64 64.4382 111.64 65.2028V69.4191C111.64 69.7002 111.415 69.925 111.134 69.925H111.123Z" fill="#3B3B3B"/>
<path d="M115.632 69.8561H113.484C113.237 69.8561 113.023 69.6537 113.023 69.3951V66.7304C113.023 66.0558 113.574 65.5049 114.249 65.5049H114.856C115.531 65.5049 116.082 66.0558 116.082 66.7304V69.3951C116.082 69.6425 115.879 69.8561 115.621 69.8561H115.632Z" fill="#3B3B3B"/>
<path d="M120.097 69.8578H117.949C117.702 69.8578 117.488 69.6554 117.488 69.3968V67.4179C117.488 66.7433 118.039 66.1924 118.714 66.1924H119.321C119.996 66.1924 120.547 66.7433 120.547 67.4179V69.3968C120.547 69.6441 120.344 69.8578 120.086 69.8578H120.097Z" fill="#3B3B3B"/>
<path d="M110.1 32.6523L98.3281 53.7676H121.872L110.1 32.6523Z" fill="#3B3B3B"/>
<path d="M96.7419 70.3535H123.445C124.007 70.3535 124.468 70.8145 124.468 71.3767V71.5004C124.468 72.0625 124.007 72.5235 123.445 72.5235H96.7419C96.1797 72.5235 95.7188 72.0625 95.7188 71.5004V71.3767C95.7188 70.8145 96.1797 70.3535 96.7419 70.3535Z" fill="#797979"/>
<path d="M123.445 70.9036C123.704 70.9036 123.929 71.1172 123.929 71.3871V71.5108C123.929 71.7694 123.715 71.9942 123.445 71.9942H96.742C96.4834 71.9942 96.2586 71.7806 96.2586 71.5108V71.3871C96.2586 71.1285 96.4722 70.9036 96.742 70.9036H123.445ZM123.445 69.8018H96.742C95.8763 69.8018 95.168 70.5101 95.168 71.3758V71.4995C95.168 72.3653 95.8763 73.0736 96.742 73.0736H123.445C124.311 73.0736 125.019 72.3653 125.019 71.4995V71.3758C125.019 70.5101 124.311 69.8018 123.445 69.8018Z" fill="#3B3B3B"/>
<path d="M98.1882 58.9844H122.002C122.553 58.9844 123.003 59.4341 123.003 59.985V60.1649C123.003 60.7159 122.553 61.1656 122.002 61.1656H98.1882C97.6372 61.1656 97.1875 60.7159 97.1875 60.1649V59.985C97.1875 59.4341 97.6372 58.9844 98.1882 58.9844Z" fill="#797979"/>
<path d="M122.002 59.5345C122.249 59.5345 122.452 59.7369 122.452 59.9842V60.1641C122.452 60.4115 122.249 60.6139 122.002 60.6139H98.1883C97.941 60.6139 97.7386 60.4115 97.7386 60.1641V59.9842C97.7386 59.7369 97.941 59.5345 98.1883 59.5345H122.002ZM122.002 58.4326H98.1883C97.3338 58.4326 96.6367 59.1297 96.6367 59.9842V60.1641C96.6367 61.0186 97.3338 61.7157 98.1883 61.7157H122.002C122.857 61.7157 123.554 61.0186 123.554 60.1641V59.9842C123.554 59.1297 122.857 58.4326 122.002 58.4326Z" fill="#3B3B3B"/>
<path d="M122.013 51.8252H98.1882C97.6355 51.8252 97.1875 52.2732 97.1875 52.8259V53.0058C97.1875 53.5584 97.6355 54.0064 98.1882 54.0064H122.013C122.566 54.0064 123.014 53.5584 123.014 53.0058V52.8259C123.014 52.2732 122.566 51.8252 122.013 51.8252Z" fill="#797979"/>
<path d="M122.002 52.3753C122.249 52.3753 122.452 52.5777 122.452 52.825V53.0049C122.452 53.2523 122.249 53.4547 122.002 53.4547H98.1883C97.941 53.4547 97.7386 53.2523 97.7386 53.0049V52.825C97.7386 52.5777 97.941 52.3753 98.1883 52.3753H122.002ZM122.002 51.2734H98.1883C97.3338 51.2734 96.6367 51.9705 96.6367 52.825V53.0049C96.6367 53.8594 97.3338 54.5565 98.1883 54.5565H122.002C122.857 54.5565 123.554 53.8594 123.554 53.0049V52.825C123.554 51.9705 122.857 51.2734 122.002 51.2734Z" fill="#3B3B3B"/>
<path d="M117.086 38.7031H120.65C120.796 38.7031 120.931 38.6469 121.044 38.5457L124.259 35.3301" fill="#797979"/>
<path d="M120.891 39.2541H117.652C117.349 39.2541 117.102 39.0068 117.102 38.7032C117.102 38.3996 117.349 38.1523 117.652 38.1523H120.441C120.587 38.1523 120.722 38.096 120.834 37.9948L123.499 35.3301C123.713 35.1165 124.061 35.1165 124.275 35.3301C124.489 35.5438 124.489 35.8923 124.275 36.1059L121.284 39.0967C121.183 39.1979 121.037 39.2541 120.891 39.2541Z" fill="#3B3B3B"/>
<path d="M114.531 33.5644H118.095C118.242 33.5644 118.377 33.5082 118.489 33.407L121.705 30.1914" fill="#797979"/>
<path d="M118.32 34.1154H115.082C114.779 34.1154 114.531 33.8681 114.531 33.5645C114.531 33.2609 114.779 33.0136 115.082 33.0136H117.871C118.017 33.0136 118.152 32.9574 118.264 32.8562L120.929 30.1915C121.142 29.9778 121.491 29.9778 121.705 30.1915C121.918 30.4051 121.918 30.7536 121.705 30.9673L118.714 33.958C118.613 34.0592 118.466 34.1154 118.32 34.1154Z" fill="#3B3B3B"/>
<path d="M93.9883 39.8027H97.5525C97.6986 39.8027 97.8335 39.7465 97.946 39.6453L101.162 36.4297" fill="#797979"/>
<path d="M97.7773 40.3537H94.5392C94.2356 40.3537 93.9883 40.1064 93.9883 39.8028C93.9883 39.4992 94.2356 39.2519 94.5392 39.2519H97.3276C97.4738 39.2519 97.6087 39.1956 97.7211 39.0945L100.386 36.4298C100.599 36.2161 100.948 36.2161 101.162 36.4298C101.375 36.6434 101.375 36.9919 101.162 37.2056L98.1709 40.1963C98.0697 40.2975 97.9235 40.3537 97.7773 40.3537Z" fill="#3B3B3B"/>
<path fill-rule="evenodd" clip-rule="evenodd" d="M110.031 0L141.874 55.1282L121.92 89.6855L110.031 110.28L98.2776 89.9104L78.1992 55.1282L110.031 0ZM110.031 2.92632L79.8891 55.1283L99.5451 89.1787L110.031 107.352L120.652 88.9539L140.184 55.1283L110.031 2.92632Z" fill="#3B3B3B"/>
<path d="M113.292 30.0896L110.009 35.7788L106.715 30.0896L110.009 24.4004L113.292 30.0896Z" fill="#797979"/>
<path fill-rule="evenodd" clip-rule="evenodd" d="M110.008 23.3779L113.881 30.0897L110.008 36.8015L106.121 30.0897L110.008 23.3779ZM107.304 30.0897L110.006 34.7563L112.699 30.0897L110.006 25.4231L107.304 30.0897Z" fill="#3B3B3B"/>
<path d="M42 117.856C42 117.597 42.1237 117.474 42.371 117.474H51.7818C52.0404 117.474 52.1754 117.597 52.1754 117.856V119.722C52.1754 119.981 52.0404 120.105 51.7818 120.105H44.8109V123.028H50.129C50.264 123.028 50.3651 123.062 50.4439 123.118C50.5226 123.174 50.5563 123.275 50.5563 123.41V125.232C50.5563 125.49 50.4101 125.614 50.129 125.614H44.8109V129.144H51.9617C52.2316 129.144 52.3665 129.268 52.3665 129.527V131.382C52.3665 131.64 52.2316 131.764 51.9617 131.764H42.371C42.1237 131.764 42 131.64 42 131.382V117.856Z" fill="#3B3B3B"/>
<path d="M53.7227 117.845C53.7227 117.587 53.8463 117.463 54.1049 117.463H64.404C64.6513 117.463 64.775 117.587 64.775 117.845V119.655C64.775 119.914 64.6513 120.049 64.404 120.049H60.6149V131.382C60.6149 131.641 60.4912 131.765 60.2326 131.765H58.1638C57.9052 131.765 57.7816 131.641 57.7816 131.382V120.049H54.1049C53.8463 120.049 53.7227 119.914 53.7227 119.655V117.845Z" fill="#3B3B3B"/>
<path d="M76.2548 125.602H69.846V131.381C69.846 131.64 69.7111 131.775 69.43 131.775H67.4062C67.1588 131.775 67.0352 131.64 67.0352 131.381V117.878C67.0352 117.765 67.0689 117.664 67.1251 117.597C67.1813 117.529 67.2825 117.484 67.4062 117.484H69.4862C69.5649 117.484 69.6436 117.507 69.7224 117.563C69.8011 117.608 69.846 117.721 69.846 117.867V122.904H76.2548V117.889C76.2548 117.777 76.2885 117.676 76.3448 117.608C76.401 117.541 76.5022 117.496 76.6258 117.496H78.7059C78.7846 117.496 78.8633 117.518 78.942 117.574C79.0207 117.631 79.0657 117.732 79.0657 117.878V131.393C79.0657 131.651 78.9308 131.786 78.6497 131.786H76.6258C76.3785 131.786 76.2548 131.651 76.2548 131.393V125.613V125.602Z" fill="#3B3B3B"/>
<path d="M83.3516 117.878C83.3516 117.609 83.4752 117.474 83.7338 117.474H85.7689C86.0275 117.474 86.1512 117.609 86.1512 117.878V131.382C86.1512 131.64 86.0275 131.775 85.7689 131.775H83.7338C83.4752 131.775 83.3516 131.64 83.3516 131.382V117.878Z" fill="#797979"/>
<path d="M88.7278 129.223C88.6828 129.1 88.7278 128.976 88.8627 128.841L90.1557 127.582C90.2344 127.503 90.3244 127.469 90.4143 127.469C90.4818 127.469 90.5492 127.492 90.6055 127.526C90.6729 127.571 90.7404 127.616 90.8078 127.672C91.0102 127.863 91.2239 128.065 91.46 128.256C91.6961 128.448 91.9547 128.628 92.2245 128.785C92.4944 128.942 92.7979 129.066 93.1128 129.167C93.4276 129.268 93.7761 129.313 94.1359 129.313C94.4957 129.313 94.8555 129.257 95.1591 129.156C95.4626 129.055 95.71 128.909 95.9236 128.74C96.126 128.56 96.2947 128.358 96.3959 128.133C96.497 127.908 96.5645 127.672 96.5645 127.436C96.5645 127.132 96.4746 126.862 96.2834 126.649C96.0923 126.435 95.8674 126.255 95.5976 126.109C95.3277 125.963 95.0242 125.85 94.7206 125.749C94.4058 125.659 94.1247 125.581 93.8661 125.513C93.079 125.277 92.3932 125.018 91.7973 124.749C91.2014 124.467 90.7067 124.164 90.3019 123.815C89.8971 123.467 89.5936 123.073 89.3912 122.646C89.1888 122.207 89.0763 121.724 89.0763 121.173C89.0763 120.577 89.2 120.037 89.4474 119.554C89.6947 119.071 90.0545 118.643 90.5155 118.295C90.9765 117.946 91.5162 117.676 92.1571 117.474C92.7979 117.272 93.5063 117.182 94.2821 117.182C94.6981 117.182 95.1141 117.238 95.5301 117.339C95.9461 117.44 96.3396 117.598 96.7219 117.778C97.1042 117.969 97.464 118.182 97.8125 118.43C98.1611 118.677 98.4647 118.947 98.7457 119.239C98.9706 119.475 98.9706 119.723 98.7457 119.981L97.6776 121.061C97.5877 121.139 97.509 121.184 97.419 121.184C97.3403 121.184 97.2616 121.162 97.1829 121.117C97.1042 121.072 97.0255 121.016 96.9468 120.948C96.7894 120.825 96.6207 120.678 96.4183 120.532C96.216 120.375 96.0023 120.24 95.7662 120.105C95.5301 119.97 95.2827 119.858 95.0241 119.768C94.7655 119.678 94.4845 119.633 94.2034 119.633C93.956 119.633 93.6974 119.655 93.4388 119.689C93.1802 119.723 92.9329 119.813 92.7192 119.925C92.5056 120.037 92.3257 120.206 92.1908 120.409C92.0559 120.611 91.9772 120.881 91.9772 121.218C91.9772 121.488 92.0446 121.713 92.1795 121.893C92.3145 122.073 92.5056 122.23 92.7642 122.365C93.0116 122.5 93.3151 122.623 93.6524 122.725C94.001 122.826 94.372 122.938 94.7768 123.051C95.4289 123.242 96.0361 123.455 96.6095 123.703C97.1829 123.95 97.6889 124.231 98.1273 124.58C98.5658 124.928 98.9031 125.333 99.1617 125.817C99.4203 126.3 99.544 126.874 99.544 127.548C99.544 128.223 99.3979 128.807 99.1055 129.358C98.8132 129.909 98.4197 130.359 97.925 130.753C97.4303 131.146 96.8568 131.438 96.216 131.641C95.5751 131.843 94.9005 131.956 94.2034 131.956C93.6974 131.956 93.2027 131.899 92.7192 131.787C92.2358 131.674 91.7635 131.517 91.3026 131.303C90.8416 131.09 90.4256 130.842 90.0208 130.561C89.616 130.28 89.2562 129.943 88.9414 129.594C88.8402 129.482 88.7615 129.37 88.7166 129.246L88.7278 129.223Z" fill="#797979"/>
<path d="M101.039 117.845C101.039 117.587 101.163 117.463 101.421 117.463H111.72C111.968 117.463 112.091 117.587 112.091 117.845V119.655C112.091 119.914 111.968 120.049 111.72 120.049H107.931V131.382C107.931 131.641 107.808 131.765 107.549 131.765H105.48C105.222 131.765 105.098 131.641 105.098 131.382V120.049H101.421C101.163 120.049 101.039 119.914 101.039 119.655V117.845Z" fill="#797979"/>
<path d="M115.992 117.834C116.093 117.587 116.25 117.463 116.475 117.463H118.083C118.308 117.463 118.476 117.587 118.578 117.834L124.008 131.349C124.064 131.483 124.064 131.585 124.008 131.652C123.952 131.72 123.862 131.753 123.738 131.753H121.636C121.411 131.753 121.254 131.641 121.164 131.405L120.23 129.1H114.328L113.406 131.394C113.361 131.528 113.293 131.618 113.214 131.675C113.136 131.731 113.035 131.753 112.922 131.753H110.82C110.696 131.753 110.606 131.72 110.55 131.652C110.494 131.585 110.505 131.483 110.55 131.349L115.992 117.834ZM117.273 121.162L115.216 126.615H119.297L117.273 121.162Z" fill="#797979"/>
<path d="M128.6 121.634V131.371C128.6 131.63 128.465 131.765 128.184 131.765H126.262C126.014 131.765 125.891 131.63 125.891 131.371V117.845C125.891 117.755 125.924 117.665 125.981 117.587C126.037 117.508 126.138 117.463 126.262 117.463H128.51C128.735 117.463 128.926 117.587 129.084 117.823L135.538 127.121V117.845C135.538 117.744 135.571 117.643 135.627 117.575C135.684 117.508 135.785 117.463 135.92 117.463H137.831C137.921 117.463 138.022 117.497 138.112 117.564C138.202 117.632 138.247 117.721 138.247 117.845V131.371C138.247 131.63 138.112 131.765 137.831 131.765H135.796C135.695 131.765 135.594 131.742 135.493 131.686C135.403 131.63 135.313 131.54 135.223 131.416L128.578 121.634H128.6Z" fill="#797979"/>
<path d="M141.355 117.845C141.355 117.587 141.479 117.463 141.727 117.463H147.933C148.484 117.463 148.99 117.564 149.462 117.778C149.934 117.98 150.35 118.272 150.699 118.621C151.047 118.97 151.328 119.397 151.531 119.88C151.733 120.364 151.834 120.892 151.834 121.454C151.834 122.016 151.744 122.5 151.565 122.961C151.385 123.422 151.115 123.804 150.744 124.119C151.014 124.299 151.261 124.513 151.475 124.771C151.688 125.03 151.868 125.3 152.026 125.603C152.183 125.907 152.295 126.222 152.374 126.57C152.453 126.919 152.498 127.256 152.498 127.616C152.498 128.167 152.397 128.695 152.194 129.201C151.992 129.707 151.711 130.146 151.362 130.528C151.002 130.91 150.598 131.214 150.114 131.439C149.642 131.663 149.125 131.776 148.585 131.776H141.738C141.49 131.776 141.367 131.652 141.367 131.394V117.856L141.355 117.845ZM144.166 119.79V123.276H147.191C147.753 123.276 148.203 123.118 148.54 122.815C148.877 122.511 149.046 122.073 149.046 121.533C149.046 121.274 149.001 121.038 148.911 120.825C148.821 120.611 148.697 120.431 148.54 120.274C148.383 120.116 148.18 120.004 147.955 119.925C147.731 119.846 147.472 119.802 147.202 119.802H144.155L144.166 119.79ZM144.166 125.491V129.426H147.82C148.113 129.426 148.371 129.37 148.608 129.257C148.832 129.145 149.024 128.999 149.181 128.819C149.338 128.639 149.451 128.437 149.529 128.212C149.608 127.987 149.642 127.762 149.642 127.526C149.642 127.233 149.586 126.975 149.485 126.728C149.383 126.48 149.248 126.267 149.068 126.087C148.9 125.907 148.697 125.761 148.473 125.659C148.248 125.558 148.012 125.502 147.776 125.502H144.166V125.491Z" fill="#797979"/>
<path d="M157.382 126.086C157.382 126.637 157.472 127.121 157.64 127.537C157.809 127.953 158.045 128.312 158.337 128.593C158.63 128.886 158.967 129.099 159.361 129.246C159.754 129.392 160.159 129.47 160.586 129.47C161.013 129.47 161.441 129.392 161.834 129.234C162.216 129.077 162.565 128.852 162.857 128.548C163.15 128.256 163.374 127.896 163.543 127.48C163.712 127.064 163.79 126.603 163.79 126.086V117.867C163.79 117.755 163.824 117.654 163.892 117.586C163.959 117.519 164.06 117.474 164.184 117.474H166.185C166.32 117.474 166.421 117.519 166.489 117.597C166.556 117.676 166.59 117.766 166.59 117.878V126.097C166.59 127.132 166.433 128.009 166.107 128.751C165.781 129.493 165.342 130.1 164.802 130.584C164.251 131.067 163.611 131.416 162.891 131.652C162.16 131.877 161.396 132 160.586 132C159.777 132 159.012 131.888 158.281 131.652C157.55 131.416 156.909 131.056 156.37 130.572C155.819 130.089 155.38 129.47 155.066 128.717C154.739 127.975 154.582 127.087 154.582 126.064V117.867C154.582 117.766 154.616 117.665 154.672 117.586C154.728 117.507 154.818 117.474 154.931 117.474H157.033C157.179 117.474 157.28 117.507 157.325 117.586C157.37 117.665 157.404 117.755 157.404 117.867V126.097L157.382 126.086Z" fill="#797979"/>
<path d="M169.387 117.867C169.387 117.743 169.42 117.642 169.488 117.575C169.555 117.507 169.645 117.474 169.758 117.474H171.827C172.074 117.474 172.198 117.609 172.198 117.878V129.122H178.269C178.539 129.122 178.674 129.246 178.674 129.493V131.393C178.674 131.652 178.539 131.775 178.269 131.775H169.769C169.522 131.775 169.398 131.652 169.398 131.393V117.878L169.387 117.867Z" fill="#797979"/>
</g>
</svg>
