<svg xmlns="http://www.w3.org/2000/svg" width="187" height="167" viewBox="0 0 187 167" fill="none">
    <path d="M84.7195 75.3936C81.9814 74.9417 79.4027 74.4632 76.957 73.9492C78.6673 76.0582 81.2636 77.414 84.1878 77.414H85.6942C85.3043 76.776 84.9765 76.1025 84.7195 75.3936Z" fill="#13080E"/>
    <path d="M84.9664 67.2593C76.1051 56.7676 66.3489 43.3517 63.9298 32.727C61.36 32.1776 58.87 32.7979 56.5838 35.0487C46.0035 45.434 69.9997 60.7374 84.4879 68.5885C84.6208 68.1366 84.7803 67.6935 84.9664 67.2593Z" fill="#13080E"/>
    <path d="M84.0537 71.811C68.4401 63.4637 58.2852 55.7722 53.7216 48.8516C52.676 49.525 51.781 50.5263 51.081 51.9264C45.1882 63.6942 69.4415 69.6932 84.0714 72.1921C84.0714 72.068 84.0625 71.9351 84.0537 71.811Z" fill="#13080E"/>
    <path d="M88.0571 63.16C83.715 49.4251 79.692 32.6773 81.1896 21.1134C78.6198 18.9335 75.5715 18.2334 71.9384 19.7576C57.1756 25.9693 75.3146 50.9846 86.6658 64.5424C87.0823 64.0461 87.552 63.5765 88.0571 63.16Z" fill="#13080E"/>
    <path d="M132.405 35.0472C130.128 32.8142 127.656 32.185 125.104 32.7167C125.104 32.7256 125.095 32.7433 125.095 32.7522C124.971 33.3015 124.829 33.8687 124.66 34.4447C124.572 34.7637 124.457 35.0915 124.35 35.4194C124.235 35.7738 124.12 36.1283 123.987 36.5005C123.863 36.8372 123.739 37.1828 123.606 37.5284C123.446 37.936 123.278 38.3436 123.11 38.7601C122.959 39.1145 122.817 39.4601 122.658 39.8234C122.374 40.4614 122.073 41.1083 121.745 41.7641C121.577 42.1008 121.4 42.4375 121.231 42.7831C120.992 43.2439 120.744 43.7135 120.487 44.192C120.301 44.5376 120.115 44.8832 119.911 45.2288C119.583 45.8048 119.246 46.3896 118.892 46.9745C118.741 47.2226 118.608 47.4618 118.458 47.7188C117.961 48.5341 117.439 49.3581 116.889 50.2C116.685 50.519 116.473 50.838 116.26 51.157C115.861 51.7595 115.445 52.371 115.019 52.9912C114.798 53.3191 114.576 53.6381 114.346 53.966C113.779 54.7724 113.203 55.5787 112.591 56.4117C112.494 56.5446 112.414 56.6687 112.317 56.7927C111.617 57.7409 110.881 58.7156 110.119 59.6992C109.889 60.0005 109.65 60.3018 109.41 60.6119C108.834 61.3563 108.241 62.1006 107.629 62.8627L106.885 63.7931C106.185 64.6527 105.458 65.5299 104.723 66.4072C105.006 66.93 105.237 67.4883 105.44 68.0554C119.991 60.0802 142.755 45.2111 132.405 35.0472Z" fill="#13080E"/>
    <path d="M105.441 75.1901C105.175 75.9699 104.821 76.7142 104.387 77.4054H104.927C107.869 77.4054 110.474 76.0319 112.185 73.9141C110.049 74.366 107.798 74.7913 105.441 75.1901Z" fill="#13080E"/>
    <path d="M137.906 51.9264C137.206 50.5263 136.311 49.525 135.266 48.8516C130.799 55.595 121.008 63.0916 106.023 71.2262C106.032 71.368 106.041 71.5009 106.041 71.6427C106.041 71.7668 106.023 71.8819 106.023 72.006C120.742 69.3919 143.657 63.4106 137.906 51.9264Z" fill="#13080E"/>
    <path d="M101.137 62.49C101.757 62.9065 102.333 63.385 102.865 63.9167C114.234 50.2261 131.611 25.8753 117.069 19.7611C113.427 18.2281 110.37 18.937 107.8 21.1257C109.262 32.5301 105.381 48.95 101.137 62.49Z" fill="#13080E"/>
    <path d="M102.532 71.6372C102.532 73.6255 101.742 75.5323 100.337 76.9381C98.9307 78.344 97.0239 79.1338 95.0357 79.1338C93.0475 79.1338 91.1407 78.344 89.7348 76.9381C88.3289 75.5323 87.5391 73.6255 87.5391 71.6372C87.5391 69.649 88.3289 67.7422 89.7348 66.3363C91.1407 64.9304 93.0475 64.1406 95.0357 64.1406C97.0239 64.1406 98.9307 64.9304 100.337 66.3363C101.742 67.7422 102.532 69.649 102.532 71.6372Z" fill="#13080E"/>
    <path d="M95.0426 60.6466C96.2034 60.6466 97.3199 60.8327 98.3655 61.1606C103.966 43.1545 111.852 10.1641 94.4843 10.1641C76.9922 10.1641 85.118 43.6153 90.7183 61.5327C92.0475 60.9568 93.5096 60.6466 95.0426 60.6466Z" fill="#13080E"/>
    <path d="M30.9773 99.3506C32.4723 99.3506 32.6575 99.1689 32.6575 100.853V101.604C32.6575 101.85 32.9867 101.943 33.1136 101.73C33.7411 100.674 34.3549 99.5975 34.8076 98.7951V97.7664C34.8076 97.5469 34.5881 97.5161 34.4338 97.6121C33.3742 98.1093 32.1295 98.4831 31.0081 98.7951C30.5109 98.9151 30.6652 99.3506 30.9773 99.3506Z" fill="#13080E"/>
    <path d="M42.1833 98.4448C41.3684 97.8554 40.3875 97.5396 39.3818 97.543C37.5747 97.543 35.771 98.5374 34.8074 100.252V100.245C34.1867 101.332 33.3912 102.652 32.6608 103.835V109.963C32.6608 111.612 31.759 111.331 30.6994 111.52C30.4182 111.582 30.4182 112.048 30.7302 112.048H36.738C37.05 112.048 37.05 111.582 36.7688 111.52C35.7092 111.335 34.8074 111.612 34.8074 109.963V102.649C34.8074 100.283 36.954 98.5717 38.7611 98.5717C39.6321 98.5717 40.4105 98.9763 40.8151 99.9742C41.0654 100.598 41.4701 100.845 41.8747 100.845C42.8074 100.842 43.6784 99.5353 42.1833 98.4448Z" fill="#13080E"/>
    <path d="M61.5452 98.2604C60.5165 98.4456 59.4604 98.2604 58.8054 99.8172V99.7555C58.3082 100.969 57.811 102.152 57.3103 103.366L54.2893 110.526C53.7921 111.74 53.2949 112.923 52.7943 114.137C51.8615 116.345 50.4282 117.967 48.0004 117.967C46.3202 117.967 45.1371 117.096 44.6056 116.129C44.0158 115.008 44.6982 114.291 45.4149 114.291C45.8812 114.291 46.3476 114.603 46.4745 115.286C46.6596 116.376 47.1294 117.028 48.2816 117.028C50.3973 117.028 51.3643 115.128 52.0776 113.448C52.4513 112.484 52.0776 111.641 51.8273 111.082L47.0643 99.7212C46.4093 98.1953 45.384 98.4456 44.3553 98.257C44.0433 98.2261 44.0433 97.7598 44.3862 97.7598H50.8294C51.1414 97.7598 51.1414 98.2261 50.8603 98.257C49.8658 98.4422 48.9606 98.3187 49.3652 99.5017C50.9528 103.267 51.3266 104.388 53.288 108.997C53.4732 109.463 53.6927 109.463 53.8778 108.997L57.8624 99.5326C58.2979 98.2878 56.8989 98.4422 55.8701 98.257C55.5889 98.2261 55.5889 97.7598 55.901 97.7598H61.5041C61.8573 97.7632 61.8573 98.2295 61.5452 98.2604Z" fill="#13080E"/>
    <path d="M77.8208 104.825C77.8208 109.121 75.081 112.358 70.6918 112.358C68.7921 112.358 67.3622 111.642 66.4877 110.586V117.746C66.4877 119.395 67.4204 119.148 68.4492 119.333C68.7612 119.364 68.7612 119.861 68.4183 119.861H62.4414C62.1294 119.861 62.0985 119.364 62.4106 119.333C63.4702 119.148 64.372 119.395 64.372 117.746V101.187C64.372 99.5064 64.1526 99.5372 62.6918 99.5372C62.3797 99.5372 62.2254 99.1017 62.7226 98.9783C63.8439 98.6662 65.0887 98.3233 66.1483 97.7952C66.3026 97.7027 66.4912 97.7335 66.4912 97.9496V99.4138C67.6433 98.1381 69.2619 97.5449 71.3159 97.5449C75.393 97.5415 77.8208 100.748 77.8208 104.825ZM75.4856 104.983C75.5782 101.653 73.9597 98.4159 70.3489 98.4159C68.3874 98.4159 66.4877 99.8184 66.4877 101.063V107.445C66.4877 110.589 68.5418 111.645 70.4415 111.614C73.4625 111.611 75.393 108.281 75.4856 104.983Z" fill="#13080E"/>
    <path d="M87.1265 111.551C86.0669 112.079 84.8839 112.422 83.8586 112.422C82.1783 112.422 80.8067 111.49 80.8376 108.904V98.5688H78.8453C78.3172 98.5688 78.3172 97.883 78.8453 97.883C81.2113 97.8521 82.0515 97.1972 82.2058 93.6824C82.2058 93.432 82.3909 93.3086 82.5795 93.3086C82.7647 93.3086 82.9533 93.432 82.9533 93.6824V97.883H85.2885C85.8474 97.883 85.8474 98.5688 85.2885 98.5688H82.9533V108.842C82.9533 110.711 83.5774 111.428 84.7296 111.428C85.3194 111.428 86.036 111.239 86.8762 110.9C87.3768 110.68 87.6546 111.304 87.1265 111.551Z" fill="#13080E"/>
    <path d="M95.2494 112.36C85.6617 112.36 85.6617 97.543 95.2494 97.543C104.868 97.543 104.868 112.36 95.2494 112.36ZM95.2494 98.1671C88.7444 98.1671 88.7753 111.739 95.2494 111.739C101.723 111.739 101.754 98.1671 95.2494 98.1671Z" fill="#13080E"/>
    <path d="M154.384 112.046H148.377C148.064 112.046 148.064 111.58 148.346 111.518C149.405 111.333 150.307 111.611 150.307 109.962V101.68C150.307 99.6572 148.658 98.7245 146.82 98.7245C144.673 98.7245 142.276 100.062 142.276 102.555V109.965C142.276 111.614 143.178 111.333 144.238 111.522C144.55 111.584 144.519 112.05 144.207 112.05H138.23C137.887 112.05 137.887 111.584 138.199 111.522C139.228 111.337 140.13 111.614 140.13 109.965V100.998C140.13 99.3178 139.941 99.3486 138.449 99.3486C138.137 99.3486 137.983 98.9131 138.48 98.7897C139.632 98.4776 140.877 98.1039 141.906 97.6066C142.06 97.5141 142.28 97.5449 142.28 97.761V100.127C143.37 98.385 145.455 97.5449 147.447 97.5449C150.029 97.5449 152.461 98.9474 152.461 101.684V109.965C152.461 111.614 153.362 111.333 154.422 111.522C154.696 111.58 154.696 112.046 154.384 112.046Z" fill="#13080E"/>
    <path d="M168.831 112.049C168.488 112.141 168.114 112.203 167.74 112.203C166.711 112.203 165.717 111.798 165.717 110.43V108.873C165 110.742 163.289 112.33 160.176 112.33C157.405 112.33 155.879 110.619 155.879 108.812C155.91 105.077 160.176 104.33 163.162 104.172C164.626 104.079 165.713 104.141 165.713 103.922V101.463C165.713 99.2821 163.876 98.3494 161.979 98.3494C161.17 98.3494 160.392 98.5037 159.706 98.8158C158.461 99.4398 158.554 100.654 158.927 101.494C159.363 102.523 158.677 103.205 157.995 103.205C157.405 103.205 156.812 102.739 156.781 101.617C156.781 101.367 156.842 101.12 156.935 100.839V100.777C156.966 100.715 156.997 100.654 157.028 100.589C157.12 100.307 157.247 99.9988 157.432 99.7793C157.556 99.5942 157.683 99.4364 157.806 99.2821C157.837 99.2513 157.837 99.2513 157.868 99.2513C157.96 99.0969 158.087 99.0009 158.211 98.9083C159.332 97.9756 160.92 97.5059 162.476 97.5059C165.185 97.5059 167.829 98.8741 167.829 101.46V110.049C167.829 111.325 168.203 111.544 168.793 111.544C169.108 111.551 169.173 111.956 168.831 112.049ZM165.717 105.667V104.703C163.039 104.703 158.307 104.954 158.307 108.842C158.307 110.211 159.27 111.332 160.827 111.332C162.727 111.335 165.624 110.183 165.717 105.667Z" fill="#13080E"/>
    <path d="M176.578 112.049H170.602C170.29 112.049 170.259 111.582 170.571 111.52C171.63 111.335 172.532 111.613 172.532 109.964V93.3704C172.532 91.7211 172.313 91.7211 170.852 91.7211C170.54 91.7211 170.386 91.3164 170.883 91.1621C172.004 90.8809 173.249 90.5072 174.278 90.0099C174.463 89.9174 174.651 89.9174 174.651 90.1334V109.964C174.651 111.613 175.584 111.332 176.613 111.52C176.918 111.582 176.918 112.049 176.578 112.049Z" fill="#13080E"/>
    <path d="M34.5881 100.666C34.4372 100.934 34.2692 101.191 34.1114 101.452C33.9503 101.719 33.7891 101.987 33.6279 102.258C33.3022 102.799 32.973 103.341 32.6369 103.876C32.2975 104.414 31.9511 104.942 31.5876 105.464C31.228 105.982 30.8483 106.487 30.4492 106.976C30.0561 107.461 29.6359 107.924 29.1907 108.361C28.7458 108.799 28.2715 109.206 27.7711 109.579C27.2156 109.994 26.6247 110.36 26.0051 110.672C25.7102 110.82 25.4153 110.954 25.1033 111.06C24.853 111.146 24.5958 111.218 24.3386 111.276C23.7351 111.417 23.1213 111.495 22.504 111.53C22.2297 111.547 21.952 111.554 21.6776 111.554C10.7835 111.554 11.0304 92.7521 21.6776 92.7521C22.7064 92.7521 24.0128 92.8447 25.0073 93.1876C27.0304 94.1203 26.6875 95.1491 27.0921 95.9583C27.435 96.6133 27.9323 96.8602 28.3678 96.8602C29.2696 96.8602 30.048 95.7389 29.0536 94.5558C28.4946 93.9009 26.7492 92.8447 25.8782 92.6561C24.6644 92.2206 23.2619 91.9395 21.6776 91.9395C7.38871 91.9395 7.38871 112.329 21.6776 112.329C22.3806 112.329 23.087 112.277 23.7797 112.161C24.4518 112.048 25.1136 111.869 25.7479 111.622C26.3686 111.379 26.9618 111.074 27.5276 110.724C28.0248 110.415 28.5015 110.069 28.9507 109.695C29.3967 109.319 29.8203 108.917 30.2194 108.492C30.6206 108.063 30.9978 107.614 31.3545 107.151C31.7145 106.681 32.054 106.198 32.3763 105.704C32.701 105.207 33.012 104.702 33.309 104.188C33.6074 103.677 33.8954 103.159 34.1732 102.638C34.4509 102.124 34.7218 101.606 34.9927 101.088C35.0201 101.033 35.0476 100.982 35.0784 100.927C35.2293 100.608 34.7595 100.368 34.5881 100.666Z" fill="#13080E"/>
    <path d="M136.427 111.55C135.837 111.55 135.464 111.331 135.464 110.055V101.465C135.464 98.8799 132.816 97.5117 130.111 97.5117C128.554 97.5117 126.966 97.978 125.845 98.9142C125.722 99.0068 125.595 99.0993 125.502 99.2571C125.471 99.2571 125.471 99.2571 125.441 99.2879C125.317 99.4423 125.19 99.6 125.067 99.7852C124.882 100.001 124.755 100.313 124.662 100.594C124.631 100.656 124.6 100.718 124.57 100.783V100.845C124.477 101.126 124.415 101.373 124.415 101.623C124.446 102.744 125.039 103.211 125.629 103.211C126.315 103.211 126.997 102.525 126.562 101.5C126.188 100.66 126.095 99.4457 127.34 98.8216C128.026 98.5096 128.804 98.3552 129.614 98.3552C131.513 98.3552 133.348 99.288 133.348 101.469V103.927C133.348 104.027 133.149 104.047 133.084 104.058C132.844 104.096 132.597 104.102 132.354 104.109C131.431 104.144 130.509 104.188 129.59 104.257C128.983 104.301 128.376 104.404 127.793 104.582C126.977 104.829 126.188 105.162 125.458 105.608C124.172 106.39 123.242 107.552 122.203 108.615C121.134 109.705 119.93 110.587 118.466 111.057C117.043 111.513 115.5 111.663 114.022 111.43C113.36 111.324 112.708 111.139 112.098 110.858C110.644 110.186 109.482 109.027 108.696 107.641C107.887 106.215 107.469 104.579 107.373 102.947C107.277 101.291 107.51 99.6034 108.103 98.0501C108.672 96.5653 109.591 95.1971 110.864 94.2266C112.177 93.2288 113.789 92.7521 115.428 92.7521C116.456 92.7521 117.763 92.8447 118.757 93.1876C120.78 94.1203 120.437 95.1491 120.842 95.9583C121.185 96.6133 121.682 96.8602 122.118 96.8602C123.02 96.8602 123.798 95.7389 122.804 94.5558C122.245 93.9009 120.499 92.8447 119.628 92.6561C118.414 92.2206 117.012 91.9395 115.428 91.9395C101.139 91.9395 101.139 112.329 115.428 112.329C116.439 112.329 117.458 112.202 118.452 111.945C119.076 111.78 119.687 111.567 120.273 111.297C121.171 110.878 122.008 110.326 122.766 109.688C123.513 109.061 124.127 108.306 124.851 107.655C125.403 107.158 125.989 106.702 126.617 106.304C127.501 105.741 128.465 105.306 129.483 105.059C129.861 104.966 130.245 104.898 130.629 104.846C130.786 104.826 130.941 104.805 131.098 104.792C131.513 104.754 131.932 104.761 132.347 104.726C132.426 104.72 133.348 104.692 133.348 104.702V105.666C133.255 110.179 130.361 111.331 128.462 111.331C127.114 111.331 126.212 110.487 125.993 109.373C125.951 109.171 125.958 108.951 125.965 108.742C125.969 108.663 125.972 108.584 125.982 108.509C125.989 108.45 126.006 108.392 125.993 108.334C125.982 108.29 125.959 108.251 125.928 108.219C125.896 108.188 125.857 108.165 125.814 108.154C125.77 108.143 125.725 108.144 125.682 108.157C125.639 108.17 125.601 108.194 125.571 108.228C125.194 108.649 124.786 109.04 124.432 109.445C124.206 109.699 123.99 109.945 123.801 110.175C124.381 111.379 125.777 112.325 127.807 112.325C130.92 112.325 132.631 110.738 133.348 108.869V110.426C133.348 111.794 134.346 112.198 135.371 112.198C135.745 112.198 136.119 112.137 136.462 112.044C136.801 111.955 136.739 111.55 136.427 111.55Z" fill="#13080E"/>
  </svg>