<svg width="220" height="133" viewBox="0 0 220 133" fill="none" xmlns="http://www.w3.org/2000/svg">
<g opacity="0.64">
<g clip-path="url(#clip0_1488_290)">
<path d="M57.7114 47.1621H36.9326C31.9974 47.1621 28 51.1865 28 56.1455V77.0165C28 81.9755 31.9974 85.9922 36.9326 85.9922H57.7037C62.6389 85.9922 66.6363 81.9755 66.6363 77.0165V56.1455C66.644 51.1865 62.6466 47.1621 57.7114 47.1621ZM57.3424 76.7848H37.3016V56.6553H57.3424V76.7925V76.7848Z" fill="black"/>
<path d="M85.8332 66.7204C85.8332 62.881 82.7357 59.7686 78.9147 59.7686C75.0936 59.7686 71.9961 62.881 71.9961 66.7204C71.9961 70.5598 75.0936 73.6723 78.9147 73.6723C82.7357 73.6723 85.8332 70.5598 85.8332 66.7204Z" fill="black"/>
<path d="M120.887 47H100.116C95.181 47 91.1836 51.0166 91.1836 55.9756V76.8467C91.1836 81.8057 95.181 85.8223 100.116 85.8223H120.887C125.823 85.8223 129.82 81.8057 129.82 76.8467V55.9756C129.82 51.0166 125.823 47 120.887 47ZM120.518 76.6227H100.478V56.4854H120.518V76.6227Z" fill="black"/>
<path d="M184.067 47H163.296C158.361 47 154.363 51.0166 154.363 55.9756V76.8467C154.363 81.8057 158.361 85.8223 163.296 85.8223H184.067C189.002 85.8223 193 81.8057 193 76.8467V55.9756C193 51.0166 189.002 47 184.067 47ZM183.698 76.6227H163.657V56.4854H183.698V76.6227Z" fill="black"/>
<path d="M149.005 66.4187C149.005 62.5793 145.908 59.4668 142.087 59.4668C138.266 59.4668 135.168 62.5793 135.168 66.4187C135.168 70.2581 138.266 73.3705 142.087 73.3705C145.908 73.3705 149.005 70.2581 149.005 66.4187Z" fill="black"/>
</g>
</g>
<defs>
<clipPath id="clip0_1488_290">
<rect width="165" height="39" fill="white" transform="translate(28 47)"/>
</clipPath>
</defs>
</svg>
