<svg width="256" height="280" viewBox="0 0 256 280" fill="none" xmlns="http://www.w3.org/2000/svg">
<path d="M128 4L3 205.9L128 277.5L253 205.9L128 4Z" stroke="white" stroke-width="4" stroke-miterlimit="10"/>
<path d="M148 111L128 80L108 111L128 122L148 111Z" stroke="white" stroke-width="4" stroke-miterlimit="10"/>
<path d="M107.5 111L128 139L148.5 111" stroke="white" stroke-width="4" stroke-miterlimit="10"/>
<path d="M128.1 69.5004V54.6004V24.4004" stroke="white" stroke-width="4" stroke-miterlimit="10"/>
<path d="M116.9 78.9002L107.7 53.7002" stroke="white" stroke-width="4" stroke-miterlimit="10"/>
<path d="M102.4 78.9004L94.7998 69.9004" stroke="white" stroke-width="4" stroke-miterlimit="10"/>
<path d="M102.6 94.8001L86.7002 85.6001" stroke="white" stroke-width="4" stroke-miterlimit="10"/>
<path d="M88.7 102.6L78.5 100.8" stroke="white" stroke-width="4" stroke-miterlimit="10"/>
<path d="M139.6 77.6002L148.2 53.7002" stroke="white" stroke-width="4" stroke-miterlimit="10"/>
<path d="M153.6 78.9004L161.2 69.9004" stroke="white" stroke-width="4" stroke-miterlimit="10"/>
<path d="M153 95.0001L169.3 85.6001" stroke="white" stroke-width="4" stroke-miterlimit="10"/>
<path d="M167.3 102.6L177.5 100.8" stroke="white" stroke-width="4" stroke-miterlimit="10"/>
<path d="M128 149.5V185.1" stroke="white" stroke-width="4" stroke-miterlimit="10"/>
<path d="M141.7 147.1L149.7 169" stroke="white" stroke-width="4" stroke-miterlimit="10"/>
<path d="M114.3 147.1L105.3 171.8" stroke="white" stroke-width="4" stroke-miterlimit="10"/>
<path d="M147.7 132.9L181.2 172.8" stroke="white" stroke-width="4" stroke-miterlimit="10"/>
<path d="M108.7 132.6L95.5 148.3" stroke="white" stroke-width="4" stroke-miterlimit="10"/>
<path d="M162.7 129.5L213 158.6" stroke="white" stroke-width="4" stroke-miterlimit="10"/>
<path d="M93.4002 129.5L84.7002 134.5" stroke="white" stroke-width="4" stroke-miterlimit="10"/>
<path d="M157.7 114.7L188.2 120.1" stroke="white" stroke-width="4" stroke-miterlimit="10"/>
<path d="M95.5998 115.2L67.7998 120.1" stroke="white" stroke-width="4" stroke-miterlimit="10"/>
<path d="M37.9004 149.5C37.9004 149.5 56.8004 132.5 71.0004 129.5C80.9004 145.5 83.6004 156.4 83.6004 156.4L89.8004 155.3L92.0004 158L90.8004 172.8L95.5004 187.4L109.1 186.4L112.4 191.7V207.9L118.4 229.7L134.5 231.1L141.5 269.6" stroke="white" stroke-width="4" stroke-miterlimit="10"/>
<path d="M253 205.9C222.2 179.9 152.2 182.5 152.2 182.5V195.7" stroke="white" stroke-width="4" stroke-miterlimit="10"/>
<path d="M83.5998 156.4C67.7998 158.6 41.0998 167.3 14.7998 186.8" stroke="white" stroke-width="4" stroke-miterlimit="10"/>
<path d="M112.6 201.1C99.4 200.3 49.7 204.8 23 217.4" stroke="white" stroke-width="4" stroke-miterlimit="10"/>
<path d="M137.2 244.9C137.2 244.9 95.1004 243.9 73.9004 246.5" stroke="white" stroke-width="4" stroke-miterlimit="10"/>
<path d="M113.6 197.7L159.7 195.3L162.7 217.4L179.9 247.8" stroke="white" stroke-width="4" stroke-miterlimit="10"/>
<path d="M104.8 234.3L88.7995 235.8V219.4C88.7995 219.4 87.6995 210.2 96.7995 210.2C105.9 210.2 104.7 219.4 104.7 219.4L104.8 234.3Z" stroke="white" stroke-width="4" stroke-miterlimit="10"/>
<path d="M151.9 224.6V209.1C151.9 209.1 151.9 202.5 144.6 202.5C137.3 202.5 137.3 209.1 137.3 209.1V224.6H151.9Z" stroke="white" stroke-width="4" stroke-miterlimit="10"/>
<path d="M109.001 266.6V262.4C109.001 262.4 107.901 253.2 117.001 253.2C126.101 253.2 124.901 262.4 124.901 262.4L125.001 275.7" stroke="white" stroke-width="4" stroke-miterlimit="10"/>
<path d="M81.3002 236.4L67.2002 237.8L67.5002 221.6C67.5002 221.6 67.2002 213.2 75.9002 213.2C81.8002 213.2 81.2002 219.7 81.2002 219.7L81.3002 236.4Z" stroke="white" stroke-width="4" stroke-miterlimit="10"/>
<path d="M60.7002 239.6L61.0002 222.9C61.0002 222.9 61.7002 216.2 57.0002 216.2C50.7002 216.4 50.7002 225.4 50.7002 225.4V233.3" stroke="white" stroke-width="4" stroke-miterlimit="10"/>
<path d="M45.2 230.2L45.3 225.9C45.3 225.9 45.7 220.4 42.1 220.4C37.9 220.7 37 225.4 37 225.4" stroke="white" stroke-width="4" stroke-miterlimit="10"/>
<path d="M171 209.7L182.6 210.7L181.1 197.1C181.1 197.1 179.8 190.4 173.6 190.5C168 190.1 169 196.1 169 196.1L171 209.7Z" stroke="white" stroke-width="4" stroke-miterlimit="10"/>
<path d="M190.4 211.6L201.2 213.5L199.2 200.7C199.2 200.7 198.4 195.4 193.5 195.4C188.8 195.4 188.8 199.3 188.8 199.3L190.4 211.6Z" stroke="white" stroke-width="4" stroke-miterlimit="10"/>
<path d="M209 213.6L218.6 216.4L216.7 204.1C216.7 204.1 216 199.5 211.7 199.5C207.6 199.5 207.6 202.9 207.6 202.9L209 213.6Z" stroke="white" stroke-width="4" stroke-miterlimit="10"/>
<path d="M151.1 234.8H145.7V249.6H151.1V234.8Z" stroke="white" stroke-width="4" stroke-miterlimit="10"/>
<path d="M163.9 234.8H158.5V249.6H163.9V234.8Z" stroke="white" stroke-width="4" stroke-miterlimit="10"/>
<path d="M83.2002 189.6L71.7002 191.7V178.2C71.7002 178.2 71.7002 170.8 77.8002 170.8C84.4002 170.8 83.7002 176.1 83.7002 176.1L83.2002 189.6Z" stroke="white" stroke-width="4" stroke-miterlimit="10"/>
<path d="M64.5004 192.9L53.9004 195.8L54.4004 182.9C54.4004 182.9 54.7004 176 59.8004 176C64.7004 176 64.6004 180.9 64.6004 180.9L64.5004 192.9Z" stroke="white" stroke-width="4" stroke-miterlimit="10"/>
<path d="M45.6004 197.6L35.9004 200.9L36.5004 188C36.5004 188 36.8004 181.5 42.0004 181.5C47.2004 181.5 46.2004 187 46.2004 187L45.6004 197.6Z" stroke="white" stroke-width="4" stroke-miterlimit="10"/>
<path d="M128 4L3 205.9L128 277.5L253 205.9L128 4Z" stroke="white" stroke-width="4" stroke-miterlimit="10"/>
<path d="M148 111L128 80L108 111L128 122L148 111Z" stroke="white" stroke-width="4" stroke-miterlimit="10"/>
<path d="M107.5 111L128 139L148.5 111" stroke="white" stroke-width="4" stroke-miterlimit="10"/>
<path d="M128.1 69.5004V54.6004V24.4004" stroke="white" stroke-width="4" stroke-miterlimit="10"/>
<path d="M116.9 78.9002L107.7 53.7002" stroke="white" stroke-width="4" stroke-miterlimit="10"/>
<path d="M102.4 78.9004L94.7998 69.9004" stroke="white" stroke-width="4" stroke-miterlimit="10"/>
<path d="M102.6 94.8001L86.7002 85.6001" stroke="white" stroke-width="4" stroke-miterlimit="10"/>
<path d="M88.7 102.6L78.5 100.8" stroke="white" stroke-width="4" stroke-miterlimit="10"/>
<path d="M139.6 77.6002L148.2 53.7002" stroke="white" stroke-width="4" stroke-miterlimit="10"/>
<path d="M153.6 78.9004L161.2 69.9004" stroke="white" stroke-width="4" stroke-miterlimit="10"/>
<path d="M153 95.0001L169.3 85.6001" stroke="white" stroke-width="4" stroke-miterlimit="10"/>
<path d="M167.3 102.6L177.5 100.8" stroke="white" stroke-width="4" stroke-miterlimit="10"/>
<path d="M128 149.5V185.1" stroke="white" stroke-width="4" stroke-miterlimit="10"/>
<path d="M141.7 147.1L149.7 169" stroke="white" stroke-width="4" stroke-miterlimit="10"/>
<path d="M114.3 147.1L105.3 171.8" stroke="white" stroke-width="4" stroke-miterlimit="10"/>
<path d="M147.7 132.9L181.2 172.8" stroke="white" stroke-width="4" stroke-miterlimit="10"/>
<path d="M108.7 132.6L95.5 148.3" stroke="white" stroke-width="4" stroke-miterlimit="10"/>
<path d="M162.7 129.5L213 158.6" stroke="white" stroke-width="4" stroke-miterlimit="10"/>
<path d="M93.4002 129.5L84.7002 134.5" stroke="white" stroke-width="4" stroke-miterlimit="10"/>
<path d="M157.7 114.7L188.2 120.1" stroke="white" stroke-width="4" stroke-miterlimit="10"/>
<path d="M95.5998 115.2L67.7998 120.1" stroke="white" stroke-width="4" stroke-miterlimit="10"/>
<path d="M37.9004 149.5C37.9004 149.5 56.8004 132.5 71.0004 129.5C80.9004 145.5 83.6004 156.4 83.6004 156.4L89.8004 155.3L92.0004 158L90.8004 172.8L95.5004 187.4L109.1 186.4L112.4 191.7V207.9L118.4 229.7L134.5 231.1L141.5 269.6" stroke="white" stroke-width="4" stroke-miterlimit="10"/>
<path d="M253 205.9C222.2 179.9 152.2 182.5 152.2 182.5V195.7" stroke="white" stroke-width="4" stroke-miterlimit="10"/>
<path d="M83.5998 156.4C67.7998 158.6 41.0998 167.3 14.7998 186.8" stroke="white" stroke-width="4" stroke-miterlimit="10"/>
<path d="M83.2002 189.6L71.7002 191.7V178.2C71.7002 178.2 71.7002 170.8 77.8002 170.8C84.4002 170.8 83.7002 176.1 83.7002 176.1L83.2002 189.6Z" stroke="white" stroke-width="4" stroke-miterlimit="10"/>
<path d="M64.5004 192.9L53.9004 195.8L54.4004 182.9C54.4004 182.9 54.7004 176 59.8004 176C64.7004 176 64.6004 180.9 64.6004 180.9L64.5004 192.9Z" stroke="white" stroke-width="4" stroke-miterlimit="10"/>
<path d="M45.6004 197.6L35.9004 200.9L36.5004 188C36.5004 188 36.8004 181.5 42.0004 181.5C47.2004 181.5 46.2004 187 46.2004 187L45.6004 197.6Z" stroke="white" stroke-width="4" stroke-miterlimit="10"/>
<path d="M28.6002 202.9L21.7002 206L22.2002 195C22.2002 195 22.3002 190.8 25.7002 191C29.2002 191.2 28.9002 194 28.9002 194L28.6002 202.9Z" stroke="white" stroke-width="4" stroke-miterlimit="10"/>
</svg>
