<svg width="291" height="319" viewBox="0 0 291 319" fill="none" xmlns="http://www.w3.org/2000/svg">
<path d="M145.5 4L3 234.166L145.5 315.79L288 234.166L145.5 4Z" stroke="black" stroke-width="4" stroke-miterlimit="10"/>
<path d="M168.3 125.98L145.5 90.6399L122.7 125.98L145.5 138.52L168.3 125.98Z" stroke="black" stroke-width="4" stroke-miterlimit="10"/>
<path d="M122.13 125.98L145.5 157.9L168.87 125.98" stroke="black" stroke-width="4" stroke-miterlimit="10"/>
<path d="M145.613 78.6701V61.6841V27.2561" stroke="black" stroke-width="4" stroke-miterlimit="10"/>
<path d="M132.846 89.3862L122.358 60.6582" stroke="black" stroke-width="4" stroke-miterlimit="10"/>
<path d="M116.315 89.3862L107.651 79.1262" stroke="black" stroke-width="4" stroke-miterlimit="10"/>
<path d="M116.544 107.512L98.418 97.0242" stroke="black" stroke-width="4" stroke-miterlimit="10"/>
<path d="M100.698 116.404L89.0703 114.352" stroke="black" stroke-width="4" stroke-miterlimit="10"/>
<path d="M158.724 87.9042L168.528 60.6582" stroke="black" stroke-width="4" stroke-miterlimit="10"/>
<path d="M174.684 89.3862L183.348 79.1262" stroke="black" stroke-width="4" stroke-miterlimit="10"/>
<path d="M174 107.74L192.582 97.0242" stroke="black" stroke-width="4" stroke-miterlimit="10"/>
<path d="M190.302 116.404L201.93 114.352" stroke="black" stroke-width="4" stroke-miterlimit="10"/>
<path d="M145.5 169.87V210.454" stroke="black" stroke-width="4" stroke-miterlimit="10"/>
<path d="M161.118 167.134L170.238 192.1" stroke="black" stroke-width="4" stroke-miterlimit="10"/>
<path d="M129.882 167.134L119.622 195.292" stroke="black" stroke-width="4" stroke-miterlimit="10"/>
<path d="M167.958 150.946L206.148 196.432" stroke="black" stroke-width="4" stroke-miterlimit="10"/>
<path d="M123.498 150.604L108.45 168.502" stroke="black" stroke-width="4" stroke-miterlimit="10"/>
<path d="M185.059 147.07L242.401 180.244" stroke="black" stroke-width="4" stroke-miterlimit="10"/>
<path d="M106.057 147.07L96.1387 152.77" stroke="black" stroke-width="4" stroke-miterlimit="10"/>
<path d="M179.358 130.198L214.128 136.354" stroke="black" stroke-width="4" stroke-miterlimit="10"/>
<path d="M108.564 130.768L76.8721 136.354" stroke="black" stroke-width="4" stroke-miterlimit="10"/>
<path d="M42.7861 169.87C42.7861 169.87 64.3321 150.49 80.5201 147.07C91.8061 165.31 94.8841 177.736 94.8841 177.736L101.952 176.482L104.46 179.56L103.092 196.432L108.45 213.076L123.954 211.936L127.716 217.978V236.446L134.556 261.298L152.91 262.894L160.89 306.784" stroke="black" stroke-width="4" stroke-miterlimit="10"/>
<path d="M288 234.166C252.888 204.526 173.088 207.49 173.088 207.49V222.538" stroke="black" stroke-width="4" stroke-miterlimit="10"/>
<path d="M94.8842 177.736C76.8722 180.244 46.4342 190.162 16.4521 212.392" stroke="black" stroke-width="4" stroke-miterlimit="10"/>
<path d="M127.944 228.694C112.896 227.782 56.2378 232.912 25.7998 247.276" stroke="black" stroke-width="4" stroke-miterlimit="10"/>
<path d="M155.988 278.626C155.988 278.626 107.994 277.486 83.8262 280.45" stroke="black" stroke-width="4" stroke-miterlimit="10"/>
<path d="M129.084 224.818L181.638 222.082L185.058 247.276L204.666 281.932" stroke="black" stroke-width="4" stroke-miterlimit="10"/>
<path d="M119.28 267.34L100.812 268.252V249.556C100.812 249.556 101.048 239.827 109.932 239.068C119.28 238.27 119.28 249.1 119.28 249.1V267.34Z" stroke="black" stroke-width="4" stroke-miterlimit="10"/>
<path d="M172.746 255.484V237.814C172.746 237.814 172.746 230.29 164.424 230.29C156.102 230.29 156.102 237.814 156.102 237.814V255.484H172.746Z" stroke="black" stroke-width="4" stroke-miterlimit="10"/>
<path d="M123.841 303.364V298.576C123.841 298.576 122.587 288.088 132.961 288.088C143.335 288.088 141.967 298.576 141.967 298.576L142.081 313.738" stroke="black" stroke-width="4" stroke-miterlimit="10"/>
<path d="M92.2625 268.936L76.1885 270.532L76.5305 252.064C76.5305 252.064 76.1885 242.488 86.1065 242.488C92.8325 242.488 92.1485 249.898 92.1485 249.898L92.2625 268.936Z" stroke="black" stroke-width="4" stroke-miterlimit="10"/>
<path d="M68.7779 272.584L69.1199 253.546C69.1199 253.546 69.9179 245.908 64.5599 245.908C57.3779 246.136 57.3779 256.396 57.3779 256.396V265.402" stroke="black" stroke-width="4" stroke-miterlimit="10"/>
<path d="M51.1078 261.868L51.2218 256.966C51.2218 256.966 51.6778 250.696 47.5738 250.696C42.7858 251.038 41.7598 256.396 41.7598 256.396" stroke="black" stroke-width="4" stroke-miterlimit="10"/>
<path d="M171.834 267.112H165.678V283.984H171.834V267.112Z" stroke="black" stroke-width="4" stroke-miterlimit="10"/>
<path d="M186.426 267.112H180.27V283.984H186.426V267.112Z" stroke="black" stroke-width="4" stroke-miterlimit="10"/>
<path d="M94.4284 215.584L81.3184 217.978V202.588C81.3184 202.588 81.3184 194.152 88.2724 194.152C95.7964 194.152 94.9984 200.194 94.9984 200.194L94.4284 215.584Z" stroke="black" stroke-width="4" stroke-miterlimit="10"/>
<path d="M73.1104 219.346L61.0264 222.652L61.5964 207.946C61.5964 207.946 61.9384 200.08 67.7524 200.08C73.3384 200.08 73.2244 205.666 73.2244 205.666L73.1104 219.346Z" stroke="black" stroke-width="4" stroke-miterlimit="10"/>
<path d="M51.5648 224.704L40.5068 228.466L41.1908 213.76C41.1908 213.76 41.5328 206.35 47.4608 206.35C53.3888 206.35 52.2488 212.62 52.2488 212.62L51.5648 224.704Z" stroke="black" stroke-width="4" stroke-miterlimit="10"/>
<path d="M145.5 4L3 234.166L145.5 315.79L288 234.166L145.5 4Z" stroke="black" stroke-width="4" stroke-miterlimit="10"/>
<path d="M168.3 125.98L145.5 90.6399L122.7 125.98L145.5 138.52L168.3 125.98Z" stroke="black" stroke-width="4" stroke-miterlimit="10"/>
<path d="M122.13 125.98L145.5 157.9L168.87 125.98" stroke="black" stroke-width="4" stroke-miterlimit="10"/>
<path d="M145.613 78.6701V61.6841V27.2561" stroke="black" stroke-width="4" stroke-miterlimit="10"/>
<path d="M132.846 89.3862L122.358 60.6582" stroke="black" stroke-width="4" stroke-miterlimit="10"/>
<path d="M116.315 89.3862L107.651 79.1262" stroke="black" stroke-width="4" stroke-miterlimit="10"/>
<path d="M116.544 107.512L98.418 97.0242" stroke="black" stroke-width="4" stroke-miterlimit="10"/>
<path d="M100.698 116.404L89.0703 114.352" stroke="black" stroke-width="4" stroke-miterlimit="10"/>
<path d="M158.724 87.9042L168.528 60.6582" stroke="black" stroke-width="4" stroke-miterlimit="10"/>
<path d="M174.684 89.3862L183.348 79.1262" stroke="black" stroke-width="4" stroke-miterlimit="10"/>
<path d="M174 107.74L192.582 97.0242" stroke="black" stroke-width="4" stroke-miterlimit="10"/>
<path d="M190.302 116.404L201.93 114.352" stroke="black" stroke-width="4" stroke-miterlimit="10"/>
<path d="M145.5 169.87V210.454" stroke="black" stroke-width="4" stroke-miterlimit="10"/>
<path d="M161.118 167.134L170.238 192.1" stroke="black" stroke-width="4" stroke-miterlimit="10"/>
<path d="M129.882 167.134L119.622 195.292" stroke="black" stroke-width="4" stroke-miterlimit="10"/>
<path d="M167.958 150.946L206.148 196.432" stroke="black" stroke-width="4" stroke-miterlimit="10"/>
<path d="M123.498 150.604L108.45 168.502" stroke="black" stroke-width="4" stroke-miterlimit="10"/>
<path d="M185.059 147.07L242.401 180.244" stroke="black" stroke-width="4" stroke-miterlimit="10"/>
<path d="M106.057 147.07L96.1387 152.77" stroke="black" stroke-width="4" stroke-miterlimit="10"/>
<path d="M179.358 130.198L214.128 136.354" stroke="black" stroke-width="4" stroke-miterlimit="10"/>
<path d="M108.564 130.768L76.8721 136.354" stroke="black" stroke-width="4" stroke-miterlimit="10"/>
<path d="M42.7861 169.87C42.7861 169.87 64.3321 150.49 80.5201 147.07C91.8061 165.31 94.8841 177.736 94.8841 177.736L101.952 176.482L104.46 179.56L103.092 196.432L108.45 213.076L123.954 211.936L127.716 217.978V236.446L134.556 261.298L152.91 262.894L160.89 306.784" stroke="black" stroke-width="4" stroke-miterlimit="10"/>
<path d="M288 234.166C252.888 204.526 173.088 207.49 173.088 207.49V222.538" stroke="black" stroke-width="4" stroke-miterlimit="10"/>
<path d="M94.8842 177.736C76.8722 180.244 46.4342 190.162 16.4521 212.392" stroke="black" stroke-width="4" stroke-miterlimit="10"/>
<path d="M94.4284 215.584L81.3184 217.978V202.588C81.3184 202.588 81.3184 194.152 88.2724 194.152C95.7964 194.152 94.9984 200.194 94.9984 200.194L94.4284 215.584Z" stroke="black" stroke-width="4" stroke-miterlimit="10"/>
<path d="M73.1104 219.346L61.0264 222.652L61.5964 207.946C61.5964 207.946 61.9384 200.08 67.7524 200.08C73.3384 200.08 73.2244 205.666 73.2244 205.666L73.1104 219.346Z" stroke="black" stroke-width="4" stroke-miterlimit="10"/>
<path d="M51.5648 224.704L40.5068 228.466L41.1908 213.76C41.1908 213.76 41.5328 206.35 47.4608 206.35C53.3888 206.35 52.2488 212.62 52.2488 212.62L51.5648 224.704Z" stroke="black" stroke-width="4" stroke-miterlimit="10"/>
<path d="M32.1844 230.746L24.3184 234.28L24.8884 221.74C24.8884 221.74 25.0024 216.952 28.8784 217.18C32.8684 217.408 32.5264 220.6 32.5264 220.6L32.1844 230.746Z" stroke="black" stroke-width="4" stroke-miterlimit="10"/>
<path d="M226 257L226 243.223C226 243.223 225.754 237 221.8 237C217.39 237 217 242.709 217 242.709V257L226 257Z" stroke="black" stroke-width="4" stroke-miterlimit="10"/>
<path d="M209 219.071L200 218V233H209V219.071Z" stroke="black" stroke-width="4" stroke-miterlimit="10"/>
<path d="M242 223.857L234 223V235H242V223.857Z" stroke="black" stroke-width="4" stroke-miterlimit="10"/>
</svg>
