<svg width="220" height="50" viewBox="0 0 220 50" fill="none" xmlns="http://www.w3.org/2000/svg">
<g opacity="0.64" clip-path="url(#clip0_1533_374)">
<mask id="mask0_1533_374" style="mask-type:luminance" maskUnits="userSpaceOnUse" x="58" y="2" width="104" height="46">
<path d="M162 2H58V48H162V2Z" fill="white"/>
</mask>
<g mask="url(#mask0_1533_374)">
<path d="M63.371 12.823C63.7999 12.0241 64.419 11.3429 65.1736 10.8397L77.8372 2L64.8618 23.4476C64.8618 23.4476 63.7281 21.5325 63.2859 20.5634C62.7349 19.3449 62.457 18.0209 62.4717 16.6838C62.4864 15.3467 62.7933 14.0291 63.371 12.823ZM58.1445 27.6182C58.2875 29.6693 58.8672 31.6661 59.8448 33.4749C60.8224 35.2839 62.1754 36.8631 63.8131 38.1069L77.8201 47.8703C77.8201 47.8703 69.0565 35.2454 61.6647 22.6828C60.9163 21.3555 60.4133 19.9044 60.1795 18.3989C60.0761 17.7171 60.0761 17.0236 60.1795 16.3419C59.9868 16.699 59.6127 17.4299 59.6127 17.4299C58.8632 18.9579 58.3527 20.5919 58.0992 22.2748C57.9532 24.0536 57.9684 25.842 58.1445 27.6182ZM93.8565 29.3181C93.4029 28.3492 92.2806 26.4339 92.2806 26.4339L79.328 47.8703L91.9915 39.0362C92.7461 38.533 93.3652 37.852 93.7942 37.053C94.3718 35.8469 94.6786 34.5292 94.6934 33.1922C94.7081 31.8551 94.4302 30.5309 93.8792 29.3125L93.8565 29.3181ZM98.9978 22.2577C98.8548 20.2067 98.2751 18.2098 97.2976 16.4009C96.3199 14.5921 94.967 13.0128 93.3292 11.769L79.3449 2C79.3449 2 88.1028 14.6249 95.5004 27.1875C96.2467 28.5152 96.7478 29.9663 96.9799 31.4714C97.0833 32.1531 97.0833 32.8466 96.9799 33.5284C97.1726 33.1713 97.5467 32.4404 97.5467 32.4404C98.2962 30.9124 98.8067 29.2784 99.0602 27.5955C99.208 25.8168 99.1948 24.0284 99.0206 22.2521L98.9978 22.2577Z" fill="#0A0B0D"/>
<path d="M122.69 35.0971H109.43V14.0117H122.69V17.9885H112.424L113.707 16.7869V22.566H121.692V26.3425H113.707V32.322L112.424 31.1204H122.69V35.0971Z" fill="#0A0B0D"/>
<path d="M130.464 35.0971H126.215V14.0117H130.464L140.958 29.9187H139.674V14.0117H143.895V35.0971H139.674L129.152 19.2187H130.464V35.0971Z" fill="#0A0B0D"/>
<path d="M146.677 20.0485C146.677 18.7897 147 17.6835 147.647 16.7298C148.312 15.7571 149.215 14.9941 150.356 14.441C151.515 13.8879 152.836 13.6113 154.319 13.6113C155.802 13.6113 157.076 13.8784 158.14 14.4124C159.224 14.9274 160.061 15.6617 160.65 16.6154C161.258 17.569 161.562 18.7039 161.562 20.0199H157.313C157.294 19.2188 157.009 18.5894 156.458 18.1317C155.926 17.6739 155.194 17.445 154.262 17.445C153.255 17.445 152.447 17.6644 151.838 18.1031C151.249 18.5417 150.954 19.1425 150.954 19.9055C150.954 20.5921 151.135 21.1262 151.496 21.5076C151.876 21.87 152.456 22.137 153.236 22.3087L156.458 22.9953C158.302 23.3768 159.671 24.0348 160.564 24.9694C161.458 25.904 161.905 27.1914 161.905 28.8317C161.905 30.1668 161.581 31.3398 160.935 32.3507C160.289 33.3425 159.367 34.115 158.169 34.6681C156.99 35.2022 155.603 35.4692 154.006 35.4692C152.485 35.4692 151.144 35.2117 149.985 34.6967C148.844 34.1627 147.96 33.4188 147.333 32.4652C146.705 31.4924 146.382 30.3671 146.363 29.0892H150.641C150.641 29.8903 150.935 30.5197 151.525 30.9774C152.133 31.4161 152.97 31.6355 154.034 31.6355C155.137 31.6355 156.011 31.4257 156.658 31.0061C157.304 30.5674 157.627 29.9856 157.627 29.2609C157.627 28.6124 157.466 28.1165 157.142 27.7732C156.819 27.4108 156.277 27.1533 155.517 27.0007L152.266 26.3141C150.422 25.9326 149.025 25.2174 148.074 24.1683C147.143 23.1193 146.677 21.746 146.677 20.0485Z" fill="#0A0B0D"/>
</g>
</g>
<defs>
<clipPath id="clip0_1533_374">
<rect width="104" height="46" fill="white" transform="translate(58 2)"/>
</clipPath>
</defs>
</svg>
