<svg width="223" height="136" viewBox="0 0 223 136" fill="none" xmlns="http://www.w3.org/2000/svg">
<g opacity="0.64">
<g clip-path="url(#clip0_1893_281)">
<path d="M20.6634 68.71C23.8557 67.7382 25.9817 64.9758 25.9004 61.9002C25.8813 59.8648 24.8868 57.9387 23.1815 56.6303C21.7615 55.4866 19.9829 55 17.7039 55H7.16135V58.0232H1V61.9992H17.8569V58.3204C18.8577 58.2884 19.8458 58.555 20.6634 59.0911C21.5926 59.7672 22.1026 60.8162 22.0277 61.9002C22.0277 63.9778 20.5104 65.8179 17.4377 65.8179H7.16135V79.6868H11.2556V69.1471H16.4926L22.0659 79.6853H26.922L20.6634 68.7085V68.71ZM204.033 79.6868H223V77.9515H204.033V79.6868ZM122.26 66.7227V70.2573H127.617V79.9752H131.837L131.859 66.7227H122.262H122.26ZM127.378 62.7365H131.727C130.868 58.7153 127.344 55.4196 122.244 55.4196C118.753 55.3803 115.513 57.0805 113.788 59.859C113.125 60.9619 112.787 61.6539 112.668 64.5169C112.668 64.5169 112.607 67.0272 112.607 67.9961V80.0015H116.805V64.0026C116.979 62.3475 117.349 61.7705 118.034 60.9648C119.047 59.7905 120.608 59.1217 122.243 59.1596C124.626 59.1946 126.707 60.6428 127.376 62.7336M173.83 79.6853H177.925V62.1435H178.001L190.214 79.6868H194.091V55H189.991V72.5433H189.921L177.709 55H173.832V79.6868L173.83 79.6853ZM142.743 71.3296C142.743 76.4596 146.99 79.8951 152.34 79.8951C157.691 79.8951 161.938 76.4596 161.938 71.3296V55H157.86V70.9071C157.86 74.3076 155.472 76.142 152.363 76.142C149.253 76.142 146.866 74.3076 146.866 70.9071V55H142.765L142.743 71.3296ZM85.7226 79.7057H102.976V76.1667H89.8169V55H85.7226V79.7057ZM69.5239 79.6853H73.6246V55H69.5239V79.6868V79.6853ZM51.6439 70.8474L47.7457 60.06H47.6691L43.7534 70.843L51.6439 70.8474ZM52.8185 74.178H42.5788L40.4958 79.6868H36.1449L45.9973 55H49.4127L59.2332 79.6868H54.8824L52.8217 74.178H52.8185Z" fill="black"/>
</g>
</g>
<defs>
<clipPath id="clip0_1893_281">
<rect width="222" height="25" fill="white" transform="translate(1 55)"/>
</clipPath>
</defs>
</svg>
