<svg width="220" height="132" viewBox="0 0 220 132" fill="none" xmlns="http://www.w3.org/2000/svg">
<g opacity="0.64">
<path d="M42.4551 83.9296V102.263L20.0781 69.6016L42.4551 83.9296Z" fill="url(#paint0_linear_789_367)"/>
<path d="M64.6765 69.6016L42.4531 102.263V83.9296L64.6765 69.6016Z" fill="url(#paint1_linear_789_367)"/>
<path d="M64.6765 64.9787L42.4531 52.1914V79.3067L64.6765 64.9787Z" fill="url(#paint2_linear_789_367)"/>
<path d="M64.6765 64.9788L42.4531 26V52.1916L64.6765 64.9788Z" fill="url(#paint3_linear_789_367)"/>
<path d="M42.4551 26V52.1916L20.0781 64.9788L42.4551 26Z" fill="url(#paint4_linear_789_367)"/>
<path d="M42.4551 52.1914V79.3067L20.0781 64.9787L42.4551 52.1914Z" fill="url(#paint5_linear_789_367)"/>
<g style="mix-blend-mode:color">
<path d="M42.4551 83.9296V102.263L20.0781 69.6016L42.4551 83.9296Z" fill="#828282"/>
<path d="M64.6765 69.6016L42.4531 102.263V83.9296L64.6765 69.6016Z" fill="#828282"/>
<path d="M64.6765 64.9787L42.4531 52.1914V79.3067L64.6765 64.9787Z" fill="#828282"/>
<path d="M64.6765 64.9788L42.4531 26V52.1916L64.6765 64.9788Z" fill="#828282"/>
<path d="M42.4551 26V52.1916L20.0781 64.9788L42.4551 26Z" fill="#828282"/>
<path d="M42.4551 52.1914V79.3067L20.0781 64.9787L42.4551 52.1914Z" fill="#828282"/>
</g>
<path d="M75.7227 39.9017C75.7227 38.6245 75.9829 37.493 76.5034 36.5076C77.0239 35.5228 77.751 34.761 78.6853 34.222C79.6191 33.6834 80.6988 33.4141 81.924 33.4141C83.1027 33.4141 84.1556 33.6911 85.0823 34.2455C86.0084 34.7995 86.7322 35.5771 87.2527 36.5773C87.7732 37.5781 88.0334 38.7168 88.0334 39.9945V40.964H79.0068C79.0527 41.7339 79.3436 42.3571 79.8798 42.8342C80.4156 43.3117 81.1198 43.5497 81.9928 43.5497C82.6052 43.5497 83.1716 43.4151 83.6926 43.1458C84.213 42.8765 84.7794 42.411 85.3923 41.7493L87.4364 43.8503C86.7317 44.6356 85.9204 45.2473 85.0019 45.6858C84.0834 46.1244 83.0797 46.3437 81.9928 46.3437C80.7524 46.3437 79.6579 46.0739 78.7083 45.5353C77.7587 44.9967 77.0239 44.2388 76.5034 43.2612C75.9829 42.284 75.7227 41.1641 75.7227 39.9017ZM84.7263 38.5624C84.6651 37.8854 84.3704 37.3237 83.8418 36.8769C83.3137 36.4307 82.6741 36.2075 81.924 36.2075C81.1432 36.2075 80.4998 36.423 79.9946 36.8539C79.4895 37.2847 79.1756 37.8546 79.0532 38.5624H84.7263Z" fill="black"/>
<path d="M90.125 39.8791C90.125 38.6173 90.3852 37.4973 90.9057 36.5196C91.4262 35.5425 92.1577 34.7803 93.0991 34.234C94.0406 33.6877 95.1165 33.4141 96.3263 33.4141C97.7505 33.4141 98.9751 33.8065 100.001 34.5918C101.027 35.3766 101.724 36.4312 102.091 37.755L98.922 38.6322C98.7689 37.9551 98.4776 37.4199 98.049 37.0275C97.6203 36.635 97.0458 36.4388 96.3263 36.4388C95.4078 36.4388 94.6917 36.7428 94.1788 37.3506C93.6655 37.9589 93.4096 38.8014 93.4096 39.8786C93.4096 40.9558 93.666 41.7988 94.1788 42.4067C94.6917 43.015 95.4078 43.3184 96.3263 43.3184C97.0458 43.3184 97.6199 43.1222 98.049 42.7298C98.4776 42.3374 98.7685 41.8027 98.922 41.1251L102.091 42.0022C101.724 43.3261 101.027 44.3802 100.001 45.1655C98.9751 45.9503 97.7505 46.3432 96.3263 46.3432C95.1165 46.3432 94.0411 46.0696 93.0991 45.5233C92.1572 44.977 91.4257 44.2153 90.9057 43.2376C90.3852 42.2605 90.125 41.1405 90.125 39.8782V39.8791Z" fill="black"/>
<path d="M104.066 39.8791C104.066 38.6173 104.327 37.4973 104.847 36.5196C105.368 35.5425 106.099 34.7803 107.041 34.234C107.982 33.6877 109.058 33.4141 110.268 33.4141C111.492 33.4141 112.576 33.6877 113.517 34.234C114.459 34.7803 115.19 35.5425 115.711 36.5196C116.231 37.4973 116.492 38.6173 116.492 39.8791C116.492 41.141 116.231 42.2614 115.711 43.2386C115.19 44.2162 114.459 44.978 113.517 45.5243C112.575 46.0706 111.492 46.3442 110.268 46.3442C109.058 46.3442 107.982 46.0706 107.041 45.5243C106.099 44.978 105.367 44.2162 104.847 43.2386C104.327 42.2614 104.066 41.1414 104.066 39.8791ZM113.207 39.8791C113.207 38.8019 112.951 37.9589 112.438 37.3511C111.925 36.7432 111.202 36.4393 110.268 36.4393C109.349 36.4393 108.633 36.7432 108.12 37.3511C107.607 37.9594 107.351 38.8019 107.351 39.8791C107.351 40.9563 107.607 41.7993 108.12 42.4071C108.633 43.0155 109.349 43.3189 110.268 43.3189C111.186 43.3189 111.906 43.0111 112.427 42.3956C112.947 41.7801 113.207 40.9409 113.207 39.8791Z" fill="black"/>
<path d="M118.328 41.9566L121.314 41.2641C121.528 42.034 121.915 42.6226 122.474 43.0304C123.033 43.4382 123.741 43.6421 124.598 43.6421C125.364 43.6421 125.949 43.5497 126.355 43.3651C126.761 43.1804 126.964 42.9188 126.964 42.5798C126.964 42.1956 126.757 41.8988 126.344 41.6911C125.931 41.4834 125.172 41.2718 124.07 41.0563C122.263 40.7178 120.973 40.248 120.2 39.6478C119.426 39.0472 119.039 38.2244 119.039 37.1775C119.039 36.4384 119.254 35.7848 119.683 35.215C120.112 34.6456 120.712 34.2032 121.486 33.8873C122.259 33.5718 123.144 33.4141 124.139 33.4141C125.502 33.4141 126.711 33.7531 127.768 34.4297C128.824 35.1073 129.536 36.008 129.904 37.1313L127.079 38.0546C126.85 37.4391 126.478 36.9621 125.965 36.623C125.452 36.2845 124.836 36.1147 124.117 36.1147C123.519 36.1147 123.045 36.2114 122.692 36.4037C122.34 36.5961 122.164 36.862 122.164 37.2001C122.164 37.5083 122.359 37.7584 122.75 37.9508C123.14 38.1431 123.849 38.3316 124.874 38.5163C126.742 38.8702 128.079 39.3588 128.882 39.982C129.686 40.6053 130.088 41.4713 130.088 42.5793C130.088 43.3338 129.862 43.9955 129.411 44.5649C128.959 45.1347 128.316 45.5733 127.482 45.8806C126.647 46.1884 125.686 46.3423 124.599 46.3423C122.945 46.3423 121.571 45.9575 120.477 45.1881C119.382 44.4182 118.666 43.341 118.329 41.9556L118.328 41.9566Z" fill="black"/>
<path d="M136.518 45.5127L131.672 33.7607H135.117L138.149 41.5877H138.195L141.204 33.7607H144.649L137.575 51.1924H134.153L136.518 45.5127Z" fill="black"/>
<path d="M145.293 41.9566L148.279 41.2641C148.493 42.034 148.88 42.6226 149.439 43.0304C149.998 43.4382 150.705 43.6421 151.563 43.6421C152.329 43.6421 152.914 43.5497 153.32 43.3651C153.726 43.1804 153.929 42.9188 153.929 42.5798C153.929 42.1956 153.722 41.8988 153.309 41.6911C152.895 41.4834 152.137 41.2718 151.035 41.0563C149.228 40.7178 147.937 40.248 147.164 39.6478C146.391 39.0472 146.004 38.2244 146.004 37.1775C146.004 36.4384 146.219 35.7848 146.648 35.215C147.076 34.6456 147.677 34.2032 148.451 33.8873C149.224 33.5718 150.108 33.4141 151.104 33.4141C152.467 33.4141 153.676 33.7531 154.733 34.4297C155.789 35.1073 156.501 36.008 156.869 37.1313L154.044 38.0546C153.814 37.4391 153.443 36.9621 152.93 36.623C152.417 36.2845 151.801 36.1147 151.081 36.1147C150.484 36.1147 150.009 36.2114 149.657 36.4037C149.305 36.5961 149.129 36.862 149.129 37.2001C149.129 37.5083 149.324 37.7584 149.715 37.9508C150.105 38.1431 150.814 38.3316 151.839 38.5163C153.707 38.8702 155.043 39.3588 155.847 39.982C156.651 40.6053 157.053 41.4713 157.053 42.5793C157.053 43.3338 156.827 43.9955 156.376 44.5649C155.924 45.1347 155.281 45.5733 154.446 45.8806C153.612 46.1884 152.651 46.3423 151.564 46.3423C149.91 46.3423 148.536 45.9575 147.441 45.1881C146.346 44.4182 145.631 43.341 145.294 41.9556L145.293 41.9566Z" fill="black"/>
<path d="M164.954 36.7157V41.6338C164.954 42.0493 165.049 42.3493 165.241 42.5345C165.432 42.7191 165.75 42.8115 166.194 42.8115H168.974V45.9973H165.896C164.548 45.9973 163.507 45.678 162.772 45.0389C162.037 44.4003 161.669 43.4885 161.669 42.3032V36.7157H158.684V33.7602H161.669V30.6436H164.954V33.7602H169.731V36.7157H164.954Z" fill="black"/>
<path d="M171.934 39.9017C171.934 38.6245 172.194 37.493 172.715 36.5076C173.235 35.5228 173.962 34.761 174.897 34.222C175.831 33.6834 176.91 33.4141 178.135 33.4141C179.315 33.4141 180.367 33.6911 181.294 34.2455C182.22 34.8 182.944 35.5771 183.464 36.5773C183.985 37.5781 184.245 38.7168 184.245 39.9945V40.964H175.219C175.265 41.7339 175.555 42.3571 176.092 42.8342C176.628 43.3117 177.332 43.5497 178.205 43.5497C178.817 43.5497 179.383 43.4151 179.904 43.1458C180.425 42.8765 180.991 42.411 181.604 41.7493L183.648 43.8503C182.944 44.6356 182.132 45.2473 181.213 45.6858C180.295 46.1244 179.292 46.3437 178.205 46.3437C176.964 46.3437 175.869 46.0739 174.92 45.5353C173.971 44.9967 173.236 44.2388 172.716 43.2612C172.195 42.284 171.935 41.1641 171.935 39.9017H171.934ZM180.937 38.5624C180.876 37.8854 180.581 37.3237 180.053 36.8769C179.525 36.4307 178.885 36.2075 178.134 36.2075C177.354 36.2075 176.71 36.423 176.206 36.8539C175.7 37.2847 175.386 37.8546 175.264 38.5624H180.936H180.937Z" fill="black"/>
<path d="M186.449 33.7606H189.343V34.8224H189.389C189.65 34.4069 189.982 34.0876 190.388 33.864C190.794 33.6413 191.242 33.5293 191.732 33.5293C192.697 33.5293 193.47 33.9833 194.052 34.8917H194.098C194.71 33.9837 195.553 33.5293 196.624 33.5293C197.512 33.5293 198.232 33.8448 198.784 34.4757C199.335 35.1071 199.611 35.9304 199.611 36.946V45.9968H196.579V37.524C196.579 37.1701 196.487 36.9008 196.303 36.7161C196.12 36.5315 195.859 36.4391 195.522 36.4391C195.201 36.4391 194.944 36.543 194.753 36.7508C194.562 36.9585 194.466 37.2398 194.466 37.5933V45.9978H191.595V37.524C191.595 37.1855 191.506 36.9205 191.331 36.7277C191.155 36.5353 190.905 36.4391 190.584 36.4391C190.247 36.4391 189.979 36.543 189.78 36.7508C189.581 36.9585 189.481 37.2398 189.481 37.5933V45.9978H186.45V33.7606H186.449Z" fill="black"/>
<path d="M76.0434 66.9634L79.029 66.2709C79.2434 67.0413 79.6299 67.6294 80.1891 68.0372C80.7479 68.4455 81.4559 68.6489 82.3136 68.6489C83.0791 68.6489 83.6651 68.5571 84.0707 68.3719C84.4764 68.1872 84.6793 67.9256 84.6793 67.5871C84.6793 67.2024 84.4726 66.9057 84.0593 66.6979C83.6459 66.4897 82.8882 66.2786 81.7855 66.0632C79.9786 65.7246 78.6884 65.2548 77.9154 64.6546C77.1423 64.0545 76.7558 63.2312 76.7558 62.1843C76.7558 61.4452 76.9701 60.7917 77.3987 60.2218C77.8273 59.6525 78.4282 59.21 79.2017 58.8941C79.9748 58.5786 80.8589 58.4209 81.8544 58.4209C83.2168 58.4209 84.4267 58.7599 85.4834 59.4365C86.5397 60.1141 87.252 61.0148 87.6194 62.1382L84.7945 63.0619C84.5649 62.4464 84.1932 61.9689 83.6804 61.6303C83.1671 61.2918 82.5509 61.122 81.8314 61.122C81.2344 61.122 80.7594 61.2187 80.4073 61.4111C80.0547 61.6034 79.8791 61.8693 79.8791 62.2074C79.8791 62.5157 80.0743 62.7657 80.4647 62.9576C80.855 63.1499 81.5631 63.3385 82.5892 63.5236C84.4573 63.8775 85.7934 64.3661 86.5971 64.9898C87.4008 65.6131 87.8031 66.4791 87.8031 67.5871C87.8031 68.3411 87.5768 69.0033 87.1252 69.5727C86.6736 70.1425 86.0302 70.5811 85.1959 70.8884C84.3611 71.1962 83.4005 71.35 82.3132 71.35C80.6594 71.35 79.285 70.9658 78.1904 70.1959C77.0954 69.4265 76.3802 68.3488 76.0434 66.9634Z" fill="black"/>
<path d="M89.8945 66.8474V58.7666H93.1791V66.0857C93.1791 67.5789 93.9139 68.3252 95.384 68.3252C96.0423 68.3252 96.567 68.1213 96.9574 67.7135C97.3478 67.3057 97.5429 66.7633 97.5429 66.0857V58.7666H100.828V71.0033H97.6807V69.9179H97.6348C97.2975 70.3488 96.8345 70.6955 96.2451 70.9571C95.6552 71.2187 95.0391 71.349 94.3961 71.349C92.9567 71.349 91.8468 70.9533 91.0661 70.1603C90.2854 69.3673 89.8945 68.2632 89.8945 66.8465V66.8474Z" fill="black"/>
<path d="M104.524 58.7666H107.671V59.8284H107.717C108.62 58.8897 109.761 58.4199 111.14 58.4199C112.211 58.4199 113.172 58.6897 114.022 59.2278C114.871 59.7669 115.533 60.5248 116.008 61.5019C116.483 62.4796 116.72 63.6068 116.72 64.884C116.72 66.1161 116.483 67.224 116.008 68.2089C115.533 69.1942 114.867 69.9636 114.01 70.5181C113.152 71.0716 112.18 71.3491 111.093 71.3491C110.404 71.3491 109.784 71.2414 109.232 71.0259C108.681 70.811 108.222 70.5181 107.854 70.1488H107.808V76.1979H104.523V58.7662L104.524 58.7666ZM113.436 64.885C113.436 63.8386 113.175 63.0037 112.655 62.38C112.134 61.7568 111.415 61.4452 110.496 61.4452C109.761 61.4452 109.129 61.7034 108.601 62.2185C108.073 62.7344 107.809 63.3615 107.809 64.1002V65.6929C107.809 66.155 107.931 66.5854 108.176 66.9855C108.421 67.3861 108.761 67.7092 109.198 67.9554C109.635 68.2021 110.12 68.3252 110.656 68.3252C111.514 68.3252 112.191 68.0136 112.689 67.3904C113.187 66.7667 113.436 65.9324 113.436 64.885Z" fill="black"/>
<path d="M118.923 58.7666H122.07V59.8284H122.116C123.019 58.8897 124.16 58.4199 125.538 58.4199C126.609 58.4199 127.571 58.6897 128.42 59.2278C129.27 59.7669 129.932 60.5248 130.406 61.5019C130.881 62.4796 131.119 63.6068 131.119 64.884C131.119 66.1161 130.881 67.224 130.406 68.2089C129.932 69.1942 129.266 69.9636 128.408 70.5181C127.551 71.0716 126.578 71.3491 125.491 71.3491C124.802 71.3491 124.182 71.2414 123.631 71.0259C123.08 70.811 122.62 70.5181 122.252 70.1488H122.206V76.1979H118.922V58.7662L118.923 58.7666ZM127.835 64.885C127.835 63.8386 127.574 63.0037 127.053 62.38C126.533 61.7568 125.813 61.4452 124.895 61.4452C124.16 61.4452 123.528 61.7034 123 62.2185C122.471 62.7344 122.207 63.3615 122.207 64.1002V65.6929C122.207 66.155 122.33 66.5854 122.575 66.9855C122.82 67.3861 123.161 67.7092 123.597 67.9554C124.033 68.2021 124.519 68.3252 125.056 68.3252C125.913 68.3252 126.591 68.0136 127.088 67.3904C127.586 66.7667 127.835 65.9324 127.835 64.885H127.835Z" fill="black"/>
<path d="M133.324 64.8855C133.324 63.6236 133.584 62.5041 134.105 61.5265C134.625 60.5493 135.357 59.7871 136.299 59.2408C137.241 58.6945 138.316 58.4209 139.526 58.4209C140.751 58.4209 141.834 58.6945 142.776 59.2408C143.718 59.7871 144.449 60.5493 144.969 61.5265C145.49 62.5041 145.75 63.6236 145.75 64.8855C145.75 66.1473 145.49 67.2678 144.969 68.245C144.449 69.2226 143.718 69.9843 142.776 70.5306C141.834 71.0769 140.751 71.35 139.526 71.35C138.316 71.35 137.241 71.0769 136.299 70.5306C135.357 69.9843 134.625 69.2226 134.105 68.245C133.584 67.2678 133.324 66.1478 133.324 64.8855ZM142.465 64.8855C142.465 63.8088 142.209 62.9658 141.696 62.3574C141.183 61.7496 140.459 61.4457 139.526 61.4457C138.607 61.4457 137.891 61.7496 137.379 62.3574C136.865 62.9658 136.609 63.8088 136.609 64.8855C136.609 65.9622 136.865 66.8061 137.379 67.414C137.891 68.0223 138.607 68.3257 139.526 68.3257C140.444 68.3257 141.164 68.018 141.685 67.402C142.205 66.7869 142.466 65.9478 142.466 64.8855H142.465Z" fill="black"/>
<path d="M148.278 58.7671H151.424V59.8987H151.47C151.991 59.3755 152.531 58.998 153.089 58.7671C153.649 58.5363 154.288 58.4209 155.008 58.4209C156.064 58.4209 156.975 58.7325 157.741 59.3557C158.507 59.979 159.042 60.8297 159.349 61.9073L156.271 62.9235C155.918 61.9227 155.191 61.4226 154.088 61.4226C153.261 61.4226 152.634 61.665 152.205 62.1497C151.776 62.6344 151.561 63.3005 151.561 64.1468V71.0043H148.277V58.7676L148.278 58.7671Z" fill="black"/>
<path d="M167.251 61.7221V66.6401C167.251 67.0556 167.346 67.3557 167.538 67.5403C167.729 67.7255 168.047 67.8173 168.491 67.8173H171.271V71.0037H168.193C166.845 71.0037 165.804 70.6844 165.069 70.0458C164.334 69.4071 163.966 68.4949 163.966 67.31V61.7226H160.98V58.767H163.966V55.6504H167.251V58.767H172.028V61.7226H167.251V61.7221Z" fill="black"/>
<path d="M76.1836 83.7735H79.3304V84.8358H79.3763C80.2795 83.8971 81.4205 83.4268 82.7987 83.4268C83.8703 83.4268 84.8314 83.6965 85.681 84.2351C86.5311 84.7742 87.1931 85.5321 87.6677 86.5093C88.1423 87.4869 88.3795 88.6141 88.3795 89.8913C88.3795 91.1234 88.1418 92.2313 87.6677 93.2162C87.1927 94.2015 86.5268 94.9709 85.6695 95.5254C84.8117 96.0789 83.8397 96.3564 82.7528 96.3564C82.0639 96.3564 81.4434 96.2487 80.8923 96.0332C80.3412 95.8183 79.882 95.5254 79.5141 95.1561H79.4682V101.205H76.1836V83.7735ZM85.0949 89.8918C85.0949 88.8454 84.8347 88.0106 84.3142 87.3869C83.7937 86.7636 83.0738 86.452 82.1553 86.452C81.4205 86.452 80.789 86.7098 80.2604 87.2253C79.7323 87.7413 79.4682 88.3684 79.4682 89.107V90.6997C79.4682 91.1618 79.5906 91.5922 79.8356 91.9923C80.0805 92.3929 80.4211 92.7161 80.8574 92.9623C81.2942 93.209 81.7797 93.3321 82.316 93.3321C83.1733 93.3321 83.8507 93.0205 84.3487 92.3972C84.8462 91.7735 85.0949 90.9392 85.0949 89.8918Z" fill="black"/>
<path d="M90.6758 83.7735H93.8226V84.905H93.8685C94.389 84.3818 94.9286 84.0048 95.4879 83.7735C96.0466 83.5427 96.6857 83.4268 97.4057 83.4268C98.462 83.4268 99.3733 83.7384 100.139 84.3621C100.905 84.9853 101.44 85.8355 101.747 86.9132L98.6686 87.9293C98.3166 86.9286 97.5894 86.4285 96.4867 86.4285C95.6596 86.4285 95.032 86.6708 94.6033 87.156C94.1747 87.6408 93.9604 88.3068 93.9604 89.1527V96.0102H90.6758V83.7735Z" fill="black"/>
<path d="M103.145 89.8913C103.145 88.6295 103.405 87.51 103.925 86.5323C104.446 85.5552 105.177 84.7934 106.119 84.2467C107.06 83.7004 108.136 83.4268 109.346 83.4268C110.571 83.4268 111.654 83.7004 112.596 84.2467C113.538 84.7934 114.268 85.5552 114.789 86.5323C115.309 87.51 115.57 88.6295 115.57 89.8913C115.57 91.1532 115.309 92.2737 114.789 93.2508C114.268 94.2285 113.538 94.9902 112.596 95.5365C111.654 96.0828 110.571 96.3559 109.346 96.3559C108.136 96.3559 107.061 96.0828 106.119 95.5365C105.177 94.9902 104.445 94.2285 103.925 93.2508C103.405 92.2737 103.145 91.1537 103.145 89.8913ZM112.286 89.8913C112.286 88.8146 112.029 87.9716 111.516 87.3633C111.003 86.7555 110.28 86.4515 109.346 86.4515C108.428 86.4515 107.712 86.7559 107.199 87.3633C106.686 87.9716 106.43 88.8146 106.43 89.8913C106.43 90.968 106.686 91.812 107.199 92.4198C107.712 93.0282 108.428 93.3316 109.346 93.3316C110.265 93.3316 110.985 93.0238 111.505 92.4078C112.026 91.7928 112.286 90.9536 112.286 89.8913H112.286Z" fill="black"/>
<path d="M118.441 98.7344L120.945 96.8185C121.404 97.4802 121.867 97.9457 122.334 98.215C122.801 98.4843 123.379 98.6194 124.068 98.6194C124.926 98.6194 125.607 98.3804 126.112 97.9034C126.617 97.4264 126.87 96.7647 126.87 95.9178V95.0407H126.824C126.379 95.5023 125.909 95.837 125.412 96.0453C124.914 96.253 124.312 96.3564 123.608 96.3564C122.506 96.3564 121.53 96.0832 120.68 95.537C119.83 94.9907 119.172 94.2289 118.705 93.2513C118.237 92.2741 118.004 91.1541 118.004 89.8918C118.004 88.6454 118.245 87.5335 118.728 86.5554C119.21 85.5783 119.876 84.8122 120.726 84.2582C121.576 83.7042 122.544 83.4268 123.631 83.4268C124.32 83.4268 124.91 83.5273 125.4 83.7273C125.89 83.9274 126.342 84.2351 126.755 84.6506H126.801V83.7735H129.971V96.0563C129.971 97.1335 129.721 98.0885 129.224 98.9195C128.726 99.751 128.033 100.397 127.145 100.858C126.257 101.321 125.231 101.551 124.067 101.551C121.678 101.551 119.803 100.612 118.44 98.7344H118.441ZM126.687 90.6766V89.0839C126.687 88.2837 126.441 87.6446 125.952 87.1676C125.462 86.691 124.834 86.452 124.068 86.452C123.21 86.452 122.533 86.7603 122.035 87.3758C121.538 87.9913 121.289 88.83 121.289 89.8918C121.289 90.9238 121.541 91.7548 122.047 92.3857C122.552 93.0171 123.218 93.3326 124.045 93.3326C124.505 93.3326 124.937 93.2133 125.343 92.9748C125.748 92.7363 126.074 92.4131 126.319 92.0048C126.564 91.597 126.687 91.1537 126.687 90.6766Z" fill="black"/>
<path d="M133.418 83.7735H136.565V84.905H136.611C137.131 84.3818 137.671 84.0048 138.23 83.7735C138.789 83.5427 139.428 83.4268 140.148 83.4268C141.205 83.4268 142.115 83.7384 142.881 84.3621C143.647 84.9853 144.183 85.8355 144.489 86.9132L141.411 87.9293C141.059 86.9286 140.332 86.4285 139.229 86.4285C138.402 86.4285 137.774 86.6708 137.346 87.156C136.917 87.6408 136.702 88.3068 136.702 89.1527V96.0102H133.418L133.418 83.7735Z" fill="black"/>
<path d="M146.189 92.7315C146.189 91.5922 146.576 90.7074 147.349 90.0765C148.122 89.4455 149.412 88.9839 151.219 88.691C152.168 88.5376 152.816 88.364 153.161 88.1717C153.505 87.9793 153.677 87.7211 153.677 87.3984C153.677 87.0286 153.508 86.7367 153.172 86.5208C152.835 86.3058 152.376 86.1976 151.794 86.1976C151.135 86.1976 150.565 86.3982 150.083 86.7978C149.6 87.1984 149.29 87.7297 149.153 88.391L146.098 87.6985C146.25 86.867 146.595 86.1284 147.131 85.4821C147.667 84.8358 148.34 84.3313 149.153 83.9697C149.964 83.6081 150.844 83.4268 151.794 83.4268C153.356 83.4268 154.603 83.8658 155.537 84.7429C156.471 85.6201 156.938 86.7901 156.938 88.2525V96.0101H153.998V94.6478H153.952C153.6 95.1869 153.106 95.6062 152.471 95.9063C151.835 96.2064 151.119 96.3564 150.323 96.3564C149.527 96.3564 148.815 96.2025 148.187 95.8947C147.559 95.587 147.069 95.1561 146.717 94.6021C146.365 94.0481 146.189 93.4244 146.189 92.7315ZM153.814 91.4614V90.076H153.769C153.631 90.3063 153.401 90.4915 153.08 90.63C152.758 90.7685 152.253 90.907 151.564 91.0455C150.706 91.2301 150.117 91.4263 149.795 91.6341C149.474 91.8423 149.313 92.1303 149.313 92.5002C149.313 92.8541 149.454 93.1234 149.738 93.3085C150.021 93.4932 150.43 93.5855 150.967 93.5855C151.456 93.5855 151.923 93.4893 152.368 93.2965C152.812 93.1046 153.163 92.843 153.424 92.5117C153.684 92.1808 153.814 91.8308 153.814 91.4614Z" fill="black"/>
<path d="M159.945 83.7728H162.839V84.8351H162.885C163.146 84.4196 163.478 84.1003 163.884 83.8767C164.29 83.6536 164.738 83.542 165.228 83.542C166.193 83.542 166.966 83.996 167.548 84.9043H167.594C168.207 83.996 169.049 83.542 170.121 83.542C171.008 83.542 171.728 83.8575 172.28 84.4889C172.832 85.1203 173.107 85.9431 173.107 86.9597V96.01H170.075V87.5367C170.075 87.1828 169.983 86.913 169.8 86.7284C169.616 86.5437 169.355 86.4514 169.018 86.4514C168.697 86.4514 168.44 86.5552 168.249 86.763C168.058 86.9707 167.962 87.252 167.962 87.6055V96.01H165.091V87.5367C165.091 87.1982 165.002 86.9327 164.827 86.7404C164.651 86.548 164.401 86.4514 164.08 86.4514C163.743 86.4514 163.475 86.5552 163.276 86.763C163.077 86.9707 162.977 87.252 162.977 87.6055V96.01H159.946V83.7733L159.945 83.7728Z" fill="black"/>
</g>
<defs>
<linearGradient id="paint0_linear_789_367" x1="19.5801" y1="70.1022" x2="47.1577" y2="97.5362" gradientUnits="userSpaceOnUse">
<stop stop-color="#F47D51"/>
<stop offset="0.96" stop-color="#DF72AC"/>
</linearGradient>
<linearGradient id="paint1_linear_789_367" x1="46.9471" y1="79.2804" x2="56.1886" y2="88.4739" gradientUnits="userSpaceOnUse">
<stop stop-color="#F15D4C"/>
<stop offset="1" stop-color="#C36CA1"/>
</linearGradient>
<linearGradient id="paint2_linear_789_367" x1="38.0606" y1="56.5579" x2="53.7869" y2="72.2023" gradientUnits="userSpaceOnUse">
<stop stop-color="#B46947"/>
<stop offset="0.896" stop-color="#AE5262"/>
</linearGradient>
<linearGradient id="paint3_linear_789_367" x1="53.5646" y1="26" x2="53.5646" y2="64.9788" gradientUnits="userSpaceOnUse">
<stop stop-color="#FFD663"/>
<stop offset="1" stop-color="#F26C7D"/>
</linearGradient>
<linearGradient id="paint4_linear_789_367" x1="27.1668" y1="41.3682" x2="40.2622" y2="54.3954" gradientUnits="userSpaceOnUse">
<stop stop-color="#FFF171"/>
<stop offset="1" stop-color="#FAB382"/>
</linearGradient>
<linearGradient id="paint5_linear_789_367" x1="28.8527" y1="56.1587" x2="47.2146" y2="74.4251" gradientUnits="userSpaceOnUse">
<stop stop-color="#D48A3D"/>
<stop offset="0.795" stop-color="#DB474E"/>
</linearGradient>
</defs>
</svg>
