<svg width="220" height="50" viewBox="0 0 220 50" fill="none" xmlns="http://www.w3.org/2000/svg">
<g opacity="0.64">
<mask id="mask0_1532_365" style="mask-type:luminance" maskUnits="userSpaceOnUse" x="10" y="14" width="200" height="22">
<path d="M210 14H10V35.1982H210V14Z" fill="white"/>
</mask>
<g mask="url(#mask0_1532_365)">
<path d="M121.758 24.478V24.5024C121.758 30.2666 126.429 34.9401 132.191 34.9401H136.599V32.2327H132.262C127.933 32.2327 124.433 28.6756 124.527 24.3229C124.617 20.0914 128.173 16.752 132.404 16.752H136.599V14.0701H132.162C126.416 14.0701 121.758 18.7297 121.758 24.478ZM200.326 14.0701H190.603V34.939H193.285V23.7834C193.285 19.9002 196.431 16.752 200.312 16.752C204.194 16.752 207.341 19.9002 207.341 23.7834V34.9401H209.999V23.7472C210 18.4026 205.669 14.0701 200.326 14.0701ZM151.795 21.0653C151.795 21.6421 151.592 22.1285 151.184 22.5258C150.777 22.9241 150.295 23.1216 149.739 23.1216H143.542C142.966 23.1216 142.479 22.923 142.081 22.5258C141.683 22.1285 141.485 21.6421 141.485 21.0653V14.0701H138.803V34.939H141.485V27.8035C141.485 27.2268 141.683 26.7403 142.081 26.3431C142.478 25.9459 142.965 25.7472 143.542 25.7472H149.739C150.295 25.7472 150.778 25.9459 151.184 26.3431C151.592 26.7414 151.795 27.2279 151.795 27.8035V34.939H154.447V14.0701H151.795V21.0653ZM177.198 14.0701V34.9401H188.4V14.0701H177.198ZM182.798 23.9799C180.8 23.9799 179.179 22.358 179.179 20.3558C179.179 18.3548 180.799 16.7318 182.798 16.7318C184.798 16.7318 186.418 18.3537 186.418 20.3558C186.418 22.358 184.798 23.9799 182.798 23.9799ZM167.381 15.18C167.026 14.3941 166.526 14 165.878 14C165.229 14 164.728 14.3941 164.374 15.18L155.443 34.939H176.225L167.381 15.18ZM165.878 31.5125C163.879 31.5125 162.258 29.8906 162.258 27.8885C162.258 25.8875 163.878 24.2645 165.878 24.2645C167.876 24.2645 169.497 25.8864 169.497 27.8885C169.497 29.8896 167.876 31.5125 165.878 31.5125ZM43.933 35.1695C47.0929 35.1695 50.1945 34.1052 52.0625 32.6671V23.4913H43.5023V27.4605H47.4663V29.8768C46.2889 30.5099 45.1974 30.768 43.933 30.768C40.457 30.768 38.4182 28.0648 38.4182 24.7563C38.4182 20.9591 40.8314 18.7446 43.7325 18.7446C45.9155 18.7446 47.5236 19.6941 48.6162 20.7584L52.0052 17.8832C49.9081 15.4668 46.6909 14.2305 43.7325 14.2305C37.2122 14.2305 33.3914 18.8327 33.3914 24.7573C33.3914 31.401 38.0448 35.1695 43.933 35.1695ZM55.0294 34.939H59.5099V27.863C59.5099 25.6771 60.5442 24.6129 62.095 24.6129C63.5598 24.6129 64.3352 25.2746 64.3352 27.6039V34.9379H68.8158V26.512C68.8158 22.0542 66.6901 20.6161 63.789 20.6161C62.1512 20.6161 60.6577 21.2491 59.5662 22.5141H59.5089V20.8742H55.0283V34.939H55.0294ZM78.6711 20.615C74.1322 20.615 71.0593 23.6347 71.0593 27.9204C71.0593 32.1774 74.1322 35.1971 78.6711 35.1971C83.0944 35.1971 86.2554 32.2348 86.2554 27.9204C86.2543 23.5784 83.0944 20.615 78.6711 20.615ZM78.6711 31.2289C76.8901 31.2289 75.5982 29.7908 75.5982 27.9214C75.5982 25.9947 76.8626 24.6139 78.6711 24.6139C80.4235 24.6139 81.7165 25.9661 81.7165 27.9214C81.7165 29.8482 80.3662 31.2289 78.6711 31.2289ZM93.2881 35.1982C97.1364 35.1982 99.0044 33.3001 99.0044 30.6819C99.0044 27.9204 97.3093 27.1153 94.2077 26.051C92.8001 25.5624 92.2825 25.2459 92.2825 24.8147C92.2825 24.2688 92.8861 24.0383 93.4037 24.0383C94.3509 24.0383 95.557 24.5269 96.5339 25.5051L98.6597 22.3696C97.0219 21.162 95.47 20.615 93.3454 20.615C90.4156 20.615 88.0883 22.2549 88.0883 25.1015C88.0883 27.8057 90.1568 28.956 92.5127 29.675C94.264 30.222 94.6946 30.5088 94.6946 30.9698C94.6946 31.487 94.2353 31.8036 93.3454 31.8036C92.0523 31.8036 90.8463 31.2863 89.6688 30.222L87.5718 33.127C89.1226 34.5078 91.0764 35.1982 93.2881 35.1982ZM103.698 19.1195C105.25 19.1195 106.399 17.9979 106.399 16.5311C106.399 15.1216 105.25 14 103.698 14C102.147 14 101.027 15.1503 101.027 16.5311C101.027 17.9979 102.147 19.1195 103.698 19.1195ZM101.458 34.939H105.938V20.8742H101.458V34.939ZM113.822 35.1982C117.671 35.1982 119.538 33.3001 119.538 30.6819C119.538 27.9204 117.844 27.1153 114.742 26.051C113.335 25.5624 112.817 25.2459 112.817 24.8147C112.817 24.2688 113.42 24.0383 113.937 24.0383C114.886 24.0383 116.092 24.5269 117.068 25.5051L119.193 22.3696C117.556 21.162 116.005 20.615 113.879 20.615C110.949 20.615 108.623 22.2549 108.623 25.1015C108.623 27.8057 110.692 28.956 113.046 29.675C114.799 30.222 115.229 30.5088 115.229 30.9698C115.229 31.487 114.77 31.8036 113.879 31.8036C112.586 31.8036 111.38 31.2863 110.203 30.222L108.106 33.127C109.657 34.5078 111.61 35.1982 113.822 35.1982ZM13.4856 23.3128C13.4856 22.6724 13.6967 22.0882 14.0605 21.6251L17.9184 25.487C17.4485 25.8524 16.8651 26.0627 16.2329 26.0627C14.7086 26.0638 13.4771 24.8306 13.4856 23.3128ZM24.9617 26.0553C26.4775 26.0638 27.709 24.8306 27.709 23.3054C27.709 22.6724 27.4979 22.0882 27.1341 21.6177L23.2762 25.4796C23.7376 25.8439 24.321 26.0553 24.9617 26.0553ZM27.9445 20.8232C28.512 21.5051 28.8525 22.3643 28.8525 23.3213C28.8525 25.4711 27.1097 27.2151 24.9617 27.2151C24.0134 27.2151 23.1468 26.8742 22.4658 26.307L20.5936 28.1806L18.7214 26.307C18.0404 26.8752 17.1812 27.2151 16.2255 27.2151C14.0775 27.2151 12.3347 25.4711 12.3347 23.3213C12.3347 22.3718 12.6752 21.504 13.2427 20.8232L12.3676 19.9469L11.5328 19.111C10.559 20.717 10 22.5916 10 24.6033C10 30.461 14.7415 35.1982 20.5851 35.1982C26.4287 35.1982 31.1702 30.4525 31.1702 24.6033C31.1861 22.5831 30.6271 20.7095 29.6544 19.111L27.9445 20.8232ZM28.2521 17.2852C26.3311 15.2661 23.6082 14 20.5925 14C17.5779 14 14.8624 15.2661 12.934 17.2852C12.6752 17.5613 12.4238 17.8534 12.1883 18.153L20.5851 26.5577L28.9819 18.1455C28.7708 17.8534 28.5194 17.5529 28.2521 17.2852ZM20.5925 24.5948L14.0849 18.0807C15.8192 16.3367 18.1125 15.3787 20.5925 15.3787C23.0725 15.3787 25.3743 16.3356 27.1002 18.0797L20.5925 24.5948Z" fill="black"/>
</g>
</g>
</svg>
