<svg width="40" height="40" viewBox="0 0 40 40" fill="none" xmlns="http://www.w3.org/2000/svg">
<g clip-path="url(#clip0_2132_428)">
<mask id="mask0_2132_428" style="mask-type:luminance" maskUnits="userSpaceOnUse" x="0" y="0" width="40" height="40">
<path d="M40 0H0V40H40V0Z" fill="white"/>
</mask>
<g mask="url(#mask0_2132_428)">
<path d="M31.0293 33.2419H8.30469V19.5078H31.0079L31.0293 33.2419ZM19.6419 20.6096C17.7023 20.6116 15.7932 21.0828 14.0841 21.9814C12.375 22.88 10.9187 24.1782 9.84449 25.7608C9.70238 25.9215 9.62416 26.1271 9.62416 26.3397C9.62416 26.5524 9.70238 26.758 9.84449 26.9187C10.9256 28.494 12.3846 29.7852 14.0937 30.6791C15.8027 31.573 17.7095 32.0423 19.6468 32.0458C21.584 32.0492 23.4926 31.5868 25.2049 30.699C26.9173 29.8112 28.3811 28.5252 29.468 26.9538C29.6231 26.784 29.7088 26.5641 29.7088 26.3362C29.7088 26.1084 29.6231 25.8885 29.468 25.7186C28.3841 24.1425 26.9205 22.8525 25.2066 21.9626C23.4928 21.0727 21.5815 20.6104 19.6419 20.6166V20.6096Z" fill="#565553"/>
<path d="M19.7068 18.2232C17.7796 18.2194 15.8821 17.7577 14.1769 16.8776C12.4718 15.9976 11.0099 14.7254 9.91659 13.1703C9.7343 12.9803 9.63281 12.7293 9.63281 12.4685C9.63281 12.2077 9.7343 11.9567 9.91659 11.7667C11.0093 10.2143 12.4721 8.94674 14.1782 8.07405C15.8842 7.20136 17.7819 6.74993 19.7063 6.75892C21.6308 6.76791 23.524 7.23706 25.2215 8.12564C26.9189 9.01423 28.3694 10.2954 29.447 11.8579C29.6015 12.0266 29.6869 12.2453 29.6869 12.472C29.6869 12.6987 29.6015 12.9173 29.447 13.086C28.3707 14.6525 26.9216 15.9388 25.2246 16.8338C23.5277 17.7288 21.6339 18.2057 19.7068 18.2232ZM23.9467 12.5386C23.9666 11.7019 23.7316 10.8784 23.2717 10.1731C22.8118 9.46783 22.1479 8.91288 21.3646 8.57906C20.5814 8.24524 19.7144 8.1477 18.8744 8.29891C18.0343 8.45012 17.2593 8.84321 16.6482 9.42799C16.0372 10.0128 15.6179 10.7627 15.4438 11.5821C15.2697 12.4015 15.3488 13.2531 15.6708 14.0283C15.9929 14.8034 16.5434 15.4669 17.2521 15.9341C17.9608 16.4013 18.7954 16.6509 19.6495 16.6512C20.772 16.6515 21.8501 16.2213 22.6532 15.4528C23.4562 14.6842 23.9205 13.6383 23.9467 12.5386Z" fill="#565553"/>
<path d="M19.6617 30.4837C18.8288 30.4699 18.0188 30.2151 17.3332 29.7515C16.6477 29.2879 16.1172 28.6361 15.8086 27.878C15.5 27.1199 15.4268 26.2893 15.5985 25.4906C15.7701 24.6919 16.1788 23.9607 16.7732 23.3889C17.3676 22.8171 18.1212 22.4303 18.9393 22.2769C19.7575 22.1235 20.6036 22.2105 21.3714 22.5269C22.1392 22.8434 22.7945 23.3751 23.2548 24.0553C23.7152 24.7355 23.9601 25.5339 23.9588 26.3501C23.957 26.899 23.844 27.442 23.6264 27.9477C23.4088 28.4535 23.091 28.9119 22.6913 29.2964C22.2916 29.6809 21.818 29.9838 21.2979 30.1876C20.7779 30.3914 20.2217 30.4921 19.6617 30.4837Z" fill="#565553"/>
</g>
</g>
<defs>
<clipPath id="clip0_2132_428">
<rect width="40" height="40" fill="white"/>
</clipPath>
</defs>
</svg>
