<svg width="1004" height="418" viewBox="0 0 1004 418" fill="none" xmlns="http://www.w3.org/2000/svg">
<path d="M296.069 251.997V163.462H325.656V142.102H244.176V163.462H273.453V251.997H296.069ZM358.961 251.997V214.231C358.961 199.372 366.396 192.252 376.155 192.252C384.985 192.252 389.787 199.062 389.787 210.206V251.997H411.009V206.646C411.009 186.525 399.856 172.904 381.112 172.904C371.043 172.904 362.988 177.238 358.961 183.429V135.911H337.739V251.997H358.961ZM466.155 253.7C485.828 253.7 501.164 242.401 505.811 226.768H483.659C481.181 232.031 474.675 235.281 467.239 235.281C454.072 235.281 447.257 227.387 446.327 218.255H506.74C507.825 189.156 489.081 172.904 466.31 172.904C442.764 172.904 425.57 190.085 425.57 213.147C425.57 236.674 442.455 253.7 466.155 253.7ZM483.504 204.325H447.102C449.115 195.812 455.931 190.085 465.69 190.085C472.971 190.085 480.871 193.954 483.504 204.325ZM611.146 253.855C643.831 253.855 670.32 231.412 665.363 186.215H608.513V207.266H642.127C639.649 222.434 628.96 232.185 611.146 232.185C589.769 232.185 575.828 216.707 575.828 197.05C575.828 177.393 589.769 161.914 610.836 161.914C621.37 161.914 631.594 166.558 637.015 174.607H662.73C655.294 153.866 633.917 140.245 610.836 140.245C577.532 140.245 553.212 165.165 553.212 197.05C553.212 228.935 577.532 253.855 611.146 253.855ZM702.385 251.997V215.005C702.385 202.313 709.046 194.419 719.115 194.419C722.523 194.419 725.466 195.038 728.719 196.121V174.607C726.086 173.833 723.762 173.678 721.594 173.678C712.919 173.678 705.019 179.405 702.385 186.989V174.607H681.163V251.997H702.385ZM771.009 253.7C781.697 253.7 789.907 248.283 793.315 243.33V251.997H814.537V174.607H793.315V183.274C789.907 178.321 781.697 172.904 771.009 172.904C750.406 172.904 734.606 191.323 734.606 213.302C734.606 235.281 750.406 253.7 771.009 253.7ZM775.501 234.352C763.883 234.352 755.983 225.375 755.983 213.302C755.983 201.229 763.883 192.252 775.501 192.252C787.119 192.252 795.019 201.229 795.019 213.302C795.019 225.375 787.119 234.352 775.501 234.352ZM856.361 284.347V243.33C859.924 248.283 868.134 253.7 878.823 253.7C899.425 253.7 915.225 235.281 915.225 213.302C915.225 191.323 899.425 172.904 878.823 172.904C868.134 172.904 859.924 178.321 856.361 183.274V174.607H835.139V284.347H856.361ZM874.175 234.352C862.557 234.352 854.657 225.375 854.657 213.302C854.657 201.229 862.557 192.252 874.175 192.252C885.793 192.252 893.693 201.229 893.693 213.302C893.693 225.375 885.793 234.352 874.175 234.352ZM951.938 251.997V214.231C951.938 199.372 959.373 192.252 969.132 192.252C977.962 192.252 982.764 199.062 982.764 210.206V251.997H1003.99V206.646C1003.99 186.525 992.833 172.904 974.089 172.904C964.02 172.904 955.965 177.238 951.938 183.429V135.911H930.716V251.997H951.938Z" fill="#5C5C5C"/>
<path fill-rule="evenodd" clip-rule="evenodd" d="M157.422 253.041C162.345 257.939 162.653 265.688 158.345 270.942L157.422 271.958L103.634 325.464C98.3821 330.688 89.8692 330.688 84.6176 325.464C79.6943 320.567 79.3866 312.818 83.6945 307.564L84.6176 306.548L138.406 253.041C143.657 247.817 152.17 247.817 157.422 253.041ZM80.6798 88.6104C125.238 88.6104 161.36 124.543 161.36 168.867C161.36 213.192 125.238 249.124 80.6798 249.124C36.1217 249.124 0 213.192 0 168.867C0 124.543 36.1217 88.6104 80.6798 88.6104ZM80.6798 115.363C50.975 115.363 26.8933 139.317 26.8933 168.867C26.8933 198.418 50.975 222.372 80.6798 222.372C110.386 222.372 134.466 198.418 134.466 168.867C134.466 139.317 110.386 115.363 80.6798 115.363ZM174.808 88.6104C182.234 88.6104 188.253 94.598 188.253 101.987C188.253 109.375 182.234 115.363 174.808 115.363C167.38 115.363 161.361 109.375 161.361 101.987C161.361 94.598 167.38 88.6104 174.808 88.6104Z" fill="#5C5C5C"/>
</svg>
