<svg width="220" height="132" viewBox="0 0 220 132" fill="none" xmlns="http://www.w3.org/2000/svg">
<g opacity="0.64">
<path d="M135.411 87.9994C132.144 87.9994 129.259 87.4151 126.758 86.2466C124.256 85.0781 122.3 83.4059 120.888 81.2302C119.476 79.0544 118.77 76.4354 118.77 73.3732V73.0725C118.77 72.304 119.393 71.6809 120.163 71.6809H125.243C126.013 71.6809 126.637 72.304 126.637 73.0725V73.3732C126.637 75.9116 127.423 77.8255 128.997 79.1148C130.57 80.3639 132.708 80.9885 135.411 80.9885C138.155 80.9885 140.192 80.4445 141.524 79.3565C142.895 78.2687 143.581 76.8786 143.581 75.1863C143.581 74.0178 143.238 73.071 142.552 72.3457C141.907 71.6204 140.939 71.0362 139.648 70.593C138.397 70.1094 136.864 69.6662 135.048 69.2633L133.657 68.9611C130.752 68.3164 128.25 67.5106 126.152 66.5436C124.095 65.5363 122.501 64.2268 121.372 62.6151C120.282 61.0034 119.738 58.9082 119.738 56.3295C119.738 53.7508 120.343 51.5548 121.553 49.7417C122.804 47.8882 124.539 46.478 126.758 45.511C129.017 44.5037 131.659 44 134.685 44C137.711 44 140.394 44.5238 142.734 45.5714C145.114 46.5787 146.97 48.1098 148.301 50.1647C149.673 52.1794 150.359 54.7177 150.359 57.78V58.2015C150.359 58.9701 149.735 59.5932 148.966 59.5932H143.885C143.116 59.5932 142.492 58.9701 142.492 58.2015V57.78C142.492 56.1683 142.169 54.8789 141.524 53.9119C140.918 52.9046 140.031 52.1794 138.861 51.7361C137.691 51.2526 136.299 51.0109 134.685 51.0109C132.265 51.0109 130.469 51.4742 129.299 52.401C128.17 53.2874 127.605 54.5163 127.605 56.0877C127.605 57.1353 127.867 58.0217 128.392 58.747C128.956 59.4723 129.784 60.0766 130.873 60.5602C131.962 61.0437 133.354 61.4667 135.048 61.8294L136.44 62.1316C139.466 62.7762 142.089 63.6023 144.307 64.6096C146.567 65.6168 148.322 66.9466 149.572 68.5986C150.823 70.2505 151.448 72.3658 151.448 74.9446C151.448 77.5233 150.783 79.7999 149.451 81.7741C148.16 83.7081 146.304 85.2393 143.884 86.3675C141.503 87.4553 138.679 87.9994 135.411 87.9994Z" fill="#0A0B0D"/>
<path d="M158.8 52.0932C158.03 52.0947 157.406 52.7178 157.406 53.4864V85.76C157.406 86.5287 158.03 87.1517 158.8 87.1517H183.608C184.378 87.1517 185.002 86.5287 185.002 85.76V81.2908C185.002 80.5222 184.378 79.8992 183.608 79.8992H165.394V69.4433H181.551C182.32 69.4433 182.944 68.8202 182.944 68.0515V63.5823C182.944 62.8137 182.32 62.1906 181.551 62.1906H165.394V53.2321C165.474 52.6494 165.954 52.1865 166.565 52.0974H183.245C184.015 52.0974 184.639 51.4743 184.639 50.7057V46.2364C184.639 45.4678 184.015 44.8447 183.245 44.8447H166.783C166.015 44.8447 165.391 45.4665 165.39 46.2343L165.383 50.7602C165.383 51.4909 164.758 52.0818 163.985 52.0818C162.254 52.0818 160.528 52.0898 158.8 52.0932Z" fill="#0A0B0D"/>
<path fill-rule="evenodd" clip-rule="evenodd" d="M92.1701 70.4416C92.0723 71.1358 91.4447 71.6703 90.6832 71.6703H85.6838C85.6273 71.6703 85.5715 71.6732 85.5166 71.6789C84.7751 71.7106 84.1836 72.3209 84.1836 73.0693V85.76C84.1836 86.5287 84.8075 87.1517 85.5771 87.1517H90.7783C91.5479 87.1517 92.1718 86.5287 92.1718 85.76V85.5563C92.1794 85.4981 92.1834 85.4388 92.1834 85.3787V73.0886C92.1834 72.3641 92.8249 71.6795 93.5652 71.6795H101.612C104.194 71.6795 106.494 71.1557 108.511 70.108C110.569 69.0201 112.182 67.5092 113.352 65.5752C114.563 63.6009 115.168 61.3042 115.168 58.6852V57.839C115.168 55.1797 114.583 52.8831 113.413 50.949C112.283 49.015 110.69 47.5242 108.632 46.4766C106.615 45.3887 104.275 44.8447 101.612 44.8447H85.5772C84.8076 44.8447 84.1837 45.4679 84.1837 46.2366L84.1854 63.0353C84.1855 63.8038 84.8094 64.4268 85.5789 64.4268C86.4558 64.4268 87.3325 64.4282 88.2095 64.4296H88.2112C89.0893 64.4309 89.9677 64.4322 90.8468 64.4322C91.5785 64.4322 92.1701 65.0564 92.1701 65.8284V67.386V70.4416ZM92.1718 52.0974V63.1063C92.2044 63.8043 92.7213 64.3663 93.376 64.4268H100.826C102.722 64.4268 104.255 63.9031 105.425 62.8555C106.595 61.8079 107.18 60.3774 107.18 58.5642V57.96C107.18 56.1468 106.595 54.7163 105.425 53.6688C104.255 52.6212 102.722 52.0974 100.826 52.0974H92.1718Z" fill="#0A0B0D"/>
<g clip-path="url(#clip0_1620_373)">
<path d="M75.6289 68.7508C75.6289 69.5493 75.1047 70.2124 74.4124 70.3657C74.3136 70.387 74.2113 70.3978 74.1058 70.3978H69.0194C68.1756 70.3978 67.4932 71.1357 67.4932 72.0482V77.5486C67.4932 78.1189 67.2262 78.618 66.8207 78.9174C66.6592 79.0351 66.4745 79.1206 66.2767 79.1669C66.1779 79.1884 66.0757 79.199 65.9702 79.199H60.8837C60.0399 79.199 59.3575 79.9369 59.3575 80.8495V86.3499C59.3575 87.2624 58.6752 88.0003 57.8313 88.0003H52.7448C51.901 88.0003 51.2186 87.2624 51.2186 86.3499V80.8495C51.2186 79.9369 51.901 79.199 52.7448 79.199H57.8313C58.6752 79.199 59.3575 78.4612 59.3575 77.5486V72.0482C59.3575 71.1357 60.0399 70.3978 60.8837 70.3978H65.9702C66.8141 70.3978 67.4965 69.6599 67.4965 68.7473V61.5964C67.4965 56.7484 63.8704 52.813 59.3872 52.7987C54.9073 52.8165 51.2779 56.7484 51.2779 61.5964V68.7473C51.2779 69.6599 50.5955 70.3978 49.7517 70.3978H44.6652C43.8213 70.3978 43.139 71.1357 43.139 72.0482V86.3499C43.139 87.2624 42.4566 88.0003 41.6127 88.0003H36.5263C35.6824 88.0003 35 87.2624 35 86.3499V72.0482C35 71.1357 35.6824 70.3978 36.5263 70.3978H41.6127C42.4566 70.3978 43.139 69.6599 43.139 68.7473V61.5643C43.139 51.8648 50.4109 44.001 59.3839 44.001C68.3569 44.001 75.6289 51.8648 75.6289 61.5679V68.7508Z" fill="#0A0B0D"/>
</g>
</g>
<defs>
<clipPath id="clip0_1620_373">
<rect width="41.1872" height="43.9994" fill="white" transform="translate(35 44.001)"/>
</clipPath>
</defs>
</svg>
