<?xml version="1.0" encoding="utf-8"?>
<!-- Generator: Adobe Illustrator 27.8.1, SVG Export Plug-In . SVG Version: 6.00 Build 0)  -->
<svg version="1.1" id="Layer_1" xmlns="http://www.w3.org/2000/svg" xmlns:xlink="http://www.w3.org/1999/xlink" x="0px" y="0px"
	 viewBox="0 0 1714.3 536.4" style="enable-background:new 0 0 1714.3 536.4;" xml:space="preserve">
<style type="text/css">
	.st0{fill:#737373;}
	.st1{fill:#B3B3B3;}
	.st2{enable-background:new    ;}
	.st3{fill:#231F20;}
</style>
<path class="st0" d="M312.7,293.3l121.1-120.8c9.1-9,14.2-21.4,14.2-34.2l0.2-97.6c0-5-1.9-9.8-5.4-13.4L210.5,259.2
	c-18.9,18.7-19,49.2-0.3,68c0.1,0.1,0.2,0.2,0.3,0.3l163.8,163.3c18.9,18.8,49.5,18.7,68.2-0.2c18.8-18.9,18.7-49.5-0.2-68.2l0,0
	L312.7,293.3z"/>
<path class="st1" d="M429.3,22.2h-365C34.8,22.2,13,44.5,13,74.9v380.8c-0.4,26.7,21.1,48.7,47.8,49.1c0.4,0,0.9,0,1.2,0l0,0
	c26.6,0.5,48.6-20.8,49.1-47.4c0-0.6,0-1.2,0-1.6V116.1h242.8l88.9-88.5C439.2,24,434.4,22,429.3,22.2z"/>
<g class="st2">
	<path class="st3" d="M633.2,147.8v65.9h-29.1V39.5h78.3c41.5,0,62.3,19.6,62.3,49.6c0,25.5-18.4,43.4-45.3,48.4
		c8.1,1.2,14.3,3.1,19.6,6.7c9.8,6.4,15,18.1,20.8,38.2l8.8,31.3h-31l-8.1-30.8c-7.4-28.9-14.6-35.1-45.1-35.1L633.2,147.8
		L633.2,147.8z M633.2,64.8v61.8H674c26.7,0,41.8-11.9,41.8-31.7c0-19.1-11.9-30.1-40.6-30.1C675.2,64.8,633.2,64.8,633.2,64.8z"/>
	<path class="st3" d="M834.1,216.1c-46.1,0-69.4-29.4-69.4-68.5c0-37.9,25.8-70.2,68.5-70.2c43.4,0,64,31,64,67.3v10H792.8
		c2.1,23.1,16,37.2,40.8,37.2c17.9,0,28.2-7.4,36-21.2l24.1,13.4C882.6,202.5,864,216.1,834.1,216.1z M793.1,136.6h75.7
		c-1.2-20.5-11.9-35.3-35.8-35.3C810.3,101.3,796.4,114.6,793.1,136.6z"/>
	<path class="st3" d="M981.8,78.4c22,0,36.8,9.8,45.1,28.9V80h28.6v185.2h-28.9v-79.5c-9.1,19.1-25.5,29.6-47.3,29.6
		c-31.7,0-57.5-22.7-57.5-67.8C921.9,101.5,951.3,78.4,981.8,78.4z M1029.1,146.6c0-26-11.9-45.1-39.1-45.1
		c-24.8,0-38.7,18.1-38.7,45.6c0,27.7,13.1,44.4,38.7,44.4C1016.9,191.5,1029.1,172.4,1029.1,146.6z"/>
	<path class="st3" d="M1214.5,213.7h-28.9V182c-9.1,22.9-25.5,34.4-46.1,34.4c-32.5,0-48-21.7-48-54.4V80h28.9v74
		c0,23.1,7.9,37.9,31,37.9c20.8,0,33.9-17.7,33.9-46.5V80h29.1L1214.5,213.7L1214.5,213.7z"/>
	<path class="st3" d="M1314.8,216.1c-46.1,0-69.4-29.4-69.4-68.5c0-37.9,25.8-70.2,68.5-70.2c43.4,0,64,31,64,67.3v10h-104.3
		c2.1,23.1,16,37.2,40.8,37.2c17.9,0,28.2-7.4,36-21.2l24.1,13.4C1363.2,202.5,1344.6,216.1,1314.8,216.1z M1273.7,136.6h75.7
		c-1.2-20.5-11.9-35.3-35.8-35.3C1290.9,101.3,1277.1,114.6,1273.7,136.6z"/>
	<path class="st3" d="M1418.6,170c11,14.6,24.6,22.2,44.4,22.2c18.9,0,26.7-9.1,26.7-18.6c0-13.8-20.5-15-45.1-19.1
		c-24.3-3.8-42-11.9-42-35.8c0-23.4,19.6-41.8,53-41.8c27.2,0,46.3,8.4,62.3,27.4l-22.2,18.9c-10.3-14.8-23.1-22-41.8-22
		c-18.6,0-26,8.4-26,17.7c0,12.2,15.5,14.6,38.2,17.9c26,3.8,49.4,10,49.4,36.8c0,24.6-19.8,43-53.2,43c-30.3,0-51.5-10.3-64.7-26.7
		L1418.6,170z"/>
	<path class="st3" d="M1628.8,210.8c-6.9,3.3-14.3,5.2-24.3,5.2c-28.9,0-40.6-15.3-40.6-44.9v-67.3h-30.5V80h30.8V45.9l27-16.2V80
		h37.7v23.9h-37.7v64c0,17.2,6.9,23.4,20,23.4c7.2,0,11.5-1.2,17.7-3.8L1628.8,210.8L1628.8,210.8z"/>
</g>
<g class="st2">
	<path class="st3" d="M632.2,510.2H604V336h34.6l75.7,127l7.4,16l-1-17.2V336h28.2v174.2h-32.5l-78.3-132l-7.6-14.3l1.7,16.5
		L632.2,510.2L632.2,510.2z"/>
	<path class="st3" d="M850.1,512.6c-46.1,0-69.4-29.4-69.4-68.5c0-37.9,25.8-70.2,68.5-70.2c43.4,0,64,31,64,67.3v10H808.8
		c2.1,23.1,16,37.2,40.8,37.2c17.9,0,28.2-7.4,36-21.2l24.1,13.4C898.6,499,879.9,512.6,850.1,512.6z M809.1,433.1h75.7
		c-1.2-20.5-11.9-35.3-35.8-35.3C826.2,397.8,812.4,411.2,809.1,433.1z"/>
	<path class="st3" d="M1024.3,507.4c-6.9,3.3-14.3,5.3-24.3,5.3c-28.9,0-40.6-15.3-40.6-44.9v-67.3h-30.5v-23.9h30.8v-34.1l27-16.2
		v50.4h37.7v23.9h-37.7v64c0,17.2,6.9,23.4,20,23.4c7.2,0,11.5-1.2,17.7-3.8L1024.3,507.4L1024.3,507.4z"/>
	<path class="st3" d="M1115.3,510.2h-35.8l-33.9-133.6h29.8l22.9,98.3l2.9,17.4l3.8-17.4l29.1-98.3h23.4l28.4,98.1l3.3,18.1
		l3.1-17.9l25.1-98.3h29.4l-37.2,133.6H1175l-26-93.1l-3.3-14.3l-3.1,14.6L1115.3,510.2z"/>
	<path class="st3" d="M1263.9,443.4c0-39.4,25.5-69.4,68.5-69.4c43.7,0,68.3,30.5,68.3,69.4c0,38.7-25.5,69.2-68.3,69.2
		C1288.3,512.6,1263.9,483.3,1263.9,443.4z M1371.1,443.4c0-27-11.9-45.3-38.7-45.3c-26.3,0-38.9,19.1-38.9,45.3
		c0,26.5,11.5,44.6,38.9,44.6C1359.4,488,1371.1,469.7,1371.1,443.4z"/>
	<path class="st3" d="M1521,379.9l-8.1,26.5c-6.4-4.1-13.6-6-22.7-6c-16.7,0-29.4,13.8-29.4,42v67.8h-28.9V376.6h28.9v32.2
		c6-23.4,17.4-34.1,37-34.1C1507.6,374.7,1515,376.6,1521,379.9z"/>
	<path class="st3" d="M1573.5,452l62.5-75.4h33.6L1619,436l53.7,74.2h-34.4l-43-62.3l-22,25.3v37h-28.9v-190h28.9V452H1573.5z"/>
</g>
</svg>
