<svg width="659" height="181" viewBox="0 0 659 181" fill="none" xmlns="http://www.w3.org/2000/svg">
<path d="M215.955 45.6289C208.966 45.6289 202.228 46.5022 199.482 47.2507C195.49 48.3729 194.491 50.1186 193.742 53.735L177.894 126.816C177.644 128.312 177.395 129.56 177.395 130.807C177.395 134.427 179.766 136.792 183.634 136.792C187.877 136.792 189.624 134.049 190.498 129.809L194.99 108.983C198.109 109.356 202.228 109.73 208.093 109.73C233.925 109.73 250.021 95.7632 250.021 74.6866C250.022 56.2292 237.168 45.6289 215.955 45.6289ZM207.469 97.7569C203.476 97.7569 200.356 97.6329 197.485 97.2583L205.847 58.4736C208.467 58.0989 212.336 57.6002 216.329 57.6002C230.056 57.6002 237.044 64.0855 237.044 74.8106C237.044 88.5295 227.061 97.7578 207.466 97.7578L207.469 97.7569Z" fill="#5C5C5C"/>
<path d="M622.514 112.724C620.393 112.724 619.02 113.971 616.4 116.839C611.781 121.578 608.912 124.196 605.294 124.196C602.049 124.196 600.301 121.578 600.301 117.337C600.301 114.968 600.801 112.1 601.425 108.982L606.043 87.2824H619.899C624.266 87.2824 626.887 84.7882 626.887 80.2985C626.887 77.8043 625.265 75.9337 621.521 75.9337H608.537L610.784 65.8321C611.033 64.3361 611.283 62.9641 611.283 61.717C611.283 58.2247 608.912 55.7305 605.044 55.7305C600.925 55.7305 599.053 58.4744 598.18 62.7144L595.31 75.9337H589.445C584.953 75.9337 582.332 78.4279 582.332 82.9176C582.332 85.4118 584.079 87.2824 587.822 87.2824H592.939L588.321 108.731C587.822 111.1 587.198 114.966 587.198 118.957C587.198 129.059 592.439 136.417 603.67 136.417C610.159 136.417 615.9 133.174 620.267 129.308C624.51 125.567 627.63 120.953 627.63 117.959C627.63 115.093 625.386 112.724 622.514 112.724Z" fill="#5C5C5C"/>
<path d="M335.501 52.9876C335.501 49.3676 333.005 47.001 329.136 47.001C325.019 47.001 323.147 49.7449 322.273 53.9849L306.675 126.442C306.3 127.939 306.051 129.186 306.051 130.433C306.051 134.053 308.547 136.419 312.29 136.419C316.533 136.419 318.405 133.675 319.278 129.435L334.88 56.9777C335.127 55.4817 335.501 54.2346 335.501 52.9876Z" fill="#5C5C5C"/>
<path d="M558.249 74.6867C538.283 74.6867 524.681 94.5162 524.681 113.347C524.681 113.7 524.69 114.049 524.7 114.396C521.569 119.148 517.568 124.073 514.822 124.073C512.826 124.073 512.077 122.202 512.077 119.333C512.077 115.842 513.073 109.98 514.199 104.867L524.556 56.9777C524.806 55.4817 525.055 54.2346 525.055 52.9876C525.055 49.3676 522.685 47.001 518.816 47.001C514.573 47.001 512.826 49.7449 511.953 53.9849L506.338 79.9249C503.342 76.8072 498.971 74.6867 492.36 74.6867C479.1 74.6867 465.763 84.8888 460.565 100.534C454.841 115.323 449.726 124.073 445.69 124.073C444.193 124.073 443.319 122.826 443.319 120.705C443.319 114.47 446.812 99.2566 448.31 91.8971C448.809 89.1532 449.059 88.031 449.059 86.4092C449.059 80.9222 439.949 74.437 428.094 74.437C414.387 74.437 401.97 83.1123 395.744 96.0076C386.499 112.336 378.014 124.075 373.813 124.075C371.941 124.075 371.317 121.705 370.818 119.46L367.698 102.249L386.791 86.6608C388.538 85.1639 390.784 83.0408 390.784 80.3005C390.784 76.9339 388.538 74.6895 385.169 74.6895C382.674 74.6895 380.551 76.1863 378.431 77.9321L349.733 101.624L359.342 56.9777C359.592 55.4817 359.966 54.2346 359.966 52.9876C359.966 49.3676 357.47 47.001 353.601 47.001C349.484 47.001 347.612 49.7449 346.738 53.9849L331.14 126.442C330.766 127.939 330.516 129.186 330.516 130.433C330.516 134.053 333.011 136.419 336.755 136.419C340.998 136.419 342.869 133.675 343.743 129.435L345.74 120.082L357.47 110.603L360.341 125.07C361.463 130.807 364.458 136.419 372.195 136.419C379.893 136.419 385.947 129.393 392.014 119.901C393.855 129.843 400.932 136.419 410.755 136.419C420.613 136.419 427.351 130.557 431.718 122.701V122.949C431.718 131.056 435.837 136.419 443.074 136.419C449.618 136.419 455.054 132.476 459.91 124.092C462.664 131.398 468.819 136.419 477.387 136.419C487.495 136.419 494.732 130.308 499.35 121.827V122.576C499.35 131.555 503.842 136.422 511.205 136.422C517.705 136.422 523.233 132.652 527.945 126.51C531.532 132.646 537.96 136.422 546.645 136.422C566.611 136.422 580.213 116.594 580.213 97.6375C580.212 84.2897 572.101 74.6867 558.249 74.6867ZM433.836 100.002C430.213 115.591 422.48 124.445 413.745 124.445C407.879 124.445 404.635 119.956 404.635 113.223C404.635 100.004 414.244 85.7866 427.093 85.7866C430.96 85.7866 433.956 86.9097 436.577 88.5305L433.836 100.002ZM503.342 93.3958C499.349 111.728 490.239 124.449 480.256 124.449C474.766 124.449 471.521 120.209 471.521 113.227C471.521 99.8828 480.758 86.04 493.11 86.04C497.851 86.04 501.47 87.6608 504.091 89.7812L503.342 93.3958ZM548.143 124.446C540.906 124.446 537.91 119.208 537.91 112.599C537.91 100.502 546.27 86.659 556.753 86.659C563.99 86.659 566.986 91.8971 566.986 98.5063C566.984 110.728 558.624 124.446 548.143 124.446Z" fill="#5C5C5C"/>
<path d="M281.096 74.6865C261.129 74.6865 247.527 94.516 247.527 113.347C247.527 126.815 255.639 136.418 269.49 136.418C289.456 136.418 303.059 116.59 303.059 97.6337C303.059 84.2895 294.946 74.6865 281.096 74.6865ZM270.988 124.446C263.75 124.446 260.755 119.208 260.755 112.599C260.755 100.502 269.116 86.6588 279.598 86.6588C286.836 86.6588 289.831 91.8969 289.831 98.5061C289.831 110.728 281.47 124.446 270.988 124.446Z" fill="#5C5C5C"/>
<path d="M90.5572 53.3707C103.274 53.3707 113.583 47.3761 113.583 39.9813C113.583 32.5865 103.274 26.5918 90.5572 26.5918C77.8403 26.5918 67.5312 32.5865 67.5312 39.9813C67.5312 47.3761 77.8403 53.3707 90.5572 53.3707Z" fill="#5C5C5C"/>
<path d="M90.5572 154.221C103.274 154.221 113.583 148.227 113.583 140.832C113.583 133.437 103.274 127.442 90.5572 127.442C77.8403 127.442 67.5312 133.437 67.5312 140.832C67.5312 148.227 77.8403 154.221 90.5572 154.221Z" fill="#5C5C5C"/>
<path d="M58.4649 71.8887C64.8233 60.8825 64.783 48.9629 58.3749 45.2655C51.9668 41.5681 41.6175 47.4931 35.259 58.4993C28.9006 69.5055 28.9409 81.4251 35.349 85.1225C41.7571 88.8199 52.1065 82.8949 58.4649 71.8887Z" fill="#5C5C5C"/>
<path d="M145.856 122.315C152.214 111.308 152.174 99.3887 145.766 95.6913C139.357 91.9939 129.008 97.9188 122.65 108.925C116.291 119.931 116.332 131.851 122.74 135.548C129.148 139.246 139.497 133.321 145.856 122.315Z" fill="#5C5C5C"/>
<path d="M58.3749 135.547C64.783 131.85 64.8233 119.93 58.4649 108.924C52.1065 97.9176 41.7571 91.9926 35.349 95.69C28.9409 99.3874 28.9006 111.307 35.2591 122.313C41.6175 133.319 51.9668 139.244 58.3749 135.547Z" fill="#5C5C5C"/>
<path d="M145.766 85.1232C152.174 81.4258 152.214 69.5062 145.856 58.5C139.497 47.4938 129.148 41.5688 122.74 45.2662C116.332 48.9636 116.291 60.8832 122.65 71.8894C129.008 82.8956 139.357 88.8206 145.766 85.1232Z" fill="#5C5C5C"/>
</svg>
