<svg width="499" height="412" viewBox="0 0 499 412" fill="none" xmlns="http://www.w3.org/2000/svg">
<g clip-path="url(#clip0_480_201)">
<path fill-rule="evenodd" clip-rule="evenodd" d="M260.926 113.625H439.462L439.382 113.705C446.06 113.705 451.451 108.302 451.451 101.609C451.451 56.9333 426.75 40.9661 403.82 40.8855H397.383C391.992 17.4993 371.154 0 346.131 0C321.109 0 300.109 17.6606 294.799 41.1274C279.19 41.45 265.271 48.1433 256.501 59.5138C247.329 71.3682 244.754 87.3353 249.26 104.593C250.628 109.915 255.455 113.625 260.926 113.625ZM426.428 89.432H271.225C270.984 83.4645 272.512 78.3034 275.57 74.2713C279.914 68.6263 287.558 65.2394 296.086 65.2394L334.143 64.8362L333.902 40.6436L320.224 40.8049C324.729 31.0472 334.706 24.1926 346.131 24.1926C361.821 24.1926 374.613 37.0147 374.613 52.7399C374.613 59.3525 379.843 64.7555 386.441 64.8362L403.659 65.1587C418.785 65.1587 424.497 77.497 426.428 89.432Z" fill="#EFEBE6"/>
<path fill-rule="evenodd" clip-rule="evenodd" d="M12.0686 412C8.60888 412 5.39056 410.548 3.05728 407.968C0.804461 405.387 -0.321949 402 0.0803404 398.613L28.9647 130.801C32.2635 81.5291 87.0554 39.3534 171.938 21.2089C178.375 19.838 184.651 23.8701 186.179 30.2408L223.19 186.283H224.118C231.718 186.069 239.51 185.961 247.49 185.961V186.283C253.248 186.323 258.195 190.504 259.316 196.202L272.269 266.925H291.74C297.372 266.925 302.28 270.877 303.487 276.36L330.36 397.323C331.165 400.871 330.36 404.662 328.027 407.484C325.774 410.387 322.234 412 318.613 412H12.0686ZM124.872 197.387C132.549 195.67 140.596 194.144 149.008 192.81V153.945H173.145V189.62C181.321 188.74 189.788 188.017 198.546 187.454L182.205 118.578C133.716 125.382 60.2455 157.407 46.3237 193.456L41.977 233.724C56.6897 221.405 76.3421 211.401 100.734 203.792V178.139H124.872V197.387ZM36.8164 281.53C50.6404 238.736 119.765 213.117 227.937 210.395H237.19L247.484 266.597C241.678 266.539 235.656 266.522 229.465 266.559V226.523H205.328V266.981C194.807 267.291 184.011 267.781 173.145 268.504V242.651H149.008V270.509C140.889 271.327 132.815 272.297 124.872 273.44V258.78H100.734V277.566C75.1608 282.708 52.0792 290.075 34.7685 300.502L36.8164 281.53ZM262.051 291.037C261.893 291.037 261.736 291.034 261.58 291.028C114.886 287.687 46.6591 311.598 30.9747 335.647L25.3441 387.807H52.4609V355.551H76.5983V387.807H100.734V339.422H124.872V387.807H149.008V331.358H173.145V387.807H205.328V323.293H229.465V387.807H303.487L281.924 291.037H262.051ZM51.1082 149.133C83.8479 121.077 136.254 100.988 176.601 94.9566L165.341 47.4982C98.9631 64.1105 55.2745 97.0124 52.8607 132.898L51.1082 149.133Z" fill="#EFEBE6"/>
<path fill-rule="evenodd" clip-rule="evenodd" d="M325.211 266.603C332.558 266.146 339.582 265.867 346.299 265.751L337.031 184.731C318.722 183.576 297.616 183.123 273.316 183.542L272.914 159.349C403.256 157.172 467.381 178.542 475.024 226.927L498.92 373.857C499.484 377.324 498.518 380.953 496.185 383.614C493.852 386.356 490.553 387.888 487.013 387.888L486.932 387.808H342.108V363.615H401.381L393.225 292.308C374.827 289.883 352.778 289.107 326.74 290.715L325.211 266.603ZM418.066 297.074C445.534 304.266 461.075 315.848 466.834 327.159L472.772 363.615H425.677L418.066 297.074ZM460.557 288.613C442.686 277.795 414.58 268.08 370.63 266.068L361.571 186.867C429.06 194.56 448.436 213.687 451.128 230.717L460.557 288.613Z" fill="#EFEBE6"/>
</g>
<defs>
<clipPath id="clip0_480_201">
<rect width="499" height="412" fill="white"/>
</clipPath>
</defs>
</svg>
