<svg width="96" height="40" viewBox="0 0 96 40" fill="none" xmlns="http://www.w3.org/2000/svg">
<path d="M37.5625 25.644V24.4174H40.7643V25.8893C40.7643 27.4226 41.4416 27.9746 42.5191 27.9746C43.5966 27.9746 44.3047 27.4226 44.3047 25.828C44.3047 24.0494 43.5658 22.9454 41.3492 21.0135C38.5169 18.5296 37.5625 16.751 37.5625 14.2977C37.5625 10.9245 39.3173 8.96191 42.6115 8.96191C45.9056 8.96191 47.5373 10.9245 47.5373 14.3591V15.2484H44.3355V14.1444C44.3355 12.6111 43.7198 12.0285 42.6422 12.0285C41.5647 12.0285 40.9182 12.6111 40.9182 14.0831C40.9182 15.647 41.6879 16.751 43.9045 18.6829C46.7368 21.1668 47.6604 22.9148 47.6604 25.5827C47.6604 29.0786 45.8748 31.0412 42.5499 31.0412C39.225 31.0412 37.5625 29.0786 37.5625 25.644Z" fill="white"/>
<path d="M49.5703 9.26758H52.9568V30.7335H49.5703V9.26758Z" fill="white"/>
<path d="M54.8945 25.644V24.4174H58.0963V25.8893C58.0963 27.4226 58.7736 27.9746 59.8511 27.9746C60.9287 27.9746 61.6367 27.4226 61.6367 25.828C61.6367 24.0494 60.8979 22.9454 58.6813 21.0135C55.8489 18.5296 54.8945 16.751 54.8945 14.2977C54.8945 10.9245 56.6494 8.96191 59.9435 8.96191C63.2376 8.96191 64.8693 10.9245 64.8693 14.3591V15.2484H61.6675V14.1444C61.6675 12.6111 61.0518 12.0285 59.9743 12.0285C58.8968 12.0285 58.2502 12.6111 58.2502 14.0831C58.2502 15.647 59.0199 16.751 61.2365 18.6829C64.0689 21.1668 64.9925 22.9148 64.9925 25.5827C64.9925 29.0786 63.2069 31.0412 59.8819 31.0412C56.557 31.0412 54.8945 29.0786 54.8945 25.644Z" fill="white"/>
<path d="M66.8984 9.26758H71.6703L73.9177 24.8457L76.1651 9.26758H80.937V30.7335H77.7352V14.4807L75.2108 30.7335H72.3784L69.8539 14.4807V30.7335H66.8984V9.26758Z" fill="white"/>
<path d="M83.2188 25.644V14.3591C83.2188 10.9245 85.0351 8.96191 88.3601 8.96191C91.685 8.96191 93.5014 10.9245 93.5014 14.3591V25.644C93.5014 29.0786 91.685 31.0412 88.3601 31.0412C85.0351 31.0412 83.2188 29.0786 83.2188 25.644ZM90.1149 25.8587V14.1444C90.1149 12.6111 89.4376 12.0285 88.3601 12.0285C87.2825 12.0285 86.6052 12.6111 86.6052 14.1444V25.8587C86.6052 27.392 87.2825 27.9746 88.3601 27.9746C89.4376 27.9746 90.1149 27.392 90.1149 25.8587Z" fill="white"/>
<path d="M17.0379 17.709C14.947 17.709 13.2461 19.4033 13.2461 21.486C13.2461 23.5687 14.947 25.263 17.0379 25.263C19.1289 25.263 20.8298 23.5687 20.8298 21.486C20.8298 19.4033 19.1289 17.709 17.0379 17.709Z" fill="white"/>
<path d="M6.32108 5.81055C4.48673 5.81055 3 7.29144 3 9.1186V34.1916H27.7163C29.5507 34.1916 31.0374 32.7107 31.0374 30.8835V5.81055H6.32108ZM18.1803 27.3404L18.1738 31.7869L15.8495 31.7843L15.8559 27.3404C13.0915 26.7986 11.0006 24.3684 11.0006 21.459C11.0006 18.1535 13.7008 15.4638 17.0193 15.4638C20.3379 15.4638 23.0381 18.1535 23.0381 21.459C23.0381 24.3684 20.9459 26.7999 18.1803 27.3417V27.3404ZM24.1425 21.4743C24.1425 17.5619 20.9472 14.3778 17.0181 14.3778C13.089 14.3778 9.89358 17.5606 9.89358 21.4743H7.56921C7.56921 18.4256 9.03285 15.713 11.2944 13.9919L9.35739 10.5893L11.379 9.44698L13.3006 12.8215C14.1011 12.479 14.9592 12.2452 15.8546 12.1353V8.21524H18.179V12.1353C19.0577 12.2427 19.8992 12.4688 20.6868 12.801L22.6545 9.44443L24.6621 10.6123L22.6994 13.9599C24.9853 15.6798 26.4656 18.4077 26.4656 21.4743H24.1413H24.1425Z" fill="white"/>
</svg>
