<svg width="96" height="40" viewBox="0 0 96 40" fill="none" xmlns="http://www.w3.org/2000/svg">
<path d="M20.1742 19.2284V33.9204C20.1742 34.1834 20.0298 34.4251 19.7984 34.5498L16.6577 36.2417C16.4379 36.3601 16.1724 36.3552 15.9572 36.2288L13.0895 34.5448L15.2895 33.1692C15.471 33.3102 15.699 33.3942 15.9466 33.3942C16.5385 33.3942 17.0184 32.9142 17.0184 32.322C17.0184 31.7298 16.5385 31.2497 15.9466 31.2497C15.3546 31.2497 14.8748 31.7298 14.8748 32.322C14.8748 32.4066 14.8846 32.4889 14.9031 32.5678L12.3942 34.1366L8.40474 31.7938C8.20526 31.6767 8.07479 31.4702 8.05463 31.2397L7.72159 27.4318L10.386 25.7658C10.5707 25.9169 10.8068 26.0075 11.064 26.0075C11.6559 26.0075 12.1358 25.5274 12.1358 24.9352C12.1358 24.343 11.6559 23.863 11.064 23.863C10.4721 23.863 9.99221 24.343 9.99221 24.9352C9.99221 25.0105 9.99996 25.084 10.0147 25.1549L7.48784 26.7349C7.45632 26.7041 7.42175 26.6759 7.38442 26.6511L3.70099 24.1943C3.50221 24.0618 3.38281 23.8386 3.38281 23.5995V19.988L6.25906 18.1895C6.45287 18.3824 6.72002 18.5016 7.01502 18.5016C7.60695 18.5016 8.08681 18.0216 8.08681 17.4294C8.08681 16.8372 7.60695 16.3571 7.01502 16.3571C6.42309 16.3571 5.94323 16.8372 5.94323 17.4294C5.94323 17.4669 5.94516 17.5039 5.94891 17.5404L3.38281 19.145V15.2258C3.38281 14.9678 3.52171 14.7299 3.74628 14.6032L7.66376 12.3923C7.6905 12.3772 7.71603 12.3605 7.74025 12.3425L11.5999 14.8248V19.0694L7.74335 21.2892C7.55217 21.112 7.29624 21.0036 7.01502 21.0036C6.42309 21.0036 5.94323 21.4837 5.94323 22.0759C5.94323 22.6681 6.42309 23.1481 7.01502 23.1481C7.60695 23.1481 8.08681 22.6681 8.08681 22.0759C8.08681 22.0238 8.0831 21.9726 8.07593 21.9225L11.9505 19.6923L16.1252 22.2751V26.4647L12.7587 28.5697C12.5662 28.3848 12.3047 28.2712 12.0167 28.2712C11.4248 28.2712 10.9449 28.7513 10.9449 29.3435C10.9449 29.9356 11.4248 30.4157 12.0167 30.4157C12.6086 30.4157 13.0885 29.9356 13.0885 29.3435C13.0885 29.2988 13.0858 29.2548 13.0805 29.2116L16.8397 26.8609V21.8767L12.3144 19.0769V14.8439L16.6611 12.5207L16.6611 8.4328C17.0774 8.2856 17.3756 7.88842 17.3756 7.42155C17.3756 6.82935 16.8958 6.34928 16.3038 6.34928C15.7119 6.34928 15.2321 6.82935 15.2321 7.42155C15.2321 7.88842 15.5303 8.2856 15.9466 8.4328L15.9466 12.0921L11.9739 14.2155L8.02723 11.6772V7.90378C8.02723 7.64309 8.16908 7.40306 8.39741 7.27743L11.6594 5.48251V8.55483C11.2432 8.70203 10.9449 9.09921 10.9449 9.56608C10.9449 10.1583 11.4248 10.6383 12.0167 10.6383C12.6086 10.6383 13.0885 10.1583 13.0885 9.56608C13.0885 9.09921 12.7902 8.70203 12.374 8.55483V5.08935L16.0103 3.08849C16.2294 2.96789 16.4957 2.97073 16.7122 3.09598L19.8172 4.89187C20.0381 5.01962 20.1742 5.2555 20.1742 5.51074V18.3854L17.7046 16.8412C17.7231 16.7623 17.7329 16.68 17.7329 16.5954C17.7329 16.0032 17.253 15.5231 16.6611 15.5231C16.0692 15.5231 15.5893 16.0032 15.5893 16.5954C15.5893 17.1876 16.0692 17.6677 16.6611 17.6677C16.9087 17.6677 17.1367 17.5837 17.3182 17.4426L20.1742 19.2284Z" fill="white"/>
<path d="M12.0167 9.9235C12.214 9.9235 12.374 9.76348 12.374 9.56608C12.374 9.36868 12.214 9.20866 12.0167 9.20866C11.8194 9.20866 11.6594 9.36868 11.6594 9.56608C11.6594 9.76348 11.8194 9.9235 12.0167 9.9235Z" fill="white"/>
<path d="M7.01502 22.4333C7.21233 22.4333 7.37228 22.2733 7.37228 22.0759C7.37228 21.8785 7.21233 21.7184 7.01502 21.7184C6.81771 21.7184 6.65776 21.8785 6.65776 22.0759C6.65776 22.2733 6.81771 22.4333 7.01502 22.4333Z" fill="white"/>
<path d="M12.374 29.3435C12.374 29.5409 12.214 29.7009 12.0167 29.7009C11.8194 29.7009 11.6594 29.5409 11.6594 29.3435C11.6594 29.1461 11.8194 28.986 12.0167 28.986C12.214 28.986 12.374 29.1461 12.374 29.3435Z" fill="white"/>
<path d="M16.6611 16.9528C16.8584 16.9528 17.0184 16.7928 17.0184 16.5954C17.0184 16.398 16.8584 16.238 16.6611 16.238C16.4638 16.238 16.3038 16.398 16.3038 16.5954C16.3038 16.7928 16.4638 16.9528 16.6611 16.9528Z" fill="white"/>
<path d="M7.37228 17.4294C7.37228 17.6268 7.21233 17.7868 7.01502 17.7868C6.81771 17.7868 6.65776 17.6268 6.65776 17.4294C6.65776 17.232 6.81771 17.072 7.01502 17.072C7.21233 17.072 7.37228 17.232 7.37228 17.4294Z" fill="white"/>
<path d="M15.9466 32.6794C16.1439 32.6794 16.3038 32.5194 16.3038 32.322C16.3038 32.1246 16.1439 31.9646 15.9466 31.9646C15.7493 31.9646 15.5893 32.1246 15.5893 32.322C15.5893 32.5194 15.7493 32.6794 15.9466 32.6794Z" fill="white"/>
<path d="M11.4213 24.9352C11.4213 25.1326 11.2613 25.2927 11.064 25.2927C10.8667 25.2927 10.7067 25.1326 10.7067 24.9352C10.7067 24.7378 10.8667 24.5778 11.064 24.5778C11.2613 24.5778 11.4213 24.7378 11.4213 24.9352Z" fill="white"/>
<path d="M16.3038 7.06413C16.1065 7.06413 15.9466 7.22415 15.9466 7.42155C15.9466 7.61895 16.1065 7.77897 16.3038 7.77897C16.5012 7.77897 16.6611 7.61895 16.6611 7.42155C16.6611 7.22415 16.5012 7.06413 16.3038 7.06413Z" fill="white"/>
<path opacity="0.4" fill-rule="evenodd" clip-rule="evenodd" d="M21.2578 33.9239V5.51429C21.2578 5.25905 21.3938 5.02317 21.6147 4.89542L24.7259 3.09598C24.9391 2.97265 25.2008 2.96788 25.4183 3.08335L34.4541 7.87886C34.6877 8.00285 34.8338 8.24578 34.8338 8.51035V16.8596C34.8338 17.1052 34.9598 17.3336 35.1676 17.4645L37.7153 19.0693C37.9231 19.2002 38.0492 19.4286 38.0492 19.6743V28.0547C38.0492 28.3026 37.9208 28.5327 37.71 28.6629L25.4791 36.219C25.2619 36.3532 24.9897 36.3613 24.765 36.2402L21.6336 34.5533C21.4021 34.4287 21.2578 34.1869 21.2578 33.9239ZM25.664 16.675V8.70925C25.664 8.61633 25.7657 8.55917 25.845 8.60746L30.0131 11.1432C30.0486 11.1648 30.0703 11.2034 30.0703 11.245V13.9138C30.0703 13.9538 30.0503 13.9911 30.0169 14.0132L25.8489 16.7743C25.7697 16.8268 25.664 16.77 25.664 16.675ZM25.664 22.9837V31.2745C25.664 31.3685 25.7678 31.4255 25.8471 31.375L34.1237 26.1057C34.158 26.0839 34.1788 26.046 34.1788 26.0052V20.7796C34.1788 20.7362 34.1553 20.6963 34.1173 20.6753L31.9737 19.4902C31.9379 19.4703 31.8944 19.4703 31.8586 19.4901L25.7256 22.8794C25.6876 22.9004 25.664 22.9403 25.664 22.9837Z" fill="white"/>
<path d="M47.3281 26.7113V12.7107H51.732C53.067 12.7107 54.1192 13.002 54.8885 13.5846C55.6578 14.1673 56.0425 15.0469 56.0425 16.2236C56.0425 17.6491 55.4655 18.6673 54.3115 19.2783C55.2732 19.4366 56.0086 19.81 56.5177 20.3983C57.0268 20.9866 57.2813 21.7588 57.2813 22.7148C57.2813 23.5463 57.0918 24.2619 56.7128 24.8616C56.3395 25.4555 55.8077 25.9137 55.1176 26.2362C54.4331 26.553 53.6242 26.7113 52.6908 26.7113H47.3281ZM50.6034 18.1497H50.9428C51.5708 18.1497 52.0488 18.0224 52.3769 17.7679C52.7106 17.5133 52.8775 17.1456 52.8775 16.6648C52.8775 16.184 52.7163 15.8247 52.3938 15.5872C52.077 15.3496 51.5934 15.2308 50.9428 15.2308H50.6034V18.1497ZM50.6034 24.1827H51.5368C52.3118 24.1827 52.8888 24.0526 53.2678 23.7924C53.6468 23.5322 53.8363 23.1391 53.8363 22.613C53.8363 22.0756 53.6412 21.6683 53.2508 21.3911C52.8605 21.1082 52.2892 20.9668 51.5368 20.9668H50.6034V24.1827Z" fill="white"/>
<path d="M58.7241 26.7113V18.0224H61.8212V19.2528C62.1663 18.7776 62.5764 18.4099 63.0516 18.1497C63.5268 17.8838 64.0274 17.7509 64.5535 17.7509C64.8759 17.7509 65.2125 17.8018 65.5632 17.9036C65.914 18.0055 66.2053 18.1384 66.4372 18.3024L65.1475 20.9074C64.9438 20.766 64.7062 20.6529 64.4347 20.568C64.1632 20.4775 63.9114 20.4322 63.6795 20.4322C63.3627 20.4322 63.0601 20.5143 62.7716 20.6783C62.4887 20.8424 62.2596 21.0573 62.0843 21.3232C61.9089 21.5834 61.8212 21.8663 61.8212 22.1717V26.7113H58.7241Z" fill="white"/>
<path d="M67.2346 26.7113V18.0224H70.3317V26.7113H67.2346ZM68.7789 16.1896C68.4508 16.1896 68.1481 16.1076 67.871 15.9435C67.5938 15.7795 67.3732 15.5617 67.2091 15.2902C67.0507 15.013 66.9715 14.7075 66.9715 14.3738C66.9715 14.0457 67.0507 13.7459 67.2091 13.4743C67.3732 13.1971 67.5938 12.9765 67.871 12.8125C68.1481 12.6484 68.4508 12.5664 68.7789 12.5664C69.1126 12.5664 69.4153 12.6484 69.6868 12.8125C69.9583 12.9765 70.1761 13.1943 70.3402 13.4658C70.5042 13.7374 70.5862 14.04 70.5862 14.3738C70.5862 14.7075 70.5042 15.013 70.3402 15.2902C70.1761 15.5617 69.9583 15.7795 69.6868 15.9435C69.4153 16.1076 69.1126 16.1896 68.7789 16.1896Z" fill="white"/>
<path d="M75.6874 26.9829C74.8897 26.9829 74.1657 26.7849 73.5151 26.3889C72.8646 25.9873 72.347 25.4386 71.9623 24.7428C71.5777 24.0413 71.3853 23.2437 71.3853 22.3499C71.3853 21.4844 71.5692 20.7066 71.9369 20.0165C72.3046 19.3207 72.8108 18.7691 73.4557 18.3618C74.1006 17.9546 74.8445 17.7509 75.6874 17.7509C76.2361 17.7509 76.7565 17.8442 77.2486 18.0309C77.7464 18.2176 78.1679 18.4806 78.5129 18.82V18.0224H81.6101V26.7113H78.5129V25.8119C78.1057 26.1966 77.6644 26.4879 77.1892 26.6859C76.7197 26.8839 76.2191 26.9829 75.6874 26.9829ZM76.6207 24.3609C77.0054 24.3609 77.3448 24.2761 77.639 24.1064C77.9331 23.931 78.1622 23.6934 78.3263 23.3936C78.4903 23.0938 78.5723 22.7516 78.5723 22.3669C78.5723 21.9822 78.4875 21.64 78.3178 21.3402C78.1537 21.0404 77.9246 20.8056 77.6305 20.6359C77.3363 20.4605 76.9997 20.3729 76.6207 20.3729C76.2474 20.3729 75.9108 20.4605 75.611 20.6359C75.3168 20.8056 75.0821 21.0404 74.9067 21.3402C74.737 21.64 74.6521 21.9822 74.6521 22.3669C74.6521 22.7459 74.737 23.0881 74.9067 23.3936C75.0764 23.6934 75.3083 23.931 75.6025 24.1064C75.9023 24.2761 76.2417 24.3609 76.6207 24.3609Z" fill="white"/>
<path d="M82.6791 26.7113V18.0224H85.7762V18.9049C86.1496 18.5485 86.588 18.2685 87.0914 18.0649C87.5949 17.8556 88.1238 17.7509 88.6782 17.7509C89.3457 17.7509 89.9368 17.898 90.4516 18.1921C90.9664 18.4863 91.3708 18.8936 91.665 19.414C91.9648 19.9288 92.1147 20.5199 92.1147 21.1874V26.7113H89.0176V21.8493C89.0176 21.3289 88.8733 20.9187 88.5848 20.6189C88.2963 20.3135 87.906 20.1607 87.4139 20.1607C87.0801 20.1607 86.7916 20.2286 86.5484 20.3644C86.3051 20.5001 86.1156 20.6896 85.9799 20.9329C85.8441 21.1705 85.7762 21.4448 85.7762 21.756V26.7113H82.6791Z" fill="white"/>
</svg>
