<svg width="1004" height="418" viewBox="0 0 1004 418" fill="none" xmlns="http://www.w3.org/2000/svg">
<path d="M296.073 251.997V163.462H325.66V142.102H244.18V163.462H273.457V251.997H296.073ZM358.964 251.997V214.231C358.964 199.372 366.4 192.252 376.159 192.252C384.989 192.252 389.791 199.062 389.791 210.206V251.997H411.013V206.646C411.013 186.525 399.859 172.904 381.116 172.904C371.047 172.904 362.992 177.238 358.964 183.429V135.911H337.742V251.997H358.964ZM466.159 253.7C485.832 253.7 501.167 242.401 505.815 226.768H483.663C481.185 232.031 474.679 235.281 467.243 235.281C454.076 235.281 447.26 227.387 446.331 218.255H506.744C507.828 189.156 489.085 172.904 466.314 172.904C442.768 172.904 425.574 190.085 425.574 213.147C425.574 236.674 442.458 253.7 466.159 253.7ZM483.508 204.325H447.106C449.119 195.812 455.935 190.085 465.694 190.085C472.975 190.085 480.875 193.954 483.508 204.325ZM611.15 253.855C643.835 253.855 670.324 231.412 665.367 186.215H608.517V207.266H642.131C639.653 222.434 628.964 232.185 611.15 232.185C589.773 232.185 575.832 216.707 575.832 197.05C575.832 177.393 589.773 161.914 610.84 161.914C621.374 161.914 631.598 166.558 637.019 174.607H662.734C655.298 153.866 633.921 140.245 610.84 140.245C577.536 140.245 553.216 165.165 553.216 197.05C553.216 228.935 577.536 253.855 611.15 253.855ZM702.389 251.997V215.005C702.389 202.313 709.05 194.419 719.119 194.419C722.527 194.419 725.47 195.038 728.723 196.121V174.607C726.09 173.833 723.766 173.678 721.598 173.678C712.923 173.678 705.023 179.405 702.389 186.989V174.607H681.167V251.997H702.389ZM771.012 253.7C781.701 253.7 789.911 248.283 793.319 243.33V251.997H814.541V174.607H793.319V183.274C789.911 178.321 781.701 172.904 771.012 172.904C750.41 172.904 734.61 191.323 734.61 213.302C734.61 235.281 750.41 253.7 771.012 253.7ZM775.505 234.352C763.887 234.352 755.987 225.375 755.987 213.302C755.987 201.229 763.887 192.252 775.505 192.252C787.123 192.252 795.023 201.229 795.023 213.302C795.023 225.375 787.123 234.352 775.505 234.352ZM856.365 284.347V243.33C859.928 248.283 868.138 253.7 878.826 253.7C899.429 253.7 915.229 235.281 915.229 213.302C915.229 191.323 899.429 172.904 878.826 172.904C868.138 172.904 859.928 178.321 856.365 183.274V174.607H835.143V284.347H856.365ZM874.179 234.352C862.561 234.352 854.661 225.375 854.661 213.302C854.661 201.229 862.561 192.252 874.179 192.252C885.797 192.252 893.697 201.229 893.697 213.302C893.697 225.375 885.797 234.352 874.179 234.352ZM951.942 251.997V214.231C951.942 199.372 959.377 192.252 969.136 192.252C977.966 192.252 982.768 199.062 982.768 210.206V251.997H1003.99V206.646C1003.99 186.525 992.837 172.904 974.093 172.904C964.024 172.904 955.969 177.238 951.942 183.429V135.911H930.72V251.997H951.942Z" fill="white" fill-opacity="0.96"/>
<path fill-rule="evenodd" clip-rule="evenodd" d="M157.422 253.041C162.345 257.939 162.653 265.688 158.345 270.942L157.422 271.958L103.634 325.464C98.3821 330.688 89.8692 330.688 84.6176 325.464C79.6943 320.567 79.3866 312.818 83.6945 307.564L84.6176 306.548L138.406 253.041C143.657 247.817 152.17 247.817 157.422 253.041ZM80.6798 88.6104C125.238 88.6104 161.36 124.543 161.36 168.867C161.36 213.192 125.238 249.124 80.6798 249.124C36.1217 249.124 0 213.192 0 168.867C0 124.543 36.1217 88.6104 80.6798 88.6104ZM80.6798 115.363C50.975 115.363 26.8933 139.317 26.8933 168.867C26.8933 198.418 50.975 222.372 80.6798 222.372C110.386 222.372 134.466 198.418 134.466 168.867C134.466 139.317 110.386 115.363 80.6798 115.363ZM174.808 88.6104C182.234 88.6104 188.253 94.598 188.253 101.987C188.253 109.375 182.234 115.363 174.808 115.363C167.38 115.363 161.361 109.375 161.361 101.987C161.361 94.598 167.38 88.6104 174.808 88.6104Z" fill="white"/>
</svg>
