<svg width="96" height="40" viewBox="0 0 96 40" fill="none" xmlns="http://www.w3.org/2000/svg">
<path d="M62.2545 32.585C60.3567 32.585 58.6815 32.2453 57.2289 31.5659C55.7762 30.8864 54.6399 29.914 53.8199 28.6489C52.9999 27.3836 52.5898 25.8608 52.5898 24.0801V23.9053C52.5898 23.4584 52.9522 23.0961 53.3991 23.0961H56.3493C56.7963 23.0961 57.1586 23.4584 57.1586 23.9053V24.0801C57.1586 25.5561 57.6155 26.6691 58.5292 27.4188C59.443 28.1451 60.6847 28.5083 62.2545 28.5083C63.8477 28.5083 65.0309 28.192 65.8041 27.5594C66.6007 26.9268 66.999 26.1185 66.999 25.1344C66.999 24.455 66.7998 23.9044 66.4015 23.4827C66.0266 23.0609 65.4644 22.7212 64.7146 22.4635C63.9882 22.1823 63.0979 21.9246 62.0436 21.6903L61.2353 21.5145C59.5484 21.1397 58.0957 20.6711 56.8774 20.1088C55.6825 19.5231 54.757 18.7616 54.101 17.8244C53.4684 16.8873 53.1521 15.6689 53.1521 14.1694C53.1521 12.6699 53.5036 11.393 54.2065 10.3387C54.9328 9.26095 55.9402 8.44092 57.2289 7.87861C58.5409 7.29287 60.0755 7 61.8328 7C63.59 7 65.1481 7.30458 66.507 7.91375C67.8893 8.49949 68.967 9.38981 69.7402 10.5847C70.5368 11.7562 70.9351 13.2322 70.9351 15.0129V15.258C70.9351 15.7049 70.5728 16.0672 70.1259 16.0672H67.1756C66.7287 16.0672 66.3664 15.7049 66.3664 15.258V15.0129C66.3664 14.0757 66.1789 13.326 65.8041 12.7637C65.4526 12.1779 64.9372 11.7562 64.2577 11.4985C63.5783 11.2173 62.7699 11.0767 61.8328 11.0767C60.427 11.0767 59.3844 11.3462 58.7049 11.8851C58.0489 12.4005 57.7209 13.1151 57.7209 14.0288C57.7209 14.638 57.8732 15.1534 58.1777 15.5752C58.5058 15.9969 58.9861 16.3484 59.6187 16.6296C60.2513 16.9107 61.0596 17.1567 62.0436 17.3675L62.852 17.5433C64.6092 17.9181 66.1321 18.3985 67.4207 18.9842C68.7327 19.5699 69.7519 20.3431 70.4782 21.3037C71.2046 22.2643 71.5677 23.4943 71.5677 24.9939C71.5677 26.4933 71.1811 27.8171 70.408 28.9652C69.6582 30.0898 68.5804 30.9801 67.1747 31.6361C65.7923 32.2687 64.1523 32.585 62.2545 32.585Z" fill="#F8FCFC"/>
<path d="M75.8327 11.7071C75.3858 11.708 75.0234 12.0703 75.0234 12.5172V31.2839C75.0234 31.7309 75.3858 32.0931 75.8327 32.0931H90.24C90.6869 32.0931 91.0492 31.7309 91.0492 31.2839V28.6851C91.0492 28.2381 90.6869 27.8759 90.24 27.8759H79.6625V21.7959H89.0451C89.492 21.7959 89.8543 21.4336 89.8543 20.9866V18.3878C89.8543 17.9409 89.492 17.5786 89.0451 17.5786H79.6625V12.3693C79.7087 12.0305 79.9874 11.7613 80.3426 11.7095H90.0291C90.476 11.7095 90.8384 11.3472 90.8384 10.9002V8.30144C90.8384 7.8545 90.476 7.49219 90.0291 7.49219H80.469C80.0226 7.49219 79.6605 7.85374 79.6598 8.3002L79.6558 10.932C79.6558 11.3569 79.2928 11.7005 78.844 11.7005C77.8385 11.7005 76.8363 11.7051 75.8327 11.7071Z" fill="#F8FCFC"/>
<path fill-rule="evenodd" clip-rule="evenodd" d="M37.142 22.3764C37.0852 22.7801 36.7207 23.0909 36.2785 23.0909H33.3751C33.3423 23.0909 33.3099 23.0926 33.2781 23.0959C32.8474 23.1143 32.5039 23.4692 32.5039 23.9044V31.2839C32.5039 31.7309 32.8662 32.0931 33.3132 32.0931H36.3337C36.7806 32.0931 37.1429 31.7309 37.1429 31.2839V31.1655C37.1474 31.1316 37.1497 31.0971 37.1497 31.0621V23.9156C37.1497 23.4943 37.5223 23.0962 37.9522 23.0962H42.6255C44.1249 23.0962 45.4604 22.7917 46.6319 22.1825C47.8268 21.5499 48.764 20.6713 49.4434 19.5467C50.1463 18.3986 50.4978 17.0632 50.4978 15.5402V15.0482C50.4978 13.5018 50.158 12.1664 49.4786 11.0418C48.8225 9.91714 47.8971 9.05025 46.7022 8.44108C45.5307 7.80848 44.1718 7.49219 42.6255 7.49219H33.3132C32.8663 7.49219 32.5039 7.85455 32.504 8.30152L32.505 18.0697C32.505 18.5167 32.8673 18.8789 33.3142 18.8789C33.8235 18.8789 34.3326 18.8797 34.8419 18.8805H34.8429C35.3528 18.8813 35.8629 18.8821 36.3735 18.8821C36.7984 18.8821 37.142 19.245 37.142 19.6939V20.5996V22.3764ZM37.1429 11.7095V18.1111C37.1619 18.5169 37.4621 18.8437 37.8423 18.8789H42.1685C43.2698 18.8789 44.1601 18.5744 44.8396 17.9652C45.519 17.356 45.8587 16.5242 45.8587 15.4699V15.1185C45.8587 14.0642 45.519 13.2324 44.8396 12.6232C44.1601 12.0141 43.2698 11.7095 42.1685 11.7095H37.1429Z" fill="#F8FCFC"/>
<g clip-path="url(#clip0_1702_315)">
<path d="M27.5401 21.3917C27.5401 21.856 27.2357 22.2416 26.8336 22.3307C26.7762 22.3431 26.7169 22.3494 26.6556 22.3494H23.7017C23.2117 22.3494 22.8154 22.7785 22.8154 23.3091V26.5075C22.8154 26.8391 22.6603 27.1294 22.4248 27.3034C22.3311 27.3719 22.2238 27.4216 22.1089 27.4485C22.0515 27.461 21.9922 27.4672 21.9309 27.4672H18.977C18.487 27.4672 18.0907 27.8963 18.0907 28.4269V31.6253C18.0907 32.156 17.6944 32.585 17.2043 32.585H14.2504C13.7604 32.585 13.3641 32.156 13.3641 31.6253V28.4269C13.3641 27.8963 13.7604 27.4672 14.2504 27.4672H17.2043C17.6944 27.4672 18.0907 27.0382 18.0907 26.5075V23.3091C18.0907 22.7785 18.487 22.3494 18.977 22.3494H21.9309C22.421 22.3494 22.8173 21.9203 22.8173 21.3897V17.2315C22.8173 14.4125 20.7115 12.1241 18.1079 12.1158C15.5063 12.1261 13.3985 14.4125 13.3985 17.2315V21.3897C13.3985 21.9203 13.0022 22.3494 12.5122 22.3494H9.55828C9.06819 22.3494 8.67192 22.7785 8.67192 23.3091V31.6253C8.67192 32.156 8.27565 32.585 7.78556 32.585H4.83167C4.34159 32.585 3.94531 32.156 3.94531 31.6253V23.3091C3.94531 22.7785 4.34159 22.3494 4.83167 22.3494H7.78556C8.27565 22.3494 8.67192 21.9203 8.67192 21.3897V17.2129C8.67192 11.5727 12.895 7 18.106 7C23.317 7 27.5401 11.5727 27.5401 17.2149V21.3917Z" fill="#F8FCFC"/>
</g>
<defs>
<clipPath id="clip0_1702_315">
<rect width="23.919" height="25.585" fill="white" transform="translate(3.94531 7)"/>
</clipPath>
</defs>
</svg>
