<svg width="320" height="134" viewBox="0 0 320 134" fill="none" xmlns="http://www.w3.org/2000/svg">
<path d="M106.916 45.4277C103.618 45.4277 100.438 45.8379 99.1426 46.1893C97.2583 46.7163 96.7869 47.5362 96.4335 49.2345L88.9546 83.5541C88.8367 84.257 88.7188 84.8427 88.7188 85.4283C88.7188 87.1283 89.838 88.2393 91.6633 88.2393C93.6659 88.2393 94.4903 86.9511 94.9027 84.96L97.0224 75.1794C98.4947 75.355 100.438 75.5305 103.206 75.5305C115.397 75.5305 122.993 68.9715 122.993 59.0736C122.994 50.4058 116.928 45.4277 106.916 45.4277ZM102.912 69.9077C101.027 69.9077 99.555 69.8495 98.2002 69.6736L102.146 51.4598C103.383 51.2838 105.209 51.0496 107.093 51.0496C113.571 51.0496 116.869 54.0952 116.869 59.1319C116.869 65.5744 112.158 69.9082 102.91 69.9082L102.912 69.9077Z" fill="white"/>
<path d="M298.783 76.9386C297.782 76.9386 297.134 77.5243 295.898 78.8711C293.718 81.0968 292.364 82.3263 290.657 82.3263C289.125 82.3263 288.3 81.0968 288.3 79.1053C288.3 77.9926 288.536 76.6458 288.831 75.1817L291.01 64.991H297.549C299.61 64.991 300.847 63.8197 300.847 61.7113C300.847 60.54 300.082 59.6615 298.315 59.6615H292.187L293.248 54.9177C293.365 54.2152 293.483 53.5709 293.483 52.9852C293.483 51.3451 292.364 50.1738 290.539 50.1738C288.595 50.1738 287.712 51.4624 287.3 53.4536L285.945 59.6615H283.177C281.057 59.6615 279.82 60.8328 279.82 62.9413C279.82 64.1126 280.645 64.991 282.411 64.991H284.826L282.646 75.0635C282.411 76.1762 282.117 77.9918 282.117 79.866C282.117 84.6099 284.59 88.0651 289.89 88.0651C292.953 88.0651 295.662 86.5423 297.723 84.7267C299.725 82.9698 301.197 80.8032 301.197 79.3973C301.198 78.0513 300.139 76.9386 298.783 76.9386Z" fill="white"/>
<path d="M163.336 48.8856C163.336 47.1856 162.158 46.0742 160.332 46.0742C158.389 46.0742 157.506 47.3628 157.093 49.3539L149.732 83.3807C149.555 84.0837 149.438 84.6693 149.438 85.255C149.438 86.955 150.615 88.0659 152.382 88.0659C154.384 88.0659 155.268 86.7773 155.68 84.7862L163.043 50.7594C163.159 50.0569 163.336 49.4712 163.336 48.8856Z" fill="white"/>
<path d="M268.458 59.0758C259.036 59.0758 252.616 68.388 252.616 77.2314C252.616 77.3971 252.62 77.5608 252.625 77.724C251.148 79.9552 249.26 82.2681 247.964 82.2681C247.021 82.2681 246.668 81.3896 246.668 80.0423C246.668 78.4027 247.138 75.65 247.669 73.2487L252.558 50.7594C252.675 50.0569 252.793 49.4712 252.793 48.8856C252.793 47.1856 251.674 46.0742 249.848 46.0742C247.846 46.0742 247.021 47.3628 246.609 49.3539L243.96 61.5357C242.546 60.0716 240.483 59.0758 237.363 59.0758C231.105 59.0758 224.811 63.8668 222.358 71.2138C219.657 78.1592 217.243 82.2681 215.338 82.2681C214.632 82.2681 214.219 81.6824 214.219 80.6866C214.219 77.7584 215.868 70.6141 216.575 67.158C216.81 65.8694 216.928 65.3424 216.928 64.5808C216.928 62.0041 212.629 58.9585 207.034 58.9585C200.565 58.9585 194.706 63.0326 191.767 69.0884C187.404 76.7562 183.4 82.2693 181.417 82.2693C180.534 82.2693 180.24 81.1563 180.004 80.1018L178.532 72.0196L187.542 64.699C188.367 63.996 189.427 62.999 189.427 61.7121C189.427 60.1311 188.367 59.0771 186.777 59.0771C185.599 59.0771 184.597 59.78 183.597 60.5999L170.053 71.7259L174.588 50.7594C174.706 50.0569 174.883 49.4712 174.883 48.8856C174.883 47.1856 173.705 46.0742 171.879 46.0742C169.936 46.0742 169.053 47.3628 168.64 49.3539L161.279 83.3807C161.102 84.0837 160.984 84.6693 160.984 85.255C160.984 86.955 162.162 88.0659 163.929 88.0659C165.931 88.0659 166.814 86.7773 167.227 84.7862L168.169 80.3938L173.705 75.9428L175.06 82.7364C175.589 85.4305 177.003 88.0659 180.654 88.0659C184.287 88.0659 187.144 84.7666 190.007 80.3088C190.876 84.9779 194.216 88.0659 198.851 88.0659C203.504 88.0659 206.684 85.3132 208.745 81.6238V81.7406C208.745 85.5478 210.688 88.0659 214.104 88.0659C217.192 88.0659 219.757 86.2142 222.049 82.277C223.349 85.708 226.253 88.0659 230.297 88.0659C235.067 88.0659 238.483 85.1963 240.662 81.2136V81.5651C240.662 85.782 242.782 88.0676 246.257 88.0676C249.324 88.0676 251.933 86.2971 254.157 83.4126C255.85 86.2941 258.883 88.0676 262.982 88.0676C272.404 88.0676 278.823 78.7559 278.823 69.8538C278.823 63.5855 274.995 59.0758 268.458 59.0758ZM209.744 70.9643C208.034 78.285 204.385 82.4432 200.262 82.4432C197.494 82.4432 195.963 80.3347 195.963 77.1732C195.963 70.9652 200.498 64.2884 206.562 64.2884C208.387 64.2884 209.801 64.8159 211.038 65.577L209.744 70.9643ZM242.546 67.8618C240.661 76.4711 236.362 82.4449 231.651 82.4449C229.06 82.4449 227.529 80.4537 227.529 77.1749C227.529 70.9082 231.888 64.4074 237.717 64.4074C239.955 64.4074 241.662 65.1686 242.899 66.1644L242.546 67.8618ZM263.689 82.4436C260.273 82.4436 258.859 79.9837 258.859 76.8799C258.859 71.1989 262.805 64.6981 267.752 64.6981C271.167 64.6981 272.581 67.158 272.581 70.2618C272.58 76.0014 268.635 82.4436 263.689 82.4436Z" fill="white"/>
<path d="M137.654 59.0742C128.231 59.0742 121.812 68.3864 121.812 77.2298C121.812 83.5546 125.64 88.0643 132.177 88.0643C141.6 88.0643 148.019 78.7526 148.019 69.8505C148.019 63.5839 144.19 59.0742 137.654 59.0742ZM132.884 82.442C129.468 82.442 128.055 79.9821 128.055 76.8783C128.055 71.1973 132.001 64.6965 136.948 64.6965C140.363 64.6965 141.777 67.1564 141.777 70.2602C141.777 75.9998 137.831 82.442 132.884 82.442Z" fill="white"/>
<path d="M47.7416 49.064C53.743 49.064 58.6081 46.2489 58.6081 42.7762C58.6081 39.3035 53.743 36.4883 47.7416 36.4883C41.7401 36.4883 36.875 39.3035 36.875 42.7762C36.875 46.2489 41.7401 49.064 47.7416 49.064Z" fill="white"/>
<path d="M47.7416 96.4254C53.743 96.4254 58.6081 93.6102 58.6081 90.1375C58.6081 86.6648 53.743 83.8496 47.7416 83.8496C41.7401 83.8496 36.875 86.6648 36.875 90.1375C36.875 93.6102 41.7401 96.4254 47.7416 96.4254Z" fill="white"/>
<path d="M32.5879 57.7593C35.5886 52.5906 35.5696 46.993 32.5454 45.2567C29.5212 43.5203 24.6371 46.3027 21.6364 51.4714C18.6357 56.6401 18.6547 62.2377 21.6789 63.974C24.703 65.7104 29.5872 62.9279 32.5879 57.7593Z" fill="white"/>
<path d="M73.8379 81.4409C76.8386 76.2723 76.8196 70.6746 73.7954 68.9383C70.7713 67.2019 65.8871 69.9844 62.8864 75.153C59.8857 80.3217 59.9047 85.9193 62.9289 87.6557C65.953 89.392 70.8372 86.6096 73.8379 81.4409Z" fill="white"/>
<path d="M32.5454 87.6555C35.5696 85.9191 35.5886 80.3215 32.5879 75.1528C29.5872 69.9842 24.703 67.2017 21.6789 68.9381C18.6547 70.6744 18.6357 76.2721 21.6364 81.4407C24.6371 86.6094 29.5212 89.3918 32.5454 87.6555Z" fill="white"/>
<path d="M73.7954 63.9758C76.8196 62.2394 76.8386 56.6418 73.8379 51.4732C70.8372 46.3045 65.953 43.5221 62.9289 45.2584C59.9047 46.9948 59.8857 52.5924 62.8864 57.761C65.8871 62.9297 70.7713 65.7121 73.7954 63.9758Z" fill="white"/>
</svg>
