<svg width="97" height="40" viewBox="0 0 97 40" fill="none" xmlns="http://www.w3.org/2000/svg">
<path d="M23.5316 15.3534V11.7627H38.4363V15.0824L28.6805 23.822H38.9106V27.4126H22.9219V24.1607L32.8809 15.3534H23.5316Z" fill="white"/>
<path d="M95.6164 19.6212C95.6164 22.3989 94.7356 24.4991 92.9064 25.9218C91.2127 27.2768 88.706 27.9543 85.3863 27.9543C82.0666 27.9543 79.5599 27.2768 77.8662 25.9218C76.037 24.4991 75.1562 22.3311 75.1562 19.6212C75.1562 16.8435 76.037 14.7433 77.8662 13.3205C79.6277 11.9656 82.1344 11.2881 85.3863 11.2881C88.6383 11.2881 91.145 11.9656 92.9064 13.3205C94.6679 14.7433 95.6164 16.8435 95.6164 19.6212ZM85.3863 14.7433C83.9636 14.7433 82.8119 15.1498 82.0666 15.895C81.1859 16.7757 80.7794 17.9952 80.7794 19.6212C80.7794 21.2471 81.1859 22.4666 82.0666 23.3474C82.8796 24.1603 83.9636 24.4991 85.3863 24.4991C86.809 24.4991 87.9608 24.0926 88.706 23.3474C89.5867 22.4666 89.9932 21.2471 89.9932 19.6212C89.9932 17.9952 89.5867 16.7757 88.706 15.895C87.9608 15.082 86.809 14.7433 85.3863 14.7433Z" fill="white"/>
<path d="M54.0856 11.8301V20.3664V20.4342C54.0856 24.0248 52.0532 24.2958 50.495 24.2958C48.9367 24.2958 46.9043 24.0248 46.9043 20.4342V20.3664V11.8301H41.4844V21.3826V21.4504C41.4844 21.4504 41.4844 21.4504 41.4844 21.3826C41.4844 25.7186 43.7201 27.1413 46.9043 27.6155C47.9883 27.751 49.2077 27.8188 50.495 27.8188C51.7822 27.8188 52.9339 27.751 54.0856 27.6155C57.2698 27.1413 59.5055 25.7186 59.5055 21.3826C59.5055 21.3826 59.5055 21.3826 59.5055 21.4504V21.3826V11.8301H54.0856Z" fill="white"/>
<path d="M68.248 11.7627V15.4211H62.8281V27.4126H68.248V15.4211H74.9552V11.7627H68.248Z" fill="white"/>
<path d="M15.0634 11.7617H2.59766V15.3524H15.0634V11.7617Z" fill="white"/>
<path d="M15.1306 15.3525V17.114C12.1496 17.114 7.74595 17.114 5.78123 17.5205C5.23924 17.656 4.69725 17.7915 4.29076 17.927C4.08751 17.9947 3.88427 18.0625 3.68102 18.198C3.41003 18.3335 3.13903 18.5367 2.86804 18.74C2.73254 18.8755 2.59704 18.9432 2.52929 19.0787C2.2583 19.3497 2.1228 19.6885 1.9873 20.0272C1.85181 20.1627 1.71631 20.2982 1.71631 20.4337C1.51306 20.9757 1.44531 21.5177 1.44531 22.1952C1.44531 23.9566 2.1228 25.3116 3.41003 26.2601C4.49401 27.0053 6.05223 27.4118 8.08469 27.4118H20.5505V15.3525H15.1306ZM15.1306 24.2954H10.0494C8.62668 24.2954 7.61045 24.0921 7.13621 23.6179C6.72972 23.2791 6.59422 22.8049 6.59422 22.2629C6.59422 21.6532 6.79747 21.1789 7.13621 20.9079C7.5427 20.5014 8.42344 20.2982 9.77841 20.2982H15.1306V23.8889V24.2954Z" fill="white"/>
</svg>
