<svg width="96" height="40" viewBox="0 0 96 40" fill="none" xmlns="http://www.w3.org/2000/svg">
<path d="M10.1486 20.4841C11.4718 20.0956 12.3524 18.9901 12.3187 17.7599C12.3105 16.9458 11.8987 16.1756 11.1919 15.6522C10.6038 15.1949 9.86685 15 8.92264 15H4.55318V16.209H2V17.7997H8.98579V16.3279C9.40082 16.3149 9.80996 16.422 10.1486 16.6365C10.5337 16.907 10.7448 17.3264 10.7142 17.7599C10.7142 18.5911 10.0855 19.3268 8.81222 19.3268H4.55318V24.8746H6.25006V20.6591H8.42017L10.7299 24.8746H12.7423L10.1486 20.4841ZM86.1399 24.8746H94V24.1806H86.1399V24.8746ZM52.2523 19.6889V21.1026H54.472V24.99H56.2207L56.2297 19.6889H52.2523ZM54.3729 18.0941H56.1757C55.8196 16.4855 54.3593 15.1672 52.2456 15.1672C50.7982 15.1516 49.4557 15.8318 48.7414 16.9429C48.4665 17.3843 48.3268 17.6607 48.2772 18.806C48.2772 18.806 48.2524 19.8102 48.2524 20.1979V21.0628V25H49.9921V18.6012C50.0642 17.939 50.2174 17.7084 50.5014 17.3862C50.9215 16.9167 51.5677 16.6492 52.2456 16.6644C53.2331 16.6782 54.0954 17.2577 54.3729 18.0941ZM73.6242 24.8746H75.3211V17.8574H75.3526L80.4139 24.8746H82.0205V15H80.3216V22.0172H80.2922L75.2309 15H73.6242V24.8746ZM60.7412 21.532C60.7412 23.5841 62.5011 24.958 64.7186 24.958C66.9359 24.958 68.6958 23.5841 68.6958 21.532V15H67.0058V21.363C67.0058 22.7231 66.0165 23.4568 64.7275 23.4568C63.4385 23.4568 62.4493 22.7231 62.4493 21.363V15H60.7502L60.7412 21.532ZM37.1114 24.8825H44.2615V23.4667H38.8082V15H37.1114V24.8825ZM30.3983 24.8746H32.0973V15H30.3983V24.8746ZM22.9888 21.3392L21.3731 17.0242H21.3415L19.7191 21.3371L22.9888 21.3392ZM23.4755 22.6713H19.2323L18.3692 24.8746H16.5664L20.6475 15H22.0627L26.1325 24.8746H24.3296L23.4755 22.6713Z" fill="#F8FCFC"/>
</svg>
