<svg width="96" height="40" viewBox="0 0 96 40" fill="none" xmlns="http://www.w3.org/2000/svg">
<path d="M13.4743 18.639H16.0534V6.76456H20.5082V4.62197H9V6.76456H13.4743V18.639Z" fill="#FAFAFB"/>
<path d="M26.3123 16.5765H26.3513V16.997C26.3513 18.0382 26.9961 18.639 28.1684 18.639H29.8487V16.5765H29.4384C28.9109 16.5765 28.7155 16.3762 28.7155 15.8356V11.1098C28.7155 8.88715 27.4259 7.28521 24.163 7.28521C20.9391 7.28521 19.4346 8.82708 19.2783 11.19H21.8575C21.9356 9.96848 22.8148 9.28763 24.2021 9.28763C25.3549 9.28763 26.2536 9.76823 26.2536 10.7694C26.2536 11.5304 25.7652 11.9709 24.6906 11.9709H22.9516C20.8219 11.9709 18.868 12.932 18.868 15.4551C18.868 17.7579 20.4897 18.9794 22.5804 18.9794C24.2411 18.9794 25.6284 18.2184 26.3123 16.5765ZM21.5058 15.355C21.5058 14.4939 22.0528 13.8332 23.3423 13.7931L24.1435 13.753C25.2572 13.713 25.8824 13.3726 26.2145 12.6918H26.2536V13.713C26.2536 15.9958 24.8078 16.9369 23.3423 16.9369C22.0528 16.9369 21.5058 16.216 21.5058 15.355Z" fill="#FAFAFB"/>
<path d="M31.0893 18.639H33.5512V3H31.0893V18.639Z" fill="#FAFAFB"/>
<path d="M40.3905 18.9794C43.0478 18.9794 44.9234 17.4576 45.3924 15.2549H42.8524C42.5202 16.3161 41.6214 16.977 40.4296 16.977C38.7883 16.977 37.7528 15.7355 37.6746 13.8531H45.5292V12.7118C45.5292 9.16749 43.3213 7.28521 40.371 7.28521C37.2643 7.28521 35.0565 9.46785 35.0565 13.1323C35.0565 16.7767 37.2057 18.9794 40.3905 18.9794ZM37.6942 12.031C37.8505 10.4891 38.7297 9.28763 40.4296 9.28763C42.1099 9.28763 43.0478 10.429 43.0478 12.031H37.6942Z" fill="#FAFAFB"/>
<path d="M47.0126 18.639H49.4745V12.3313C49.4745 10.1286 50.6859 9.30766 51.9168 9.30766C53.1282 9.30766 53.9488 10.1086 53.9488 12.031V18.639H56.4107V11.7306C56.4107 8.80705 54.9648 7.28521 52.7765 7.28521C51.2916 7.28521 50.1192 8.00608 49.4745 9.30766H49.4354V7.62562H47.0126V18.639Z" fill="#FAFAFB"/>
<path d="M62.196 18.639H65.0486V16.5765H63.0361C62.2155 16.5765 61.7465 16.216 61.7465 15.2749V9.68809H64.99V7.62561H61.7465V4.62198H59.2651V7.62561H57.1941V9.68809H59.2651V15.6554C59.2651 17.6578 60.2812 18.639 62.196 18.639Z" fill="#FAFAFB"/>
<path d="M9.99654 35.6596H12.5756V30.3732H16.1512C18.8866 30.3732 20.86 28.8113 20.86 26.028C20.86 23.2646 18.8866 21.6426 16.1512 21.6426H9.99654V35.6596ZM12.5756 28.2306V23.7853H15.6041C17.2063 23.7853 18.2028 24.6663 18.2028 26.028C18.2028 27.3896 17.2063 28.2306 15.6041 28.2306H12.5756Z" fill="#FAFAFB"/>
<path d="M22.2408 35.6597H24.7027V29.332C24.7027 27.5299 25.3865 26.7089 26.8714 26.7089H28.3564V24.6464H27.3208C25.8945 24.6464 25.2107 25.2871 24.7027 26.3884H24.6636V24.6464H22.2408V35.6597Z" fill="#FAFAFB"/>
<path d="M33.9484 36C36.9768 36 39.3996 33.9175 39.3996 30.153C39.3996 26.3883 36.9768 24.3058 33.9484 24.3058C30.9199 24.3058 28.497 26.3883 28.497 30.153C28.497 33.9175 30.9199 36 33.9484 36ZM31.1348 30.153C31.1348 27.6098 32.2485 26.3083 33.9484 26.3083C35.6482 26.3083 36.7619 27.6098 36.7619 30.153C36.7619 32.696 35.6482 33.9976 33.9484 33.9976C32.2485 33.9976 31.1348 32.696 31.1348 30.153Z" fill="#FAFAFB"/>
<path d="M44.6318 35.6596H47.4845V33.5971H45.472C44.6514 33.5971 44.1825 33.2367 44.1825 32.2956V26.7088H47.4259V24.6463H44.1825V21.6426H41.7011V24.6463H39.63V26.7088H41.7011V32.676C41.7011 34.6784 42.7171 35.6596 44.6318 35.6596Z" fill="#FAFAFB"/>
<path d="M53.268 36C56.2965 36 58.7193 33.9175 58.7193 30.1529C58.7193 26.3883 56.2965 24.3058 53.268 24.3058C50.2395 24.3058 47.8168 26.3883 47.8168 30.1529C47.8168 33.9175 50.2395 36 53.268 36ZM50.4545 30.1529C50.4545 27.6098 51.5682 26.3083 53.268 26.3083C54.9679 26.3083 56.0816 27.6098 56.0816 30.1529C56.0816 32.696 54.9679 33.9976 53.268 33.9976C51.5682 33.9976 50.4545 32.696 50.4545 30.1529Z" fill="#FAFAFB"/>
<path d="M65.2076 36C68.197 36 69.9359 34.0376 70.2486 31.6747H67.7085C67.5718 32.716 66.7902 33.9976 65.2076 33.9976C63.5077 33.9976 62.394 32.5358 62.394 30.153C62.394 27.9102 63.3514 26.3083 65.2076 26.3083C66.8293 26.3083 67.6108 27.4897 67.7085 28.8513H70.2486C70.0141 26.2682 68.2947 24.3058 65.2076 24.3058C61.7883 24.3058 59.7563 26.6086 59.7563 30.153C59.7563 33.6972 61.9446 36 65.2076 36Z" fill="#FAFAFB"/>
<path d="M76.5757 36C79.6043 36 82.0266 33.9175 82.0266 30.153C82.0266 26.3883 79.6043 24.3058 76.5757 24.3058C73.547 24.3058 71.1243 26.3883 71.1243 30.153C71.1243 33.9175 73.547 36 76.5757 36ZM73.7619 30.153C73.7619 27.6098 74.8759 26.3083 76.5757 26.3083C78.2754 26.3083 79.3894 27.6098 79.3894 30.153C79.3894 32.696 78.2754 33.9976 76.5757 33.9976C74.8759 33.9976 73.7619 32.696 73.7619 30.153Z" fill="#FAFAFB"/>
<path d="M83.5379 35.6596H86V20.0206H83.5379V35.6596Z" fill="#FAFAFB"/>
</svg>
