<svg width="96" height="40" viewBox="0 0 96 40" fill="none" xmlns="http://www.w3.org/2000/svg">
<g clip-path="url(#clip0_1702_869)">
<path fill-rule="evenodd" clip-rule="evenodd" d="M17.85 20.3657C17.85 16.4134 14.5283 13.2139 10.425 13.2139C6.32171 13.2139 3 16.4134 3 20.3657C3 24.318 6.32171 27.5175 10.425 27.5175C14.5283 27.5175 17.85 24.318 17.85 20.3657ZM5.21875 18.4168L8.68312 17.5684L8.93318 18.507L5.46885 19.3555L5.21875 18.4168ZM12.1327 17.5801L11.8828 18.5187L15.3472 19.3665L15.5971 18.4278L12.1327 17.5801ZM7.89844 23.6845C8.75348 23.9453 9.64736 24.0944 10.5024 24.0944C11.3574 24.0944 12.2513 23.9826 13.1063 23.6845L12.7954 22.7529C11.2408 23.2373 9.76396 23.2373 8.20934 22.7529L7.89844 23.6845Z" fill="#F8FCFC"/>
<path d="M21.2812 18.1924H23.8637V25.9465H21.2812V18.1924Z" fill="#F8FCFC"/>
<path d="M22.6285 16.8306C23.4049 16.8306 24.0343 16.2252 24.0343 15.4783C24.0343 14.7314 23.4049 14.126 22.6285 14.126C21.8521 14.126 21.2227 14.7314 21.2227 15.4783C21.2227 16.2252 21.8521 16.8306 22.6285 16.8306Z" fill="#F8FCFC"/>
<path d="M27.9118 18.1922L28.1146 19.5762L28.0778 19.452C28.3606 18.967 28.7603 18.5731 29.2767 18.2714C29.7932 17.9698 30.4265 17.8184 31.1767 17.8184C31.9391 17.8184 32.575 18.0348 33.0851 18.4666C33.5955 18.8984 33.8563 19.4579 33.8699 20.144V25.9463H31.2874V21.0667C31.2751 20.7236 31.1792 20.4492 31.0021 20.241C30.8237 20.034 30.5249 19.9311 30.1081 19.9311C29.7145 19.9311 29.3702 20.0553 29.075 20.3037C28.7799 20.5521 28.5524 20.8893 28.3925 21.3151C28.2327 21.741 28.1528 22.2319 28.1528 22.7878V25.9463H25.5703V18.1922H27.9118Z" fill="#F8FCFC"/>
<path d="M36.0943 14.7852H38.6767V18.1565H40.6321V20.0906H38.6767V25.9461H36.0943V20.0906H34.8398V18.1565H36.0943V14.7852Z" fill="#F8FCFC"/>
<path d="M45.8626 26.1592C44.8787 26.1592 44.0463 25.9817 43.3637 25.6268C42.6811 25.272 42.161 24.7811 41.8044 24.1541C41.448 23.5272 41.2695 22.8056 41.2695 21.9894C41.2695 21.2087 41.4786 20.5048 41.8966 19.8778C42.3148 19.2509 42.8743 18.7505 43.5752 18.3779C44.2761 18.0053 45.0571 17.8184 45.9178 17.8184C47.0739 17.8184 48.0232 18.1413 48.7671 18.786C49.5114 19.4307 49.9947 20.3628 50.2156 21.5801L43.9441 23.4964L43.3723 22.1479L47.9101 20.6751L47.3752 20.9058C47.2768 20.5982 47.1011 20.3285 46.85 20.099C46.5981 19.8684 46.2191 19.7525 45.7149 19.7525C45.3338 19.7525 44.998 19.8388 44.7091 20.0103C44.42 20.1819 44.1987 20.4243 44.0451 20.7378C43.8913 21.0513 43.8139 21.4204 43.8139 21.8474C43.8139 22.3324 43.906 22.7381 44.0906 23.0623C44.2749 23.3876 44.5272 23.6336 44.8468 23.7992C45.1667 23.9648 45.5232 24.0477 45.9166 24.0477C46.1996 24.0477 46.4725 24.0003 46.7369 23.9057C47.0012 23.811 47.2632 23.6869 47.5214 23.5331L48.6649 25.3784C48.2347 25.615 47.7713 25.8043 47.2718 25.9463C46.775 26.0882 46.3053 26.1592 45.8626 26.1592Z" fill="#F8FCFC"/>
<path d="M53.711 18.1923L53.9508 20.3216L53.8959 20.0022C54.1295 19.5408 54.449 19.1481 54.8549 18.8216C55.2608 18.4963 55.6626 18.2444 56.0636 18.0669C56.4636 17.8895 56.7669 17.8008 56.9762 17.8008L56.847 20.2849C56.2445 20.2139 55.7279 20.3085 55.2977 20.5688C54.867 20.829 54.5354 21.1721 54.3014 21.598C54.0678 22.0238 53.9508 22.4615 53.9508 22.911V25.9452H51.3867V18.1911H53.711V18.1923Z" fill="#F8FCFC"/>
<path d="M59.6036 25.9467V20.3574H58.2383V18.1571H59.6036V15.4601C59.6036 14.4427 59.9082 13.6123 60.5157 12.9664C61.1246 12.3218 62.0061 12 63.1622 12C63.5064 12 63.8916 12.0509 64.3155 12.1502C64.7399 12.2508 65.1116 12.414 65.4324 12.6376L64.3439 14.4297C64.221 14.2759 64.077 14.173 63.911 14.1198C63.7449 14.0666 63.5888 14.0405 63.4403 14.0405C63.0713 14.0405 62.7702 14.1588 62.5362 14.3954C62.3027 14.632 62.1857 15.0105 62.1857 15.531V18.1571H64.6206V20.3574H62.1857V25.9467H59.6036Z" fill="#F8FCFC"/>
<path d="M69.3376 26.1601C68.5875 26.1601 67.9089 26.0146 67.3 25.726C66.6912 25.4361 66.2079 24.989 65.8515 24.3857C65.4946 23.7824 65.3164 23.0135 65.3164 22.079C65.3164 21.2037 65.5009 20.4466 65.8699 19.8078C66.2389 19.169 66.7245 18.6757 67.327 18.3268C67.9296 17.9778 68.569 17.8027 69.2458 17.8027C70.045 17.8027 70.6498 17.9305 71.062 18.1848C71.4738 18.4392 71.8144 18.7207 72.0862 19.0271L71.9755 19.3287L72.2154 18.1931H74.6134V25.9472H72.0309V24.2615L72.2334 24.7939C72.2091 24.7939 72.1353 24.8624 72.0124 24.9985C71.8896 25.1345 71.7073 25.2942 71.4688 25.4776C71.229 25.6609 70.9338 25.8206 70.5832 25.9567C70.2331 26.0927 69.8173 26.1601 69.3376 26.1601ZM70.0756 24.1373C70.383 24.1373 70.6597 24.0923 70.9054 24.0048C71.1516 23.9161 71.3667 23.786 71.5512 23.6145C71.7357 23.4429 71.8959 23.2277 72.0309 22.9662V21.0676C71.9323 20.8074 71.7847 20.5862 71.5881 20.4028C71.3914 20.2194 71.1579 20.0775 70.8874 19.977C70.6165 19.8764 70.3155 19.8267 69.9834 19.8267C69.6144 19.8267 69.2737 19.919 68.9601 20.1024C68.6464 20.2857 68.3971 20.5365 68.2122 20.8571C68.0281 21.1764 67.9359 21.5432 67.9359 21.9572C67.9359 22.3712 68.0344 22.7438 68.2311 23.075C68.4277 23.4062 68.6887 23.6665 69.0154 23.8558C69.3412 24.0427 69.6945 24.1373 70.0756 24.1373Z" fill="#F8FCFC"/>
<path d="M83.4019 25.2542C83.0451 25.5264 82.5987 25.7452 82.0636 25.9108C81.5286 26.0764 81.0034 26.1592 80.4859 26.1592C79.5639 26.1592 78.762 25.9959 78.0784 25.6718C77.3958 25.3465 76.867 24.8793 76.4917 24.2701C76.1169 23.6609 75.9297 22.9251 75.9297 22.0604C75.9297 21.1968 76.1326 20.4611 76.5385 19.8519C76.9444 19.2427 77.4759 18.7777 78.1347 18.4596C78.7926 18.1401 79.4838 17.9805 80.2105 17.9805C80.9359 17.9805 81.5659 18.0751 82.1019 18.2644C82.6369 18.4536 83.0941 18.702 83.4757 19.0096L82.2211 20.6065C82.0488 20.4764 81.8116 20.3439 81.5115 20.2067C81.2104 20.0707 80.8563 20.0021 80.4517 20.0021C80.0949 20.0021 79.7691 20.0908 79.4739 20.2682C79.1787 20.4457 78.9451 20.6882 78.7728 20.9957C78.6009 21.3033 78.5149 21.6582 78.5149 22.0604C78.5149 22.4389 78.6072 22.7879 78.7917 23.1072C78.9757 23.4266 79.2304 23.6786 79.5562 23.8619C79.882 24.0453 80.2672 24.1376 80.7096 24.1376C80.9926 24.1376 81.2545 24.0997 81.4944 24.0217C81.7342 23.9448 81.9399 23.8348 82.1131 23.694L83.4019 25.2542Z" fill="#F8FCFC"/>
<path d="M88.6474 26.1592C87.6637 26.1592 86.8312 25.9817 86.1485 25.6268C85.4659 25.272 84.9457 24.7811 84.5893 24.1541C84.2324 23.5272 84.0547 22.8056 84.0547 21.9894C84.0547 21.2087 84.2635 20.5048 84.6815 19.8778C85.0996 19.2509 85.6594 18.7505 86.36 18.3779C87.0611 18.0053 87.8419 17.8184 88.7027 17.8184C89.8588 17.8184 90.8083 18.1413 91.5521 18.786C92.296 19.4307 92.7793 20.3628 93.0007 21.5801L86.729 23.4964L86.1571 22.1479L90.6949 20.6751L90.1603 20.9058C90.0617 20.5982 89.8858 20.3285 89.6351 20.099C89.3827 19.8684 89.0042 19.7525 88.4998 19.7525C88.1186 19.7525 87.7829 19.8388 87.494 20.0103C87.2051 20.1819 86.9837 20.4243 86.8298 20.7378C86.6764 21.0513 86.599 21.4204 86.599 21.8474C86.599 22.3324 86.6908 22.7381 86.8753 23.0623C87.0598 23.3876 87.3118 23.6336 87.6317 23.7992C87.9512 23.9648 88.3081 24.0477 88.7014 24.0477C88.9844 24.0477 89.2576 24.0003 89.5217 23.9057C89.7863 23.811 90.0482 23.6869 90.3065 23.5331L91.45 25.3784C91.0198 25.615 90.5558 25.8043 90.0568 25.9463C89.5609 26.0882 89.0902 26.1592 88.6474 26.1592Z" fill="#F8FCFC"/>
</g>
<defs>
<clipPath id="clip0_1702_869">
<rect width="90" height="15.5172" fill="white" transform="translate(3 12)"/>
</clipPath>
</defs>
</svg>
