<svg xmlns="http://www.w3.org/2000/svg" width="1440" height="744" fill="none">
  <g clip-path="url(#a)">
    <path fill="#fff" stroke="#000" stroke-miterlimit="10" stroke-width="12" d="m1058.18 773.628-239.513 137.32-28.207-155.16-3.797-20.923c-7.16-39.37-39.772-69.083-79.63-72.555l-34.716-3.017-38.079-138.427v-58.101l251.821-9.224 45.955-1.671 19.875 133.825 106.291 187.933Z"/>
    <path fill="#000" stroke="#000" stroke-miterlimit="10" stroke-width="12" d="M862.911 538.899v97.233h-91.563v-97.233s0-41.389 45.781-41.389c45.782 0 45.782 41.389 45.782 41.389Zm74.851 156.205h-66.047v89.853h66.047v-89.853Z"/>
    <path fill="#fff" stroke="#000" stroke-miterlimit="10" stroke-width="12" d="M1544.99 549.277c3.42 21.18-20.5 257.967-20.5 257.967l-466.31-33.617-106.291-187.933-19.875-133.825-45.955 1.671v-86.772s407.851-6.12 616.161 135.519c0 0 39.36 25.81 42.77 46.99Z"/>
    <path fill="#000" d="M1106.85 745.718V643.971s0-54.564 51.51-54.564 51.51 54.564 51.51 54.564v101.747"/>
    <path stroke="#000" stroke-miterlimit="10" stroke-width="12" d="M1106.85 745.718V643.971s0-54.564 51.51-54.564 51.51 54.564 51.51 54.564v101.747"/>
    <path fill="#000" d="M1315.26 763.097V661.63s0-54.413 43.04-54.413c43.05 0 43.05 54.413 43.05 54.413v101.467"/>
    <path stroke="#000" stroke-miterlimit="10" stroke-width="12" d="M1315.26 763.097V661.63s0-54.413 43.04-54.413c43.05 0 43.05 54.413 43.05 54.413v101.467"/>
    <path fill="#000" stroke="#000" stroke-miterlimit="10" stroke-width="12" d="m1022.32 436.161 73.96 5.86v65.48h-73.96v-71.34Zm250.94 32.795-71.31-14.324v60.119l71.31 8.595v-54.39Zm136.81 41.661-51.22-10.225v42.917l51.22 6.136v-38.828Z"/>
    <path fill="#fff" stroke="#000" stroke-miterlimit="10" stroke-width="12" d="M451.358 193.765c-95.165 13.261-381.14 113.133-530.436 266.833V320.524C5.378 173.364 308.827 36.13 371.36 22.934c62.857 101.618 79.998 170.831 79.998 170.831Z"/>
    <path fill="#fff" stroke="#000" stroke-miterlimit="10" stroke-width="12" d="M634.238 433.161v44.731c-82.841-5.013-554.232 86.166-725.078 164.039l3.588-157.348 16.346-37.607C82.433 311.996 356.185 207.029 451.35 193.768h.022l26.427-4.688a22.334 22.334 0 0 1 21.221 7.9 22.418 22.418 0 0 1 4.947 15.909l-3.711 45.947c-2.083 25.828.912 51.785 8.853 76.419l17.814 55.388 61.968-4.536a40.464 40.464 0 0 1 37.319 18.969 53.052 53.052 0 0 1 8.028 28.085Z"/>
    <path fill="#fff" stroke="#000" stroke-miterlimit="10" stroke-width="12" d="M790.462 755.787s-761.443 16.557-898.419 31.837l18.526-144.98c351.446-164.752 640.83-169.766 723.671-164.752v42.973l38.079 138.427 34.716 3.017c39.859 3.472 72.47 33.185 79.63 72.555l3.797 20.923Z"/>
    <path fill="#000" stroke="#000" stroke-miterlimit="10" stroke-width="12" d="M490.059 595.372v99.186l97.964-4.818v-96.777s0-57.471-49.579-53.239c-47.127 4.015-48.385 55.648-48.385 55.648Zm-154.59 113.771 85.271-8.465-.629-101.009s3.645-39.306-32.048-39.306c-52.594 0-50.793 50.809-50.793 50.809l-1.801 97.971Zm-66.374 11.953-.611-97.675s3.54-38.008-31.127-38.008c-51.084 0-49.334 49.132-49.334 49.132l-1.75 94.757 82.822-8.206Zm-137.304 22.487-.555-89.536s3.214-34.841-28.26-34.841c-46.378 0-44.79 45.037-44.79 45.037l-1.588 86.862 75.193-7.522ZM-66.55 788.144l75.192-7.503-.555-89.536s3.215-34.84-28.26-34.84c-46.378 0-44.79 45.037-44.79 45.037l-1.588 86.861v-.019Zm435.148-367.816v-85.73s0-46.989 38.73-46.989c41.897 0 37.449 33.663 37.449 33.663l-3.167 85.73-73.012 13.326Zm-45.71 7.62-67.306 18.427 3.168-81.932s1.909-43.82 34.282-43.82 30.485 31.123 30.485 31.123l-.629 76.202ZM202.87 457.792l-61.577 20.944 4.626-76.053s4.116-32.677 34.912-41.281c30.795-8.603 26.666 34.922 26.666 34.922l-4.627 61.446v.022ZM51.156 511.138l43.807-19.685 1.91-56.517s-2.517-24.532-20.309-19.056c-17.792 5.476-22.218 25.393-22.218 25.393l-3.19 69.865Zm-76.396-30.344-2.51 64.766 43.477-20.102 1.582-51.001S14.792 449.925-3 455.401c-17.792 5.475-22.218 25.393-22.218 25.393h-.022Z"/>
    <path fill="#fff" stroke="#000" stroke-miterlimit="16" stroke-width="12" d="m742.821 239.754-75.497-40.622 75.497 103.402 75.497-103.402-75.497 40.622Z"/>
    <path fill="#DCDCDC" d="M742.82 239.754v62.78l75.497-103.402-75.497 40.622Z" style="mix-blend-mode:darken"/>
    <path fill="#fff" stroke="#000" stroke-miterlimit="16" stroke-width="12" d="m743.128 208.35 89.476-47.947-89.476-135.156-89.476 135.156 89.476 47.947Z"/>
    <path fill="#DCDCDC" d="m743.129 208.35 89.476-47.947-89.476-135.156V208.35Z" style="mix-blend-mode:darken"/>
  </g>
  <defs>
    <clipPath id="a">
      <path fill="#fff" d="M0 0h1440v744H0z"/>
    </clipPath>
  </defs>
</svg>
