<svg xmlns="http://www.w3.org/2000/svg" width="499" height="412" fill="none">
  <g fill="#EFEBE6" fill-rule="evenodd" clip-path="url(#a)" clip-rule="evenodd">
    <path d="M260.926 113.625h178.536l-.08.08c6.678 0 12.069-5.403 12.069-12.096 0-44.676-24.701-60.643-47.631-60.723h-6.437C391.992 17.498 371.154 0 346.131 0c-25.022 0-46.022 17.66-51.332 41.127-15.609.323-29.528 7.016-38.298 18.387-9.172 11.854-11.747 27.821-7.241 45.079 1.368 5.322 6.195 9.032 11.666 9.032Zm165.502-24.193H271.225c-.241-5.968 1.287-11.129 4.345-15.16 4.344-5.646 11.988-9.033 20.516-9.033l38.057-.403-.241-24.192-13.678.16c4.505-9.757 14.482-16.611 25.907-16.611 15.69 0 28.482 12.822 28.482 28.547 0 6.612 5.23 12.015 11.828 12.096l17.218.323c15.126 0 20.838 12.338 22.769 24.273ZM12.069 412c-3.46 0-6.678-1.452-9.012-4.032C.804 405.387-.322 402 .08 398.613l28.885-267.812c3.299-49.272 58.09-91.448 142.973-109.592 6.437-1.371 12.713 2.661 14.241 9.032l37.011 156.042h.928c7.6-.214 15.392-.322 23.372-.322v.322c5.758.04 10.705 4.221 11.826 9.919l12.953 70.723h19.471c5.632 0 10.54 3.952 11.747 9.435l26.873 120.963c.805 3.548 0 7.339-2.333 10.161-2.253 2.903-5.793 4.516-9.414 4.516H12.069Zm112.803-214.613c7.677-1.717 15.724-3.243 24.136-4.577v-38.865h24.137v35.675a592.938 592.938 0 0 1 25.401-2.166l-16.341-68.876c-48.489 6.804-121.96 38.829-135.881 74.878l-4.347 40.268c14.713-12.319 34.365-22.323 58.757-29.932v-25.653h24.138v19.248ZM36.816 281.53c13.824-42.794 82.949-68.413 191.121-71.135h9.253l10.294 56.202c-5.806-.058-11.828-.075-18.019-.038v-40.036h-24.137v40.458c-10.521.31-21.317.8-32.183 1.523v-25.853h-24.137v27.858a573.117 573.117 0 0 0-24.136 2.931v-14.66h-24.138v18.786c-25.573 5.142-48.655 12.509-65.965 22.936l2.047-18.972Zm225.235 9.507c-.158 0-.315-.003-.471-.009-146.694-3.341-214.92 20.57-230.605 44.619l-5.63 52.16H52.46v-32.256h24.137v32.256h24.136v-48.385h24.138v48.385h24.136v-56.449h24.137v56.449h32.183v-64.514h24.137v64.514h74.022l-21.563-96.77H262.05ZM51.108 149.133c32.74-28.056 85.146-48.145 125.493-54.176l-11.26-47.459c-66.378 16.613-110.067 49.514-112.48 85.4l-1.753 16.235Zm274.103 117.47a470.735 470.735 0 0 1 21.088-.852l-9.268-81.02c-18.309-1.155-39.415-1.608-63.715-1.189l-.402-24.193c130.342-2.177 194.467 19.193 202.11 67.578l23.896 146.93c.564 3.467-.402 7.096-2.735 9.757-2.333 2.742-5.632 4.274-9.172 4.274l-.081-.08H342.108v-24.193h59.273l-8.156-71.307c-18.398-2.425-40.447-3.201-66.485-1.593l-1.529-24.112Zm92.855 30.471c27.468 7.192 43.009 18.774 48.768 30.085l5.938 36.456h-47.095l-7.611-66.541Zm42.491-8.461c-17.871-10.818-45.977-20.533-89.927-22.545l-9.059-79.201c67.489 7.693 86.865 26.82 89.557 43.85l9.429 57.896Z"/>
  </g>
  <defs>
    <clipPath id="a">
      <path fill="#fff" d="M0 0h499v412H0z"/>
    </clipPath>
  </defs>
</svg>
