<svg xmlns="http://www.w3.org/2000/svg" width="328" height="356">
  <path d="M191.728 289.522h-22.225V268.1c0-3.503 2.324-10.128 11.113-10.128 8.788 0 11.112 6.625 11.112 10.128v21.422Zm-60.105-20.575c-2.076-1.892-4.777-2.709-8.026-2.432-8.855.751-11.392 8.806-11.494 12.963v21.949l23.531-1.151V279.03c0-.263-.044-6.475-4.011-10.083ZM73.67 222.192c-6.566 0-8.602 6.896-8.761 10.553l-.744 18.963 17.355-4.71.141-16.703c.027-.549.058-3.591-2.085-5.847-1.421-1.497-3.409-2.256-5.906-2.256Zm-23.057 7.063c-6.663 0-8.73 6.558-8.895 10.022l-.898 19.143 15.026-5.066 1.2-.408v-1.207l.77-13.472c.124-.773.527-4.223-1.559-6.699-.89-1.058-2.59-2.313-5.644-2.313ZM29.6 241.458c-1.616-.092-3.05.382-4.144 1.383-2.076 1.896-2.25 4.996-2.262 5.443l-.78 16.967 12.57-5.597.424-12.489c.031-.448.067-2.213-1.217-3.714-1.036-1.211-2.581-1.883-4.591-1.997v.004Zm67.392-25.948c-7.65 0-9.674 7.366-9.674 11.26v19.447l18.382-3.328.7-18.691c.058-.606.213-3.538-1.846-5.869-1.652-1.87-4.197-2.819-7.566-2.819h.004Zm92.991 104.108h17.018v-21.686h-17.018v21.686Zm138.007-56.817L163.99 356l-2.643-1.501L0 262.801l2.891-4.631L163.996 0l4.52 7.239L328 262.8h-.009Zm-39.226-31.224-96.014-69.543-1.545 2.143 95.842 69.419 3.347.624-1.634-2.643h.004Zm-102.739-82.62-22.035 12.015-22.034-12.015 22.034 30.584 22.035-30.584Zm-22.106 43.7c-.513 0-1.022-.03-1.523-.087v49.402h2.657v-49.367c-.377.03-.753.052-1.134.052Zm-52.313-13.911 1.121 2.445 23.814-17.137-1.545-2.142-23.394 16.834h.004Zm18.511-23.608-1.62-2.247-25.028 8.103 1.107 2.414 25.541-8.27Zm-5.986 39.767.505 3.784 18.612-25.32-1.625-2.261-17.487 23.797h-.005Zm10.847 31.378 2.679.351 13.689-42.027-1.922-2.669-14.441 44.345h-.005Zm41.24-41.303 12.251 37.479h2.793l-13.122-40.148-1.922 2.664v.005Zm44.681 38.173 3.55.36-38.336-52.264-1.629 2.26 36.415 49.644Zm29.609-53.48-51.228-16.708-1.616 2.243 54.991 17.933-2.147-3.473v.005Zm-17.235-27.897h-31.602c.217.865.345 1.747.381 2.634h32.85l-1.629-2.634Zm-11.4-18.446-25.944 8.319 1.492 2.291 25.877-8.297-1.425-2.309v-.004Zm-10.13-16.396-21.707 15.654 1.443 2.217 21.658-15.619-1.39-2.252h-.004Zm-10.48-16.962-17.186 23.455 1.545 2.375 17.147-23.393-1.501-2.432-.005-.005Zm-24.868 11.655 1.86 2.858 11.055-33.858-1.829-2.959-11.086 33.955v.004Zm-12.409 4.868-23.784 36.554 23.784 12.972 23.783-12.972-23.783-36.554Zm-1.275-12.98c.398-.035.797-.062 1.199-.062.492 0 .974.031 1.457.084V31.878l-1.457-2.357-1.199 1.905v62.089Zm-24.107-23.793 11.25 34.315 1.855-2.853-11.272-34.376-1.837 2.919.004-.005Zm-13.87 22.038 17.506 23.986 1.545-2.375-17.532-24.021-1.519 2.414v-.004Zm-10.603 16.848 22.331 16.014 1.444-2.217-22.367-16.04-1.408 2.238v.005Zm-10.342 16.431 26.758 8.674 1.488-2.287-26.798-8.688-1.448 2.301Zm-12.193 19.367h34.183c.036-.887.164-1.769.381-2.634H93.256l-1.655 2.634h-.005ZM29.31 225.831c28.046-17.423 55.708-26.686 73.24-29.684-1.594-4.802-5.671-15.504-14.154-29.402-12.25 3.367-28.255 15.272-35.144 20.715L29.31 225.831Zm-.465 47.29c33.479-14.631 91.029-20.508 111.793-20.109V246.7a8.013 8.013 0 0 0-1.235-4.285 5.602 5.602 0 0 0-5.167-2.603l-14.729 1.067-4.277-13.174a41.952 41.952 0 0 1-1.926-16.475l.757-9.293a1.87 1.87 0 0 0-.42-1.343 1.911 1.911 0 0 0-1.807-.667l-5.671.988c-18.581 2.607-51.472 13.472-83.512 35.587L7.402 260.931l21.442 12.186v.004Zm66.843 37.985c23.898-2.524 64.554-2.046 76.291-1.848l-.195-1.067c-1.244-6.773-6.946-11.922-13.866-12.519l-8.925-.769-8.355-30.109v-6.51c-9.39-.18-27.63 1.041-47.518 3.947-16.921 2.471-40.16 6.883-58.475 14.187l19.502 11.084v-1.505c0-3.736 2.01-10.852 9.607-11.045h.044c2.63 0 4.17 1.115 5.003 2.054 2.103 2.371 1.855 5.852 1.771 6.589l-.292 13.082 10.276 5.838.367-19.802c-.013-.61.009-5.351 3.298-8.731 2.134-2.195 5.11-3.306 8.837-3.306 2.541 0 4.573.808 6.039 2.406 2.466 2.682 2.315 6.659 2.271 7.362l.137 21.962-18.023 1.773 12.202 6.936.004-.009Zm82.29 30.873-5.029-27.431c-9.045-.167-44.468-.668-69.199 1.141l33.364 18.959v-.109c-.084-.892-.447-6.291 2.94-10.075 2.134-2.384 5.224-3.591 9.195-3.591 3.972 0 7.053 1.207 9.165 3.591 3.334 3.766 2.939 9.135 2.842 10.075l.106 13.889 2.639 1.501 13.981-7.945-.004-.005Zm48.209-27.396-20.631-36.159-3.781-25.219-55.824 2.024v8.854l7.185 25.886 5.242.453c9.302.803 16.961 7.721 18.63 16.825l5.858 31.949 43.321-24.618v.005Zm36.334-25.241v4.591l55.598-31.597c-37.326-24.526-106.494-26.325-120.785-26.426v12.186l9.001-.325 4.334 28.915 20.131 35.28 7.163-4.069v-18.551c0-4.425 2.568-12.792 12.282-12.792 9.713 0 12.281 8.367 12.281 12.792l-.005-.004Zm12.937-36.839-18.094-3.6v15.86l18.094 2.16v-14.42ZM220.71 263.49h18.635v-16.619l-18.635-1.466v18.085Z"/>
</svg>
