<svg xmlns="http://www.w3.org/2000/svg" width="320" height="126" fill="none">
  <path fill="#fff" d="M104.601 38.273c10.469-27.965 42.376-34.54 56.709-33.084 8.309 0 28.044 5.119 43 15.606 14.957 10.487 17.449 32.667 16.826 42.447 2.701 6.658.623 25.593-29.29 48.065-29.913 22.472-61.902 4.37-74.158-7.491-8.725-10.195-23.557-37.578-13.087-65.543ZM214.684 6.54c1.991-5.497 8.055-6.79 10.78-6.503 1.579 0 5.33 1.006 8.173 3.068 2.843 2.062 3.317 6.422 3.199 8.344.513 1.31.118 5.031-5.568 9.449s-11.766.859-14.096-1.473c-1.658-2.004-4.478-7.387-2.488-12.884Zm-13.476.45c.606-1.672 2.452-2.066 3.281-1.979.481 0 1.622.307 2.488.934.865.627 1.009 1.954.973 2.54.156.398.036 1.53-1.694 2.875-1.731 1.345-3.582.262-4.291-.448-.504-.61-1.362-2.248-.757-3.921Z"/>
  <path fill="#000" fill-rule="evenodd" d="M147.749 117.275c-.731 0-1.462-.017-2.196-.057-11.015-.572-21.148-5.4-28.529-13.594-7.383-8.194-11.134-18.773-10.56-29.787.572-11.015 5.401-21.147 13.595-28.53 4.725-4.257 10.2-7.297 16.275-9.029l1.463 5.129c-5.285 1.508-10.052 4.153-14.168 7.861-7.136 6.432-11.341 15.254-11.84 24.847-.499 9.59 2.767 18.803 9.196 25.939 6.429 7.134 15.253 11.34 24.845 11.838 9.591.507 18.804-2.766 25.94-9.194a36.008 36.008 0 0 0 9.84-14.736l5.031 1.772a41.354 41.354 0 0 1-11.303 16.926c-7.646 6.891-17.373 10.615-27.589 10.615Zm-.115-11.935c-.518 0-1.035-.013-1.554-.039-7.798-.407-14.971-3.824-20.197-9.625-5.226-5.801-7.881-13.289-7.475-21.086.405-7.798 3.823-14.97 9.624-20.196a29.07 29.07 0 0 1 8.533-5.36l2.013 4.939a23.814 23.814 0 0 0-6.976 4.384 23.738 23.738 0 0 0-7.869 16.51c-.331 6.375 1.84 12.496 6.112 17.24a23.746 23.746 0 0 0 16.512 7.868c6.37.33 12.496-1.839 17.237-6.112a23.925 23.925 0 0 0 6.488-9.638l5.016 1.806a29.265 29.265 0 0 1-7.934 11.794c-5.413 4.877-12.297 7.515-19.53 7.515Zm-15.15-29.352c0 .19.004.383.011.575l5.33-.205-.007-.37c0-1.758.465-3.482 1.345-4.99l-4.604-2.691a15.235 15.235 0 0 0-2.075 7.681Zm3.913 10.18a15.104 15.104 0 0 0 5.381 3.835l2.073-4.914a9.793 9.793 0 0 1-3.491-2.49 10.029 10.029 0 0 1-.793-1l-4.385 3.035c.367.531.776 1.047 1.215 1.534Zm12.946-.44.882 5.261a15.156 15.156 0 0 0 7.662-3.703l-3.572-3.96a9.83 9.83 0 0 1-4.972 2.403Zm30.215-57.484a22.1 22.1 0 0 0-1.291.038l-.673-13.212c4.781-.007 8.986.701 11.555 1.26l-2.784 8.35 5.06 1.687 3.692-11.077a2.674 2.674 0 0 0-.154-2.059 2.667 2.667 0 0 0-1.579-1.33c-1.163-.364-28.695-8.723-43.486 9.48-16.853 20.743-3.398 50.762-2.816 52.028l4.849-2.22c-.128-.281-12.643-28.292 2.107-46.446.429-.528.873-1.03 1.33-1.504l5.157 6.675 4.22-3.262-5.268-6.82c3.962-2.599 8.45-3.896 12.793-4.438l.708 13.877c-8.68 2.788-14.979 10.94-14.979 20.532 0 1.78.437 4.638.825 7.17l.007.046c.114.741.219 1.428.299 1.995 1.025 7.39-1.515 12.38-1.535 12.416a2.672 2.672 0 0 0 .039 2.583 2.662 2.662 0 0 0 2.212 1.338c2.935.114 11.364.75 15.052 2.308 1.069.452 2.079.901 3.049 1.335h.002c4.33 1.933 8.186 3.653 13.157 3.653 1.224 0 2.512-.103 3.892-.334a2.667 2.667 0 0 0 2.222-2.816l-.906-13.022-5.321.37.727 10.455c-3.939.145-7.04-1.148-10.935-2.879l2.083-8.05-5.164-1.336-1.884 7.279c-3.546-1.184-8.698-1.777-12.139-2.061.738-2.663 1.387-6.631.798-11.457a126.8 126.8 0 0 1 9.761-2.594l-1.17-5.204c-3.979.896-7.21 1.802-9.376 2.458-.2-1.434-.362-2.82-.362-3.653 0-8.946 7.278-16.226 16.226-16.226 4.754 0 9.346 2.189 12.599 6a206.263 206.263 0 0 1 3.653 4.407l.013.016 4.167-3.33s-1.657-2.07-3.776-4.554c-4.268-5.003-10.338-7.872-16.656-7.872Zm4.002 26.312a2.67 2.67 0 0 1 2.667-2.667 2.67 2.67 0 0 1 2.666 2.667 2.67 2.67 0 0 1-2.666 2.666 2.67 2.67 0 0 1-2.667-2.666Zm-5.333 0c0 4.41 3.589 8 8 8a7.949 7.949 0 0 0 3.32-.723l22.251 2.1a2.671 2.671 0 0 0 2.338-.996 2.668 2.668 0 0 0 .443-2.502l-5.12-15.357a2.676 2.676 0 0 0-2.948-1.791l-20.538 3.273c-4.294.134-7.746 3.67-7.746 7.996Zm16 0c0 .81-.121 1.592-.346 2.329l14.344 1.354-3.109-9.33-11.83 1.886a7.95 7.95 0 0 1 .941 3.76Z" clip-rule="evenodd"/>
</svg>
