<svg xmlns="http://www.w3.org/2000/svg" width="320" height="126" fill="none">
  <path fill="#fff" d="M96.839 35.548C108.001 5.671 142.017-1.354 157.298.202c8.858 0 29.897 5.469 45.842 16.673 15.946 11.204 18.603 34.901 17.939 45.35 2.879 7.113.664 27.342-31.226 51.351-31.891 24.008-65.996 4.668-79.062-8.003-9.301-10.893-25.114-40.148-13.952-70.025Zm8.488 81.58c.952-2.629 3.853-3.247 5.156-3.11.755 0 2.549.481 3.909 1.467 1.36.986 1.586 3.071 1.529 3.991.246.626.057 2.406-2.662 4.519-2.72 2.112-5.628.41-6.742-.705-.793-.958-2.141-3.533-1.19-6.162Zm-23.643-13.587c1.99-5.498 8.055-6.79 10.78-6.504 1.58 0 5.33 1.006 8.173 3.068 2.843 2.062 3.317 6.422 3.199 8.344.513 1.309.118 5.031-5.568 9.449s-11.766.859-14.096-1.473c-1.658-2.004-4.478-7.387-2.487-12.884Z"/>
  <path fill="#000" fill-rule="evenodd" d="m169.073 119.515-3.748-3.794 4.948-4.891-9.538-14.866a2.669 2.669 0 0 1-.16-2.595l9.116-18.957-2.754-9.765-12.042 5.71 3.547 5.165-4.395 3.02-6.735-9.804c-3.742 4.856-9.614 7.99-16.203 7.99-11.273 0-20.445-9.171-20.445-20.444s9.172-20.444 20.445-20.444c11.272 0 20.444 9.171 20.444 20.444 0 2.558-.472 5.008-1.334 7.267l1.618 2.355 14.174-6.723-.24-14.41 5.334-.087.265 16.03 3.729 13.222a2.656 2.656 0 0 1-.165 1.877l-8.907 18.523 9.901 15.431a2.666 2.666 0 0 1-.37 3.337l-6.485 6.409Zm10.173-71.79a2.672 2.672 0 0 0 3.524-.221l16-16c.291-.294.514-.65.643-1.042l1.152-3.456 4.296 1.562 1.824-5.013-4.432-1.612.716-2.148-5.06-1.689-.671 2.014-29.664-10.787-1.824 5.013 29.801 10.837-.998 2.993-13.892 13.891-14.14-11a2.675 2.675 0 0 0-1.637-.56h-11.556v5.333h10.64l15.278 11.884Zm-40.139-25.219a4.45 4.45 0 0 1 4.444-4.444 4.45 4.45 0 0 1 4.445 4.444 4.45 4.45 0 0 1-4.445 4.445 4.45 4.45 0 0 1-4.444-4.445Zm-5.334 0c0 5.39 4.386 9.778 9.778 9.778s9.778-4.387 9.778-9.778c0-5.39-4.386-9.777-9.778-9.777s-9.778 4.387-9.778 9.777Zm-17.776 33.778c0-8.332 6.779-15.111 15.112-15.111 8.332 0 15.111 6.779 15.111 15.111 0 8.333-6.779 15.111-15.111 15.111-8.333 0-15.112-6.778-15.112-15.11Zm15.107 10.223c-5.882 0-10.666-4.784-10.666-10.667s4.784-10.667 10.666-10.667v5.334a5.34 5.34 0 0 0-5.333 5.333 5.34 5.34 0 0 0 5.333 5.333 5.34 5.34 0 0 0 5.334-5.333h5.333c0 5.883-4.784 10.667-10.667 10.667Zm2.669 49.333h10.223c.766 0 1.497-.331 2.001-.907a2.658 2.658 0 0 0 .644-2.101l-2.516-19.438 7.983-14.49-4.672-2.573-8.404 15.253a2.677 2.677 0 0 0-.307 1.628l2.236 17.295h-7.188v5.333Zm46.838-14.014c-.8 0-1.586-.359-2.107-1.029l-7.442-9.573 4.21-3.272 5.984 7.696 20.64-12.517c-5.527-4.018-16.082-13.124-23.244-28.212l4.818-2.287c9.125 19.223 24.563 28.195 24.718 28.282a2.673 2.673 0 0 1 1.346 2.283 2.662 2.662 0 0 1-1.282 2.314l-26.26 15.928a2.643 2.643 0 0 1-1.381.387Z" clip-rule="evenodd"/>
</svg>
