<svg xmlns="http://www.w3.org/2000/svg" width="80" height="80" fill="none">
  <path fill="#FABB00" d="M28.16 78.222h-7.128a1.887 1.887 0 0 1-1.828-2.367l1.697-6.486-3.354.038h-.022a1.892 1.892 0 0 1-1.865-2.201l3.703-22.084 3.728.624-3.329 19.857 16.54-.19.266-6.727-1.764-10.653 3.731-.616 1.35 8.152 3.88-1.704-3.788-12.809 3.628-1.069 4.26 14.404a1.89 1.89 0 0 1-1.053 2.264l-6.493 2.85-.311 7.852a1.89 1.89 0 0 1-1.867 1.815l-.502.005c-.017 1.904-.03 3.898-.027 5.267h4.41v3.778h-6.269a1.889 1.889 0 0 1-1.85-1.503c-.047-.226-.11-.534-.046-7.498l-9.036.103-1.34 5.12h4.68v3.778Z"/>
  <path fill="#FABB00" fill-rule="evenodd" d="M28.776 16.52a6.876 6.876 0 0 1-4.33-1.529 6.874 6.874 0 0 1-2.55-4.65 6.884 6.884 0 0 1 1.49-5.088 6.89 6.89 0 0 1 4.654-2.546c3.796-.41 7.227 2.342 7.64 6.138.412 3.796-2.343 7.222-6.142 7.635-.255.026-.51.04-.762.04Zm.015-10.075a3.125 3.125 0 0 0-2.458 1.176 3.128 3.128 0 0 0-.677 2.313 3.12 3.12 0 0 0 1.16 2.112 3.114 3.114 0 0 0 2.314.676 3.149 3.149 0 0 0 2.79-3.47 3.152 3.152 0 0 0-3.13-2.807Z" clip-rule="evenodd"/>
  <path fill="#FABB00" fill-rule="evenodd" d="M21.149 42.31c.135.013.987.084 2.276.084 4.165 0 12.884-.742 16.62-6.61 1.738-2.73 1.974-6.343 1.7-9.513l4.278 4.964a1.894 1.894 0 0 0 2.029.56l5.462-1.818c-.616 2.912-2.563 8.515-3.333 10.626a1.884 1.884 0 0 0 1.202 2.448l13.382 4.243a1.889 1.889 0 0 0 2.198-.836c.194-.326 4.78-8.12 6.06-16.386 1.132-7.31.661-17.616.64-18.05a1.89 1.89 0 0 0-1.888-1.8H54.64a1.892 1.892 0 0 0-1.84 2.328l.001.005c.05.214 1.474 6.374 1.154 13.293L48.06 27.81l-8.15-9.458-.041.035a1.89 1.89 0 0 0-1.39-.61h-4.296a1.89 1.89 0 0 0-1.82 1.382c-1.715 6.13-5.5 8.721-8.37 9.816-.235-1.45-.507-3.972-.557-8.042a1.89 1.89 0 0 0-3.225-1.313L7.158 32.636c-.342.338-.54.797-.554 1.276l-.38 11.952a1.878 1.878 0 0 0 .56 1.403l4.303 4.256 2.66-2.686-3.72-3.677.333-10.38 9.454-9.425c.123 1.957.3 3.39.476 4.422a1.89 1.89 0 0 0-1.806 2.091l.953 8.765a1.89 1.89 0 0 0 1.712 1.678Zm15.704-8.555c-2.85 4.482-10.505 4.896-13.833 4.853l-.577-5.316c3.407-.678 10.13-3.1 13.13-11.736h1.502c.85 3.146 1.82 8.997-.222 12.2Zm27.575 9.47-10.036-3.183c.967-2.77 2.684-7.905 3.02-10.392.841-6.256.084-12.413-.473-15.65h13.007a138.8 138.8 0 0 1 .03 5.734l-7.959-.408-.193 3.774 8.03.41a68.615 68.615 0 0 1-.353 4.393l-7.344-1.263-.643 3.723 7.361 1.266c-1.12 4.89-3.311 9.44-4.447 11.597Z" clip-rule="evenodd"/>
</svg>
