<svg xmlns="http://www.w3.org/2000/svg" width="621" height="607" fill="none">
  <g clip-path="url(#a)">
    <path fill="#EFEBE6" fill-rule="evenodd" d="M637.516 100.646h-94.83C519.792 50.468 467.861 0 401.004 0 334.183 0 282.273 50.412 259.36 100.646h-94.877a15.076 15.076 0 0 0-15.096 15.096v62.451l-50.972 24.199A15.078 15.078 0 0 0 89 216.388v50.322a15.076 15.076 0 0 0 15.097 15.097h25.161V543H15.176C6.78 543 0 549.784 0 558.188V624h30.353v-50.625H643v-29.891h29.74V281.807h25.163A15.076 15.076 0 0 0 713 266.71v-50.322a15.076 15.076 0 0 0-8.583-13.629l.028-.059-51.833-24.599v-62.359a15.076 15.076 0 0 0-15.096-15.096ZM642.547 543V281.807h-40.256V543h40.256Zm-70.449 0V281.807h-40.26V543h40.26Zm-70.453 0V281.807h-40.26V543h40.26Zm-70.454 0V392.516h-60.388V543h60.388Zm-90.582 0V281.807h-40.251V543h40.251Zm-70.445 0V281.807h-40.26V543h40.26Zm-70.453 0V281.807h-40.26V543h40.26ZM401.004 30.193c48 0 86.821 33.634 107.807 70.453h-19.409l-81.86-38.85a15.408 15.408 0 0 0-12.983 0l-81.83 38.85h-19.551c20.981-36.87 59.811-70.453 107.826-70.453Zm81.257 100.646 148.521 70.452H171.218l148.52-70.452h.746v-.353L401 92.292l80.516 38.193v.354h.745Zm-51.07 150.968h-60.388v80.515h60.388v-80.515ZM179.58 130.839v33.019l69.551-33.019H179.58Zm373.444 0 69.395 32.933v-32.933h-69.395Zm129.782 120.775H119.194v-20.129h563.612v20.129Z" clip-rule="evenodd"/>
  </g>
  <defs>
    <clipPath id="a">
      <path fill="#fff" d="M0 0h713v624H0z"/>
    </clipPath>
  </defs>
</svg>
