<svg width="320" height="134" viewBox="0 0 320 134" fill="none" xmlns="http://www.w3.org/2000/svg">
<path d="M46.2772 37.1229C43.1993 38.9767 43.1993 43.9433 46.2772 45.8321C47.7112 46.7065 49.9846 46.7765 51.5236 46.0419C54.8813 44.398 55.1261 39.0816 51.9433 37.1229C50.4393 36.2135 47.7811 36.1785 46.2772 37.1229Z" fill="#F8FCFC"/>
<path d="M0 64.5787V92.3851H3.6725H7.34499V87.3135C7.34499 84.5154 7.48489 82.2419 7.6248 82.2419C7.79968 82.2419 8.11447 82.8715 8.3593 83.606C8.95389 85.5997 11.3672 89.0274 13.0461 90.2865C15.5994 92.1403 17.9428 92.8398 21.6852 92.8398C28.6804 92.8398 33.8219 89.4471 37.0747 82.8015C41.4118 73.8825 39.8378 62.2003 33.4372 55.7996C30.779 53.1413 27.911 51.6723 24.1685 51.0777C20.0064 50.3782 15.2496 51.6024 12.2766 54.1207C10.8426 55.3449 8.53418 58.8076 8.21939 60.2066C7.55485 63.1796 7.34499 60.3115 7.34499 49.0141V36.7723H3.6725H0V64.5787ZM25.0429 58.9125C28.7854 60.8012 31.2687 64.8235 31.7933 69.7552C32.8426 79.4788 27.3164 86.579 19.2019 86.0194C13.256 85.5647 8.63911 80.8778 7.72973 74.3722C6.7504 67.4118 10.1431 60.7313 15.8442 58.4928C18.4674 57.4435 22.5596 57.6183 25.0429 58.9125Z" fill="#F8FCFC"/>
<path d="M139.832 51.1129C130.073 52.7568 123.812 60.8714 123.812 71.924C123.812 82.1372 128.919 89.6921 137.628 92.2454C140.496 93.0849 146.337 93.0849 149.17 92.2454C155.081 90.4966 158.964 86.3344 161.027 79.5139C161.272 78.7444 161.272 78.7444 157.285 78.7444H153.297L152.913 80.0735C152.388 81.8224 150.324 84.1658 148.506 85.1102C147.596 85.5649 146.162 85.9146 144.588 86.0196C138.572 86.4043 133.641 83.0815 131.857 77.3803C131.472 76.1562 131.157 74.9669 131.157 74.6871C131.157 74.3024 133.711 74.1975 146.477 74.1275L161.762 74.0226L161.867 71.1895C162.076 65.2085 159.768 59.0176 156.095 55.6249C151.898 51.8124 145.778 50.1335 139.832 51.1129ZM147.142 57.9333C150.709 58.9826 153.157 61.7108 154.102 65.6981C154.417 67.1322 154.452 67.6219 154.137 67.7618C153.892 67.8317 148.75 67.8667 142.7 67.8317L131.682 67.7268L131.787 66.8524C132.137 64.2641 134.62 60.5915 137.033 59.0875C139.692 57.4436 143.889 56.954 147.142 57.9333Z" fill="#F8FCFC"/>
<path d="M186.848 51.1473C184.294 51.637 181.356 53.1759 179.678 54.8898C178.104 56.4987 176.285 59.6116 176.285 60.6609C176.285 60.9757 176.145 61.3255 175.935 61.4304C175.725 61.5703 175.585 59.8565 175.585 56.5687V51.4621H171.738H167.891V71.9234V92.3848H171.738H175.585V81.2622C175.585 68.9854 175.83 67.1316 177.684 63.8438C178.978 61.6053 181.147 59.5767 183.455 58.4574C184.889 57.7229 185.728 57.583 188.177 57.583C190.8 57.583 191.325 57.6879 192.829 58.5623C194.857 59.7515 196.396 62.025 196.886 64.5433C197.096 65.5227 197.306 72.2032 197.341 79.3385L197.445 92.3848H201.223H204.965V78.4641C204.965 65.8025 204.895 64.2635 204.301 61.8501C203.461 58.7022 202.552 56.7785 200.943 54.9947C198.04 51.7769 191.989 50.133 186.848 51.1473Z" fill="#F8FCFC"/>
<path d="M225.04 51.2535C220.073 52.1979 215.771 55.1359 214.022 58.7735C212.938 60.977 212.728 64.9294 213.533 67.0979C214.792 70.3857 218.15 72.8691 222.836 73.9883C224.061 74.3031 226.964 74.7578 229.272 75.0726C236.267 75.912 238.925 77.0313 239.555 79.3048C240.254 81.8581 239.065 83.9567 236.127 85.3557C234.378 86.1602 233.749 86.2651 230.146 86.2651C226.439 86.2651 225.949 86.1952 224.13 85.2858C221.717 84.0966 220.248 82.4877 219.409 80.1442L218.779 78.3954H215.177H211.539L211.784 79.8644C212.903 87.1396 217.415 91.3368 225.53 92.6659C231.406 93.6452 238.121 92.421 242.108 89.6579C247.844 85.6356 249.103 76.5766 244.452 72.6242C241.898 70.4557 238.436 69.3714 230.601 68.2522C223.361 67.2029 221.367 66.3634 220.668 64.055C220.108 62.1662 220.738 60.4174 222.487 59.1582C225.844 56.7448 232.665 56.8148 235.952 59.3331C237.212 60.3125 238.541 62.516 238.541 63.7052C238.541 64.3697 238.751 64.4047 242.248 64.4047H245.991L245.781 62.7258C245.186 57.7592 241.549 53.6319 236.162 51.8131C233.294 50.8688 228.328 50.6239 225.04 51.2535Z" fill="#F8FCFC"/>
<path d="M269.064 51.1111C261.405 52.5102 255.774 58.0015 253.71 66.1511C252.94 69.159 252.94 74.7203 253.71 77.6934C255.564 84.8985 260.25 90.145 266.686 92.1387C269.869 93.1181 275.465 93.188 278.578 92.2436C283.929 90.6697 287.952 87.172 290.26 82.1704C291.974 78.5328 292.498 75.9795 292.498 71.7473C292.429 61.8489 287.182 54.1541 278.753 51.6707C276.374 50.9712 271.478 50.6914 269.064 51.1111ZM276.549 58.3163C281.691 60.0651 285.049 65.3816 285.049 71.8522C285.049 78.7776 281.411 84.269 275.78 85.773C273.821 86.3326 270.149 85.9828 268.015 85.0385C265.847 84.1291 262.944 81.191 261.999 79.0225C259.411 73.0065 260.46 65.3816 264.413 61.2893C265.742 59.9252 267.84 58.6311 269.659 58.0714C271.198 57.6167 274.836 57.7217 276.549 58.3163Z" fill="#F8FCFC"/>
<path d="M316.527 51.2522C314.009 51.8118 312.085 52.8262 310.441 54.505C309.112 55.8342 307.084 59.5067 307.084 60.626C307.084 60.9407 306.944 61.3255 306.734 61.4304C306.524 61.5703 306.384 59.8565 306.384 56.5687V51.4621H302.712H299.039V71.9234V92.3848H302.712H306.384V81.612C306.384 70.1396 306.629 67.3765 307.958 64.5433C309.637 60.8008 312.61 58.9121 317.576 58.4924L319.85 58.2825L319.955 54.505C320.06 50.2029 320.27 50.4128 316.527 51.2522Z" fill="#F8FCFC"/>
<path d="M45.4609 71.9234V92.3848H49.1334H52.8059V71.9234V51.4621H49.1334H45.4609V71.9234Z" fill="#F8FCFC"/>
<path d="M62.083 52.1253C59.8445 53.1396 57.7459 56.0776 57.7109 58.1762C57.7109 58.3511 61.2435 58.4561 65.5456 58.4561H73.4152L73.5202 73.2162C73.6251 89.2355 73.6251 89.0606 75.6187 90.8444C77.8222 92.8731 80.6903 93.4677 83.8031 92.5583L85.8667 91.9637L84.2928 91.2292C81.3548 89.7951 81.3548 89.7602 81.145 75.9444C80.9701 64.2972 80.9351 63.8425 80.2006 62.6533C79.1513 60.9394 78.0671 59.995 76.2483 59.2255C74.9192 58.6309 74.7793 58.491 75.3739 58.2812C78.8016 57.1269 80.6203 55.3431 81.04 52.7199L81.2499 51.4607H72.3659C64.5313 51.4607 63.3071 51.5657 62.083 52.1253Z" fill="#F8FCFC"/>
<path d="M89.1875 52.0216C87.2638 52.8611 85.7249 54.5749 85.1653 56.4986C84.8855 57.443 84.6406 58.2825 84.6406 58.3524C84.6406 58.3874 88.2082 58.4923 92.6152 58.5273L100.555 58.6322L100.73 73.6722C100.905 89.4117 100.905 89.3767 102.548 90.8457C104.682 92.8044 108.844 93.5389 111.502 92.4197L112.657 91.93L111.153 91.1605C108.284 89.7265 108.284 89.6565 108.075 75.9457C107.935 65.5576 107.83 63.7388 107.305 62.8294C106.501 61.3604 104.997 59.9963 103.353 59.2618L101.954 58.6322L110.173 58.4573L118.393 58.2825L120.071 57.3031C121.401 56.5336 121.96 55.8691 122.625 54.505C124.164 51.1822 125.703 51.462 106.955 51.462C92.9649 51.497 90.2368 51.5669 89.1875 52.0216Z" fill="#F8FCFC"/>
</svg>
