<svg width="96" height="40" viewBox="0 0 96 40" fill="none" xmlns="http://www.w3.org/2000/svg">
<g clip-path="url(#clip0_1702_330)">
<path d="M16.9727 17.2246H21.8237C23.0133 17.2246 23.9604 17.5223 24.665 18.1176C25.3695 18.7016 25.7218 19.5202 25.7218 20.5735C25.7218 21.6727 25.2136 22.5085 24.1972 23.0809C24.1279 23.1153 24.0817 23.1496 24.0586 23.184C24.0355 23.2069 24.024 23.247 24.024 23.3042C24.024 23.3844 24.0702 23.4416 24.1626 23.4759C25.2598 23.911 25.8085 24.8041 25.8085 26.1551C25.8085 27.2542 25.4504 28.1015 24.7343 28.6968C24.0297 29.2922 23.0596 29.5899 21.8237 29.5899H16.9727V17.2246ZM21.6504 22.5486C22.4127 22.5486 22.9902 22.3997 23.3829 22.102C23.7872 21.8043 23.9893 21.3235 23.9893 20.6594C23.9893 19.9953 23.7872 19.5145 23.3829 19.2168C22.9902 18.9191 22.4127 18.7703 21.6504 18.7703H18.7052V22.5486H21.6504ZM21.6504 28.0442C22.459 28.0442 23.0653 27.8954 23.4696 27.5977C23.8738 27.2886 24.076 26.7791 24.076 26.0692C24.076 25.3594 23.8738 24.8556 23.4696 24.5579C23.0653 24.2488 22.459 24.0942 21.6504 24.0942H18.7052V28.0442H21.6504Z" fill="#FFFCFC"/>
<path d="M35.7653 29.5906H34.206V28.6117C34.206 28.5316 34.1655 28.4915 34.0848 28.4915C34.0502 28.4915 34.0153 28.5087 33.9807 28.543C33.9577 28.5659 33.9287 28.5946 33.8941 28.6289C33.2472 29.4418 32.3117 29.8483 31.0874 29.8483C29.9556 29.8483 29.0663 29.5334 28.4194 28.9037C27.7726 28.274 27.4492 27.3866 27.4492 26.2417V20.6602H29.0084V25.9841C29.0084 26.797 29.2165 27.4153 29.6322 27.8389C30.0479 28.2625 30.6487 28.4743 31.4339 28.4743C32.3233 28.4743 33.0048 28.211 33.4784 27.6843C33.9636 27.1462 34.206 26.3505 34.206 25.2971V20.6602H35.7653V29.5906Z" fill="#FFFCFC"/>
<path d="M39.4917 20.6594V29.5899H37.9324V20.6594H39.4917ZM38.7987 17.2246C39.3728 17.2246 39.8382 17.6859 39.8382 18.255C39.8382 18.8241 39.3728 19.2855 38.7987 19.2855H38.6255C38.0514 19.2855 37.5859 18.8241 37.5859 18.255C37.5859 17.6859 38.0514 17.2246 38.6255 17.2246H38.7987Z" fill="#FFFCFC"/>
<path d="M41.1523 25.1247C41.1523 24.0942 41.3602 23.224 41.7759 22.5142C42.2034 21.8043 42.7519 21.2777 43.4218 20.9342C44.0918 20.5793 44.8079 20.4018 45.5701 20.4018C46.8523 20.4018 47.8454 20.8197 48.55 21.6555C48.6079 21.7356 48.6712 21.7757 48.7407 21.7757C48.8214 21.7757 48.8619 21.7299 48.8619 21.6383V17.2246H50.4212V29.5899H48.8619V28.611C48.8619 28.5194 48.8214 28.4736 48.7407 28.4736C48.6712 28.4736 48.6079 28.5136 48.55 28.5938C47.8454 29.4296 46.8523 29.8475 45.5701 29.8475C44.8079 29.8475 44.0918 29.6758 43.4218 29.3323C42.7519 28.9773 42.2034 28.4449 41.7759 27.7351C41.3602 27.0252 41.1523 26.1551 41.1523 25.1247ZM42.7116 25.1247C42.7116 26.178 42.9946 27.0023 43.5605 27.5977C44.1379 28.1816 44.8945 28.4736 45.8299 28.4736C46.7657 28.4736 47.5164 28.1816 48.0823 27.5977C48.6597 27.0023 48.9485 26.178 48.9485 25.1247C48.9485 24.0713 48.6597 23.2527 48.0823 22.6688C47.5164 22.0734 46.7657 21.7757 45.8299 21.7757C44.8945 21.7757 44.1379 22.0734 43.5605 22.6688C42.9946 23.2527 42.7116 24.0713 42.7116 25.1247Z" fill="#FFFCFC"/>
<path d="M54.1335 17.2246V29.5899H52.5742V17.2246H54.1335Z" fill="#FFFCFC"/>
<path d="M55.6992 23.409C55.6992 22.1267 55.9588 20.9989 56.4786 20.0257C57.0099 19.0525 57.7608 18.3026 58.7309 17.7759C59.7012 17.2378 60.8274 16.9688 62.1094 16.9688C63.2876 16.9688 64.2866 17.2035 65.1067 17.6729C65.9381 18.1309 66.562 18.7319 66.9776 19.4762C67.3936 20.2204 67.6186 21.0161 67.6535 21.8633H65.921C65.8284 20.8444 65.4648 20.0314 64.8294 19.4246C64.194 18.8178 63.2586 18.5144 62.0227 18.5144C61.1103 18.5144 60.3076 18.7205 59.6146 19.1327C58.9216 19.5334 58.3844 20.1059 58.0033 20.8501C57.6222 21.5943 57.4315 22.4473 57.4315 23.409C57.4315 24.3822 57.6163 25.2409 57.9861 25.9851C58.3672 26.7179 58.9157 27.2903 59.6318 27.7025C60.3478 28.1032 61.2026 28.3036 62.196 28.3036C63.3626 28.3036 64.2289 28.046 64.7948 27.5308C65.3607 27.0155 65.6436 26.3286 65.6436 25.4699H61.0698V23.9242H67.3762V25.1436C67.3762 26.6091 66.9085 27.7598 65.9727 28.5956C65.0488 29.4314 63.7609 29.8493 62.1094 29.8493C60.8043 29.8493 59.6666 29.5859 58.6963 29.0592C57.7262 28.5211 56.9812 27.7655 56.4614 26.7923C55.9532 25.8191 55.6992 24.6913 55.6992 23.409Z" fill="#FFFCFC"/>
<path d="M77.4409 29.5906H75.8816V28.6117C75.8816 28.5316 75.8414 28.4915 75.7604 28.4915C75.7258 28.4915 75.6912 28.5087 75.6566 28.543C75.6336 28.5659 75.6046 28.5946 75.57 28.6289C74.9231 29.4418 73.9877 29.8483 72.7634 29.8483C71.6313 29.8483 70.7419 29.5334 70.0953 28.9037C69.4484 28.274 69.125 27.3866 69.125 26.2417V20.6602H70.6843V25.9841C70.6843 26.797 70.8921 27.4153 71.3078 27.8389C71.7238 28.2625 72.3243 28.4743 73.1099 28.4743C73.9992 28.4743 74.6807 28.211 75.154 27.6843C75.6392 27.1462 75.8816 26.3505 75.8816 25.2971V20.6602H77.4409V29.5906Z" fill="#FFFCFC"/>
<path d="M81.1672 20.6594V29.5899H79.6082V20.6594H81.1672ZM80.4745 17.2246C81.0486 17.2246 81.5138 17.6859 81.5138 18.255C81.5138 18.8241 81.0486 19.2855 80.4745 19.2855H80.3013C79.7269 19.2855 79.2617 18.8241 79.2617 18.255C79.2617 17.6859 79.7269 17.2246 80.3013 17.2246H80.4745Z" fill="#FFFCFC"/>
<path d="M82.8242 25.1247C82.8242 24.0942 83.0321 23.224 83.448 22.5142C83.8753 21.8043 84.424 21.2777 85.094 20.9342C85.7636 20.5793 86.48 20.4018 87.2422 20.4018C88.5242 20.4018 89.5176 20.8197 90.2221 21.6555C90.2798 21.7356 90.3434 21.7757 90.4126 21.7757C90.4936 21.7757 90.5341 21.7299 90.5341 21.6383V17.2246H92.0931V29.5899H90.5341V28.611C90.5341 28.5194 90.4936 28.4736 90.4126 28.4736C90.3434 28.4736 90.2798 28.5136 90.2221 28.5938C89.5176 29.4296 88.5242 29.8475 87.2422 29.8475C86.48 29.8475 85.7636 29.6758 85.094 29.3323C84.424 28.9773 83.8753 28.4449 83.448 27.7351C83.0321 27.0252 82.8242 26.1551 82.8242 25.1247ZM84.3835 25.1247C84.3835 26.178 84.6665 27.0023 85.2324 27.5977C85.8101 28.1816 86.5663 28.4736 87.5021 28.4736C88.4376 28.4736 89.1882 28.1816 89.7544 27.5977C90.3318 27.0023 90.6207 26.178 90.6207 25.1247C90.6207 24.0713 90.3318 23.2527 89.7544 22.6688C89.1882 22.0734 88.4376 21.7757 87.5021 21.7757C86.5663 21.7757 85.8101 22.0734 85.2324 22.6688C84.6665 23.2527 84.3835 24.0713 84.3835 25.1247Z" fill="#FFFCFC"/>
<path d="M95.8093 17.2246V29.5899H94.25V17.2246H95.8093Z" fill="#FFFCFC"/>
<mask id="mask0_1702_330" style="mask-type:luminance" maskUnits="userSpaceOnUse" x="16" y="16" width="81" height="15">
<path d="M96.0022 16.6895H16.6875V30.0721H96.0022V16.6895Z" fill="white" stroke="#FFFCFC" stroke-width="0.2"/>
<path d="M16.9727 17.2246H21.8237C23.0133 17.2246 23.9604 17.5223 24.665 18.1176C25.3695 18.7016 25.7218 19.5202 25.7218 20.5735C25.7218 21.6727 25.2136 22.5085 24.1972 23.0809C24.1279 23.1153 24.0817 23.1496 24.0586 23.184C24.0355 23.2069 24.024 23.247 24.024 23.3042C24.024 23.3844 24.0702 23.4416 24.1626 23.4759C25.2598 23.911 25.8085 24.8041 25.8085 26.1551C25.8085 27.2542 25.4504 28.1015 24.7343 28.6968C24.0297 29.2922 23.0596 29.5899 21.8237 29.5899H16.9727V17.2246ZM21.6504 22.5486C22.4127 22.5486 22.9902 22.3997 23.3829 22.102C23.7872 21.8043 23.9893 21.3235 23.9893 20.6594C23.9893 19.9953 23.7872 19.5145 23.3829 19.2168C22.9902 18.9191 22.4127 18.7703 21.6504 18.7703H18.7052V22.5486H21.6504ZM21.6504 28.0442C22.459 28.0442 23.0653 27.8954 23.4696 27.5977C23.8738 27.2886 24.076 26.7791 24.076 26.0692C24.076 25.3594 23.8738 24.8556 23.4696 24.5579C23.0653 24.2488 22.459 24.0942 21.6504 24.0942H18.7052V28.0442H21.6504Z" stroke="#FFFCFC" stroke-width="0.2"/>
<path d="M35.7614 29.5906H34.2021V28.6117C34.2021 28.5316 34.1616 28.4915 34.0809 28.4915C34.0463 28.4915 34.0114 28.5087 33.9768 28.543C33.9538 28.5659 33.9248 28.5946 33.8902 28.6289C33.2433 29.4418 32.3078 29.8483 31.0835 29.8483C29.9517 29.8483 29.0624 29.5334 28.4155 28.9037C27.7687 28.274 27.4453 27.3866 27.4453 26.2417V20.6602H29.0045V25.9841C29.0045 26.797 29.2126 27.4153 29.6283 27.8389C30.044 28.2625 30.6448 28.4743 31.43 28.4743C32.3194 28.4743 33.0009 28.211 33.4745 27.6843C33.9597 27.1462 34.2021 26.3505 34.2021 25.2971V20.6602H35.7614V29.5906Z" stroke="#FFFCFC" stroke-width="0.2"/>
<path d="M39.4917 20.6594V29.5899H37.9324V20.6594H39.4917ZM38.7987 17.2246C39.3728 17.2246 39.8382 17.6859 39.8382 18.255C39.8382 18.8241 39.3728 19.2855 38.7987 19.2855H38.6255C38.0514 19.2855 37.5859 18.8241 37.5859 18.255C37.5859 17.6859 38.0514 17.2246 38.6255 17.2246H38.7987Z" stroke="#FFFCFC" stroke-width="0.2"/>
<path d="M41.1445 25.1247C41.1445 24.0942 41.3524 23.224 41.7681 22.5142C42.1956 21.8043 42.744 21.2777 43.414 20.9342C44.084 20.5793 44.8 20.4018 45.5622 20.4018C46.8445 20.4018 47.8376 20.8197 48.5422 21.6555C48.6001 21.7356 48.6634 21.7757 48.7329 21.7757C48.8136 21.7757 48.8541 21.7299 48.8541 21.6383V17.2246H50.4134V29.5899H48.8541V28.611C48.8541 28.5194 48.8136 28.4736 48.7329 28.4736C48.6634 28.4736 48.6001 28.5136 48.5422 28.5938C47.8376 29.4296 46.8445 29.8475 45.5622 29.8475C44.8 29.8475 44.084 29.6758 43.414 29.3323C42.744 28.9773 42.1956 28.4449 41.7681 27.7351C41.3524 27.0252 41.1445 26.1551 41.1445 25.1247ZM42.7038 25.1247C42.7038 26.178 42.9868 27.0023 43.5527 27.5977C44.1301 28.1816 44.8867 28.4736 45.8221 28.4736C46.7579 28.4736 47.5086 28.1816 48.0744 27.5977C48.6519 27.0023 48.9407 26.178 48.9407 25.1247C48.9407 24.0713 48.6519 23.2527 48.0744 22.6688C47.5086 22.0734 46.7579 21.7757 45.8221 21.7757C44.8867 21.7757 44.1301 22.0734 43.5527 22.6688C42.9868 23.2527 42.7038 24.0713 42.7038 25.1247Z" stroke="#FFFCFC" stroke-width="0.2"/>
<path d="M54.1296 17.2246V29.5899H52.5703V17.2246H54.1296Z" stroke="#FFFCFC" stroke-width="0.2"/>
<path d="M55.6992 23.409C55.6992 22.1267 55.9588 20.9989 56.4786 20.0257C57.0099 19.0525 57.7608 18.3026 58.7309 17.7759C59.7012 17.2378 60.8274 16.9688 62.1094 16.9688C63.2876 16.9688 64.2866 17.2035 65.1067 17.6729C65.9381 18.1309 66.562 18.7319 66.9776 19.4762C67.3936 20.2204 67.6186 21.0161 67.6535 21.8633H65.921C65.8284 20.8444 65.4648 20.0314 64.8294 19.4246C64.194 18.8178 63.2586 18.5144 62.0227 18.5144C61.1103 18.5144 60.3076 18.7205 59.6146 19.1327C58.9216 19.5334 58.3844 20.1059 58.0033 20.8501C57.6222 21.5943 57.4315 22.4473 57.4315 23.409C57.4315 24.3822 57.6163 25.2409 57.9861 25.9851C58.3672 26.7179 58.9157 27.2903 59.6318 27.7025C60.3478 28.1032 61.2026 28.3036 62.196 28.3036C63.3626 28.3036 64.2289 28.046 64.7948 27.5308C65.3607 27.0155 65.6436 26.3286 65.6436 25.4699H61.0698V23.9242H67.3762V25.1436C67.3762 26.6091 66.9085 27.7598 65.9727 28.5956C65.0488 29.4314 63.7609 29.8493 62.1094 29.8493C60.8043 29.8493 59.6666 29.5859 58.6963 29.0592C57.7262 28.5211 56.9812 27.7655 56.4614 26.7923C55.9532 25.8191 55.6992 24.6913 55.6992 23.409Z" stroke="#FFFCFC" stroke-width="0.2"/>
<path d="M77.4331 29.5906H75.8738V28.6117C75.8738 28.5316 75.8336 28.4915 75.7526 28.4915C75.718 28.4915 75.6834 28.5087 75.6488 28.543C75.6258 28.5659 75.5968 28.5946 75.5622 28.6289C74.9153 29.4418 73.9799 29.8483 72.7555 29.8483C71.6235 29.8483 70.7341 29.5334 70.0875 28.9037C69.4406 28.274 69.1172 27.3866 69.1172 26.2417V20.6602H70.6765V25.9841C70.6765 26.797 70.8843 27.4153 71.3 27.8389C71.716 28.2625 72.3165 28.4743 73.102 28.4743C73.9914 28.4743 74.6729 28.211 75.1462 27.6843C75.6314 27.1462 75.8738 26.3505 75.8738 25.2971V20.6602H77.4331V29.5906Z" stroke="#FFFCFC" stroke-width="0.2"/>
<path d="M81.1672 20.6594V29.5899H79.6082V20.6594H81.1672ZM80.4745 17.2246C81.0486 17.2246 81.5138 17.6859 81.5138 18.255C81.5138 18.8241 81.0486 19.2855 80.4745 19.2855H80.3013C79.7269 19.2855 79.2617 18.8241 79.2617 18.255C79.2617 17.6859 79.7269 17.2246 80.3013 17.2246H80.4745Z" stroke="#FFFCFC" stroke-width="0.2"/>
<path d="M82.8203 25.1247C82.8203 24.0942 83.0282 23.224 83.4441 22.5142C83.8714 21.8043 84.4201 21.2777 85.0901 20.9342C85.7597 20.5793 86.4761 20.4018 87.2383 20.4018C88.5203 20.4018 89.5137 20.8197 90.2182 21.6555C90.2759 21.7356 90.3395 21.7757 90.4086 21.7757C90.4897 21.7757 90.5301 21.7299 90.5301 21.6383V17.2246H92.0892V29.5899H90.5301V28.611C90.5301 28.5194 90.4897 28.4736 90.4086 28.4736C90.3395 28.4736 90.2759 28.5136 90.2182 28.5938C89.5137 29.4296 88.5203 29.8475 87.2383 29.8475C86.4761 29.8475 85.7597 29.6758 85.0901 29.3323C84.4201 28.9773 83.8714 28.4449 83.4441 27.7351C83.0282 27.0252 82.8203 26.1551 82.8203 25.1247ZM84.3796 25.1247C84.3796 26.178 84.6626 27.0023 85.2284 27.5977C85.8061 28.1816 86.5624 28.4736 87.4982 28.4736C88.4337 28.4736 89.1843 28.1816 89.7505 27.5977C90.3279 27.0023 90.6168 26.178 90.6168 25.1247C90.6168 24.0713 90.3279 23.2527 89.7505 22.6688C89.1843 22.0734 88.4337 21.7757 87.4982 21.7757C86.5624 21.7757 85.8061 22.0734 85.2284 22.6688C84.6626 23.2527 84.3796 24.0713 84.3796 25.1247Z" stroke="#FFFCFC" stroke-width="0.2"/>
<path d="M95.8054 17.2246V29.5899H94.2461V17.2246H95.8054Z" stroke="#FFFCFC" stroke-width="0.2"/>
</mask>
<g mask="url(#mask0_1702_330)">
<path d="M16.9727 17.2256H21.8237C23.0133 17.2256 23.9604 17.5233 24.665 18.1186C25.3695 18.7026 25.7218 19.5212 25.7218 20.5745C25.7218 21.6736 25.2136 22.5094 24.1972 23.0819C24.1279 23.1163 24.0817 23.1506 24.0586 23.185C24.0355 23.2078 24.024 23.2479 24.024 23.3052C24.024 23.3853 24.0702 23.4426 24.1626 23.4769C25.2598 23.912 25.8085 24.805 25.8085 26.1561C25.8085 27.2552 25.4504 28.1024 24.7343 28.6978C24.0297 29.2932 23.0596 29.5909 21.8237 29.5909H16.9727V17.2256ZM21.6504 22.5495C22.4127 22.5495 22.9902 22.4007 23.3829 22.103C23.7872 21.8053 23.9893 21.3244 23.9893 20.6604C23.9893 19.9963 23.7872 19.5154 23.3829 19.2178C22.9902 18.9201 22.4127 18.7713 21.6504 18.7713H18.7052V22.5495H21.6504ZM21.6504 28.0452C22.459 28.0452 23.0653 27.8964 23.4696 27.5987C23.8738 27.2895 24.076 26.7801 24.076 26.0702C24.076 25.3603 23.8738 24.8566 23.4696 24.5589C23.0653 24.2497 22.459 24.0952 21.6504 24.0952H18.7052V28.0452H21.6504Z" stroke="#FFFCFC" stroke-width="0.2"/>
</g>
<mask id="mask1_1702_330" style="mask-type:luminance" maskUnits="userSpaceOnUse" x="16" y="16" width="81" height="15">
<path d="M96.0022 16.6895H16.6875V30.0721H96.0022V16.6895Z" fill="white" stroke="#FFFCFC" stroke-width="0.2"/>
<path d="M16.9727 17.2246H21.8237C23.0133 17.2246 23.9604 17.5223 24.665 18.1176C25.3695 18.7016 25.7218 19.5202 25.7218 20.5735C25.7218 21.6727 25.2136 22.5085 24.1972 23.0809C24.1279 23.1153 24.0817 23.1496 24.0586 23.184C24.0355 23.2069 24.024 23.247 24.024 23.3042C24.024 23.3844 24.0702 23.4416 24.1626 23.4759C25.2598 23.911 25.8085 24.8041 25.8085 26.1551C25.8085 27.2542 25.4504 28.1015 24.7343 28.6968C24.0297 29.2922 23.0596 29.5899 21.8237 29.5899H16.9727V17.2246ZM21.6504 22.5486C22.4127 22.5486 22.9902 22.3997 23.3829 22.102C23.7872 21.8043 23.9893 21.3235 23.9893 20.6594C23.9893 19.9953 23.7872 19.5145 23.3829 19.2168C22.9902 18.9191 22.4127 18.7703 21.6504 18.7703H18.7052V22.5486H21.6504ZM21.6504 28.0442C22.459 28.0442 23.0653 27.8954 23.4696 27.5977C23.8738 27.2886 24.076 26.7791 24.076 26.0692C24.076 25.3594 23.8738 24.8556 23.4696 24.5579C23.0653 24.2488 22.459 24.0942 21.6504 24.0942H18.7052V28.0442H21.6504Z" stroke="#FFFCFC" stroke-width="0.2"/>
<path d="M35.7614 29.5906H34.2021V28.6117C34.2021 28.5316 34.1616 28.4915 34.0809 28.4915C34.0463 28.4915 34.0114 28.5087 33.9768 28.543C33.9538 28.5659 33.9248 28.5946 33.8902 28.6289C33.2433 29.4418 32.3078 29.8483 31.0835 29.8483C29.9517 29.8483 29.0624 29.5334 28.4155 28.9037C27.7687 28.274 27.4453 27.3866 27.4453 26.2417V20.6602H29.0045V25.9841C29.0045 26.797 29.2126 27.4153 29.6283 27.8389C30.044 28.2625 30.6448 28.4743 31.43 28.4743C32.3194 28.4743 33.0009 28.211 33.4745 27.6843C33.9597 27.1462 34.2021 26.3505 34.2021 25.2971V20.6602H35.7614V29.5906Z" stroke="#FFFCFC" stroke-width="0.2"/>
<path d="M39.4917 20.6594V29.5899H37.9324V20.6594H39.4917ZM38.7987 17.2246C39.3728 17.2246 39.8382 17.6859 39.8382 18.255C39.8382 18.8241 39.3728 19.2855 38.7987 19.2855H38.6255C38.0514 19.2855 37.5859 18.8241 37.5859 18.255C37.5859 17.6859 38.0514 17.2246 38.6255 17.2246H38.7987Z" stroke="#FFFCFC" stroke-width="0.2"/>
<path d="M41.1445 25.1247C41.1445 24.0942 41.3524 23.224 41.7681 22.5142C42.1956 21.8043 42.744 21.2777 43.414 20.9342C44.084 20.5793 44.8 20.4018 45.5622 20.4018C46.8445 20.4018 47.8376 20.8197 48.5422 21.6555C48.6001 21.7356 48.6634 21.7757 48.7329 21.7757C48.8136 21.7757 48.8541 21.7299 48.8541 21.6383V17.2246H50.4134V29.5899H48.8541V28.611C48.8541 28.5194 48.8136 28.4736 48.7329 28.4736C48.6634 28.4736 48.6001 28.5136 48.5422 28.5938C47.8376 29.4296 46.8445 29.8475 45.5622 29.8475C44.8 29.8475 44.084 29.6758 43.414 29.3323C42.744 28.9773 42.1956 28.4449 41.7681 27.7351C41.3524 27.0252 41.1445 26.1551 41.1445 25.1247ZM42.7038 25.1247C42.7038 26.178 42.9868 27.0023 43.5527 27.5977C44.1301 28.1816 44.8867 28.4736 45.8221 28.4736C46.7579 28.4736 47.5086 28.1816 48.0744 27.5977C48.6519 27.0023 48.9407 26.178 48.9407 25.1247C48.9407 24.0713 48.6519 23.2527 48.0744 22.6688C47.5086 22.0734 46.7579 21.7757 45.8221 21.7757C44.8867 21.7757 44.1301 22.0734 43.5527 22.6688C42.9868 23.2527 42.7038 24.0713 42.7038 25.1247Z" stroke="#FFFCFC" stroke-width="0.2"/>
<path d="M54.1296 17.2246V29.5899H52.5703V17.2246H54.1296Z" stroke="#FFFCFC" stroke-width="0.2"/>
<path d="M55.6992 23.409C55.6992 22.1267 55.9588 20.9989 56.4786 20.0257C57.0099 19.0525 57.7608 18.3026 58.7309 17.7759C59.7012 17.2378 60.8274 16.9688 62.1094 16.9688C63.2876 16.9688 64.2866 17.2035 65.1067 17.6729C65.9381 18.1309 66.562 18.7319 66.9776 19.4762C67.3936 20.2204 67.6186 21.0161 67.6535 21.8633H65.921C65.8284 20.8444 65.4648 20.0314 64.8294 19.4246C64.194 18.8178 63.2586 18.5144 62.0227 18.5144C61.1103 18.5144 60.3076 18.7205 59.6146 19.1327C58.9216 19.5334 58.3844 20.1059 58.0033 20.8501C57.6222 21.5943 57.4315 22.4473 57.4315 23.409C57.4315 24.3822 57.6163 25.2409 57.9861 25.9851C58.3672 26.7179 58.9157 27.2903 59.6318 27.7025C60.3478 28.1032 61.2026 28.3036 62.196 28.3036C63.3626 28.3036 64.2289 28.046 64.7948 27.5308C65.3607 27.0155 65.6436 26.3286 65.6436 25.4699H61.0698V23.9242H67.3762V25.1436C67.3762 26.6091 66.9085 27.7598 65.9727 28.5956C65.0488 29.4314 63.7609 29.8493 62.1094 29.8493C60.8043 29.8493 59.6666 29.5859 58.6963 29.0592C57.7262 28.5211 56.9812 27.7655 56.4614 26.7923C55.9532 25.8191 55.6992 24.6913 55.6992 23.409Z" stroke="#FFFCFC" stroke-width="0.2"/>
<path d="M77.4331 29.5906H75.8738V28.6117C75.8738 28.5316 75.8336 28.4915 75.7526 28.4915C75.718 28.4915 75.6834 28.5087 75.6488 28.543C75.6258 28.5659 75.5968 28.5946 75.5622 28.6289C74.9153 29.4418 73.9799 29.8483 72.7555 29.8483C71.6235 29.8483 70.7341 29.5334 70.0875 28.9037C69.4406 28.274 69.1172 27.3866 69.1172 26.2417V20.6602H70.6765V25.9841C70.6765 26.797 70.8843 27.4153 71.3 27.8389C71.716 28.2625 72.3165 28.4743 73.102 28.4743C73.9914 28.4743 74.6729 28.211 75.1462 27.6843C75.6314 27.1462 75.8738 26.3505 75.8738 25.2971V20.6602H77.4331V29.5906Z" stroke="#FFFCFC" stroke-width="0.2"/>
<path d="M81.1672 20.6594V29.5899H79.6082V20.6594H81.1672ZM80.4745 17.2246C81.0486 17.2246 81.5138 17.6859 81.5138 18.255C81.5138 18.8241 81.0486 19.2855 80.4745 19.2855H80.3013C79.7269 19.2855 79.2617 18.8241 79.2617 18.255C79.2617 17.6859 79.7269 17.2246 80.3013 17.2246H80.4745Z" stroke="#FFFCFC" stroke-width="0.2"/>
<path d="M82.8203 25.1247C82.8203 24.0942 83.0282 23.224 83.4441 22.5142C83.8714 21.8043 84.4201 21.2777 85.0901 20.9342C85.7597 20.5793 86.4761 20.4018 87.2383 20.4018C88.5203 20.4018 89.5137 20.8197 90.2182 21.6555C90.2759 21.7356 90.3395 21.7757 90.4086 21.7757C90.4897 21.7757 90.5301 21.7299 90.5301 21.6383V17.2246H92.0892V29.5899H90.5301V28.611C90.5301 28.5194 90.4897 28.4736 90.4086 28.4736C90.3395 28.4736 90.2759 28.5136 90.2182 28.5938C89.5137 29.4296 88.5203 29.8475 87.2383 29.8475C86.4761 29.8475 85.7597 29.6758 85.0901 29.3323C84.4201 28.9773 83.8714 28.4449 83.4441 27.7351C83.0282 27.0252 82.8203 26.1551 82.8203 25.1247ZM84.3796 25.1247C84.3796 26.178 84.6626 27.0023 85.2284 27.5977C85.8061 28.1816 86.5624 28.4736 87.4982 28.4736C88.4337 28.4736 89.1843 28.1816 89.7505 27.5977C90.3279 27.0023 90.6168 26.178 90.6168 25.1247C90.6168 24.0713 90.3279 23.2527 89.7505 22.6688C89.1843 22.0734 88.4337 21.7757 87.4982 21.7757C86.5624 21.7757 85.8061 22.0734 85.2284 22.6688C84.6626 23.2527 84.3796 24.0713 84.3796 25.1247Z" stroke="#FFFCFC" stroke-width="0.2"/>
<path d="M95.8054 17.2246V29.5899H94.2461V17.2246H95.8054Z" stroke="#FFFCFC" stroke-width="0.2"/>
</mask>
<g mask="url(#mask1_1702_330)">
<path d="M35.7653 29.5916H34.206V28.6127C34.206 28.5325 34.1655 28.4925 34.0848 28.4925C34.0502 28.4925 34.0153 28.5097 33.9807 28.544C33.9577 28.5669 33.9287 28.5955 33.8941 28.6299C33.2472 29.4428 32.3117 29.8492 31.0874 29.8492C29.9556 29.8492 29.0663 29.5344 28.4194 28.9047C27.7726 28.2749 27.4492 27.3876 27.4492 26.2427V20.6611H29.0084V25.9851C29.0084 26.798 29.2165 27.4162 29.6322 27.8399C30.0479 28.2635 30.6487 28.4753 31.4339 28.4753C32.3233 28.4753 33.0048 28.212 33.4784 27.6853C33.9636 27.1472 34.206 26.3515 34.206 25.2981V20.6611H35.7653V29.5916Z" stroke="#FFFCFC" stroke-width="0.2"/>
</g>
<mask id="mask2_1702_330" style="mask-type:luminance" maskUnits="userSpaceOnUse" x="16" y="16" width="81" height="15">
<path d="M96.0022 16.6895H16.6875V30.0721H96.0022V16.6895Z" fill="white" stroke="#FFFCFC" stroke-width="0.2"/>
<path d="M16.9727 17.2246H21.8237C23.0133 17.2246 23.9604 17.5223 24.665 18.1176C25.3695 18.7016 25.7218 19.5202 25.7218 20.5735C25.7218 21.6727 25.2136 22.5085 24.1972 23.0809C24.1279 23.1153 24.0817 23.1496 24.0586 23.184C24.0355 23.2069 24.024 23.247 24.024 23.3042C24.024 23.3844 24.0702 23.4416 24.1626 23.4759C25.2598 23.911 25.8085 24.8041 25.8085 26.1551C25.8085 27.2542 25.4504 28.1015 24.7343 28.6968C24.0297 29.2922 23.0596 29.5899 21.8237 29.5899H16.9727V17.2246ZM21.6504 22.5486C22.4127 22.5486 22.9902 22.3997 23.3829 22.102C23.7872 21.8043 23.9893 21.3235 23.9893 20.6594C23.9893 19.9953 23.7872 19.5145 23.3829 19.2168C22.9902 18.9191 22.4127 18.7703 21.6504 18.7703H18.7052V22.5486H21.6504ZM21.6504 28.0442C22.459 28.0442 23.0653 27.8954 23.4696 27.5977C23.8738 27.2886 24.076 26.7791 24.076 26.0692C24.076 25.3594 23.8738 24.8556 23.4696 24.5579C23.0653 24.2488 22.459 24.0942 21.6504 24.0942H18.7052V28.0442H21.6504Z" stroke="#FFFCFC" stroke-width="0.2"/>
<path d="M35.7614 29.5906H34.2021V28.6117C34.2021 28.5316 34.1616 28.4915 34.0809 28.4915C34.0463 28.4915 34.0114 28.5087 33.9768 28.543C33.9538 28.5659 33.9248 28.5946 33.8902 28.6289C33.2433 29.4418 32.3078 29.8483 31.0835 29.8483C29.9517 29.8483 29.0624 29.5334 28.4155 28.9037C27.7687 28.274 27.4453 27.3866 27.4453 26.2417V20.6602H29.0045V25.9841C29.0045 26.797 29.2126 27.4153 29.6283 27.8389C30.044 28.2625 30.6448 28.4743 31.43 28.4743C32.3194 28.4743 33.0009 28.211 33.4745 27.6843C33.9597 27.1462 34.2021 26.3505 34.2021 25.2971V20.6602H35.7614V29.5906Z" stroke="#FFFCFC" stroke-width="0.2"/>
<path d="M39.4917 20.6594V29.5899H37.9324V20.6594H39.4917ZM38.7987 17.2246C39.3728 17.2246 39.8382 17.6859 39.8382 18.255C39.8382 18.8241 39.3728 19.2855 38.7987 19.2855H38.6255C38.0514 19.2855 37.5859 18.8241 37.5859 18.255C37.5859 17.6859 38.0514 17.2246 38.6255 17.2246H38.7987Z" stroke="#FFFCFC" stroke-width="0.2"/>
<path d="M41.1445 25.1247C41.1445 24.0942 41.3524 23.224 41.7681 22.5142C42.1956 21.8043 42.744 21.2777 43.414 20.9342C44.084 20.5793 44.8 20.4018 45.5622 20.4018C46.8445 20.4018 47.8376 20.8197 48.5422 21.6555C48.6001 21.7356 48.6634 21.7757 48.7329 21.7757C48.8136 21.7757 48.8541 21.7299 48.8541 21.6383V17.2246H50.4134V29.5899H48.8541V28.611C48.8541 28.5194 48.8136 28.4736 48.7329 28.4736C48.6634 28.4736 48.6001 28.5136 48.5422 28.5938C47.8376 29.4296 46.8445 29.8475 45.5622 29.8475C44.8 29.8475 44.084 29.6758 43.414 29.3323C42.744 28.9773 42.1956 28.4449 41.7681 27.7351C41.3524 27.0252 41.1445 26.1551 41.1445 25.1247ZM42.7038 25.1247C42.7038 26.178 42.9868 27.0023 43.5527 27.5977C44.1301 28.1816 44.8867 28.4736 45.8221 28.4736C46.7579 28.4736 47.5086 28.1816 48.0744 27.5977C48.6519 27.0023 48.9407 26.178 48.9407 25.1247C48.9407 24.0713 48.6519 23.2527 48.0744 22.6688C47.5086 22.0734 46.7579 21.7757 45.8221 21.7757C44.8867 21.7757 44.1301 22.0734 43.5527 22.6688C42.9868 23.2527 42.7038 24.0713 42.7038 25.1247Z" stroke="#FFFCFC" stroke-width="0.2"/>
<path d="M54.1296 17.2246V29.5899H52.5703V17.2246H54.1296Z" stroke="#FFFCFC" stroke-width="0.2"/>
<path d="M55.6992 23.409C55.6992 22.1267 55.9588 20.9989 56.4786 20.0257C57.0099 19.0525 57.7608 18.3026 58.7309 17.7759C59.7012 17.2378 60.8274 16.9688 62.1094 16.9688C63.2876 16.9688 64.2866 17.2035 65.1067 17.6729C65.9381 18.1309 66.562 18.7319 66.9776 19.4762C67.3936 20.2204 67.6186 21.0161 67.6535 21.8633H65.921C65.8284 20.8444 65.4648 20.0314 64.8294 19.4246C64.194 18.8178 63.2586 18.5144 62.0227 18.5144C61.1103 18.5144 60.3076 18.7205 59.6146 19.1327C58.9216 19.5334 58.3844 20.1059 58.0033 20.8501C57.6222 21.5943 57.4315 22.4473 57.4315 23.409C57.4315 24.3822 57.6163 25.2409 57.9861 25.9851C58.3672 26.7179 58.9157 27.2903 59.6318 27.7025C60.3478 28.1032 61.2026 28.3036 62.196 28.3036C63.3626 28.3036 64.2289 28.046 64.7948 27.5308C65.3607 27.0155 65.6436 26.3286 65.6436 25.4699H61.0698V23.9242H67.3762V25.1436C67.3762 26.6091 66.9085 27.7598 65.9727 28.5956C65.0488 29.4314 63.7609 29.8493 62.1094 29.8493C60.8043 29.8493 59.6666 29.5859 58.6963 29.0592C57.7262 28.5211 56.9812 27.7655 56.4614 26.7923C55.9532 25.8191 55.6992 24.6913 55.6992 23.409Z" stroke="#FFFCFC" stroke-width="0.2"/>
<path d="M77.4331 29.5906H75.8738V28.6117C75.8738 28.5316 75.8336 28.4915 75.7526 28.4915C75.718 28.4915 75.6834 28.5087 75.6488 28.543C75.6258 28.5659 75.5968 28.5946 75.5622 28.6289C74.9153 29.4418 73.9799 29.8483 72.7555 29.8483C71.6235 29.8483 70.7341 29.5334 70.0875 28.9037C69.4406 28.274 69.1172 27.3866 69.1172 26.2417V20.6602H70.6765V25.9841C70.6765 26.797 70.8843 27.4153 71.3 27.8389C71.716 28.2625 72.3165 28.4743 73.102 28.4743C73.9914 28.4743 74.6729 28.211 75.1462 27.6843C75.6314 27.1462 75.8738 26.3505 75.8738 25.2971V20.6602H77.4331V29.5906Z" stroke="#FFFCFC" stroke-width="0.2"/>
<path d="M81.1672 20.6594V29.5899H79.6082V20.6594H81.1672ZM80.4745 17.2246C81.0486 17.2246 81.5138 17.6859 81.5138 18.255C81.5138 18.8241 81.0486 19.2855 80.4745 19.2855H80.3013C79.7269 19.2855 79.2617 18.8241 79.2617 18.255C79.2617 17.6859 79.7269 17.2246 80.3013 17.2246H80.4745Z" stroke="#FFFCFC" stroke-width="0.2"/>
<path d="M82.8203 25.1247C82.8203 24.0942 83.0282 23.224 83.4441 22.5142C83.8714 21.8043 84.4201 21.2777 85.0901 20.9342C85.7597 20.5793 86.4761 20.4018 87.2383 20.4018C88.5203 20.4018 89.5137 20.8197 90.2182 21.6555C90.2759 21.7356 90.3395 21.7757 90.4086 21.7757C90.4897 21.7757 90.5301 21.7299 90.5301 21.6383V17.2246H92.0892V29.5899H90.5301V28.611C90.5301 28.5194 90.4897 28.4736 90.4086 28.4736C90.3395 28.4736 90.2759 28.5136 90.2182 28.5938C89.5137 29.4296 88.5203 29.8475 87.2383 29.8475C86.4761 29.8475 85.7597 29.6758 85.0901 29.3323C84.4201 28.9773 83.8714 28.4449 83.4441 27.7351C83.0282 27.0252 82.8203 26.1551 82.8203 25.1247ZM84.3796 25.1247C84.3796 26.178 84.6626 27.0023 85.2284 27.5977C85.8061 28.1816 86.5624 28.4736 87.4982 28.4736C88.4337 28.4736 89.1843 28.1816 89.7505 27.5977C90.3279 27.0023 90.6168 26.178 90.6168 25.1247C90.6168 24.0713 90.3279 23.2527 89.7505 22.6688C89.1843 22.0734 88.4337 21.7757 87.4982 21.7757C86.5624 21.7757 85.8061 22.0734 85.2284 22.6688C84.6626 23.2527 84.3796 24.0713 84.3796 25.1247Z" stroke="#FFFCFC" stroke-width="0.2"/>
<path d="M95.8054 17.2246V29.5899H94.2461V17.2246H95.8054Z" stroke="#FFFCFC" stroke-width="0.2"/>
</mask>
<g mask="url(#mask2_1702_330)">
<path d="M39.4917 20.6604V29.5909H37.9324V20.6604H39.4917ZM38.7987 17.2256C39.3728 17.2256 39.8382 17.6869 39.8382 18.256C39.8382 18.8251 39.3728 19.2865 38.7987 19.2865H38.6255C38.0514 19.2865 37.5859 18.8251 37.5859 18.256C37.5859 17.6869 38.0514 17.2256 38.6255 17.2256H38.7987Z" stroke="#FFFCFC" stroke-width="0.2"/>
</g>
<mask id="mask3_1702_330" style="mask-type:luminance" maskUnits="userSpaceOnUse" x="16" y="16" width="81" height="15">
<path d="M96.0022 16.6895H16.6875V30.0721H96.0022V16.6895Z" fill="white" stroke="#FFFCFC" stroke-width="0.2"/>
<path d="M16.9727 17.2246H21.8237C23.0133 17.2246 23.9604 17.5223 24.665 18.1176C25.3695 18.7016 25.7218 19.5202 25.7218 20.5735C25.7218 21.6727 25.2136 22.5085 24.1972 23.0809C24.1279 23.1153 24.0817 23.1496 24.0586 23.184C24.0355 23.2069 24.024 23.247 24.024 23.3042C24.024 23.3844 24.0702 23.4416 24.1626 23.4759C25.2598 23.911 25.8085 24.8041 25.8085 26.1551C25.8085 27.2542 25.4504 28.1015 24.7343 28.6968C24.0297 29.2922 23.0596 29.5899 21.8237 29.5899H16.9727V17.2246ZM21.6504 22.5486C22.4127 22.5486 22.9902 22.3997 23.3829 22.102C23.7872 21.8043 23.9893 21.3235 23.9893 20.6594C23.9893 19.9953 23.7872 19.5145 23.3829 19.2168C22.9902 18.9191 22.4127 18.7703 21.6504 18.7703H18.7052V22.5486H21.6504ZM21.6504 28.0442C22.459 28.0442 23.0653 27.8954 23.4696 27.5977C23.8738 27.2886 24.076 26.7791 24.076 26.0692C24.076 25.3594 23.8738 24.8556 23.4696 24.5579C23.0653 24.2488 22.459 24.0942 21.6504 24.0942H18.7052V28.0442H21.6504Z" stroke="#FFFCFC" stroke-width="0.2"/>
<path d="M35.7614 29.5906H34.2021V28.6117C34.2021 28.5316 34.1616 28.4915 34.0809 28.4915C34.0463 28.4915 34.0114 28.5087 33.9768 28.543C33.9538 28.5659 33.9248 28.5946 33.8902 28.6289C33.2433 29.4418 32.3078 29.8483 31.0835 29.8483C29.9517 29.8483 29.0624 29.5334 28.4155 28.9037C27.7687 28.274 27.4453 27.3866 27.4453 26.2417V20.6602H29.0045V25.9841C29.0045 26.797 29.2126 27.4153 29.6283 27.8389C30.044 28.2625 30.6448 28.4743 31.43 28.4743C32.3194 28.4743 33.0009 28.211 33.4745 27.6843C33.9597 27.1462 34.2021 26.3505 34.2021 25.2971V20.6602H35.7614V29.5906Z" stroke="#FFFCFC" stroke-width="0.2"/>
<path d="M39.4917 20.6594V29.5899H37.9324V20.6594H39.4917ZM38.7987 17.2246C39.3728 17.2246 39.8382 17.6859 39.8382 18.255C39.8382 18.8241 39.3728 19.2855 38.7987 19.2855H38.6255C38.0514 19.2855 37.5859 18.8241 37.5859 18.255C37.5859 17.6859 38.0514 17.2246 38.6255 17.2246H38.7987Z" stroke="#FFFCFC" stroke-width="0.2"/>
<path d="M41.1445 25.1247C41.1445 24.0942 41.3524 23.224 41.7681 22.5142C42.1956 21.8043 42.744 21.2777 43.414 20.9342C44.084 20.5793 44.8 20.4018 45.5622 20.4018C46.8445 20.4018 47.8376 20.8197 48.5422 21.6555C48.6001 21.7356 48.6634 21.7757 48.7329 21.7757C48.8136 21.7757 48.8541 21.7299 48.8541 21.6383V17.2246H50.4134V29.5899H48.8541V28.611C48.8541 28.5194 48.8136 28.4736 48.7329 28.4736C48.6634 28.4736 48.6001 28.5136 48.5422 28.5938C47.8376 29.4296 46.8445 29.8475 45.5622 29.8475C44.8 29.8475 44.084 29.6758 43.414 29.3323C42.744 28.9773 42.1956 28.4449 41.7681 27.7351C41.3524 27.0252 41.1445 26.1551 41.1445 25.1247ZM42.7038 25.1247C42.7038 26.178 42.9868 27.0023 43.5527 27.5977C44.1301 28.1816 44.8867 28.4736 45.8221 28.4736C46.7579 28.4736 47.5086 28.1816 48.0744 27.5977C48.6519 27.0023 48.9407 26.178 48.9407 25.1247C48.9407 24.0713 48.6519 23.2527 48.0744 22.6688C47.5086 22.0734 46.7579 21.7757 45.8221 21.7757C44.8867 21.7757 44.1301 22.0734 43.5527 22.6688C42.9868 23.2527 42.7038 24.0713 42.7038 25.1247Z" stroke="#FFFCFC" stroke-width="0.2"/>
<path d="M54.1296 17.2246V29.5899H52.5703V17.2246H54.1296Z" stroke="#FFFCFC" stroke-width="0.2"/>
<path d="M55.6992 23.409C55.6992 22.1267 55.9588 20.9989 56.4786 20.0257C57.0099 19.0525 57.7608 18.3026 58.7309 17.7759C59.7012 17.2378 60.8274 16.9688 62.1094 16.9688C63.2876 16.9688 64.2866 17.2035 65.1067 17.6729C65.9381 18.1309 66.562 18.7319 66.9776 19.4762C67.3936 20.2204 67.6186 21.0161 67.6535 21.8633H65.921C65.8284 20.8444 65.4648 20.0314 64.8294 19.4246C64.194 18.8178 63.2586 18.5144 62.0227 18.5144C61.1103 18.5144 60.3076 18.7205 59.6146 19.1327C58.9216 19.5334 58.3844 20.1059 58.0033 20.8501C57.6222 21.5943 57.4315 22.4473 57.4315 23.409C57.4315 24.3822 57.6163 25.2409 57.9861 25.9851C58.3672 26.7179 58.9157 27.2903 59.6318 27.7025C60.3478 28.1032 61.2026 28.3036 62.196 28.3036C63.3626 28.3036 64.2289 28.046 64.7948 27.5308C65.3607 27.0155 65.6436 26.3286 65.6436 25.4699H61.0698V23.9242H67.3762V25.1436C67.3762 26.6091 66.9085 27.7598 65.9727 28.5956C65.0488 29.4314 63.7609 29.8493 62.1094 29.8493C60.8043 29.8493 59.6666 29.5859 58.6963 29.0592C57.7262 28.5211 56.9812 27.7655 56.4614 26.7923C55.9532 25.8191 55.6992 24.6913 55.6992 23.409Z" stroke="#FFFCFC" stroke-width="0.2"/>
<path d="M77.4331 29.5906H75.8738V28.6117C75.8738 28.5316 75.8336 28.4915 75.7526 28.4915C75.718 28.4915 75.6834 28.5087 75.6488 28.543C75.6258 28.5659 75.5968 28.5946 75.5622 28.6289C74.9153 29.4418 73.9799 29.8483 72.7555 29.8483C71.6235 29.8483 70.7341 29.5334 70.0875 28.9037C69.4406 28.274 69.1172 27.3866 69.1172 26.2417V20.6602H70.6765V25.9841C70.6765 26.797 70.8843 27.4153 71.3 27.8389C71.716 28.2625 72.3165 28.4743 73.102 28.4743C73.9914 28.4743 74.6729 28.211 75.1462 27.6843C75.6314 27.1462 75.8738 26.3505 75.8738 25.2971V20.6602H77.4331V29.5906Z" stroke="#FFFCFC" stroke-width="0.2"/>
<path d="M81.1672 20.6594V29.5899H79.6082V20.6594H81.1672ZM80.4745 17.2246C81.0486 17.2246 81.5138 17.6859 81.5138 18.255C81.5138 18.8241 81.0486 19.2855 80.4745 19.2855H80.3013C79.7269 19.2855 79.2617 18.8241 79.2617 18.255C79.2617 17.6859 79.7269 17.2246 80.3013 17.2246H80.4745Z" stroke="#FFFCFC" stroke-width="0.2"/>
<path d="M82.8203 25.1247C82.8203 24.0942 83.0282 23.224 83.4441 22.5142C83.8714 21.8043 84.4201 21.2777 85.0901 20.9342C85.7597 20.5793 86.4761 20.4018 87.2383 20.4018C88.5203 20.4018 89.5137 20.8197 90.2182 21.6555C90.2759 21.7356 90.3395 21.7757 90.4086 21.7757C90.4897 21.7757 90.5301 21.7299 90.5301 21.6383V17.2246H92.0892V29.5899H90.5301V28.611C90.5301 28.5194 90.4897 28.4736 90.4086 28.4736C90.3395 28.4736 90.2759 28.5136 90.2182 28.5938C89.5137 29.4296 88.5203 29.8475 87.2383 29.8475C86.4761 29.8475 85.7597 29.6758 85.0901 29.3323C84.4201 28.9773 83.8714 28.4449 83.4441 27.7351C83.0282 27.0252 82.8203 26.1551 82.8203 25.1247ZM84.3796 25.1247C84.3796 26.178 84.6626 27.0023 85.2284 27.5977C85.8061 28.1816 86.5624 28.4736 87.4982 28.4736C88.4337 28.4736 89.1843 28.1816 89.7505 27.5977C90.3279 27.0023 90.6168 26.178 90.6168 25.1247C90.6168 24.0713 90.3279 23.2527 89.7505 22.6688C89.1843 22.0734 88.4337 21.7757 87.4982 21.7757C86.5624 21.7757 85.8061 22.0734 85.2284 22.6688C84.6626 23.2527 84.3796 24.0713 84.3796 25.1247Z" stroke="#FFFCFC" stroke-width="0.2"/>
<path d="M95.8054 17.2246V29.5899H94.2461V17.2246H95.8054Z" stroke="#FFFCFC" stroke-width="0.2"/>
</mask>
<g mask="url(#mask3_1702_330)">
<path d="M41.1445 25.1256C41.1445 24.0952 41.3524 23.225 41.7681 22.5152C42.1956 21.8053 42.744 21.2787 43.414 20.9352C44.084 20.5802 44.8 20.4028 45.5622 20.4028C46.8445 20.4028 47.8376 20.8207 48.5422 21.6565C48.6001 21.7366 48.6634 21.7767 48.7329 21.7767C48.8136 21.7767 48.8541 21.7309 48.8541 21.6393V17.2256H50.4134V29.5909H48.8541V28.6119C48.8541 28.5204 48.8136 28.4746 48.7329 28.4746C48.6634 28.4746 48.6001 28.5146 48.5422 28.5948C47.8376 29.4306 46.8445 29.8485 45.5622 29.8485C44.8 29.8485 44.084 29.6767 43.414 29.3332C42.744 28.9783 42.1956 28.4459 41.7681 27.7361C41.3524 27.0262 41.1445 26.1561 41.1445 25.1256ZM42.7038 25.1256C42.7038 26.179 42.9868 27.0033 43.5527 27.5987C44.1301 28.1826 44.8867 28.4746 45.8221 28.4746C46.7579 28.4746 47.5086 28.1826 48.0744 27.5987C48.6519 27.0033 48.9407 26.179 48.9407 25.1256C48.9407 24.0723 48.6519 23.2537 48.0744 22.6698C47.5086 22.0744 46.7579 21.7767 45.8221 21.7767C44.8867 21.7767 44.1301 22.0744 43.5527 22.6698C42.9868 23.2537 42.7038 24.0723 42.7038 25.1256Z" stroke="#FFFCFC" stroke-width="0.2"/>
</g>
<mask id="mask4_1702_330" style="mask-type:luminance" maskUnits="userSpaceOnUse" x="16" y="16" width="81" height="15">
<path d="M96.0022 16.6895H16.6875V30.0721H96.0022V16.6895Z" fill="white" stroke="#FFFCFC" stroke-width="0.2"/>
<path d="M16.9727 17.2246H21.8237C23.0133 17.2246 23.9604 17.5223 24.665 18.1176C25.3695 18.7016 25.7218 19.5202 25.7218 20.5735C25.7218 21.6727 25.2136 22.5085 24.1972 23.0809C24.1279 23.1153 24.0817 23.1496 24.0586 23.184C24.0355 23.2069 24.024 23.247 24.024 23.3042C24.024 23.3844 24.0702 23.4416 24.1626 23.4759C25.2598 23.911 25.8085 24.8041 25.8085 26.1551C25.8085 27.2542 25.4504 28.1015 24.7343 28.6968C24.0297 29.2922 23.0596 29.5899 21.8237 29.5899H16.9727V17.2246ZM21.6504 22.5486C22.4127 22.5486 22.9902 22.3997 23.3829 22.102C23.7872 21.8043 23.9893 21.3235 23.9893 20.6594C23.9893 19.9953 23.7872 19.5145 23.3829 19.2168C22.9902 18.9191 22.4127 18.7703 21.6504 18.7703H18.7052V22.5486H21.6504ZM21.6504 28.0442C22.459 28.0442 23.0653 27.8954 23.4696 27.5977C23.8738 27.2886 24.076 26.7791 24.076 26.0692C24.076 25.3594 23.8738 24.8556 23.4696 24.5579C23.0653 24.2488 22.459 24.0942 21.6504 24.0942H18.7052V28.0442H21.6504Z" stroke="#FFFCFC" stroke-width="0.2"/>
<path d="M35.7614 29.5906H34.2021V28.6117C34.2021 28.5316 34.1616 28.4915 34.0809 28.4915C34.0463 28.4915 34.0114 28.5087 33.9768 28.543C33.9538 28.5659 33.9248 28.5946 33.8902 28.6289C33.2433 29.4418 32.3078 29.8483 31.0835 29.8483C29.9517 29.8483 29.0624 29.5334 28.4155 28.9037C27.7687 28.274 27.4453 27.3866 27.4453 26.2417V20.6602H29.0045V25.9841C29.0045 26.797 29.2126 27.4153 29.6283 27.8389C30.044 28.2625 30.6448 28.4743 31.43 28.4743C32.3194 28.4743 33.0009 28.211 33.4745 27.6843C33.9597 27.1462 34.2021 26.3505 34.2021 25.2971V20.6602H35.7614V29.5906Z" stroke="#FFFCFC" stroke-width="0.2"/>
<path d="M39.4917 20.6594V29.5899H37.9324V20.6594H39.4917ZM38.7987 17.2246C39.3728 17.2246 39.8382 17.6859 39.8382 18.255C39.8382 18.8241 39.3728 19.2855 38.7987 19.2855H38.6255C38.0514 19.2855 37.5859 18.8241 37.5859 18.255C37.5859 17.6859 38.0514 17.2246 38.6255 17.2246H38.7987Z" stroke="#FFFCFC" stroke-width="0.2"/>
<path d="M41.1445 25.1247C41.1445 24.0942 41.3524 23.224 41.7681 22.5142C42.1956 21.8043 42.744 21.2777 43.414 20.9342C44.084 20.5793 44.8 20.4018 45.5622 20.4018C46.8445 20.4018 47.8376 20.8197 48.5422 21.6555C48.6001 21.7356 48.6634 21.7757 48.7329 21.7757C48.8136 21.7757 48.8541 21.7299 48.8541 21.6383V17.2246H50.4134V29.5899H48.8541V28.611C48.8541 28.5194 48.8136 28.4736 48.7329 28.4736C48.6634 28.4736 48.6001 28.5136 48.5422 28.5938C47.8376 29.4296 46.8445 29.8475 45.5622 29.8475C44.8 29.8475 44.084 29.6758 43.414 29.3323C42.744 28.9773 42.1956 28.4449 41.7681 27.7351C41.3524 27.0252 41.1445 26.1551 41.1445 25.1247ZM42.7038 25.1247C42.7038 26.178 42.9868 27.0023 43.5527 27.5977C44.1301 28.1816 44.8867 28.4736 45.8221 28.4736C46.7579 28.4736 47.5086 28.1816 48.0744 27.5977C48.6519 27.0023 48.9407 26.178 48.9407 25.1247C48.9407 24.0713 48.6519 23.2527 48.0744 22.6688C47.5086 22.0734 46.7579 21.7757 45.8221 21.7757C44.8867 21.7757 44.1301 22.0734 43.5527 22.6688C42.9868 23.2527 42.7038 24.0713 42.7038 25.1247Z" stroke="#FFFCFC" stroke-width="0.2"/>
<path d="M54.1296 17.2246V29.5899H52.5703V17.2246H54.1296Z" stroke="#FFFCFC" stroke-width="0.2"/>
<path d="M55.6992 23.409C55.6992 22.1267 55.9588 20.9989 56.4786 20.0257C57.0099 19.0525 57.7608 18.3026 58.7309 17.7759C59.7012 17.2378 60.8274 16.9688 62.1094 16.9688C63.2876 16.9688 64.2866 17.2035 65.1067 17.6729C65.9381 18.1309 66.562 18.7319 66.9776 19.4762C67.3936 20.2204 67.6186 21.0161 67.6535 21.8633H65.921C65.8284 20.8444 65.4648 20.0314 64.8294 19.4246C64.194 18.8178 63.2586 18.5144 62.0227 18.5144C61.1103 18.5144 60.3076 18.7205 59.6146 19.1327C58.9216 19.5334 58.3844 20.1059 58.0033 20.8501C57.6222 21.5943 57.4315 22.4473 57.4315 23.409C57.4315 24.3822 57.6163 25.2409 57.9861 25.9851C58.3672 26.7179 58.9157 27.2903 59.6318 27.7025C60.3478 28.1032 61.2026 28.3036 62.196 28.3036C63.3626 28.3036 64.2289 28.046 64.7948 27.5308C65.3607 27.0155 65.6436 26.3286 65.6436 25.4699H61.0698V23.9242H67.3762V25.1436C67.3762 26.6091 66.9085 27.7598 65.9727 28.5956C65.0488 29.4314 63.7609 29.8493 62.1094 29.8493C60.8043 29.8493 59.6666 29.5859 58.6963 29.0592C57.7262 28.5211 56.9812 27.7655 56.4614 26.7923C55.9532 25.8191 55.6992 24.6913 55.6992 23.409Z" stroke="#FFFCFC" stroke-width="0.2"/>
<path d="M77.4331 29.5906H75.8738V28.6117C75.8738 28.5316 75.8336 28.4915 75.7526 28.4915C75.718 28.4915 75.6834 28.5087 75.6488 28.543C75.6258 28.5659 75.5968 28.5946 75.5622 28.6289C74.9153 29.4418 73.9799 29.8483 72.7555 29.8483C71.6235 29.8483 70.7341 29.5334 70.0875 28.9037C69.4406 28.274 69.1172 27.3866 69.1172 26.2417V20.6602H70.6765V25.9841C70.6765 26.797 70.8843 27.4153 71.3 27.8389C71.716 28.2625 72.3165 28.4743 73.102 28.4743C73.9914 28.4743 74.6729 28.211 75.1462 27.6843C75.6314 27.1462 75.8738 26.3505 75.8738 25.2971V20.6602H77.4331V29.5906Z" stroke="#FFFCFC" stroke-width="0.2"/>
<path d="M81.1672 20.6594V29.5899H79.6082V20.6594H81.1672ZM80.4745 17.2246C81.0486 17.2246 81.5138 17.6859 81.5138 18.255C81.5138 18.8241 81.0486 19.2855 80.4745 19.2855H80.3013C79.7269 19.2855 79.2617 18.8241 79.2617 18.255C79.2617 17.6859 79.7269 17.2246 80.3013 17.2246H80.4745Z" stroke="#FFFCFC" stroke-width="0.2"/>
<path d="M82.8203 25.1247C82.8203 24.0942 83.0282 23.224 83.4441 22.5142C83.8714 21.8043 84.4201 21.2777 85.0901 20.9342C85.7597 20.5793 86.4761 20.4018 87.2383 20.4018C88.5203 20.4018 89.5137 20.8197 90.2182 21.6555C90.2759 21.7356 90.3395 21.7757 90.4086 21.7757C90.4897 21.7757 90.5301 21.7299 90.5301 21.6383V17.2246H92.0892V29.5899H90.5301V28.611C90.5301 28.5194 90.4897 28.4736 90.4086 28.4736C90.3395 28.4736 90.2759 28.5136 90.2182 28.5938C89.5137 29.4296 88.5203 29.8475 87.2383 29.8475C86.4761 29.8475 85.7597 29.6758 85.0901 29.3323C84.4201 28.9773 83.8714 28.4449 83.4441 27.7351C83.0282 27.0252 82.8203 26.1551 82.8203 25.1247ZM84.3796 25.1247C84.3796 26.178 84.6626 27.0023 85.2284 27.5977C85.8061 28.1816 86.5624 28.4736 87.4982 28.4736C88.4337 28.4736 89.1843 28.1816 89.7505 27.5977C90.3279 27.0023 90.6168 26.178 90.6168 25.1247C90.6168 24.0713 90.3279 23.2527 89.7505 22.6688C89.1843 22.0734 88.4337 21.7757 87.4982 21.7757C86.5624 21.7757 85.8061 22.0734 85.2284 22.6688C84.6626 23.2527 84.3796 24.0713 84.3796 25.1247Z" stroke="#FFFCFC" stroke-width="0.2"/>
<path d="M95.8054 17.2246V29.5899H94.2461V17.2246H95.8054Z" stroke="#FFFCFC" stroke-width="0.2"/>
</mask>
<g mask="url(#mask4_1702_330)">
<path d="M54.1335 17.2256V29.5909H52.5742V17.2256H54.1335Z" stroke="#FFFCFC" stroke-width="0.2"/>
</g>
<mask id="mask5_1702_330" style="mask-type:luminance" maskUnits="userSpaceOnUse" x="16" y="16" width="81" height="15">
<path d="M96.0022 16.6895H16.6875V30.0721H96.0022V16.6895Z" fill="white" stroke="#FFFCFC" stroke-width="0.2"/>
<path d="M16.9727 17.2246H21.8237C23.0133 17.2246 23.9604 17.5223 24.665 18.1176C25.3695 18.7016 25.7218 19.5202 25.7218 20.5735C25.7218 21.6727 25.2136 22.5085 24.1972 23.0809C24.1279 23.1153 24.0817 23.1496 24.0586 23.184C24.0355 23.2069 24.024 23.247 24.024 23.3042C24.024 23.3844 24.0702 23.4416 24.1626 23.4759C25.2598 23.911 25.8085 24.8041 25.8085 26.1551C25.8085 27.2542 25.4504 28.1015 24.7343 28.6968C24.0297 29.2922 23.0596 29.5899 21.8237 29.5899H16.9727V17.2246ZM21.6504 22.5486C22.4127 22.5486 22.9902 22.3997 23.3829 22.102C23.7872 21.8043 23.9893 21.3235 23.9893 20.6594C23.9893 19.9953 23.7872 19.5145 23.3829 19.2168C22.9902 18.9191 22.4127 18.7703 21.6504 18.7703H18.7052V22.5486H21.6504ZM21.6504 28.0442C22.459 28.0442 23.0653 27.8954 23.4696 27.5977C23.8738 27.2886 24.076 26.7791 24.076 26.0692C24.076 25.3594 23.8738 24.8556 23.4696 24.5579C23.0653 24.2488 22.459 24.0942 21.6504 24.0942H18.7052V28.0442H21.6504Z" stroke="#FFFCFC" stroke-width="0.2"/>
<path d="M35.7614 29.5906H34.2021V28.6117C34.2021 28.5316 34.1616 28.4915 34.0809 28.4915C34.0463 28.4915 34.0114 28.5087 33.9768 28.543C33.9538 28.5659 33.9248 28.5946 33.8902 28.6289C33.2433 29.4418 32.3078 29.8483 31.0835 29.8483C29.9517 29.8483 29.0624 29.5334 28.4155 28.9037C27.7687 28.274 27.4453 27.3866 27.4453 26.2417V20.6602H29.0045V25.9841C29.0045 26.797 29.2126 27.4153 29.6283 27.8389C30.044 28.2625 30.6448 28.4743 31.43 28.4743C32.3194 28.4743 33.0009 28.211 33.4745 27.6843C33.9597 27.1462 34.2021 26.3505 34.2021 25.2971V20.6602H35.7614V29.5906Z" stroke="#FFFCFC" stroke-width="0.2"/>
<path d="M39.4917 20.6594V29.5899H37.9324V20.6594H39.4917ZM38.7987 17.2246C39.3728 17.2246 39.8382 17.6859 39.8382 18.255C39.8382 18.8241 39.3728 19.2855 38.7987 19.2855H38.6255C38.0514 19.2855 37.5859 18.8241 37.5859 18.255C37.5859 17.6859 38.0514 17.2246 38.6255 17.2246H38.7987Z" stroke="#FFFCFC" stroke-width="0.2"/>
<path d="M41.1445 25.1247C41.1445 24.0942 41.3524 23.224 41.7681 22.5142C42.1956 21.8043 42.744 21.2777 43.414 20.9342C44.084 20.5793 44.8 20.4018 45.5622 20.4018C46.8445 20.4018 47.8376 20.8197 48.5422 21.6555C48.6001 21.7356 48.6634 21.7757 48.7329 21.7757C48.8136 21.7757 48.8541 21.7299 48.8541 21.6383V17.2246H50.4134V29.5899H48.8541V28.611C48.8541 28.5194 48.8136 28.4736 48.7329 28.4736C48.6634 28.4736 48.6001 28.5136 48.5422 28.5938C47.8376 29.4296 46.8445 29.8475 45.5622 29.8475C44.8 29.8475 44.084 29.6758 43.414 29.3323C42.744 28.9773 42.1956 28.4449 41.7681 27.7351C41.3524 27.0252 41.1445 26.1551 41.1445 25.1247ZM42.7038 25.1247C42.7038 26.178 42.9868 27.0023 43.5527 27.5977C44.1301 28.1816 44.8867 28.4736 45.8221 28.4736C46.7579 28.4736 47.5086 28.1816 48.0744 27.5977C48.6519 27.0023 48.9407 26.178 48.9407 25.1247C48.9407 24.0713 48.6519 23.2527 48.0744 22.6688C47.5086 22.0734 46.7579 21.7757 45.8221 21.7757C44.8867 21.7757 44.1301 22.0734 43.5527 22.6688C42.9868 23.2527 42.7038 24.0713 42.7038 25.1247Z" stroke="#FFFCFC" stroke-width="0.2"/>
<path d="M54.1296 17.2246V29.5899H52.5703V17.2246H54.1296Z" stroke="#FFFCFC" stroke-width="0.2"/>
<path d="M55.6992 23.409C55.6992 22.1267 55.9588 20.9989 56.4786 20.0257C57.0099 19.0525 57.7608 18.3026 58.7309 17.7759C59.7012 17.2378 60.8274 16.9688 62.1094 16.9688C63.2876 16.9688 64.2866 17.2035 65.1067 17.6729C65.9381 18.1309 66.562 18.7319 66.9776 19.4762C67.3936 20.2204 67.6186 21.0161 67.6535 21.8633H65.921C65.8284 20.8444 65.4648 20.0314 64.8294 19.4246C64.194 18.8178 63.2586 18.5144 62.0227 18.5144C61.1103 18.5144 60.3076 18.7205 59.6146 19.1327C58.9216 19.5334 58.3844 20.1059 58.0033 20.8501C57.6222 21.5943 57.4315 22.4473 57.4315 23.409C57.4315 24.3822 57.6163 25.2409 57.9861 25.9851C58.3672 26.7179 58.9157 27.2903 59.6318 27.7025C60.3478 28.1032 61.2026 28.3036 62.196 28.3036C63.3626 28.3036 64.2289 28.046 64.7948 27.5308C65.3607 27.0155 65.6436 26.3286 65.6436 25.4699H61.0698V23.9242H67.3762V25.1436C67.3762 26.6091 66.9085 27.7598 65.9727 28.5956C65.0488 29.4314 63.7609 29.8493 62.1094 29.8493C60.8043 29.8493 59.6666 29.5859 58.6963 29.0592C57.7262 28.5211 56.9812 27.7655 56.4614 26.7923C55.9532 25.8191 55.6992 24.6913 55.6992 23.409Z" stroke="#FFFCFC" stroke-width="0.2"/>
<path d="M77.4331 29.5906H75.8738V28.6117C75.8738 28.5316 75.8336 28.4915 75.7526 28.4915C75.718 28.4915 75.6834 28.5087 75.6488 28.543C75.6258 28.5659 75.5968 28.5946 75.5622 28.6289C74.9153 29.4418 73.9799 29.8483 72.7555 29.8483C71.6235 29.8483 70.7341 29.5334 70.0875 28.9037C69.4406 28.274 69.1172 27.3866 69.1172 26.2417V20.6602H70.6765V25.9841C70.6765 26.797 70.8843 27.4153 71.3 27.8389C71.716 28.2625 72.3165 28.4743 73.102 28.4743C73.9914 28.4743 74.6729 28.211 75.1462 27.6843C75.6314 27.1462 75.8738 26.3505 75.8738 25.2971V20.6602H77.4331V29.5906Z" stroke="#FFFCFC" stroke-width="0.2"/>
<path d="M81.1672 20.6594V29.5899H79.6082V20.6594H81.1672ZM80.4745 17.2246C81.0486 17.2246 81.5138 17.6859 81.5138 18.255C81.5138 18.8241 81.0486 19.2855 80.4745 19.2855H80.3013C79.7269 19.2855 79.2617 18.8241 79.2617 18.255C79.2617 17.6859 79.7269 17.2246 80.3013 17.2246H80.4745Z" stroke="#FFFCFC" stroke-width="0.2"/>
<path d="M82.8203 25.1247C82.8203 24.0942 83.0282 23.224 83.4441 22.5142C83.8714 21.8043 84.4201 21.2777 85.0901 20.9342C85.7597 20.5793 86.4761 20.4018 87.2383 20.4018C88.5203 20.4018 89.5137 20.8197 90.2182 21.6555C90.2759 21.7356 90.3395 21.7757 90.4086 21.7757C90.4897 21.7757 90.5301 21.7299 90.5301 21.6383V17.2246H92.0892V29.5899H90.5301V28.611C90.5301 28.5194 90.4897 28.4736 90.4086 28.4736C90.3395 28.4736 90.2759 28.5136 90.2182 28.5938C89.5137 29.4296 88.5203 29.8475 87.2383 29.8475C86.4761 29.8475 85.7597 29.6758 85.0901 29.3323C84.4201 28.9773 83.8714 28.4449 83.4441 27.7351C83.0282 27.0252 82.8203 26.1551 82.8203 25.1247ZM84.3796 25.1247C84.3796 26.178 84.6626 27.0023 85.2284 27.5977C85.8061 28.1816 86.5624 28.4736 87.4982 28.4736C88.4337 28.4736 89.1843 28.1816 89.7505 27.5977C90.3279 27.0023 90.6168 26.178 90.6168 25.1247C90.6168 24.0713 90.3279 23.2527 89.7505 22.6688C89.1843 22.0734 88.4337 21.7757 87.4982 21.7757C86.5624 21.7757 85.8061 22.0734 85.2284 22.6688C84.6626 23.2527 84.3796 24.0713 84.3796 25.1247Z" stroke="#FFFCFC" stroke-width="0.2"/>
<path d="M95.8054 17.2246V29.5899H94.2461V17.2246H95.8054Z" stroke="#FFFCFC" stroke-width="0.2"/>
</mask>
<g mask="url(#mask5_1702_330)">
<path d="M55.7031 23.408C55.7031 22.1257 55.9627 20.998 56.4825 20.0248C57.0138 19.0516 57.7647 18.3016 58.7348 17.775C59.7051 17.2368 60.8313 16.9678 62.1133 16.9678C63.2915 16.9678 64.2905 17.2025 65.1106 17.6719C65.942 18.1299 66.5659 18.731 66.9816 19.4752C67.3975 20.2194 67.6225 21.0151 67.6574 21.8624H65.9249C65.8323 20.8434 65.4687 20.0305 64.8333 19.4237C64.1979 18.8168 63.2625 18.5134 62.0266 18.5134C61.1142 18.5134 60.3115 18.7195 59.6185 19.1317C58.9255 19.5324 58.3883 20.1049 58.0072 20.8491C57.6261 21.5933 57.4354 22.4463 57.4354 23.408C57.4354 24.3812 57.6202 25.2399 57.99 25.9841C58.3711 26.7169 58.9196 27.2894 59.6357 27.7015C60.3518 28.1022 61.2065 28.3026 62.1999 28.3026C63.3666 28.3026 64.2328 28.045 64.7987 27.5298C65.3646 27.0146 65.6476 26.3276 65.6476 25.4689H61.0737V23.9233H67.3801V25.1426C67.3801 26.6081 66.9124 27.7588 65.9766 28.5946C65.0527 29.4304 63.7648 29.8483 62.1133 29.8483C60.8082 29.8483 59.6705 29.5849 58.7002 29.0583C57.7301 28.5201 56.9851 27.7645 56.4653 26.7913C55.9571 25.8181 55.7031 24.6904 55.7031 23.408Z" stroke="#FFFCFC" stroke-width="0.2"/>
</g>
<mask id="mask6_1702_330" style="mask-type:luminance" maskUnits="userSpaceOnUse" x="16" y="16" width="81" height="15">
<path d="M96.0022 16.6895H16.6875V30.0721H96.0022V16.6895Z" fill="white" stroke="#FFFCFC" stroke-width="0.2"/>
<path d="M16.9727 17.2246H21.8237C23.0133 17.2246 23.9604 17.5223 24.665 18.1176C25.3695 18.7016 25.7218 19.5202 25.7218 20.5735C25.7218 21.6727 25.2136 22.5085 24.1972 23.0809C24.1279 23.1153 24.0817 23.1496 24.0586 23.184C24.0355 23.2069 24.024 23.247 24.024 23.3042C24.024 23.3844 24.0702 23.4416 24.1626 23.4759C25.2598 23.911 25.8085 24.8041 25.8085 26.1551C25.8085 27.2542 25.4504 28.1015 24.7343 28.6968C24.0297 29.2922 23.0596 29.5899 21.8237 29.5899H16.9727V17.2246ZM21.6504 22.5486C22.4127 22.5486 22.9902 22.3997 23.3829 22.102C23.7872 21.8043 23.9893 21.3235 23.9893 20.6594C23.9893 19.9953 23.7872 19.5145 23.3829 19.2168C22.9902 18.9191 22.4127 18.7703 21.6504 18.7703H18.7052V22.5486H21.6504ZM21.6504 28.0442C22.459 28.0442 23.0653 27.8954 23.4696 27.5977C23.8738 27.2886 24.076 26.7791 24.076 26.0692C24.076 25.3594 23.8738 24.8556 23.4696 24.5579C23.0653 24.2488 22.459 24.0942 21.6504 24.0942H18.7052V28.0442H21.6504Z" stroke="#FFFCFC" stroke-width="0.2"/>
<path d="M35.7614 29.5906H34.2021V28.6117C34.2021 28.5316 34.1616 28.4915 34.0809 28.4915C34.0463 28.4915 34.0114 28.5087 33.9768 28.543C33.9538 28.5659 33.9248 28.5946 33.8902 28.6289C33.2433 29.4418 32.3078 29.8483 31.0835 29.8483C29.9517 29.8483 29.0624 29.5334 28.4155 28.9037C27.7687 28.274 27.4453 27.3866 27.4453 26.2417V20.6602H29.0045V25.9841C29.0045 26.797 29.2126 27.4153 29.6283 27.8389C30.044 28.2625 30.6448 28.4743 31.43 28.4743C32.3194 28.4743 33.0009 28.211 33.4745 27.6843C33.9597 27.1462 34.2021 26.3505 34.2021 25.2971V20.6602H35.7614V29.5906Z" stroke="#FFFCFC" stroke-width="0.2"/>
<path d="M39.4917 20.6594V29.5899H37.9324V20.6594H39.4917ZM38.7987 17.2246C39.3728 17.2246 39.8382 17.6859 39.8382 18.255C39.8382 18.8241 39.3728 19.2855 38.7987 19.2855H38.6255C38.0514 19.2855 37.5859 18.8241 37.5859 18.255C37.5859 17.6859 38.0514 17.2246 38.6255 17.2246H38.7987Z" stroke="#FFFCFC" stroke-width="0.2"/>
<path d="M41.1445 25.1247C41.1445 24.0942 41.3524 23.224 41.7681 22.5142C42.1956 21.8043 42.744 21.2777 43.414 20.9342C44.084 20.5793 44.8 20.4018 45.5622 20.4018C46.8445 20.4018 47.8376 20.8197 48.5422 21.6555C48.6001 21.7356 48.6634 21.7757 48.7329 21.7757C48.8136 21.7757 48.8541 21.7299 48.8541 21.6383V17.2246H50.4134V29.5899H48.8541V28.611C48.8541 28.5194 48.8136 28.4736 48.7329 28.4736C48.6634 28.4736 48.6001 28.5136 48.5422 28.5938C47.8376 29.4296 46.8445 29.8475 45.5622 29.8475C44.8 29.8475 44.084 29.6758 43.414 29.3323C42.744 28.9773 42.1956 28.4449 41.7681 27.7351C41.3524 27.0252 41.1445 26.1551 41.1445 25.1247ZM42.7038 25.1247C42.7038 26.178 42.9868 27.0023 43.5527 27.5977C44.1301 28.1816 44.8867 28.4736 45.8221 28.4736C46.7579 28.4736 47.5086 28.1816 48.0744 27.5977C48.6519 27.0023 48.9407 26.178 48.9407 25.1247C48.9407 24.0713 48.6519 23.2527 48.0744 22.6688C47.5086 22.0734 46.7579 21.7757 45.8221 21.7757C44.8867 21.7757 44.1301 22.0734 43.5527 22.6688C42.9868 23.2527 42.7038 24.0713 42.7038 25.1247Z" stroke="#FFFCFC" stroke-width="0.2"/>
<path d="M54.1296 17.2246V29.5899H52.5703V17.2246H54.1296Z" stroke="#FFFCFC" stroke-width="0.2"/>
<path d="M55.6992 23.409C55.6992 22.1267 55.9588 20.9989 56.4786 20.0257C57.0099 19.0525 57.7608 18.3026 58.7309 17.7759C59.7012 17.2378 60.8274 16.9688 62.1094 16.9688C63.2876 16.9688 64.2866 17.2035 65.1067 17.6729C65.9381 18.1309 66.562 18.7319 66.9776 19.4762C67.3936 20.2204 67.6186 21.0161 67.6535 21.8633H65.921C65.8284 20.8444 65.4648 20.0314 64.8294 19.4246C64.194 18.8178 63.2586 18.5144 62.0227 18.5144C61.1103 18.5144 60.3076 18.7205 59.6146 19.1327C58.9216 19.5334 58.3844 20.1059 58.0033 20.8501C57.6222 21.5943 57.4315 22.4473 57.4315 23.409C57.4315 24.3822 57.6163 25.2409 57.9861 25.9851C58.3672 26.7179 58.9157 27.2903 59.6318 27.7025C60.3478 28.1032 61.2026 28.3036 62.196 28.3036C63.3626 28.3036 64.2289 28.046 64.7948 27.5308C65.3607 27.0155 65.6436 26.3286 65.6436 25.4699H61.0698V23.9242H67.3762V25.1436C67.3762 26.6091 66.9085 27.7598 65.9727 28.5956C65.0488 29.4314 63.7609 29.8493 62.1094 29.8493C60.8043 29.8493 59.6666 29.5859 58.6963 29.0592C57.7262 28.5211 56.9812 27.7655 56.4614 26.7923C55.9532 25.8191 55.6992 24.6913 55.6992 23.409Z" stroke="#FFFCFC" stroke-width="0.2"/>
<path d="M77.4331 29.5906H75.8738V28.6117C75.8738 28.5316 75.8336 28.4915 75.7526 28.4915C75.718 28.4915 75.6834 28.5087 75.6488 28.543C75.6258 28.5659 75.5968 28.5946 75.5622 28.6289C74.9153 29.4418 73.9799 29.8483 72.7555 29.8483C71.6235 29.8483 70.7341 29.5334 70.0875 28.9037C69.4406 28.274 69.1172 27.3866 69.1172 26.2417V20.6602H70.6765V25.9841C70.6765 26.797 70.8843 27.4153 71.3 27.8389C71.716 28.2625 72.3165 28.4743 73.102 28.4743C73.9914 28.4743 74.6729 28.211 75.1462 27.6843C75.6314 27.1462 75.8738 26.3505 75.8738 25.2971V20.6602H77.4331V29.5906Z" stroke="#FFFCFC" stroke-width="0.2"/>
<path d="M81.1672 20.6594V29.5899H79.6082V20.6594H81.1672ZM80.4745 17.2246C81.0486 17.2246 81.5138 17.6859 81.5138 18.255C81.5138 18.8241 81.0486 19.2855 80.4745 19.2855H80.3013C79.7269 19.2855 79.2617 18.8241 79.2617 18.255C79.2617 17.6859 79.7269 17.2246 80.3013 17.2246H80.4745Z" stroke="#FFFCFC" stroke-width="0.2"/>
<path d="M82.8203 25.1247C82.8203 24.0942 83.0282 23.224 83.4441 22.5142C83.8714 21.8043 84.4201 21.2777 85.0901 20.9342C85.7597 20.5793 86.4761 20.4018 87.2383 20.4018C88.5203 20.4018 89.5137 20.8197 90.2182 21.6555C90.2759 21.7356 90.3395 21.7757 90.4086 21.7757C90.4897 21.7757 90.5301 21.7299 90.5301 21.6383V17.2246H92.0892V29.5899H90.5301V28.611C90.5301 28.5194 90.4897 28.4736 90.4086 28.4736C90.3395 28.4736 90.2759 28.5136 90.2182 28.5938C89.5137 29.4296 88.5203 29.8475 87.2383 29.8475C86.4761 29.8475 85.7597 29.6758 85.0901 29.3323C84.4201 28.9773 83.8714 28.4449 83.4441 27.7351C83.0282 27.0252 82.8203 26.1551 82.8203 25.1247ZM84.3796 25.1247C84.3796 26.178 84.6626 27.0023 85.2284 27.5977C85.8061 28.1816 86.5624 28.4736 87.4982 28.4736C88.4337 28.4736 89.1843 28.1816 89.7505 27.5977C90.3279 27.0023 90.6168 26.178 90.6168 25.1247C90.6168 24.0713 90.3279 23.2527 89.7505 22.6688C89.1843 22.0734 88.4337 21.7757 87.4982 21.7757C86.5624 21.7757 85.8061 22.0734 85.2284 22.6688C84.6626 23.2527 84.3796 24.0713 84.3796 25.1247Z" stroke="#FFFCFC" stroke-width="0.2"/>
<path d="M95.8054 17.2246V29.5899H94.2461V17.2246H95.8054Z" stroke="#FFFCFC" stroke-width="0.2"/>
</mask>
<g mask="url(#mask6_1702_330)">
<path d="M77.4409 29.5916H75.8816V28.6127C75.8816 28.5325 75.8414 28.4925 75.7604 28.4925C75.7258 28.4925 75.6912 28.5097 75.6566 28.544C75.6336 28.5669 75.6046 28.5955 75.57 28.6299C74.9231 29.4428 73.9877 29.8492 72.7634 29.8492C71.6313 29.8492 70.7419 29.5344 70.0953 28.9047C69.4484 28.2749 69.125 27.3876 69.125 26.2427V20.6611H70.6843V25.9851C70.6843 26.798 70.8921 27.4162 71.3078 27.8399C71.7238 28.2635 72.3243 28.4753 73.1099 28.4753C73.9992 28.4753 74.6807 28.212 75.154 27.6853C75.6392 27.1472 75.8816 26.3515 75.8816 25.2981V20.6611H77.4409V29.5916Z" stroke="#FFFCFC" stroke-width="0.2"/>
</g>
<mask id="mask7_1702_330" style="mask-type:luminance" maskUnits="userSpaceOnUse" x="16" y="16" width="81" height="15">
<path d="M96.0022 16.6895H16.6875V30.0721H96.0022V16.6895Z" fill="white" stroke="#FFFCFC" stroke-width="0.2"/>
<path d="M16.9727 17.2246H21.8237C23.0133 17.2246 23.9604 17.5223 24.665 18.1176C25.3695 18.7016 25.7218 19.5202 25.7218 20.5735C25.7218 21.6727 25.2136 22.5085 24.1972 23.0809C24.1279 23.1153 24.0817 23.1496 24.0586 23.184C24.0355 23.2069 24.024 23.247 24.024 23.3042C24.024 23.3844 24.0702 23.4416 24.1626 23.4759C25.2598 23.911 25.8085 24.8041 25.8085 26.1551C25.8085 27.2542 25.4504 28.1015 24.7343 28.6968C24.0297 29.2922 23.0596 29.5899 21.8237 29.5899H16.9727V17.2246ZM21.6504 22.5486C22.4127 22.5486 22.9902 22.3997 23.3829 22.102C23.7872 21.8043 23.9893 21.3235 23.9893 20.6594C23.9893 19.9953 23.7872 19.5145 23.3829 19.2168C22.9902 18.9191 22.4127 18.7703 21.6504 18.7703H18.7052V22.5486H21.6504ZM21.6504 28.0442C22.459 28.0442 23.0653 27.8954 23.4696 27.5977C23.8738 27.2886 24.076 26.7791 24.076 26.0692C24.076 25.3594 23.8738 24.8556 23.4696 24.5579C23.0653 24.2488 22.459 24.0942 21.6504 24.0942H18.7052V28.0442H21.6504Z" stroke="#FFFCFC" stroke-width="0.2"/>
<path d="M35.7614 29.5906H34.2021V28.6117C34.2021 28.5316 34.1616 28.4915 34.0809 28.4915C34.0463 28.4915 34.0114 28.5087 33.9768 28.543C33.9538 28.5659 33.9248 28.5946 33.8902 28.6289C33.2433 29.4418 32.3078 29.8483 31.0835 29.8483C29.9517 29.8483 29.0624 29.5334 28.4155 28.9037C27.7687 28.274 27.4453 27.3866 27.4453 26.2417V20.6602H29.0045V25.9841C29.0045 26.797 29.2126 27.4153 29.6283 27.8389C30.044 28.2625 30.6448 28.4743 31.43 28.4743C32.3194 28.4743 33.0009 28.211 33.4745 27.6843C33.9597 27.1462 34.2021 26.3505 34.2021 25.2971V20.6602H35.7614V29.5906Z" stroke="#FFFCFC" stroke-width="0.2"/>
<path d="M39.4917 20.6594V29.5899H37.9324V20.6594H39.4917ZM38.7987 17.2246C39.3728 17.2246 39.8382 17.6859 39.8382 18.255C39.8382 18.8241 39.3728 19.2855 38.7987 19.2855H38.6255C38.0514 19.2855 37.5859 18.8241 37.5859 18.255C37.5859 17.6859 38.0514 17.2246 38.6255 17.2246H38.7987Z" stroke="#FFFCFC" stroke-width="0.2"/>
<path d="M41.1445 25.1247C41.1445 24.0942 41.3524 23.224 41.7681 22.5142C42.1956 21.8043 42.744 21.2777 43.414 20.9342C44.084 20.5793 44.8 20.4018 45.5622 20.4018C46.8445 20.4018 47.8376 20.8197 48.5422 21.6555C48.6001 21.7356 48.6634 21.7757 48.7329 21.7757C48.8136 21.7757 48.8541 21.7299 48.8541 21.6383V17.2246H50.4134V29.5899H48.8541V28.611C48.8541 28.5194 48.8136 28.4736 48.7329 28.4736C48.6634 28.4736 48.6001 28.5136 48.5422 28.5938C47.8376 29.4296 46.8445 29.8475 45.5622 29.8475C44.8 29.8475 44.084 29.6758 43.414 29.3323C42.744 28.9773 42.1956 28.4449 41.7681 27.7351C41.3524 27.0252 41.1445 26.1551 41.1445 25.1247ZM42.7038 25.1247C42.7038 26.178 42.9868 27.0023 43.5527 27.5977C44.1301 28.1816 44.8867 28.4736 45.8221 28.4736C46.7579 28.4736 47.5086 28.1816 48.0744 27.5977C48.6519 27.0023 48.9407 26.178 48.9407 25.1247C48.9407 24.0713 48.6519 23.2527 48.0744 22.6688C47.5086 22.0734 46.7579 21.7757 45.8221 21.7757C44.8867 21.7757 44.1301 22.0734 43.5527 22.6688C42.9868 23.2527 42.7038 24.0713 42.7038 25.1247Z" stroke="#FFFCFC" stroke-width="0.2"/>
<path d="M54.1296 17.2246V29.5899H52.5703V17.2246H54.1296Z" stroke="#FFFCFC" stroke-width="0.2"/>
<path d="M55.6992 23.409C55.6992 22.1267 55.9588 20.9989 56.4786 20.0257C57.0099 19.0525 57.7608 18.3026 58.7309 17.7759C59.7012 17.2378 60.8274 16.9688 62.1094 16.9688C63.2876 16.9688 64.2866 17.2035 65.1067 17.6729C65.9381 18.1309 66.562 18.7319 66.9776 19.4762C67.3936 20.2204 67.6186 21.0161 67.6535 21.8633H65.921C65.8284 20.8444 65.4648 20.0314 64.8294 19.4246C64.194 18.8178 63.2586 18.5144 62.0227 18.5144C61.1103 18.5144 60.3076 18.7205 59.6146 19.1327C58.9216 19.5334 58.3844 20.1059 58.0033 20.8501C57.6222 21.5943 57.4315 22.4473 57.4315 23.409C57.4315 24.3822 57.6163 25.2409 57.9861 25.9851C58.3672 26.7179 58.9157 27.2903 59.6318 27.7025C60.3478 28.1032 61.2026 28.3036 62.196 28.3036C63.3626 28.3036 64.2289 28.046 64.7948 27.5308C65.3607 27.0155 65.6436 26.3286 65.6436 25.4699H61.0698V23.9242H67.3762V25.1436C67.3762 26.6091 66.9085 27.7598 65.9727 28.5956C65.0488 29.4314 63.7609 29.8493 62.1094 29.8493C60.8043 29.8493 59.6666 29.5859 58.6963 29.0592C57.7262 28.5211 56.9812 27.7655 56.4614 26.7923C55.9532 25.8191 55.6992 24.6913 55.6992 23.409Z" stroke="#FFFCFC" stroke-width="0.2"/>
<path d="M77.4331 29.5906H75.8738V28.6117C75.8738 28.5316 75.8336 28.4915 75.7526 28.4915C75.718 28.4915 75.6834 28.5087 75.6488 28.543C75.6258 28.5659 75.5968 28.5946 75.5622 28.6289C74.9153 29.4418 73.9799 29.8483 72.7555 29.8483C71.6235 29.8483 70.7341 29.5334 70.0875 28.9037C69.4406 28.274 69.1172 27.3866 69.1172 26.2417V20.6602H70.6765V25.9841C70.6765 26.797 70.8843 27.4153 71.3 27.8389C71.716 28.2625 72.3165 28.4743 73.102 28.4743C73.9914 28.4743 74.6729 28.211 75.1462 27.6843C75.6314 27.1462 75.8738 26.3505 75.8738 25.2971V20.6602H77.4331V29.5906Z" stroke="#FFFCFC" stroke-width="0.2"/>
<path d="M81.1672 20.6594V29.5899H79.6082V20.6594H81.1672ZM80.4745 17.2246C81.0486 17.2246 81.5138 17.6859 81.5138 18.255C81.5138 18.8241 81.0486 19.2855 80.4745 19.2855H80.3013C79.7269 19.2855 79.2617 18.8241 79.2617 18.255C79.2617 17.6859 79.7269 17.2246 80.3013 17.2246H80.4745Z" stroke="#FFFCFC" stroke-width="0.2"/>
<path d="M82.8203 25.1247C82.8203 24.0942 83.0282 23.224 83.4441 22.5142C83.8714 21.8043 84.4201 21.2777 85.0901 20.9342C85.7597 20.5793 86.4761 20.4018 87.2383 20.4018C88.5203 20.4018 89.5137 20.8197 90.2182 21.6555C90.2759 21.7356 90.3395 21.7757 90.4086 21.7757C90.4897 21.7757 90.5301 21.7299 90.5301 21.6383V17.2246H92.0892V29.5899H90.5301V28.611C90.5301 28.5194 90.4897 28.4736 90.4086 28.4736C90.3395 28.4736 90.2759 28.5136 90.2182 28.5938C89.5137 29.4296 88.5203 29.8475 87.2383 29.8475C86.4761 29.8475 85.7597 29.6758 85.0901 29.3323C84.4201 28.9773 83.8714 28.4449 83.4441 27.7351C83.0282 27.0252 82.8203 26.1551 82.8203 25.1247ZM84.3796 25.1247C84.3796 26.178 84.6626 27.0023 85.2284 27.5977C85.8061 28.1816 86.5624 28.4736 87.4982 28.4736C88.4337 28.4736 89.1843 28.1816 89.7505 27.5977C90.3279 27.0023 90.6168 26.178 90.6168 25.1247C90.6168 24.0713 90.3279 23.2527 89.7505 22.6688C89.1843 22.0734 88.4337 21.7757 87.4982 21.7757C86.5624 21.7757 85.8061 22.0734 85.2284 22.6688C84.6626 23.2527 84.3796 24.0713 84.3796 25.1247Z" stroke="#FFFCFC" stroke-width="0.2"/>
<path d="M95.8054 17.2246V29.5899H94.2461V17.2246H95.8054Z" stroke="#FFFCFC" stroke-width="0.2"/>
</mask>
<g mask="url(#mask7_1702_330)">
<path d="M81.1672 20.6604V29.5909H79.6082V20.6604H81.1672ZM80.4745 17.2256C81.0486 17.2256 81.5138 17.6869 81.5138 18.256C81.5138 18.8251 81.0486 19.2865 80.4745 19.2865H80.3013C79.7269 19.2865 79.2617 18.8251 79.2617 18.256C79.2617 17.6869 79.7269 17.2256 80.3013 17.2256H80.4745Z" stroke="#FFFCFC" stroke-width="0.2"/>
</g>
<mask id="mask8_1702_330" style="mask-type:luminance" maskUnits="userSpaceOnUse" x="16" y="16" width="81" height="15">
<path d="M96.0022 16.6895H16.6875V30.0721H96.0022V16.6895Z" fill="white" stroke="#FFFCFC" stroke-width="0.2"/>
<path d="M16.9727 17.2246H21.8237C23.0133 17.2246 23.9604 17.5223 24.665 18.1176C25.3695 18.7016 25.7218 19.5202 25.7218 20.5735C25.7218 21.6727 25.2136 22.5085 24.1972 23.0809C24.1279 23.1153 24.0817 23.1496 24.0586 23.184C24.0355 23.2069 24.024 23.247 24.024 23.3042C24.024 23.3844 24.0702 23.4416 24.1626 23.4759C25.2598 23.911 25.8085 24.8041 25.8085 26.1551C25.8085 27.2542 25.4504 28.1015 24.7343 28.6968C24.0297 29.2922 23.0596 29.5899 21.8237 29.5899H16.9727V17.2246ZM21.6504 22.5486C22.4127 22.5486 22.9902 22.3997 23.3829 22.102C23.7872 21.8043 23.9893 21.3235 23.9893 20.6594C23.9893 19.9953 23.7872 19.5145 23.3829 19.2168C22.9902 18.9191 22.4127 18.7703 21.6504 18.7703H18.7052V22.5486H21.6504ZM21.6504 28.0442C22.459 28.0442 23.0653 27.8954 23.4696 27.5977C23.8738 27.2886 24.076 26.7791 24.076 26.0692C24.076 25.3594 23.8738 24.8556 23.4696 24.5579C23.0653 24.2488 22.459 24.0942 21.6504 24.0942H18.7052V28.0442H21.6504Z" stroke="#FFFCFC" stroke-width="0.2"/>
<path d="M35.7614 29.5906H34.2021V28.6117C34.2021 28.5316 34.1616 28.4915 34.0809 28.4915C34.0463 28.4915 34.0114 28.5087 33.9768 28.543C33.9538 28.5659 33.9248 28.5946 33.8902 28.6289C33.2433 29.4418 32.3078 29.8483 31.0835 29.8483C29.9517 29.8483 29.0624 29.5334 28.4155 28.9037C27.7687 28.274 27.4453 27.3866 27.4453 26.2417V20.6602H29.0045V25.9841C29.0045 26.797 29.2126 27.4153 29.6283 27.8389C30.044 28.2625 30.6448 28.4743 31.43 28.4743C32.3194 28.4743 33.0009 28.211 33.4745 27.6843C33.9597 27.1462 34.2021 26.3505 34.2021 25.2971V20.6602H35.7614V29.5906Z" stroke="#FFFCFC" stroke-width="0.2"/>
<path d="M39.4917 20.6594V29.5899H37.9324V20.6594H39.4917ZM38.7987 17.2246C39.3728 17.2246 39.8382 17.6859 39.8382 18.255C39.8382 18.8241 39.3728 19.2855 38.7987 19.2855H38.6255C38.0514 19.2855 37.5859 18.8241 37.5859 18.255C37.5859 17.6859 38.0514 17.2246 38.6255 17.2246H38.7987Z" stroke="#FFFCFC" stroke-width="0.2"/>
<path d="M41.1445 25.1247C41.1445 24.0942 41.3524 23.224 41.7681 22.5142C42.1956 21.8043 42.744 21.2777 43.414 20.9342C44.084 20.5793 44.8 20.4018 45.5622 20.4018C46.8445 20.4018 47.8376 20.8197 48.5422 21.6555C48.6001 21.7356 48.6634 21.7757 48.7329 21.7757C48.8136 21.7757 48.8541 21.7299 48.8541 21.6383V17.2246H50.4134V29.5899H48.8541V28.611C48.8541 28.5194 48.8136 28.4736 48.7329 28.4736C48.6634 28.4736 48.6001 28.5136 48.5422 28.5938C47.8376 29.4296 46.8445 29.8475 45.5622 29.8475C44.8 29.8475 44.084 29.6758 43.414 29.3323C42.744 28.9773 42.1956 28.4449 41.7681 27.7351C41.3524 27.0252 41.1445 26.1551 41.1445 25.1247ZM42.7038 25.1247C42.7038 26.178 42.9868 27.0023 43.5527 27.5977C44.1301 28.1816 44.8867 28.4736 45.8221 28.4736C46.7579 28.4736 47.5086 28.1816 48.0744 27.5977C48.6519 27.0023 48.9407 26.178 48.9407 25.1247C48.9407 24.0713 48.6519 23.2527 48.0744 22.6688C47.5086 22.0734 46.7579 21.7757 45.8221 21.7757C44.8867 21.7757 44.1301 22.0734 43.5527 22.6688C42.9868 23.2527 42.7038 24.0713 42.7038 25.1247Z" stroke="#FFFCFC" stroke-width="0.2"/>
<path d="M54.1296 17.2246V29.5899H52.5703V17.2246H54.1296Z" stroke="#FFFCFC" stroke-width="0.2"/>
<path d="M55.6992 23.409C55.6992 22.1267 55.9588 20.9989 56.4786 20.0257C57.0099 19.0525 57.7608 18.3026 58.7309 17.7759C59.7012 17.2378 60.8274 16.9688 62.1094 16.9688C63.2876 16.9688 64.2866 17.2035 65.1067 17.6729C65.9381 18.1309 66.562 18.7319 66.9776 19.4762C67.3936 20.2204 67.6186 21.0161 67.6535 21.8633H65.921C65.8284 20.8444 65.4648 20.0314 64.8294 19.4246C64.194 18.8178 63.2586 18.5144 62.0227 18.5144C61.1103 18.5144 60.3076 18.7205 59.6146 19.1327C58.9216 19.5334 58.3844 20.1059 58.0033 20.8501C57.6222 21.5943 57.4315 22.4473 57.4315 23.409C57.4315 24.3822 57.6163 25.2409 57.9861 25.9851C58.3672 26.7179 58.9157 27.2903 59.6318 27.7025C60.3478 28.1032 61.2026 28.3036 62.196 28.3036C63.3626 28.3036 64.2289 28.046 64.7948 27.5308C65.3607 27.0155 65.6436 26.3286 65.6436 25.4699H61.0698V23.9242H67.3762V25.1436C67.3762 26.6091 66.9085 27.7598 65.9727 28.5956C65.0488 29.4314 63.7609 29.8493 62.1094 29.8493C60.8043 29.8493 59.6666 29.5859 58.6963 29.0592C57.7262 28.5211 56.9812 27.7655 56.4614 26.7923C55.9532 25.8191 55.6992 24.6913 55.6992 23.409Z" stroke="#FFFCFC" stroke-width="0.2"/>
<path d="M77.4331 29.5906H75.8738V28.6117C75.8738 28.5316 75.8336 28.4915 75.7526 28.4915C75.718 28.4915 75.6834 28.5087 75.6488 28.543C75.6258 28.5659 75.5968 28.5946 75.5622 28.6289C74.9153 29.4418 73.9799 29.8483 72.7555 29.8483C71.6235 29.8483 70.7341 29.5334 70.0875 28.9037C69.4406 28.274 69.1172 27.3866 69.1172 26.2417V20.6602H70.6765V25.9841C70.6765 26.797 70.8843 27.4153 71.3 27.8389C71.716 28.2625 72.3165 28.4743 73.102 28.4743C73.9914 28.4743 74.6729 28.211 75.1462 27.6843C75.6314 27.1462 75.8738 26.3505 75.8738 25.2971V20.6602H77.4331V29.5906Z" stroke="#FFFCFC" stroke-width="0.2"/>
<path d="M81.1672 20.6594V29.5899H79.6082V20.6594H81.1672ZM80.4745 17.2246C81.0486 17.2246 81.5138 17.6859 81.5138 18.255C81.5138 18.8241 81.0486 19.2855 80.4745 19.2855H80.3013C79.7269 19.2855 79.2617 18.8241 79.2617 18.255C79.2617 17.6859 79.7269 17.2246 80.3013 17.2246H80.4745Z" stroke="#FFFCFC" stroke-width="0.2"/>
<path d="M82.8203 25.1247C82.8203 24.0942 83.0282 23.224 83.4441 22.5142C83.8714 21.8043 84.4201 21.2777 85.0901 20.9342C85.7597 20.5793 86.4761 20.4018 87.2383 20.4018C88.5203 20.4018 89.5137 20.8197 90.2182 21.6555C90.2759 21.7356 90.3395 21.7757 90.4086 21.7757C90.4897 21.7757 90.5301 21.7299 90.5301 21.6383V17.2246H92.0892V29.5899H90.5301V28.611C90.5301 28.5194 90.4897 28.4736 90.4086 28.4736C90.3395 28.4736 90.2759 28.5136 90.2182 28.5938C89.5137 29.4296 88.5203 29.8475 87.2383 29.8475C86.4761 29.8475 85.7597 29.6758 85.0901 29.3323C84.4201 28.9773 83.8714 28.4449 83.4441 27.7351C83.0282 27.0252 82.8203 26.1551 82.8203 25.1247ZM84.3796 25.1247C84.3796 26.178 84.6626 27.0023 85.2284 27.5977C85.8061 28.1816 86.5624 28.4736 87.4982 28.4736C88.4337 28.4736 89.1843 28.1816 89.7505 27.5977C90.3279 27.0023 90.6168 26.178 90.6168 25.1247C90.6168 24.0713 90.3279 23.2527 89.7505 22.6688C89.1843 22.0734 88.4337 21.7757 87.4982 21.7757C86.5624 21.7757 85.8061 22.0734 85.2284 22.6688C84.6626 23.2527 84.3796 24.0713 84.3796 25.1247Z" stroke="#FFFCFC" stroke-width="0.2"/>
<path d="M95.8054 17.2246V29.5899H94.2461V17.2246H95.8054Z" stroke="#FFFCFC" stroke-width="0.2"/>
</mask>
<g mask="url(#mask8_1702_330)">
<path d="M82.8242 25.1256C82.8242 24.0952 83.0321 23.225 83.448 22.5152C83.8753 21.8053 84.424 21.2787 85.094 20.9352C85.7636 20.5802 86.48 20.4028 87.2422 20.4028C88.5242 20.4028 89.5176 20.8207 90.2221 21.6565C90.2798 21.7366 90.3434 21.7767 90.4126 21.7767C90.4936 21.7767 90.5341 21.7309 90.5341 21.6393V17.2256H92.0931V29.5909H90.5341V28.6119C90.5341 28.5204 90.4936 28.4746 90.4126 28.4746C90.3434 28.4746 90.2798 28.5146 90.2221 28.5948C89.5176 29.4306 88.5242 29.8485 87.2422 29.8485C86.48 29.8485 85.7636 29.6767 85.094 29.3332C84.424 28.9783 83.8753 28.4459 83.448 27.7361C83.0321 27.0262 82.8242 26.1561 82.8242 25.1256ZM84.3835 25.1256C84.3835 26.179 84.6665 27.0033 85.2324 27.5987C85.8101 28.1826 86.5663 28.4746 87.5021 28.4746C88.4376 28.4746 89.1882 28.1826 89.7544 27.5987C90.3318 27.0033 90.6207 26.179 90.6207 25.1256C90.6207 24.0723 90.3318 23.2537 89.7544 22.6698C89.1882 22.0744 88.4376 21.7767 87.5021 21.7767C86.5663 21.7767 85.8101 22.0744 85.2324 22.6698C84.6665 23.2537 84.3835 24.0723 84.3835 25.1256Z" stroke="#FFFCFC" stroke-width="0.2"/>
</g>
<mask id="mask9_1702_330" style="mask-type:luminance" maskUnits="userSpaceOnUse" x="16" y="16" width="81" height="15">
<path d="M96.0022 16.6895H16.6875V30.0721H96.0022V16.6895Z" fill="white" stroke="#FFFCFC" stroke-width="0.2"/>
<path d="M16.9727 17.2246H21.8237C23.0133 17.2246 23.9604 17.5223 24.665 18.1176C25.3695 18.7016 25.7218 19.5202 25.7218 20.5735C25.7218 21.6727 25.2136 22.5085 24.1972 23.0809C24.1279 23.1153 24.0817 23.1496 24.0586 23.184C24.0355 23.2069 24.024 23.247 24.024 23.3042C24.024 23.3844 24.0702 23.4416 24.1626 23.4759C25.2598 23.911 25.8085 24.8041 25.8085 26.1551C25.8085 27.2542 25.4504 28.1015 24.7343 28.6968C24.0297 29.2922 23.0596 29.5899 21.8237 29.5899H16.9727V17.2246ZM21.6504 22.5486C22.4127 22.5486 22.9902 22.3997 23.3829 22.102C23.7872 21.8043 23.9893 21.3235 23.9893 20.6594C23.9893 19.9953 23.7872 19.5145 23.3829 19.2168C22.9902 18.9191 22.4127 18.7703 21.6504 18.7703H18.7052V22.5486H21.6504ZM21.6504 28.0442C22.459 28.0442 23.0653 27.8954 23.4696 27.5977C23.8738 27.2886 24.076 26.7791 24.076 26.0692C24.076 25.3594 23.8738 24.8556 23.4696 24.5579C23.0653 24.2488 22.459 24.0942 21.6504 24.0942H18.7052V28.0442H21.6504Z" stroke="#FFFCFC" stroke-width="0.2"/>
<path d="M35.7614 29.5906H34.2021V28.6117C34.2021 28.5316 34.1616 28.4915 34.0809 28.4915C34.0463 28.4915 34.0114 28.5087 33.9768 28.543C33.9538 28.5659 33.9248 28.5946 33.8902 28.6289C33.2433 29.4418 32.3078 29.8483 31.0835 29.8483C29.9517 29.8483 29.0624 29.5334 28.4155 28.9037C27.7687 28.274 27.4453 27.3866 27.4453 26.2417V20.6602H29.0045V25.9841C29.0045 26.797 29.2126 27.4153 29.6283 27.8389C30.044 28.2625 30.6448 28.4743 31.43 28.4743C32.3194 28.4743 33.0009 28.211 33.4745 27.6843C33.9597 27.1462 34.2021 26.3505 34.2021 25.2971V20.6602H35.7614V29.5906Z" stroke="#FFFCFC" stroke-width="0.2"/>
<path d="M39.4917 20.6594V29.5899H37.9324V20.6594H39.4917ZM38.7987 17.2246C39.3728 17.2246 39.8382 17.6859 39.8382 18.255C39.8382 18.8241 39.3728 19.2855 38.7987 19.2855H38.6255C38.0514 19.2855 37.5859 18.8241 37.5859 18.255C37.5859 17.6859 38.0514 17.2246 38.6255 17.2246H38.7987Z" stroke="#FFFCFC" stroke-width="0.2"/>
<path d="M41.1445 25.1247C41.1445 24.0942 41.3524 23.224 41.7681 22.5142C42.1956 21.8043 42.744 21.2777 43.414 20.9342C44.084 20.5793 44.8 20.4018 45.5622 20.4018C46.8445 20.4018 47.8376 20.8197 48.5422 21.6555C48.6001 21.7356 48.6634 21.7757 48.7329 21.7757C48.8136 21.7757 48.8541 21.7299 48.8541 21.6383V17.2246H50.4134V29.5899H48.8541V28.611C48.8541 28.5194 48.8136 28.4736 48.7329 28.4736C48.6634 28.4736 48.6001 28.5136 48.5422 28.5938C47.8376 29.4296 46.8445 29.8475 45.5622 29.8475C44.8 29.8475 44.084 29.6758 43.414 29.3323C42.744 28.9773 42.1956 28.4449 41.7681 27.7351C41.3524 27.0252 41.1445 26.1551 41.1445 25.1247ZM42.7038 25.1247C42.7038 26.178 42.9868 27.0023 43.5527 27.5977C44.1301 28.1816 44.8867 28.4736 45.8221 28.4736C46.7579 28.4736 47.5086 28.1816 48.0744 27.5977C48.6519 27.0023 48.9407 26.178 48.9407 25.1247C48.9407 24.0713 48.6519 23.2527 48.0744 22.6688C47.5086 22.0734 46.7579 21.7757 45.8221 21.7757C44.8867 21.7757 44.1301 22.0734 43.5527 22.6688C42.9868 23.2527 42.7038 24.0713 42.7038 25.1247Z" stroke="#FFFCFC" stroke-width="0.2"/>
<path d="M54.1296 17.2246V29.5899H52.5703V17.2246H54.1296Z" stroke="#FFFCFC" stroke-width="0.2"/>
<path d="M55.6992 23.409C55.6992 22.1267 55.9588 20.9989 56.4786 20.0257C57.0099 19.0525 57.7608 18.3026 58.7309 17.7759C59.7012 17.2378 60.8274 16.9688 62.1094 16.9688C63.2876 16.9688 64.2866 17.2035 65.1067 17.6729C65.9381 18.1309 66.562 18.7319 66.9776 19.4762C67.3936 20.2204 67.6186 21.0161 67.6535 21.8633H65.921C65.8284 20.8444 65.4648 20.0314 64.8294 19.4246C64.194 18.8178 63.2586 18.5144 62.0227 18.5144C61.1103 18.5144 60.3076 18.7205 59.6146 19.1327C58.9216 19.5334 58.3844 20.1059 58.0033 20.8501C57.6222 21.5943 57.4315 22.4473 57.4315 23.409C57.4315 24.3822 57.6163 25.2409 57.9861 25.9851C58.3672 26.7179 58.9157 27.2903 59.6318 27.7025C60.3478 28.1032 61.2026 28.3036 62.196 28.3036C63.3626 28.3036 64.2289 28.046 64.7948 27.5308C65.3607 27.0155 65.6436 26.3286 65.6436 25.4699H61.0698V23.9242H67.3762V25.1436C67.3762 26.6091 66.9085 27.7598 65.9727 28.5956C65.0488 29.4314 63.7609 29.8493 62.1094 29.8493C60.8043 29.8493 59.6666 29.5859 58.6963 29.0592C57.7262 28.5211 56.9812 27.7655 56.4614 26.7923C55.9532 25.8191 55.6992 24.6913 55.6992 23.409Z" stroke="#FFFCFC" stroke-width="0.2"/>
<path d="M77.4331 29.5906H75.8738V28.6117C75.8738 28.5316 75.8336 28.4915 75.7526 28.4915C75.718 28.4915 75.6834 28.5087 75.6488 28.543C75.6258 28.5659 75.5968 28.5946 75.5622 28.6289C74.9153 29.4418 73.9799 29.8483 72.7555 29.8483C71.6235 29.8483 70.7341 29.5334 70.0875 28.9037C69.4406 28.274 69.1172 27.3866 69.1172 26.2417V20.6602H70.6765V25.9841C70.6765 26.797 70.8843 27.4153 71.3 27.8389C71.716 28.2625 72.3165 28.4743 73.102 28.4743C73.9914 28.4743 74.6729 28.211 75.1462 27.6843C75.6314 27.1462 75.8738 26.3505 75.8738 25.2971V20.6602H77.4331V29.5906Z" stroke="#FFFCFC" stroke-width="0.2"/>
<path d="M81.1672 20.6594V29.5899H79.6082V20.6594H81.1672ZM80.4745 17.2246C81.0486 17.2246 81.5138 17.6859 81.5138 18.255C81.5138 18.8241 81.0486 19.2855 80.4745 19.2855H80.3013C79.7269 19.2855 79.2617 18.8241 79.2617 18.255C79.2617 17.6859 79.7269 17.2246 80.3013 17.2246H80.4745Z" stroke="#FFFCFC" stroke-width="0.2"/>
<path d="M82.8203 25.1247C82.8203 24.0942 83.0282 23.224 83.4441 22.5142C83.8714 21.8043 84.4201 21.2777 85.0901 20.9342C85.7597 20.5793 86.4761 20.4018 87.2383 20.4018C88.5203 20.4018 89.5137 20.8197 90.2182 21.6555C90.2759 21.7356 90.3395 21.7757 90.4086 21.7757C90.4897 21.7757 90.5301 21.7299 90.5301 21.6383V17.2246H92.0892V29.5899H90.5301V28.611C90.5301 28.5194 90.4897 28.4736 90.4086 28.4736C90.3395 28.4736 90.2759 28.5136 90.2182 28.5938C89.5137 29.4296 88.5203 29.8475 87.2383 29.8475C86.4761 29.8475 85.7597 29.6758 85.0901 29.3323C84.4201 28.9773 83.8714 28.4449 83.4441 27.7351C83.0282 27.0252 82.8203 26.1551 82.8203 25.1247ZM84.3796 25.1247C84.3796 26.178 84.6626 27.0023 85.2284 27.5977C85.8061 28.1816 86.5624 28.4736 87.4982 28.4736C88.4337 28.4736 89.1843 28.1816 89.7505 27.5977C90.3279 27.0023 90.6168 26.178 90.6168 25.1247C90.6168 24.0713 90.3279 23.2527 89.7505 22.6688C89.1843 22.0734 88.4337 21.7757 87.4982 21.7757C86.5624 21.7757 85.8061 22.0734 85.2284 22.6688C84.6626 23.2527 84.3796 24.0713 84.3796 25.1247Z" stroke="#FFFCFC" stroke-width="0.2"/>
<path d="M95.8054 17.2246V29.5899H94.2461V17.2246H95.8054Z" stroke="#FFFCFC" stroke-width="0.2"/>
</mask>
<g mask="url(#mask9_1702_330)">
<path d="M95.8093 17.2256V29.5909H94.25V17.2256H95.8093Z" stroke="#FFFCFC" stroke-width="0.2"/>
</g>
<path fill-rule="evenodd" clip-rule="evenodd" d="M7.04404 14.7287V19.0886H8.14851V21.6089H10.8818V19.0886H12.7787V24.1292L9.79539 29.6721L6.38936 29.6212L2.98333 29.6721L0 24.1292V19.0886H1.8883V21.6089H4.6302V19.0886H5.84788V10.5538C5.84788 10.2264 6.11567 9.96094 6.44598 9.96094C6.68426 9.96094 6.88997 10.0991 6.98613 10.2989C7.28843 10.4138 7.59292 10.7173 7.90773 11.0311C8.28166 11.4038 8.67019 11.7911 9.0869 11.894C9.50766 11.9979 9.81963 11.8868 10.1711 11.7617C10.5397 11.6304 10.9519 11.4836 11.5788 11.5534C12.0488 11.6082 12.298 11.9125 12.5767 12.2528C12.9472 12.7051 13.3698 13.2211 14.4327 13.2989L14.426 13.3036C13.7455 13.78 12.8156 14.4309 11.3718 14.3036C10.9203 14.265 10.6021 14.1207 10.2972 13.9823C9.86244 13.7851 9.45439 13.6 8.72475 13.7501C7.93501 13.9072 7.53596 14.2778 7.23251 14.5597C7.16614 14.6213 7.10434 14.6787 7.04404 14.7287Z" fill="#FFFCFC"/>
</g>
<defs>
<clipPath id="clip0_1702_330">
<rect width="96" height="40" fill="white"/>
</clipPath>
</defs>
</svg>
