<svg width="96" height="40" viewBox="0 0 96 40" fill="none" xmlns="http://www.w3.org/2000/svg">
<path d="M17.5095 20.901L24.291 14.1557C24.8006 13.6531 25.0862 12.9607 25.0862 12.246L25.0974 6.79609C25.0974 6.5169 24.991 6.24887 24.795 6.04785L11.7863 18.9969C10.7279 20.0411 10.7223 21.7442 11.7695 22.7939C11.7751 22.7995 11.7807 22.8051 11.7863 22.8107L20.959 31.9292C22.0174 32.979 23.731 32.9734 24.7782 31.918C25.831 30.8627 25.8254 29.154 24.767 28.1098L17.5095 20.901Z" fill="#A8A8A8"/>
<path d="M24.0434 5.76444H3.60355C1.95157 5.76444 0.730776 7.00964 0.730776 8.70715V29.9706C0.708377 31.4615 1.91237 32.69 3.40755 32.7123C3.42995 32.7123 3.45795 32.7123 3.47475 32.7123C4.96434 32.7402 6.19633 31.5508 6.22433 30.0655C6.22433 30.032 6.22433 29.9985 6.22433 29.9762V11.0077H19.821L24.7994 6.06597C24.5978 5.86495 24.329 5.75327 24.0434 5.76444Z" fill="white"/>
<path d="M35.4577 12.7759V16.4557H33.8281V6.72852H38.2129C40.5369 6.72852 41.7017 7.82296 41.7017 9.49813C41.7017 10.922 40.6713 11.9215 39.1649 12.2007C39.6185 12.2677 39.9657 12.3738 40.2625 12.5749C40.8113 12.9322 41.1025 13.5855 41.4273 14.7079L41.9201 16.4557H40.1841L39.7305 14.7358C39.3161 13.1221 38.9129 12.7759 37.2049 12.7759H35.4577ZM35.4577 8.14124V11.5921H37.7425C39.2377 11.5921 40.0833 10.9276 40.0833 9.82199C40.0833 8.75547 39.4169 8.14124 37.8097 8.14124H35.4577Z" fill="#F8FCFC"/>
<path d="M46.7067 16.5906C44.1251 16.5906 42.8203 14.9489 42.8203 12.7656C42.8203 10.6493 44.2651 8.8457 46.6563 8.8457C49.0867 8.8457 50.2403 10.5767 50.2403 12.6037V13.1621H44.3939C44.5115 14.4519 45.2899 15.2393 46.6787 15.2393C47.6811 15.2393 48.2579 14.8261 48.6947 14.0555L50.0443 14.8037C49.4227 15.8312 48.3811 16.5906 46.7067 16.5906ZM44.4107 12.1514H48.6499C48.5827 11.0067 47.9835 10.1803 46.6451 10.1803C45.3739 10.1803 44.5955 10.9229 44.4107 12.1514Z" fill="#F8FCFC"/>
<path d="M54.9811 8.90137C56.2131 8.90137 57.0419 9.44859 57.5066 10.5151V8.99071H59.1082V19.3321H57.4898V14.8929C56.9802 15.9594 56.0619 16.5457 54.8411 16.5457C53.0659 16.5457 51.6211 15.2782 51.6211 12.7598C51.6267 10.1912 53.2731 8.90137 54.9811 8.90137ZM57.6298 12.7096C57.6298 11.2578 56.9635 10.1912 55.4403 10.1912C54.0515 10.1912 53.2731 11.2019 53.2731 12.7375C53.2731 14.2842 54.0067 15.2167 55.4403 15.2167C56.9467 15.2167 57.6298 14.1502 57.6298 12.7096Z" fill="#F8FCFC"/>
<path d="M68.009 16.4559H66.3906V14.6858C65.8811 15.9645 64.9627 16.6067 63.8091 16.6067C61.9891 16.6067 61.1211 15.395 61.1211 13.569V8.99023H62.7395V13.1223C62.7395 14.4122 63.1819 15.2386 64.4755 15.2386C65.6403 15.2386 66.3739 14.2503 66.3739 12.6421V8.99023H68.0034L68.009 16.4559Z" fill="#F8FCFC"/>
<path d="M73.6247 16.5906C71.0431 16.5906 69.7383 14.9489 69.7383 12.7656C69.7383 10.6493 71.1831 8.8457 73.5742 8.8457C76.0046 8.8457 77.1582 10.5767 77.1582 12.6037V13.1621H71.3175C71.4351 14.4519 72.2135 15.2393 73.6022 15.2393C74.6046 15.2393 75.1814 14.8261 75.6182 14.0555L76.9678 14.8037C76.335 15.8312 75.2934 16.5906 73.6247 16.5906ZM71.3231 12.1514H75.5622C75.495 11.0067 74.8958 10.1803 73.5574 10.1803C72.2863 10.1803 71.5135 10.9229 71.3231 12.1514Z" fill="#F8FCFC"/>
<path d="M79.4416 14.016C80.0576 14.8312 80.8192 15.2556 81.928 15.2556C82.9864 15.2556 83.4232 14.7475 83.4232 14.217C83.4232 13.4464 82.2752 13.3794 80.8976 13.1505C79.5368 12.9383 78.5456 12.486 78.5456 11.1514C78.5456 9.84482 79.6432 8.81738 81.5136 8.81738C83.0368 8.81738 84.1064 9.28643 85.0024 10.3474L83.7592 11.4027C83.1824 10.5763 82.4656 10.1743 81.4184 10.1743C80.3768 10.1743 79.9624 10.6433 79.9624 11.1626C79.9624 11.8439 80.8304 11.9779 82.1016 12.1621C83.5576 12.3743 84.868 12.7205 84.868 14.217C84.868 15.5906 83.7592 16.6181 81.8888 16.6181C80.192 16.6181 79.0048 16.0429 78.2656 15.1272L79.4416 14.016Z" fill="#F8FCFC"/>
<path d="M91.2095 16.2941C90.8231 16.4783 90.4087 16.5844 89.8488 16.5844C88.2304 16.5844 87.5752 15.7301 87.5752 14.0773V10.3193H85.8672V8.99034H87.592V7.08623L89.104 6.18164V8.99034H91.2151V10.3249H89.104V13.8986C89.104 14.859 89.4904 15.2052 90.2239 15.2052C90.6271 15.2052 90.8679 15.1382 91.2151 14.993L91.2095 16.2941Z" fill="#F8FCFC"/>
<path d="M35.4073 33.0133H33.8281V23.2861H35.7657L40.0049 30.3777L40.4193 31.2711L40.3633 30.3107V23.2861H41.9425V33.0133H40.1225L35.7377 25.6425L35.3121 24.844L35.4073 25.7654V33.0133Z" fill="#F8FCFC"/>
<path d="M47.609 33.1462C45.0274 33.1462 43.7227 31.5046 43.7227 29.3213C43.7227 27.205 45.1674 25.4014 47.5586 25.4014C49.989 25.4014 51.1426 27.1324 51.1426 29.1593V29.7177H45.2962C45.4138 31.0076 46.1922 31.7949 47.581 31.7949C48.5834 31.7949 49.1602 31.3817 49.597 30.6111L50.9466 31.3594C50.325 32.3868 49.2778 33.1462 47.609 33.1462ZM45.313 28.707H49.5522C49.485 27.5623 48.8858 26.7359 47.5474 26.7359C46.2706 26.7359 45.4978 27.4842 45.313 28.707Z" fill="#F8FCFC"/>
<path d="M57.3619 32.8556C56.9755 33.0399 56.5611 33.1515 56.0011 33.1515C54.3827 33.1515 53.7275 32.2972 53.7275 30.6444V26.8864H52.0195V25.5519H53.7443V23.6478L55.2563 22.7432V25.5574H57.3675V26.892H55.2563V30.4657C55.2563 31.4261 55.6427 31.7723 56.3763 31.7723C56.7795 31.7723 57.0203 31.7053 57.3675 31.5601L57.3619 32.8556Z" fill="#F8FCFC"/>
<path d="M62.4618 33.0118H60.457L58.5586 25.5518H60.2274L61.5098 31.0407L61.6722 32.0123L61.885 31.0407L63.5146 25.5518H64.8249L66.4153 31.0296L66.6001 32.0402L66.7737 31.0407L68.1793 25.5518H69.8257L67.7425 33.0118H65.8049L64.3489 27.8132L64.1641 27.0147L63.9905 27.83L62.4618 33.0118Z" fill="#F8FCFC"/>
<path d="M70.7812 29.2834C70.7812 27.0834 72.2092 25.4082 74.6172 25.4082C77.0644 25.4082 78.442 27.1113 78.442 29.2834C78.442 31.4444 77.014 33.1475 74.6172 33.1475C72.1476 33.1475 70.7812 31.5114 70.7812 29.2834ZM76.7844 29.2834C76.7844 27.7758 76.118 26.7539 74.6172 26.7539C73.1444 26.7539 72.4388 27.8204 72.4388 29.2834C72.4388 30.7632 73.0828 31.7738 74.6172 31.7738C76.1292 31.7738 76.7844 30.752 76.7844 29.2834Z" fill="#F8FCFC"/>
<path d="M85.1771 25.7376L84.7235 27.2174C84.3651 26.9884 83.9619 26.8823 83.4523 26.8823C82.5171 26.8823 81.8059 27.6529 81.8059 29.2276V33.0134H80.1875V25.5534H81.8059V27.3514C82.1419 26.0447 82.7803 25.4473 83.8779 25.4473C84.4267 25.4473 84.8411 25.5534 85.1771 25.7376Z" fill="#F8FCFC"/>
<path d="M88.1218 29.7629L91.6217 25.5526H93.5033L90.6698 28.8695L93.6769 33.0127H91.7505L89.3426 29.5339L88.1106 30.9467V33.0127H86.4922V22.4033H88.1106V29.7629H88.1218Z" fill="#F8FCFC"/>
</svg>
