<svg width="1921" height="550" viewBox="0 0 1921 550" fill="none" xmlns="http://www.w3.org/2000/svg">
<path d="M0.35791 429.221V0.0842285H78.1556V364.054H267.302V429.221H0.35791Z" fill="white"/>
<path d="M404.079 435.717C383.668 435.717 365.285 432.085 348.928 424.821C332.712 417.417 319.85 406.521 310.344 392.133C300.978 377.744 296.294 360.003 296.294 338.91C296.294 320.749 299.649 305.732 306.36 293.858C313.07 281.985 322.227 272.486 333.83 265.361C345.433 258.237 358.504 252.859 373.043 249.227C387.722 245.455 402.89 242.731 418.548 241.055C437.42 239.099 452.728 237.353 464.471 235.816C476.214 234.14 484.742 231.625 490.054 228.273C495.507 224.78 498.233 219.402 498.233 212.138V210.881C498.233 195.096 493.549 182.872 484.183 174.212C474.816 165.551 461.326 161.22 443.711 161.22C425.118 161.22 410.37 165.271 399.465 173.373C388.701 181.476 381.431 191.044 377.657 202.08H306.36C308.758 182.957 321.598 156.121 334.459 142.99C347.321 129.719 363.048 119.801 381.641 113.236C400.234 106.53 420.784 103.178 443.292 103.178C458.81 103.178 474.257 104.994 489.635 108.626C505.013 112.258 519.063 118.264 531.784 126.646C544.506 134.888 554.711 146.133 562.4 160.382C570.229 174.631 574.143 192.441 574.143 213.814V429.221H501.168V385.008H498.652C494.039 393.949 487.538 402.33 479.15 410.153C470.902 417.836 460.487 424.052 447.905 428.802C435.463 433.412 420.854 435.717 404.079 435.717ZM423.79 379.979C439.028 379.979 452.239 376.976 463.423 370.969C474.607 364.823 483.204 356.72 489.216 346.662C495.367 336.605 498.442 325.639 498.442 313.765V275.838C496.066 277.794 492.012 279.61 486.28 281.286C480.688 282.962 474.397 284.429 467.407 285.686C460.417 286.944 453.497 288.061 446.647 289.039C439.797 290.017 433.856 290.855 428.823 291.554C417.499 293.09 407.364 295.605 398.417 299.097C389.47 302.589 382.41 307.479 377.237 313.765C372.065 319.911 369.479 327.874 369.479 337.652C369.479 351.622 374.581 362.169 384.786 369.293C394.992 376.417 407.993 379.979 423.79 379.979Z" fill="white"/>
<path d="M666.044 549.916C655.699 549.916 646.123 549.078 637.316 547.401C628.648 545.865 626.222 544.049 621.049 541.953L638.664 482.863C649.708 486.076 655.07 487.613 663.737 487.473C672.405 487.333 680.024 484.609 686.594 479.301C693.305 474.132 698.966 465.471 703.58 453.318L710.08 435.926L593.279 107.368H673.803L748.036 350.434H751.391L825.833 107.368H906.567L777.603 468.195C771.019 485.956 763.623 499.836 753.697 511.989C743.772 524.282 731.609 533.641 717.21 540.067C702.951 546.633 685.895 549.916 666.044 549.916Z" fill="white"/>
<path d="M1070.66 435.507C1038.36 435.507 1010.47 428.802 986.987 415.391C963.64 401.841 945.676 382.703 933.095 357.978C920.513 333.112 914.222 303.847 914.222 270.181C914.222 237.073 920.513 208.017 933.095 183.012C945.816 157.867 963.571 138.31 986.358 124.341C1009.14 110.232 1035.92 103.178 1066.67 103.178C1086.52 103.178 1105.26 106.391 1122.87 112.816C1140.62 119.103 1156.28 128.881 1169.84 142.152C1183.54 155.423 1194.31 172.326 1202.14 192.861C1209.96 213.256 1213.88 237.562 1213.88 265.78V289.039H949.87V237.912H1141.11C1140.97 223.383 1137.83 210.462 1131.68 199.147C1125.53 187.692 1116.93 178.682 1105.88 172.116C1094.98 165.551 1082.26 162.268 1067.72 162.268C1052.2 162.268 1038.57 166.039 1026.83 173.583C1015.09 180.987 1005.93 190.765 999.359 202.918C992.928 214.932 989.643 228.133 989.503 242.521V287.153C989.503 305.872 992.928 321.937 999.778 335.347C1006.63 348.618 1016.2 358.816 1028.51 365.94C1040.81 372.925 1055.21 376.417 1071.7 376.417C1082.75 376.417 1092.74 374.88 1101.69 371.807C1110.64 368.594 1118.4 363.915 1124.97 357.768C1131.54 351.622 1136.5 344.008 1139.86 334.928H1213.88C1209.41 353.647 1197.73 377.954 1185.15 391.923C1172.71 405.753 1156.77 416.509 1137.34 424.192C1117.91 431.736 1095.68 435.507 1070.66 435.507Z" fill="white"/>
<path d="M1258.02 429.221V107.368H1331.63V161.011H1334.98C1340.85 142.431 1350.92 128.113 1365.18 118.055C1379.58 107.857 1396 102.759 1414.46 102.759C1418.65 102.759 1423.33 102.968 1428.51 103.387C1433.82 103.667 1438.22 104.155 1441.72 104.854V174.631C1438.5 173.513 1433.4 172.535 1426.41 171.697C1419.56 170.719 1412.92 170.23 1406.49 170.23C1392.65 170.23 1380.21 173.234 1369.16 179.24C1358.26 185.108 1349.66 193.28 1343.37 203.757C1337.08 214.234 1333.93 226.317 1333.93 240.007V429.221H1258.02Z" fill="white"/>
<path d="M1491.22 85.8121V0.0842285H1630.69V85.8121H1780.89V0.0842285H1920.36V85.8121H1855.99V171.54H1780.89V257.268H1845.26V342.996H1920.36V428.724H1780.89V342.996H1630.69V428.724H1491.22V342.996H1566.32V257.268H1630.69V171.54H1566.32H1555.59V85.8121H1491.22Z" fill="white"/>
</svg>
