<svg width="96" height="40" viewBox="0 0 96 40" fill="none" xmlns="http://www.w3.org/2000/svg">
<path fill-rule="evenodd" clip-rule="evenodd" d="M27.2764 19.8652C27.2764 26.4181 22.0567 31.7303 15.6179 31.7303C9.50914 31.7303 4.49771 26.9488 4 20.8625H19.4099V18.8678H4C4.49771 12.7816 9.50914 8 15.6179 8C22.0567 8 27.2764 13.3122 27.2764 19.8652ZM70.4988 29.5806C74.5386 29.5806 77.1881 27.361 77.1881 24.018C77.1881 20.9157 75.1943 19.4448 72.1778 18.9367L69.502 18.4821C67.456 18.1344 66.0918 17.2251 66.0918 15.2193C66.0918 13.1868 67.6134 11.6357 70.4988 11.6357C73.3057 11.6357 74.7484 13.0798 74.9058 15.1391H76.9258C76.7684 12.4113 74.7222 9.97757 70.525 9.97757C66.3804 9.97757 64.0983 12.3577 64.0983 15.2996C64.0983 18.4286 66.1705 19.8727 69.0037 20.3541L71.7056 20.782C73.9615 21.1832 75.2206 22.1192 75.2206 24.0982C75.2206 26.4249 73.3582 27.9226 70.525 27.9226C67.5872 27.9226 65.7508 26.4784 65.5934 24.018H63.5999C63.7573 27.2273 66.1705 29.5806 70.4988 29.5806ZM40.7176 29.2063H33.3725V10.3787H40.4553C43.5769 10.3787 45.7541 12.2508 45.7541 15.2461C45.7541 17.4123 44.5475 18.8565 42.6064 19.3378V19.4181C44.9147 19.8727 46.3312 21.4774 46.3312 23.9913C46.3312 27.2273 43.9966 29.2063 40.7176 29.2063ZM40.193 18.6425C42.4228 18.6425 43.7868 17.4123 43.7868 15.4868V15.2193C43.7868 13.2938 42.4228 12.0903 40.193 12.0903H35.3401V18.6425H40.193ZM40.429 27.4947C42.8687 27.4947 44.3639 26.1308 44.3639 24.0448V23.7773C44.3639 21.6111 42.8425 20.3006 40.4028 20.3006H35.3401V27.4947H40.429ZM62.2188 29.2063H60.1201L58.5463 24.0982H51.2012L49.6274 29.2063H47.6336L53.6933 10.3787H56.0803L62.2188 29.2063ZM54.9787 12.438H54.8213L51.7258 22.4134H58.0479L54.9787 12.438ZM80.1431 29.2063V10.3787H92V12.1171H82.1106V18.589H91.2131V20.3006H82.1106V27.4679H92V29.2063H80.1431Z" fill="white"/>
</svg>
