<svg width="96" height="40" viewBox="0 0 96 40" fill="none" xmlns="http://www.w3.org/2000/svg">
<path d="M31.5514 18.1249V27.8974H28.5391V26.1285C28.2589 26.7006 27.8386 27.156 27.2782 27.4945C26.7294 27.8331 26.0872 28.0024 25.3517 28.0024C24.2308 28.0024 23.3377 27.6288 22.6722 26.8816C22.0183 26.1343 21.6914 25.1069 21.6914 23.7992V18.1249H24.6687V23.4315C24.6687 24.097 24.838 24.6165 25.1766 24.9901C25.5268 25.3521 25.9938 25.5331 26.5776 25.5331C27.1847 25.5331 27.6634 25.3404 28.0137 24.9551C28.364 24.5698 28.5391 24.0211 28.5391 23.3089V18.1249H31.5514Z" fill="#F8FCFC"/>
<path d="M36.6102 19.9638C36.9838 19.3684 37.4625 18.8955 38.0462 18.5452C38.6417 18.195 39.2838 18.0198 39.9727 18.0198V21.2248H39.1146C38.3206 21.2248 37.7018 21.3941 37.2581 21.7327C36.8261 22.0713 36.6102 22.6434 36.6102 23.449V27.8974H33.6154V18.1249H36.6102V19.9638Z" fill="#F8FCFC"/>
<path d="M47.3208 18.0023C48.1264 18.0023 48.8444 18.2067 49.4749 18.6153C50.1171 19.0123 50.6191 19.5902 50.9811 20.3491C51.3547 21.0963 51.5415 21.9837 51.5415 23.0111C51.5415 24.0269 51.3547 24.9143 50.9811 25.6732C50.6191 26.4321 50.1171 27.0159 49.4749 27.4245C48.8444 27.8215 48.1264 28.0199 47.3208 28.0199C46.5735 28.0199 45.9314 27.8507 45.3943 27.5121C44.8572 27.1735 44.4661 26.7123 44.2209 26.1285V27.8974H41.2261V14.9375H44.2209V19.8938C44.4661 19.31 44.8572 18.8488 45.3943 18.5102C45.9314 18.1716 46.5735 18.0023 47.3208 18.0023ZM46.3575 20.6293C45.7271 20.6293 45.2075 20.8453 44.7989 21.2773C44.4019 21.6976 44.2034 22.2756 44.2034 23.0111C44.2034 23.735 44.4019 24.313 44.7989 24.745C45.2075 25.177 45.7271 25.393 46.3575 25.393C46.9997 25.393 47.5134 25.1828 47.8987 24.7625C48.2957 24.3422 48.4942 23.7584 48.4942 23.0111C48.4942 22.2639 48.2957 21.6801 47.8987 21.2598C47.5134 20.8395 46.9997 20.6293 46.3575 20.6293Z" fill="#F8FCFC"/>
<path d="M62.3776 22.7484C62.3776 22.9936 62.3484 23.2622 62.29 23.5541H55.5124C55.5474 24.2896 55.7342 24.8208 56.0728 25.1478C56.4114 25.463 56.8434 25.6206 57.3688 25.6206C57.8124 25.6206 58.1802 25.5097 58.4721 25.2879C58.764 25.066 58.9566 24.78 59.05 24.4297H62.22C62.0915 25.1186 61.8113 25.7374 61.3793 26.2861C60.9473 26.8232 60.3986 27.2494 59.7331 27.5646C59.0676 27.8682 58.3262 28.0199 57.5089 28.0199C56.5515 28.0199 55.6992 27.8215 54.9519 27.4245C54.2164 27.0159 53.6384 26.4321 53.2181 25.6732C52.7978 24.9143 52.5876 24.0269 52.5876 23.0111C52.5876 21.9837 52.792 21.0963 53.2006 20.3491C53.6209 19.5902 54.2047 19.0123 54.9519 18.6153C55.6992 18.2067 56.5515 18.0023 57.5089 18.0023C58.4779 18.0023 59.3303 18.2008 60.0658 18.5978C60.8014 18.9948 61.3676 19.5552 61.7646 20.2791C62.1733 20.9913 62.3776 21.8144 62.3776 22.7484ZM59.3478 22.2931C59.3594 21.6509 59.1843 21.1722 58.8224 20.857C58.4721 20.5301 58.0343 20.3666 57.5089 20.3666C56.9601 20.3666 56.5048 20.5301 56.1428 20.857C55.7809 21.1839 55.5766 21.6626 55.5299 22.2931H59.3478Z" fill="#F8FCFC"/>
<path d="M66.5132 24.9026V27.8974H63.4133V24.9026H66.5132Z" fill="#F8FCFC"/>
<path d="M77.3597 22.7484C77.3597 22.9936 77.3305 23.2622 77.2721 23.5541H70.4944C70.5295 24.2896 70.7163 24.8208 71.0549 25.1478C71.3935 25.463 71.8255 25.6206 72.3509 25.6206C72.7945 25.6206 73.1623 25.5097 73.4542 25.2879C73.7461 25.066 73.9387 24.78 74.0321 24.4297H77.202C77.0736 25.1186 76.7934 25.7374 76.3614 26.2861C75.9294 26.8232 75.3807 27.2494 74.7152 27.5646C74.0497 27.8682 73.3083 28.0199 72.491 28.0199C71.5336 28.0199 70.6813 27.8215 69.934 27.4245C69.1985 27.0159 68.6205 26.4321 68.2002 25.6732C67.7799 24.9143 67.5697 24.0269 67.5697 23.0111C67.5697 21.9837 67.774 21.0963 68.1827 20.3491C68.603 19.5902 69.1868 19.0123 69.934 18.6153C70.6813 18.2067 71.5336 18.0023 72.491 18.0023C73.46 18.0023 74.3123 18.2008 75.0479 18.5978C75.7835 18.9948 76.3497 19.5552 76.7467 20.2791C77.1553 20.9913 77.3597 21.8144 77.3597 22.7484ZM74.3299 22.2931C74.3415 21.6509 74.1664 21.1722 73.8045 20.857C73.4542 20.5301 73.0164 20.3666 72.491 20.3666C71.9422 20.3666 71.4869 20.5301 71.1249 20.857C70.763 21.1839 70.5587 21.6626 70.512 22.2931H74.3299Z" fill="#F8FCFC"/>
<path d="M84.455 25.3229V27.8974H83.1065C81.9623 27.8974 81.0691 27.6171 80.427 27.0567C79.7965 26.4846 79.4812 25.5447 79.4812 24.2371V20.6468H78.1677V18.1249H79.4812V15.7256H82.476V18.1249H84.4375V20.6468H82.476V24.2896C82.476 24.6749 82.5519 24.9434 82.7037 25.0952C82.8671 25.247 83.1357 25.3229 83.5093 25.3229H84.455Z" fill="#F8FCFC"/>
<path d="M92.3379 18.0198C93.4588 18.0198 94.3461 18.3935 95 19.1407C95.6655 19.8879 95.9982 20.9154 95.9982 22.223V27.8974H93.0034V22.5733C93.0034 21.9195 92.8283 21.4116 92.478 21.0496C92.1394 20.676 91.6841 20.4892 91.112 20.4892C90.5049 20.4892 90.0203 20.6819 89.6584 21.0672C89.3081 21.4525 89.133 22.0012 89.133 22.7134V27.8974H86.1382V14.9375H89.133V19.9113C89.4132 19.3275 89.8277 18.8663 90.3764 18.5277C90.9369 18.1891 91.5907 18.0198 92.3379 18.0198Z" fill="#F8FCFC"/>
<path d="M6.40625 11.2865L11.6605 7.26889L6.70527 2.45508L6.40625 11.2865Z" fill="#F8FCFC"/>
<path d="M19.3643 30.8306L18.3025 31.5445L13.4693 29.4487L11.3883 23.7975L4.02873 20.5715H6.95793L0.660156 18.3431L6.70162 15.6937L2.56413 16.1146L12.4075 9.36523L19.3643 16.4807V27.7373H17.204L16.728 28.3368L18.9005 30.5149H19.3643V30.8306ZM17.1491 20.0545L14.6776 17.4188L11.0344 16.8468L13.1275 18.6908L14.9217 18.5398L17.1491 20.0545Z" fill="#F8FCFC"/>
</svg>
