<svg width="96" height="40" viewBox="0 0 96 40" fill="none" xmlns="http://www.w3.org/2000/svg">
<path d="M13.0955 12.3482V14.272H9.24663V24.9358H6.86654V14.272H3V12.3482H13.0955Z" fill="white"/>
<path d="M19.4333 24.9358H18.4512C18.2448 24.9358 18.0826 24.9068 17.9646 24.8487C17.8466 24.7849 17.7581 24.6601 17.6991 24.4744L17.5045 23.839C17.2744 24.0421 17.0474 24.222 16.8232 24.3787C16.605 24.5296 16.3779 24.6572 16.1419 24.7617C15.906 24.8662 15.6553 24.9445 15.3898 24.9967C15.1244 25.049 14.8295 25.0751 14.5051 25.0751C14.1216 25.0751 13.7677 25.0258 13.4433 24.9271C13.1189 24.8226 12.8387 24.6688 12.6027 24.4657C12.3727 24.2626 12.1928 24.0102 12.063 23.7084C11.9333 23.4066 11.8684 23.0555 11.8684 22.6551C11.8684 22.3185 11.9569 21.9877 12.1338 21.6627C12.3167 21.3319 12.6175 21.0359 13.0363 20.7748C13.4551 20.5078 14.0125 20.2873 14.7086 20.1132C15.4046 19.9391 16.2687 19.8404 17.301 19.8172V19.2949C17.301 18.6971 17.1712 18.2561 16.9117 17.9717C16.658 17.6815 16.2864 17.5365 15.7968 17.5365C15.4429 17.5365 15.148 17.5771 14.9121 17.6583C14.6761 17.7396 14.4697 17.8324 14.2927 17.9369C14.1216 18.0355 13.9624 18.1255 13.8149 18.2067C13.6674 18.288 13.5052 18.3286 13.3283 18.3286C13.1808 18.3286 13.054 18.2909 12.9478 18.2155C12.8416 18.14 12.7561 18.0472 12.6912 17.9369L12.2931 17.2492C13.3371 16.309 14.5965 15.839 16.0711 15.839C16.602 15.839 17.0739 15.926 17.4868 16.1001C17.9056 16.2684 18.2595 16.5063 18.5485 16.8139C18.8376 17.1157 19.0558 17.4784 19.2033 17.9021C19.3567 18.3257 19.4333 18.79 19.4333 19.2949V24.9358ZM15.1863 23.5952C15.4105 23.5952 15.6169 23.5749 15.8057 23.5343C15.9945 23.4937 16.1714 23.4327 16.3366 23.3515C16.5076 23.2702 16.6698 23.1716 16.8232 23.0555C16.9825 22.9336 17.1417 22.7914 17.301 22.6289V21.123C16.6639 21.152 16.1301 21.2071 15.6995 21.2884C15.2748 21.3638 14.9327 21.4625 14.6732 21.5843C14.4136 21.7062 14.2278 21.8484 14.1157 22.0109C14.0096 22.1734 13.9565 22.3504 13.9565 22.5419C13.9565 22.9191 14.0686 23.189 14.2927 23.3515C14.5227 23.514 14.8206 23.5952 15.1863 23.5952Z" fill="white"/>
<path d="M23.9093 12V24.9358H21.7238V12H23.9093Z" fill="white"/>
<path d="M30.1379 15.8651C30.7101 15.8651 31.2351 15.955 31.7129 16.1349C32.1965 16.3148 32.6124 16.5789 32.9604 16.9271C33.3084 17.2695 33.5798 17.6931 33.7744 18.198C33.9691 18.6971 34.0664 19.2688 34.0664 19.9129C34.0664 20.0754 34.0576 20.2118 34.0399 20.3221C34.0281 20.4266 34.0015 20.5107 33.9602 20.5745C33.9248 20.6326 33.8747 20.6761 33.8098 20.7051C33.7449 20.7283 33.6623 20.7399 33.5621 20.7399H27.9525C28.0174 21.6569 28.2681 22.3301 28.7046 22.7595C29.1411 23.189 29.7191 23.4037 30.4388 23.4037C30.7927 23.4037 31.0965 23.3631 31.3501 23.2818C31.6096 23.2006 31.8338 23.1106 32.0225 23.012C32.2172 22.9133 32.3853 22.8234 32.5269 22.7421C32.6743 22.6609 32.8159 22.6202 32.9516 22.6202C33.04 22.6202 33.1167 22.6377 33.1816 22.6725C33.2465 22.7073 33.3025 22.7566 33.3497 22.8205L33.9868 23.6039C33.7449 23.8825 33.4736 24.1175 33.1728 24.309C32.8719 24.4947 32.5564 24.6456 32.226 24.7617C31.9016 24.872 31.5683 24.9503 31.2262 24.9967C30.89 25.0432 30.5626 25.0664 30.2441 25.0664C29.613 25.0664 29.026 24.9648 28.4834 24.7617C27.9407 24.5528 27.4688 24.2481 27.0677 23.8477C26.6666 23.4414 26.351 22.9423 26.121 22.3504C25.8909 21.7526 25.7759 21.062 25.7759 20.2786C25.7759 19.6692 25.8762 19.0976 26.0767 18.5637C26.2773 18.0239 26.5634 17.5568 26.935 17.1621C27.3125 16.7617 27.7696 16.4454 28.3064 16.2133C28.8491 15.9811 29.4596 15.8651 30.1379 15.8651ZM30.1822 17.4059C29.5451 17.4059 29.0467 17.5829 28.6869 17.9369C28.3271 18.2909 28.097 18.7929 27.9967 19.4429H32.1022C32.1022 19.1643 32.0638 18.9032 31.9871 18.6594C31.9105 18.4099 31.7925 18.1922 31.6332 18.0065C31.474 17.8208 31.2734 17.6757 31.0316 17.5713C30.7897 17.461 30.5066 17.4059 30.1822 17.4059Z" fill="white"/>
<path d="M35.8392 24.9358V16.0044H37.1752C37.4583 16.0044 37.6441 16.1349 37.7326 16.3961L37.883 17.1012C38.0659 16.9155 38.2576 16.7472 38.4581 16.5963C38.6646 16.4454 38.8799 16.3148 39.104 16.2046C39.3341 16.0943 39.5789 16.0102 39.8384 15.9521C40.098 15.8941 40.3811 15.8651 40.6878 15.8651C41.1833 15.8651 41.6227 15.9492 42.0062 16.1175C42.3896 16.28 42.7081 16.5122 42.9617 16.8139C43.2213 17.1099 43.4159 17.4668 43.5457 17.8847C43.6814 18.2967 43.7492 18.7523 43.7492 19.2514V24.9358H41.5638V19.2514C41.5638 18.7058 41.434 18.2851 41.1745 17.9891C40.9208 17.6873 40.5374 17.5365 40.0242 17.5365C39.6467 17.5365 39.2928 17.6206 38.9625 17.7889C38.6322 17.9572 38.3195 18.1864 38.0246 18.4766V24.9358H35.8392Z" fill="white"/>
<path d="M48.8785 25.0751C48.094 25.0751 47.4894 24.8575 47.0647 24.4222C46.64 23.9811 46.4276 23.3747 46.4276 22.6028V17.6148H45.5074C45.3895 17.6148 45.2862 17.5771 45.1978 17.5016C45.1152 17.4262 45.0739 17.313 45.0739 17.1621V16.309L46.5338 16.074L46.9939 13.6366C47.0175 13.5205 47.0706 13.4305 47.1532 13.3667C47.2416 13.3029 47.3508 13.2709 47.4805 13.2709H48.6131V16.0827H51.002V17.6148H48.6131V22.4548C48.6131 22.7334 48.6838 22.951 48.8254 23.1077C48.967 23.2644 49.1557 23.3428 49.3917 23.3428C49.5273 23.3428 49.6394 23.3283 49.7279 23.2992C49.8223 23.2644 49.9019 23.2296 49.9668 23.1948C50.0376 23.16 50.0995 23.128 50.1526 23.099C50.2057 23.0642 50.2588 23.0468 50.3119 23.0468C50.3767 23.0468 50.4298 23.0642 50.4711 23.099C50.5124 23.128 50.5567 23.1745 50.6038 23.2383L51.2586 24.2829C50.9401 24.5441 50.5744 24.7414 50.1614 24.8749C49.7485 25.0083 49.3209 25.0751 48.8785 25.0751Z" fill="white"/>
<path d="M54.3327 24.1785H60.2696V24.9358H53.4302V12.6181H54.3327V24.1785Z" fill="white"/>
<path d="M67.6792 24.9358C67.5023 24.9358 67.3931 24.8546 67.3518 24.6921L67.228 23.5865C66.9861 23.8186 66.7443 24.0276 66.5024 24.2133C66.2665 24.399 66.0187 24.5557 65.7592 24.6834C65.4997 24.811 65.2195 24.9068 64.9187 24.9706C64.6178 25.0403 64.2875 25.0751 63.9277 25.0751C63.6269 25.0751 63.3349 25.0316 63.0517 24.9445C62.7686 24.8575 62.5179 24.724 62.2997 24.5441C62.0814 24.3642 61.9045 24.1349 61.7688 23.8564C61.639 23.572 61.5741 23.2325 61.5741 22.8379C61.5741 22.4723 61.6803 22.1328 61.8927 21.8194C62.105 21.506 62.4353 21.2332 62.8836 21.0011C63.3378 20.769 63.9188 20.5832 64.6267 20.444C65.3404 20.3047 66.1957 20.2234 67.1926 20.2002V19.2949C67.1926 18.494 67.0156 17.8789 66.6617 17.4494C66.3137 17.0141 65.7946 16.7965 65.1045 16.7965C64.6798 16.7965 64.317 16.8546 64.0162 16.9706C63.7212 17.0867 63.4705 17.2144 63.2641 17.3536C63.0576 17.4929 62.8895 17.6206 62.7598 17.7367C62.63 17.8527 62.5209 17.9108 62.4324 17.9108C62.3144 17.9108 62.2259 17.8585 62.167 17.7541L62.0165 17.5016C62.4766 17.049 62.9603 16.7066 63.4676 16.4744C63.9749 16.2423 64.55 16.1262 65.1929 16.1262C65.6648 16.1262 66.0777 16.2017 66.4317 16.3526C66.7856 16.4976 67.0775 16.7095 67.3076 16.988C67.5435 17.2608 67.7205 17.5945 67.8385 17.9891C67.9564 18.3779 68.0154 18.8132 68.0154 19.2949V24.9358H67.6792ZM64.14 24.4744C64.4822 24.4744 64.7948 24.4396 65.0779 24.37C65.367 24.2945 65.6324 24.193 65.8742 24.0653C66.122 23.9318 66.352 23.7751 66.5644 23.5952C66.7767 23.4153 66.9861 23.2209 67.1926 23.012V20.7573C66.355 20.7806 65.6324 20.8444 65.0248 20.9489C64.4232 21.0475 63.9247 21.1839 63.5295 21.358C63.1402 21.5321 62.8512 21.741 62.6624 21.9848C62.4796 22.2227 62.3882 22.4955 62.3882 22.803C62.3882 23.0932 62.4353 23.3457 62.5297 23.5604C62.63 23.7693 62.7598 23.9434 62.919 24.0827C63.0783 24.2162 63.2641 24.3148 63.4765 24.3787C63.6888 24.4425 63.91 24.4744 64.14 24.4744Z" fill="white"/>
<path d="M72.3621 27.7214C72.3267 27.8027 72.2795 27.8694 72.2205 27.9217C72.1674 27.9739 72.0878 28 71.9816 28H71.38L72.9284 24.6137L69.2034 16.2742H69.9024C69.9909 16.2742 70.0587 16.2974 70.1059 16.3439C70.159 16.3845 70.1973 16.4309 70.2209 16.4831L73.185 23.2209C73.2204 23.3079 73.2498 23.3979 73.2734 23.4908C73.3029 23.5778 73.3295 23.6678 73.3531 23.7606C73.3826 23.6678 73.4121 23.5778 73.4416 23.4908C73.4769 23.3979 73.5123 23.3079 73.5477 23.2209L76.4764 16.4831C76.5059 16.4193 76.5472 16.37 76.6003 16.3351C76.6533 16.2945 76.7123 16.2742 76.7772 16.2742H77.4231L72.3621 27.7214Z" fill="white"/>
<path d="M82.2278 16.1349C82.7233 16.1349 83.1804 16.2191 83.5992 16.3874C84.0239 16.5557 84.3896 16.8023 84.6964 17.1273C85.009 17.4465 85.2508 17.8411 85.4219 18.3112C85.5988 18.7813 85.6873 19.321 85.6873 19.9304C85.6873 20.058 85.6667 20.1451 85.6254 20.1915C85.59 20.2379 85.531 20.2612 85.4484 20.2612H79.0868V20.4266C79.0868 21.0765 79.1635 21.6482 79.3168 22.1415C79.4702 22.6347 79.6884 23.0497 79.9716 23.3863C80.2547 23.7171 80.5968 23.9666 80.9979 24.1349C81.399 24.3032 81.8473 24.3874 82.3428 24.3874C82.7852 24.3874 83.1686 24.341 83.493 24.2481C83.8175 24.1494 84.0888 24.0421 84.3071 23.926C84.5312 23.8041 84.7082 23.6968 84.8379 23.6039C84.9677 23.5053 85.0621 23.4559 85.1211 23.4559C85.1977 23.4559 85.2567 23.4849 85.298 23.543L85.5281 23.8215C85.3865 23.9956 85.1977 24.1581 84.9618 24.309C84.7318 24.4599 84.4722 24.5905 84.1832 24.7008C83.9001 24.8052 83.5933 24.8894 83.263 24.9532C82.9386 25.017 82.6112 25.049 82.2809 25.049C81.6792 25.049 81.1307 24.9474 80.6352 24.7443C80.1397 24.5354 79.715 24.2336 79.3611 23.839C79.0072 23.4443 78.7329 22.9626 78.5382 22.3939C78.3495 21.8194 78.2551 21.1636 78.2551 20.4266C78.2551 19.8056 78.3436 19.234 78.5205 18.7116C78.7034 18.1835 78.9629 17.7309 79.2991 17.3536C79.6413 16.9706 80.0571 16.6717 80.5467 16.457C81.0422 16.2423 81.6025 16.1349 82.2278 16.1349ZM82.2366 16.753C81.7825 16.753 81.3755 16.8226 81.0156 16.9619C80.6558 17.1012 80.3432 17.3014 80.0778 17.5626C79.8182 17.8237 79.6059 18.1371 79.4407 18.5027C79.2814 18.8683 79.1753 19.2775 79.1222 19.7301H84.9264C84.9264 19.2659 84.8615 18.8509 84.7318 18.4853C84.602 18.1139 84.4191 17.8005 84.1832 17.5452C83.9473 17.2898 83.6641 17.0954 83.3338 16.9619C83.0035 16.8226 82.6378 16.753 82.2366 16.753Z" fill="white"/>
<path d="M87.9478 24.9358V16.2742H88.3902C88.4905 16.2742 88.5613 16.2945 88.6026 16.3351C88.6498 16.3758 88.6763 16.4454 88.6822 16.5441L88.753 18.3721C89.0361 17.6699 89.4136 17.1215 89.8855 16.7269C90.3574 16.3264 90.9384 16.1262 91.6286 16.1262C91.894 16.1262 92.1388 16.1552 92.363 16.2133C92.5871 16.2655 92.7994 16.3439 93 16.4483L92.885 17.0229C92.8673 17.1157 92.8083 17.1621 92.708 17.1621C92.6726 17.1621 92.6225 17.1505 92.5576 17.1273C92.4927 17.1041 92.4101 17.078 92.3099 17.049C92.2155 17.0199 92.0975 16.9938 91.9559 16.9706C91.8144 16.9474 91.6522 16.9358 91.4693 16.9358C90.8028 16.9358 90.2542 17.1389 89.8236 17.5452C89.3989 17.9514 89.0538 18.5375 88.7884 19.3036V24.9358H87.9478Z" fill="white"/>
</svg>
